<?xml version="1.0" encoding="UTF-8"?>
<svg xmlns="http://www.w3.org/2000/svg" xmlns:xlink="http://www.w3.org/1999/xlink" version="1.2" >
<font id="HK Guise Regular">
<font-face  font-family="HK Guise" units-per-em="1000" ascent="767" descent="-233" font-style="normal" font-weight="400" font-stretch="normal" cap-height="767" x-height="542" underline-position="-107" underline-thickness="53" />
<missing-glyph  horiz-adv-x="549" d="M499 0 L499 520 L50 520 L50 0 L499 0 Z M85 485 L464 485 L464 35 L85 35 L85 485 Z " />
<glyph glyph-name="NULL" d="" />
<glyph glyph-name="CR" unicode="&#xd;" horiz-adv-x="250" d="" />
<glyph glyph-name="space" unicode="&#x20;" horiz-adv-x="280" d="" />
<glyph glyph-name="exclam" unicode="&#x21;" horiz-adv-x="269" d="M177 199 L177 767 L91 767 L91 199 L177 199 Z M135 -9 C170 -9 199 20 199 55 C199 89 170 117 135 117 C98 117 70 89 70 55 C70 20 98 -9 135 -9 L135 -9 Z " />
<glyph glyph-name="quotedbl" unicode="&#x22;" horiz-adv-x="327" d="M109 451 L109 767 L44 767 L44 451 L109 451 Z M283 451 L283 767 L217 767 L217 451 L283 451 Z " />
<glyph glyph-name="numbersign" unicode="&#x23;" horiz-adv-x="730" d="M188 0 L236 232 L424 232 L376 0 L437 0 L485 232 L643 232 L643 288 L497 288 L541 493 L689 493 L689 548 L552 548 L599 767 L538 767 L492 548 L304 548 L351 767 L289 767 L242 551 L87 551 L87 493 L230 493 L188 288 L42 288 L42 232 L176 232 L127 0 L188 0 Z M292 493 L479 493 L437 288 L249 288 L292 493 Z " />
<glyph glyph-name="dollar" unicode="&#x24;" horiz-adv-x="681" d="M638 219 C638 338 564 390 459 419 L373 443 L373 699 C467 687 525 635 531 543 L619 543 C614 685 507 761 373 774 L373 856 L338 856 L338 776 L332 776 C188 776 74 709 74 578 C74 441 193 405 267 384 L338 364 L338 66 C199 73 122 149 122 280 L36 280 C36 98 165 -2 338 -9 L338 -98 L373 -98 L373 -9 C534 -4 638 81 638 219 L638 219 Z M299 463 C229 483 160 502 160 581 C160 660 227 701 331 701 L338 701 L338 452 L299 463 Z M373 354 L407 345 C484 323 552 303 552 212 C552 121 486 70 373 66 L373 354 Z " />
<glyph glyph-name="percent" unicode="&#x25;" horiz-adv-x="762" d="M187 429 C270 429 329 502 329 601 C329 701 268 775 184 775 C90 775 41 689 41 602 C41 515 90 429 187 429 L187 429 Z M191 0 L625 767 L569 767 L135 0 L191 0 Z M187 482 C122 482 94 542 94 602 C94 662 121 722 184 722 C244 722 276 666 276 601 C276 531 239 482 187 482 L187 482 Z M577 -9 C660 -9 719 65 719 164 C719 264 659 337 574 337 C480 337 431 252 431 165 C431 77 480 -9 577 -9 L577 -9 Z M577 45 C512 45 484 105 484 165 C484 225 511 284 574 284 C634 284 666 229 666 164 C666 94 630 45 577 45 L577 45 Z " />
<glyph glyph-name="ampersand" unicode="&#x26;" horiz-adv-x="719" d="M283 -9 C381 -9 462 19 524 77 L589 0 L677 0 L677 8 L570 133 C611 195 636 280 641 387 L566 387 C562 314 548 249 526 195 L514 195 L345 393 C436 443 520 498 520 598 C520 697 441 774 331 774 C220 774 132 705 132 599 C132 523 194 452 229 414 L229 402 C133 353 45 293 45 177 C45 57 144 -9 283 -9 L283 -9 Z M300 441 C267 478 206 537 206 598 C206 665 255 709 331 709 C406 709 449 659 449 597 C449 521 378 482 300 441 L300 441 Z M284 56 C189 56 121 98 121 181 C121 264 198 311 284 356 L477 129 C428 82 362 56 284 56 L284 56 Z " />
<glyph glyph-name="quotesingle" unicode="&#x27;" horiz-adv-x="153" d="M109 451 L109 767 L44 767 L44 451 L109 451 Z " />
<glyph glyph-name="parenleft" unicode="&#x28;" horiz-adv-x="234" d="M235 -37 C146 74 99 221 99 381 C99 531 140 684 236 802 L165 802 C82 704 38 550 38 383 C38 242 85 55 166 -37 L235 -37 Z " />
<glyph glyph-name="parenright" unicode="&#x29;" horiz-adv-x="234" d="M69 -37 C149 55 196 242 196 383 C196 550 152 704 69 802 L-2 802 C94 684 135 531 135 381 C135 221 88 74 -1 -37 L69 -37 Z " />
<glyph glyph-name="asterisk" unicode="&#x2a;" horiz-adv-x="404" d="M201 567 L278 449 L322 481 L232 590 L369 625 L352 679 L220 627 L229 767 L173 767 L182 627 L51 679 L34 625 L171 590 L80 481 L124 449 L201 567 Z " />
<glyph glyph-name="plus" unicode="&#x2b;" horiz-adv-x="567" d="M313 11 L313 241 L543 241 L543 301 L313 301 L313 531 L254 531 L254 301 L24 301 L24 241 L254 241 L254 11 L313 11 Z " />
<glyph glyph-name="comma" unicode="&#x2c;" horiz-adv-x="256" d="M135 117 C95 117 69 90 69 56 C69 21 95 -8 134 -8 L76 -142 L76 -153 L122 -153 L186 4 C193 22 198 38 198 56 C198 90 172 117 135 117 L135 117 Z " />
<glyph glyph-name="hyphen" unicode="&#x2d;" horiz-adv-x="412" d="M354 241 L354 301 L59 301 L59 241 L354 241 Z " />
<glyph glyph-name="period" unicode="&#x2e;" horiz-adv-x="268" d="M134 -9 C170 -9 198 20 198 55 C198 89 169 117 134 117 C98 117 69 89 69 55 C69 20 98 -9 134 -9 L134 -9 Z " />
<glyph glyph-name="slash" unicode="&#x2f;" horiz-adv-x="432" d="M15 -232 L408 767 L336 767 L-58 -232 L15 -232 Z " />
<glyph glyph-name="zero" unicode="0" horiz-adv-x="586" d="M293 -9 C496 -9 523 157 523 248 L523 519 C523 610 496 776 293 776 C90 776 63 610 63 519 L63 248 C63 157 90 -9 293 -9 L293 -9 Z M293 69 C159 69 150 185 150 248 L150 519 C150 582 159 698 293 698 C427 698 437 582 437 519 L437 248 C437 185 427 69 293 69 L293 69 Z " />
<glyph glyph-name="one" unicode="1" horiz-adv-x="382" d="M228 702 C228 660 210 647 168 647 L34 647 L34 569 L226 569 L226 0 L312 0 L312 767 L228 767 L228 702 Z " />
<glyph glyph-name="two" unicode="2" horiz-adv-x="555" d="M409 373 C466 435 495 495 495 564 C495 676 405 776 273 776 C149 776 49 677 50 554 L136 554 C136 634 192 698 273 698 C354 698 408 634 408 564 C408 522 395 483 347 431 L49 103 L49 0 L511 0 L511 78 L141 78 L409 373 Z " />
<glyph glyph-name="three" unicode="3" horiz-adv-x="637" d="M315 -9 C465 -9 585 75 585 218 C585 327 505 390 403 410 L403 414 C483 438 543 486 543 577 C543 697 438 776 313 776 C183 776 82 694 82 563 L169 563 C171 647 226 698 315 698 C402 698 457 648 457 570 C457 461 363 437 286 437 L252 437 L252 371 L297 371 C384 371 498 349 498 225 C498 126 432 69 316 69 C200 69 133 127 132 230 L46 230 C45 76 162 -9 315 -9 L315 -9 Z " />
<glyph glyph-name="four" unicode="4" horiz-adv-x="644" d="M491 0 L491 176 L608 176 L608 254 L491 254 L491 767 L386 767 L37 261 L37 176 L404 176 L404 0 L491 0 Z M119 258 L399 660 L404 660 L404 254 L119 254 L119 258 Z " />
<glyph glyph-name="five" unicode="5" horiz-adv-x="631" d="M334 510 C275 510 220 493 174 453 L213 689 L541 689 L541 767 L140 767 L69 340 L157 340 C192 399 252 433 319 433 C420 433 493 358 493 255 C493 148 416 69 313 69 C227 69 159 123 138 207 L50 207 C72 80 171 -9 313 -9 C469 -9 580 102 580 253 C580 411 465 510 334 510 L334 510 Z " />
<glyph glyph-name="six" unicode="6" horiz-adv-x="617" d="M308 506 C289 506 270 503 251 496 L407 750 L407 767 L315 767 L97 409 C63 354 45 296 45 243 C45 95 155 -9 309 -9 C462 -9 572 94 572 248 C572 403 458 506 308 506 L308 506 Z M308 69 C208 69 132 136 132 248 C132 350 209 426 308 426 C409 426 485 359 485 249 C485 137 409 69 308 69 L308 69 Z " />
<glyph glyph-name="seven" unicode="7" horiz-adv-x="573" d="M181 0 L540 688 L540 767 L29 767 L29 689 L443 689 L443 682 L93 17 L93 0 L181 0 Z " />
<glyph glyph-name="eight" unicode="8" horiz-adv-x="628" d="M314 -9 C451 -9 575 70 575 221 C575 316 522 382 439 414 L439 418 C496 446 534 506 534 577 C534 699 434 776 315 776 C205 776 96 705 96 581 C96 507 133 447 190 418 L190 414 C106 383 52 316 52 221 C52 70 178 -9 314 -9 L314 -9 Z M315 447 C234 447 181 498 181 574 C181 652 241 699 315 699 C397 699 449 646 449 570 C449 498 395 447 315 447 L315 447 Z M314 69 C219 69 138 124 138 222 C138 315 210 377 314 377 C417 377 489 315 489 222 C489 124 410 69 314 69 L314 69 Z " />
<glyph glyph-name="nine" unicode="9" horiz-adv-x="609" d="M300 776 C147 776 37 673 37 519 C37 364 150 261 300 261 C319 261 338 264 357 270 L202 17 L202 0 L294 0 L512 358 C546 413 563 471 563 524 C563 672 454 776 300 776 L300 776 Z M300 341 C200 341 123 408 123 518 C123 630 200 698 300 698 C401 698 477 631 477 519 C477 417 399 341 300 341 L300 341 Z " />
<glyph glyph-name="colon" unicode="&#x3a;" horiz-adv-x="268" d="M134 403 C170 403 198 432 198 467 C198 501 169 529 134 529 C98 529 69 501 69 467 C69 432 98 403 134 403 L134 403 Z M134 -9 C170 -9 198 20 198 55 C198 89 169 117 134 117 C98 117 69 89 69 55 C69 20 98 -9 134 -9 L134 -9 Z " />
<glyph glyph-name="semicolon" unicode="&#x3b;" horiz-adv-x="271" d="M138 403 C173 403 202 432 202 467 C202 501 173 529 138 529 C101 529 72 501 72 467 C72 432 101 403 138 403 L138 403 Z M139 117 C99 117 73 90 73 56 C73 21 98 -8 137 -8 L79 -142 L79 -153 L125 -153 L189 4 C197 22 202 38 202 56 C202 90 176 117 139 117 L139 117 Z " />
<glyph glyph-name="less" unicode="&#x3c;" horiz-adv-x="384" d="M360 127 L85 271 L360 416 L360 483 L24 304 L24 239 L360 59 L360 127 Z " />
<glyph glyph-name="equal" unicode="&#x3d;" horiz-adv-x="502" d="M478 346 L478 406 L24 406 L24 346 L478 346 Z M478 136 L478 196 L24 196 L24 136 L478 136 Z " />
<glyph glyph-name="greater" unicode="&#x3e;" horiz-adv-x="384" d="M360 239 L360 304 L24 483 L24 416 L299 271 L24 127 L24 59 L360 239 Z " />
<glyph glyph-name="question" unicode="&#x3f;" horiz-adv-x="381" d="M173 199 L173 298 C173 463 365 412 365 587 C365 648 339 696 295 726 C258 752 210 767 136 767 L34 767 L34 689 L127 689 C179 689 218 680 242 661 C266 643 278 620 278 585 C278 451 86 504 86 299 L86 199 L173 199 Z M129 -9 C165 -9 193 20 193 55 C193 89 164 117 129 117 C93 117 64 89 64 55 C64 20 93 -9 129 -9 L129 -9 Z " />
<glyph glyph-name="at" unicode="&#x40;" horiz-adv-x="1065" d="M528 -191 C585 -191 635 -183 691 -164 L674 -115 C624 -133 580 -140 528 -140 C288 -140 106 22 106 281 C106 537 281 728 539 728 C789 728 958 551 958 303 C958 148 893 14 770 14 C707 14 690 61 695 130 C702 222 740 388 773 543 L719 543 L700 456 L696 456 C683 530 636 571 558 571 C385 571 279 386 279 226 C279 98 348 27 452 27 C542 27 606 82 645 154 L650 154 C648 127 647 104 649 83 C651 7 692 -36 765 -36 C925 -36 1012 122 1012 303 C1012 580 813 779 538 779 C254 779 53 566 53 281 C53 -7 259 -191 528 -191 L528 -191 Z M452 81 C377 81 333 126 333 224 C333 360 416 518 559 518 C633 518 677 474 677 377 C677 245 595 81 452 81 L452 81 Z " />
<glyph glyph-name="A" unicode="A" horiz-adv-x="680" d="M280 767 L13 17 L13 0 L99 0 L162 180 L518 180 L581 0 L666 0 L666 17 L400 767 L280 767 Z M335 677 L345 677 L491 258 L189 258 L335 677 Z " />
<glyph glyph-name="B" unicode="B" horiz-adv-x="621" d="M290 0 C402 0 468 17 512 56 C558 96 578 155 578 217 C578 315 531 381 446 404 L446 412 C501 437 546 494 546 578 C546 638 526 686 487 717 C434 760 368 767 273 767 L69 767 L69 0 L290 0 Z M155 689 L268 689 C350 689 392 683 422 658 C447 637 460 606 460 565 C460 523 447 492 425 471 C398 445 357 437 319 437 L155 437 L155 689 Z M155 359 L327 359 C384 359 424 351 455 325 C479 303 492 270 492 224 C492 175 477 141 451 118 C413 85 349 77 288 77 L155 77 L155 359 Z " />
<glyph glyph-name="C" unicode="C" horiz-adv-x="768" d="M393 -9 C572 -9 701 103 732 280 L643 280 C615 150 521 69 393 69 C233 69 127 195 127 384 C127 573 233 698 393 698 C521 698 615 617 643 487 L732 487 C701 664 572 776 393 776 C181 776 40 619 40 384 C40 148 181 -9 393 -9 L393 -9 Z " />
<glyph glyph-name="D" unicode="D" horiz-adv-x="753" d="M307 0 C428 0 530 30 602 94 C671 156 712 251 712 381 C712 511 673 606 605 668 C534 736 430 767 307 767 L68 767 L68 0 L307 0 Z M155 689 L306 689 C406 689 493 665 551 604 C599 555 626 481 626 381 C626 282 597 209 548 159 C490 101 404 78 306 78 L155 78 L155 689 Z " />
<glyph glyph-name="E" unicode="E" horiz-adv-x="601" d="M572 0 L572 78 L155 78 L155 357 L509 357 L509 434 L155 434 L155 689 L550 689 L550 767 L69 767 L69 0 L572 0 Z " />
<glyph glyph-name="F" unicode="F" horiz-adv-x="571" d="M155 0 L155 357 L509 357 L509 434 L155 434 L155 689 L550 689 L550 767 L69 767 L69 0 L155 0 Z " />
<glyph glyph-name="G" unicode="G" horiz-adv-x="792" d="M450 325 L656 325 C651 170 546 69 398 69 C233 69 127 195 127 384 C127 573 233 698 393 698 C521 698 615 617 643 487 L732 487 C701 664 572 776 393 776 C181 776 40 619 40 384 C40 148 181 -9 393 -9 C511 -9 594 35 649 117 L650 117 L650 0 L736 0 L736 402 L450 402 L450 325 Z " />
<glyph glyph-name="H" unicode="H" horiz-adv-x="706" d="M155 0 L155 357 L551 357 L551 0 L637 0 L637 767 L551 767 L551 434 L155 434 L155 767 L69 767 L69 0 L155 0 Z " />
<glyph glyph-name="I" unicode="I" horiz-adv-x="224" d="M155 0 L155 767 L69 767 L69 0 L155 0 Z " />
<glyph glyph-name="J" unicode="J" horiz-adv-x="573" d="M265 -9 C350 -9 414 17 455 63 C501 115 509 184 509 258 L509 767 L143 767 L143 689 L423 689 L423 270 C423 204 415 154 386 119 C361 88 319 68 265 68 C210 68 169 88 143 119 C117 151 108 194 107 258 L21 258 C21 184 29 115 75 63 C115 17 180 -9 265 -9 L265 -9 Z " />
<glyph glyph-name="K" unicode="K" horiz-adv-x="676" d="M642 750 L642 767 L538 767 L163 382 L155 382 L155 767 L69 767 L69 0 L155 0 L155 254 L312 414 L319 414 L571 0 L661 0 L661 17 L380 483 L642 750 Z " />
<glyph glyph-name="L" unicode="L" horiz-adv-x="508" d="M501 0 L501 78 L155 78 L155 767 L69 767 L69 0 L501 0 Z " />
<glyph glyph-name="M" unicode="M" horiz-adv-x="908" d="M155 0 L155 690 L166 690 L387 0 L520 0 L741 690 L752 690 L752 0 L838 0 L838 767 L680 767 L458 77 L448 77 L227 767 L69 767 L69 0 L155 0 Z " />
<glyph glyph-name="N" unicode="N" horiz-adv-x="741" d="M155 0 L155 690 L166 690 L520 0 L671 0 L671 767 L585 767 L585 77 L575 77 L221 767 L69 767 L69 0 L155 0 Z " />
<glyph glyph-name="O" unicode="O" horiz-adv-x="787" d="M393 -9 C605 -9 746 148 746 384 C746 619 605 776 393 776 C181 776 40 619 40 384 C40 148 181 -9 393 -9 L393 -9 Z M393 69 C233 69 127 195 127 384 C127 573 233 698 393 698 C553 698 660 573 660 384 C660 195 553 69 393 69 L393 69 Z " />
<glyph glyph-name="P" unicode="P" horiz-adv-x="574" d="M155 0 L155 332 L274 332 C364 332 427 344 470 377 C518 412 546 472 546 550 C546 627 518 687 470 722 C427 755 364 767 274 767 L69 767 L69 0 L155 0 Z M155 689 L260 689 C337 689 383 683 418 655 C442 635 460 603 460 550 C460 498 443 465 418 444 C384 416 337 410 260 410 L155 410 L155 689 Z " />
<glyph glyph-name="Q" unicode="Q" horiz-adv-x="790" d="M746 384 C746 619 605 776 393 776 C181 776 40 619 40 384 C40 148 181 -9 393 -9 C479 -9 554 17 612 64 L663 0 L746 0 L746 17 L665 118 C717 185 746 276 746 384 L746 384 Z M393 69 C233 69 127 195 127 384 C127 573 233 698 393 698 C553 698 660 573 660 384 C660 306 642 239 609 187 L525 291 L442 291 L442 274 L559 128 C515 90 459 69 393 69 L393 69 Z " />
<glyph glyph-name="R" unicode="R" horiz-adv-x="617" d="M389 342 C422 349 448 360 470 377 C518 412 546 472 546 550 C546 627 518 687 470 722 C427 755 364 767 274 767 L69 767 L69 0 L155 0 L155 332 L274 332 L293 332 L501 0 L591 0 L591 18 L389 339 L389 342 Z M155 410 L155 689 L260 689 C337 689 383 683 418 655 C442 635 460 603 460 550 C460 498 443 465 418 444 C384 416 337 410 260 410 L155 410 Z " />
<glyph glyph-name="S" unicode="S" horiz-adv-x="681" d="M358 -9 C528 -9 638 77 638 219 C638 338 564 390 459 419 L299 463 C229 483 160 502 160 581 C160 660 227 701 331 701 C450 701 524 648 531 543 L619 543 C613 699 485 776 332 776 C188 776 74 709 74 578 C74 441 193 405 267 384 L407 345 C484 323 552 303 552 212 C552 117 480 66 358 66 C206 66 122 143 122 280 L36 280 C36 91 175 -9 358 -9 L358 -9 Z " />
<glyph glyph-name="T" unicode="T" horiz-adv-x="624" d="M355 0 L355 689 L617 689 L617 767 L6 767 L6 689 L269 689 L269 0 L355 0 Z " />
<glyph glyph-name="U" unicode="U" horiz-adv-x="681" d="M340 -9 C530 -9 618 81 618 254 L618 767 L532 767 L532 259 C532 140 482 69 340 69 C201 69 149 136 149 259 L149 767 L62 767 L62 254 C62 84 148 -9 340 -9 L340 -9 Z " />
<glyph glyph-name="V" unicode="V" horiz-adv-x="679" d="M399 0 L666 750 L666 767 L580 767 L345 95 L334 95 L99 767 L13 767 L13 750 L279 0 L399 0 Z " />
<glyph glyph-name="W" unicode="W" horiz-adv-x="1125" d="M412 0 L558 697 L566 697 L712 0 L845 0 L1111 750 L1111 767 L1025 767 L790 95 L779 95 L637 767 L487 767 L345 95 L334 95 L99 767 L13 767 L13 750 L279 0 L412 0 Z " />
<glyph glyph-name="X" unicode="X" horiz-adv-x="670" d="M110 0 L330 319 L338 319 L559 0 L652 0 L652 17 L395 386 L648 750 L648 767 L555 767 L339 453 L330 453 L114 767 L21 767 L21 750 L274 386 L18 17 L18 0 L110 0 Z " />
<glyph glyph-name="Y" unicode="Y" horiz-adv-x="663" d="M374 0 L374 286 L655 750 L655 767 L565 767 L334 382 L328 382 L97 767 L7 767 L7 750 L288 286 L288 0 L374 0 Z " />
<glyph glyph-name="Z" unicode="Z" horiz-adv-x="646" d="M618 0 L618 78 L113 78 L113 88 L610 643 L610 767 L46 767 L46 689 L523 689 L523 679 L26 123 L26 0 L618 0 Z " />
<glyph glyph-name="bracketleft" unicode="&#x5b;" horiz-adv-x="284" d="M284 -70 L284 -17 L142 -17 L142 782 L284 782 L284 834 L79 834 L79 -70 L284 -70 Z " />
<glyph glyph-name="backslash" unicode="&#x5c;" horiz-adv-x="432" d="M489 -232 L96 767 L24 767 L416 -232 L489 -232 Z " />
<glyph glyph-name="bracketright" unicode="&#x5d;" horiz-adv-x="284" d="M205 -70 L205 834 L0 834 L0 782 L143 782 L143 -17 L0 -17 L0 -70 L205 -70 Z " />
<glyph glyph-name="asciicircum" unicode="&#x5e;" horiz-adv-x="619" d="M137 246 L309 647 L483 246 L564 246 L309 795 L55 246 L137 246 Z " />
<glyph glyph-name="underscore" unicode="&#x5f;" horiz-adv-x="675" d="M616 -59 L616 0 L59 0 L59 -59 L616 -59 Z " />
<glyph glyph-name="grave" unicode="&#x60;" horiz-adv-x="210" d="M200 611 L85 767 L3 767 L140 611 L200 611 Z " />
<glyph glyph-name="a" unicode="a" horiz-adv-x="545" d="M467 453 C437 519 365 551 273 551 C133 551 66 481 57 383 L140 383 C146 442 187 485 272 485 C363 485 405 436 406 359 L407 320 L240 320 C123 320 42 273 42 158 C42 54 116 -9 228 -9 C304 -9 360 23 397 87 L406 87 L406 0 L487 0 L487 334 C487 372 485 416 467 453 L467 453 Z M239 59 C168 59 125 97 125 158 C125 234 175 258 250 258 L406 258 C404 141 356 59 239 59 L239 59 Z " />
<glyph glyph-name="b" unicode="b" horiz-adv-x="612" d="M329 -9 C472 -9 571 97 571 271 C571 445 472 551 329 551 C251 551 185 518 150 454 L143 454 L143 767 L62 767 L62 0 L143 0 L143 88 L150 88 C185 24 251 -9 329 -9 L329 -9 Z M314 62 C208 62 137 136 137 271 C137 406 208 480 314 480 C419 480 489 405 489 271 C489 137 419 62 314 62 L314 62 Z " />
<glyph glyph-name="c" unicode="c" horiz-adv-x="583" d="M303 -9 C429 -9 523 59 547 181 L462 181 C444 103 385 62 303 62 C195 62 122 136 122 271 C122 406 195 480 303 480 C385 480 444 438 462 361 L547 361 C523 482 428 551 303 551 C151 551 40 449 40 271 C40 93 151 -9 303 -9 L303 -9 Z " />
<glyph glyph-name="d" unicode="d" horiz-adv-x="612" d="M283 -9 C361 -9 427 24 462 88 L469 88 L469 0 L550 0 L550 767 L469 767 L469 454 L462 454 C427 518 361 551 283 551 C140 551 41 445 41 271 C41 97 140 -9 283 -9 L283 -9 Z M299 62 C193 62 123 137 123 271 C123 405 193 480 299 480 C404 480 475 406 475 271 C475 136 404 62 299 62 L299 62 Z " />
<glyph glyph-name="e" unicode="e" horiz-adv-x="603" d="M565 280 C562 449 454 551 303 551 C151 551 40 449 40 271 C40 93 151 -9 303 -9 C420 -9 513 54 549 163 L461 163 C434 99 377 62 303 62 C199 62 127 132 122 258 L564 258 L565 280 Z M303 480 C396 480 463 422 480 320 L126 320 C141 423 209 480 303 480 L303 480 Z " />
<glyph glyph-name="f" unicode="f" horiz-adv-x="320" d="M303 692 L303 767 L231 767 C154 767 110 722 110 646 L110 542 L20 542 L20 467 L110 467 L110 0 L191 0 L191 467 L303 467 L303 542 L191 542 L191 646 C191 672 211 692 238 692 L303 692 Z " />
<glyph glyph-name="g" unicode="g" horiz-adv-x="612" d="M446 -225 C514 -225 550 -187 550 -121 L550 542 L469 542 L469 454 L462 454 C427 518 361 551 283 551 C140 551 41 445 41 271 C41 97 140 -9 283 -9 C361 -9 427 24 462 88 L469 88 L469 -100 C469 -135 450 -154 415 -154 L190 -154 C155 -154 136 -135 136 -100 L136 -45 L54 -45 L54 -121 C54 -188 91 -225 158 -225 L446 -225 Z M299 62 C193 62 123 137 123 271 C123 405 193 480 299 480 C404 480 475 406 475 271 C475 136 404 62 299 62 L299 62 Z " />
<glyph glyph-name="h" unicode="h" horiz-adv-x="561" d="M143 0 L143 294 C143 336 147 373 158 397 C178 446 222 476 283 476 C387 476 423 413 423 299 L423 0 L505 0 L505 318 C505 467 439 551 308 551 C236 551 182 519 151 473 L143 473 L143 767 L61 767 L61 0 L143 0 Z " />
<glyph glyph-name="i" unicode="i" horiz-adv-x="205" d="M102 664 C132 664 158 690 158 722 C158 753 132 778 102 778 C69 778 45 753 45 722 C45 690 69 664 102 664 L102 664 Z M143 0 L143 542 L61 542 L61 0 L143 0 Z " />
<glyph glyph-name="j" unicode="j" horiz-adv-x="216" d="M112 664 C142 664 168 690 168 722 C168 753 142 778 112 778 C79 778 55 753 55 722 C55 690 79 664 112 664 L112 664 Z M32 -225 C108 -225 153 -180 153 -104 L153 542 L71 542 L71 -104 C71 -130 51 -150 25 -150 L-29 -150 L-29 -225 L32 -225 Z " />
<glyph glyph-name="k" unicode="k" horiz-adv-x="555" d="M496 520 L496 542 L406 542 L148 273 L143 273 L143 767 L61 767 L61 0 L143 0 L143 160 L267 286 L271 286 L450 0 L535 0 L535 17 L326 347 L496 520 Z " />
<glyph glyph-name="l" unicode="l" horiz-adv-x="266" d="M240 0 L240 75 L187 75 C160 75 141 95 141 121 L141 767 L59 767 L59 121 C59 45 103 0 180 0 L240 0 Z " />
<glyph glyph-name="m" unicode="m" horiz-adv-x="890" d="M144 0 L144 313 C144 361 149 388 161 409 C182 452 223 476 278 476 C372 476 407 414 407 313 L407 0 L488 0 L488 313 C488 351 492 378 501 400 C522 450 566 476 623 476 C714 476 751 416 751 332 L751 0 L833 0 L833 338 C833 458 781 551 642 551 C566 551 508 518 472 448 L464 448 C440 515 387 551 306 551 C233 551 181 520 152 474 L144 474 L144 542 L62 542 L62 0 L144 0 Z " />
<glyph glyph-name="n" unicode="n" horiz-adv-x="561" d="M143 0 L143 294 C143 336 147 373 158 397 C178 446 222 476 283 476 C387 476 423 413 423 299 L423 0 L505 0 L505 318 C505 467 439 551 308 551 C236 551 182 519 151 473 L143 473 L143 542 L61 542 L61 0 L143 0 Z " />
<glyph glyph-name="o" unicode="o" horiz-adv-x="606" d="M303 -9 C454 -9 565 93 565 271 C565 449 454 551 303 551 C151 551 40 449 40 271 C40 93 151 -9 303 -9 L303 -9 Z M303 62 C195 62 122 137 122 271 C122 405 195 480 303 480 C410 480 483 405 483 271 C483 137 410 62 303 62 L303 62 Z " />
<glyph glyph-name="p" unicode="p" horiz-adv-x="612" d="M329 551 C251 551 185 518 150 454 L143 454 L143 542 L62 542 L62 -225 L143 -225 L143 88 L150 88 C185 24 251 -9 329 -9 C472 -9 571 97 571 271 C571 445 472 551 329 551 L329 551 Z M314 480 C419 480 489 405 489 271 C489 137 419 62 314 62 C208 62 137 136 137 271 C137 406 208 480 314 480 L314 480 Z " />
<glyph glyph-name="q" unicode="q" horiz-adv-x="612" d="M283 551 C140 551 41 445 41 271 C41 97 140 -9 283 -9 C361 -9 427 24 462 88 L469 88 L469 -225 L550 -225 L550 542 L469 542 L469 454 L462 454 C427 518 361 551 283 551 L283 551 Z M299 480 C404 480 475 406 475 271 C475 136 404 62 299 62 C193 62 123 137 123 271 C123 405 193 480 299 480 L299 480 Z " />
<glyph glyph-name="r" unicode="r" horiz-adv-x="361" d="M143 0 L143 370 C143 432 178 467 240 467 L344 467 L344 542 L253 542 C204 542 174 525 153 493 L143 493 L143 542 L61 542 L61 0 L143 0 Z " />
<glyph glyph-name="s" unicode="s" horiz-adv-x="527" d="M271 -9 C397 -9 485 52 485 159 C485 242 432 287 336 309 L250 330 C181 345 141 357 141 406 C141 459 191 485 256 485 C329 485 384 454 391 383 L473 383 C465 487 381 551 256 551 C149 551 59 502 59 400 C59 298 150 272 209 258 L314 233 C357 223 403 210 403 150 C403 86 350 57 273 57 C186 57 128 91 119 181 L37 181 C42 56 136 -9 271 -9 L271 -9 Z " />
<glyph glyph-name="t" unicode="t" horiz-adv-x="332" d="M303 542 L191 542 L191 767 L109 767 L109 542 L20 542 L20 467 L109 467 L109 121 C109 45 154 0 230 0 L303 0 L303 75 L237 75 C211 75 191 95 191 121 L191 467 L303 467 L303 542 Z " />
<glyph glyph-name="u" unicode="u" horiz-adv-x="561" d="M252 -9 C325 -9 378 24 409 69 L417 69 L417 0 L499 0 L499 542 L417 542 L417 248 C417 207 414 170 401 144 C381 95 336 66 276 66 C173 66 137 129 137 243 L137 542 L55 542 L55 224 C55 75 121 -9 252 -9 L252 -9 Z " />
<glyph glyph-name="v" unicode="v" horiz-adv-x="561" d="M345 0 L544 542 L456 542 L285 71 L275 71 L104 542 L17 542 L216 0 L345 0 Z " />
<glyph glyph-name="w" unicode="w" horiz-adv-x="910" d="M346 0 L450 467 L460 467 L564 0 L694 0 L893 542 L806 542 L635 72 L624 72 L521 542 L389 542 L285 72 L275 72 L104 542 L17 542 L217 0 L346 0 Z " />
<glyph glyph-name="x" unicode="x" horiz-adv-x="547" d="M118 0 L268 208 L278 208 L428 0 L528 0 L330 273 L527 542 L428 542 L278 337 L268 337 L119 542 L19 542 L215 273 L19 0 L118 0 Z " />
<glyph glyph-name="y" unicode="y" horiz-adv-x="561" d="M285 71 L275 71 L104 542 L17 542 L216 0 L260 0 L222 -99 C209 -131 184 -149 148 -149 L55 -149 L55 -224 L167 -224 C224 -224 268 -194 289 -140 L345 0 L544 542 L456 542 L285 71 Z " />
<glyph glyph-name="z" unicode="z" horiz-adv-x="513" d="M477 0 L477 75 L124 75 L124 81 L474 428 L474 542 L49 542 L49 467 L383 467 L383 459 L33 112 L33 0 L477 0 Z " />
<glyph glyph-name="braceleft" unicode="&#x7b;" horiz-adv-x="264" d="M257 -76 L257 -24 L218 -24 C170 -24 146 10 146 63 L146 253 C146 308 120 337 77 355 L77 362 C121 378 146 408 146 472 L146 677 C146 731 167 762 223 762 L258 762 L258 814 L199 814 C120 814 81 765 81 678 L81 473 C81 414 52 397 15 387 L15 330 C50 318 81 302 81 252 L81 62 C81 -22 120 -76 194 -76 L257 -76 Z " />
<glyph glyph-name="bar" unicode="&#x7c;" horiz-adv-x="332" d="M195 -278 L195 832 L137 832 L137 -278 L195 -278 Z " />
<glyph glyph-name="braceright" unicode="&#x7d;" horiz-adv-x="264" d="M70 -76 C144 -76 183 -22 183 62 L183 252 C183 302 213 318 249 330 L249 387 C212 397 183 414 183 473 L183 678 C183 765 143 814 65 814 L6 814 L6 762 L41 762 C97 762 117 731 117 677 L117 472 C117 408 142 378 187 362 L187 355 C144 337 117 308 117 253 L117 63 C117 10 94 -24 46 -24 L6 -24 L6 -76 L70 -76 Z " />
<glyph glyph-name="asciitilde" unicode="&#x7e;" horiz-adv-x="500" d="M346 177 C424 177 476 247 476 351 L417 351 C417 279 388 230 346 230 C267 230 272 365 152 365 C74 365 24 301 24 203 L83 203 C83 270 108 312 152 312 C235 312 229 177 346 177 L346 177 Z " />
<glyph glyph-name="uni00A0" unicode="&#xa0;" horiz-adv-x="306" d="" />
<glyph glyph-name="exclamdown" unicode="&#xa1;" horiz-adv-x="283" d="M148 551 C111 551 83 522 83 487 C83 453 111 425 148 425 C183 425 212 453 212 487 C212 522 183 551 148 551 L148 551 Z M104 -225 L191 -225 L191 343 L104 343 L104 -225 Z " />
<glyph glyph-name="cent" unicode="&#xa2;" horiz-adv-x="581" d="M320 482 C395 477 447 434 464 361 L545 361 C522 476 437 544 320 551 L320 642 L284 642 L284 551 C141 543 40 442 40 271 C40 100 141 -1 284 -9 L284 -101 L320 -101 L320 -9 C437 -2 522 65 545 181 L464 181 C447 107 395 65 320 60 L320 482 Z M118 271 C118 400 185 474 284 482 L284 60 C185 68 118 142 118 271 L118 271 Z " />
<glyph glyph-name="sterling" unicode="&#xa3;" horiz-adv-x="609" d="M169 83 C196 109 265 155 265 249 C265 291 257 326 247 357 L440 357 L440 431 L220 431 C207 466 196 501 196 545 C196 646 255 702 343 702 C429 702 477 651 490 581 L567 581 C559 693 474 776 347 776 C213 776 122 683 122 552 C122 508 132 469 145 431 L51 431 L51 357 L171 357 C183 322 192 287 192 249 C192 167 136 113 48 82 L48 0 L550 0 L550 74 L169 74 L169 83 Z " />
<glyph glyph-name="currency" unicode="&#xa4;" horiz-adv-x="747" d="M219 148 C308 76 438 76 527 148 L582 93 L624 136 L568 190 C641 278 641 409 568 498 L624 552 L582 593 L527 539 C438 612 309 611 220 538 L165 594 L124 551 L178 497 C106 409 105 278 178 190 L123 136 L164 93 L219 148 Z M237 209 C163 282 164 404 238 478 C313 553 433 553 508 478 C583 404 582 283 508 209 C433 133 313 133 237 209 L237 209 Z " />
<glyph glyph-name="yen" unicode="&#xa5;" horiz-adv-x="663" d="M565 767 L334 382 L328 382 L97 767 L7 767 L7 750 L249 351 L108 351 L108 288 L287 288 L288 286 L288 184 L108 184 L108 121 L288 121 L288 0 L374 0 L374 121 L578 121 L578 184 L374 184 L374 286 L375 288 L578 288 L578 351 L413 351 L655 750 L655 767 L565 767 Z " />
<glyph glyph-name="brokenbar" unicode="&#xa6;" horiz-adv-x="256" d="M157 361 L157 832 L99 832 L99 361 L157 361 Z M157 -278 L157 189 L99 189 L99 -278 L157 -278 Z " />
<glyph glyph-name="section" unicode="&#xa7;" horiz-adv-x="664" d="M571 213 C571 462 172 400 172 586 C172 653 230 704 309 704 C404 704 473 653 473 543 L553 543 C551 701 443 775 309 775 C190 775 92 700 92 584 C92 541 105 507 125 481 C104 448 93 409 93 364 C93 114 492 177 492 -10 C492 -76 433 -127 354 -127 C260 -127 190 -76 190 34 L111 34 C113 -124 221 -198 354 -198 C474 -198 571 -123 571 -6 C571 37 559 70 538 96 C560 129 571 168 571 213 L571 213 Z M172 370 C172 391 177 411 185 429 C303 358 492 348 492 207 C492 186 488 165 479 147 C362 219 172 228 172 370 L172 370 Z " />
<glyph glyph-name="dieresis" unicode="&#xa8;" horiz-adv-x="402" d="M102 664 C132 664 158 690 158 722 C158 753 132 778 102 778 C69 778 45 753 45 722 C45 690 69 664 102 664 L102 664 Z M302 664 C332 664 358 690 358 722 C358 753 332 778 302 778 C269 778 244 753 244 722 C244 690 269 664 302 664 L302 664 Z " />
<glyph glyph-name="copyright" unicode="&#xa9;" horiz-adv-x="897" d="M448 -11 C668 -11 847 155 847 383 C847 611 668 777 448 777 C229 777 50 611 50 383 C50 155 229 -11 448 -11 L448 -11 Z M449 39 C256 39 100 183 100 383 C100 584 256 728 449 728 C641 728 797 583 797 383 C797 184 641 39 449 39 L449 39 Z M453 123 C578 123 658 201 676 315 L619 315 C603 232 545 174 453 174 C341 174 276 261 276 383 C276 506 340 592 453 592 C545 592 603 534 619 452 L676 452 C658 567 576 643 453 643 C307 643 220 534 220 383 C220 233 307 123 453 123 L453 123 Z " />
<glyph glyph-name="ordfeminine" unicode="&#xaa;" horiz-adv-x="335" d="M281 717 C262 758 218 776 165 776 C82 776 40 734 35 675 L84 675 C89 711 113 736 165 736 C219 736 244 707 244 661 L244 638 L145 638 C75 638 26 610 26 540 C26 478 71 441 137 441 C183 441 216 459 239 497 L244 497 L251 445 L293 445 L293 646 C293 670 291 697 281 717 L281 717 Z M145 482 C103 482 76 504 76 540 C76 585 105 600 151 600 L244 600 C244 530 214 482 145 482 L145 482 Z " />
<glyph glyph-name="guillemotleft" unicode="&#xab;" horiz-adv-x="543" d="M272 154 L136 271 L272 389 L272 457 L57 271 L272 85 L272 154 Z M478 154 L343 271 L478 389 L478 457 L262 271 L478 85 L478 154 Z " />
<glyph glyph-name="logicalnot" unicode="&#xac;" horiz-adv-x="540" d="M516 27 L516 301 L24 301 L24 242 L457 242 L457 27 L516 27 Z " />
<glyph glyph-name="uni00AD" unicode="&#xad;" horiz-adv-x="412" d="M354 241 L354 301 L59 301 L59 241 L354 241 Z " />
<glyph glyph-name="registered" unicode="&#xae;" horiz-adv-x="590" d="M294 266 C433 266 548 370 548 521 C548 672 434 777 294 777 C155 777 42 672 42 521 C42 370 155 266 294 266 L294 266 Z M294 301 C174 301 76 389 76 521 C76 653 174 742 294 742 C415 742 513 653 513 521 C513 389 415 301 294 301 L294 301 Z M247 371 L247 505 L286 505 L304 505 L381 371 L421 371 L339 509 C378 520 400 549 400 587 C400 639 361 673 299 673 L213 673 L213 371 L247 371 Z M247 640 L299 640 C341 640 365 621 365 586 C365 554 342 534 302 534 L247 534 L247 640 Z " />
<glyph glyph-name="macron" unicode="&#xaf;" horiz-adv-x="415" d="M356 658 L356 706 L59 706 L59 658 L356 658 Z " />
<glyph glyph-name="degree" unicode="&#xb0;" horiz-adv-x="507" d="M253 463 C339 463 409 532 409 619 C409 705 339 775 253 775 C167 775 97 705 97 619 C97 532 167 463 253 463 L253 463 Z M253 516 C196 516 150 562 150 619 C150 676 196 722 253 722 C311 722 356 676 356 619 C356 562 311 516 253 516 L253 516 Z " />
<glyph glyph-name="plusminus" unicode="&#xb1;" horiz-adv-x="567" d="M313 238 L313 346 L543 346 L543 406 L313 406 L313 514 L254 514 L254 406 L24 406 L24 346 L254 346 L254 238 L313 238 Z M543 136 L543 196 L24 196 L24 136 L543 136 Z " />
<glyph glyph-name="uni00B2" unicode="&#xb2;" horiz-adv-x="370" d="M265 531 C300 568 317 604 317 646 C317 713 263 772 183 772 C109 772 50 713 50 640 L102 640 C102 687 135 726 183 726 C233 726 265 688 265 646 C265 620 257 597 228 565 L49 369 L49 307 L327 307 L327 354 L105 354 L265 531 Z " />
<glyph glyph-name="uni00B3" unicode="&#xb3;" horiz-adv-x="421" d="M207 302 C297 302 369 352 369 438 C369 503 321 541 260 553 L260 555 C308 570 344 599 344 653 C344 725 281 772 206 772 C128 772 68 723 68 645 L119 645 C121 695 154 726 207 726 C259 726 293 696 293 649 C293 584 236 569 190 569 L169 569 L169 530 L196 530 C248 530 317 516 317 442 C317 383 277 348 208 348 C138 348 98 383 98 445 L46 445 C45 353 115 302 207 302 L207 302 Z " />
<glyph glyph-name="acute" unicode="&#xb4;" horiz-adv-x="212" d="M66 611 L209 767 L127 767 L8 611 L66 611 Z " />
<glyph glyph-name="uni00B5" unicode="&#xb5;" horiz-adv-x="686" d="M200 -188 L200 55 C224 14 267 -9 326 -9 C396 -9 461 25 495 90 L495 0 L570 0 L570 542 L495 542 L495 224 C495 119 436 63 346 63 C259 63 213 120 213 217 L213 542 L137 542 L137 -188 L200 -188 Z " />
<glyph glyph-name="paragraph" unicode="&#xb6;" horiz-adv-x="672" d="M360 -133 L360 767 L304 767 C178 767 59 688 59 552 C59 417 178 338 304 338 L304 -133 L360 -133 Z M535 -133 L535 767 L480 767 L480 -133 L535 -133 Z " />
<glyph glyph-name="periodcentered" unicode="&#xb7;" horiz-adv-x="211" d="M105 314 C141 314 170 343 170 378 C170 412 140 440 105 440 C69 440 40 412 40 378 C40 343 69 314 105 314 L105 314 Z " />
<glyph glyph-name="cedilla" unicode="&#xb8;" horiz-adv-x="234" d="M101 -231 C159 -231 201 -194 201 -144 C201 -109 181 -83 147 -70 C139 -67 130 -65 119 -64 L167 10 L130 17 L66 -92 C85 -92 105 -94 119 -98 C146 -106 161 -123 161 -145 C161 -171 139 -191 104 -191 C81 -191 54 -183 30 -160 L8 -196 C37 -221 71 -231 101 -231 L101 -231 Z " />
<glyph glyph-name="uni00B9" unicode="&#xb9;" horiz-adv-x="271" d="M151 728 C151 703 140 695 115 695 L34 695 L34 648 L149 648 L149 307 L201 307 L201 767 L151 767 L151 728 Z " />
<glyph glyph-name="ordmasculine" unicode="&#xba;" horiz-adv-x="362" d="M180 437 C271 437 338 498 338 604 C338 711 271 772 180 772 C90 772 23 711 23 604 C23 498 90 437 180 437 L180 437 Z M180 479 C117 479 72 524 72 604 C72 685 117 730 180 730 C245 730 290 685 290 604 C290 524 245 479 180 479 L180 479 Z " />
<glyph glyph-name="guillemotright" unicode="&#xbb;" horiz-adv-x="542" d="M280 271 L64 457 L64 389 L200 271 L64 154 L64 85 L280 271 Z M486 271 L270 457 L270 389 L407 271 L270 154 L270 85 L486 271 Z " />
<glyph glyph-name="onequarter" unicode="&#xbc;" horiz-adv-x="859" d="M230 767 L180 767 L180 728 C180 703 169 695 143 695 L63 695 L63 648 L178 648 L178 307 L230 307 L230 767 Z M181 0 L234 0 L668 767 L614 767 L181 0 Z M726 460 L663 460 L453 156 L453 106 L674 106 L674 0 L726 0 L726 106 L796 106 L796 152 L726 152 L726 460 Z M503 152 L503 155 L671 396 L674 396 L674 152 L503 152 Z " />
<glyph glyph-name="onehalf" unicode="&#xbd;" horiz-adv-x="850" d="M230 307 L230 767 L180 767 L180 728 C180 703 169 695 143 695 L63 695 L63 648 L178 648 L178 307 L230 307 Z M145 0 L199 0 L633 767 L578 767 L145 0 Z M725 224 C759 261 776 297 776 339 C776 406 723 465 643 465 C569 465 509 406 510 333 L561 333 C561 380 595 419 643 419 C692 419 725 381 725 339 C725 313 717 290 688 258 L509 62 L509 0 L786 0 L786 47 L564 47 L725 224 Z " />
<glyph glyph-name="threequarters" unicode="&#xbe;" horiz-adv-x="954" d="M225 302 C315 302 386 352 386 438 C386 503 338 541 277 553 L277 555 C325 570 362 599 362 654 C362 725 299 772 223 772 C146 772 85 723 85 645 L137 645 C139 695 171 726 224 726 C277 726 310 696 310 649 C310 584 253 569 207 569 L187 569 L187 530 L214 530 C266 530 334 516 334 442 C334 383 295 348 226 348 C155 348 115 383 115 445 L63 445 C63 353 132 302 225 302 L225 302 Z M763 767 L708 767 L275 0 L329 0 L763 767 Z M820 106 L891 106 L891 152 L820 152 L820 460 L757 460 L548 157 L548 106 L768 106 L768 0 L820 0 L820 106 Z M765 396 L768 396 L768 152 L598 152 L598 155 L765 396 Z " />
<glyph glyph-name="questiondown" unicode="&#xbf;" horiz-adv-x="381" d="M251 551 C216 551 187 522 187 487 C187 453 216 425 251 425 C288 425 316 453 316 487 C316 522 288 551 251 551 L251 551 Z M208 343 L208 244 C208 79 16 130 16 -45 C16 -106 42 -154 86 -184 C122 -210 170 -225 244 -225 L346 -225 L346 -147 L254 -147 C202 -147 163 -138 138 -119 C114 -101 102 -78 102 -43 C102 91 294 38 294 243 L294 343 L208 343 Z " />
<glyph glyph-name="Agrave" unicode="&#xc0;" horiz-adv-x="680" d="M255 992 L173 992 L310 836 L370 836 L255 992 Z M280 767 L13 17 L13 0 L99 0 L162 180 L518 180 L581 0 L666 0 L666 17 L400 767 L280 767 Z M335 677 L345 677 L491 258 L189 258 L335 677 Z " />
<glyph glyph-name="Aacute" unicode="&#xc1;" horiz-adv-x="680" d="M430 992 L311 836 L369 836 L512 992 L430 992 Z M280 767 L13 17 L13 0 L99 0 L162 180 L518 180 L581 0 L666 0 L666 17 L400 767 L280 767 Z M335 677 L345 677 L491 258 L189 258 L335 677 Z " />
<glyph glyph-name="Acircumflex" unicode="&#xc2;" horiz-adv-x="680" d="M434 836 L504 836 L373 992 L305 992 L175 836 L244 836 L339 954 L434 836 Z M280 767 L13 17 L13 0 L99 0 L162 180 L518 180 L581 0 L666 0 L666 17 L400 767 L280 767 Z M335 677 L345 677 L491 258 L189 258 L335 677 Z " />
<glyph glyph-name="Atilde" unicode="&#xc3;" horiz-adv-x="680" d="M265 947 C324 948 325 852 415 852 C475 852 514 905 514 992 L467 992 C467 936 445 901 416 901 C357 901 351 996 268 996 C205 996 165 946 165 861 L211 861 C211 915 232 948 265 947 L265 947 Z M280 767 L13 17 L13 0 L99 0 L162 180 L518 180 L581 0 L666 0 L666 17 L400 767 L280 767 Z M335 677 L345 677 L491 258 L189 258 L335 677 Z " />
<glyph glyph-name="Adieresis" unicode="&#xc4;" horiz-adv-x="680" d="M240 827 C270 827 296 852 296 884 C296 915 270 940 240 940 C208 940 183 915 183 884 C183 852 208 827 240 827 L240 827 Z M440 827 C470 827 496 852 496 884 C496 915 470 940 440 940 C408 940 382 915 382 884 C382 852 408 827 440 827 L440 827 Z M280 767 L13 17 L13 0 L99 0 L162 180 L518 180 L581 0 L666 0 L666 17 L400 767 L280 767 Z M335 677 L345 677 L491 258 L189 258 L335 677 Z " />
<glyph glyph-name="Aring" unicode="&#xc5;" horiz-adv-x="680" d="M407 747 C431 766 447 796 447 830 C447 890 397 937 340 937 C280 937 233 889 233 830 C233 797 248 767 273 747 L13 17 L13 0 L99 0 L162 180 L518 180 L581 0 L666 0 L666 17 L407 747 Z M340 893 C377 893 403 866 403 831 C403 794 376 767 340 767 C304 767 276 794 276 831 C276 866 303 893 340 893 L340 893 Z M335 677 L345 677 L491 258 L189 258 L335 677 Z " />
<glyph glyph-name="AE" unicode="&#xc6;" horiz-adv-x="990" d="M544 357 L899 357 L899 434 L544 434 L544 689 L939 689 L939 767 L280 767 L13 17 L13 0 L101 0 L163 180 L458 180 L458 0 L961 0 L961 78 L544 78 L544 357 Z M339 689 L458 689 L458 258 L190 258 L339 689 Z " />
<glyph glyph-name="Ccedilla" unicode="&#xc7;" horiz-adv-x="768" d="M393 69 C233 69 127 195 127 384 C127 573 233 698 393 698 C521 698 615 617 643 487 L732 487 C701 664 572 776 393 776 C181 776 40 619 40 384 C40 160 167 8 360 -8 L311 -92 C330 -92 350 -94 364 -98 C391 -106 406 -123 406 -145 C406 -171 384 -191 349 -191 C326 -191 299 -183 275 -160 L253 -196 C282 -221 316 -231 346 -231 C404 -231 446 -194 446 -144 C446 -109 426 -83 392 -70 C384 -67 375 -65 364 -64 L400 -9 C575 -6 701 105 732 280 L643 280 C615 150 521 69 393 69 L393 69 Z " />
<glyph glyph-name="Egrave" unicode="&#xc8;" horiz-adv-x="601" d="M350 836 L235 992 L153 992 L290 836 L350 836 Z M572 0 L572 78 L155 78 L155 357 L509 357 L509 434 L155 434 L155 689 L550 689 L550 767 L69 767 L69 0 L572 0 Z " />
<glyph glyph-name="Eacute" unicode="&#xc9;" horiz-adv-x="601" d="M349 836 L492 992 L410 992 L291 836 L349 836 Z M572 0 L572 78 L155 78 L155 357 L509 357 L509 434 L155 434 L155 689 L550 689 L550 767 L69 767 L69 0 L572 0 Z " />
<glyph glyph-name="Ecircumflex" unicode="&#xca;" horiz-adv-x="601" d="M415 836 L485 836 L354 992 L286 992 L156 836 L225 836 L320 954 L415 836 Z M155 357 L509 357 L509 434 L155 434 L155 689 L550 689 L550 767 L69 767 L69 0 L572 0 L572 78 L155 78 L155 357 Z " />
<glyph glyph-name="Edieresis" unicode="&#xcb;" horiz-adv-x="601" d="M221 827 C251 827 277 852 277 884 C277 915 251 940 221 940 C189 940 164 915 164 884 C164 852 189 827 221 827 L221 827 Z M421 827 C451 827 477 852 477 884 C477 915 451 940 421 940 C389 940 363 915 363 884 C363 852 389 827 421 827 L421 827 Z M572 0 L572 78 L155 78 L155 357 L509 357 L509 434 L155 434 L155 689 L550 689 L550 767 L69 767 L69 0 L572 0 Z " />
<glyph glyph-name="Igrave" unicode="&#xcc;" horiz-adv-x="224" d="M141 836 L26 992 L-56 992 L81 836 L141 836 Z M155 0 L155 767 L69 767 L69 0 L155 0 Z " />
<glyph glyph-name="Iacute" unicode="&#xcd;" horiz-adv-x="224" d="M141 836 L284 992 L202 992 L83 836 L141 836 Z M155 0 L155 767 L69 767 L69 0 L155 0 Z " />
<glyph glyph-name="Icircumflex" unicode="&#xce;" horiz-adv-x="224" d="M77 992 L-53 836 L16 836 L111 954 L206 836 L276 836 L145 992 L77 992 Z M155 0 L155 767 L69 767 L69 0 L155 0 Z " />
<glyph glyph-name="Idieresis" unicode="&#xcf;" horiz-adv-x="224" d="M12 827 C42 827 68 852 68 884 C68 915 42 940 12 940 C-20 940 -45 915 -45 884 C-45 852 -20 827 12 827 L12 827 Z M212 827 C242 827 268 852 268 884 C268 915 242 940 212 940 C180 940 154 915 154 884 C154 852 180 827 212 827 L212 827 Z M155 0 L155 767 L69 767 L69 0 L155 0 Z " />
<glyph glyph-name="Eth" unicode="&#xd0;" horiz-adv-x="753" d="M605 668 C534 736 430 767 307 767 L68 767 L68 413 L20 413 L20 354 L68 354 L68 0 L307 0 C428 0 530 30 602 94 C671 156 712 251 712 381 C712 511 673 606 605 668 L605 668 Z M548 159 C490 101 404 78 306 78 L155 78 L155 354 L308 354 L308 413 L155 413 L155 689 L306 689 C406 689 493 665 551 604 C599 555 626 481 626 381 C626 282 597 209 548 159 L548 159 Z " />
<glyph glyph-name="Ntilde" unicode="&#xd1;" horiz-adv-x="741" d="M446 852 C506 852 545 905 545 992 L498 992 C498 936 476 901 447 901 C388 901 382 996 299 996 C236 996 196 946 196 861 L242 861 C242 915 263 948 296 947 C355 948 356 852 446 852 L446 852 Z M155 0 L155 690 L166 690 L520 0 L671 0 L671 767 L585 767 L585 77 L575 77 L221 767 L69 767 L69 0 L155 0 Z " />
<glyph glyph-name="Ograve" unicode="&#xd2;" horiz-adv-x="787" d="M423 836 L308 992 L226 992 L363 836 L423 836 Z M393 -9 C605 -9 746 148 746 384 C746 619 605 776 393 776 C181 776 40 619 40 384 C40 148 181 -9 393 -9 L393 -9 Z M393 69 C233 69 127 195 127 384 C127 573 233 698 393 698 C553 698 660 573 660 384 C660 195 553 69 393 69 L393 69 Z " />
<glyph glyph-name="Oacute" unicode="&#xd3;" horiz-adv-x="787" d="M422 836 L565 992 L483 992 L364 836 L422 836 Z M393 -9 C605 -9 746 148 746 384 C746 619 605 776 393 776 C181 776 40 619 40 384 C40 148 181 -9 393 -9 L393 -9 Z M393 69 C233 69 127 195 127 384 C127 573 233 698 393 698 C553 698 660 573 660 384 C660 195 553 69 393 69 L393 69 Z " />
<glyph glyph-name="Ocircumflex" unicode="&#xd4;" horiz-adv-x="787" d="M488 836 L558 836 L427 992 L359 992 L229 836 L298 836 L393 954 L488 836 Z M393 776 C181 776 40 619 40 384 C40 148 181 -9 393 -9 C605 -9 746 148 746 384 C746 619 605 776 393 776 L393 776 Z M393 69 C233 69 127 195 127 384 C127 573 233 698 393 698 C553 698 660 573 660 384 C660 195 553 69 393 69 L393 69 Z " />
<glyph glyph-name="Otilde" unicode="&#xd5;" horiz-adv-x="787" d="M468 852 C528 852 567 905 567 992 L520 992 C520 936 498 901 469 901 C410 901 404 996 321 996 C258 996 218 946 218 861 L264 861 C264 915 285 948 318 947 C377 948 378 852 468 852 L468 852 Z M393 -9 C605 -9 746 148 746 384 C746 619 605 776 393 776 C181 776 40 619 40 384 C40 148 181 -9 393 -9 L393 -9 Z M393 69 C233 69 127 195 127 384 C127 573 233 698 393 698 C553 698 660 573 660 384 C660 195 553 69 393 69 L393 69 Z " />
<glyph glyph-name="Odieresis" unicode="&#xd6;" horiz-adv-x="787" d="M293 827 C323 827 349 852 349 884 C349 915 323 940 293 940 C261 940 236 915 236 884 C236 852 261 827 293 827 L293 827 Z M493 827 C523 827 549 852 549 884 C549 915 523 940 493 940 C461 940 435 915 435 884 C435 852 461 827 493 827 L493 827 Z M393 -9 C605 -9 746 148 746 384 C746 619 605 776 393 776 C181 776 40 619 40 384 C40 148 181 -9 393 -9 L393 -9 Z M393 69 C233 69 127 195 127 384 C127 573 233 698 393 698 C553 698 660 573 660 384 C660 195 553 69 393 69 L393 69 Z " />
<glyph glyph-name="multiply" unicode="&#xd7;" horiz-adv-x="458" d="M229 229 L391 67 L434 108 L270 271 L434 434 L391 476 L229 313 L66 476 L24 434 L187 271 L24 108 L66 67 L229 229 Z " />
<glyph glyph-name="Oslash" unicode="&#xd8;" horiz-adv-x="787" d="M661 757 L609 790 L572 731 C521 760 461 776 393 776 C181 776 40 619 40 384 C40 250 85 142 163 73 L124 10 L175 -22 L212 38 C263 7 325 -9 393 -9 C605 -9 746 148 746 384 C746 518 700 626 622 695 L661 757 Z M127 384 C127 573 233 698 393 698 C444 698 490 685 529 661 L209 146 C157 201 127 284 127 384 L127 384 Z M393 69 C341 69 294 82 255 107 L577 622 C630 567 660 485 660 384 C660 195 553 69 393 69 L393 69 Z " />
<glyph glyph-name="Ugrave" unicode="&#xd9;" horiz-adv-x="681" d="M370 836 L255 992 L173 992 L310 836 L370 836 Z M340 -9 C530 -9 618 81 618 254 L618 767 L532 767 L532 259 C532 140 482 69 340 69 C201 69 149 136 149 259 L149 767 L62 767 L62 254 C62 84 148 -9 340 -9 L340 -9 Z " />
<glyph glyph-name="Uacute" unicode="&#xda;" horiz-adv-x="681" d="M369 836 L512 992 L430 992 L311 836 L369 836 Z M340 -9 C530 -9 618 81 618 254 L618 767 L532 767 L532 259 C532 140 482 69 340 69 C201 69 149 136 149 259 L149 767 L62 767 L62 254 C62 84 148 -9 340 -9 L340 -9 Z " />
<glyph glyph-name="Ucircumflex" unicode="&#xdb;" horiz-adv-x="681" d="M435 836 L505 836 L374 992 L306 992 L176 836 L245 836 L340 954 L435 836 Z M532 259 C532 140 482 69 340 69 C201 69 149 136 149 259 L149 767 L62 767 L62 254 C62 84 148 -9 340 -9 C530 -9 618 81 618 254 L618 767 L532 767 L532 259 Z " />
<glyph glyph-name="Udieresis" unicode="&#xdc;" horiz-adv-x="681" d="M240 827 C270 827 296 852 296 884 C296 915 270 940 240 940 C208 940 183 915 183 884 C183 852 208 827 240 827 L240 827 Z M440 827 C470 827 496 852 496 884 C496 915 470 940 440 940 C408 940 382 915 382 884 C382 852 408 827 440 827 L440 827 Z M340 -9 C530 -9 618 81 618 254 L618 767 L532 767 L532 259 C532 140 482 69 340 69 C201 69 149 136 149 259 L149 767 L62 767 L62 254 C62 84 148 -9 340 -9 L340 -9 Z " />
<glyph glyph-name="Yacute" unicode="&#xdd;" horiz-adv-x="663" d="M360 836 L503 992 L421 992 L302 836 L360 836 Z M374 0 L374 286 L655 750 L655 767 L565 767 L334 382 L328 382 L97 767 L7 767 L7 750 L288 286 L288 0 L374 0 Z " />
<glyph glyph-name="Thorn" unicode="&#xde;" horiz-adv-x="624" d="M194 0 L194 223 L313 223 C403 223 466 236 509 268 C557 304 585 364 585 441 C585 518 557 578 509 614 C466 646 403 658 313 658 L194 658 L194 767 L108 767 L108 0 L194 0 Z M194 581 L299 581 C380 581 425 573 456 546 C482 525 499 494 499 441 C499 388 482 357 456 335 C425 309 380 301 299 301 L194 301 L194 581 Z " />
<glyph glyph-name="germandbls" unicode="&#xdf;" horiz-adv-x="708" d="M450 330 C381 345 341 357 341 406 C341 459 391 485 456 485 L592 485 L592 530 C592 663 529 776 345 776 C117 776 85 622 85 494 L85 0 L167 0 L167 494 C167 597 192 701 345 701 C459 701 503 637 508 551 L456 551 C349 551 259 502 259 400 C259 298 349 272 409 258 L514 233 C557 223 603 211 603 150 C603 86 551 57 473 57 C385 57 329 93 318 175 L236 175 C242 57 334 -9 471 -9 C597 -9 685 52 685 159 C685 242 632 287 536 309 L450 330 Z " />
<glyph glyph-name="agrave" unicode="&#xe0;" horiz-adv-x="545" d="M194 767 L112 767 L249 611 L309 611 L194 767 Z M467 453 C437 519 365 551 273 551 C133 551 66 481 57 383 L140 383 C146 442 187 485 272 485 C363 485 405 436 406 359 L407 320 L240 320 C123 320 42 273 42 158 C42 54 116 -9 228 -9 C304 -9 360 23 397 87 L406 87 L406 0 L487 0 L487 334 C487 372 485 416 467 453 L467 453 Z M239 59 C168 59 125 97 125 158 C125 234 175 258 250 258 L406 258 C404 141 356 59 239 59 L239 59 Z " />
<glyph glyph-name="aacute" unicode="&#xe1;" horiz-adv-x="545" d="M369 767 L250 611 L308 611 L451 767 L369 767 Z M467 453 C437 519 365 551 273 551 C133 551 66 481 57 383 L140 383 C146 442 187 485 272 485 C363 485 405 436 406 359 L407 320 L240 320 C123 320 42 273 42 158 C42 54 116 -9 228 -9 C304 -9 360 23 397 87 L406 87 L406 0 L487 0 L487 334 C487 372 485 416 467 453 L467 453 Z M239 59 C168 59 125 97 125 158 C125 234 175 258 250 258 L406 258 C404 141 356 59 239 59 L239 59 Z " />
<glyph glyph-name="acircumflex" unicode="&#xe2;" horiz-adv-x="545" d="M374 611 L444 611 L313 767 L245 767 L115 611 L184 611 L279 729 L374 611 Z M467 453 C437 519 365 551 273 551 C133 551 66 481 57 383 L140 383 C146 442 187 485 272 485 C363 485 405 436 406 359 L407 320 L240 320 C123 320 42 273 42 158 C42 54 116 -9 228 -9 C304 -9 360 23 397 87 L406 87 L406 0 L487 0 L487 334 C487 372 485 416 467 453 L467 453 Z M239 59 C168 59 125 97 125 158 C125 234 175 258 250 258 L406 258 C404 141 356 59 239 59 L239 59 Z " />
<glyph glyph-name="atilde" unicode="&#xe3;" horiz-adv-x="545" d="M204 722 C263 723 264 627 354 627 C414 627 453 680 453 767 L406 767 C406 711 384 676 355 676 C296 676 290 771 207 771 C144 771 104 721 104 636 L150 636 C150 690 171 723 204 722 L204 722 Z M467 453 C437 519 365 551 273 551 C133 551 66 481 57 383 L140 383 C146 442 187 485 272 485 C363 485 405 436 406 359 L407 320 L240 320 C123 320 42 273 42 158 C42 54 116 -9 228 -9 C304 -9 360 23 397 87 L406 87 L406 0 L487 0 L487 334 C487 372 485 416 467 453 L467 453 Z M239 59 C168 59 125 97 125 158 C125 234 175 258 250 258 L406 258 C404 141 356 59 239 59 L239 59 Z " />
<glyph glyph-name="adieresis" unicode="&#xe4;" horiz-adv-x="545" d="M180 664 C210 664 236 690 236 722 C236 753 210 778 180 778 C147 778 123 753 123 722 C123 690 147 664 180 664 L180 664 Z M380 664 C410 664 436 690 436 722 C436 753 410 778 380 778 C347 778 322 753 322 722 C322 690 347 664 380 664 L380 664 Z M467 453 C437 519 365 551 273 551 C133 551 66 481 57 383 L140 383 C146 442 187 485 272 485 C363 485 405 436 406 359 L407 320 L240 320 C123 320 42 273 42 158 C42 54 116 -9 228 -9 C304 -9 360 23 397 87 L406 87 L406 0 L487 0 L487 334 C487 372 485 416 467 453 L467 453 Z M239 59 C168 59 125 97 125 158 C125 234 175 258 250 258 L406 258 C404 141 356 59 239 59 L239 59 Z " />
<glyph glyph-name="aring" unicode="&#xe5;" horiz-adv-x="545" d="M279 592 C338 592 386 640 386 700 C386 759 337 806 279 806 C220 806 173 758 173 700 C173 641 219 592 279 592 L279 592 Z M279 763 C316 763 342 735 342 700 C342 663 315 636 279 636 C243 636 216 663 216 700 C216 735 242 763 279 763 L279 763 Z M467 453 C437 519 365 551 273 551 C133 551 66 481 57 383 L140 383 C146 442 187 485 272 485 C363 485 405 436 406 359 L407 320 L240 320 C123 320 42 273 42 158 C42 54 116 -9 228 -9 C304 -9 360 23 397 87 L406 87 L406 0 L487 0 L487 334 C487 372 485 416 467 453 L467 453 Z M239 59 C168 59 125 97 125 158 C125 234 175 258 250 258 L406 258 C404 141 356 59 239 59 L239 59 Z " />
<glyph glyph-name="ae" unicode="&#xe6;" horiz-adv-x="972" d="M934 280 C931 449 823 551 672 551 C585 551 512 518 465 456 C432 521 362 551 272 551 C133 551 66 481 57 383 L135 383 C142 445 185 488 271 488 C365 488 407 438 408 359 L409 319 L238 319 C122 319 42 272 42 157 C42 54 116 -9 233 -9 C333 -9 402 42 433 127 L439 127 C482 39 568 -9 672 -9 C789 -9 882 54 918 163 L831 163 C803 99 746 62 672 62 C568 62 496 132 491 258 L933 258 L934 280 Z M672 480 C765 480 832 422 849 320 L495 320 C510 423 578 480 672 480 L672 480 Z M238 56 C165 56 121 94 121 158 C121 233 169 259 248 259 L408 259 L408 258 C406 139 357 56 238 56 L238 56 Z " />
<glyph glyph-name="ccedilla" unicode="&#xe7;" horiz-adv-x="583" d="M303 62 C195 62 122 136 122 271 C122 406 195 480 303 480 C385 480 444 438 462 361 L547 361 C523 482 428 551 303 551 C151 551 40 449 40 271 C40 103 139 2 278 -8 L229 -92 C248 -92 268 -94 282 -98 C309 -106 324 -123 324 -145 C324 -171 302 -191 267 -191 C244 -191 217 -183 193 -160 L171 -196 C200 -221 234 -231 264 -231 C322 -231 364 -194 364 -144 C364 -109 344 -83 310 -70 C302 -67 293 -65 282 -64 L318 -9 C436 -4 524 64 547 181 L462 181 C444 103 385 62 303 62 L303 62 Z " />
<glyph glyph-name="egrave" unicode="&#xe8;" horiz-adv-x="603" d="M218 767 L136 767 L273 611 L333 611 L218 767 Z M565 280 C562 449 454 551 303 551 C151 551 40 449 40 271 C40 93 151 -9 303 -9 C420 -9 513 54 549 163 L461 163 C434 99 377 62 303 62 C199 62 127 132 122 258 L564 258 L565 280 Z M303 480 C396 480 463 422 480 320 L126 320 C141 423 209 480 303 480 L303 480 Z " />
<glyph glyph-name="eacute" unicode="&#xe9;" horiz-adv-x="603" d="M393 767 L274 611 L332 611 L475 767 L393 767 Z M565 280 C562 449 454 551 303 551 C151 551 40 449 40 271 C40 93 151 -9 303 -9 C420 -9 513 54 549 163 L461 163 C434 99 377 62 303 62 C199 62 127 132 122 258 L564 258 L565 280 Z M303 480 C396 480 463 422 480 320 L126 320 C141 423 209 480 303 480 L303 480 Z " />
<glyph glyph-name="ecircumflex" unicode="&#xea;" horiz-adv-x="603" d="M398 611 L468 611 L337 767 L269 767 L139 611 L208 611 L303 729 L398 611 Z M565 280 C562 449 454 551 303 551 C151 551 40 449 40 271 C40 93 151 -9 303 -9 C420 -9 513 54 549 163 L461 163 C434 99 377 62 303 62 C199 62 127 132 122 258 L564 258 L565 280 Z M303 480 C396 480 463 422 480 320 L126 320 C141 423 209 480 303 480 L303 480 Z " />
<glyph glyph-name="edieresis" unicode="&#xeb;" horiz-adv-x="603" d="M204 664 C234 664 260 690 260 722 C260 753 234 778 204 778 C171 778 147 753 147 722 C147 690 171 664 204 664 L204 664 Z M404 664 C434 664 460 690 460 722 C460 753 434 778 404 778 C371 778 346 753 346 722 C346 690 371 664 404 664 L404 664 Z M565 280 C562 449 454 551 303 551 C151 551 40 449 40 271 C40 93 151 -9 303 -9 C420 -9 513 54 549 163 L461 163 C434 99 377 62 303 62 C199 62 127 132 122 258 L564 258 L565 280 Z M303 480 C396 480 463 422 480 320 L126 320 C141 423 209 480 303 480 L303 480 Z " />
<glyph glyph-name="igrave" unicode="&#xec;" horiz-adv-x="205" d="M131 611 L16 767 L-66 767 L71 611 L131 611 Z M143 0 L143 542 L61 542 L61 0 L143 0 Z " />
<glyph glyph-name="iacute" unicode="&#xed;" horiz-adv-x="205" d="M130 611 L273 767 L191 767 L72 611 L130 611 Z M143 0 L143 542 L61 542 L61 0 L143 0 Z " />
<glyph glyph-name="icircumflex" unicode="&#xee;" horiz-adv-x="205" d="M67 767 L-63 611 L6 611 L101 729 L196 611 L266 611 L135 767 L67 767 Z M143 0 L143 542 L61 542 L61 0 L143 0 Z " />
<glyph glyph-name="idieresis" unicode="&#xef;" horiz-adv-x="205" d="M2 664 C32 664 58 690 58 722 C58 753 32 778 2 778 C-31 778 -55 753 -55 722 C-55 690 -31 664 2 664 L2 664 Z M202 664 C232 664 258 690 258 722 C258 753 232 778 202 778 C169 778 144 753 144 722 C144 690 169 664 202 664 L202 664 Z M143 0 L143 542 L61 542 L61 0 L143 0 Z " />
<glyph glyph-name="eth" unicode="&#xf0;" horiz-adv-x="608" d="M399 616 L453 616 L453 675 L363 675 L307 767 L215 767 L215 750 L261 675 L58 675 L58 616 L297 616 L370 497 C351 503 332 506 313 506 C163 506 50 403 50 248 C50 94 160 -9 313 -9 C467 -9 576 95 576 243 C576 296 559 354 525 409 L399 616 Z M313 69 C213 69 136 137 136 249 C136 359 213 426 313 426 C412 426 490 350 490 248 C490 136 414 69 313 69 L313 69 Z " />
<glyph glyph-name="ntilde" unicode="&#xf1;" horiz-adv-x="561" d="M358 627 C418 627 457 680 457 767 L410 767 C410 711 388 676 359 676 C300 676 294 771 211 771 C148 771 108 721 108 636 L154 636 C154 690 175 723 208 722 C267 723 268 627 358 627 L358 627 Z M143 0 L143 294 C143 336 147 373 158 397 C178 446 222 476 283 476 C387 476 423 413 423 299 L423 0 L505 0 L505 318 C505 467 439 551 308 551 C236 551 182 519 151 473 L143 473 L143 542 L61 542 L61 0 L143 0 Z " />
<glyph glyph-name="ograve" unicode="&#xf2;" horiz-adv-x="606" d="M332 611 L217 767 L135 767 L272 611 L332 611 Z M303 -9 C454 -9 565 93 565 271 C565 449 454 551 303 551 C151 551 40 449 40 271 C40 93 151 -9 303 -9 L303 -9 Z M303 62 C195 62 122 137 122 271 C122 405 195 480 303 480 C410 480 483 405 483 271 C483 137 410 62 303 62 L303 62 Z " />
<glyph glyph-name="oacute" unicode="&#xf3;" horiz-adv-x="606" d="M332 611 L475 767 L393 767 L274 611 L332 611 Z M303 -9 C454 -9 565 93 565 271 C565 449 454 551 303 551 C151 551 40 449 40 271 C40 93 151 -9 303 -9 L303 -9 Z M303 62 C195 62 122 137 122 271 C122 405 195 480 303 480 C410 480 483 405 483 271 C483 137 410 62 303 62 L303 62 Z " />
<glyph glyph-name="ocircumflex" unicode="&#xf4;" horiz-adv-x="606" d="M397 611 L467 611 L336 767 L268 767 L138 611 L207 611 L302 729 L397 611 Z M303 551 C151 551 40 449 40 271 C40 93 151 -9 303 -9 C454 -9 565 93 565 271 C565 449 454 551 303 551 L303 551 Z M303 62 C195 62 122 137 122 271 C122 405 195 480 303 480 C410 480 483 405 483 271 C483 137 410 62 303 62 L303 62 Z " />
<glyph glyph-name="otilde" unicode="&#xf5;" horiz-adv-x="606" d="M378 627 C438 627 477 680 477 767 L430 767 C430 711 408 676 379 676 C320 676 314 771 231 771 C168 771 128 721 128 636 L174 636 C174 690 195 723 228 722 C287 723 288 627 378 627 L378 627 Z M303 -9 C454 -9 565 93 565 271 C565 449 454 551 303 551 C151 551 40 449 40 271 C40 93 151 -9 303 -9 L303 -9 Z M303 62 C195 62 122 137 122 271 C122 405 195 480 303 480 C410 480 483 405 483 271 C483 137 410 62 303 62 L303 62 Z " />
<glyph glyph-name="odieresis" unicode="&#xf6;" horiz-adv-x="606" d="M204 664 C234 664 260 690 260 722 C260 753 234 778 204 778 C171 778 147 753 147 722 C147 690 171 664 204 664 L204 664 Z M404 664 C434 664 460 690 460 722 C460 753 434 778 404 778 C371 778 346 753 346 722 C346 690 371 664 404 664 L404 664 Z M303 -9 C454 -9 565 93 565 271 C565 449 454 551 303 551 C151 551 40 449 40 271 C40 93 151 -9 303 -9 L303 -9 Z M303 62 C195 62 122 137 122 271 C122 405 195 480 303 480 C410 480 483 405 483 271 C483 137 410 62 303 62 L303 62 Z " />
<glyph glyph-name="divide" unicode="&#xf7;" horiz-adv-x="553" d="M275 407 C307 407 334 433 334 467 C334 497 307 524 275 524 C240 524 214 497 214 467 C214 433 240 407 275 407 L275 407 Z M524 241 L524 301 L24 301 L24 241 L524 241 Z M275 18 C307 18 334 45 334 78 C334 109 307 135 275 135 C240 135 214 109 214 78 C214 45 240 18 275 18 L275 18 Z " />
<glyph glyph-name="oslash" unicode="&#xf8;" horiz-adv-x="606" d="M511 556 L465 584 L427 524 C391 542 349 551 303 551 C151 551 40 449 40 271 C40 171 75 95 132 48 L94 -14 L139 -42 L177 19 C214 1 256 -9 303 -9 C454 -9 565 93 565 271 C565 371 530 447 473 494 L511 556 Z M122 271 C122 405 195 480 303 480 C335 480 364 473 388 461 L174 114 C141 150 122 203 122 271 L122 271 Z M303 62 C271 62 241 69 216 82 L431 428 C464 392 483 339 483 271 C483 137 410 62 303 62 L303 62 Z " />
<glyph glyph-name="ugrave" unicode="&#xf9;" horiz-adv-x="561" d="M306 611 L191 767 L109 767 L246 611 L306 611 Z M252 -9 C325 -9 378 24 409 69 L417 69 L417 0 L499 0 L499 542 L417 542 L417 248 C417 207 414 170 401 144 C381 95 336 66 276 66 C173 66 137 129 137 243 L137 542 L55 542 L55 224 C55 75 121 -9 252 -9 L252 -9 Z " />
<glyph glyph-name="uacute" unicode="&#xfa;" horiz-adv-x="561" d="M305 611 L448 767 L366 767 L247 611 L305 611 Z M252 -9 C325 -9 378 24 409 69 L417 69 L417 0 L499 0 L499 542 L417 542 L417 248 C417 207 414 170 401 144 C381 95 336 66 276 66 C173 66 137 129 137 243 L137 542 L55 542 L55 224 C55 75 121 -9 252 -9 L252 -9 Z " />
<glyph glyph-name="ucircumflex" unicode="&#xfb;" horiz-adv-x="561" d="M371 611 L441 611 L310 767 L242 767 L112 611 L181 611 L276 729 L371 611 Z M417 248 C417 207 414 170 401 144 C381 95 336 66 276 66 C173 66 137 129 137 243 L137 542 L55 542 L55 224 C55 75 121 -9 252 -9 C325 -9 378 24 409 69 L417 69 L417 0 L499 0 L499 542 L417 542 L417 248 Z " />
<glyph glyph-name="udieresis" unicode="&#xfc;" horiz-adv-x="561" d="M177 664 C207 664 233 690 233 722 C233 753 207 778 177 778 C144 778 120 753 120 722 C120 690 144 664 177 664 L177 664 Z M377 664 C407 664 433 690 433 722 C433 753 407 778 377 778 C344 778 319 753 319 722 C319 690 344 664 377 664 L377 664 Z M252 -9 C325 -9 378 24 409 69 L417 69 L417 0 L499 0 L499 542 L417 542 L417 248 C417 207 414 170 401 144 C381 95 336 66 276 66 C173 66 137 129 137 243 L137 542 L55 542 L55 224 C55 75 121 -9 252 -9 L252 -9 Z " />
<glyph glyph-name="yacute" unicode="&#xfd;" horiz-adv-x="561" d="M370 767 L251 611 L309 611 L452 767 L370 767 Z M285 71 L275 71 L104 542 L17 542 L216 0 L260 0 L222 -99 C209 -131 184 -149 148 -149 L55 -149 L55 -224 L167 -224 C224 -224 268 -194 289 -140 L345 0 L544 542 L456 542 L285 71 Z " />
<glyph glyph-name="thorn" unicode="&#xfe;" horiz-adv-x="637" d="M168 -225 L168 88 L174 88 C209 24 274 -9 353 -9 C496 -9 595 96 595 271 C595 446 496 551 353 551 C274 551 209 518 174 454 L168 454 L168 767 L86 767 L86 -225 L168 -225 Z M338 62 C232 62 162 136 162 271 C162 406 232 480 338 480 C443 480 514 405 514 271 C514 137 443 62 338 62 L338 62 Z " />
<glyph glyph-name="ydieresis" unicode="&#xff;" horiz-adv-x="561" d="M181 664 C211 664 237 690 237 722 C237 753 211 778 181 778 C148 778 124 753 124 722 C124 690 148 664 181 664 L181 664 Z M381 664 C411 664 437 690 437 722 C437 753 411 778 381 778 C348 778 323 753 323 722 C323 690 348 664 381 664 L381 664 Z M285 71 L275 71 L104 542 L17 542 L216 0 L260 0 L222 -99 C209 -131 184 -149 148 -149 L55 -149 L55 -224 L167 -224 C224 -224 268 -194 289 -140 L345 0 L544 542 L456 542 L285 71 Z " />
<glyph glyph-name="Amacron" unicode="&#x100;" horiz-adv-x="680" d="M191 931 L191 883 L488 883 L488 931 L191 931 Z M280 767 L13 17 L13 0 L99 0 L162 180 L518 180 L581 0 L666 0 L666 17 L400 767 L280 767 Z M335 677 L345 677 L491 258 L189 258 L335 677 Z " />
<glyph glyph-name="amacron" unicode="&#x101;" horiz-adv-x="545" d="M131 706 L131 658 L428 658 L428 706 L131 706 Z M467 453 C437 519 365 551 273 551 C133 551 66 481 57 383 L140 383 C146 442 187 485 272 485 C363 485 405 436 406 359 L407 320 L240 320 C123 320 42 273 42 158 C42 54 116 -9 228 -9 C304 -9 360 23 397 87 L406 87 L406 0 L487 0 L487 334 C487 372 485 416 467 453 L467 453 Z M239 59 C168 59 125 97 125 158 C125 234 175 258 250 258 L406 258 C404 141 356 59 239 59 L239 59 Z " />
<glyph glyph-name="Abreve" unicode="&#x102;" horiz-adv-x="680" d="M340 842 C448 842 506 897 506 992 L451 992 C451 922 409 889 340 889 C272 889 230 921 230 992 L174 992 C174 899 228 842 340 842 L340 842 Z M280 767 L13 17 L13 0 L99 0 L162 180 L518 180 L581 0 L666 0 L666 17 L400 767 L280 767 Z M335 677 L345 677 L491 258 L189 258 L335 677 Z " />
<glyph glyph-name="abreve" unicode="&#x103;" horiz-adv-x="545" d="M279 617 C387 617 445 672 445 767 L390 767 C390 697 348 664 279 664 C211 664 169 696 169 767 L113 767 C113 674 167 617 279 617 L279 617 Z M467 453 C437 519 365 551 273 551 C133 551 66 481 57 383 L140 383 C146 442 187 485 272 485 C363 485 405 436 406 359 L407 320 L240 320 C123 320 42 273 42 158 C42 54 116 -9 228 -9 C304 -9 360 23 397 87 L406 87 L406 0 L487 0 L487 334 C487 372 485 416 467 453 L467 453 Z M239 59 C168 59 125 97 125 158 C125 234 175 258 250 258 L406 258 C404 141 356 59 239 59 L239 59 Z " />
<glyph glyph-name="Aogonek" unicode="&#x104;" horiz-adv-x="680" d="M666 17 L400 767 L280 767 L13 17 L13 0 L99 0 L162 180 L518 180 L581 0 L610 0 C551 -44 520 -95 520 -139 C520 -193 569 -230 666 -230 L666 -181 C608 -181 579 -157 579 -119 C579 -83 610 -37 666 0 L666 17 Z M335 677 L345 677 L491 258 L189 258 L335 677 Z " />
<glyph glyph-name="aogonek" unicode="&#x105;" horiz-adv-x="545" d="M487 334 C487 372 485 416 467 453 C437 519 365 551 273 551 C133 551 66 481 57 383 L140 383 C146 442 187 485 272 485 C363 485 405 436 406 359 L407 320 L240 320 C123 320 42 273 42 158 C42 54 116 -9 228 -9 C304 -9 360 23 397 87 L406 87 L406 0 L431 0 C372 -44 341 -95 341 -139 C341 -193 390 -230 487 -230 L487 -181 C429 -181 400 -157 400 -119 C400 -83 431 -37 487 0 L487 334 Z M239 59 C168 59 125 97 125 158 C125 234 175 258 250 258 L406 258 C404 141 356 59 239 59 L239 59 Z " />
<glyph glyph-name="Cacute" unicode="&#x106;" horiz-adv-x="768" d="M413 836 L556 992 L474 992 L355 836 L413 836 Z M393 -9 C572 -9 701 103 732 280 L643 280 C615 150 521 69 393 69 C233 69 127 195 127 384 C127 573 233 698 393 698 C521 698 615 617 643 487 L732 487 C701 664 572 776 393 776 C181 776 40 619 40 384 C40 148 181 -9 393 -9 L393 -9 Z " />
<glyph glyph-name="cacute" unicode="&#x107;" horiz-adv-x="583" d="M327 611 L470 767 L388 767 L269 611 L327 611 Z M303 -9 C429 -9 523 59 547 181 L462 181 C444 103 385 62 303 62 C195 62 122 136 122 271 C122 406 195 480 303 480 C385 480 444 438 462 361 L547 361 C523 482 428 551 303 551 C151 551 40 449 40 271 C40 93 151 -9 303 -9 L303 -9 Z " />
<glyph glyph-name="ccircumflex" unicode="&#x109;" horiz-adv-x="583" d="M392 611 L462 611 L331 767 L263 767 L133 611 L202 611 L297 729 L392 611 Z M303 62 C195 62 122 136 122 271 C122 406 195 480 303 480 C385 480 444 438 462 361 L547 361 C523 482 428 551 303 551 C151 551 40 449 40 271 C40 93 151 -9 303 -9 C429 -9 523 59 547 181 L462 181 C444 103 385 62 303 62 L303 62 Z " />
<glyph glyph-name="Cdotaccent" unicode="&#x10a;" horiz-adv-x="768" d="M385 827 C415 827 441 852 441 884 C441 915 415 940 385 940 C353 940 328 915 328 884 C328 852 353 827 385 827 L385 827 Z M393 -9 C572 -9 701 103 732 280 L643 280 C615 150 521 69 393 69 C233 69 127 195 127 384 C127 573 233 698 393 698 C521 698 615 617 643 487 L732 487 C701 664 572 776 393 776 C181 776 40 619 40 384 C40 148 181 -9 393 -9 L393 -9 Z " />
<glyph glyph-name="cdotaccent" unicode="&#x10b;" horiz-adv-x="583" d="M298 664 C328 664 354 690 354 722 C354 753 328 778 298 778 C265 778 241 753 241 722 C241 690 265 664 298 664 L298 664 Z M303 -9 C429 -9 523 59 547 181 L462 181 C444 103 385 62 303 62 C195 62 122 136 122 271 C122 406 195 480 303 480 C385 480 444 438 462 361 L547 361 C523 482 428 551 303 551 C151 551 40 449 40 271 C40 93 151 -9 303 -9 L303 -9 Z " />
<glyph glyph-name="Ccaron" unicode="&#x10c;" horiz-adv-x="768" d="M551 992 L481 992 L386 875 L292 992 L222 992 L352 836 L420 836 L551 992 Z M393 69 C233 69 127 195 127 384 C127 573 233 698 393 698 C521 698 615 617 643 487 L732 487 C701 664 572 776 393 776 C181 776 40 619 40 384 C40 148 181 -9 393 -9 C572 -9 701 103 732 280 L643 280 C615 150 521 69 393 69 L393 69 Z " />
<glyph glyph-name="ccaron" unicode="&#x10d;" horiz-adv-x="583" d="M465 767 L395 767 L300 650 L206 767 L136 767 L266 611 L334 611 L465 767 Z M303 62 C195 62 122 136 122 271 C122 406 195 480 303 480 C385 480 444 438 462 361 L547 361 C523 482 428 551 303 551 C151 551 40 449 40 271 C40 93 151 -9 303 -9 C429 -9 523 59 547 181 L462 181 C444 103 385 62 303 62 L303 62 Z " />
<glyph glyph-name="Dcaron" unicode="&#x10e;" horiz-adv-x="753" d="M532 992 L462 992 L367 875 L273 992 L203 992 L333 836 L401 836 L532 992 Z M605 668 C534 736 430 767 307 767 L68 767 L68 0 L307 0 C428 0 530 30 602 94 C671 156 712 251 712 381 C712 511 673 606 605 668 L605 668 Z M548 159 C490 101 404 78 306 78 L155 78 L155 689 L306 689 C406 689 493 665 551 604 C599 555 626 481 626 381 C626 282 597 209 548 159 L548 159 Z " />
<glyph glyph-name="dcaron" unicode="&#x10f;" horiz-adv-x="681" d="M685 776 C645 776 619 748 619 714 C619 679 644 651 683 651 L626 516 L626 505 L672 505 L735 663 C743 681 748 697 748 715 C748 748 722 776 685 776 L685 776 Z M462 454 C427 518 361 551 283 551 C140 551 41 445 41 271 C41 97 140 -9 283 -9 C361 -9 427 24 462 88 L469 88 L469 0 L550 0 L550 767 L469 767 L469 454 L462 454 Z M299 62 C193 62 123 137 123 271 C123 405 193 480 299 480 C404 480 475 406 475 271 C475 136 404 62 299 62 L299 62 Z " />
<glyph glyph-name="Dcroat" unicode="&#x110;" horiz-adv-x="753" d="M605 668 C534 736 430 767 307 767 L68 767 L68 413 L20 413 L20 354 L68 354 L68 0 L307 0 C428 0 530 30 602 94 C671 156 712 251 712 381 C712 511 673 606 605 668 L605 668 Z M548 159 C490 101 404 78 306 78 L155 78 L155 354 L308 354 L308 413 L155 413 L155 689 L306 689 C406 689 493 665 551 604 C599 555 626 481 626 381 C626 282 597 209 548 159 L548 159 Z " />
<glyph glyph-name="dcroat" unicode="&#x111;" horiz-adv-x="612" d="M550 685 L550 767 L469 767 L469 685 L342 685 L342 626 L469 626 L469 454 L462 454 C427 518 361 551 283 551 C140 551 41 445 41 271 C41 97 140 -9 283 -9 C361 -9 427 24 462 88 L469 88 L469 0 L550 0 L550 626 L630 626 L630 685 L550 685 Z M299 62 C193 62 123 137 123 271 C123 405 193 480 299 480 C404 480 475 406 475 271 C475 136 404 62 299 62 L299 62 Z " />
<glyph glyph-name="Emacron" unicode="&#x112;" horiz-adv-x="601" d="M469 883 L469 931 L172 931 L172 883 L469 883 Z M572 0 L572 78 L155 78 L155 357 L509 357 L509 434 L155 434 L155 689 L550 689 L550 767 L69 767 L69 0 L572 0 Z " />
<glyph glyph-name="emacron" unicode="&#x113;" horiz-adv-x="603" d="M155 706 L155 658 L452 658 L452 706 L155 706 Z M565 280 C562 449 454 551 303 551 C151 551 40 449 40 271 C40 93 151 -9 303 -9 C420 -9 513 54 549 163 L461 163 C434 99 377 62 303 62 C199 62 127 132 122 258 L564 258 L565 280 Z M303 480 C396 480 463 422 480 320 L126 320 C141 423 209 480 303 480 L303 480 Z " />
<glyph glyph-name="Edotaccent" unicode="&#x116;" horiz-adv-x="601" d="M320 827 C350 827 376 852 376 884 C376 915 350 940 320 940 C288 940 263 915 263 884 C263 852 288 827 320 827 L320 827 Z M572 0 L572 78 L155 78 L155 357 L509 357 L509 434 L155 434 L155 689 L550 689 L550 767 L69 767 L69 0 L572 0 Z " />
<glyph glyph-name="edotaccent" unicode="&#x117;" horiz-adv-x="603" d="M304 664 C334 664 360 690 360 722 C360 753 334 778 304 778 C271 778 247 753 247 722 C247 690 271 664 304 664 L304 664 Z M565 280 C562 449 454 551 303 551 C151 551 40 449 40 271 C40 93 151 -9 303 -9 C420 -9 513 54 549 163 L461 163 C434 99 377 62 303 62 C199 62 127 132 122 258 L564 258 L565 280 Z M303 480 C396 480 463 422 480 320 L126 320 C141 423 209 480 303 480 L303 480 Z " />
<glyph glyph-name="Eogonek" unicode="&#x118;" horiz-adv-x="601" d="M572 78 L155 78 L155 357 L509 357 L509 434 L155 434 L155 689 L550 689 L550 767 L69 767 L69 0 L516 0 C457 -44 426 -95 426 -139 C426 -193 475 -230 572 -230 L572 -181 C514 -181 485 -157 485 -119 C485 -83 516 -37 572 0 L572 78 Z " />
<glyph glyph-name="eogonek" unicode="&#x119;" horiz-adv-x="603" d="M565 280 C562 449 454 551 303 551 C151 551 40 449 40 271 C40 93 151 -9 303 -9 L304 -9 C252 -50 225 -98 225 -139 C225 -193 274 -230 371 -230 L371 -181 C313 -181 284 -157 284 -119 C284 -84 314 -39 368 -2 C454 17 520 75 549 163 L461 163 C434 99 377 62 303 62 C199 62 127 132 122 258 L564 258 L565 280 Z M303 480 C396 480 463 422 480 320 L126 320 C141 423 209 480 303 480 L303 480 Z " />
<glyph glyph-name="Ecaron" unicode="&#x11a;" horiz-adv-x="601" d="M487 992 L417 992 L322 875 L228 992 L158 992 L288 836 L356 836 L487 992 Z M155 357 L509 357 L509 434 L155 434 L155 689 L550 689 L550 767 L69 767 L69 0 L572 0 L572 78 L155 78 L155 357 Z " />
<glyph glyph-name="ecaron" unicode="&#x11b;" horiz-adv-x="603" d="M470 767 L400 767 L305 650 L211 767 L141 767 L271 611 L339 611 L470 767 Z M565 280 C562 449 454 551 303 551 C151 551 40 449 40 271 C40 93 151 -9 303 -9 C420 -9 513 54 549 163 L461 163 C434 99 377 62 303 62 C199 62 127 132 122 258 L564 258 L565 280 Z M303 480 C396 480 463 422 480 320 L126 320 C141 423 209 480 303 480 L303 480 Z " />
<glyph glyph-name="Gbreve" unicode="&#x11e;" horiz-adv-x="792" d="M403 842 C511 842 569 897 569 992 L514 992 C514 922 472 889 403 889 C335 889 293 921 293 992 L237 992 C237 899 291 842 403 842 L403 842 Z M450 325 L656 325 C651 170 546 69 398 69 C233 69 127 195 127 384 C127 573 233 698 393 698 C521 698 615 617 643 487 L732 487 C701 664 572 776 393 776 C181 776 40 619 40 384 C40 148 181 -9 393 -9 C511 -9 594 35 649 117 L650 117 L650 0 L736 0 L736 402 L450 402 L450 325 Z " />
<glyph glyph-name="gbreve" unicode="&#x11f;" horiz-adv-x="612" d="M315 617 C423 617 481 672 481 767 L426 767 C426 697 384 664 315 664 C247 664 205 696 205 767 L149 767 C149 674 203 617 315 617 L315 617 Z M446 -225 C514 -225 550 -187 550 -121 L550 542 L469 542 L469 454 L462 454 C427 518 361 551 283 551 C140 551 41 445 41 271 C41 97 140 -9 283 -9 C361 -9 427 24 462 88 L469 88 L469 -100 C469 -135 450 -154 415 -154 L190 -154 C155 -154 136 -135 136 -100 L136 -45 L54 -45 L54 -121 C54 -188 91 -225 158 -225 L446 -225 Z M299 62 C193 62 123 137 123 271 C123 405 193 480 299 480 C404 480 475 406 475 271 C475 136 404 62 299 62 L299 62 Z " />
<glyph glyph-name="Gdotaccent" unicode="&#x120;" horiz-adv-x="792" d="M403 827 C433 827 459 852 459 884 C459 915 433 940 403 940 C371 940 346 915 346 884 C346 852 371 827 403 827 L403 827 Z M450 325 L656 325 C651 170 546 69 398 69 C233 69 127 195 127 384 C127 573 233 698 393 698 C521 698 615 617 643 487 L732 487 C701 664 572 776 393 776 C181 776 40 619 40 384 C40 148 181 -9 393 -9 C511 -9 594 35 649 117 L650 117 L650 0 L736 0 L736 402 L450 402 L450 325 Z " />
<glyph glyph-name="gdotaccent" unicode="&#x121;" horiz-adv-x="612" d="M316 664 C346 664 372 690 372 722 C372 753 346 778 316 778 C283 778 259 753 259 722 C259 690 283 664 316 664 L316 664 Z M446 -225 C514 -225 550 -187 550 -121 L550 542 L469 542 L469 454 L462 454 C427 518 361 551 283 551 C140 551 41 445 41 271 C41 97 140 -9 283 -9 C361 -9 427 24 462 88 L469 88 L469 -100 C469 -135 450 -154 415 -154 L190 -154 C155 -154 136 -135 136 -100 L136 -45 L54 -45 L54 -121 C54 -188 91 -225 158 -225 L446 -225 Z M299 62 C193 62 123 137 123 271 C123 405 193 480 299 480 C404 480 475 406 475 271 C475 136 404 62 299 62 L299 62 Z " />
<glyph glyph-name="uni0122" unicode="&#x122;" horiz-adv-x="792" d="M450 325 L656 325 C651 170 546 69 398 69 C233 69 127 195 127 384 C127 573 233 698 393 698 C521 698 615 617 643 487 L732 487 C701 664 572 776 393 776 C181 776 40 619 40 384 C40 148 181 -9 393 -9 C511 -9 594 35 649 117 L650 117 L650 0 L736 0 L736 402 L450 402 L450 325 Z M403 -51 C372 -51 349 -72 349 -103 C349 -132 370 -153 400 -154 L366 -233 L366 -243 L406 -243 L445 -144 C451 -129 457 -115 457 -102 C457 -72 435 -51 403 -51 L403 -51 Z " />
<glyph glyph-name="uni0123" unicode="&#x123;" horiz-adv-x="612" d="M315 590 C346 590 369 609 369 636 C369 663 347 681 318 682 L352 752 L352 762 L312 762 L274 678 C267 660 262 647 262 635 C262 609 283 590 315 590 L315 590 Z M469 454 L462 454 C427 518 361 551 283 551 C140 551 41 445 41 271 C41 97 140 -9 283 -9 C361 -9 427 24 462 88 L469 88 L469 -100 C469 -135 450 -154 415 -154 L190 -154 C155 -154 136 -135 136 -100 L136 -45 L54 -45 L54 -121 C54 -188 91 -225 158 -225 L446 -225 C514 -225 550 -187 550 -121 L550 542 L469 542 L469 454 Z M299 62 C193 62 123 137 123 271 C123 405 193 480 299 480 C404 480 475 406 475 271 C475 136 404 62 299 62 L299 62 Z " />
<glyph glyph-name="hcircumflex" unicode="&#x125;" horiz-adv-x="561" d="M294 836 L364 836 L233 992 L165 992 L35 836 L104 836 L199 954 L294 836 Z M308 551 C236 551 182 519 151 473 L143 473 L143 767 L61 767 L61 0 L143 0 L143 294 C143 336 147 373 158 397 C178 446 222 476 283 476 C387 476 423 413 423 299 L423 0 L505 0 L505 318 C505 467 439 551 308 551 L308 551 Z " />
<glyph glyph-name="Hbar" unicode="&#x126;" horiz-adv-x="706" d="M637 648 L637 767 L551 767 L551 648 L155 648 L155 767 L69 767 L69 648 L3 648 L3 601 L69 601 L69 0 L155 0 L155 357 L551 357 L551 0 L637 0 L637 601 L702 601 L702 648 L637 648 Z M155 434 L155 601 L551 601 L551 434 L155 434 Z " />
<glyph glyph-name="hbar" unicode="&#x127;" horiz-adv-x="561" d="M308 551 C236 551 182 519 151 473 L143 473 L143 626 L288 626 L288 685 L143 685 L143 767 L61 767 L61 685 L0 685 L0 626 L61 626 L61 0 L143 0 L143 294 C143 336 147 373 158 397 C178 446 222 476 283 476 C387 476 423 413 423 299 L423 0 L505 0 L505 318 C505 467 439 551 308 551 L308 551 Z " />
<glyph glyph-name="Itilde" unicode="&#x128;" horiz-adv-x="224" d="M187 852 C247 852 286 905 286 992 L239 992 C239 936 217 901 188 901 C129 901 123 996 40 996 C-23 996 -63 946 -63 861 L-17 861 C-17 915 4 948 37 947 C96 948 97 852 187 852 L187 852 Z M155 0 L155 767 L69 767 L69 0 L155 0 Z " />
<glyph glyph-name="itilde" unicode="&#x129;" horiz-adv-x="205" d="M177 627 C237 627 276 680 276 767 L229 767 C229 711 207 676 178 676 C119 676 113 771 30 771 C-33 771 -73 721 -73 636 L-27 636 C-27 690 -6 723 27 722 C86 723 87 627 177 627 L177 627 Z M143 0 L143 542 L61 542 L61 0 L143 0 Z " />
<glyph glyph-name="Imacron" unicode="&#x12a;" horiz-adv-x="224" d="M260 883 L260 931 L-37 931 L-37 883 L260 883 Z M155 0 L155 767 L69 767 L69 0 L155 0 Z " />
<glyph glyph-name="imacron" unicode="&#x12b;" horiz-adv-x="205" d="M250 658 L250 706 L-47 706 L-47 658 L250 658 Z M143 0 L143 542 L61 542 L61 0 L143 0 Z " />
<glyph glyph-name="Iogonek" unicode="&#x12e;" horiz-adv-x="224" d="M155 767 L69 767 L69 0 L99 0 C40 -44 9 -95 9 -139 C9 -193 58 -230 155 -230 L155 -181 C97 -181 68 -157 68 -119 C68 -83 99 -37 155 0 L155 767 Z " />
<glyph glyph-name="iogonek" unicode="&#x12f;" horiz-adv-x="205" d="M102 664 C132 664 158 690 158 722 C158 753 132 778 102 778 C69 778 45 753 45 722 C45 690 69 664 102 664 L102 664 Z M86 0 C27 -44 -4 -95 -4 -139 C-4 -193 45 -230 142 -230 L142 -181 C84 -181 55 -157 55 -119 C55 -83 86 -37 142 0 L143 0 L143 542 L61 542 L61 0 L86 0 Z " />
<glyph glyph-name="Idotaccent" unicode="&#x130;" horiz-adv-x="224" d="M112 827 C142 827 168 852 168 884 C168 915 142 940 112 940 C80 940 55 915 55 884 C55 852 80 827 112 827 L112 827 Z M155 0 L155 767 L69 767 L69 0 L155 0 Z " />
<glyph glyph-name="dotlessi" unicode="&#x131;" horiz-adv-x="205" d="M143 0 L143 542 L61 542 L61 0 L143 0 Z " />
<glyph glyph-name="IJ" unicode="&#x132;" horiz-adv-x="796" d="M155 0 L155 767 L69 767 L69 0 L155 0 Z M489 -9 C574 -9 638 17 679 63 C725 115 733 184 733 258 L733 767 L367 767 L367 689 L647 689 L647 270 C647 204 639 154 610 119 C585 88 543 68 489 68 C434 68 393 88 367 119 C341 151 332 194 331 258 L245 258 C245 184 253 115 299 63 C339 17 404 -9 489 -9 L489 -9 Z " />
<glyph glyph-name="ij" unicode="&#x133;" horiz-adv-x="421" d="M102 664 C132 664 158 690 158 722 C158 753 132 778 102 778 C69 778 45 753 45 722 C45 690 69 664 102 664 L102 664 Z M317 664 C347 664 373 690 373 722 C373 753 347 778 317 778 C285 778 260 753 260 722 C260 690 285 664 317 664 L317 664 Z M143 0 L143 542 L61 542 L61 0 L143 0 Z M237 -225 C313 -225 358 -180 358 -104 L358 542 L276 542 L276 -104 C276 -130 256 -150 230 -150 L176 -150 L176 -225 L237 -225 Z " />
<glyph glyph-name="uni0136" unicode="&#x136;" horiz-adv-x="676" d="M642 750 L642 767 L538 767 L163 382 L155 382 L155 767 L69 767 L69 0 L155 0 L155 254 L312 414 L319 414 L571 0 L661 0 L661 17 L380 483 L642 750 Z M324 -51 C293 -51 270 -72 270 -103 C270 -132 291 -153 321 -154 L287 -233 L287 -243 L327 -243 L366 -144 C372 -129 378 -115 378 -102 C378 -72 356 -51 324 -51 L324 -51 Z " />
<glyph glyph-name="uni0137" unicode="&#x137;" horiz-adv-x="555" d="M496 520 L496 542 L406 542 L148 273 L143 273 L143 767 L61 767 L61 0 L143 0 L143 160 L267 286 L271 286 L450 0 L535 0 L535 17 L326 347 L496 520 Z M261 -51 C230 -51 207 -72 207 -103 C207 -132 228 -153 258 -154 L224 -233 L224 -243 L264 -243 L303 -144 C309 -129 315 -115 315 -102 C315 -72 293 -51 261 -51 L261 -51 Z " />
<glyph glyph-name="Lacute" unicode="&#x139;" horiz-adv-x="508" d="M141 836 L284 992 L202 992 L83 836 L141 836 Z M501 0 L501 78 L155 78 L155 767 L69 767 L69 0 L501 0 Z " />
<glyph glyph-name="lacute" unicode="&#x13a;" horiz-adv-x="266" d="M148 836 L291 992 L209 992 L90 836 L148 836 Z M240 0 L240 75 L187 75 C160 75 141 95 141 121 L141 767 L59 767 L59 121 C59 45 103 0 180 0 L240 0 Z " />
<glyph glyph-name="uni013B" unicode="&#x13b;" horiz-adv-x="508" d="M155 767 L69 767 L69 0 L501 0 L501 78 L155 78 L155 767 Z M285 -51 C254 -51 231 -72 231 -103 C231 -132 252 -153 282 -154 L248 -233 L248 -243 L288 -243 L327 -144 C333 -129 339 -115 339 -102 C339 -72 317 -51 285 -51 L285 -51 Z " />
<glyph glyph-name="uni013C" unicode="&#x13c;" horiz-adv-x="266" d="M187 75 C160 75 141 95 141 121 L141 767 L59 767 L59 121 C59 45 103 0 180 0 L240 0 L240 75 L187 75 Z M119 -51 C88 -51 65 -72 65 -103 C65 -132 86 -153 116 -154 L82 -233 L82 -243 L122 -243 L161 -144 C167 -129 173 -115 173 -102 C173 -72 151 -51 119 -51 L119 -51 Z " />
<glyph glyph-name="Lcaron" unicode="&#x13d;" horiz-adv-x="508" d="M387 516 L387 505 L433 505 L496 663 C504 681 509 697 509 715 C509 748 483 776 446 776 C406 776 380 748 380 714 C380 679 406 651 444 651 L387 516 Z M69 767 L69 0 L501 0 L501 78 L155 78 L155 767 L69 767 Z " />
<glyph glyph-name="lcaron" unicode="&#x13e;" horiz-adv-x="284" d="M288 776 C249 776 223 748 223 714 C223 679 248 651 287 651 L229 516 L229 505 L275 505 L339 663 C347 681 351 697 351 715 C351 748 325 776 288 776 L288 776 Z M141 767 L59 767 L59 121 C59 45 103 0 180 0 L240 0 L240 75 L187 75 C160 75 141 95 141 121 L141 767 Z " />
<glyph glyph-name="Ldot" unicode="&#x13f;" horiz-adv-x="583" d="M501 0 L501 78 L155 78 L155 767 L69 767 L69 0 L501 0 Z M402 321 C437 321 466 350 466 385 C466 419 437 447 402 447 C365 447 337 419 337 385 C337 350 365 321 402 321 L402 321 Z " />
<glyph glyph-name="ldot" unicode="&#x140;" horiz-adv-x="433" d="M240 0 L240 75 L187 75 C160 75 141 95 141 121 L141 767 L59 767 L59 121 C59 45 103 0 180 0 L240 0 Z M282 314 C318 314 346 343 346 378 C346 412 317 440 282 440 C246 440 217 412 217 378 C217 343 246 314 282 314 L282 314 Z " />
<glyph glyph-name="Lslash" unicode="&#x141;" horiz-adv-x="508" d="M155 363 L328 485 L328 563 L155 442 L155 767 L69 767 L69 381 L-3 331 L-3 251 L69 302 L69 0 L501 0 L501 78 L155 78 L155 363 Z " />
<glyph glyph-name="lslash" unicode="&#x142;" horiz-adv-x="266" d="M245 550 L141 457 L141 767 L59 767 L59 384 L-7 325 L-7 246 L59 305 L59 121 C59 45 103 0 180 0 L240 0 L240 75 L187 75 C160 75 141 95 141 121 L141 378 L245 471 L245 550 Z " />
<glyph glyph-name="Nacute" unicode="&#x143;" horiz-adv-x="741" d="M399 836 L542 992 L460 992 L341 836 L399 836 Z M155 0 L155 690 L166 690 L520 0 L671 0 L671 767 L585 767 L585 77 L575 77 L221 767 L69 767 L69 0 L155 0 Z " />
<glyph glyph-name="nacute" unicode="&#x144;" horiz-adv-x="561" d="M312 611 L455 767 L373 767 L254 611 L312 611 Z M143 0 L143 294 C143 336 147 373 158 397 C178 446 222 476 283 476 C387 476 423 413 423 299 L423 0 L505 0 L505 318 C505 467 439 551 308 551 C236 551 182 519 151 473 L143 473 L143 542 L61 542 L61 0 L143 0 Z " />
<glyph glyph-name="uni0145" unicode="&#x145;" horiz-adv-x="741" d="M585 77 L575 77 L221 767 L69 767 L69 0 L155 0 L155 690 L166 690 L520 0 L671 0 L671 767 L585 767 L585 77 Z M370 -51 C339 -51 316 -72 316 -103 C316 -132 337 -153 367 -154 L333 -233 L333 -243 L373 -243 L412 -144 C418 -129 424 -115 424 -102 C424 -72 402 -51 370 -51 L370 -51 Z " />
<glyph glyph-name="uni0146" unicode="&#x146;" horiz-adv-x="561" d="M308 551 C236 551 182 519 151 473 L143 473 L143 542 L61 542 L61 0 L143 0 L143 294 C143 336 147 373 158 397 C178 446 222 476 283 476 C387 476 423 413 423 299 L423 0 L505 0 L505 318 C505 467 439 551 308 551 L308 551 Z M283 -51 C252 -51 229 -72 229 -103 C229 -132 250 -153 280 -154 L246 -233 L246 -243 L286 -243 L325 -144 C331 -129 337 -115 337 -102 C337 -72 315 -51 283 -51 L283 -51 Z " />
<glyph glyph-name="Ncaron" unicode="&#x147;" horiz-adv-x="741" d="M537 992 L467 992 L372 875 L278 992 L208 992 L338 836 L406 836 L537 992 Z M585 77 L575 77 L221 767 L69 767 L69 0 L155 0 L155 690 L166 690 L520 0 L671 0 L671 767 L585 767 L585 77 Z " />
<glyph glyph-name="ncaron" unicode="&#x148;" horiz-adv-x="561" d="M450 767 L380 767 L285 650 L191 767 L121 767 L251 611 L319 611 L450 767 Z M308 551 C236 551 182 519 151 473 L143 473 L143 542 L61 542 L61 0 L143 0 L143 294 C143 336 147 373 158 397 C178 446 222 476 283 476 C387 476 423 413 423 299 L423 0 L505 0 L505 318 C505 467 439 551 308 551 L308 551 Z " />
<glyph glyph-name="napostrophe" unicode="&#x149;" horiz-adv-x="694" d="M122 776 C83 776 57 748 57 714 C57 679 82 651 121 651 L63 516 L63 505 L109 505 L173 663 C181 681 185 697 185 715 C185 748 159 776 122 776 L122 776 Z M440 551 C369 551 314 519 283 473 L276 473 L276 542 L194 542 L194 0 L276 0 L276 294 C276 336 280 373 291 397 C310 446 355 476 416 476 C520 476 556 413 556 299 L556 0 L638 0 L638 318 C638 467 572 551 440 551 L440 551 Z " />
<glyph glyph-name="Eng" unicode="&#x14a;" horiz-adv-x="741" d="M585 77 L575 77 L221 767 L69 767 L69 0 L155 0 L155 690 L166 690 L520 0 L594 0 L594 -107 C594 -134 574 -154 547 -154 L493 -154 L493 -225 L553 -225 C628 -225 671 -181 671 -107 L671 767 L585 767 L585 77 Z " />
<glyph glyph-name="eng" unicode="&#x14b;" horiz-adv-x="561" d="M308 551 C236 551 182 519 151 473 L143 473 L143 542 L61 542 L61 0 L143 0 L143 294 C143 336 147 373 158 397 C178 446 222 476 283 476 C387 476 423 413 423 299 L423 -104 C423 -130 403 -150 377 -150 L324 -150 L324 -225 L384 -225 C460 -225 505 -180 505 -104 L505 318 C505 467 439 551 308 551 L308 551 Z " />
<glyph glyph-name="Omacron" unicode="&#x14c;" horiz-adv-x="787" d="M541 883 L541 931 L244 931 L244 883 L541 883 Z M393 -9 C605 -9 746 148 746 384 C746 619 605 776 393 776 C181 776 40 619 40 384 C40 148 181 -9 393 -9 L393 -9 Z M393 69 C233 69 127 195 127 384 C127 573 233 698 393 698 C553 698 660 573 660 384 C660 195 553 69 393 69 L393 69 Z " />
<glyph glyph-name="omacron" unicode="&#x14d;" horiz-adv-x="606" d="M451 658 L451 706 L154 706 L154 658 L451 658 Z M303 -9 C454 -9 565 93 565 271 C565 449 454 551 303 551 C151 551 40 449 40 271 C40 93 151 -9 303 -9 L303 -9 Z M303 62 C195 62 122 137 122 271 C122 405 195 480 303 480 C410 480 483 405 483 271 C483 137 410 62 303 62 L303 62 Z " />
<glyph glyph-name="Ohungarumlaut" unicode="&#x150;" horiz-adv-x="787" d="M328 836 L450 992 L379 992 L269 836 L328 836 Z M518 836 L649 992 L567 992 L457 836 L518 836 Z M393 -9 C605 -9 746 148 746 384 C746 619 605 776 393 776 C181 776 40 619 40 384 C40 148 181 -9 393 -9 L393 -9 Z M393 69 C233 69 127 195 127 384 C127 573 233 698 393 698 C553 698 660 573 660 384 C660 195 553 69 393 69 L393 69 Z " />
<glyph glyph-name="ohungarumlaut" unicode="&#x151;" horiz-adv-x="606" d="M238 611 L360 767 L289 767 L179 611 L238 611 Z M428 611 L559 767 L477 767 L367 611 L428 611 Z M303 -9 C454 -9 565 93 565 271 C565 449 454 551 303 551 C151 551 40 449 40 271 C40 93 151 -9 303 -9 L303 -9 Z M303 62 C195 62 122 137 122 271 C122 405 195 480 303 480 C410 480 483 405 483 271 C483 137 410 62 303 62 L303 62 Z " />
<glyph glyph-name="OE" unicode="&#x152;" horiz-adv-x="1194" d="M748 357 L1103 357 L1103 434 L748 434 L748 689 L1143 689 L1143 767 L662 767 L662 653 C600 731 507 776 393 776 C181 776 40 619 40 384 C40 148 181 -9 393 -9 C507 -9 600 36 662 114 L662 0 L1165 0 L1165 78 L748 78 L748 357 Z M393 69 C233 69 127 195 127 384 C127 573 233 698 393 698 C553 698 660 573 660 384 C660 195 553 69 393 69 L393 69 Z " />
<glyph glyph-name="oe" unicode="&#x153;" horiz-adv-x="1050" d="M1012 280 C1008 449 901 551 750 551 C652 551 571 509 526 431 C481 509 400 551 303 551 C151 551 40 449 40 271 C40 93 151 -9 303 -9 C400 -9 481 33 526 111 C571 33 652 -9 750 -9 C867 -9 960 54 996 163 L908 163 C881 99 823 62 750 62 C646 62 574 132 569 258 L1011 258 L1012 280 Z M303 62 C195 62 122 137 122 271 C122 405 195 480 303 480 C410 480 483 405 483 271 C483 137 410 62 303 62 L303 62 Z M750 480 C843 480 910 422 927 320 L573 320 C588 423 656 480 750 480 L750 480 Z " />
<glyph glyph-name="Racute" unicode="&#x154;" horiz-adv-x="617" d="M384 992 L265 836 L323 836 L466 992 L384 992 Z M389 342 C422 349 448 360 470 377 C518 412 546 472 546 550 C546 627 518 687 470 722 C427 755 364 767 274 767 L69 767 L69 0 L155 0 L155 332 L274 332 L293 332 L501 0 L591 0 L591 18 L389 339 L389 342 Z M155 410 L155 689 L260 689 C337 689 383 683 418 655 C442 635 460 603 460 550 C460 498 443 465 418 444 C384 416 337 410 260 410 L155 410 Z " />
<glyph glyph-name="racute" unicode="&#x155;" horiz-adv-x="361" d="M202 611 L345 767 L263 767 L144 611 L202 611 Z M143 0 L143 370 C143 432 178 467 240 467 L344 467 L344 542 L253 542 C204 542 174 525 153 493 L143 493 L143 542 L61 542 L61 0 L143 0 Z " />
<glyph glyph-name="uni0156" unicode="&#x156;" horiz-adv-x="617" d="M389 342 C422 349 448 360 470 377 C518 412 546 472 546 550 C546 627 518 687 470 722 C427 755 364 767 274 767 L69 767 L69 0 L155 0 L155 332 L274 332 L293 332 L501 0 L591 0 L591 18 L389 339 L389 342 Z M155 410 L155 689 L260 689 C337 689 383 683 418 655 C442 635 460 603 460 550 C460 498 443 465 418 444 C384 416 337 410 260 410 L155 410 Z M294 -51 C263 -51 240 -72 240 -103 C240 -132 261 -153 291 -154 L257 -233 L257 -243 L297 -243 L336 -144 C342 -129 348 -115 348 -102 C348 -72 326 -51 294 -51 L294 -51 Z " />
<glyph glyph-name="uni0157" unicode="&#x157;" horiz-adv-x="361" d="M253 542 C204 542 174 525 153 493 L143 493 L143 542 L61 542 L61 0 L143 0 L143 370 C143 432 178 467 240 467 L344 467 L344 542 L253 542 Z M173 -51 C142 -51 119 -72 119 -103 C119 -132 140 -153 170 -154 L136 -233 L136 -243 L176 -243 L215 -144 C221 -129 227 -115 227 -102 C227 -72 205 -51 173 -51 L173 -51 Z " />
<glyph glyph-name="Rcaron" unicode="&#x158;" horiz-adv-x="617" d="M460 992 L390 992 L295 875 L201 992 L131 992 L261 836 L329 836 L460 992 Z M389 342 C422 349 448 360 470 377 C518 412 546 472 546 550 C546 627 518 687 470 722 C427 755 364 767 274 767 L69 767 L69 0 L155 0 L155 332 L274 332 L293 332 L501 0 L591 0 L591 18 L389 339 L389 342 Z M155 410 L155 689 L260 689 C337 689 383 683 418 655 C442 635 460 603 460 550 C460 498 443 465 418 444 C384 416 337 410 260 410 L155 410 Z " />
<glyph glyph-name="rcaron" unicode="&#x159;" horiz-adv-x="361" d="M340 767 L270 767 L175 650 L81 767 L11 767 L141 611 L209 611 L340 767 Z M253 542 C204 542 174 525 153 493 L143 493 L143 542 L61 542 L61 0 L143 0 L143 370 C143 432 178 467 240 467 L344 467 L344 542 L253 542 Z " />
<glyph glyph-name="Sacute" unicode="&#x15a;" horiz-adv-x="681" d="M370 836 L513 992 L431 992 L312 836 L370 836 Z M358 -9 C528 -9 638 77 638 219 C638 338 564 390 459 419 L299 463 C229 483 160 502 160 581 C160 660 227 701 331 701 C450 701 524 648 531 543 L619 543 C613 699 485 776 332 776 C188 776 74 709 74 578 C74 441 193 405 267 384 L407 345 C484 323 552 303 552 212 C552 117 480 66 358 66 C206 66 122 143 122 280 L36 280 C36 91 175 -9 358 -9 L358 -9 Z " />
<glyph glyph-name="sacute" unicode="&#x15b;" horiz-adv-x="527" d="M295 611 L438 767 L356 767 L237 611 L295 611 Z M271 -9 C397 -9 485 52 485 159 C485 242 432 287 336 309 L250 330 C181 345 141 357 141 406 C141 459 191 485 256 485 C329 485 384 454 391 383 L473 383 C465 487 381 551 256 551 C149 551 59 502 59 400 C59 298 150 272 209 258 L314 233 C357 223 403 210 403 150 C403 86 350 57 273 57 C186 57 128 91 119 181 L37 181 C42 56 136 -9 271 -9 L271 -9 Z " />
<glyph glyph-name="Scedilla" unicode="&#x15e;" horiz-adv-x="681" d="M638 219 C638 338 564 390 459 419 L299 463 C229 483 160 502 160 581 C160 660 227 701 331 701 C450 701 524 648 531 543 L619 543 C613 699 485 776 332 776 C188 776 74 709 74 578 C74 441 193 405 267 384 L407 345 C484 323 552 303 552 212 C552 117 480 66 358 66 C206 66 122 143 122 280 L36 280 C36 97 166 -3 341 -9 L292 -92 C311 -92 331 -94 345 -98 C372 -106 387 -123 387 -145 C387 -171 365 -191 330 -191 C307 -191 280 -183 256 -160 L234 -196 C263 -221 297 -231 327 -231 C385 -231 427 -194 427 -144 C427 -109 407 -83 373 -70 C365 -67 356 -65 345 -64 L381 -8 C538 -1 638 84 638 219 L638 219 Z " />
<glyph glyph-name="scedilla" unicode="&#x15f;" horiz-adv-x="527" d="M485 159 C485 242 432 287 336 309 L250 330 C181 345 141 357 141 406 C141 459 191 485 256 485 C329 485 384 454 391 383 L473 383 C465 487 381 551 256 551 C149 551 59 502 59 400 C59 298 150 272 209 258 L314 233 C357 223 403 210 403 150 C403 86 350 57 273 57 C186 57 128 91 119 181 L37 181 C42 65 122 1 241 -8 L192 -92 C211 -92 231 -94 245 -98 C272 -106 287 -123 287 -145 C287 -171 265 -191 230 -191 C207 -191 180 -183 156 -160 L134 -196 C163 -221 197 -231 227 -231 C285 -231 327 -194 327 -144 C327 -109 307 -83 273 -70 C265 -67 256 -65 245 -64 L281 -9 C402 -6 485 55 485 159 L485 159 Z " />
<glyph glyph-name="Scaron" unicode="&#x160;" horiz-adv-x="681" d="M508 992 L438 992 L343 875 L249 992 L179 992 L309 836 L377 836 L508 992 Z M299 463 C229 483 160 502 160 581 C160 660 227 701 331 701 C450 701 524 648 531 543 L619 543 C613 699 485 776 332 776 C188 776 74 709 74 578 C74 441 193 405 267 384 L407 345 C484 323 552 303 552 212 C552 117 480 66 358 66 C206 66 122 143 122 280 L36 280 C36 91 175 -9 358 -9 C528 -9 638 77 638 219 C638 338 564 390 459 419 L299 463 Z " />
<glyph glyph-name="scaron" unicode="&#x161;" horiz-adv-x="527" d="M433 767 L363 767 L268 650 L174 767 L104 767 L234 611 L302 611 L433 767 Z M250 330 C181 345 141 357 141 406 C141 459 191 485 256 485 C329 485 384 454 391 383 L473 383 C465 487 381 551 256 551 C149 551 59 502 59 400 C59 298 150 272 209 258 L314 233 C357 223 403 210 403 150 C403 86 350 57 273 57 C186 57 128 91 119 181 L37 181 C42 56 136 -9 271 -9 C397 -9 485 52 485 159 C485 242 432 287 336 309 L250 330 Z " />
<glyph glyph-name="uni0162" unicode="&#x162;" horiz-adv-x="624" d="M355 689 L617 689 L617 767 L6 767 L6 689 L269 689 L269 0 L292 0 L238 -92 C257 -92 277 -94 291 -98 C318 -106 333 -123 333 -145 C333 -171 311 -191 276 -191 C253 -191 226 -183 202 -160 L180 -196 C209 -221 243 -231 273 -231 C331 -231 373 -194 373 -144 C373 -109 353 -83 319 -70 C311 -67 302 -65 291 -64 L333 0 L355 0 L355 689 Z " />
<glyph glyph-name="uni0163" unicode="&#x163;" horiz-adv-x="332" d="M303 542 L191 542 L191 767 L109 767 L109 542 L20 542 L20 467 L109 467 L109 121 C109 62 136 21 185 6 L127 -92 C146 -92 166 -94 180 -98 C207 -106 222 -123 222 -145 C222 -171 200 -191 165 -191 C142 -191 115 -183 91 -160 L69 -196 C98 -221 132 -231 162 -231 C220 -231 262 -194 262 -144 C262 -109 242 -83 208 -70 C200 -67 191 -65 180 -64 L222 0 L230 0 L303 0 L303 75 L237 75 C211 75 191 95 191 121 L191 467 L303 467 L303 542 Z " />
<glyph glyph-name="Tcaron" unicode="&#x164;" horiz-adv-x="624" d="M478 992 L408 992 L313 875 L219 992 L149 992 L279 836 L347 836 L478 992 Z M6 689 L269 689 L269 0 L355 0 L355 689 L617 689 L617 767 L6 767 L6 689 Z " />
<glyph glyph-name="tcaron" unicode="&#x165;" horiz-adv-x="332" d="M323 896 C283 896 257 868 257 834 C257 799 283 771 321 771 L264 636 L264 625 L310 625 L373 783 C381 801 386 817 386 835 C386 868 360 896 323 896 L323 896 Z M109 767 L109 542 L20 542 L20 467 L109 467 L109 121 C109 45 154 0 230 0 L303 0 L303 75 L237 75 C211 75 191 95 191 121 L191 467 L303 467 L303 542 L191 542 L191 767 L109 767 Z " />
<glyph glyph-name="Tbar" unicode="&#x166;" horiz-adv-x="624" d="M617 767 L6 767 L6 689 L269 689 L269 413 L168 413 L168 354 L269 354 L269 0 L355 0 L355 354 L456 354 L456 413 L355 413 L355 689 L617 689 L617 767 Z " />
<glyph glyph-name="tbar" unicode="&#x167;" horiz-adv-x="332" d="M309 300 L191 300 L191 467 L303 467 L303 542 L191 542 L191 767 L109 767 L109 542 L20 542 L20 467 L109 467 L109 300 L21 300 L21 241 L109 241 L109 121 C109 45 154 0 230 0 L303 0 L303 75 L237 75 C211 75 191 95 191 121 L191 241 L309 241 L309 300 Z " />
<glyph glyph-name="Utilde" unicode="&#x168;" horiz-adv-x="681" d="M415 852 C475 852 514 905 514 992 L467 992 C467 936 445 901 416 901 C357 901 351 996 268 996 C205 996 165 946 165 861 L211 861 C211 915 232 948 265 947 C324 948 325 852 415 852 L415 852 Z M340 -9 C530 -9 618 81 618 254 L618 767 L532 767 L532 259 C532 140 482 69 340 69 C201 69 149 136 149 259 L149 767 L62 767 L62 254 C62 84 148 -9 340 -9 L340 -9 Z " />
<glyph glyph-name="utilde" unicode="&#x169;" horiz-adv-x="561" d="M351 627 C411 627 450 680 450 767 L403 767 C403 711 381 676 352 676 C293 676 287 771 204 771 C141 771 101 721 101 636 L147 636 C147 690 168 723 201 722 C260 723 261 627 351 627 L351 627 Z M252 -9 C325 -9 378 24 409 69 L417 69 L417 0 L499 0 L499 542 L417 542 L417 248 C417 207 414 170 401 144 C381 95 336 66 276 66 C173 66 137 129 137 243 L137 542 L55 542 L55 224 C55 75 121 -9 252 -9 L252 -9 Z " />
<glyph glyph-name="Umacron" unicode="&#x16a;" horiz-adv-x="681" d="M488 883 L488 931 L191 931 L191 883 L488 883 Z M340 -9 C530 -9 618 81 618 254 L618 767 L532 767 L532 259 C532 140 482 69 340 69 C201 69 149 136 149 259 L149 767 L62 767 L62 254 C62 84 148 -9 340 -9 L340 -9 Z " />
<glyph glyph-name="umacron" unicode="&#x16b;" horiz-adv-x="561" d="M425 658 L425 706 L128 706 L128 658 L425 658 Z M252 -9 C325 -9 378 24 409 69 L417 69 L417 0 L499 0 L499 542 L417 542 L417 248 C417 207 414 170 401 144 C381 95 336 66 276 66 C173 66 137 129 137 243 L137 542 L55 542 L55 224 C55 75 121 -9 252 -9 L252 -9 Z " />
<glyph glyph-name="Uring" unicode="&#x16e;" horiz-adv-x="681" d="M340 817 C399 817 447 865 447 925 C447 984 398 1031 340 1031 C281 1031 234 983 234 925 C234 866 280 817 340 817 L340 817 Z M340 861 C304 861 277 888 277 925 C277 960 303 988 340 988 C377 988 403 960 403 925 C403 888 376 861 340 861 L340 861 Z M340 -9 C530 -9 618 81 618 254 L618 767 L532 767 L532 259 C532 140 482 69 340 69 C201 69 149 136 149 259 L149 767 L62 767 L62 254 C62 84 148 -9 340 -9 L340 -9 Z " />
<glyph glyph-name="uring" unicode="&#x16f;" horiz-adv-x="561" d="M276 592 C335 592 383 640 383 700 C383 759 334 806 276 806 C217 806 170 758 170 700 C170 641 216 592 276 592 L276 592 Z M276 636 C240 636 213 663 213 700 C213 735 239 763 276 763 C313 763 339 735 339 700 C339 663 312 636 276 636 L276 636 Z M252 -9 C325 -9 378 24 409 69 L417 69 L417 0 L499 0 L499 542 L417 542 L417 248 C417 207 414 170 401 144 C381 95 336 66 276 66 C173 66 137 129 137 243 L137 542 L55 542 L55 224 C55 75 121 -9 252 -9 L252 -9 Z " />
<glyph glyph-name="Uhungarumlaut" unicode="&#x170;" horiz-adv-x="681" d="M275 836 L397 992 L326 992 L216 836 L275 836 Z M465 836 L596 992 L514 992 L404 836 L465 836 Z M340 -9 C530 -9 618 81 618 254 L618 767 L532 767 L532 259 C532 140 482 69 340 69 C201 69 149 136 149 259 L149 767 L62 767 L62 254 C62 84 148 -9 340 -9 L340 -9 Z " />
<glyph glyph-name="uhungarumlaut" unicode="&#x171;" horiz-adv-x="561" d="M211 611 L333 767 L262 767 L152 611 L211 611 Z M401 611 L532 767 L450 767 L340 611 L401 611 Z M252 -9 C325 -9 378 24 409 69 L417 69 L417 0 L499 0 L499 542 L417 542 L417 248 C417 207 414 170 401 144 C381 95 336 66 276 66 C173 66 137 129 137 243 L137 542 L55 542 L55 224 C55 75 121 -9 252 -9 L252 -9 Z " />
<glyph glyph-name="Uogonek" unicode="&#x172;" horiz-adv-x="681" d="M532 259 C532 140 482 69 340 69 C201 69 149 136 149 259 L149 767 L62 767 L62 254 C62 84 148 -9 340 -9 C348 -9 356 -9 364 -8 C312 -50 285 -98 285 -139 C285 -193 334 -230 431 -230 L431 -181 C373 -181 344 -157 344 -119 C344 -83 374 -38 430 -1 C558 25 618 111 618 254 L618 767 L532 767 L532 259 Z " />
<glyph glyph-name="uogonek" unicode="&#x173;" horiz-adv-x="561" d="M417 248 C417 207 414 170 401 144 C381 95 336 66 276 66 C173 66 137 129 137 243 L137 542 L55 542 L55 224 C55 75 121 -9 252 -9 C325 -9 378 24 409 69 L417 69 L417 0 L442 0 C383 -44 352 -95 352 -139 C352 -193 401 -230 498 -230 L498 -181 C440 -181 411 -157 411 -119 C411 -83 442 -37 498 0 L499 0 L499 542 L417 542 L417 248 Z " />
<glyph glyph-name="Wcircumflex" unicode="&#x174;" horiz-adv-x="1125" d="M657 836 L727 836 L596 992 L528 992 L398 836 L467 836 L562 954 L657 836 Z M790 95 L779 95 L637 767 L487 767 L345 95 L334 95 L99 767 L13 767 L13 750 L279 0 L412 0 L558 697 L566 697 L712 0 L845 0 L1111 750 L1111 767 L1025 767 L790 95 Z " />
<glyph glyph-name="wcircumflex" unicode="&#x175;" horiz-adv-x="910" d="M549 611 L619 611 L488 767 L420 767 L290 611 L359 611 L454 729 L549 611 Z M635 72 L624 72 L521 542 L389 542 L285 72 L275 72 L104 542 L17 542 L217 0 L346 0 L450 467 L460 467 L564 0 L694 0 L893 542 L806 542 L635 72 Z " />
<glyph glyph-name="Ycircumflex" unicode="&#x176;" horiz-adv-x="663" d="M425 836 L495 836 L364 992 L296 992 L166 836 L235 836 L330 954 L425 836 Z M334 382 L328 382 L97 767 L7 767 L7 750 L288 286 L288 0 L374 0 L374 286 L655 750 L655 767 L565 767 L334 382 Z " />
<glyph glyph-name="ycircumflex" unicode="&#x177;" horiz-adv-x="561" d="M374 611 L444 611 L313 767 L245 767 L115 611 L184 611 L279 729 L374 611 Z M285 71 L275 71 L104 542 L17 542 L216 0 L260 0 L222 -99 C209 -131 184 -149 148 -149 L55 -149 L55 -224 L167 -224 C224 -224 268 -194 289 -140 L345 0 L544 542 L456 542 L285 71 Z " />
<glyph glyph-name="Ydieresis" unicode="&#x178;" horiz-adv-x="663" d="M231 827 C261 827 287 852 287 884 C287 915 261 940 231 940 C199 940 174 915 174 884 C174 852 199 827 231 827 L231 827 Z M431 827 C461 827 487 852 487 884 C487 915 461 940 431 940 C399 940 373 915 373 884 C373 852 399 827 431 827 L431 827 Z M374 0 L374 286 L655 750 L655 767 L565 767 L334 382 L328 382 L97 767 L7 767 L7 750 L288 286 L288 0 L374 0 Z " />
<glyph glyph-name="Zacute" unicode="&#x179;" horiz-adv-x="646" d="M352 836 L495 992 L413 992 L294 836 L352 836 Z M618 0 L618 78 L113 78 L113 88 L610 643 L610 767 L46 767 L46 689 L523 689 L523 679 L26 123 L26 0 L618 0 Z " />
<glyph glyph-name="zacute" unicode="&#x17a;" horiz-adv-x="513" d="M286 611 L429 767 L347 767 L228 611 L286 611 Z M477 0 L477 75 L124 75 L124 81 L474 428 L474 542 L49 542 L49 467 L383 467 L383 459 L33 112 L33 0 L477 0 Z " />
<glyph glyph-name="Zdotaccent" unicode="&#x17b;" horiz-adv-x="646" d="M323 827 C353 827 379 852 379 884 C379 915 353 940 323 940 C291 940 266 915 266 884 C266 852 291 827 323 827 L323 827 Z M618 0 L618 78 L113 78 L113 88 L610 643 L610 767 L46 767 L46 689 L523 689 L523 679 L26 123 L26 0 L618 0 Z " />
<glyph glyph-name="zdotaccent" unicode="&#x17c;" horiz-adv-x="513" d="M258 664 C288 664 314 690 314 722 C314 753 288 778 258 778 C225 778 201 753 201 722 C201 690 225 664 258 664 L258 664 Z M477 0 L477 75 L124 75 L124 81 L474 428 L474 542 L49 542 L49 467 L383 467 L383 459 L33 112 L33 0 L477 0 Z " />
<glyph glyph-name="Zcaron" unicode="&#x17d;" horiz-adv-x="646" d="M490 992 L420 992 L325 875 L231 992 L161 992 L291 836 L359 836 L490 992 Z M113 88 L610 643 L610 767 L46 767 L46 689 L523 689 L523 679 L26 123 L26 0 L618 0 L618 78 L113 78 L113 88 Z " />
<glyph glyph-name="zcaron" unicode="&#x17e;" horiz-adv-x="513" d="M424 767 L354 767 L259 650 L165 767 L95 767 L225 611 L293 611 L424 767 Z M124 81 L474 428 L474 542 L49 542 L49 467 L383 467 L383 459 L33 112 L33 0 L477 0 L477 75 L124 75 L124 81 Z " />
<glyph glyph-name="florin" unicode="&#x192;" horiz-adv-x="496" d="M59 -246 C204 -246 281 -180 281 -31 L281 484 L427 484 L427 542 L281 542 L281 602 C281 670 315 704 380 704 L427 704 L427 769 L391 769 C272 769 216 707 216 596 L216 542 L122 542 L122 484 L216 484 L216 -25 C216 -144 172 -187 59 -187 L59 -246 Z " />
<glyph glyph-name="Ohorn" unicode="&#x1a0;" horiz-adv-x="787" d="M745 786 C745 711 727 669 652 664 C590 735 501 776 393 776 C181 776 40 619 40 384 C40 148 181 -9 393 -9 C605 -9 746 148 746 384 C746 472 726 549 690 612 C778 625 810 677 810 786 L810 845 L745 845 L745 786 Z M393 69 C233 69 127 195 127 384 C127 573 233 698 393 698 C553 698 660 573 660 384 C660 195 553 69 393 69 L393 69 Z " />
<glyph glyph-name="ohorn" unicode="&#x1a1;" horiz-adv-x="606" d="M569 576 C569 512 556 473 507 459 C460 519 388 551 303 551 C151 551 40 449 40 271 C40 93 151 -9 303 -9 C454 -9 565 93 565 271 C565 323 556 368 538 407 C608 426 634 478 634 576 L634 635 L569 635 L569 576 Z M303 62 C195 62 122 137 122 271 C122 405 195 480 303 480 C410 480 483 405 483 271 C483 137 410 62 303 62 L303 62 Z " />
<glyph glyph-name="Uhorn" unicode="&#x1af;" horiz-adv-x="681" d="M700 794 C700 723 684 681 618 673 L618 767 L532 767 L532 259 C532 140 482 69 340 69 C201 69 149 136 149 259 L149 767 L62 767 L62 254 C62 84 148 -9 340 -9 C530 -9 618 81 618 254 L618 617 C726 623 765 674 765 794 L765 853 L700 853 L700 794 Z " />
<glyph glyph-name="uhorn" unicode="&#x1b0;" horiz-adv-x="561" d="M576 664 C576 584 556 542 468 542 L417 542 L417 248 C417 207 414 170 401 144 C381 95 336 66 276 66 C173 66 137 129 137 243 L137 542 L55 542 L55 224 C55 75 121 -9 252 -9 C325 -9 378 24 409 69 L417 69 L417 0 L499 0 L499 487 C603 495 641 546 641 664 L641 723 L576 723 L576 664 Z " />
<glyph glyph-name="uni01C4" unicode="&#x1c4;" horiz-adv-x="1375" d="M1220 992 L1150 992 L1055 875 L961 992 L891 992 L1021 836 L1089 836 L1220 992 Z M605 668 C534 736 430 767 307 767 L68 767 L68 0 L307 0 C428 0 530 30 602 94 C671 156 712 251 712 381 C712 511 673 606 605 668 L605 668 Z M843 88 L1340 643 L1340 767 L776 767 L776 689 L1253 689 L1253 679 L756 123 L756 0 L1348 0 L1348 78 L843 78 L843 88 Z M548 159 C490 101 404 78 306 78 L155 78 L155 689 L306 689 C406 689 493 665 551 604 C599 555 626 481 626 381 C626 282 597 209 548 159 L548 159 Z " />
<glyph glyph-name="uni01C5" unicode="&#x1c5;" horiz-adv-x="1262" d="M605 668 C534 736 430 767 307 767 L68 767 L68 0 L307 0 C428 0 530 30 602 94 C671 156 712 251 712 381 C712 511 673 606 605 668 L605 668 Z M1174 767 L1104 767 L1009 650 L915 767 L845 767 L975 611 L1043 611 L1174 767 Z M548 159 C490 101 404 78 306 78 L155 78 L155 689 L306 689 C406 689 493 665 551 604 C599 555 626 481 626 381 C626 282 597 209 548 159 L548 159 Z M874 81 L1224 428 L1224 542 L799 542 L799 467 L1133 467 L1133 459 L783 112 L783 0 L1227 0 L1227 75 L874 75 L874 81 Z " />
<glyph glyph-name="uni01C6" unicode="&#x1c6;" horiz-adv-x="1125" d="M462 454 C427 518 361 551 283 551 C140 551 41 445 41 271 C41 97 140 -9 283 -9 C361 -9 427 24 462 88 L469 88 L469 0 L550 0 L550 767 L469 767 L469 454 L462 454 Z M1036 767 L966 767 L871 650 L777 767 L707 767 L837 611 L905 611 L1036 767 Z M736 81 L1086 428 L1086 542 L661 542 L661 467 L995 467 L995 459 L645 112 L645 0 L1089 0 L1089 75 L736 75 L736 81 Z M299 62 C193 62 123 137 123 271 C123 405 193 480 299 480 C404 480 475 406 475 271 C475 136 404 62 299 62 L299 62 Z " />
<glyph glyph-name="uni01C7" unicode="&#x1c7;" horiz-adv-x="1081" d="M501 0 L501 78 L155 78 L155 767 L69 767 L69 0 L501 0 Z M773 -9 C858 -9 922 17 963 63 C1009 115 1017 184 1017 258 L1017 767 L651 767 L651 689 L931 689 L931 270 C931 204 923 154 894 119 C869 88 827 68 773 68 C718 68 677 88 651 119 C625 151 616 194 615 258 L529 258 C529 184 537 115 583 63 C623 17 688 -9 773 -9 L773 -9 Z " />
<glyph glyph-name="uni01C8" unicode="&#x1c8;" horiz-adv-x="724" d="M620 664 C650 664 676 690 676 722 C676 753 650 778 620 778 C588 778 563 753 563 722 C563 690 588 664 620 664 L620 664 Z M501 0 L501 78 L155 78 L155 767 L69 767 L69 0 L501 0 Z M540 -225 C616 -225 661 -180 661 -104 L661 542 L579 542 L579 -104 C579 -130 559 -150 533 -150 L479 -150 L479 -225 L540 -225 Z " />
<glyph glyph-name="uni01C9" unicode="&#x1c9;" horiz-adv-x="482" d="M378 664 C408 664 434 690 434 722 C434 753 408 778 378 778 C345 778 321 753 321 722 C321 690 345 664 378 664 L378 664 Z M240 0 L240 75 L187 75 C160 75 141 95 141 121 L141 767 L59 767 L59 121 C59 45 103 0 180 0 L240 0 Z M298 -225 C374 -225 419 -180 419 -104 L419 542 L337 542 L337 -104 C337 -130 317 -150 291 -150 L237 -150 L237 -225 L298 -225 Z " />
<glyph glyph-name="uni01CA" unicode="&#x1ca;" horiz-adv-x="1314" d="M155 0 L155 690 L166 690 L520 0 L671 0 L671 767 L585 767 L585 77 L575 77 L221 767 L69 767 L69 0 L155 0 Z M1006 -9 C1091 -9 1155 17 1196 63 C1242 115 1250 184 1250 258 L1250 767 L884 767 L884 689 L1164 689 L1164 270 C1164 204 1156 154 1127 119 C1102 88 1060 68 1006 68 C951 68 910 88 884 119 C858 151 849 194 848 258 L762 258 C762 184 770 115 816 63 C856 17 921 -9 1006 -9 L1006 -9 Z " />
<glyph glyph-name="uni01CB" unicode="&#x1cb;" horiz-adv-x="957" d="M853 664 C883 664 909 690 909 722 C909 753 883 778 853 778 C821 778 796 753 796 722 C796 690 821 664 853 664 L853 664 Z M155 0 L155 690 L166 690 L520 0 L671 0 L671 767 L585 767 L585 77 L575 77 L221 767 L69 767 L69 0 L155 0 Z M773 -225 C849 -225 894 -180 894 -104 L894 542 L812 542 L812 -104 C812 -130 792 -150 766 -150 L712 -150 L712 -225 L773 -225 Z " />
<glyph glyph-name="uni01CC" unicode="&#x1cc;" horiz-adv-x="777" d="M673 664 C703 664 729 690 729 722 C729 753 703 778 673 778 C640 778 616 753 616 722 C616 690 640 664 673 664 L673 664 Z M143 0 L143 294 C143 336 147 373 158 397 C178 446 222 476 283 476 C387 476 423 413 423 299 L423 0 L505 0 L505 318 C505 467 439 551 308 551 C236 551 182 519 151 473 L143 473 L143 542 L61 542 L61 0 L143 0 Z M593 -225 C669 -225 714 -180 714 -104 L714 542 L632 542 L632 -104 C632 -130 612 -150 586 -150 L532 -150 L532 -225 L593 -225 Z " />
<glyph glyph-name="uni01CD" unicode="&#x1cd;" horiz-adv-x="680" d="M507 992 L437 992 L342 875 L248 992 L178 992 L308 836 L376 836 L507 992 Z M280 767 L13 17 L13 0 L99 0 L162 180 L518 180 L581 0 L666 0 L666 17 L400 767 L280 767 Z M335 677 L345 677 L491 258 L189 258 L335 677 Z " />
<glyph glyph-name="uni01CE" unicode="&#x1ce;" horiz-adv-x="545" d="M446 767 L376 767 L281 650 L187 767 L117 767 L247 611 L315 611 L446 767 Z M467 453 C437 519 365 551 273 551 C133 551 66 481 57 383 L140 383 C146 442 187 485 272 485 C363 485 405 436 406 359 L407 320 L240 320 C123 320 42 273 42 158 C42 54 116 -9 228 -9 C304 -9 360 23 397 87 L406 87 L406 0 L487 0 L487 334 C487 372 485 416 467 453 L467 453 Z M239 59 C168 59 125 97 125 158 C125 234 175 258 250 258 L406 258 C404 141 356 59 239 59 L239 59 Z " />
<glyph glyph-name="uni01CF" unicode="&#x1cf;" horiz-adv-x="224" d="M278 992 L208 992 L113 875 L19 992 L-51 992 L79 836 L147 836 L278 992 Z M155 0 L155 767 L69 767 L69 0 L155 0 Z " />
<glyph glyph-name="uni01D0" unicode="&#x1d0;" horiz-adv-x="205" d="M268 767 L198 767 L103 650 L9 767 L-61 767 L69 611 L137 611 L268 767 Z M143 0 L143 542 L61 542 L61 0 L143 0 Z " />
<glyph glyph-name="uni01D1" unicode="&#x1d1;" horiz-adv-x="787" d="M560 992 L490 992 L395 875 L301 992 L231 992 L361 836 L429 836 L560 992 Z M393 776 C181 776 40 619 40 384 C40 148 181 -9 393 -9 C605 -9 746 148 746 384 C746 619 605 776 393 776 L393 776 Z M393 69 C233 69 127 195 127 384 C127 573 233 698 393 698 C553 698 660 573 660 384 C660 195 553 69 393 69 L393 69 Z " />
<glyph glyph-name="uni01D2" unicode="&#x1d2;" horiz-adv-x="606" d="M469 767 L399 767 L304 650 L210 767 L140 767 L270 611 L338 611 L469 767 Z M303 551 C151 551 40 449 40 271 C40 93 151 -9 303 -9 C454 -9 565 93 565 271 C565 449 454 551 303 551 L303 551 Z M303 62 C195 62 122 137 122 271 C122 405 195 480 303 480 C410 480 483 405 483 271 C483 137 410 62 303 62 L303 62 Z " />
<glyph glyph-name="uni01D3" unicode="&#x1d3;" horiz-adv-x="681" d="M507 992 L437 992 L342 875 L248 992 L178 992 L308 836 L376 836 L507 992 Z M532 259 C532 140 482 69 340 69 C201 69 149 136 149 259 L149 767 L62 767 L62 254 C62 84 148 -9 340 -9 C530 -9 618 81 618 254 L618 767 L532 767 L532 259 Z " />
<glyph glyph-name="uni01D4" unicode="&#x1d4;" horiz-adv-x="561" d="M443 767 L373 767 L278 650 L184 767 L114 767 L244 611 L312 611 L443 767 Z M417 248 C417 207 414 170 401 144 C381 95 336 66 276 66 C173 66 137 129 137 243 L137 542 L55 542 L55 224 C55 75 121 -9 252 -9 C325 -9 378 24 409 69 L417 69 L417 0 L499 0 L499 542 L417 542 L417 248 Z " />
<glyph glyph-name="uni01D5" unicode="&#x1d5;" horiz-adv-x="681" d="M488 1056 L488 1104 L191 1104 L191 1056 L488 1056 Z M240 827 C270 827 296 852 296 884 C296 915 270 940 240 940 C208 940 183 915 183 884 C183 852 208 827 240 827 L240 827 Z M440 827 C470 827 496 852 496 884 C496 915 470 940 440 940 C408 940 382 915 382 884 C382 852 408 827 440 827 L440 827 Z M340 -9 C530 -9 618 81 618 254 L618 767 L532 767 L532 259 C532 140 482 69 340 69 C201 69 149 136 149 259 L149 767 L62 767 L62 254 C62 84 148 -9 340 -9 L340 -9 Z " />
<glyph glyph-name="uni01D6" unicode="&#x1d6;" horiz-adv-x="561" d="M425 894 L425 942 L128 942 L128 894 L425 894 Z M177 664 C207 664 233 690 233 722 C233 753 207 778 177 778 C144 778 120 753 120 722 C120 690 144 664 177 664 L177 664 Z M377 664 C407 664 433 690 433 722 C433 753 407 778 377 778 C344 778 319 753 319 722 C319 690 344 664 377 664 L377 664 Z M252 -9 C325 -9 378 24 409 69 L417 69 L417 0 L499 0 L499 542 L417 542 L417 248 C417 207 414 170 401 144 C381 95 336 66 276 66 C173 66 137 129 137 243 L137 542 L55 542 L55 224 C55 75 121 -9 252 -9 L252 -9 Z " />
<glyph glyph-name="uni01D7" unicode="&#x1d7;" horiz-adv-x="681" d="M369 1009 L512 1165 L430 1165 L311 1009 L369 1009 Z M240 827 C270 827 296 852 296 884 C296 915 270 940 240 940 C208 940 183 915 183 884 C183 852 208 827 240 827 L240 827 Z M440 827 C470 827 496 852 496 884 C496 915 470 940 440 940 C408 940 382 915 382 884 C382 852 408 827 440 827 L440 827 Z M340 -9 C530 -9 618 81 618 254 L618 767 L532 767 L532 259 C532 140 482 69 340 69 C201 69 149 136 149 259 L149 767 L62 767 L62 254 C62 84 148 -9 340 -9 L340 -9 Z " />
<glyph glyph-name="uni01D8" unicode="&#x1d8;" horiz-adv-x="561" d="M305 847 L448 1003 L366 1003 L247 847 L305 847 Z M177 664 C207 664 233 690 233 722 C233 753 207 778 177 778 C144 778 120 753 120 722 C120 690 144 664 177 664 L177 664 Z M377 664 C407 664 433 690 433 722 C433 753 407 778 377 778 C344 778 319 753 319 722 C319 690 344 664 377 664 L377 664 Z M252 -9 C325 -9 378 24 409 69 L417 69 L417 0 L499 0 L499 542 L417 542 L417 248 C417 207 414 170 401 144 C381 95 336 66 276 66 C173 66 137 129 137 243 L137 542 L55 542 L55 224 C55 75 121 -9 252 -9 L252 -9 Z " />
<glyph glyph-name="uni01D9" unicode="&#x1d9;" horiz-adv-x="681" d="M507 1165 L437 1165 L342 1048 L248 1165 L178 1165 L308 1009 L376 1009 L507 1165 Z M183 884 C183 852 208 827 240 827 C270 827 296 852 296 884 C296 915 270 940 240 940 C208 940 183 915 183 884 L183 884 Z M382 884 C382 852 408 827 440 827 C470 827 496 852 496 884 C496 915 470 940 440 940 C408 940 382 915 382 884 L382 884 Z M532 259 C532 140 482 69 340 69 C201 69 149 136 149 259 L149 767 L62 767 L62 254 C62 84 148 -9 340 -9 C530 -9 618 81 618 254 L618 767 L532 767 L532 259 Z " />
<glyph glyph-name="uni01DA" unicode="&#x1da;" horiz-adv-x="561" d="M443 1003 L373 1003 L278 886 L184 1003 L114 1003 L244 847 L312 847 L443 1003 Z M120 722 C120 690 144 664 177 664 C207 664 233 690 233 722 C233 753 207 778 177 778 C144 778 120 753 120 722 L120 722 Z M319 722 C319 690 344 664 377 664 C407 664 433 690 433 722 C433 753 407 778 377 778 C344 778 319 753 319 722 L319 722 Z M417 248 C417 207 414 170 401 144 C381 95 336 66 276 66 C173 66 137 129 137 243 L137 542 L55 542 L55 224 C55 75 121 -9 252 -9 C325 -9 378 24 409 69 L417 69 L417 0 L499 0 L499 542 L417 542 L417 248 Z " />
<glyph glyph-name="uni01DB" unicode="&#x1db;" horiz-adv-x="681" d="M370 1009 L255 1165 L173 1165 L310 1009 L370 1009 Z M240 827 C270 827 296 852 296 884 C296 915 270 940 240 940 C208 940 183 915 183 884 C183 852 208 827 240 827 L240 827 Z M440 827 C470 827 496 852 496 884 C496 915 470 940 440 940 C408 940 382 915 382 884 C382 852 408 827 440 827 L440 827 Z M340 -9 C530 -9 618 81 618 254 L618 767 L532 767 L532 259 C532 140 482 69 340 69 C201 69 149 136 149 259 L149 767 L62 767 L62 254 C62 84 148 -9 340 -9 L340 -9 Z " />
<glyph glyph-name="uni01DC" unicode="&#x1dc;" horiz-adv-x="561" d="M306 847 L191 1003 L109 1003 L246 847 L306 847 Z M177 664 C207 664 233 690 233 722 C233 753 207 778 177 778 C144 778 120 753 120 722 C120 690 144 664 177 664 L177 664 Z M377 664 C407 664 433 690 433 722 C433 753 407 778 377 778 C344 778 319 753 319 722 C319 690 344 664 377 664 L377 664 Z M252 -9 C325 -9 378 24 409 69 L417 69 L417 0 L499 0 L499 542 L417 542 L417 248 C417 207 414 170 401 144 C381 95 336 66 276 66 C173 66 137 129 137 243 L137 542 L55 542 L55 224 C55 75 121 -9 252 -9 L252 -9 Z " />
<glyph glyph-name="Gcaron" unicode="&#x1e6;" horiz-adv-x="792" d="M570 992 L500 992 L405 875 L311 992 L241 992 L371 836 L439 836 L570 992 Z M450 325 L656 325 C651 170 546 69 398 69 C233 69 127 195 127 384 C127 573 233 698 393 698 C521 698 615 617 643 487 L732 487 C701 664 572 776 393 776 C181 776 40 619 40 384 C40 148 181 -9 393 -9 C511 -9 594 35 649 117 L650 117 L650 0 L736 0 L736 402 L450 402 L450 325 Z " />
<glyph glyph-name="uni01EB" unicode="&#x1eb;" horiz-adv-x="606" d="M374 -1 C487 26 565 122 565 271 C565 449 454 551 303 551 C151 551 40 449 40 271 C40 93 151 -9 303 -9 L308 -9 C256 -50 229 -98 229 -139 C229 -193 278 -230 375 -230 L375 -181 C317 -181 288 -157 288 -119 C288 -83 318 -38 374 -1 L374 -1 Z M122 271 C122 405 195 480 303 480 C410 480 483 405 483 271 C483 137 410 62 303 62 C195 62 122 137 122 271 L122 271 Z " />
<glyph glyph-name="uni01F1" unicode="&#x1f1;" horiz-adv-x="1375" d="M307 0 C428 0 530 30 602 94 C671 156 712 251 712 381 C712 511 673 606 605 668 C534 736 430 767 307 767 L68 767 L68 0 L307 0 Z M1348 0 L1348 78 L843 78 L843 88 L1340 643 L1340 767 L776 767 L776 689 L1253 689 L1253 679 L756 123 L756 0 L1348 0 Z M155 689 L306 689 C406 689 493 665 551 604 C599 555 626 481 626 381 C626 282 597 209 548 159 C490 101 404 78 306 78 L155 78 L155 689 Z " />
<glyph glyph-name="uni01F2" unicode="&#x1f2;" horiz-adv-x="1262" d="M307 0 C428 0 530 30 602 94 C671 156 712 251 712 381 C712 511 673 606 605 668 C534 736 430 767 307 767 L68 767 L68 0 L307 0 Z M155 689 L306 689 C406 689 493 665 551 604 C599 555 626 481 626 381 C626 282 597 209 548 159 C490 101 404 78 306 78 L155 78 L155 689 Z M1227 0 L1227 75 L874 75 L874 81 L1224 428 L1224 542 L799 542 L799 467 L1133 467 L1133 459 L783 112 L783 0 L1227 0 Z " />
<glyph glyph-name="uni01F3" unicode="&#x1f3;" horiz-adv-x="1125" d="M283 -9 C361 -9 427 24 462 88 L469 88 L469 0 L550 0 L550 767 L469 767 L469 454 L462 454 C427 518 361 551 283 551 C140 551 41 445 41 271 C41 97 140 -9 283 -9 L283 -9 Z M1089 0 L1089 75 L736 75 L736 81 L1086 428 L1086 542 L661 542 L661 467 L995 467 L995 459 L645 112 L645 0 L1089 0 Z M299 62 C193 62 123 137 123 271 C123 405 193 480 299 480 C404 480 475 406 475 271 C475 136 404 62 299 62 L299 62 Z " />
<glyph glyph-name="Aringacute" unicode="&#x1fa;" horiz-adv-x="680" d="M407 747 C431 766 447 796 447 830 C447 870 425 904 393 923 L511 1051 L429 1051 L342 937 L340 937 C280 937 233 889 233 830 C233 797 248 767 273 747 L13 17 L13 0 L99 0 L162 180 L518 180 L581 0 L666 0 L666 17 L407 747 Z M340 893 C377 893 403 866 403 831 C403 794 376 767 340 767 C304 767 276 794 276 831 C276 866 303 893 340 893 L340 893 Z M335 677 L345 677 L491 258 L189 258 L335 677 Z " />
<glyph glyph-name="aringacute" unicode="&#x1fb;" horiz-adv-x="545" d="M279 592 C338 592 386 640 386 700 C386 739 364 773 333 791 L451 920 L369 920 L282 806 L279 806 C220 806 173 758 173 700 C173 641 219 592 279 592 L279 592 Z M279 763 C316 763 342 735 342 700 C342 663 315 636 279 636 C243 636 216 663 216 700 C216 735 242 763 279 763 L279 763 Z M467 453 C437 519 365 551 273 551 C133 551 66 481 57 383 L140 383 C146 442 187 485 272 485 C363 485 405 436 406 359 L407 320 L240 320 C123 320 42 273 42 158 C42 54 116 -9 228 -9 C304 -9 360 23 397 87 L406 87 L406 0 L487 0 L487 334 C487 372 485 416 467 453 L467 453 Z M239 59 C168 59 125 97 125 158 C125 234 175 258 250 258 L406 258 C404 141 356 59 239 59 L239 59 Z " />
<glyph glyph-name="aeacute" unicode="&#x1fd;" horiz-adv-x="972" d="M575 767 L456 611 L514 611 L657 767 L575 767 Z M934 280 C931 449 823 551 672 551 C585 551 512 518 465 456 C432 521 362 551 272 551 C133 551 66 481 57 383 L135 383 C142 445 185 488 271 488 C365 488 407 438 408 359 L409 319 L238 319 C122 319 42 272 42 157 C42 54 116 -9 233 -9 C333 -9 402 42 433 127 L439 127 C482 39 568 -9 672 -9 C789 -9 882 54 918 163 L831 163 C803 99 746 62 672 62 C568 62 496 132 491 258 L933 258 L934 280 Z M672 480 C765 480 832 422 849 320 L495 320 C510 423 578 480 672 480 L672 480 Z M238 56 C165 56 121 94 121 158 C121 233 169 259 248 259 L408 259 L408 258 C406 139 357 56 238 56 L238 56 Z " />
<glyph glyph-name="Oslashacute" unicode="&#x1fe;" horiz-adv-x="787" d="M483 992 L364 836 L422 836 L565 992 L483 992 Z M661 757 L609 790 L572 731 C521 760 461 776 393 776 C181 776 40 619 40 384 C40 250 85 142 163 73 L124 10 L175 -22 L212 38 C263 7 325 -9 393 -9 C605 -9 746 148 746 384 C746 518 700 626 622 695 L661 757 Z M127 384 C127 573 233 698 393 698 C444 698 490 685 529 661 L209 146 C157 201 127 284 127 384 L127 384 Z M393 69 C341 69 294 82 255 107 L577 622 C630 567 660 485 660 384 C660 195 553 69 393 69 L393 69 Z " />
<glyph glyph-name="oslashacute" unicode="&#x1ff;" horiz-adv-x="606" d="M393 767 L274 611 L332 611 L475 767 L393 767 Z M511 556 L465 584 L427 524 C391 542 349 551 303 551 C151 551 40 449 40 271 C40 171 75 95 132 48 L94 -14 L139 -42 L177 19 C214 1 256 -9 303 -9 C454 -9 565 93 565 271 C565 371 530 447 473 494 L511 556 Z M122 271 C122 405 195 480 303 480 C335 480 364 473 388 461 L174 114 C141 150 122 203 122 271 L122 271 Z M303 62 C271 62 241 69 216 82 L431 428 C464 392 483 339 483 271 C483 137 410 62 303 62 L303 62 Z " />
<glyph glyph-name="uni0218" unicode="&#x218;" horiz-adv-x="681" d="M299 463 C229 483 160 502 160 581 C160 660 227 701 331 701 C450 701 524 648 531 543 L619 543 C613 699 485 776 332 776 C188 776 74 709 74 578 C74 441 193 405 267 384 L407 345 C484 323 552 303 552 212 C552 117 480 66 358 66 C206 66 122 143 122 280 L36 280 C36 91 175 -9 358 -9 C528 -9 638 77 638 219 C638 338 564 390 459 419 L299 463 Z M366 -51 C335 -51 312 -72 312 -103 C312 -132 333 -153 363 -154 L329 -233 L329 -243 L369 -243 L408 -144 C414 -129 420 -115 420 -102 C420 -72 398 -51 366 -51 L366 -51 Z " />
<glyph glyph-name="uni0219" unicode="&#x219;" horiz-adv-x="527" d="M250 330 C181 345 141 357 141 406 C141 459 191 485 256 485 C329 485 384 454 391 383 L473 383 C465 487 381 551 256 551 C149 551 59 502 59 400 C59 298 150 272 209 258 L314 233 C357 223 403 210 403 150 C403 86 350 57 273 57 C186 57 128 91 119 181 L37 181 C42 56 136 -9 271 -9 C397 -9 485 52 485 159 C485 242 432 287 336 309 L250 330 Z M266 -51 C235 -51 212 -72 212 -103 C212 -132 233 -153 263 -154 L229 -233 L229 -243 L269 -243 L308 -144 C314 -129 320 -115 320 -102 C320 -72 298 -51 266 -51 L266 -51 Z " />
<glyph glyph-name="uni021A" unicode="&#x21a;" horiz-adv-x="624" d="M6 689 L269 689 L269 0 L355 0 L355 689 L617 689 L617 767 L6 767 L6 689 Z M312 -51 C281 -51 258 -72 258 -103 C258 -132 279 -153 309 -154 L275 -233 L275 -243 L315 -243 L354 -144 C360 -129 366 -115 366 -102 C366 -72 344 -51 312 -51 L312 -51 Z " />
<glyph glyph-name="uni021B" unicode="&#x21b;" horiz-adv-x="332" d="M303 542 L191 542 L191 767 L109 767 L109 542 L20 542 L20 467 L109 467 L109 121 C109 45 154 0 230 0 L303 0 L303 75 L237 75 C211 75 191 95 191 121 L191 467 L303 467 L303 542 Z M201 -51 C170 -51 147 -72 147 -103 C147 -132 168 -153 198 -154 L164 -233 L164 -243 L204 -243 L243 -144 C249 -129 255 -115 255 -102 C255 -72 233 -51 201 -51 L201 -51 Z " />
<glyph glyph-name="uni0228" unicode="&#x228;" horiz-adv-x="601" d="M572 78 L155 78 L155 357 L509 357 L509 434 L155 434 L155 689 L550 689 L550 767 L69 767 L69 0 L301 0 L247 -92 C266 -92 286 -94 300 -98 C327 -106 342 -123 342 -145 C342 -171 320 -191 285 -191 C262 -191 235 -183 211 -160 L189 -196 C218 -221 252 -231 282 -231 C340 -231 382 -194 382 -144 C382 -109 362 -83 328 -70 C320 -67 311 -65 300 -64 L342 0 L572 0 L572 78 Z " />
<glyph glyph-name="uni0237" unicode="&#x237;" horiz-adv-x="216" d="M32 -225 C108 -225 153 -180 153 -104 L153 542 L71 542 L71 -104 C71 -130 51 -150 25 -150 L-29 -150 L-29 -225 L32 -225 Z " />
<glyph glyph-name="uni0254" unicode="&#x254;" horiz-adv-x="584" d="M281 551 C155 551 61 483 36 361 L121 361 C139 439 198 480 281 480 C388 480 461 406 461 271 C461 136 388 62 281 62 C198 62 139 104 121 181 L36 181 C61 60 155 -9 281 -9 C433 -9 543 93 543 271 C543 449 433 551 281 551 L281 551 Z " />
<glyph glyph-name="circumflex" unicode="&#x2c6;" horiz-adv-x="340" d="M204 767 L136 767 L6 611 L75 611 L170 729 L265 611 L335 611 L204 767 Z " />
<glyph glyph-name="caron" unicode="&#x2c7;" horiz-adv-x="343" d="M171 650 L77 767 L7 767 L137 611 L205 611 L336 767 L266 767 L171 650 Z " />
<glyph glyph-name="breve" unicode="&#x2d8;" horiz-adv-x="398" d="M199 617 C307 617 365 672 365 767 L310 767 C310 697 268 664 199 664 C131 664 89 696 89 767 L33 767 C33 674 87 617 199 617 L199 617 Z " />
<glyph glyph-name="dotaccent" unicode="&#x2d9;" horiz-adv-x="202" d="M102 664 C132 664 158 690 158 722 C158 753 132 778 102 778 C69 778 45 753 45 722 C45 690 69 664 102 664 L102 664 Z " />
<glyph glyph-name="ring" unicode="&#x2da;" horiz-adv-x="283" d="M141 592 C200 592 248 640 248 700 C248 759 199 806 141 806 C82 806 35 758 35 700 C35 641 81 592 141 592 L141 592 Z M141 636 C105 636 78 663 78 700 C78 735 104 763 141 763 C178 763 204 735 204 700 C204 663 177 636 141 636 L141 636 Z " />
<glyph glyph-name="ogonek" unicode="&#x2db;" horiz-adv-x="210" d="M175 -181 C117 -181 88 -157 88 -119 C88 -83 119 -37 175 0 L122 2 C61 -42 29 -94 29 -139 C29 -193 78 -230 175 -230 L175 -181 Z " />
<glyph glyph-name="tilde" unicode="&#x2dc;" horiz-adv-x="430" d="M290 627 C350 627 389 680 389 767 L342 767 C342 711 320 676 291 676 C232 676 226 771 143 771 C80 771 40 721 40 636 L86 636 C86 690 107 723 140 722 C199 723 200 627 290 627 L290 627 Z " />
<glyph glyph-name="hungarumlaut" unicode="&#x2dd;" horiz-adv-x="396" d="M70 611 L192 767 L121 767 L11 611 L70 611 Z M260 611 L391 767 L309 767 L199 611 L260 611 Z " />
<glyph glyph-name="gravecomb" unicode="&#x300;" d="M-10 611 L-125 767 L-207 767 L-70 611 L-10 611 Z " />
<glyph glyph-name="acutecomb" unicode="&#x301;" d="M-146 611 L-3 767 L-85 767 L-204 611 L-146 611 Z " />
<glyph glyph-name="uni0302" unicode="&#x302;" d="M-136 767 L-204 767 L-334 611 L-265 611 L-170 729 L-75 611 L-5 611 L-136 767 Z " />
<glyph glyph-name="tildecomb" unicode="&#x303;" d="M-140 627 C-80 627 -41 680 -41 767 L-88 767 C-88 711 -110 676 -139 676 C-198 676 -204 771 -287 771 C-350 771 -390 721 -390 636 L-344 636 C-344 690 -323 723 -290 722 C-231 723 -230 627 -140 627 L-140 627 Z " />
<glyph glyph-name="uni0304" unicode="&#x304;" d="M-59 658 L-59 706 L-356 706 L-356 658 L-59 658 Z " />
<glyph glyph-name="uni0306" unicode="&#x306;" d="M-199 617 C-91 617 -33 672 -33 767 L-88 767 C-88 697 -130 664 -199 664 C-267 664 -309 696 -309 767 L-365 767 C-365 674 -311 617 -199 617 L-199 617 Z " />
<glyph glyph-name="uni0307" unicode="&#x307;" d="M-100 664 C-70 664 -44 690 -44 722 C-44 753 -70 778 -100 778 C-133 778 -157 753 -157 722 C-157 690 -133 664 -100 664 L-100 664 Z " />
<glyph glyph-name="uni0308" unicode="&#x308;" d="M-300 664 C-270 664 -244 690 -244 722 C-244 753 -270 778 -300 778 C-333 778 -357 753 -357 722 C-357 690 -333 664 -300 664 L-300 664 Z M-100 664 C-70 664 -44 690 -44 722 C-44 753 -70 778 -100 778 C-133 778 -158 753 -158 722 C-158 690 -133 664 -100 664 L-100 664 Z " />
<glyph glyph-name="hookabovecomb" unicode="&#x309;" d="M-153 576 C-101 579 -36 593 -36 667 C-36 701 -52 724 -76 742 C-99 758 -130 767 -170 767 L-191 767 L-191 721 L-170 721 C-142 721 -120 716 -105 704 C-92 694 -86 681 -86 664 C-86 617 -125 612 -156 608 L-153 576 Z " />
<glyph glyph-name="uni030A" unicode="&#x30a;" d="M-142 592 C-83 592 -35 640 -35 700 C-35 759 -84 806 -142 806 C-201 806 -248 758 -248 700 C-248 641 -202 592 -142 592 L-142 592 Z M-142 636 C-178 636 -205 663 -205 700 C-205 735 -179 763 -142 763 C-105 763 -79 735 -79 700 C-79 663 -106 636 -142 636 L-142 636 Z " />
<glyph glyph-name="uni030B" unicode="&#x30b;" d="M-326 611 L-204 767 L-275 767 L-385 611 L-326 611 Z M-136 611 L-5 767 L-87 767 L-197 611 L-136 611 Z " />
<glyph glyph-name="uni030C" unicode="&#x30c;" d="M-172 650 L-266 767 L-336 767 L-206 611 L-138 611 L-7 767 L-77 767 L-172 650 Z " />
<glyph glyph-name="uni030F" unicode="&#x30f;" d="M-309 767 L-391 767 L-260 611 L-199 611 L-309 767 Z M-121 767 L-192 767 L-70 611 L-11 611 L-121 767 Z " />
<glyph glyph-name="uni0312" unicode="&#x312;" d="M-61 752 L-61 762 L-101 762 L-139 678 C-146 660 -151 647 -151 635 C-151 609 -130 590 -98 590 C-67 590 -44 609 -44 636 C-44 663 -66 681 -95 682 L-61 752 Z " />
<glyph glyph-name="uni031B" unicode="&#x31b;" d="M-218 711 C-90 711 -45 760 -45 889 L-45 948 L-110 948 L-110 889 C-110 809 -130 767 -218 767 L-218 711 Z " />
<glyph glyph-name="dotbelowcomb" unicode="&#x323;" d="M-100 -236 C-70 -236 -44 -210 -44 -179 C-44 -148 -70 -122 -100 -122 C-133 -122 -157 -148 -157 -179 C-157 -210 -133 -236 -100 -236 L-100 -236 Z " />
<glyph glyph-name="uni0326" unicode="&#x326;" d="M-94 -51 C-125 -51 -148 -72 -148 -103 C-148 -132 -127 -153 -97 -154 L-131 -233 L-131 -243 L-91 -243 L-52 -144 C-46 -129 -40 -115 -40 -102 C-40 -72 -62 -51 -94 -51 L-94 -51 Z " />
<glyph glyph-name="uni0327" unicode="&#x327;" d="M-133 -231 C-75 -231 -33 -194 -33 -144 C-33 -109 -53 -83 -87 -70 C-95 -67 -104 -65 -115 -64 L-67 10 L-104 17 L-168 -92 C-149 -92 -129 -94 -115 -98 C-88 -106 -73 -123 -73 -145 C-73 -171 -95 -191 -130 -191 C-153 -191 -180 -183 -204 -160 L-226 -196 C-197 -221 -163 -231 -133 -231 L-133 -231 Z " />
<glyph glyph-name="uni0328" unicode="&#x328;" d="M-35 -181 C-93 -181 -122 -157 -122 -119 C-122 -83 -91 -37 -35 0 L-88 2 C-149 -42 -181 -94 -181 -139 C-181 -193 -132 -230 -35 -230 L-35 -181 Z " />
<glyph glyph-name="uni0335" unicode="&#x335;" d="M-59 289 L-59 348 L-347 348 L-347 289 L-59 289 Z " />
<glyph glyph-name="uni0336" unicode="&#x336;" d="M-59 286 L-59 333 L-758 333 L-758 286 L-59 286 Z " />
<glyph glyph-name="uni0337" unicode="&#x337;" d="M-4 385 L-4 464 L-256 239 L-256 160 L-4 385 Z " />
<glyph glyph-name="uni0338" unicode="&#x338;" d="M21 600 L-25 628 L-396 30 L-351 2 L21 600 Z " />
<glyph glyph-name="uni0394" unicode="&#x394;" horiz-adv-x="680" d="M633 0 L320 794 L8 0 L633 0 Z M320 635 L539 65 L102 65 L320 635 Z " />
<glyph glyph-name="uni03A9" unicode="&#x3a9;" horiz-adv-x="842" d="M332 0 L332 89 C212 125 135 236 135 395 C135 554 238 674 402 674 C565 674 668 557 668 395 C668 229 591 118 471 90 L471 0 L766 0 L766 62 L555 62 L555 75 C665 131 736 249 736 395 C736 588 601 739 402 739 C206 739 68 592 68 397 C68 261 141 143 255 78 L254 64 L37 64 L37 0 L332 0 Z " />
<glyph glyph-name="uni03BC" unicode="&#x3bc;" horiz-adv-x="628" d="M167 -225 L167 52 C191 12 232 -9 291 -9 C359 -9 425 24 459 88 L459 0 L539 0 L539 542 L459 542 L459 225 C459 121 401 66 312 66 C227 66 181 123 181 218 L181 542 L102 542 L102 -225 L167 -225 Z " />
<glyph glyph-name="pi" unicode="&#x3c0;" horiz-adv-x="583" d="M177 0 L177 471 L365 471 L365 121 C365 45 410 0 486 0 L546 0 L546 75 L493 75 C467 75 447 95 447 121 L447 471 L544 471 L544 542 L41 542 L41 471 L95 471 L95 0 L177 0 Z " />
<glyph glyph-name="uni1E44" unicode="&#x1e44;" horiz-adv-x="741" d="M370 827 C400 827 426 852 426 884 C426 915 400 940 370 940 C338 940 313 915 313 884 C313 852 338 827 370 827 L370 827 Z M155 0 L155 690 L166 690 L520 0 L671 0 L671 767 L585 767 L585 77 L575 77 L221 767 L69 767 L69 0 L155 0 Z " />
<glyph glyph-name="Wgrave" unicode="&#x1e80;" horiz-adv-x="1125" d="M592 836 L477 992 L395 992 L532 836 L592 836 Z M412 0 L558 697 L566 697 L712 0 L845 0 L1111 750 L1111 767 L1025 767 L790 95 L779 95 L637 767 L487 767 L345 95 L334 95 L99 767 L13 767 L13 750 L279 0 L412 0 Z " />
<glyph glyph-name="wgrave" unicode="&#x1e81;" horiz-adv-x="910" d="M484 611 L369 767 L287 767 L424 611 L484 611 Z M346 0 L450 467 L460 467 L564 0 L694 0 L893 542 L806 542 L635 72 L624 72 L521 542 L389 542 L285 72 L275 72 L104 542 L17 542 L217 0 L346 0 Z " />
<glyph glyph-name="Wacute" unicode="&#x1e82;" horiz-adv-x="1125" d="M591 836 L734 992 L652 992 L533 836 L591 836 Z M412 0 L558 697 L566 697 L712 0 L845 0 L1111 750 L1111 767 L1025 767 L790 95 L779 95 L637 767 L487 767 L345 95 L334 95 L99 767 L13 767 L13 750 L279 0 L412 0 Z " />
<glyph glyph-name="wacute" unicode="&#x1e83;" horiz-adv-x="910" d="M484 611 L627 767 L545 767 L426 611 L484 611 Z M346 0 L450 467 L460 467 L564 0 L694 0 L893 542 L806 542 L635 72 L624 72 L521 542 L389 542 L285 72 L275 72 L104 542 L17 542 L217 0 L346 0 Z " />
<glyph glyph-name="Wdieresis" unicode="&#x1e84;" horiz-adv-x="1125" d="M462 827 C492 827 518 852 518 884 C518 915 492 940 462 940 C430 940 405 915 405 884 C405 852 430 827 462 827 L462 827 Z M662 827 C692 827 718 852 718 884 C718 915 692 940 662 940 C630 940 604 915 604 884 C604 852 630 827 662 827 L662 827 Z M412 0 L558 697 L566 697 L712 0 L845 0 L1111 750 L1111 767 L1025 767 L790 95 L779 95 L637 767 L487 767 L345 95 L334 95 L99 767 L13 767 L13 750 L279 0 L412 0 Z " />
<glyph glyph-name="wdieresis" unicode="&#x1e85;" horiz-adv-x="910" d="M356 664 C386 664 412 690 412 722 C412 753 386 778 356 778 C323 778 299 753 299 722 C299 690 323 664 356 664 L356 664 Z M556 664 C586 664 612 690 612 722 C612 753 586 778 556 778 C523 778 498 753 498 722 C498 690 523 664 556 664 L556 664 Z M346 0 L450 467 L460 467 L564 0 L694 0 L893 542 L806 542 L635 72 L624 72 L521 542 L389 542 L285 72 L275 72 L104 542 L17 542 L217 0 L346 0 Z " />
<glyph glyph-name="uni1E9E" unicode="&#x1e9e;" horiz-adv-x="732" d="M442 432 L630 690 L630 767 L69 767 L69 0 L153 0 L153 689 L537 689 L314 385 L458 345 C535 324 603 303 603 215 C603 117 531 78 409 78 L277 78 L277 0 L431 0 C590 0 689 77 689 219 C689 338 615 385 510 413 L442 432 Z " />
<glyph glyph-name="uni1EA0" unicode="&#x1ea0;" horiz-adv-x="680" d="M280 767 L13 17 L13 0 L99 0 L162 180 L518 180 L581 0 L666 0 L666 17 L400 767 L280 767 Z M335 677 L345 677 L491 258 L189 258 L335 677 Z M341 -75 C308 -75 284 -101 284 -132 C284 -163 308 -189 341 -189 C371 -189 397 -163 397 -132 C397 -101 371 -75 341 -75 L341 -75 Z " />
<glyph glyph-name="uni1EA1" unicode="&#x1ea1;" horiz-adv-x="545" d="M467 453 C437 519 365 551 273 551 C133 551 66 481 57 383 L140 383 C146 442 187 485 272 485 C363 485 405 436 406 359 L407 320 L240 320 C123 320 42 273 42 158 C42 54 116 -9 228 -9 C304 -9 360 23 397 87 L406 87 L406 0 L487 0 L487 334 C487 372 485 416 467 453 L467 453 Z M239 59 C168 59 125 97 125 158 C125 234 175 258 250 258 L406 258 C404 141 356 59 239 59 L239 59 Z M280 -75 C247 -75 223 -101 223 -132 C223 -163 247 -189 280 -189 C310 -189 336 -163 336 -132 C336 -101 310 -75 280 -75 L280 -75 Z " />
<glyph glyph-name="uni1EA2" unicode="&#x1ea2;" horiz-adv-x="680" d="M381 929 C394 919 400 906 400 889 C400 842 361 837 330 833 L333 801 C385 804 450 818 450 892 C450 926 434 949 410 967 C387 983 356 992 316 992 L295 992 L295 946 L316 946 C344 946 366 941 381 929 L381 929 Z M280 767 L13 17 L13 0 L99 0 L162 180 L518 180 L581 0 L666 0 L666 17 L400 767 L280 767 Z M335 677 L345 677 L491 258 L189 258 L335 677 Z " />
<glyph glyph-name="uni1EA3" unicode="&#x1ea3;" horiz-adv-x="545" d="M320 704 C333 694 339 681 339 664 C339 617 300 612 269 608 L272 576 C324 579 389 593 389 667 C389 701 373 724 349 742 C326 758 295 767 255 767 L234 767 L234 721 L255 721 C283 721 305 716 320 704 L320 704 Z M467 453 C437 519 365 551 273 551 C133 551 66 481 57 383 L140 383 C146 442 187 485 272 485 C363 485 405 436 406 359 L407 320 L240 320 C123 320 42 273 42 158 C42 54 116 -9 228 -9 C304 -9 360 23 397 87 L406 87 L406 0 L487 0 L487 334 C487 372 485 416 467 453 L467 453 Z M239 59 C168 59 125 97 125 158 C125 234 175 258 250 258 L406 258 C404 141 356 59 239 59 L239 59 Z " />
<glyph glyph-name="uni1EA4" unicode="&#x1ea4;" horiz-adv-x="680" d="M429 1215 L310 1060 L368 1060 L511 1215 L429 1215 Z M434 836 L504 836 L373 992 L305 992 L175 836 L244 836 L339 954 L434 836 Z M280 767 L13 17 L13 0 L99 0 L162 180 L518 180 L581 0 L666 0 L666 17 L400 767 L280 767 Z M335 677 L345 677 L491 258 L189 258 L335 677 Z " />
<glyph glyph-name="uni1EA5" unicode="&#x1ea5;" horiz-adv-x="545" d="M369 990 L250 835 L308 835 L451 990 L369 990 Z M374 611 L444 611 L313 767 L245 767 L115 611 L184 611 L279 729 L374 611 Z M467 453 C437 519 365 551 273 551 C133 551 66 481 57 383 L140 383 C146 442 187 485 272 485 C363 485 405 436 406 359 L407 320 L240 320 C123 320 42 273 42 158 C42 54 116 -9 228 -9 C304 -9 360 23 397 87 L406 87 L406 0 L487 0 L487 334 C487 372 485 416 467 453 L467 453 Z M239 59 C168 59 125 97 125 158 C125 234 175 258 250 258 L406 258 C404 141 356 59 239 59 L239 59 Z " />
<glyph glyph-name="uni1EA6" unicode="&#x1ea6;" horiz-adv-x="680" d="M254 1215 L172 1215 L310 1060 L369 1060 L254 1215 Z M244 836 L339 954 L434 836 L504 836 L373 992 L305 992 L175 836 L244 836 Z M280 767 L13 17 L13 0 L99 0 L162 180 L518 180 L581 0 L666 0 L666 17 L400 767 L280 767 Z M335 677 L345 677 L491 258 L189 258 L335 677 Z " />
<glyph glyph-name="uni1EA7" unicode="&#x1ea7;" horiz-adv-x="545" d="M194 990 L112 990 L250 835 L309 835 L194 990 Z M184 611 L279 729 L374 611 L444 611 L313 767 L245 767 L115 611 L184 611 Z M467 453 C437 519 365 551 273 551 C133 551 66 481 57 383 L140 383 C146 442 187 485 272 485 C363 485 405 436 406 359 L407 320 L240 320 C123 320 42 273 42 158 C42 54 116 -9 228 -9 C304 -9 360 23 397 87 L406 87 L406 0 L487 0 L487 334 C487 372 485 416 467 453 L467 453 Z M239 59 C168 59 125 97 125 158 C125 234 175 258 250 258 L406 258 C404 141 356 59 239 59 L239 59 Z " />
<glyph glyph-name="uni1EA8" unicode="&#x1ea8;" horiz-adv-x="680" d="M381 1152 C394 1143 400 1130 400 1113 C400 1065 360 1060 330 1056 L333 1024 C385 1028 449 1041 449 1115 C449 1149 434 1173 409 1190 C387 1206 355 1215 315 1215 L295 1215 L295 1169 L315 1169 C344 1169 365 1164 381 1152 L381 1152 Z M434 836 L504 836 L373 992 L305 992 L175 836 L244 836 L339 954 L434 836 Z M280 767 L13 17 L13 0 L99 0 L162 180 L518 180 L581 0 L666 0 L666 17 L400 767 L280 767 Z M335 677 L345 677 L491 258 L189 258 L335 677 Z " />
<glyph glyph-name="uni1EA9" unicode="&#x1ea9;" horiz-adv-x="545" d="M321 927 C334 918 340 905 340 888 C340 840 300 835 270 831 L273 799 C325 803 389 816 389 890 C389 924 374 948 349 965 C327 981 295 990 255 990 L235 990 L235 944 L255 944 C284 944 305 939 321 927 L321 927 Z M374 611 L444 611 L313 767 L245 767 L115 611 L184 611 L279 729 L374 611 Z M467 453 C437 519 365 551 273 551 C133 551 66 481 57 383 L140 383 C146 442 187 485 272 485 C363 485 405 436 406 359 L407 320 L240 320 C123 320 42 273 42 158 C42 54 116 -9 228 -9 C304 -9 360 23 397 87 L406 87 L406 0 L487 0 L487 334 C487 372 485 416 467 453 L467 453 Z M239 59 C168 59 125 97 125 158 C125 234 175 258 250 258 L406 258 C404 141 356 59 239 59 L239 59 Z " />
<glyph glyph-name="uni1EAA" unicode="&#x1eaa;" horiz-adv-x="680" d="M265 1170 C324 1171 325 1075 415 1075 C475 1075 514 1129 514 1215 L467 1215 C467 1159 445 1125 416 1125 C357 1125 351 1220 268 1219 C205 1220 165 1170 165 1084 L211 1084 C211 1138 232 1171 265 1170 L265 1170 Z M175 836 L245 836 L339 954 L434 836 L504 836 L373 992 L305 992 L175 836 Z M280 767 L13 17 L13 0 L99 0 L162 180 L518 180 L581 0 L666 0 L666 17 L400 767 L280 767 Z M335 677 L345 677 L491 258 L189 258 L335 677 Z " />
<glyph glyph-name="uni1EAB" unicode="&#x1eab;" horiz-adv-x="545" d="M204 945 C263 946 264 850 354 850 C414 850 453 904 453 990 L406 990 C406 934 384 900 355 900 C296 900 290 995 207 994 C144 995 104 945 104 859 L150 859 C150 913 171 946 204 945 L204 945 Z M114 611 L184 611 L278 729 L373 611 L443 611 L312 767 L244 767 L114 611 Z M467 453 C437 519 365 551 273 551 C133 551 66 481 57 383 L140 383 C146 442 187 485 272 485 C363 485 405 436 406 359 L407 320 L240 320 C123 320 42 273 42 158 C42 54 116 -9 228 -9 C304 -9 360 23 397 87 L406 87 L406 0 L487 0 L487 334 C487 372 485 416 467 453 L467 453 Z M239 59 C168 59 125 97 125 158 C125 234 175 258 250 258 L406 258 C404 141 356 59 239 59 L239 59 Z " />
<glyph glyph-name="uni1EAC" unicode="&#x1eac;" horiz-adv-x="680" d="M434 836 L504 836 L373 992 L305 992 L175 836 L244 836 L339 954 L434 836 Z M280 767 L13 17 L13 0 L99 0 L162 180 L518 180 L581 0 L666 0 L666 17 L400 767 L280 767 Z M335 677 L345 677 L491 258 L189 258 L335 677 Z M341 -75 C308 -75 284 -101 284 -132 C284 -163 308 -189 341 -189 C371 -189 397 -163 397 -132 C397 -101 371 -75 341 -75 L341 -75 Z " />
<glyph glyph-name="uni1EAD" unicode="&#x1ead;" horiz-adv-x="545" d="M374 611 L444 611 L313 767 L245 767 L115 611 L184 611 L279 729 L374 611 Z M467 453 C437 519 365 551 273 551 C133 551 66 481 57 383 L140 383 C146 442 187 485 272 485 C363 485 405 436 406 359 L407 320 L240 320 C123 320 42 273 42 158 C42 54 116 -9 228 -9 C304 -9 360 23 397 87 L406 87 L406 0 L487 0 L487 334 C487 372 485 416 467 453 L467 453 Z M239 59 C168 59 125 97 125 158 C125 234 175 258 250 258 L406 258 C404 141 356 59 239 59 L239 59 Z M280 -75 C247 -75 223 -101 223 -132 C223 -163 247 -189 280 -189 C310 -189 336 -163 336 -132 C336 -101 310 -75 280 -75 L280 -75 Z " />
<glyph glyph-name="uni1EAE" unicode="&#x1eae;" horiz-adv-x="680" d="M430 1217 L311 1061 L369 1061 L512 1217 L430 1217 Z M340 842 C448 842 506 897 506 992 L451 992 C451 922 409 889 340 889 C272 889 230 921 230 992 L174 992 C174 899 228 842 340 842 L340 842 Z M280 767 L13 17 L13 0 L99 0 L162 180 L518 180 L581 0 L666 0 L666 17 L400 767 L280 767 Z M335 677 L345 677 L491 258 L189 258 L335 677 Z " />
<glyph glyph-name="uni1EAF" unicode="&#x1eaf;" horiz-adv-x="545" d="M369 992 L250 836 L308 836 L451 992 L369 992 Z M279 617 C387 617 445 672 445 767 L390 767 C390 697 348 664 279 664 C211 664 169 696 169 767 L113 767 C113 674 167 617 279 617 L279 617 Z M467 453 C437 519 365 551 273 551 C133 551 66 481 57 383 L140 383 C146 442 187 485 272 485 C363 485 405 436 406 359 L407 320 L240 320 C123 320 42 273 42 158 C42 54 116 -9 228 -9 C304 -9 360 23 397 87 L406 87 L406 0 L487 0 L487 334 C487 372 485 416 467 453 L467 453 Z M239 59 C168 59 125 97 125 158 C125 234 175 258 250 258 L406 258 C404 141 356 59 239 59 L239 59 Z " />
<glyph glyph-name="uni1EB0" unicode="&#x1eb0;" horiz-adv-x="680" d="M255 1217 L173 1217 L310 1061 L370 1061 L255 1217 Z M174 992 C174 899 228 842 340 842 C448 842 506 897 506 992 L451 992 C451 922 409 889 340 889 C272 889 230 921 230 992 L174 992 Z M280 767 L13 17 L13 0 L99 0 L162 180 L518 180 L581 0 L666 0 L666 17 L400 767 L280 767 Z M335 677 L345 677 L491 258 L189 258 L335 677 Z " />
<glyph glyph-name="uni1EB1" unicode="&#x1eb1;" horiz-adv-x="545" d="M194 992 L112 992 L249 836 L309 836 L194 992 Z M113 767 C113 674 167 617 279 617 C387 617 445 672 445 767 L390 767 C390 697 348 664 279 664 C211 664 169 696 169 767 L113 767 Z M467 453 C437 519 365 551 273 551 C133 551 66 481 57 383 L140 383 C146 442 187 485 272 485 C363 485 405 436 406 359 L407 320 L240 320 C123 320 42 273 42 158 C42 54 116 -9 228 -9 C304 -9 360 23 397 87 L406 87 L406 0 L487 0 L487 334 C487 372 485 416 467 453 L467 453 Z M239 59 C168 59 125 97 125 158 C125 234 175 258 250 258 L406 258 C404 141 356 59 239 59 L239 59 Z " />
<glyph glyph-name="uni1EB2" unicode="&#x1eb2;" horiz-adv-x="680" d="M381 1154 C394 1144 400 1131 400 1114 C400 1067 361 1062 331 1058 L334 1026 C385 1029 450 1043 450 1117 C450 1151 434 1174 410 1192 C387 1208 356 1217 316 1217 L295 1217 L295 1171 L316 1171 C344 1171 366 1166 381 1154 L381 1154 Z M340 842 C448 842 506 897 506 992 L451 992 C451 922 409 889 340 889 C272 889 230 921 230 992 L174 992 C174 899 228 842 340 842 L340 842 Z M280 767 L13 17 L13 0 L99 0 L162 180 L518 180 L581 0 L666 0 L666 17 L400 767 L280 767 Z M335 677 L345 677 L491 258 L189 258 L335 677 Z " />
<glyph glyph-name="uni1EB3" unicode="&#x1eb3;" horiz-adv-x="545" d="M320 929 C333 919 339 906 339 889 C339 842 300 837 270 833 L273 801 C324 804 389 818 389 892 C389 926 373 949 349 967 C326 983 295 992 255 992 L234 992 L234 946 L255 946 C283 946 305 941 320 929 L320 929 Z M279 617 C387 617 445 672 445 767 L390 767 C390 697 348 664 279 664 C211 664 169 696 169 767 L113 767 C113 674 167 617 279 617 L279 617 Z M467 453 C437 519 365 551 273 551 C133 551 66 481 57 383 L140 383 C146 442 187 485 272 485 C363 485 405 436 406 359 L407 320 L240 320 C123 320 42 273 42 158 C42 54 116 -9 228 -9 C304 -9 360 23 397 87 L406 87 L406 0 L487 0 L487 334 C487 372 485 416 467 453 L467 453 Z M239 59 C168 59 125 97 125 158 C125 234 175 258 250 258 L406 258 C404 141 356 59 239 59 L239 59 Z " />
<glyph glyph-name="uni1EB4" unicode="&#x1eb4;" horiz-adv-x="680" d="M266 1172 C324 1173 326 1077 416 1077 C476 1077 515 1130 515 1217 L467 1217 C467 1161 445 1126 416 1126 C358 1126 351 1221 268 1221 C206 1221 166 1171 166 1086 L212 1086 C212 1140 232 1173 266 1172 L266 1172 Z M340 889 C272 889 230 921 230 992 L174 992 C174 899 228 842 340 842 C448 842 506 897 506 992 L451 992 C451 922 409 889 340 889 L340 889 Z M280 767 L13 17 L13 0 L99 0 L162 180 L518 180 L581 0 L666 0 L666 17 L400 767 L280 767 Z M335 677 L345 677 L491 258 L189 258 L335 677 Z " />
<glyph glyph-name="uni1EB5" unicode="&#x1eb5;" horiz-adv-x="545" d="M205 947 C263 948 265 852 355 852 C415 852 454 905 454 992 L406 992 C406 936 384 901 355 901 C297 901 290 996 207 996 C145 996 105 946 105 861 L151 861 C151 915 171 948 205 947 L205 947 Z M279 664 C211 664 169 696 169 767 L113 767 C113 674 167 617 279 617 C387 617 445 672 445 767 L390 767 C390 697 348 664 279 664 L279 664 Z M467 453 C437 519 365 551 273 551 C133 551 66 481 57 383 L140 383 C146 442 187 485 272 485 C363 485 405 436 406 359 L407 320 L240 320 C123 320 42 273 42 158 C42 54 116 -9 228 -9 C304 -9 360 23 397 87 L406 87 L406 0 L487 0 L487 334 C487 372 485 416 467 453 L467 453 Z M239 59 C168 59 125 97 125 158 C125 234 175 258 250 258 L406 258 C404 141 356 59 239 59 L239 59 Z " />
<glyph glyph-name="uni1EB6" unicode="&#x1eb6;" horiz-adv-x="680" d="M340 842 C448 842 506 897 506 992 L451 992 C451 922 409 889 340 889 C272 889 230 921 230 992 L174 992 C174 899 228 842 340 842 L340 842 Z M280 767 L13 17 L13 0 L99 0 L162 180 L518 180 L581 0 L666 0 L666 17 L400 767 L280 767 Z M335 677 L345 677 L491 258 L189 258 L335 677 Z M341 -75 C308 -75 284 -101 284 -132 C284 -163 308 -189 341 -189 C371 -189 397 -163 397 -132 C397 -101 371 -75 341 -75 L341 -75 Z " />
<glyph glyph-name="uni1EB7" unicode="&#x1eb7;" horiz-adv-x="545" d="M279 617 C387 617 445 672 445 767 L390 767 C390 697 348 664 279 664 C211 664 169 696 169 767 L113 767 C113 674 167 617 279 617 L279 617 Z M467 453 C437 519 365 551 273 551 C133 551 66 481 57 383 L140 383 C146 442 187 485 272 485 C363 485 405 436 406 359 L407 320 L240 320 C123 320 42 273 42 158 C42 54 116 -9 228 -9 C304 -9 360 23 397 87 L406 87 L406 0 L487 0 L487 334 C487 372 485 416 467 453 L467 453 Z M239 59 C168 59 125 97 125 158 C125 234 175 258 250 258 L406 258 C404 141 356 59 239 59 L239 59 Z M280 -75 C247 -75 223 -101 223 -132 C223 -163 247 -189 280 -189 C310 -189 336 -163 336 -132 C336 -101 310 -75 280 -75 L280 -75 Z " />
<glyph glyph-name="uni1EB8" unicode="&#x1eb8;" horiz-adv-x="601" d="M572 0 L572 78 L155 78 L155 357 L509 357 L509 434 L155 434 L155 689 L550 689 L550 767 L69 767 L69 0 L572 0 Z M321 -189 C351 -189 377 -163 377 -132 C377 -101 351 -75 321 -75 C288 -75 264 -101 264 -132 C264 -163 288 -189 321 -189 L321 -189 Z " />
<glyph glyph-name="uni1EB9" unicode="&#x1eb9;" horiz-adv-x="603" d="M565 280 C562 449 454 551 303 551 C151 551 40 449 40 271 C40 93 151 -9 303 -9 C420 -9 513 54 549 163 L461 163 C434 99 377 62 303 62 C199 62 127 132 122 258 L564 258 L565 280 Z M303 480 C396 480 463 422 480 320 L126 320 C141 423 209 480 303 480 L303 480 Z M304 -75 C271 -75 247 -101 247 -132 C247 -163 271 -189 304 -189 C334 -189 360 -163 360 -132 C360 -101 334 -75 304 -75 L304 -75 Z " />
<glyph glyph-name="uni1EBA" unicode="&#x1eba;" horiz-adv-x="601" d="M313 801 C365 804 430 818 430 892 C430 926 414 949 390 967 C367 983 336 992 296 992 L275 992 L275 946 L296 946 C324 946 346 941 361 929 C374 919 380 906 380 889 C380 842 341 837 310 833 L313 801 Z M572 0 L572 78 L155 78 L155 357 L509 357 L509 434 L155 434 L155 689 L550 689 L550 767 L69 767 L69 0 L572 0 Z " />
<glyph glyph-name="uni1EBB" unicode="&#x1ebb;" horiz-adv-x="603" d="M344 704 C357 694 363 681 363 664 C363 617 324 612 293 608 L296 576 C348 579 413 593 413 667 C413 701 397 724 373 742 C350 758 319 767 279 767 L258 767 L258 721 L279 721 C307 721 329 716 344 704 L344 704 Z M565 280 C562 449 454 551 303 551 C151 551 40 449 40 271 C40 93 151 -9 303 -9 C420 -9 513 54 549 163 L461 163 C434 99 377 62 303 62 C199 62 127 132 122 258 L564 258 L565 280 Z M303 480 C396 480 463 422 480 320 L126 320 C141 423 209 480 303 480 L303 480 Z " />
<glyph glyph-name="uni1EBC" unicode="&#x1ebc;" horiz-adv-x="601" d="M396 852 C456 852 495 905 495 992 L448 992 C448 936 426 901 397 901 C338 901 332 996 249 996 C186 996 146 946 146 861 L192 861 C192 915 213 948 246 947 C305 948 306 852 396 852 L396 852 Z M572 0 L572 78 L155 78 L155 357 L509 357 L509 434 L155 434 L155 689 L550 689 L550 767 L69 767 L69 0 L572 0 Z " />
<glyph glyph-name="uni1EBD" unicode="&#x1ebd;" horiz-adv-x="603" d="M228 722 C287 723 288 627 378 627 C438 627 477 680 477 767 L430 767 C430 711 408 676 379 676 C320 676 314 771 231 771 C168 771 128 721 128 636 L174 636 C174 690 195 723 228 722 L228 722 Z M565 280 C562 449 454 551 303 551 C151 551 40 449 40 271 C40 93 151 -9 303 -9 C420 -9 513 54 549 163 L461 163 C434 99 377 62 303 62 C199 62 127 132 122 258 L564 258 L565 280 Z M303 480 C396 480 463 422 480 320 L126 320 C141 423 209 480 303 480 L303 480 Z " />
<glyph glyph-name="uni1EBE" unicode="&#x1ebe;" horiz-adv-x="601" d="M410 1215 L291 1060 L349 1060 L492 1215 L410 1215 Z M415 836 L485 836 L354 992 L286 992 L156 836 L225 836 L320 954 L415 836 Z M155 357 L509 357 L509 434 L155 434 L155 689 L550 689 L550 767 L69 767 L69 0 L572 0 L572 78 L155 78 L155 357 Z " />
<glyph glyph-name="uni1EBF" unicode="&#x1ebf;" horiz-adv-x="603" d="M393 990 L274 835 L332 835 L475 990 L393 990 Z M398 611 L468 611 L337 767 L269 767 L139 611 L208 611 L303 729 L398 611 Z M565 280 C562 449 454 551 303 551 C151 551 40 449 40 271 C40 93 151 -9 303 -9 C420 -9 513 54 549 163 L461 163 C434 99 377 62 303 62 C199 62 127 132 122 258 L564 258 L565 280 Z M303 480 C396 480 463 422 480 320 L126 320 C141 423 209 480 303 480 L303 480 Z " />
<glyph glyph-name="uni1EC0" unicode="&#x1ec0;" horiz-adv-x="601" d="M235 1215 L153 1215 L291 1060 L350 1060 L235 1215 Z M225 836 L320 954 L415 836 L485 836 L354 992 L286 992 L156 836 L225 836 Z M155 357 L509 357 L509 434 L155 434 L155 689 L550 689 L550 767 L69 767 L69 0 L572 0 L572 78 L155 78 L155 357 Z " />
<glyph glyph-name="uni1EC1" unicode="&#x1ec1;" horiz-adv-x="603" d="M218 990 L136 990 L274 835 L333 835 L218 990 Z M208 611 L303 729 L398 611 L468 611 L337 767 L269 767 L139 611 L208 611 Z M565 280 C562 449 454 551 303 551 C151 551 40 449 40 271 C40 93 151 -9 303 -9 C420 -9 513 54 549 163 L461 163 C434 99 377 62 303 62 C199 62 127 132 122 258 L564 258 L565 280 Z M303 480 C396 480 463 422 480 320 L126 320 C141 423 209 480 303 480 L303 480 Z " />
<glyph glyph-name="uni1EC2" unicode="&#x1ec2;" horiz-adv-x="601" d="M362 1152 C375 1143 381 1130 381 1113 C381 1065 341 1060 311 1056 L314 1024 C366 1028 430 1041 430 1115 C430 1149 415 1173 390 1190 C368 1206 336 1215 296 1215 L276 1215 L276 1169 L296 1169 C325 1169 346 1164 362 1152 L362 1152 Z M415 836 L485 836 L354 992 L286 992 L156 836 L225 836 L320 954 L415 836 Z M155 357 L509 357 L509 434 L155 434 L155 689 L550 689 L550 767 L69 767 L69 0 L572 0 L572 78 L155 78 L155 357 Z " />
<glyph glyph-name="uni1EC3" unicode="&#x1ec3;" horiz-adv-x="603" d="M345 927 C358 918 364 905 364 888 C364 840 324 835 294 831 L297 799 C349 803 413 816 413 890 C413 924 398 948 373 965 C351 981 319 990 279 990 L259 990 L259 944 L279 944 C308 944 329 939 345 927 L345 927 Z M398 611 L468 611 L337 767 L269 767 L139 611 L208 611 L303 729 L398 611 Z M565 280 C562 449 454 551 303 551 C151 551 40 449 40 271 C40 93 151 -9 303 -9 C420 -9 513 54 549 163 L461 163 C434 99 377 62 303 62 C199 62 127 132 122 258 L564 258 L565 280 Z M303 480 C396 480 463 422 480 320 L126 320 C141 423 209 480 303 480 L303 480 Z " />
<glyph glyph-name="uni1EC4" unicode="&#x1ec4;" horiz-adv-x="601" d="M246 1170 C305 1171 306 1075 396 1075 C456 1075 495 1129 495 1215 L448 1215 C448 1159 426 1125 397 1125 C338 1125 332 1220 249 1219 C186 1220 146 1170 146 1084 L192 1084 C192 1138 213 1171 246 1170 L246 1170 Z M156 836 L226 836 L320 954 L415 836 L485 836 L354 992 L286 992 L156 836 Z M155 357 L509 357 L509 434 L155 434 L155 689 L550 689 L550 767 L69 767 L69 0 L572 0 L572 78 L155 78 L155 357 Z " />
<glyph glyph-name="uni1EC5" unicode="&#x1ec5;" horiz-adv-x="603" d="M228 945 C287 946 288 850 378 850 C438 850 477 904 477 990 L430 990 C430 934 408 900 379 900 C320 900 314 995 231 994 C168 995 128 945 128 859 L174 859 C174 913 195 946 228 945 L228 945 Z M138 611 L208 611 L302 729 L397 611 L467 611 L336 767 L268 767 L138 611 Z M565 280 C562 449 454 551 303 551 C151 551 40 449 40 271 C40 93 151 -9 303 -9 C420 -9 513 54 549 163 L461 163 C434 99 377 62 303 62 C199 62 127 132 122 258 L564 258 L565 280 Z M303 480 C396 480 463 422 480 320 L126 320 C141 423 209 480 303 480 L303 480 Z " />
<glyph glyph-name="uni1EC6" unicode="&#x1ec6;" horiz-adv-x="601" d="M415 836 L485 836 L354 992 L286 992 L156 836 L225 836 L320 954 L415 836 Z M155 357 L509 357 L509 434 L155 434 L155 689 L550 689 L550 767 L69 767 L69 0 L572 0 L572 78 L155 78 L155 357 Z M321 -75 C288 -75 264 -101 264 -132 C264 -163 288 -189 321 -189 C351 -189 377 -163 377 -132 C377 -101 351 -75 321 -75 L321 -75 Z " />
<glyph glyph-name="uni1EC7" unicode="&#x1ec7;" horiz-adv-x="603" d="M398 611 L468 611 L337 767 L269 767 L139 611 L208 611 L303 729 L398 611 Z M565 280 C562 449 454 551 303 551 C151 551 40 449 40 271 C40 93 151 -9 303 -9 C420 -9 513 54 549 163 L461 163 C434 99 377 62 303 62 C199 62 127 132 122 258 L564 258 L565 280 Z M303 480 C396 480 463 422 480 320 L126 320 C141 423 209 480 303 480 L303 480 Z M304 -75 C271 -75 247 -101 247 -132 C247 -163 271 -189 304 -189 C334 -189 360 -163 360 -132 C360 -101 334 -75 304 -75 L304 -75 Z " />
<glyph glyph-name="uni1EC8" unicode="&#x1ec8;" horiz-adv-x="224" d="M105 801 C157 804 222 818 222 892 C222 926 206 949 182 967 C159 983 128 992 88 992 L67 992 L67 946 L88 946 C116 946 138 941 153 929 C166 919 172 906 172 889 C172 842 133 837 102 833 L105 801 Z M155 0 L155 767 L69 767 L69 0 L155 0 Z " />
<glyph glyph-name="uni1EC9" unicode="&#x1ec9;" horiz-adv-x="205" d="M95 576 C147 579 212 593 212 667 C212 701 196 724 172 742 C149 758 118 767 78 767 L57 767 L57 721 L78 721 C106 721 128 716 143 704 C156 694 162 681 162 664 C162 617 123 612 92 608 L95 576 Z M143 0 L143 542 L61 542 L61 0 L143 0 Z " />
<glyph glyph-name="uni1ECA" unicode="&#x1eca;" horiz-adv-x="224" d="M155 0 L155 767 L69 767 L69 0 L155 0 Z M112 -189 C142 -189 168 -163 168 -132 C168 -101 142 -75 112 -75 C79 -75 55 -101 55 -132 C55 -163 79 -189 112 -189 L112 -189 Z " />
<glyph glyph-name="uni1ECB" unicode="&#x1ecb;" horiz-adv-x="205" d="M102 664 C132 664 158 690 158 722 C158 753 132 778 102 778 C69 778 45 753 45 722 C45 690 69 664 102 664 L102 664 Z M143 0 L143 542 L61 542 L61 0 L143 0 Z M102 -189 C132 -189 158 -163 158 -132 C158 -101 132 -75 102 -75 C69 -75 45 -101 45 -132 C45 -163 69 -189 102 -189 L102 -189 Z " />
<glyph glyph-name="uni1ECC" unicode="&#x1ecc;" horiz-adv-x="787" d="M393 -9 C605 -9 746 148 746 384 C746 619 605 776 393 776 C181 776 40 619 40 384 C40 148 181 -9 393 -9 L393 -9 Z M393 69 C233 69 127 195 127 384 C127 573 233 698 393 698 C553 698 660 573 660 384 C660 195 553 69 393 69 L393 69 Z M394 -189 C424 -189 450 -163 450 -132 C450 -101 424 -75 394 -75 C361 -75 337 -101 337 -132 C337 -163 361 -189 394 -189 L394 -189 Z " />
<glyph glyph-name="uni1ECD" unicode="&#x1ecd;" horiz-adv-x="606" d="M303 -9 C454 -9 565 93 565 271 C565 449 454 551 303 551 C151 551 40 449 40 271 C40 93 151 -9 303 -9 L303 -9 Z M303 62 C195 62 122 137 122 271 C122 405 195 480 303 480 C410 480 483 405 483 271 C483 137 410 62 303 62 L303 62 Z M303 -189 C333 -189 359 -163 359 -132 C359 -101 333 -75 303 -75 C270 -75 246 -101 246 -132 C246 -163 270 -189 303 -189 L303 -189 Z " />
<glyph glyph-name="uni1ECE" unicode="&#x1ece;" horiz-adv-x="787" d="M386 801 C438 804 503 818 503 892 C503 926 487 949 463 967 C440 983 409 992 369 992 L348 992 L348 946 L369 946 C397 946 419 941 434 929 C447 919 453 906 453 889 C453 842 414 837 383 833 L386 801 Z M393 -9 C605 -9 746 148 746 384 C746 619 605 776 393 776 C181 776 40 619 40 384 C40 148 181 -9 393 -9 L393 -9 Z M393 69 C233 69 127 195 127 384 C127 573 233 698 393 698 C553 698 660 573 660 384 C660 195 553 69 393 69 L393 69 Z " />
<glyph glyph-name="uni1ECF" unicode="&#x1ecf;" horiz-adv-x="606" d="M296 576 C348 579 413 593 413 667 C413 701 397 724 373 742 C350 758 319 767 279 767 L258 767 L258 721 L279 721 C307 721 329 716 344 704 C357 694 363 681 363 664 C363 617 324 612 293 608 L296 576 Z M303 -9 C454 -9 565 93 565 271 C565 449 454 551 303 551 C151 551 40 449 40 271 C40 93 151 -9 303 -9 L303 -9 Z M303 62 C195 62 122 137 122 271 C122 405 195 480 303 480 C410 480 483 405 483 271 C483 137 410 62 303 62 L303 62 Z " />
<glyph glyph-name="uni1ED0" unicode="&#x1ed0;" horiz-adv-x="787" d="M483 1215 L364 1060 L422 1060 L565 1215 L483 1215 Z M488 836 L558 836 L427 992 L359 992 L229 836 L298 836 L393 954 L488 836 Z M393 776 C181 776 40 619 40 384 C40 148 181 -9 393 -9 C605 -9 746 148 746 384 C746 619 605 776 393 776 L393 776 Z M393 69 C233 69 127 195 127 384 C127 573 233 698 393 698 C553 698 660 573 660 384 C660 195 553 69 393 69 L393 69 Z " />
<glyph glyph-name="uni1ED1" unicode="&#x1ed1;" horiz-adv-x="606" d="M392 990 L273 835 L331 835 L474 990 L392 990 Z M397 611 L467 611 L336 767 L268 767 L138 611 L207 611 L302 729 L397 611 Z M303 551 C151 551 40 449 40 271 C40 93 151 -9 303 -9 C454 -9 565 93 565 271 C565 449 454 551 303 551 L303 551 Z M303 62 C195 62 122 137 122 271 C122 405 195 480 303 480 C410 480 483 405 483 271 C483 137 410 62 303 62 L303 62 Z " />
<glyph glyph-name="uni1ED2" unicode="&#x1ed2;" horiz-adv-x="787" d="M308 1215 L226 1215 L364 1060 L423 1060 L308 1215 Z M298 836 L393 954 L488 836 L558 836 L427 992 L359 992 L229 836 L298 836 Z M393 776 C181 776 40 619 40 384 C40 148 181 -9 393 -9 C605 -9 746 148 746 384 C746 619 605 776 393 776 L393 776 Z M393 69 C233 69 127 195 127 384 C127 573 233 698 393 698 C553 698 660 573 660 384 C660 195 553 69 393 69 L393 69 Z " />
<glyph glyph-name="uni1ED3" unicode="&#x1ed3;" horiz-adv-x="606" d="M217 990 L135 990 L273 835 L332 835 L217 990 Z M207 611 L302 729 L397 611 L467 611 L336 767 L268 767 L138 611 L207 611 Z M303 551 C151 551 40 449 40 271 C40 93 151 -9 303 -9 C454 -9 565 93 565 271 C565 449 454 551 303 551 L303 551 Z M303 62 C195 62 122 137 122 271 C122 405 195 480 303 480 C410 480 483 405 483 271 C483 137 410 62 303 62 L303 62 Z " />
<glyph glyph-name="uni1ED4" unicode="&#x1ed4;" horiz-adv-x="787" d="M435 1152 C448 1143 454 1130 454 1113 C454 1065 414 1060 384 1056 L387 1024 C439 1028 503 1041 503 1115 C503 1149 488 1173 463 1190 C441 1206 409 1215 369 1215 L349 1215 L349 1169 L369 1169 C398 1169 419 1164 435 1152 L435 1152 Z M488 836 L558 836 L427 992 L359 992 L229 836 L298 836 L393 954 L488 836 Z M393 776 C181 776 40 619 40 384 C40 148 181 -9 393 -9 C605 -9 746 148 746 384 C746 619 605 776 393 776 L393 776 Z M393 69 C233 69 127 195 127 384 C127 573 233 698 393 698 C553 698 660 573 660 384 C660 195 553 69 393 69 L393 69 Z " />
<glyph glyph-name="uni1ED5" unicode="&#x1ed5;" horiz-adv-x="606" d="M344 927 C357 918 363 905 363 888 C363 840 323 835 293 831 L296 799 C348 803 412 816 412 890 C412 924 397 948 372 965 C350 981 318 990 278 990 L258 990 L258 944 L278 944 C307 944 328 939 344 927 L344 927 Z M397 611 L467 611 L336 767 L268 767 L138 611 L207 611 L302 729 L397 611 Z M303 551 C151 551 40 449 40 271 C40 93 151 -9 303 -9 C454 -9 565 93 565 271 C565 449 454 551 303 551 L303 551 Z M303 62 C195 62 122 137 122 271 C122 405 195 480 303 480 C410 480 483 405 483 271 C483 137 410 62 303 62 L303 62 Z " />
<glyph glyph-name="uni1ED6" unicode="&#x1ed6;" horiz-adv-x="787" d="M318 1170 C377 1171 378 1075 468 1075 C528 1075 567 1129 567 1215 L520 1215 C520 1159 498 1125 469 1125 C410 1125 404 1220 321 1219 C258 1220 218 1170 218 1084 L264 1084 C264 1138 285 1171 318 1170 L318 1170 Z M228 836 L298 836 L392 954 L487 836 L557 836 L426 992 L358 992 L228 836 Z M393 776 C181 776 40 619 40 384 C40 148 181 -9 393 -9 C605 -9 746 148 746 384 C746 619 605 776 393 776 L393 776 Z M393 69 C233 69 127 195 127 384 C127 573 233 698 393 698 C553 698 660 573 660 384 C660 195 553 69 393 69 L393 69 Z " />
<glyph glyph-name="uni1ED7" unicode="&#x1ed7;" horiz-adv-x="606" d="M228 945 C287 946 288 850 378 850 C438 850 477 904 477 990 L430 990 C430 934 408 900 379 900 C320 900 314 995 231 994 C168 995 128 945 128 859 L174 859 C174 913 195 946 228 945 L228 945 Z M138 611 L208 611 L302 729 L397 611 L467 611 L336 767 L268 767 L138 611 Z M303 551 C151 551 40 449 40 271 C40 93 151 -9 303 -9 C454 -9 565 93 565 271 C565 449 454 551 303 551 L303 551 Z M303 62 C195 62 122 137 122 271 C122 405 195 480 303 480 C410 480 483 405 483 271 C483 137 410 62 303 62 L303 62 Z " />
<glyph glyph-name="uni1ED8" unicode="&#x1ed8;" horiz-adv-x="787" d="M488 836 L558 836 L427 992 L359 992 L229 836 L298 836 L393 954 L488 836 Z M393 776 C181 776 40 619 40 384 C40 148 181 -9 393 -9 C605 -9 746 148 746 384 C746 619 605 776 393 776 L393 776 Z M393 69 C233 69 127 195 127 384 C127 573 233 698 393 698 C553 698 660 573 660 384 C660 195 553 69 393 69 L393 69 Z M394 -75 C361 -75 337 -101 337 -132 C337 -163 361 -189 394 -189 C424 -189 450 -163 450 -132 C450 -101 424 -75 394 -75 L394 -75 Z " />
<glyph glyph-name="uni1ED9" unicode="&#x1ed9;" horiz-adv-x="606" d="M397 611 L467 611 L336 767 L268 767 L138 611 L207 611 L302 729 L397 611 Z M303 551 C151 551 40 449 40 271 C40 93 151 -9 303 -9 C454 -9 565 93 565 271 C565 449 454 551 303 551 L303 551 Z M303 62 C195 62 122 137 122 271 C122 405 195 480 303 480 C410 480 483 405 483 271 C483 137 410 62 303 62 L303 62 Z M303 -75 C270 -75 246 -101 246 -132 C246 -163 270 -189 303 -189 C333 -189 359 -163 359 -132 C359 -101 333 -75 303 -75 L303 -75 Z " />
<glyph glyph-name="uni1EDA" unicode="&#x1eda;" horiz-adv-x="787" d="M483 992 L364 836 L422 836 L565 992 L483 992 Z M745 786 C745 711 727 669 652 664 C590 735 501 776 393 776 C181 776 40 619 40 384 C40 148 181 -9 393 -9 C605 -9 746 148 746 384 C746 472 726 549 690 612 C778 625 810 677 810 786 L810 845 L745 845 L745 786 Z M393 69 C233 69 127 195 127 384 C127 573 233 698 393 698 C553 698 660 573 660 384 C660 195 553 69 393 69 L393 69 Z " />
<glyph glyph-name="uni1EDB" unicode="&#x1edb;" horiz-adv-x="606" d="M393 767 L274 611 L332 611 L475 767 L393 767 Z M569 576 C569 512 556 473 507 459 C460 519 388 551 303 551 C151 551 40 449 40 271 C40 93 151 -9 303 -9 C454 -9 565 93 565 271 C565 323 556 368 538 407 C608 426 634 478 634 576 L634 635 L569 635 L569 576 Z M303 62 C195 62 122 137 122 271 C122 405 195 480 303 480 C410 480 483 405 483 271 C483 137 410 62 303 62 L303 62 Z " />
<glyph glyph-name="uni1EDC" unicode="&#x1edc;" horiz-adv-x="787" d="M308 992 L226 992 L363 836 L423 836 L308 992 Z M745 786 C745 711 727 669 652 664 C590 735 501 776 393 776 C181 776 40 619 40 384 C40 148 181 -9 393 -9 C605 -9 746 148 746 384 C746 472 726 549 690 612 C778 625 810 677 810 786 L810 845 L745 845 L745 786 Z M393 69 C233 69 127 195 127 384 C127 573 233 698 393 698 C553 698 660 573 660 384 C660 195 553 69 393 69 L393 69 Z " />
<glyph glyph-name="uni1EDD" unicode="&#x1edd;" horiz-adv-x="606" d="M217 767 L135 767 L272 611 L332 611 L217 767 Z M569 576 C569 512 556 473 507 459 C460 519 388 551 303 551 C151 551 40 449 40 271 C40 93 151 -9 303 -9 C454 -9 565 93 565 271 C565 323 556 368 538 407 C608 426 634 478 634 576 L634 635 L569 635 L569 576 Z M303 62 C195 62 122 137 122 271 C122 405 195 480 303 480 C410 480 483 405 483 271 C483 137 410 62 303 62 L303 62 Z " />
<glyph glyph-name="uni1EDE" unicode="&#x1ede;" horiz-adv-x="787" d="M434 929 C447 919 453 906 453 889 C453 842 414 837 383 833 L386 801 C438 804 503 818 503 892 C503 926 487 949 463 967 C440 983 409 992 369 992 L348 992 L348 946 L369 946 C397 946 419 941 434 929 L434 929 Z M745 786 C745 711 727 669 652 664 C590 735 501 776 393 776 C181 776 40 619 40 384 C40 148 181 -9 393 -9 C605 -9 746 148 746 384 C746 472 726 549 690 612 C778 625 810 677 810 786 L810 845 L745 845 L745 786 Z M393 69 C233 69 127 195 127 384 C127 573 233 698 393 698 C553 698 660 573 660 384 C660 195 553 69 393 69 L393 69 Z " />
<glyph glyph-name="uni1EDF" unicode="&#x1edf;" horiz-adv-x="606" d="M344 704 C357 694 363 681 363 664 C363 617 324 612 293 608 L296 576 C348 579 413 593 413 667 C413 701 397 724 373 742 C350 758 319 767 279 767 L258 767 L258 721 L279 721 C307 721 329 716 344 704 L344 704 Z M569 576 C569 512 556 473 507 459 C460 519 388 551 303 551 C151 551 40 449 40 271 C40 93 151 -9 303 -9 C454 -9 565 93 565 271 C565 323 556 368 538 407 C608 426 634 478 634 576 L634 635 L569 635 L569 576 Z M303 62 C195 62 122 137 122 271 C122 405 195 480 303 480 C410 480 483 405 483 271 C483 137 410 62 303 62 L303 62 Z " />
<glyph glyph-name="uni1EE0" unicode="&#x1ee0;" horiz-adv-x="787" d="M318 947 C377 948 378 852 468 852 C528 852 567 905 567 992 L520 992 C520 936 498 901 469 901 C410 901 404 996 321 996 C258 996 218 946 218 861 L264 861 C264 915 285 948 318 947 L318 947 Z M745 786 C745 711 727 669 652 664 C590 735 501 776 393 776 C181 776 40 619 40 384 C40 148 181 -9 393 -9 C605 -9 746 148 746 384 C746 472 726 549 690 612 C778 625 810 677 810 786 L810 845 L745 845 L745 786 Z M393 69 C233 69 127 195 127 384 C127 573 233 698 393 698 C553 698 660 573 660 384 C660 195 553 69 393 69 L393 69 Z " />
<glyph glyph-name="uni1EE1" unicode="&#x1ee1;" horiz-adv-x="606" d="M228 722 C287 723 288 627 378 627 C438 627 477 680 477 767 L430 767 C430 711 408 676 379 676 C320 676 314 771 231 771 C168 771 128 721 128 636 L174 636 C174 690 195 723 228 722 L228 722 Z M569 576 C569 512 556 473 507 459 C460 519 388 551 303 551 C151 551 40 449 40 271 C40 93 151 -9 303 -9 C454 -9 565 93 565 271 C565 323 556 368 538 407 C608 426 634 478 634 576 L634 635 L569 635 L569 576 Z M303 62 C195 62 122 137 122 271 C122 405 195 480 303 480 C410 480 483 405 483 271 C483 137 410 62 303 62 L303 62 Z " />
<glyph glyph-name="uni1EE2" unicode="&#x1ee2;" horiz-adv-x="787" d="M745 786 C745 711 727 669 652 664 C590 735 501 776 393 776 C181 776 40 619 40 384 C40 148 181 -9 393 -9 C605 -9 746 148 746 384 C746 472 726 549 690 612 C778 625 810 677 810 786 L810 845 L745 845 L745 786 Z M393 69 C233 69 127 195 127 384 C127 573 233 698 393 698 C553 698 660 573 660 384 C660 195 553 69 393 69 L393 69 Z M394 -75 C361 -75 337 -101 337 -132 C337 -163 361 -189 394 -189 C424 -189 450 -163 450 -132 C450 -101 424 -75 394 -75 L394 -75 Z " />
<glyph glyph-name="uni1EE3" unicode="&#x1ee3;" horiz-adv-x="606" d="M569 576 C569 512 556 473 507 459 C460 519 388 551 303 551 C151 551 40 449 40 271 C40 93 151 -9 303 -9 C454 -9 565 93 565 271 C565 323 556 368 538 407 C608 426 634 478 634 576 L634 635 L569 635 L569 576 Z M303 62 C195 62 122 137 122 271 C122 405 195 480 303 480 C410 480 483 405 483 271 C483 137 410 62 303 62 L303 62 Z M303 -75 C270 -75 246 -101 246 -132 C246 -163 270 -189 303 -189 C333 -189 359 -163 359 -132 C359 -101 333 -75 303 -75 L303 -75 Z " />
<glyph glyph-name="uni1EE4" unicode="&#x1ee4;" horiz-adv-x="681" d="M340 -9 C530 -9 618 81 618 254 L618 767 L532 767 L532 259 C532 140 482 69 340 69 C201 69 149 136 149 259 L149 767 L62 767 L62 254 C62 84 148 -9 340 -9 L340 -9 Z M341 -189 C371 -189 397 -163 397 -132 C397 -101 371 -75 341 -75 C308 -75 284 -101 284 -132 C284 -163 308 -189 341 -189 L341 -189 Z " />
<glyph glyph-name="uni1EE5" unicode="&#x1ee5;" horiz-adv-x="561" d="M252 -9 C325 -9 378 24 409 69 L417 69 L417 0 L499 0 L499 542 L417 542 L417 248 C417 207 414 170 401 144 C381 95 336 66 276 66 C173 66 137 129 137 243 L137 542 L55 542 L55 224 C55 75 121 -9 252 -9 L252 -9 Z M277 -189 C307 -189 333 -163 333 -132 C333 -101 307 -75 277 -75 C244 -75 220 -101 220 -132 C220 -163 244 -189 277 -189 L277 -189 Z " />
<glyph glyph-name="uni1EE6" unicode="&#x1ee6;" horiz-adv-x="681" d="M333 801 C385 804 450 818 450 892 C450 926 434 949 410 967 C387 983 356 992 316 992 L295 992 L295 946 L316 946 C344 946 366 941 381 929 C394 919 400 906 400 889 C400 842 361 837 330 833 L333 801 Z M340 -9 C530 -9 618 81 618 254 L618 767 L532 767 L532 259 C532 140 482 69 340 69 C201 69 149 136 149 259 L149 767 L62 767 L62 254 C62 84 148 -9 340 -9 L340 -9 Z " />
<glyph glyph-name="uni1EE7" unicode="&#x1ee7;" horiz-adv-x="561" d="M269 576 C321 579 386 593 386 667 C386 701 370 724 346 742 C323 758 292 767 252 767 L231 767 L231 721 L252 721 C280 721 302 716 317 704 C330 694 336 681 336 664 C336 617 297 612 266 608 L269 576 Z M252 -9 C325 -9 378 24 409 69 L417 69 L417 0 L499 0 L499 542 L417 542 L417 248 C417 207 414 170 401 144 C381 95 336 66 276 66 C173 66 137 129 137 243 L137 542 L55 542 L55 224 C55 75 121 -9 252 -9 L252 -9 Z " />
<glyph glyph-name="uni1EE8" unicode="&#x1ee8;" horiz-adv-x="681" d="M430 992 L311 836 L369 836 L512 992 L430 992 Z M700 794 C700 723 684 681 618 673 L618 767 L532 767 L532 259 C532 140 482 69 340 69 C201 69 149 136 149 259 L149 767 L62 767 L62 254 C62 84 148 -9 340 -9 C530 -9 618 81 618 254 L618 617 C726 623 765 674 765 794 L765 853 L700 853 L700 794 Z " />
<glyph glyph-name="uni1EE9" unicode="&#x1ee9;" horiz-adv-x="561" d="M366 767 L247 611 L305 611 L448 767 L366 767 Z M576 664 C576 584 556 542 468 542 L417 542 L417 248 C417 207 414 170 401 144 C381 95 336 66 276 66 C173 66 137 129 137 243 L137 542 L55 542 L55 224 C55 75 121 -9 252 -9 C325 -9 378 24 409 69 L417 69 L417 0 L499 0 L499 487 C603 495 641 546 641 664 L641 723 L576 723 L576 664 Z " />
<glyph glyph-name="uni1EEA" unicode="&#x1eea;" horiz-adv-x="681" d="M255 992 L173 992 L310 836 L370 836 L255 992 Z M700 794 C700 723 684 681 618 673 L618 767 L532 767 L532 259 C532 140 482 69 340 69 C201 69 149 136 149 259 L149 767 L62 767 L62 254 C62 84 148 -9 340 -9 C530 -9 618 81 618 254 L618 617 C726 623 765 674 765 794 L765 853 L700 853 L700 794 Z " />
<glyph glyph-name="uni1EEB" unicode="&#x1eeb;" horiz-adv-x="561" d="M191 767 L109 767 L246 611 L306 611 L191 767 Z M576 664 C576 584 556 542 468 542 L417 542 L417 248 C417 207 414 170 401 144 C381 95 336 66 276 66 C173 66 137 129 137 243 L137 542 L55 542 L55 224 C55 75 121 -9 252 -9 C325 -9 378 24 409 69 L417 69 L417 0 L499 0 L499 487 C603 495 641 546 641 664 L641 723 L576 723 L576 664 Z " />
<glyph glyph-name="uni1EEC" unicode="&#x1eec;" horiz-adv-x="681" d="M381 929 C394 919 400 906 400 889 C400 842 361 837 330 833 L333 801 C385 804 450 818 450 892 C450 926 434 949 410 967 C387 983 356 992 316 992 L295 992 L295 946 L316 946 C344 946 366 941 381 929 L381 929 Z M700 794 C700 723 684 681 618 673 L618 767 L532 767 L532 259 C532 140 482 69 340 69 C201 69 149 136 149 259 L149 767 L62 767 L62 254 C62 84 148 -9 340 -9 C530 -9 618 81 618 254 L618 617 C726 623 765 674 765 794 L765 853 L700 853 L700 794 Z " />
<glyph glyph-name="uni1EED" unicode="&#x1eed;" horiz-adv-x="561" d="M317 704 C330 694 336 681 336 664 C336 617 297 612 266 608 L269 576 C321 579 386 593 386 667 C386 701 370 724 346 742 C323 758 292 767 252 767 L231 767 L231 721 L252 721 C280 721 302 716 317 704 L317 704 Z M576 664 C576 584 556 542 468 542 L417 542 L417 248 C417 207 414 170 401 144 C381 95 336 66 276 66 C173 66 137 129 137 243 L137 542 L55 542 L55 224 C55 75 121 -9 252 -9 C325 -9 378 24 409 69 L417 69 L417 0 L499 0 L499 487 C603 495 641 546 641 664 L641 723 L576 723 L576 664 Z " />
<glyph glyph-name="uni1EEE" unicode="&#x1eee;" horiz-adv-x="681" d="M265 947 C324 948 325 852 415 852 C475 852 514 905 514 992 L467 992 C467 936 445 901 416 901 C357 901 351 996 268 996 C205 996 165 946 165 861 L211 861 C211 915 232 948 265 947 L265 947 Z M700 794 C700 723 684 681 618 673 L618 767 L532 767 L532 259 C532 140 482 69 340 69 C201 69 149 136 149 259 L149 767 L62 767 L62 254 C62 84 148 -9 340 -9 C530 -9 618 81 618 254 L618 617 C726 623 765 674 765 794 L765 853 L700 853 L700 794 Z " />
<glyph glyph-name="uni1EEF" unicode="&#x1eef;" horiz-adv-x="561" d="M201 722 C260 723 261 627 351 627 C411 627 450 680 450 767 L403 767 C403 711 381 676 352 676 C293 676 287 771 204 771 C141 771 101 721 101 636 L147 636 C147 690 168 723 201 722 L201 722 Z M576 664 C576 584 556 542 468 542 L417 542 L417 248 C417 207 414 170 401 144 C381 95 336 66 276 66 C173 66 137 129 137 243 L137 542 L55 542 L55 224 C55 75 121 -9 252 -9 C325 -9 378 24 409 69 L417 69 L417 0 L499 0 L499 487 C603 495 641 546 641 664 L641 723 L576 723 L576 664 Z " />
<glyph glyph-name="uni1EF0" unicode="&#x1ef0;" horiz-adv-x="681" d="M700 794 C700 723 684 681 618 673 L618 767 L532 767 L532 259 C532 140 482 69 340 69 C201 69 149 136 149 259 L149 767 L62 767 L62 254 C62 84 148 -9 340 -9 C530 -9 618 81 618 254 L618 617 C726 623 765 674 765 794 L765 853 L700 853 L700 794 Z M341 -75 C308 -75 284 -101 284 -132 C284 -163 308 -189 341 -189 C371 -189 397 -163 397 -132 C397 -101 371 -75 341 -75 L341 -75 Z " />
<glyph glyph-name="uni1EF1" unicode="&#x1ef1;" horiz-adv-x="561" d="M576 664 C576 584 556 542 468 542 L417 542 L417 248 C417 207 414 170 401 144 C381 95 336 66 276 66 C173 66 137 129 137 243 L137 542 L55 542 L55 224 C55 75 121 -9 252 -9 C325 -9 378 24 409 69 L417 69 L417 0 L499 0 L499 487 C603 495 641 546 641 664 L641 723 L576 723 L576 664 Z M277 -75 C244 -75 220 -101 220 -132 C220 -163 244 -189 277 -189 C307 -189 333 -163 333 -132 C333 -101 307 -75 277 -75 L277 -75 Z " />
<glyph glyph-name="Ygrave" unicode="&#x1ef2;" horiz-adv-x="663" d="M360 836 L245 992 L163 992 L300 836 L360 836 Z M374 0 L374 286 L655 750 L655 767 L565 767 L334 382 L328 382 L97 767 L7 767 L7 750 L288 286 L288 0 L374 0 Z " />
<glyph glyph-name="ygrave" unicode="&#x1ef3;" horiz-adv-x="561" d="M195 767 L113 767 L250 611 L310 611 L195 767 Z M285 71 L275 71 L104 542 L17 542 L216 0 L260 0 L222 -99 C209 -131 184 -149 148 -149 L55 -149 L55 -224 L167 -224 C224 -224 268 -194 289 -140 L345 0 L544 542 L456 542 L285 71 Z " />
<glyph glyph-name="uni1EF4" unicode="&#x1ef4;" horiz-adv-x="663" d="M374 0 L374 286 L655 750 L655 767 L565 767 L334 382 L328 382 L97 767 L7 767 L7 750 L288 286 L288 0 L374 0 Z M331 -189 C361 -189 387 -163 387 -132 C387 -101 361 -75 331 -75 C298 -75 274 -101 274 -132 C274 -163 298 -189 331 -189 L331 -189 Z " />
<glyph glyph-name="uni1EF5" unicode="&#x1ef5;" horiz-adv-x="561" d="M285 71 L275 71 L104 542 L17 542 L216 0 L260 0 L222 -99 C209 -131 184 -149 148 -149 L55 -149 L55 -224 L167 -224 C224 -224 268 -194 289 -140 L345 0 L544 542 L456 542 L285 71 Z M449 -75 C416 -75 392 -101 392 -132 C392 -163 416 -189 449 -189 C479 -189 505 -163 505 -132 C505 -101 479 -75 449 -75 L449 -75 Z " />
<glyph glyph-name="uni1EF6" unicode="&#x1ef6;" horiz-adv-x="663" d="M324 801 C376 804 441 818 441 892 C441 926 425 949 401 967 C378 983 347 992 307 992 L286 992 L286 946 L307 946 C335 946 357 941 372 929 C385 919 391 906 391 889 C391 842 352 837 321 833 L324 801 Z M374 0 L374 286 L655 750 L655 767 L565 767 L334 382 L328 382 L97 767 L7 767 L7 750 L288 286 L288 0 L374 0 Z " />
<glyph glyph-name="uni1EF7" unicode="&#x1ef7;" horiz-adv-x="561" d="M321 704 C334 694 340 681 340 664 C340 617 301 612 270 608 L273 576 C325 579 390 593 390 667 C390 701 374 724 350 742 C327 758 296 767 256 767 L235 767 L235 721 L256 721 C284 721 306 716 321 704 L321 704 Z M285 71 L275 71 L104 542 L17 542 L216 0 L260 0 L222 -99 C209 -131 184 -149 148 -149 L55 -149 L55 -224 L167 -224 C224 -224 268 -194 289 -140 L345 0 L544 542 L456 542 L285 71 Z " />
<glyph glyph-name="uni1EF8" unicode="&#x1ef8;" horiz-adv-x="663" d="M406 852 C466 852 505 905 505 992 L458 992 C458 936 436 901 407 901 C348 901 342 996 259 996 C196 996 156 946 156 861 L202 861 C202 915 223 948 256 947 C315 948 316 852 406 852 L406 852 Z M374 0 L374 286 L655 750 L655 767 L565 767 L334 382 L328 382 L97 767 L7 767 L7 750 L288 286 L288 0 L374 0 Z " />
<glyph glyph-name="uni1EF9" unicode="&#x1ef9;" horiz-adv-x="561" d="M205 722 C264 723 265 627 355 627 C415 627 454 680 454 767 L407 767 C407 711 385 676 356 676 C297 676 291 771 208 771 C145 771 105 721 105 636 L151 636 C151 690 172 723 205 722 L205 722 Z M285 71 L275 71 L104 542 L17 542 L216 0 L260 0 L222 -99 C209 -131 184 -149 148 -149 L55 -149 L55 -224 L167 -224 C224 -224 268 -194 289 -140 L345 0 L544 542 L456 542 L285 71 Z " />
<glyph glyph-name="endash" unicode="&#x2013;" horiz-adv-x="500" d="M500 241 L500 301 L0 301 L0 241 L500 241 Z " />
<glyph glyph-name="emdash" unicode="&#x2014;" horiz-adv-x="1000" d="M1000 241 L1000 301 L0 301 L0 241 L1000 241 Z " />
<glyph glyph-name="uni2015" unicode="&#x2015;" horiz-adv-x="500" d="M500 241 L500 301 L0 301 L0 241 L500 241 Z " />
<glyph glyph-name="quoteleft" unicode="&#x2018;" horiz-adv-x="230" d="M166 756 L166 767 L120 767 L57 610 C49 591 44 575 44 557 C44 524 70 496 107 496 C147 496 173 524 173 558 C173 593 148 622 109 622 L166 756 Z " />
<glyph glyph-name="quoteright" unicode="&#x2019;" horiz-adv-x="230" d="M122 776 C83 776 57 748 57 714 C57 679 82 651 121 651 L63 516 L63 505 L109 505 L173 663 C181 681 185 697 185 715 C185 748 159 776 122 776 L122 776 Z " />
<glyph glyph-name="quotesinglbase" unicode="&#x201a;" horiz-adv-x="256" d="M135 117 C95 117 69 90 69 56 C69 21 95 -8 134 -8 L76 -142 L76 -153 L122 -153 L186 4 C193 22 198 38 198 56 C198 90 172 117 135 117 L135 117 Z " />
<glyph glyph-name="quotedblleft" unicode="&#x201c;" horiz-adv-x="397" d="M166 756 L166 767 L120 767 L57 610 C49 591 44 575 44 557 C44 524 70 496 107 496 C147 496 173 524 173 558 C173 593 148 622 109 622 L166 756 Z M334 756 L334 767 L288 767 L224 610 C216 591 211 575 211 557 C211 524 237 496 275 496 C314 496 340 524 340 558 C340 593 315 622 276 622 L334 756 Z " />
<glyph glyph-name="quotedblright" unicode="&#x201d;" horiz-adv-x="397" d="M122 776 C83 776 57 748 57 714 C57 679 82 651 121 651 L63 516 L63 505 L109 505 L173 663 C181 681 185 697 185 715 C185 748 159 776 122 776 L122 776 Z M289 776 C250 776 224 748 224 714 C224 679 249 651 288 651 L230 516 L230 505 L276 505 L340 663 C348 681 352 697 352 715 C352 748 326 776 289 776 L289 776 Z " />
<glyph glyph-name="quotedblbase" unicode="&#x201e;" horiz-adv-x="423" d="M135 117 C95 117 69 90 69 56 C69 21 95 -8 134 -8 L76 -142 L76 -153 L122 -153 L186 4 C193 22 198 38 198 56 C198 90 172 117 135 117 L135 117 Z M302 117 C263 117 237 90 237 56 C237 21 262 -8 301 -8 L243 -142 L243 -153 L289 -153 L353 4 C361 22 365 38 365 56 C365 90 339 117 302 117 L302 117 Z " />
<glyph glyph-name="dagger" unicode="&#x2020;" horiz-adv-x="440" d="M255 -111 L255 478 L389 478 L389 547 L255 547 L255 767 L185 767 L185 547 L51 547 L51 478 L185 478 L185 -111 L255 -111 Z " />
<glyph glyph-name="daggerdbl" unicode="&#x2021;" horiz-adv-x="480" d="M275 -111 L275 108 L409 108 L409 177 L275 177 L275 478 L409 478 L409 547 L275 547 L275 767 L205 767 L205 547 L71 547 L71 478 L205 478 L205 177 L71 177 L71 108 L205 108 L205 -111 L275 -111 Z " />
<glyph glyph-name="bullet" unicode="&#x2022;" horiz-adv-x="431" d="M215 97 C312 97 389 175 389 271 C389 368 312 446 215 446 C118 446 40 368 40 271 C40 175 118 97 215 97 L215 97 Z " />
<glyph glyph-name="ellipsis" unicode="&#x2026;" horiz-adv-x="751" d="M134 -9 C170 -9 198 20 198 55 C198 89 169 117 134 117 C98 117 69 89 69 55 C69 20 98 -9 134 -9 L134 -9 Z M376 -9 C411 -9 440 20 440 55 C440 89 411 117 376 117 C339 117 311 89 311 55 C311 20 339 -9 376 -9 L376 -9 Z M617 -9 C653 -9 682 20 682 55 C682 89 652 117 617 117 C581 117 552 89 552 55 C552 20 581 -9 617 -9 L617 -9 Z " />
<glyph glyph-name="perthousand" unicode="&#x2030;" horiz-adv-x="1147" d="M212 429 C294 429 354 502 354 601 C354 701 293 775 208 775 C114 775 66 689 66 602 C66 515 114 429 212 429 L212 429 Z M215 0 L649 767 L594 767 L160 0 L215 0 Z M212 482 C146 482 119 542 119 602 C119 662 145 722 208 722 C268 722 301 666 301 601 C301 531 263 482 212 482 L212 482 Z M602 -9 C685 -9 744 65 744 164 C744 264 683 337 599 337 C504 337 456 252 456 165 C456 77 504 -9 602 -9 L602 -9 Z M941 -9 C1024 -9 1084 65 1084 164 C1084 264 1023 337 938 337 C844 337 795 252 795 165 C795 77 845 -9 941 -9 L941 -9 Z M602 45 C537 45 509 105 509 165 C509 225 535 284 599 284 C659 284 691 229 691 164 C691 94 654 45 602 45 L602 45 Z M941 45 C876 45 848 105 848 165 C848 225 876 284 938 284 C998 284 1031 229 1031 164 C1031 94 994 45 941 45 L941 45 Z " />
<glyph glyph-name="uni2031" unicode="&#x2031;" horiz-adv-x="1487" d="M212 429 C294 429 354 502 354 601 C354 701 293 775 208 775 C114 775 66 689 66 602 C66 515 114 429 212 429 L212 429 Z M215 0 L649 767 L594 767 L160 0 L215 0 Z M212 482 C146 482 119 542 119 602 C119 662 145 722 208 722 C268 722 301 666 301 601 C301 531 263 482 212 482 L212 482 Z M602 -9 C685 -9 744 65 744 164 C744 264 683 337 599 337 C504 337 456 252 456 165 C456 77 504 -9 602 -9 L602 -9 Z M941 -9 C1024 -9 1084 65 1084 164 C1084 264 1023 337 938 337 C844 337 795 252 795 165 C795 77 845 -9 941 -9 L941 -9 Z M1282 -9 C1364 -9 1424 65 1424 164 C1424 264 1363 337 1278 337 C1184 337 1136 252 1136 165 C1136 77 1185 -9 1282 -9 L1282 -9 Z M602 45 C537 45 509 105 509 165 C509 225 535 284 599 284 C659 284 691 229 691 164 C691 94 654 45 602 45 L602 45 Z M941 45 C876 45 848 105 848 165 C848 225 876 284 938 284 C998 284 1031 229 1031 164 C1031 94 994 45 941 45 L941 45 Z M1282 45 C1216 45 1189 105 1189 165 C1189 225 1216 284 1278 284 C1338 284 1371 229 1371 164 C1371 94 1334 45 1282 45 L1282 45 Z " />
<glyph glyph-name="guilsinglleft" unicode="&#x2039;" horiz-adv-x="337" d="M272 154 L137 271 L272 389 L272 457 L57 271 L272 85 L272 154 Z " />
<glyph glyph-name="guilsinglright" unicode="&#x203a;" horiz-adv-x="336" d="M280 271 L64 457 L64 389 L200 271 L64 154 L64 85 L280 271 Z " />
<glyph glyph-name="fraction" unicode="&#x2044;" horiz-adv-x="156" d="M-112 0 L322 767 L267 767 L-166 0 L-112 0 Z " />
<glyph glyph-name="uni2074" unicode="&#x2074;" horiz-adv-x="416" d="M309 307 L309 413 L379 413 L379 459 L309 459 L309 767 L246 767 L36 463 L36 413 L257 413 L257 307 L309 307 Z M86 462 L254 703 L257 703 L257 459 L86 459 L86 462 Z " />
<glyph glyph-name="Euro" unicode="&#x20ac;" horiz-adv-x="792" d="M672 134 C627 89 564 63 486 63 C349 63 262 144 229 267 L456 267 L491 326 L218 326 C216 344 215 363 215 383 C215 407 217 429 219 451 L567 451 L603 509 L232 509 C266 627 353 704 486 704 C566 704 630 677 676 629 L716 696 C659 746 581 775 486 775 C305 775 189 669 150 509 L80 509 L80 451 L140 451 C137 429 136 406 136 383 C136 364 137 344 139 326 L80 326 L80 267 L148 267 C184 101 301 -9 486 -9 C586 -9 665 23 724 77 L672 134 Z " />
<glyph glyph-name="uni20B1" unicode="&#x20b1;" horiz-adv-x="668" d="M589 570 C585 637 558 690 513 722 C470 755 407 767 317 767 L112 767 L112 570 L51 570 L51 535 L112 535 L112 0 L198 0 L198 332 L317 332 C407 332 470 344 513 377 C559 410 586 464 590 535 L650 535 L650 570 L589 570 Z M303 689 C381 689 427 683 461 655 C483 638 498 611 502 570 L198 570 L198 689 L303 689 Z M461 444 C427 416 380 410 303 410 L198 410 L198 535 L503 535 C500 492 484 463 461 444 L461 444 Z " />
<glyph glyph-name="uni20B8" unicode="&#x20b8;" horiz-adv-x="771" d="M690 700 L690 767 L81 767 L81 700 L690 700 Z M425 0 L425 528 L690 528 L690 594 L81 594 L81 528 L346 528 L346 0 L425 0 Z " />
<glyph glyph-name="trademark" unicode="&#x2122;" horiz-adv-x="812" d="M194 360 L194 723 L308 723 L308 767 L26 767 L26 723 L141 723 L141 360 L194 360 Z M441 360 L441 712 L559 393 L594 393 L709 708 L709 360 L762 360 L762 767 L682 767 L576 467 L470 767 L388 767 L388 360 L441 360 Z " />
<glyph glyph-name="uni2126" unicode="&#x2126;" horiz-adv-x="889" d="M375 0 L375 89 C255 125 178 236 178 395 C178 554 280 674 445 674 C607 674 711 557 711 395 C711 229 634 118 514 90 L514 0 L809 0 L809 62 L597 62 L597 75 C707 131 779 249 779 395 C779 588 643 739 445 739 C249 739 110 592 110 397 C110 261 184 143 298 78 L297 64 L80 64 L80 0 L375 0 Z " />
<glyph glyph-name="arrowleft" unicode="&#x2190;" horiz-adv-x="931" d="M328 301 L328 471 L-13 271 L328 71 L328 241 L930 241 L930 301 L328 301 Z " />
<glyph glyph-name="arrowright" unicode="&#x2192;" horiz-adv-x="931" d="M602 471 L602 301 L0 301 L0 241 L602 241 L602 71 L944 271 L602 471 Z " />
<glyph glyph-name="partialdiff" unicode="&#x2202;" horiz-adv-x="719" d="M313 -7 C524 -7 628 182 628 406 C628 630 548 774 363 774 C248 774 172 721 135 629 L198 611 C229 689 295 717 363 717 C484 717 547 628 551 473 L544 473 C508 527 447 553 373 553 C209 553 76 425 76 238 C76 95 167 -7 313 -7 L313 -7 Z M318 60 C221 60 147 126 147 239 C147 375 234 490 381 490 C529 490 554 370 546 278 C531 167 454 60 318 60 L318 60 Z " />
<glyph glyph-name="uni2206" unicode="&#x2206;" horiz-adv-x="725" d="M675 0 L362 794 L50 0 L675 0 Z M362 635 L581 65 L144 65 L362 635 Z " />
<glyph glyph-name="product" unicode="&#x220f;" horiz-adv-x="716" d="M209 0 L209 702 L507 702 L507 0 L571 0 L571 702 L628 702 L628 767 L88 767 L88 702 L145 702 L145 0 L209 0 Z " />
<glyph glyph-name="summation" unicode="&#x2211;" horiz-adv-x="705" d="M64 767 L64 717 L374 383 L64 50 L64 0 L635 0 L635 73 L181 73 L478 383 L180 694 L635 694 L635 767 L64 767 Z " />
<glyph glyph-name="minus" unicode="&#x2212;" horiz-adv-x="441" d="M417 241 L417 301 L24 301 L24 241 L417 241 Z " />
<glyph glyph-name="radical" unicode="&#x221a;" horiz-adv-x="675" d="M626 767 L556 767 L281 89 L177 367 L50 367 L50 302 L132 302 L278 -77 L626 767 Z " />
<glyph glyph-name="infinity" unicode="&#x221e;" horiz-adv-x="1083" d="M300 193 C389 193 474 253 538 343 C607 254 692 193 781 193 C905 193 989 280 989 396 C989 512 905 599 781 599 C692 599 608 539 538 449 C474 539 389 599 300 599 C177 599 92 512 92 396 C92 280 177 193 300 193 L300 193 Z M309 256 C224 256 161 314 161 396 C161 478 224 536 309 536 C372 536 444 491 503 396 C444 302 373 256 309 256 L309 256 Z M772 256 C702 256 631 311 573 396 C630 481 702 536 772 536 C858 536 921 478 921 396 C921 314 858 256 772 256 L772 256 Z " />
<glyph glyph-name="integral" unicode="&#x222b;" horiz-adv-x="529" d="M44 -257 C197 -257 284 -183 284 -34 L284 612 C284 677 325 714 374 714 C397 714 424 706 449 685 L490 735 C454 764 413 780 374 780 C287 780 219 709 219 614 L219 -32 C219 -148 170 -192 44 -192 L44 -257 Z " />
<glyph glyph-name="approxequal" unicode="&#x2248;" horiz-adv-x="500" d="M346 298 C424 298 476 369 476 472 L417 472 C417 400 388 351 346 351 C267 351 272 486 152 486 C74 486 24 422 24 324 L83 324 C83 391 108 433 152 433 C235 433 229 298 346 298 L346 298 Z M346 56 C424 56 476 127 476 231 L417 231 C417 159 388 109 346 109 C267 109 272 245 152 245 C74 245 24 180 24 82 L83 82 C83 149 108 192 152 192 C235 192 229 56 346 56 L346 56 Z " />
<glyph glyph-name="notequal" unicode="&#x2260;" horiz-adv-x="502" d="M478 406 L355 406 L432 542 L377 542 L300 406 L24 406 L24 346 L266 346 L181 196 L24 196 L24 136 L147 136 L70 0 L126 0 L203 136 L478 136 L478 196 L237 196 L321 346 L478 346 L478 406 Z " />
<glyph glyph-name="lessequal" unicode="&#x2264;" horiz-adv-x="444" d="M24 409 L24 343 L420 224 L420 287 L111 376 L420 465 L420 528 L24 409 Z M420 136 L420 196 L24 196 L24 136 L420 136 Z " />
<glyph glyph-name="greaterequal" unicode="&#x2265;" horiz-adv-x="444" d="M24 465 L333 376 L24 287 L24 224 L420 343 L420 409 L24 528 L24 465 Z M420 136 L420 196 L24 196 L24 136 L420 136 Z " />
<glyph glyph-name="lozenge" unicode="&#x25ca;" horiz-adv-x="631" d="M370 0 L574 383 L370 767 L260 767 L57 383 L260 0 L370 0 Z M133 383 L307 725 L324 725 L498 383 L324 42 L307 42 L133 383 Z " />
<glyph glyph-name="uniF8FF" unicode="&#xf8ff;" horiz-adv-x="993" d="M497 -33 C729 -33 917 154 917 387 C917 619 729 807 497 807 C265 807 77 619 77 387 C77 154 265 -33 497 -33 L497 -33 Z M497 6 C286 6 116 176 116 387 C116 598 286 768 497 768 C708 768 878 598 878 387 C878 176 708 6 497 6 L497 6 Z M278 222 C289 222 298 230 298 241 L298 532 C298 543 289 552 278 552 C268 552 259 543 259 532 L259 241 C259 230 268 222 278 222 L278 222 Z M497 222 C508 222 516 230 516 241 L516 532 C516 543 508 552 497 552 C486 552 478 543 478 532 L478 241 C478 230 486 222 497 222 L497 222 Z M715 222 C725 222 735 231 735 241 C735 246 733 250 729 254 L597 387 L729 519 C733 523 735 528 735 532 C735 542 725 552 715 552 C710 552 706 550 703 546 L556 400 C552 397 551 392 551 387 C551 382 552 378 556 373 L702 228 C706 223 710 222 715 222 L715 222 Z M423 368 C435 368 443 376 443 387 C443 398 435 406 423 406 L351 406 C340 406 332 398 332 387 C332 376 340 368 351 368 L423 368 Z " />
<glyph glyph-name="fi" unicode="&#xfb01;" horiz-adv-x="524" d="M421 664 C451 664 477 690 477 722 C477 753 451 778 421 778 C389 778 364 753 364 722 C364 690 389 664 421 664 L421 664 Z M191 646 C191 672 211 692 238 692 L303 692 L303 767 L231 767 C154 767 110 722 110 646 L110 542 L20 542 L20 467 L110 467 L110 0 L191 0 L191 467 L380 467 L380 0 L462 0 L462 542 L191 542 L191 646 Z " />
<glyph glyph-name="fl" unicode="&#xfb02;" horiz-adv-x="586" d="M506 75 C480 75 460 95 460 121 L460 767 L231 767 C154 767 110 722 110 646 L110 542 L20 542 L20 467 L110 467 L110 0 L191 0 L191 467 L303 467 L303 542 L191 542 L191 646 C191 672 211 692 238 692 L378 692 L378 121 C378 45 423 0 499 0 L560 0 L560 75 L506 75 Z " />
</font>
</svg>
