<?xml version="1.0" encoding="UTF-8"?>
<svg xmlns="http://www.w3.org/2000/svg" xmlns:xlink="http://www.w3.org/1999/xlink" version="1.2" >
<font id="HK Guise Thin">
<font-face  font-family="HK Guise" units-per-em="1000" ascent="767" descent="-233" font-style="normal" font-weight="100" font-stretch="normal" cap-height="767" x-height="542" underline-position="-125" underline-thickness="16" />
<missing-glyph  horiz-adv-x="554" d="M504 0 L504 523 L50 523 L50 0 L504 0 Z M64 508 L490 508 L490 14 L64 14 L64 508 Z " />
<glyph glyph-name="NULL" d="" />
<glyph glyph-name="CR" unicode="&#xd;" horiz-adv-x="250" d="" />
<glyph glyph-name="space" unicode="&#x20;" horiz-adv-x="280" d="" />
<glyph glyph-name="exclam" unicode="&#x21;" horiz-adv-x="229" d="M126 168 L126 767 L103 767 L103 168 L126 168 Z M114 -6 C132 -6 148 9 148 28 C148 46 132 60 114 60 C96 60 81 46 81 28 C81 9 96 -6 114 -6 L114 -6 Z " />
<glyph glyph-name="quotedbl" unicode="&#x22;" horiz-adv-x="274" d="M66 488 L66 767 L47 767 L47 488 L66 488 Z M226 488 L226 767 L206 767 L206 488 L226 488 Z " />
<glyph glyph-name="numbersign" unicode="&#x23;" horiz-adv-x="722" d="M159 0 L208 240 L449 240 L399 0 L418 0 L467 240 L629 240 L629 257 L470 257 L526 526 L677 526 L677 543 L530 543 L576 767 L558 767 L511 543 L271 543 L317 767 L298 767 L251 543 L94 543 L94 526 L248 526 L193 257 L46 257 L46 240 L190 240 L140 0 L159 0 Z M267 526 L507 526 L452 257 L211 257 L267 526 Z " />
<glyph glyph-name="dollar" unicode="&#x24;" horiz-adv-x="679" d="M629 209 C629 335 543 364 454 389 L368 412 L368 751 C498 741 586 672 587 547 L610 547 C609 685 509 762 368 772 L368 856 L353 856 L353 773 L335 773 C191 773 92 708 92 588 C92 465 191 438 273 415 L353 393 L353 15 C169 16 64 112 64 279 L41 279 C41 96 162 -6 353 -6 L353 -98 L368 -98 L368 -6 C530 -2 629 78 629 209 L629 209 Z M285 435 C202 457 115 482 115 589 C115 695 201 752 334 752 L353 752 L353 416 L285 435 Z M368 389 L446 367 C534 343 607 318 607 210 C607 89 518 19 368 15 L368 389 Z " />
<glyph glyph-name="percent" unicode="&#x25;" horiz-adv-x="770" d="M182 435 C258 435 312 504 312 603 C312 702 257 772 179 772 C82 772 49 675 49 603 C49 531 82 435 182 435 L182 435 Z M189 0 L594 767 L577 767 L172 0 L189 0 Z M182 452 C95 452 66 538 66 603 C66 670 94 755 179 755 C258 755 295 680 295 603 C295 514 248 452 182 452 L182 452 Z M590 -6 C667 -6 720 63 720 162 C720 261 665 332 587 332 C490 332 457 235 457 162 C457 91 490 -6 590 -6 L590 -6 Z M590 12 C503 12 474 97 474 162 C474 229 502 315 587 315 C666 315 703 239 703 162 C703 73 657 12 590 12 L590 12 Z " />
<glyph glyph-name="ampersand" unicode="&#x26;" horiz-adv-x="676" d="M273 -6 C372 -6 453 28 513 94 L592 0 L614 0 L614 5 L526 110 C577 172 609 260 619 371 L598 371 C589 271 561 190 517 128 L510 128 L287 393 C393 443 499 491 499 602 C499 699 425 772 327 772 C218 772 140 702 140 602 C140 526 216 444 251 405 L251 397 C148 350 54 292 54 172 C54 61 139 -6 273 -6 L273 -6 Z M273 408 C244 445 160 526 160 602 C160 692 228 754 327 754 C415 754 480 688 480 602 C480 500 377 456 273 408 L273 408 Z M273 13 C151 13 74 73 74 172 C74 285 168 337 269 384 L501 108 C446 47 368 13 273 13 L273 13 Z " />
<glyph glyph-name="quotesingle" unicode="&#x27;" horiz-adv-x="114" d="M66 488 L66 767 L47 767 L47 488 L66 488 Z " />
<glyph glyph-name="parenleft" unicode="&#x28;" horiz-adv-x="207" d="M192 -5 C112 89 65 263 65 382 C65 503 102 661 193 772 L170 772 C82 661 47 505 47 382 C47 267 91 90 169 -5 L192 -5 Z " />
<glyph glyph-name="parenright" unicode="&#x29;" horiz-adv-x="207" d="M38 -5 C116 90 161 267 161 382 C161 505 125 661 37 772 L14 772 C105 661 143 503 143 382 C143 263 96 89 15 -5 L38 -5 Z " />
<glyph glyph-name="asterisk" unicode="&#x2a;" horiz-adv-x="401" d="M200 579 L293 460 L307 470 L219 594 L362 644 L356 660 L212 617 L209 767 L192 767 L189 617 L45 660 L39 644 L182 594 L95 470 L108 460 L200 579 Z " />
<glyph glyph-name="plus" unicode="&#x2b;" horiz-adv-x="600" d="M310 2 L310 262 L570 262 L570 280 L310 280 L310 540 L291 540 L291 280 L31 280 L31 262 L291 262 L291 2 L310 2 Z " />
<glyph glyph-name="comma" unicode="&#x2c;" horiz-adv-x="229" d="M123 60 C103 60 89 47 89 29 C89 10 103 -4 123 -4 L130 -4 L83 -140 L83 -144 L99 -144 L147 -2 C153 13 154 22 154 29 C154 47 141 60 123 60 L123 60 Z " />
<glyph glyph-name="hyphen" unicode="&#x2d;" horiz-adv-x="399" d="M336 262 L336 280 L63 280 L63 262 L336 262 Z " />
<glyph glyph-name="period" unicode="&#x2e;" horiz-adv-x="235" d="M118 -6 C136 -6 151 9 151 28 C151 46 136 60 118 60 C100 60 84 46 84 28 C84 9 100 -6 118 -6 L118 -6 Z " />
<glyph glyph-name="slash" unicode="&#x2f;" horiz-adv-x="397" d="M-23 -230 L362 767 L340 767 L-45 -230 L-23 -230 Z " />
<glyph glyph-name="zero" unicode="0" horiz-adv-x="560" d="M280 -6 C463 -6 488 154 488 252 L488 515 C488 613 463 773 280 773 C98 773 72 613 72 515 L72 252 C72 154 98 -6 280 -6 L280 -6 Z M280 16 C114 16 95 160 95 252 L95 515 C95 607 114 751 280 751 C446 751 465 607 465 515 L465 252 C465 160 446 16 280 16 L280 16 Z " />
<glyph glyph-name="one" unicode="1" horiz-adv-x="349" d="M247 684 C247 651 231 640 197 640 L43 640 L43 619 L247 619 L247 0 L269 0 L269 767 L247 767 L247 684 Z " />
<glyph glyph-name="two" unicode="2" horiz-adv-x="536" d="M484 0 L484 21 L74 21 L76 42 L396 412 C439 462 463 520 463 571 C463 681 373 773 260 773 C147 773 56 681 56 569 L79 569 C79 670 159 751 260 751 C361 751 441 671 441 571 C441 525 421 475 380 428 L53 51 L53 0 L484 0 Z " />
<glyph glyph-name="three" unicode="3" horiz-adv-x="621" d="M307 -6 C456 -6 560 79 560 210 C560 348 440 395 332 407 L332 409 C421 420 520 463 520 586 C520 694 428 773 305 773 C179 773 90 694 90 576 L112 576 C113 682 189 751 306 751 C418 751 497 682 497 585 C497 444 360 416 269 416 L233 416 L233 397 L270 397 C382 397 537 364 537 211 C537 93 447 16 307 16 C166 16 76 92 76 216 L54 216 C54 79 154 -6 307 -6 L307 -6 Z " />
<glyph glyph-name="four" unicode="4" horiz-adv-x="635" d="M470 0 L470 184 L595 184 L595 205 L470 205 L470 767 L437 767 L40 210 L40 184 L447 184 L447 0 L470 0 Z M62 207 L444 742 L447 742 L447 205 L62 205 L62 207 Z " />
<glyph glyph-name="five" unicode="5" horiz-adv-x="612" d="M319 499 C237 499 163 460 107 388 L107 389 L167 746 L515 746 L515 767 L149 767 L80 367 L115 367 C165 439 237 478 317 478 C441 478 532 383 532 252 C532 117 432 16 303 16 C195 16 109 85 81 196 L59 196 C88 72 181 -6 303 -6 C446 -6 554 106 554 251 C554 395 453 499 319 499 L319 499 Z " />
<glyph glyph-name="six" unicode="6" horiz-adv-x="594" d="M297 480 C244 480 194 461 154 430 L346 761 L346 767 L324 767 L94 370 C70 330 54 281 54 234 C54 81 166 -6 297 -6 C430 -6 540 85 540 236 C540 389 431 480 297 480 L297 480 Z M297 16 C174 16 76 95 76 236 C76 360 176 459 297 459 C419 459 518 378 518 238 C518 96 419 16 297 16 L297 16 Z " />
<glyph glyph-name="seven" unicode="7" horiz-adv-x="577" d="M137 0 L541 739 L541 767 L29 767 L29 746 L516 746 L516 739 L115 6 L115 0 L137 0 Z " />
<glyph glyph-name="eight" unicode="8" horiz-adv-x="592" d="M359 417 C435 437 487 504 487 587 C487 697 407 773 298 773 C207 773 110 709 110 596 C110 505 159 439 235 417 C130 397 61 318 61 211 C61 67 180 -6 296 -6 C413 -6 530 67 530 211 C530 317 462 396 359 417 L359 417 Z M131 595 C131 696 214 752 298 752 C396 752 464 685 464 586 C464 493 395 425 299 425 C199 425 131 493 131 595 L131 595 Z M296 16 C187 16 82 79 82 211 C82 326 170 405 296 405 C420 405 508 326 508 211 C508 79 406 16 296 16 L296 16 Z " />
<glyph glyph-name="nine" unicode="9" horiz-adv-x="595" d="M298 773 C165 773 55 682 55 531 C55 378 165 287 298 287 C350 287 400 305 440 336 L249 6 L249 0 L272 0 L502 397 C525 437 542 486 542 533 C542 686 429 773 298 773 L298 773 Z M298 308 C176 308 78 389 78 529 C78 671 176 751 298 751 C422 751 519 672 519 531 C519 407 419 308 298 308 L298 308 Z " />
<glyph glyph-name="colon" unicode="&#x3a;" horiz-adv-x="235" d="M118 463 C136 463 151 477 151 496 C151 515 136 529 118 529 C100 529 84 515 84 496 C84 477 100 463 118 463 L118 463 Z M118 -6 C136 -6 151 9 151 28 C151 46 136 60 118 60 C100 60 84 46 84 28 C84 9 100 -6 118 -6 L118 -6 Z " />
<glyph glyph-name="semicolon" unicode="&#x3b;" horiz-adv-x="242" d="M124 463 C142 463 157 477 157 496 C157 515 142 529 124 529 C106 529 91 515 91 496 C91 477 106 463 124 463 L124 463 Z M126 60 C106 60 92 47 92 29 C92 10 106 -4 126 -4 L133 -4 L86 -140 L86 -144 L102 -144 L150 -2 C156 13 157 22 157 29 C157 47 144 60 126 60 L126 60 Z " />
<glyph glyph-name="less" unicode="&#x3c;" horiz-adv-x="378" d="M347 102 L47 271 L347 441 L347 461 L31 283 L31 260 L347 82 L347 102 Z " />
<glyph glyph-name="equal" unicode="&#x3d;" horiz-adv-x="469" d="M439 354 L439 373 L31 373 L31 354 L439 354 Z M439 169 L439 188 L31 188 L31 169 L439 169 Z " />
<glyph glyph-name="greater" unicode="&#x3e;" horiz-adv-x="378" d="M347 260 L347 283 L31 461 L31 441 L331 271 L31 102 L31 82 L347 260 Z " />
<glyph glyph-name="question" unicode="&#x3f;" horiz-adv-x="349" d="M118 168 L118 325 C118 505 320 439 320 605 C320 653 300 693 265 722 C230 749 176 767 103 767 L38 767 L38 746 L102 746 C166 746 217 731 250 706 C281 681 298 649 298 605 C298 450 95 519 95 325 L95 168 L118 168 Z M107 -6 C125 -6 140 9 140 28 C140 46 125 60 107 60 C89 60 73 46 73 28 C73 9 89 -6 107 -6 L107 -6 Z " />
<glyph glyph-name="at" unicode="&#x40;" horiz-adv-x="1087" d="M539 -194 C597 -194 647 -186 704 -167 L698 -150 C645 -168 595 -177 539 -177 C285 -177 79 -9 79 279 C79 562 274 765 550 765 C819 765 1009 574 1009 306 C1009 143 940 -15 781 -15 C699 -15 682 51 693 132 C706 234 751 427 772 535 L755 535 L727 399 L726 399 C722 506 670 564 573 564 C393 564 299 363 299 215 C299 100 357 35 457 35 C571 35 648 116 689 211 L690 211 C683 180 680 151 677 127 C664 26 701 -32 780 -32 C951 -32 1026 137 1026 306 C1026 583 827 782 550 782 C265 782 62 570 62 279 C62 -17 278 -194 539 -194 L539 -194 Z M457 52 C366 52 316 109 316 215 C316 357 403 547 574 547 C666 547 715 491 715 386 C715 244 628 52 457 52 L457 52 Z " />
<glyph glyph-name="A" unicode="A" horiz-adv-x="603" d="M281 767 L20 6 L20 0 L42 0 L110 200 L493 200 L562 0 L584 0 L584 6 L323 767 L281 767 Z M296 744 L307 744 L486 221 L117 221 L296 744 Z " />
<glyph glyph-name="B" unicode="B" horiz-adv-x="586" d="M289 0 C380 0 443 20 484 61 C519 96 535 144 535 204 C535 312 482 383 389 401 L389 407 C456 433 500 497 500 581 C500 641 480 690 442 721 C403 753 359 767 249 767 L78 767 L78 0 L289 0 Z M100 746 L248 746 C354 746 394 733 426 705 C461 676 477 633 477 581 C477 529 461 487 432 456 C402 424 360 408 313 408 L100 408 L100 746 Z M100 386 L333 386 C393 386 438 370 468 339 C498 307 513 262 513 205 C513 148 497 107 468 78 C429 37 366 20 289 20 L100 20 L100 386 Z " />
<glyph glyph-name="C" unicode="C" horiz-adv-x="754" d="M384 -6 C553 -6 676 105 710 279 L687 279 C654 117 540 16 384 16 C196 16 71 163 71 384 C71 605 196 751 384 751 C541 751 654 650 687 488 L710 488 C676 662 553 773 384 773 C183 773 49 617 49 384 C49 151 183 -6 384 -6 L384 -6 Z " />
<glyph glyph-name="D" unicode="D" horiz-adv-x="758" d="M322 0 C451 0 551 37 618 108 C677 171 709 262 709 378 C709 494 681 585 624 651 C559 727 457 767 323 767 L77 767 L77 0 L322 0 Z M100 746 L323 746 C449 746 546 710 608 637 C661 576 687 489 687 378 C687 270 658 184 603 124 C540 56 445 21 322 21 L100 21 L100 746 Z " />
<glyph glyph-name="E" unicode="E" horiz-adv-x="594" d="M572 0 L572 21 L100 21 L100 386 L492 386 L492 407 L100 407 L100 746 L549 746 L549 767 L78 767 L78 0 L572 0 Z " />
<glyph glyph-name="F" unicode="F" horiz-adv-x="567" d="M100 0 L100 386 L492 386 L492 407 L100 407 L100 746 L549 746 L549 767 L78 767 L78 0 L100 0 Z " />
<glyph glyph-name="G" unicode="G" horiz-adv-x="782" d="M495 365 L699 365 C694 155 568 16 384 16 C196 16 71 163 71 384 C71 605 196 751 384 751 C541 751 654 650 687 488 L710 488 C676 662 553 773 384 773 C183 773 49 617 49 384 C49 151 183 -6 384 -6 C533 -6 643 79 690 218 L696 218 L696 0 L719 0 L719 386 L495 386 L495 365 Z " />
<glyph glyph-name="H" unicode="H" horiz-adv-x="659" d="M100 0 L100 386 L558 386 L558 0 L580 0 L580 767 L558 767 L558 407 L100 407 L100 767 L78 767 L78 0 L100 0 Z " />
<glyph glyph-name="I" unicode="I" horiz-adv-x="178" d="M100 0 L100 767 L78 767 L78 0 L100 0 Z " />
<glyph glyph-name="J" unicode="J" horiz-adv-x="553" d="M255 -6 C333 -6 392 20 429 63 C465 104 481 157 481 259 L481 767 L133 767 L133 746 L458 746 L458 261 C458 164 444 115 413 79 C379 40 326 15 255 15 C183 15 130 40 97 79 C66 114 51 162 51 259 L29 259 C29 157 44 104 80 63 C118 20 177 -6 255 -6 L255 -6 Z " />
<glyph glyph-name="K" unicode="K" horiz-adv-x="617" d="M573 761 L573 767 L547 767 L104 308 L100 308 L100 767 L78 767 L78 0 L100 0 L100 272 L281 459 L284 459 L574 0 L598 0 L598 6 L299 478 L573 761 Z " />
<glyph glyph-name="L" unicode="L" horiz-adv-x="477" d="M469 0 L469 21 L100 21 L100 767 L78 767 L78 0 L469 0 Z " />
<glyph glyph-name="M" unicode="M" horiz-adv-x="863" d="M100 0 L100 747 L111 747 L410 0 L451 0 L750 747 L761 747 L761 0 L784 0 L784 767 L735 767 L436 20 L426 20 L127 767 L78 767 L78 0 L100 0 Z " />
<glyph glyph-name="N" unicode="N" horiz-adv-x="678" d="M100 0 L100 747 L110 747 L553 0 L600 0 L600 767 L577 767 L577 20 L567 20 L124 767 L78 767 L78 0 L100 0 Z " />
<glyph glyph-name="O" unicode="O" horiz-adv-x="770" d="M384 -6 C585 -6 720 151 720 384 C720 617 585 773 384 773 C183 773 49 617 49 384 C49 151 183 -6 384 -6 L384 -6 Z M384 16 C196 16 71 163 71 384 C71 605 196 751 384 751 C572 751 698 605 698 384 C698 163 572 16 384 16 L384 16 Z " />
<glyph glyph-name="P" unicode="P" horiz-adv-x="544" d="M100 0 L100 350 L224 350 C331 350 399 366 442 402 C483 434 511 489 511 559 C511 628 483 683 442 715 C399 751 331 767 224 767 L78 767 L78 0 L100 0 Z M100 746 L222 746 C326 746 386 733 429 697 C468 666 488 618 488 559 C488 499 468 451 429 420 C386 384 326 371 222 371 L100 371 L100 746 Z " />
<glyph glyph-name="Q" unicode="Q" horiz-adv-x="770" d="M720 384 C720 617 585 773 384 773 C183 773 49 617 49 384 C49 151 183 -6 384 -6 C481 -6 562 30 621 94 L692 0 L714 0 L714 6 L635 111 C689 179 720 273 720 384 L720 384 Z M384 16 C196 16 71 163 71 384 C71 605 196 751 384 751 C572 751 698 605 698 384 C698 280 670 193 621 129 L528 253 L506 253 L506 247 L607 112 C553 51 476 16 384 16 L384 16 Z " />
<glyph glyph-name="R" unicode="R" horiz-adv-x="580" d="M325 356 C377 364 414 379 442 402 C483 434 511 489 511 559 C511 628 483 683 442 715 C399 751 331 767 224 767 L78 767 L78 0 L100 0 L100 350 L224 350 C251 350 276 351 299 353 L524 0 L546 0 L546 8 L325 352 L325 356 Z M100 371 L100 746 L222 746 C326 746 386 733 429 697 C468 666 488 618 488 559 C488 499 468 451 429 420 C386 384 326 371 222 371 L100 371 Z " />
<glyph glyph-name="S" unicode="S" horiz-adv-x="679" d="M354 -6 C524 -6 629 74 629 209 C629 335 543 364 454 389 L285 435 C202 457 115 482 115 589 C115 695 201 752 334 752 C483 752 586 683 587 547 L610 547 C609 696 493 773 335 773 C191 773 92 708 92 588 C92 465 191 438 273 415 L446 367 C534 343 607 318 607 210 C607 86 513 15 355 15 C170 15 64 111 64 279 L41 279 C41 96 162 -6 354 -6 L354 -6 Z " />
<glyph glyph-name="T" unicode="T" horiz-adv-x="618" d="M320 0 L320 746 L610 746 L610 767 L7 767 L7 746 L297 746 L297 0 L320 0 Z " />
<glyph glyph-name="U" unicode="U" horiz-adv-x="661" d="M331 -6 C501 -6 590 74 590 253 L590 767 L567 767 L567 254 C567 91 490 16 331 16 C174 16 94 87 94 254 L94 767 L71 767 L71 253 C71 78 157 -6 331 -6 L331 -6 Z " />
<glyph glyph-name="V" unicode="V" horiz-adv-x="602" d="M322 0 L583 761 L583 767 L561 767 L306 24 L295 24 L41 767 L19 767 L19 761 L280 0 L322 0 Z " />
<glyph glyph-name="W" unicode="W" horiz-adv-x="1046" d="M325 0 L519 748 L527 748 L721 0 L766 0 L1027 761 L1027 767 L1005 767 L751 24 L740 24 L545 767 L501 767 L306 24 L295 24 L41 767 L19 767 L19 761 L280 0 L325 0 Z " />
<glyph glyph-name="X" unicode="X" horiz-adv-x="631" d="M45 0 L310 375 L318 375 L586 0 L609 0 L609 6 L336 389 L601 761 L601 767 L577 767 L318 404 L310 404 L53 767 L30 767 L30 761 L294 389 L21 6 L21 0 L45 0 Z " />
<glyph glyph-name="Y" unicode="Y" horiz-adv-x="627" d="M324 0 L324 287 L615 761 L615 767 L592 767 L314 312 L312 312 L34 767 L11 767 L11 761 L302 287 L302 0 L324 0 Z " />
<glyph glyph-name="Z" unicode="Z" horiz-adv-x="636" d="M609 0 L609 21 L44 21 L44 31 L611 725 L611 767 L47 767 L47 746 L589 746 L589 735 L22 41 L22 0 L609 0 Z " />
<glyph glyph-name="bracketleft" unicode="&#x5b;" horiz-adv-x="269" d="M262 -50 L262 -33 L105 -33 L105 798 L262 798 L262 815 L87 815 L87 -50 L262 -50 Z " />
<glyph glyph-name="backslash" unicode="&#x5c;" horiz-adv-x="397" d="M441 -230 L56 767 L34 767 L419 -230 L441 -230 Z " />
<glyph glyph-name="bracketright" unicode="&#x5d;" horiz-adv-x="269" d="M183 -50 L183 815 L8 815 L8 798 L164 798 L164 -33 L8 -33 L8 -50 L183 -50 Z " />
<glyph glyph-name="asciicircum" unicode="&#x5e;" horiz-adv-x="560" d="M102 265 L280 730 L460 265 L483 265 L280 779 L78 265 L102 265 Z " />
<glyph glyph-name="underscore" unicode="&#x5f;" horiz-adv-x="683" d="M619 -18 L619 0 L63 0 L63 -18 L619 -18 Z " />
<glyph glyph-name="grave" unicode="&#x60;" horiz-adv-x="173" d="M155 613 L40 767 L18 767 L136 613 L155 613 Z " />
<glyph glyph-name="a" unicode="a" horiz-adv-x="536" d="M452 448 C424 511 360 548 265 548 C141 548 74 486 63 387 L85 387 C95 475 154 529 265 529 C388 529 445 463 447 356 L448 304 L226 304 C119 304 51 258 51 149 C51 53 119 -6 229 -6 C328 -6 403 43 440 139 L447 139 L447 0 L469 0 L469 353 C469 387 464 419 452 448 L452 448 Z M230 14 C132 14 73 65 73 149 C73 247 130 285 228 285 L448 285 L447 261 C443 116 371 14 230 14 L230 14 Z " />
<glyph glyph-name="b" unicode="b" horiz-adv-x="617" d="M321 -6 C464 -6 568 92 568 271 C568 450 464 548 321 548 C218 548 133 495 98 396 L92 396 L92 767 L71 767 L71 0 L92 0 L92 146 L98 146 C133 47 218 -6 321 -6 L321 -6 Z M319 15 C187 15 92 103 92 271 C92 439 187 527 319 527 C451 527 546 438 546 271 C546 104 451 15 319 15 L319 15 Z " />
<glyph glyph-name="c" unicode="c" horiz-adv-x="573" d="M299 -6 C420 -6 508 59 527 181 L505 181 C486 71 410 15 299 15 C167 15 71 103 71 271 C71 439 167 527 299 527 C410 527 486 471 505 361 L527 361 C508 483 420 548 299 548 C154 548 49 451 49 271 C49 91 154 -6 299 -6 L299 -6 Z " />
<glyph glyph-name="d" unicode="d" horiz-adv-x="617" d="M296 -6 C400 -6 484 47 519 146 L525 146 L525 0 L547 0 L547 767 L525 767 L525 396 L519 396 C484 495 400 548 296 548 C153 548 49 450 49 271 C49 92 153 -6 296 -6 L296 -6 Z M298 15 C166 15 71 104 71 271 C71 438 166 527 298 527 C430 527 526 439 526 271 C526 103 430 15 298 15 L298 15 Z " />
<glyph glyph-name="e" unicode="e" horiz-adv-x="594" d="M549 289 C541 457 438 548 299 548 C154 548 49 451 49 271 C49 91 154 -6 299 -6 C411 -6 499 53 534 163 L510 163 C478 66 398 15 299 15 C167 15 71 104 71 271 L71 285 L549 285 L549 289 Z M299 527 C422 527 514 450 525 304 L72 304 C84 450 176 527 299 527 L299 527 Z " />
<glyph glyph-name="f" unicode="f" horiz-adv-x="277" d="M259 746 L259 767 L193 767 C146 767 113 734 113 687 L113 542 L22 542 L22 521 L113 521 L113 0 L135 0 L135 521 L259 521 L259 542 L135 542 L135 687 C135 721 160 746 194 746 L259 746 Z " />
<glyph glyph-name="g" unicode="g" horiz-adv-x="617" d="M459 -225 C516 -225 547 -194 547 -137 L547 542 L525 542 L525 396 L519 396 C484 495 400 548 296 548 C153 548 49 450 49 271 C49 92 153 -6 296 -6 C400 -6 484 47 519 146 L525 146 L525 -134 C525 -180 501 -205 454 -205 L161 -205 C115 -205 91 -180 91 -134 L91 -50 L69 -50 L69 -137 C69 -194 100 -225 156 -225 L459 -225 Z M298 15 C166 15 71 104 71 271 C71 438 166 527 298 527 C430 527 526 439 526 271 C526 103 430 15 298 15 L298 15 Z " />
<glyph glyph-name="h" unicode="h" horiz-adv-x="524" d="M92 0 L92 305 C92 343 93 386 101 412 C123 481 183 527 265 527 C398 527 438 449 438 306 L438 0 L460 0 L460 309 C460 464 411 548 269 548 C186 548 125 505 96 442 L92 442 L92 767 L70 767 L70 0 L92 0 Z " />
<glyph glyph-name="i" unicode="i" horiz-adv-x="162" d="M80 715 C97 715 111 729 111 747 C111 764 97 778 80 778 C62 778 48 764 48 747 C48 729 62 715 80 715 L80 715 Z M92 0 L92 542 L70 542 L70 0 L92 0 Z " />
<glyph glyph-name="j" unicode="j" horiz-adv-x="177" d="M94 715 C111 715 125 729 125 747 C125 764 111 778 94 778 C76 778 62 764 62 747 C62 729 76 715 94 715 L94 715 Z M25 -225 C72 -225 105 -192 105 -145 L105 542 L83 542 L83 -145 C83 -179 58 -204 24 -204 L-39 -204 L-39 -225 L25 -225 Z " />
<glyph glyph-name="k" unicode="k" horiz-adv-x="521" d="M454 535 L454 542 L431 542 L97 197 L92 197 L92 767 L70 767 L70 0 L92 0 L92 162 L254 329 L257 329 L475 0 L497 0 L497 6 L271 347 L454 535 Z " />
<glyph glyph-name="l" unicode="l" horiz-adv-x="242" d="M213 0 L213 21 L149 21 C115 21 90 46 90 80 L90 767 L68 767 L68 80 C68 33 101 0 148 0 L213 0 Z " />
<glyph glyph-name="m" unicode="m" horiz-adv-x="870" d="M93 0 L93 311 C93 375 98 404 108 429 C134 491 190 527 265 527 C393 527 427 441 427 311 L427 0 L449 0 L449 311 C449 363 451 389 460 416 C483 486 543 527 622 527 C742 527 783 445 783 351 L783 0 L805 0 L805 352 C805 455 760 548 625 548 C535 548 466 500 444 413 L438 413 C419 504 361 548 269 548 C187 548 126 509 99 443 L93 443 L93 542 L71 542 L71 0 L93 0 Z " />
<glyph glyph-name="n" unicode="n" horiz-adv-x="524" d="M92 0 L92 305 C92 343 93 386 101 412 C123 481 183 527 265 527 C398 527 438 449 438 306 L438 0 L460 0 L460 309 C460 464 411 548 269 548 C186 548 125 505 96 442 L92 442 L92 542 L70 542 L70 0 L92 0 Z " />
<glyph glyph-name="o" unicode="o" horiz-adv-x="598" d="M299 -6 C443 -6 549 91 549 271 C549 451 443 548 299 548 C154 548 49 451 49 271 C49 91 154 -6 299 -6 L299 -6 Z M299 15 C167 15 71 104 71 271 C71 438 167 527 299 527 C431 527 527 438 527 271 C527 104 431 15 299 15 L299 15 Z " />
<glyph glyph-name="p" unicode="p" horiz-adv-x="617" d="M321 548 C218 548 133 495 98 396 L92 396 L92 542 L71 542 L71 -225 L92 -225 L92 146 L98 146 C133 47 218 -6 321 -6 C464 -6 568 92 568 271 C568 450 464 548 321 548 L321 548 Z M319 527 C451 527 546 438 546 271 C546 104 451 15 319 15 C187 15 92 103 92 271 C92 439 187 527 319 527 L319 527 Z " />
<glyph glyph-name="q" unicode="q" horiz-adv-x="617" d="M296 548 C153 548 49 450 49 271 C49 92 153 -6 296 -6 C399 -6 484 47 519 146 L525 146 L525 -225 L546 -225 L546 542 L525 542 L525 396 L519 396 C484 495 399 548 296 548 L296 548 Z M298 527 C430 527 525 439 525 271 C525 103 430 15 298 15 C166 15 71 104 71 271 C71 438 166 527 298 527 L298 527 Z " />
<glyph glyph-name="r" unicode="r" horiz-adv-x="346" d="M92 0 L92 385 C92 473 139 521 228 521 L328 521 L328 542 L230 542 C163 542 127 518 102 483 L92 483 L92 542 L70 542 L70 0 L92 0 Z " />
<glyph glyph-name="s" unicode="s" horiz-adv-x="512" d="M262 -6 C375 -6 462 43 462 146 C462 221 421 254 333 278 L216 310 C143 330 95 348 95 415 C95 491 160 528 249 528 C350 528 423 483 425 387 L447 387 C444 494 365 548 250 548 C155 548 73 508 73 415 C73 337 125 313 204 291 L329 257 C390 240 440 223 440 146 C440 53 364 14 264 14 C153 14 76 60 63 181 L41 181 C51 54 135 -6 262 -6 L262 -6 Z " />
<glyph glyph-name="t" unicode="t" horiz-adv-x="285" d="M259 542 L135 542 L135 767 L113 767 L113 542 L22 542 L22 521 L113 521 L113 80 C113 33 146 0 193 0 L259 0 L259 21 L194 21 C160 21 135 46 135 80 L135 521 L259 521 L259 542 Z " />
<glyph glyph-name="u" unicode="u" horiz-adv-x="525" d="M255 -6 C338 -6 399 37 428 100 L432 100 L432 0 L454 0 L454 542 L432 542 L432 237 C432 199 431 156 422 130 C401 61 340 15 259 15 C126 15 86 93 86 236 L86 542 L64 542 L64 233 C64 78 113 -6 255 -6 L255 -6 Z " />
<glyph glyph-name="v" unicode="v" horiz-adv-x="522" d="M281 0 L499 542 L475 542 L265 20 L255 20 L46 542 L22 542 L240 0 L281 0 Z " />
<glyph glyph-name="w" unicode="w" horiz-adv-x="878" d="M281 0 L434 522 L445 522 L597 0 L638 0 L855 542 L833 542 L625 22 L612 22 L460 542 L417 542 L265 22 L254 22 L46 542 L22 542 L242 0 L281 0 Z " />
<glyph glyph-name="x" unicode="x" horiz-adv-x="514" d="M51 0 L251 258 L262 258 L461 0 L489 0 L279 272 L488 542 L461 542 L262 286 L251 286 L52 542 L25 542 L234 272 L24 0 L51 0 Z " />
<glyph glyph-name="y" unicode="y" horiz-adv-x="522" d="M265 20 L255 20 L46 542 L22 542 L240 0 L257 0 L199 -142 C182 -184 151 -203 107 -203 L36 -203 L36 -224 L110 -224 C162 -224 198 -200 218 -151 L281 0 L499 542 L475 542 L265 20 Z " />
<glyph glyph-name="z" unicode="z" horiz-adv-x="486" d="M450 0 L450 21 L51 21 L51 23 L455 508 L455 542 L49 542 L49 521 L433 521 L433 516 L28 31 L28 0 L450 0 Z " />
<glyph glyph-name="braceleft" unicode="&#x7b;" horiz-adv-x="243" d="M234 -67 L234 -50 L195 -50 C141 -50 106 -12 106 55 L106 274 C106 309 84 334 44 350 L44 353 C87 365 106 393 106 445 L106 693 C106 764 135 795 205 795 L235 795 L235 811 L202 811 C123 811 87 773 87 693 L87 446 C87 395 68 374 26 365 L26 339 C65 327 87 305 87 273 L87 55 C87 -19 125 -67 191 -67 L234 -67 Z " />
<glyph glyph-name="bar" unicode="&#x7c;" horiz-adv-x="318" d="M168 -278 L168 832 L150 832 L150 -278 L168 -278 Z " />
<glyph glyph-name="braceright" unicode="&#x7d;" horiz-adv-x="243" d="M51 -67 C117 -67 156 -19 156 55 L156 273 C156 305 178 327 216 339 L216 365 C174 374 156 395 156 446 L156 693 C156 773 120 811 41 811 L8 811 L8 795 L38 795 C107 795 137 764 137 693 L137 445 C137 393 156 365 198 353 L198 350 C159 334 137 309 137 274 L137 55 C137 -12 102 -50 48 -50 L9 -50 L9 -67 L51 -67 Z " />
<glyph glyph-name="asciitilde" unicode="&#x7e;" horiz-adv-x="473" d="M332 190 C398 190 442 250 442 343 L424 343 C424 261 387 208 332 208 C244 208 245 352 138 352 C72 352 31 298 31 211 L49 211 C49 288 81 335 138 335 C232 335 231 190 332 190 L332 190 Z " />
<glyph glyph-name="uni00A0" unicode="&#xa0;" horiz-adv-x="306" d="" />
<glyph glyph-name="exclamdown" unicode="&#xa1;" horiz-adv-x="245" d="M131 548 C113 548 98 533 98 514 C98 496 113 482 131 482 C149 482 164 496 164 514 C164 533 149 548 131 548 L131 548 Z M119 -225 L142 -225 L142 374 L119 374 L119 -225 Z " />
<glyph glyph-name="cent" unicode="&#xa2;" horiz-adv-x="572" d="M312 528 C416 523 487 467 505 361 L527 361 C508 479 426 543 312 548 L312 642 L297 642 L297 548 C153 547 49 450 49 271 C49 92 153 -5 297 -6 L297 -101 L312 -101 L312 -6 C426 -1 508 63 527 181 L505 181 C487 75 416 19 312 14 L312 528 Z M70 271 C70 438 165 527 297 528 L297 14 C165 15 70 104 70 271 L70 271 Z " />
<glyph glyph-name="sterling" unicode="&#xa3;" horiz-adv-x="576" d="M77 29 C103 39 232 79 232 212 C232 288 203 342 178 400 L413 400 L413 420 L170 420 C156 457 145 497 145 547 C145 667 224 753 337 753 C426 753 492 700 506 609 L528 609 C513 712 438 773 338 773 C214 773 125 678 125 548 C125 498 136 457 150 420 L55 420 L55 400 L158 400 C183 341 212 287 212 212 C212 128 151 58 51 37 L51 0 L519 0 L519 20 L77 20 L77 29 Z " />
<glyph glyph-name="currency" unicode="&#xa4;" horiz-adv-x="751" d="M210 168 C304 81 447 81 541 168 L592 116 L605 129 L553 181 C639 273 639 418 553 510 L605 561 L592 574 L541 523 C447 609 304 609 211 523 L159 574 L146 561 L199 510 C112 418 112 273 199 181 L146 129 L159 116 L210 168 Z M217 187 C130 273 130 417 217 504 C304 592 447 592 534 504 C622 417 621 274 534 187 C447 99 304 99 217 187 L217 187 Z " />
<glyph glyph-name="yen" unicode="&#xa5;" horiz-adv-x="627" d="M592 767 L314 312 L312 312 L34 767 L11 767 L11 761 L293 302 L113 302 L113 284 L302 284 L302 146 L113 146 L113 128 L302 128 L302 0 L324 0 L324 128 L570 128 L570 146 L324 146 L324 284 L570 284 L570 302 L333 302 L615 761 L615 767 L592 767 Z " />
<glyph glyph-name="brokenbar" unicode="&#xa6;" horiz-adv-x="237" d="M128 369 L128 832 L109 832 L109 369 L128 369 Z M128 -278 L128 177 L109 177 L109 -278 L128 -278 Z " />
<glyph glyph-name="section" unicode="&#xa7;" horiz-adv-x="667" d="M526 87 C548 119 560 157 560 200 C560 451 127 377 127 601 C127 684 202 753 304 753 C436 753 522 684 522 547 L543 547 C542 697 446 772 304 772 C191 772 106 697 106 600 C106 558 119 526 141 500 C120 469 107 430 107 387 C107 136 540 210 540 -13 C540 -97 465 -166 363 -166 C231 -166 145 -97 145 40 L124 40 C124 -109 220 -185 363 -185 C476 -185 561 -109 561 -13 C561 29 548 61 526 87 L526 87 Z M127 388 C127 423 137 456 155 484 C269 378 539 387 539 199 C539 163 530 131 511 103 C397 210 127 200 127 388 L127 388 Z " />
<glyph glyph-name="dieresis" unicode="&#xa8;" horiz-adv-x="357" d="M88 715 C105 715 119 729 119 747 C119 764 105 778 88 778 C70 778 56 764 56 747 C56 729 70 715 88 715 L88 715 Z M271 715 C287 715 302 729 302 747 C302 764 287 778 271 778 C253 778 239 764 239 747 C239 729 253 715 271 715 L271 715 Z " />
<glyph glyph-name="copyright" unicode="&#xa9;" horiz-adv-x="886" d="M443 -7 C654 -7 826 158 826 383 C826 608 654 773 443 773 C232 773 59 608 59 383 C59 158 232 -7 443 -7 L443 -7 Z M443 11 C240 11 76 167 76 383 C76 599 240 756 443 756 C644 756 810 598 810 383 C810 169 644 11 443 11 L443 11 Z M445 114 C576 114 650 199 671 312 L653 312 C633 210 566 130 445 130 C305 130 231 244 231 383 C231 523 303 636 445 636 C566 636 633 555 653 455 L671 455 C650 568 574 652 445 652 C291 652 213 528 213 383 C213 238 291 114 445 114 L445 114 Z " />
<glyph glyph-name="ordfeminine" unicode="&#xaa;" horiz-adv-x="336" d="M276 713 C259 753 218 773 164 773 C91 773 47 735 41 676 L58 676 C65 726 98 757 164 757 C234 757 267 719 267 658 L267 628 L141 628 C76 628 34 601 34 533 C34 476 76 440 140 440 C199 440 242 468 265 523 L269 523 L271 443 L286 443 L286 654 C286 675 282 699 276 713 L276 713 Z M143 456 C88 456 51 485 51 533 C51 590 86 613 142 613 L267 613 L267 600 C267 515 224 456 143 456 L143 456 Z " />
<glyph glyph-name="guillemotleft" unicode="&#xab;" horiz-adv-x="491" d="M250 115 L75 272 L250 428 L250 449 L50 272 L250 93 L250 115 Z M427 115 L252 272 L427 428 L427 449 L227 272 L427 93 L427 115 Z " />
<glyph glyph-name="logicalnot" unicode="&#xac;" horiz-adv-x="532" d="M501 6 L501 280 L31 280 L31 263 L484 263 L484 6 L501 6 Z " />
<glyph glyph-name="uni00AD" unicode="&#xad;" horiz-adv-x="399" d="M336 262 L336 280 L63 280 L63 262 L336 262 Z " />
<glyph glyph-name="registered" unicode="&#xae;" horiz-adv-x="606" d="M303 267 C440 267 553 371 553 521 C553 671 441 776 303 776 C164 776 53 671 53 521 C53 371 165 267 303 267 L303 267 Z M303 281 C173 281 67 379 67 521 C67 663 172 762 303 762 C433 762 539 663 539 521 C539 379 432 281 303 281 L303 281 Z M242 365 L242 510 L302 510 C310 510 317 511 324 512 L408 365 L424 365 L339 513 C385 523 407 552 407 593 C407 646 370 678 306 678 L228 678 L228 365 L242 365 Z M242 663 L306 663 C361 663 392 638 392 593 C392 548 362 523 307 523 L242 523 L242 663 Z " />
<glyph glyph-name="macron" unicode="&#xaf;" horiz-adv-x="418" d="M355 695 L355 711 L63 711 L63 695 L355 695 Z " />
<glyph glyph-name="degree" unicode="&#xb0;" horiz-adv-x="528" d="M264 466 C348 466 417 534 417 619 C417 703 348 772 264 772 C179 772 111 703 111 619 C111 534 179 466 264 466 L264 466 Z M264 483 C188 483 128 543 128 619 C128 695 188 755 264 755 C339 755 400 695 400 619 C400 543 339 483 264 483 L264 483 Z " />
<glyph glyph-name="plusminus" unicode="&#xb1;" horiz-adv-x="600" d="M310 237 L310 354 L570 354 L570 373 L310 373 L310 489 L291 489 L291 373 L31 373 L31 354 L291 354 L291 237 L310 237 Z M570 169 L570 188 L31 188 L31 169 L570 169 Z " />
<glyph glyph-name="uni00B2" unicode="&#xb2;" horiz-adv-x="364" d="M312 307 L312 320 L66 320 L67 332 L259 554 C285 584 300 619 300 650 C300 716 246 771 178 771 C110 771 55 716 55 649 L69 649 C69 709 117 758 178 758 C238 758 286 710 286 650 C286 622 274 592 249 564 L54 337 L54 307 L312 307 Z " />
<glyph glyph-name="uni00B3" unicode="&#xb3;" horiz-adv-x="418" d="M206 304 C295 304 358 355 358 433 C358 516 285 544 221 551 L221 552 C274 559 333 585 333 659 C333 724 278 771 205 771 C129 771 75 723 75 653 L89 653 C89 716 135 758 205 758 C272 758 320 716 320 658 C320 573 238 557 183 557 L161 557 L161 545 L184 545 C251 545 344 525 344 434 C344 363 290 317 206 317 C121 317 67 362 67 437 L54 437 C54 355 114 304 206 304 L206 304 Z " />
<glyph glyph-name="acute" unicode="&#xb4;" horiz-adv-x="173" d="M37 613 L156 767 L132 767 L17 613 L37 613 Z " />
<glyph glyph-name="uni00B5" unicode="&#xb5;" horiz-adv-x="658" d="M168 -198 L168 102 C192 31 248 -6 330 -6 C417 -6 483 40 509 117 L509 0 L529 0 L529 542 L509 542 L509 202 C509 86 439 14 333 14 C226 14 170 78 170 201 L170 542 L150 542 L150 -198 L168 -198 Z " />
<glyph glyph-name="paragraph" unicode="&#xb6;" horiz-adv-x="628" d="M341 -133 L341 767 L324 767 C197 767 78 688 78 552 C78 417 197 338 324 338 L324 -133 L341 -133 Z M478 -133 L478 767 L461 767 L461 -133 L478 -133 Z " />
<glyph glyph-name="periodcentered" unicode="&#xb7;" horiz-adv-x="165" d="M82 343 C100 343 115 358 115 376 C115 395 100 409 82 409 C64 409 49 395 49 376 C49 358 64 343 82 343 L82 343 Z " />
<glyph glyph-name="cedilla" unicode="&#xb8;" horiz-adv-x="213" d="M85 -224 C136 -224 172 -194 172 -153 C172 -122 154 -99 121 -88 C114 -86 105 -84 96 -83 L146 8 L131 9 L75 -95 C88 -95 102 -97 114 -101 C139 -109 157 -127 157 -153 C157 -186 129 -209 87 -209 C65 -209 39 -203 21 -187 L13 -200 C34 -218 61 -224 85 -224 L85 -224 Z " />
<glyph glyph-name="uni00B9" unicode="&#xb9;" horiz-adv-x="258" d="M166 717 C166 698 156 691 136 691 L43 691 L43 678 L165 678 L165 307 L179 307 L179 767 L166 767 L166 717 Z " />
<glyph glyph-name="ordmasculine" unicode="&#xba;" horiz-adv-x="365" d="M182 439 C268 439 334 496 334 604 C334 712 268 770 182 770 C97 770 32 712 32 604 C32 496 97 439 182 439 L182 439 Z M182 454 C107 454 49 506 49 604 C49 703 107 755 182 755 C260 755 317 703 317 604 C317 506 260 454 182 454 L182 454 Z " />
<glyph glyph-name="guillemotright" unicode="&#xbb;" horiz-adv-x="491" d="M264 272 L64 449 L64 428 L239 272 L64 115 L64 93 L264 272 Z M441 272 L241 449 L241 428 L416 272 L241 115 L241 93 L441 272 Z " />
<glyph glyph-name="onequarter" unicode="&#xbc;" horiz-adv-x="856" d="M209 767 L195 767 L195 717 C195 698 186 691 166 691 L73 691 L73 678 L195 678 L195 307 L209 307 L209 767 Z M209 0 L224 0 L629 767 L614 767 L209 0 Z M708 460 L688 460 L450 126 L450 110 L694 110 L694 0 L708 0 L708 110 L783 110 L783 123 L708 123 L708 460 Z M463 123 L463 124 L693 445 L694 445 L694 123 L463 123 Z " />
<glyph glyph-name="onehalf" unicode="&#xbd;" horiz-adv-x="859" d="M209 307 L209 767 L195 767 L195 717 C195 698 186 691 166 691 L73 691 L73 678 L195 678 L195 307 L209 307 Z M170 0 L184 0 L589 767 L575 767 L170 0 Z M542 25 L734 247 C760 277 774 312 774 343 C774 409 720 464 652 464 C585 464 530 409 530 342 L543 342 C543 402 591 451 652 451 C713 451 761 403 761 343 C761 315 749 285 724 257 L528 30 L528 0 L787 0 L787 13 L541 13 L542 25 Z " />
<glyph glyph-name="threequarters" unicode="&#xbe;" horiz-adv-x="945" d="M225 304 C314 304 377 355 377 433 C377 516 304 544 239 551 L239 552 C293 559 353 584 353 659 C353 723 297 770 223 770 C148 770 94 723 94 653 L108 653 C108 716 154 758 223 758 C292 758 338 717 338 658 C338 574 256 557 202 557 L180 557 L180 545 L203 545 C269 545 362 525 362 433 C362 362 309 316 225 316 C140 316 86 362 86 436 L72 436 C72 355 133 304 225 304 L225 304 Z M718 767 L703 767 L298 0 L313 0 L718 767 Z M797 110 L872 110 L872 123 L797 123 L797 460 L777 460 L539 126 L539 110 L783 110 L783 0 L797 0 L797 110 Z M781 446 L783 446 L783 123 L553 123 L553 124 L781 446 Z " />
<glyph glyph-name="questiondown" unicode="&#xbf;" horiz-adv-x="349" d="M242 548 C225 548 209 533 209 514 C209 496 225 482 242 482 C261 482 276 496 276 514 C276 533 261 548 242 548 L242 548 Z M231 374 L231 217 C231 37 29 103 29 -63 C29 -111 49 -151 84 -180 C119 -207 173 -225 246 -225 L311 -225 L311 -204 L247 -204 C183 -204 132 -189 99 -164 C68 -139 51 -107 51 -63 C51 92 254 23 254 217 L254 374 L231 374 Z " />
<glyph glyph-name="Agrave" unicode="&#xc0;" horiz-adv-x="603" d="M196 992 L174 992 L292 838 L311 838 L196 992 Z M281 767 L20 6 L20 0 L42 0 L110 200 L493 200 L562 0 L584 0 L584 6 L323 767 L281 767 Z M296 744 L307 744 L486 221 L117 221 L296 744 Z " />
<glyph glyph-name="Aacute" unicode="&#xc1;" horiz-adv-x="603" d="M407 992 L292 838 L312 838 L431 992 L407 992 Z M281 767 L20 6 L20 0 L42 0 L110 200 L493 200 L562 0 L584 0 L584 6 L323 767 L281 767 Z M296 744 L307 744 L486 221 L117 221 L296 744 Z " />
<glyph glyph-name="Acircumflex" unicode="&#xc2;" horiz-adv-x="603" d="M433 838 L459 838 L314 992 L289 992 L145 838 L170 838 L302 981 L433 838 Z M281 767 L20 6 L20 0 L42 0 L110 200 L493 200 L562 0 L584 0 L584 6 L323 767 L281 767 Z M296 744 L307 744 L486 221 L117 221 L296 744 Z " />
<glyph glyph-name="Atilde" unicode="&#xc3;" horiz-adv-x="603" d="M224 980 C301 981 289 868 384 868 C434 868 467 919 467 992 L451 992 C451 927 423 885 384 885 C304 885 315 998 225 997 C170 998 136 954 136 882 L152 882 C152 943 179 981 224 980 L224 980 Z M281 767 L20 6 L20 0 L42 0 L110 200 L493 200 L562 0 L584 0 L584 6 L323 767 L281 767 Z M296 744 L307 744 L486 221 L117 221 L296 744 Z " />
<glyph glyph-name="Adieresis" unicode="&#xc4;" horiz-adv-x="603" d="M211 827 C228 827 242 841 242 858 C242 876 228 889 211 889 C193 889 179 876 179 858 C179 841 193 827 211 827 L211 827 Z M394 827 C410 827 425 841 425 858 C425 876 410 889 394 889 C376 889 362 876 362 858 C362 841 376 827 394 827 L394 827 Z M281 767 L20 6 L20 0 L42 0 L110 200 L493 200 L562 0 L584 0 L584 6 L323 767 L281 767 Z M296 744 L307 744 L486 221 L117 221 L296 744 Z " />
<glyph glyph-name="Aring" unicode="&#xc5;" horiz-adv-x="603" d="M328 754 C364 765 390 799 390 839 C390 887 350 928 302 928 C253 928 213 888 213 839 C213 799 240 765 276 754 L20 6 L20 0 L42 0 L110 200 L493 200 L562 0 L584 0 L584 6 L328 754 Z M229 839 C229 879 261 912 302 912 C343 912 375 879 375 839 C375 802 349 773 314 767 L289 767 C254 773 229 801 229 839 L229 839 Z M296 744 L307 744 L486 221 L117 221 L296 744 Z " />
<glyph glyph-name="AE" unicode="&#xc6;" horiz-adv-x="963" d="M469 386 L860 386 L860 407 L469 407 L469 746 L918 746 L918 767 L281 767 L20 6 L20 0 L42 0 L110 200 L446 200 L446 0 L940 0 L940 21 L469 21 L469 386 Z M297 746 L446 746 L446 221 L118 221 L297 746 Z " />
<glyph glyph-name="Ccedilla" unicode="&#xc7;" horiz-adv-x="754" d="M384 16 C196 16 71 163 71 384 C71 605 196 751 384 751 C541 751 654 650 687 488 L710 488 C676 662 553 773 384 773 C183 773 49 617 49 384 C49 158 175 4 365 -6 L317 -95 C330 -95 344 -97 356 -101 C381 -109 399 -127 399 -153 C399 -186 371 -209 329 -209 C307 -209 281 -203 263 -187 L255 -200 C276 -218 303 -224 327 -224 C378 -224 414 -194 414 -153 C414 -122 396 -99 363 -88 C356 -86 347 -84 338 -83 L380 -6 L384 -6 C553 -6 676 105 710 279 L687 279 C654 117 540 16 384 16 L384 16 Z " />
<glyph glyph-name="Egrave" unicode="&#xc8;" horiz-adv-x="594" d="M334 838 L219 992 L197 992 L315 838 L334 838 Z M572 0 L572 21 L100 21 L100 386 L492 386 L492 407 L100 407 L100 746 L549 746 L549 767 L78 767 L78 0 L572 0 Z " />
<glyph glyph-name="Eacute" unicode="&#xc9;" horiz-adv-x="594" d="M335 838 L454 992 L430 992 L315 838 L335 838 Z M572 0 L572 21 L100 21 L100 386 L492 386 L492 407 L100 407 L100 746 L549 746 L549 767 L78 767 L78 0 L572 0 Z " />
<glyph glyph-name="Ecircumflex" unicode="&#xca;" horiz-adv-x="594" d="M456 838 L482 838 L337 992 L312 992 L168 838 L193 838 L325 981 L456 838 Z M100 386 L492 386 L492 407 L100 407 L100 746 L549 746 L549 767 L78 767 L78 0 L572 0 L572 21 L100 21 L100 386 Z " />
<glyph glyph-name="Edieresis" unicode="&#xcb;" horiz-adv-x="594" d="M234 827 C251 827 265 841 265 858 C265 876 251 889 234 889 C216 889 202 876 202 858 C202 841 216 827 234 827 L234 827 Z M417 827 C433 827 448 841 448 858 C448 876 433 889 417 889 C399 889 385 876 385 858 C385 841 399 827 417 827 L417 827 Z M572 0 L572 21 L100 21 L100 386 L492 386 L492 407 L100 407 L100 746 L549 746 L549 767 L78 767 L78 0 L572 0 Z " />
<glyph glyph-name="Igrave" unicode="&#xcc;" horiz-adv-x="178" d="M98 838 L-17 992 L-39 992 L79 838 L98 838 Z M100 0 L100 767 L78 767 L78 0 L100 0 Z " />
<glyph glyph-name="Iacute" unicode="&#xcd;" horiz-adv-x="178" d="M98 838 L217 992 L193 992 L78 838 L98 838 Z M100 0 L100 767 L78 767 L78 0 L100 0 Z " />
<glyph glyph-name="Icircumflex" unicode="&#xce;" horiz-adv-x="178" d="M75 992 L-69 838 L-44 838 L88 981 L219 838 L245 838 L100 992 L75 992 Z M100 0 L100 767 L78 767 L78 0 L100 0 Z " />
<glyph glyph-name="Idieresis" unicode="&#xcf;" horiz-adv-x="178" d="M-3 827 C14 827 28 841 28 858 C28 876 14 889 -3 889 C-21 889 -35 876 -35 858 C-35 841 -21 827 -3 827 L-3 827 Z M180 827 C196 827 211 841 211 858 C211 876 196 889 180 889 C162 889 148 876 148 858 C148 841 162 827 180 827 L180 827 Z M100 0 L100 767 L78 767 L78 0 L100 0 Z " />
<glyph glyph-name="Eth" unicode="&#xd0;" horiz-adv-x="758" d="M624 651 C559 727 457 767 323 767 L77 767 L77 393 L28 393 L28 375 L77 375 L77 0 L322 0 C451 0 551 37 618 108 C677 171 709 262 709 378 C709 494 681 585 624 651 L624 651 Z M603 124 C540 56 445 21 322 21 L100 21 L100 375 L282 375 L282 393 L100 393 L100 746 L323 746 C449 746 546 710 608 637 C661 576 687 489 687 378 C687 270 658 184 603 124 L603 124 Z " />
<glyph glyph-name="Ntilde" unicode="&#xd1;" horiz-adv-x="678" d="M421 868 C471 868 504 919 504 992 L488 992 C488 927 460 885 421 885 C341 885 352 998 262 997 C207 998 173 954 173 882 L189 882 C189 943 216 981 261 980 C338 981 326 868 421 868 L421 868 Z M100 0 L100 747 L110 747 L553 0 L600 0 L600 767 L577 767 L577 20 L567 20 L124 767 L78 767 L78 0 L100 0 Z " />
<glyph glyph-name="Ograve" unicode="&#xd2;" horiz-adv-x="770" d="M393 838 L278 992 L256 992 L374 838 L393 838 Z M384 -6 C585 -6 720 151 720 384 C720 617 585 773 384 773 C183 773 49 617 49 384 C49 151 183 -6 384 -6 L384 -6 Z M384 16 C196 16 71 163 71 384 C71 605 196 751 384 751 C572 751 698 605 698 384 C698 163 572 16 384 16 L384 16 Z " />
<glyph glyph-name="Oacute" unicode="&#xd3;" horiz-adv-x="770" d="M394 838 L513 992 L489 992 L374 838 L394 838 Z M384 -6 C585 -6 720 151 720 384 C720 617 585 773 384 773 C183 773 49 617 49 384 C49 151 183 -6 384 -6 L384 -6 Z M384 16 C196 16 71 163 71 384 C71 605 196 751 384 751 C572 751 698 605 698 384 C698 163 572 16 384 16 L384 16 Z " />
<glyph glyph-name="Ocircumflex" unicode="&#xd4;" horiz-adv-x="770" d="M515 838 L541 838 L396 992 L371 992 L227 838 L252 838 L384 981 L515 838 Z M384 773 C183 773 49 617 49 384 C49 151 183 -6 384 -6 C585 -6 720 151 720 384 C720 617 585 773 384 773 L384 773 Z M384 16 C196 16 71 163 71 384 C71 605 196 751 384 751 C572 751 698 605 698 384 C698 163 572 16 384 16 L384 16 Z " />
<glyph glyph-name="Otilde" unicode="&#xd5;" horiz-adv-x="770" d="M466 868 C516 868 549 919 549 992 L533 992 C533 927 505 885 466 885 C386 885 397 998 307 997 C252 998 218 954 218 882 L234 882 C234 943 261 981 306 980 C383 981 371 868 466 868 L466 868 Z M384 -6 C585 -6 720 151 720 384 C720 617 585 773 384 773 C183 773 49 617 49 384 C49 151 183 -6 384 -6 L384 -6 Z M384 16 C196 16 71 163 71 384 C71 605 196 751 384 751 C572 751 698 605 698 384 C698 163 572 16 384 16 L384 16 Z " />
<glyph glyph-name="Odieresis" unicode="&#xd6;" horiz-adv-x="770" d="M293 827 C310 827 324 841 324 858 C324 876 310 889 293 889 C275 889 261 876 261 858 C261 841 275 827 293 827 L293 827 Z M476 827 C492 827 507 841 507 858 C507 876 492 889 476 889 C458 889 444 876 444 858 C444 841 458 827 476 827 L476 827 Z M384 -6 C585 -6 720 151 720 384 C720 617 585 773 384 773 C183 773 49 617 49 384 C49 151 183 -6 384 -6 L384 -6 Z M384 16 C196 16 71 163 71 384 C71 605 196 751 384 751 C572 751 698 605 698 384 C698 163 572 16 384 16 L384 16 Z " />
<glyph glyph-name="multiply" unicode="&#xd7;" horiz-adv-x="456" d="M228 258 L412 75 L425 87 L241 271 L425 455 L412 468 L228 285 L44 468 L31 455 L214 271 L31 87 L44 75 L228 258 Z " />
<glyph glyph-name="Oslash" unicode="&#xd8;" horiz-adv-x="770" d="M642 771 L627 782 L581 710 C527 750 460 773 384 773 C183 773 49 617 49 384 C49 248 95 138 173 70 L126 -4 L141 -13 L187 58 C240 17 307 -6 384 -6 C585 -6 720 151 720 384 C720 520 674 630 595 698 L642 771 Z M71 384 C71 605 196 751 384 751 C456 751 519 730 569 691 L185 88 C113 153 71 256 71 384 L71 384 Z M384 16 C312 16 249 38 199 77 L583 679 C656 615 698 512 698 384 C698 163 572 16 384 16 L384 16 Z " />
<glyph glyph-name="Ugrave" unicode="&#xd9;" horiz-adv-x="661" d="M340 838 L225 992 L203 992 L321 838 L340 838 Z M331 -6 C501 -6 590 74 590 253 L590 767 L567 767 L567 254 C567 91 490 16 331 16 C174 16 94 87 94 254 L94 767 L71 767 L71 253 C71 78 157 -6 331 -6 L331 -6 Z " />
<glyph glyph-name="Uacute" unicode="&#xda;" horiz-adv-x="661" d="M340 838 L459 992 L435 992 L320 838 L340 838 Z M331 -6 C501 -6 590 74 590 253 L590 767 L567 767 L567 254 C567 91 490 16 331 16 C174 16 94 87 94 254 L94 767 L71 767 L71 253 C71 78 157 -6 331 -6 L331 -6 Z " />
<glyph glyph-name="Ucircumflex" unicode="&#xdb;" horiz-adv-x="661" d="M461 838 L487 838 L342 992 L317 992 L173 838 L198 838 L330 981 L461 838 Z M567 254 C567 91 490 16 331 16 C174 16 94 87 94 254 L94 767 L71 767 L71 253 C71 78 157 -6 331 -6 C501 -6 590 74 590 253 L590 767 L567 767 L567 254 Z " />
<glyph glyph-name="Udieresis" unicode="&#xdc;" horiz-adv-x="661" d="M239 827 C256 827 270 841 270 858 C270 876 256 889 239 889 C221 889 207 876 207 858 C207 841 221 827 239 827 L239 827 Z M422 827 C438 827 453 841 453 858 C453 876 438 889 422 889 C404 889 390 876 390 858 C390 841 404 827 422 827 L422 827 Z M331 -6 C501 -6 590 74 590 253 L590 767 L567 767 L567 254 C567 91 490 16 331 16 C174 16 94 87 94 254 L94 767 L71 767 L71 253 C71 78 157 -6 331 -6 L331 -6 Z " />
<glyph glyph-name="Yacute" unicode="&#xdd;" horiz-adv-x="627" d="M322 838 L441 992 L417 992 L302 838 L322 838 Z M324 0 L324 287 L615 761 L615 767 L592 767 L314 312 L312 312 L34 767 L11 767 L11 761 L302 287 L302 0 L324 0 Z " />
<glyph glyph-name="Thorn" unicode="&#xde;" horiz-adv-x="614" d="M146 0 L146 236 L270 236 C377 236 445 252 488 288 C529 320 557 375 557 444 C557 514 529 569 488 601 C445 637 377 653 270 653 L146 653 L146 767 L123 767 L123 0 L146 0 Z M146 632 L268 632 C372 632 432 618 475 583 C514 552 534 504 534 444 C534 385 514 337 475 306 C432 270 372 257 268 257 L146 257 L146 632 Z " />
<glyph glyph-name="germandbls" unicode="&#xdf;" horiz-adv-x="657" d="M375 310 C303 330 254 348 254 415 C254 491 320 528 409 528 L521 528 L521 545 C521 660 474 773 311 773 C124 773 99 631 99 504 L99 0 L121 0 L121 504 C121 622 141 752 311 752 C457 752 497 650 499 548 L410 548 C315 548 232 508 232 415 C232 337 285 313 364 291 L488 257 C549 240 600 223 600 146 C600 53 524 14 423 14 C314 14 237 62 223 165 L201 165 C213 54 295 -6 422 -6 C534 -6 622 43 622 146 C622 221 581 254 493 278 L375 310 Z " />
<glyph glyph-name="agrave" unicode="&#xe0;" horiz-adv-x="536" d="M168 767 L146 767 L264 613 L283 613 L168 767 Z M452 448 C424 511 360 548 265 548 C141 548 74 486 63 387 L85 387 C95 475 154 529 265 529 C388 529 445 463 447 356 L448 304 L226 304 C119 304 51 258 51 149 C51 53 119 -6 229 -6 C328 -6 403 43 440 139 L447 139 L447 0 L469 0 L469 353 C469 387 464 419 452 448 L452 448 Z M230 14 C132 14 73 65 73 149 C73 247 130 285 228 285 L448 285 L447 261 C443 116 371 14 230 14 L230 14 Z " />
<glyph glyph-name="aacute" unicode="&#xe1;" horiz-adv-x="536" d="M378 767 L263 613 L283 613 L402 767 L378 767 Z M452 448 C424 511 360 548 265 548 C141 548 74 486 63 387 L85 387 C95 475 154 529 265 529 C388 529 445 463 447 356 L448 304 L226 304 C119 304 51 258 51 149 C51 53 119 -6 229 -6 C328 -6 403 43 440 139 L447 139 L447 0 L469 0 L469 353 C469 387 464 419 452 448 L452 448 Z M230 14 C132 14 73 65 73 149 C73 247 130 285 228 285 L448 285 L447 261 C443 116 371 14 230 14 L230 14 Z " />
<glyph glyph-name="acircumflex" unicode="&#xe2;" horiz-adv-x="536" d="M405 613 L431 613 L286 767 L261 767 L117 613 L142 613 L274 756 L405 613 Z M452 448 C424 511 360 548 265 548 C141 548 74 486 63 387 L85 387 C95 475 154 529 265 529 C388 529 445 463 447 356 L448 304 L226 304 C119 304 51 258 51 149 C51 53 119 -6 229 -6 C328 -6 403 43 440 139 L447 139 L447 0 L469 0 L469 353 C469 387 464 419 452 448 L452 448 Z M230 14 C132 14 73 65 73 149 C73 247 130 285 228 285 L448 285 L447 261 C443 116 371 14 230 14 L230 14 Z " />
<glyph glyph-name="atilde" unicode="&#xe3;" horiz-adv-x="536" d="M196 755 C273 756 261 643 356 643 C406 643 439 694 439 767 L423 767 C423 702 395 660 356 660 C276 660 287 773 197 772 C142 773 108 729 108 657 L124 657 C124 718 151 756 196 755 L196 755 Z M452 448 C424 511 360 548 265 548 C141 548 74 486 63 387 L85 387 C95 475 154 529 265 529 C388 529 445 463 447 356 L448 304 L226 304 C119 304 51 258 51 149 C51 53 119 -6 229 -6 C328 -6 403 43 440 139 L447 139 L447 0 L469 0 L469 353 C469 387 464 419 452 448 L452 448 Z M230 14 C132 14 73 65 73 149 C73 247 130 285 228 285 L448 285 L447 261 C443 116 371 14 230 14 L230 14 Z " />
<glyph glyph-name="adieresis" unicode="&#xe4;" horiz-adv-x="536" d="M182 715 C199 715 213 729 213 747 C213 764 199 778 182 778 C164 778 150 764 150 747 C150 729 164 715 182 715 L182 715 Z M365 715 C381 715 396 729 396 747 C396 764 381 778 365 778 C347 778 333 764 333 747 C333 729 347 715 365 715 L365 715 Z M452 448 C424 511 360 548 265 548 C141 548 74 486 63 387 L85 387 C95 475 154 529 265 529 C388 529 445 463 447 356 L448 304 L226 304 C119 304 51 258 51 149 C51 53 119 -6 229 -6 C328 -6 403 43 440 139 L447 139 L447 0 L469 0 L469 353 C469 387 464 419 452 448 L452 448 Z M230 14 C132 14 73 65 73 149 C73 247 130 285 228 285 L448 285 L447 261 C443 116 371 14 230 14 L230 14 Z " />
<glyph glyph-name="aring" unicode="&#xe5;" horiz-adv-x="536" d="M274 605 C323 605 362 644 362 693 C362 742 322 782 274 782 C225 782 185 743 185 693 C185 644 224 605 274 605 L274 605 Z M274 766 C315 766 347 733 347 693 C347 653 314 621 274 621 C232 621 201 652 201 693 C201 733 233 766 274 766 L274 766 Z M452 448 C424 511 360 548 265 548 C141 548 74 486 63 387 L85 387 C95 475 154 529 265 529 C388 529 445 463 447 356 L448 304 L226 304 C119 304 51 258 51 149 C51 53 119 -6 229 -6 C328 -6 403 43 440 139 L447 139 L447 0 L469 0 L469 353 C469 387 464 419 452 448 L452 448 Z M230 14 C132 14 73 65 73 149 C73 247 130 285 228 285 L448 285 L447 261 C443 116 371 14 230 14 L230 14 Z " />
<glyph glyph-name="ae" unicode="&#xe6;" horiz-adv-x="986" d="M941 289 C934 457 830 548 691 548 C587 548 504 498 465 403 C462 419 457 434 451 448 C424 511 360 548 265 548 C141 548 74 486 63 387 L84 387 C95 476 153 529 265 529 C388 529 446 464 447 356 L447 343 C445 330 443 317 442 304 L226 304 C119 304 51 258 51 149 C51 53 119 -6 230 -6 C348 -6 428 64 453 172 C485 56 576 -6 691 -6 C803 -6 891 53 926 163 L902 163 C870 66 791 15 691 15 C578 15 492 80 469 203 L469 285 L941 285 L941 289 Z M691 527 C814 527 906 450 917 304 L469 304 L469 339 C492 462 578 527 691 527 L691 527 Z M230 13 C132 13 72 65 72 149 C72 247 130 285 227 285 L441 285 L441 271 C441 253 442 236 444 220 C429 97 358 13 230 13 L230 13 Z " />
<glyph glyph-name="ccedilla" unicode="&#xe7;" horiz-adv-x="573" d="M299 15 C167 15 71 103 71 271 C71 439 167 527 299 527 C410 527 486 471 505 361 L527 361 C508 483 420 548 299 548 C154 548 49 451 49 271 C49 96 149 -1 288 -6 L240 -95 C253 -95 267 -97 279 -101 C304 -109 322 -127 322 -153 C322 -186 294 -209 252 -209 C230 -209 204 -203 186 -187 L178 -200 C199 -218 226 -224 250 -224 C301 -224 337 -194 337 -153 C337 -122 319 -99 286 -88 C279 -86 270 -84 261 -83 L303 -6 C422 -4 508 60 527 181 L505 181 C486 71 410 15 299 15 L299 15 Z " />
<glyph glyph-name="egrave" unicode="&#xe8;" horiz-adv-x="594" d="M193 767 L171 767 L289 613 L308 613 L193 767 Z M549 289 C541 457 438 548 299 548 C154 548 49 451 49 271 C49 91 154 -6 299 -6 C411 -6 499 53 534 163 L510 163 C478 66 398 15 299 15 C167 15 71 104 71 271 L71 285 L549 285 L549 289 Z M299 527 C422 527 514 450 525 304 L72 304 C84 450 176 527 299 527 L299 527 Z " />
<glyph glyph-name="eacute" unicode="&#xe9;" horiz-adv-x="594" d="M403 767 L288 613 L308 613 L427 767 L403 767 Z M549 289 C541 457 438 548 299 548 C154 548 49 451 49 271 C49 91 154 -6 299 -6 C411 -6 499 53 534 163 L510 163 C478 66 398 15 299 15 C167 15 71 104 71 271 L71 285 L549 285 L549 289 Z M299 527 C422 527 514 450 525 304 L72 304 C84 450 176 527 299 527 L299 527 Z " />
<glyph glyph-name="ecircumflex" unicode="&#xea;" horiz-adv-x="594" d="M429 613 L455 613 L310 767 L285 767 L141 613 L166 613 L298 756 L429 613 Z M549 289 C541 457 438 548 299 548 C154 548 49 451 49 271 C49 91 154 -6 299 -6 C411 -6 499 53 534 163 L510 163 C478 66 398 15 299 15 C167 15 71 104 71 271 L71 285 L549 285 L549 289 Z M299 527 C422 527 514 450 525 304 L72 304 C84 450 176 527 299 527 L299 527 Z " />
<glyph glyph-name="edieresis" unicode="&#xeb;" horiz-adv-x="594" d="M207 715 C224 715 238 729 238 747 C238 764 224 778 207 778 C189 778 175 764 175 747 C175 729 189 715 207 715 L207 715 Z M390 715 C406 715 421 729 421 747 C421 764 406 778 390 778 C372 778 358 764 358 747 C358 729 372 715 390 715 L390 715 Z M549 289 C541 457 438 548 299 548 C154 548 49 451 49 271 C49 91 154 -6 299 -6 C411 -6 499 53 534 163 L510 163 C478 66 398 15 299 15 C167 15 71 104 71 271 L71 285 L549 285 L549 289 Z M299 527 C422 527 514 450 525 304 L72 304 C84 450 176 527 299 527 L299 527 Z " />
<glyph glyph-name="igrave" unicode="&#xec;" horiz-adv-x="162" d="M89 613 L-26 767 L-48 767 L70 613 L89 613 Z M92 0 L92 542 L70 542 L70 0 L92 0 Z " />
<glyph glyph-name="iacute" unicode="&#xed;" horiz-adv-x="162" d="M90 613 L209 767 L185 767 L70 613 L90 613 Z M92 0 L92 542 L70 542 L70 0 L92 0 Z " />
<glyph glyph-name="icircumflex" unicode="&#xee;" horiz-adv-x="162" d="M67 767 L-77 613 L-52 613 L80 756 L211 613 L237 613 L92 767 L67 767 Z M92 0 L92 542 L70 542 L70 0 L92 0 Z " />
<glyph glyph-name="idieresis" unicode="&#xef;" horiz-adv-x="162" d="M-11 715 C6 715 20 729 20 747 C20 764 6 778 -11 778 C-29 778 -43 764 -43 747 C-43 729 -29 715 -11 715 L-11 715 Z M172 715 C188 715 203 729 203 747 C203 764 188 778 172 778 C154 778 140 764 140 747 C140 729 154 715 172 715 L172 715 Z M92 0 L92 542 L70 542 L70 0 L92 0 Z " />
<glyph glyph-name="eth" unicode="&#xf0;" horiz-adv-x="590" d="M349 635 L401 635 L401 653 L339 653 L273 767 L250 767 L250 761 L313 653 L60 653 L60 635 L323 635 L441 431 C401 462 351 480 299 480 C166 480 56 389 56 236 C56 85 166 -6 299 -6 C430 -6 543 81 543 234 C543 281 526 330 503 370 L349 635 Z M299 16 C177 16 79 96 79 238 C79 378 177 459 299 459 C420 459 520 360 520 236 C520 95 423 16 299 16 L299 16 Z " />
<glyph glyph-name="ntilde" unicode="&#xf1;" horiz-adv-x="524" d="M347 643 C397 643 430 694 430 767 L414 767 C414 702 386 660 347 660 C267 660 278 773 188 772 C133 773 99 729 99 657 L115 657 C115 718 142 756 187 755 C264 756 252 643 347 643 L347 643 Z M92 0 L92 305 C92 343 93 386 101 412 C123 481 183 527 265 527 C398 527 438 449 438 306 L438 0 L460 0 L460 309 C460 464 411 548 269 548 C186 548 125 505 96 442 L92 442 L92 542 L70 542 L70 0 L92 0 Z " />
<glyph glyph-name="ograve" unicode="&#xf2;" horiz-adv-x="598" d="M308 613 L193 767 L171 767 L289 613 L308 613 Z M299 -6 C443 -6 549 91 549 271 C549 451 443 548 299 548 C154 548 49 451 49 271 C49 91 154 -6 299 -6 L299 -6 Z M299 15 C167 15 71 104 71 271 C71 438 167 527 299 527 C431 527 527 438 527 271 C527 104 431 15 299 15 L299 15 Z " />
<glyph glyph-name="oacute" unicode="&#xf3;" horiz-adv-x="598" d="M308 613 L427 767 L403 767 L288 613 L308 613 Z M299 -6 C443 -6 549 91 549 271 C549 451 443 548 299 548 C154 548 49 451 49 271 C49 91 154 -6 299 -6 L299 -6 Z M299 15 C167 15 71 104 71 271 C71 438 167 527 299 527 C431 527 527 438 527 271 C527 104 431 15 299 15 L299 15 Z " />
<glyph glyph-name="ocircumflex" unicode="&#xf4;" horiz-adv-x="598" d="M429 613 L455 613 L310 767 L285 767 L141 613 L166 613 L298 756 L429 613 Z M299 548 C154 548 49 451 49 271 C49 91 154 -6 299 -6 C443 -6 549 91 549 271 C549 451 443 548 299 548 L299 548 Z M299 15 C167 15 71 104 71 271 C71 438 167 527 299 527 C431 527 527 438 527 271 C527 104 431 15 299 15 L299 15 Z " />
<glyph glyph-name="otilde" unicode="&#xf5;" horiz-adv-x="598" d="M381 643 C431 643 464 694 464 767 L448 767 C448 702 420 660 381 660 C301 660 312 773 222 772 C167 773 133 729 133 657 L149 657 C149 718 176 756 221 755 C298 756 286 643 381 643 L381 643 Z M299 -6 C443 -6 549 91 549 271 C549 451 443 548 299 548 C154 548 49 451 49 271 C49 91 154 -6 299 -6 L299 -6 Z M299 15 C167 15 71 104 71 271 C71 438 167 527 299 527 C431 527 527 438 527 271 C527 104 431 15 299 15 L299 15 Z " />
<glyph glyph-name="odieresis" unicode="&#xf6;" horiz-adv-x="598" d="M207 715 C224 715 238 729 238 747 C238 764 224 778 207 778 C189 778 175 764 175 747 C175 729 189 715 207 715 L207 715 Z M390 715 C406 715 421 729 421 747 C421 764 406 778 390 778 C372 778 358 764 358 747 C358 729 372 715 390 715 L390 715 Z M299 -6 C443 -6 549 91 549 271 C549 451 443 548 299 548 C154 548 49 451 49 271 C49 91 154 -6 299 -6 L299 -6 Z M299 15 C167 15 71 104 71 271 C71 438 167 527 299 527 C431 527 527 438 527 271 C527 104 431 15 299 15 L299 15 Z " />
<glyph glyph-name="divide" unicode="&#xf7;" horiz-adv-x="581" d="M286 433 C303 433 317 447 317 465 C317 482 303 496 286 496 C267 496 253 482 253 465 C253 447 267 433 286 433 L286 433 Z M535 262 L535 280 L35 280 L35 262 L535 262 Z M286 46 C303 46 317 60 317 79 C317 95 303 109 286 109 C267 109 253 95 253 79 C253 60 267 46 286 46 L286 46 Z " />
<glyph glyph-name="oslash" unicode="&#xf8;" horiz-adv-x="598" d="M496 563 L482 573 L441 508 C401 535 353 548 299 548 C154 548 49 451 49 271 C49 166 85 89 144 43 L102 -22 L115 -31 L157 34 C196 8 245 -6 299 -6 C443 -6 549 91 549 271 C549 376 513 453 455 498 L496 563 Z M71 271 C71 438 167 527 299 527 C348 527 393 515 429 490 L156 62 C103 104 71 175 71 271 L71 271 Z M299 15 C249 15 205 28 168 52 L443 480 C495 438 527 367 527 271 C527 104 431 15 299 15 L299 15 Z " />
<glyph glyph-name="ugrave" unicode="&#xf9;" horiz-adv-x="525" d="M268 613 L153 767 L131 767 L249 613 L268 613 Z M255 -6 C338 -6 399 37 428 100 L432 100 L432 0 L454 0 L454 542 L432 542 L432 237 C432 199 431 156 422 130 C401 61 340 15 259 15 C126 15 86 93 86 236 L86 542 L64 542 L64 233 C64 78 113 -6 255 -6 L255 -6 Z " />
<glyph glyph-name="uacute" unicode="&#xfa;" horiz-adv-x="525" d="M268 613 L387 767 L363 767 L248 613 L268 613 Z M255 -6 C338 -6 399 37 428 100 L432 100 L432 0 L454 0 L454 542 L432 542 L432 237 C432 199 431 156 422 130 C401 61 340 15 259 15 C126 15 86 93 86 236 L86 542 L64 542 L64 233 C64 78 113 -6 255 -6 L255 -6 Z " />
<glyph glyph-name="ucircumflex" unicode="&#xfb;" horiz-adv-x="525" d="M390 613 L416 613 L271 767 L246 767 L102 613 L127 613 L259 756 L390 613 Z M432 237 C432 199 431 156 422 130 C401 61 340 15 259 15 C126 15 86 93 86 236 L86 542 L64 542 L64 233 C64 78 113 -6 255 -6 C338 -6 399 37 428 100 L432 100 L432 0 L454 0 L454 542 L432 542 L432 237 Z " />
<glyph glyph-name="udieresis" unicode="&#xfc;" horiz-adv-x="525" d="M167 715 C184 715 198 729 198 747 C198 764 184 778 167 778 C149 778 135 764 135 747 C135 729 149 715 167 715 L167 715 Z M350 715 C366 715 381 729 381 747 C381 764 366 778 350 778 C332 778 318 764 318 747 C318 729 332 715 350 715 L350 715 Z M255 -6 C338 -6 399 37 428 100 L432 100 L432 0 L454 0 L454 542 L432 542 L432 237 C432 199 431 156 422 130 C401 61 340 15 259 15 C126 15 86 93 86 236 L86 542 L64 542 L64 233 C64 78 113 -6 255 -6 L255 -6 Z " />
<glyph glyph-name="yacute" unicode="&#xfd;" horiz-adv-x="522" d="M365 767 L250 613 L270 613 L389 767 L365 767 Z M265 20 L255 20 L46 542 L22 542 L240 0 L257 0 L199 -142 C182 -184 151 -203 107 -203 L36 -203 L36 -224 L110 -224 C162 -224 198 -200 218 -151 L281 0 L499 542 L475 542 L265 20 Z " />
<glyph glyph-name="thorn" unicode="&#xfe;" horiz-adv-x="654" d="M122 -225 L122 146 L127 146 C162 47 247 -6 350 -6 C493 -6 598 92 598 271 C598 450 493 548 350 548 C247 548 162 495 127 396 L122 396 L122 767 L100 767 L100 -225 L122 -225 Z M348 15 C217 15 121 103 121 271 C121 439 217 527 348 527 C480 527 576 438 576 271 C576 104 480 15 348 15 L348 15 Z " />
<glyph glyph-name="ydieresis" unicode="&#xff;" horiz-adv-x="522" d="M169 715 C186 715 200 729 200 747 C200 764 186 778 169 778 C151 778 137 764 137 747 C137 729 151 715 169 715 L169 715 Z M352 715 C368 715 383 729 383 747 C383 764 368 778 352 778 C334 778 320 764 320 747 C320 729 334 715 352 715 L352 715 Z M265 20 L255 20 L46 542 L22 542 L240 0 L257 0 L199 -142 C182 -184 151 -203 107 -203 L36 -203 L36 -224 L110 -224 C162 -224 198 -200 218 -151 L281 0 L499 542 L475 542 L265 20 Z " />
<glyph glyph-name="Amacron" unicode="&#x100;" horiz-adv-x="603" d="M156 936 L156 920 L448 920 L448 936 L156 936 Z M281 767 L20 6 L20 0 L42 0 L110 200 L493 200 L562 0 L584 0 L584 6 L323 767 L281 767 Z M296 744 L307 744 L486 221 L117 221 L296 744 Z " />
<glyph glyph-name="amacron" unicode="&#x101;" horiz-adv-x="536" d="M127 711 L127 695 L419 695 L419 711 L127 711 Z M452 448 C424 511 360 548 265 548 C141 548 74 486 63 387 L85 387 C95 475 154 529 265 529 C388 529 445 463 447 356 L448 304 L226 304 C119 304 51 258 51 149 C51 53 119 -6 229 -6 C328 -6 403 43 440 139 L447 139 L447 0 L469 0 L469 353 C469 387 464 419 452 448 L452 448 Z M230 14 C132 14 73 65 73 149 C73 247 130 285 228 285 L448 285 L447 261 C443 116 371 14 230 14 L230 14 Z " />
<glyph glyph-name="Abreve" unicode="&#x102;" horiz-adv-x="603" d="M303 850 C405 850 463 900 463 992 L445 992 C445 909 395 866 303 866 C210 866 159 909 159 992 L142 992 C142 901 197 850 303 850 L303 850 Z M281 767 L20 6 L20 0 L42 0 L110 200 L493 200 L562 0 L584 0 L584 6 L323 767 L281 767 Z M296 744 L307 744 L486 221 L117 221 L296 744 Z " />
<glyph glyph-name="abreve" unicode="&#x103;" horiz-adv-x="536" d="M274 625 C376 625 434 675 434 767 L416 767 C416 684 366 641 274 641 C181 641 130 684 130 767 L113 767 C113 676 168 625 274 625 L274 625 Z M452 448 C424 511 360 548 265 548 C141 548 74 486 63 387 L85 387 C95 475 154 529 265 529 C388 529 445 463 447 356 L448 304 L226 304 C119 304 51 258 51 149 C51 53 119 -6 229 -6 C328 -6 403 43 440 139 L447 139 L447 0 L469 0 L469 353 C469 387 464 419 452 448 L452 448 Z M230 14 C132 14 73 65 73 149 C73 247 130 285 228 285 L448 285 L447 261 C443 116 371 14 230 14 L230 14 Z " />
<glyph glyph-name="Aogonek" unicode="&#x104;" horiz-adv-x="603" d="M584 6 L323 767 L281 767 L20 6 L20 0 L42 0 L110 200 L493 200 L562 0 L564 0 C507 -37 475 -87 475 -136 C475 -188 512 -225 584 -225 L584 -208 C523 -208 492 -178 492 -132 C492 -87 525 -36 584 0 L584 6 Z M296 744 L307 744 L486 221 L117 221 L296 744 Z " />
<glyph glyph-name="aogonek" unicode="&#x105;" horiz-adv-x="536" d="M469 353 C469 387 464 419 452 448 C424 511 360 548 265 548 C141 548 74 486 63 387 L85 387 C95 475 154 529 265 529 C388 529 445 463 447 356 L448 304 L226 304 C119 304 51 258 51 149 C51 53 119 -6 229 -6 C328 -6 403 43 440 139 L447 139 L447 0 L449 0 C392 -37 360 -87 360 -136 C360 -188 397 -225 469 -225 L469 -208 C408 -208 377 -178 377 -132 C377 -87 410 -36 469 0 L469 353 Z M230 14 C132 14 73 65 73 149 C73 247 130 285 228 285 L448 285 L447 261 C443 116 371 14 230 14 L230 14 Z " />
<glyph glyph-name="Cacute" unicode="&#x106;" horiz-adv-x="754" d="M385 838 L504 992 L480 992 L365 838 L385 838 Z M384 -6 C553 -6 676 105 710 279 L687 279 C654 117 540 16 384 16 C196 16 71 163 71 384 C71 605 196 751 384 751 C541 751 654 650 687 488 L710 488 C676 662 553 773 384 773 C183 773 49 617 49 384 C49 151 183 -6 384 -6 L384 -6 Z " />
<glyph glyph-name="cacute" unicode="&#x107;" horiz-adv-x="573" d="M307 613 L426 767 L402 767 L287 613 L307 613 Z M299 -6 C420 -6 508 59 527 181 L505 181 C486 71 410 15 299 15 C167 15 71 103 71 271 C71 439 167 527 299 527 C410 527 486 471 505 361 L527 361 C508 483 420 548 299 548 C154 548 49 451 49 271 C49 91 154 -6 299 -6 L299 -6 Z " />
<glyph glyph-name="ccircumflex" unicode="&#x109;" horiz-adv-x="573" d="M429 613 L455 613 L310 767 L285 767 L141 613 L166 613 L298 756 L429 613 Z M299 15 C167 15 71 103 71 271 C71 439 167 527 299 527 C410 527 486 471 505 361 L527 361 C508 483 420 548 299 548 C154 548 49 451 49 271 C49 91 154 -6 299 -6 C420 -6 508 59 527 181 L505 181 C486 71 410 15 299 15 L299 15 Z " />
<glyph glyph-name="Cdotaccent" unicode="&#x10a;" horiz-adv-x="754" d="M375 827 C392 827 406 841 406 858 C406 876 392 889 375 889 C357 889 343 876 343 858 C343 841 357 827 375 827 L375 827 Z M384 -6 C553 -6 676 105 710 279 L687 279 C654 117 540 16 384 16 C196 16 71 163 71 384 C71 605 196 751 384 751 C541 751 654 650 687 488 L710 488 C676 662 553 773 384 773 C183 773 49 617 49 384 C49 151 183 -6 384 -6 L384 -6 Z " />
<glyph glyph-name="cdotaccent" unicode="&#x10b;" horiz-adv-x="573" d="M298 715 C315 715 329 729 329 747 C329 764 315 778 298 778 C280 778 266 764 266 747 C266 729 280 715 298 715 L298 715 Z M299 -6 C420 -6 508 59 527 181 L505 181 C486 71 410 15 299 15 C167 15 71 103 71 271 C71 439 167 527 299 527 C410 527 486 471 505 361 L527 361 C508 483 420 548 299 548 C154 548 49 451 49 271 C49 91 154 -6 299 -6 L299 -6 Z " />
<glyph glyph-name="Ccaron" unicode="&#x10c;" horiz-adv-x="754" d="M533 992 L507 992 L376 849 L244 992 L219 992 L364 838 L388 838 L533 992 Z M384 16 C196 16 71 163 71 384 C71 605 196 751 384 751 C541 751 654 650 687 488 L710 488 C676 662 553 773 384 773 C183 773 49 617 49 384 C49 151 183 -6 384 -6 C553 -6 676 105 710 279 L687 279 C654 117 540 16 384 16 L384 16 Z " />
<glyph glyph-name="ccaron" unicode="&#x10d;" horiz-adv-x="573" d="M455 767 L429 767 L298 624 L166 767 L141 767 L286 613 L310 613 L455 767 Z M299 15 C167 15 71 103 71 271 C71 439 167 527 299 527 C410 527 486 471 505 361 L527 361 C508 483 420 548 299 548 C154 548 49 451 49 271 C49 91 154 -6 299 -6 C420 -6 508 59 527 181 L505 181 C486 71 410 15 299 15 L299 15 Z " />
<glyph glyph-name="Dcaron" unicode="&#x10e;" horiz-adv-x="758" d="M526 992 L500 992 L369 849 L237 992 L212 992 L357 838 L381 838 L526 992 Z M624 651 C559 727 457 767 323 767 L77 767 L77 0 L322 0 C451 0 551 37 618 108 C677 171 709 262 709 378 C709 494 681 585 624 651 L624 651 Z M603 124 C540 56 445 21 322 21 L100 21 L100 746 L323 746 C449 746 546 710 608 637 C661 576 687 489 687 378 C687 270 658 184 603 124 L603 124 Z " />
<glyph glyph-name="dcaron" unicode="&#x10f;" horiz-adv-x="638" d="M659 773 C639 773 625 759 625 741 C625 722 639 708 659 708 C660 708 663 709 667 709 L619 572 L619 568 L635 568 L684 710 C689 726 691 734 691 742 C691 759 677 773 659 773 L659 773 Z M519 396 C484 495 400 548 296 548 C153 548 49 450 49 271 C49 92 153 -6 296 -6 C400 -6 484 47 519 146 L525 146 L525 0 L547 0 L547 767 L525 767 L525 396 L519 396 Z M298 15 C166 15 71 104 71 271 C71 438 166 527 298 527 C430 527 526 439 526 271 C526 103 430 15 298 15 L298 15 Z " />
<glyph glyph-name="Dcroat" unicode="&#x110;" horiz-adv-x="758" d="M624 651 C559 727 457 767 323 767 L77 767 L77 393 L28 393 L28 375 L77 375 L77 0 L322 0 C451 0 551 37 618 108 C677 171 709 262 709 378 C709 494 681 585 624 651 L624 651 Z M603 124 C540 56 445 21 322 21 L100 21 L100 375 L282 375 L282 393 L100 393 L100 746 L323 746 C449 746 546 710 608 637 C661 576 687 489 687 378 C687 270 658 184 603 124 L603 124 Z " />
<glyph glyph-name="dcroat" unicode="&#x111;" horiz-adv-x="617" d="M547 665 L547 767 L525 767 L525 665 L390 665 L390 647 L525 647 L525 396 L519 396 C484 495 400 548 296 548 C153 548 49 450 49 271 C49 92 153 -6 296 -6 C400 -6 484 47 519 146 L525 146 L525 0 L547 0 L547 647 L644 647 L644 665 L547 665 Z M298 15 C166 15 71 104 71 271 C71 438 166 527 298 527 C430 527 526 439 526 271 C526 103 430 15 298 15 L298 15 Z " />
<glyph glyph-name="Emacron" unicode="&#x112;" horiz-adv-x="594" d="M471 920 L471 936 L179 936 L179 920 L471 920 Z M572 0 L572 21 L100 21 L100 386 L492 386 L492 407 L100 407 L100 746 L549 746 L549 767 L78 767 L78 0 L572 0 Z " />
<glyph glyph-name="emacron" unicode="&#x113;" horiz-adv-x="594" d="M152 711 L152 695 L444 695 L444 711 L152 711 Z M549 289 C541 457 438 548 299 548 C154 548 49 451 49 271 C49 91 154 -6 299 -6 C411 -6 499 53 534 163 L510 163 C478 66 398 15 299 15 C167 15 71 104 71 271 L71 285 L549 285 L549 289 Z M299 527 C422 527 514 450 525 304 L72 304 C84 450 176 527 299 527 L299 527 Z " />
<glyph glyph-name="Edotaccent" unicode="&#x116;" horiz-adv-x="594" d="M325 827 C342 827 356 841 356 858 C356 876 342 889 325 889 C307 889 293 876 293 858 C293 841 307 827 325 827 L325 827 Z M572 0 L572 21 L100 21 L100 386 L492 386 L492 407 L100 407 L100 746 L549 746 L549 767 L78 767 L78 0 L572 0 Z " />
<glyph glyph-name="edotaccent" unicode="&#x117;" horiz-adv-x="594" d="M299 715 C316 715 330 729 330 747 C330 764 316 778 299 778 C281 778 267 764 267 747 C267 729 281 715 299 715 L299 715 Z M549 289 C541 457 438 548 299 548 C154 548 49 451 49 271 C49 91 154 -6 299 -6 C411 -6 499 53 534 163 L510 163 C478 66 398 15 299 15 C167 15 71 104 71 271 L71 285 L549 285 L549 289 Z M299 527 C422 527 514 450 525 304 L72 304 C84 450 176 527 299 527 L299 527 Z " />
<glyph glyph-name="Eogonek" unicode="&#x118;" horiz-adv-x="594" d="M572 21 L100 21 L100 386 L492 386 L492 407 L100 407 L100 746 L549 746 L549 767 L78 767 L78 0 L552 0 C495 -37 463 -87 463 -136 C463 -188 500 -225 572 -225 L572 -208 C511 -208 480 -178 480 -132 C480 -87 513 -36 572 0 L572 21 Z " />
<glyph glyph-name="eogonek" unicode="&#x119;" horiz-adv-x="594" d="M549 289 C541 457 438 548 299 548 C154 548 49 451 49 271 C49 91 154 -6 299 -6 C309 -6 318 -6 328 -5 C275 -41 246 -89 246 -136 C246 -188 283 -225 355 -225 L355 -208 C294 -208 263 -178 263 -132 C263 -87 295 -37 353 -1 C439 15 505 71 534 163 L510 163 C478 66 398 15 299 15 C167 15 71 104 71 271 L71 285 L549 285 L549 289 Z M299 527 C422 527 514 450 525 304 L72 304 C84 450 176 527 299 527 L299 527 Z " />
<glyph glyph-name="Ecaron" unicode="&#x11a;" horiz-adv-x="594" d="M482 992 L456 992 L325 849 L193 992 L168 992 L313 838 L337 838 L482 992 Z M100 386 L492 386 L492 407 L100 407 L100 746 L549 746 L549 767 L78 767 L78 0 L572 0 L572 21 L100 21 L100 386 Z " />
<glyph glyph-name="ecaron" unicode="&#x11b;" horiz-adv-x="594" d="M456 767 L430 767 L299 624 L167 767 L142 767 L287 613 L311 613 L456 767 Z M549 289 C541 457 438 548 299 548 C154 548 49 451 49 271 C49 91 154 -6 299 -6 C411 -6 499 53 534 163 L510 163 C478 66 398 15 299 15 C167 15 71 104 71 271 L71 285 L549 285 L549 289 Z M299 527 C422 527 514 450 525 304 L72 304 C84 450 176 527 299 527 L299 527 Z " />
<glyph glyph-name="Gbreve" unicode="&#x11e;" horiz-adv-x="782" d="M396 850 C498 850 556 900 556 992 L538 992 C538 909 488 866 396 866 C303 866 252 909 252 992 L235 992 C235 901 290 850 396 850 L396 850 Z M495 365 L699 365 C694 155 568 16 384 16 C196 16 71 163 71 384 C71 605 196 751 384 751 C541 751 654 650 687 488 L710 488 C676 662 553 773 384 773 C183 773 49 617 49 384 C49 151 183 -6 384 -6 C533 -6 643 79 690 218 L696 218 L696 0 L719 0 L719 386 L495 386 L495 365 Z " />
<glyph glyph-name="gbreve" unicode="&#x11f;" horiz-adv-x="617" d="M319 625 C421 625 479 675 479 767 L461 767 C461 684 411 641 319 641 C226 641 175 684 175 767 L158 767 C158 676 213 625 319 625 L319 625 Z M459 -225 C516 -225 547 -194 547 -137 L547 542 L525 542 L525 396 L519 396 C484 495 400 548 296 548 C153 548 49 450 49 271 C49 92 153 -6 296 -6 C400 -6 484 47 519 146 L525 146 L525 -134 C525 -180 501 -205 454 -205 L161 -205 C115 -205 91 -180 91 -134 L91 -50 L69 -50 L69 -137 C69 -194 100 -225 156 -225 L459 -225 Z M298 15 C166 15 71 104 71 271 C71 438 166 527 298 527 C430 527 526 439 526 271 C526 103 430 15 298 15 L298 15 Z " />
<glyph glyph-name="Gdotaccent" unicode="&#x120;" horiz-adv-x="782" d="M395 827 C412 827 426 841 426 858 C426 876 412 889 395 889 C377 889 363 876 363 858 C363 841 377 827 395 827 L395 827 Z M495 365 L699 365 C694 155 568 16 384 16 C196 16 71 163 71 384 C71 605 196 751 384 751 C541 751 654 650 687 488 L710 488 C676 662 553 773 384 773 C183 773 49 617 49 384 C49 151 183 -6 384 -6 C533 -6 643 79 690 218 L696 218 L696 0 L719 0 L719 386 L495 386 L495 365 Z " />
<glyph glyph-name="gdotaccent" unicode="&#x121;" horiz-adv-x="617" d="M318 715 C335 715 349 729 349 747 C349 764 335 778 318 778 C300 778 286 764 286 747 C286 729 300 715 318 715 L318 715 Z M459 -225 C516 -225 547 -194 547 -137 L547 542 L525 542 L525 396 L519 396 C484 495 400 548 296 548 C153 548 49 450 49 271 C49 92 153 -6 296 -6 C400 -6 484 47 519 146 L525 146 L525 -134 C525 -180 501 -205 454 -205 L161 -205 C115 -205 91 -180 91 -134 L91 -50 L69 -50 L69 -137 C69 -194 100 -225 156 -225 L459 -225 Z M298 15 C166 15 71 104 71 271 C71 438 166 527 298 527 C430 527 526 439 526 271 C526 103 430 15 298 15 L298 15 Z " />
<glyph glyph-name="uni0122" unicode="&#x122;" horiz-adv-x="782" d="M495 365 L699 365 C694 155 568 16 384 16 C196 16 71 163 71 384 C71 605 196 751 384 751 C541 751 654 650 687 488 L710 488 C676 662 553 773 384 773 C183 773 49 617 49 384 C49 151 183 -6 384 -6 C533 -6 643 79 690 218 L696 218 L696 0 L719 0 L719 386 L495 386 L495 365 Z M395 -61 C376 -61 363 -74 363 -94 C363 -112 376 -124 395 -124 L403 -124 L368 -224 L368 -227 L385 -227 L419 -123 C425 -107 427 -100 427 -93 C427 -74 415 -61 395 -61 L395 -61 Z " />
<glyph glyph-name="uni0123" unicode="&#x123;" horiz-adv-x="617" d="M318 609 C337 609 351 620 351 638 C351 655 337 665 318 665 L310 665 L346 754 L346 757 L329 757 L297 673 C288 650 286 644 286 637 C286 620 299 609 318 609 L318 609 Z M525 396 L519 396 C484 495 400 548 296 548 C153 548 49 450 49 271 C49 92 153 -6 296 -6 C400 -6 484 47 519 146 L525 146 L525 -134 C525 -180 501 -205 454 -205 L161 -205 C115 -205 91 -180 91 -134 L91 -50 L69 -50 L69 -137 C69 -194 100 -225 156 -225 L459 -225 C516 -225 547 -194 547 -137 L547 542 L525 542 L525 396 Z M298 15 C166 15 71 104 71 271 C71 438 166 527 298 527 C430 527 526 439 526 271 C526 103 430 15 298 15 L298 15 Z " />
<glyph glyph-name="hcircumflex" unicode="&#x125;" horiz-adv-x="524" d="M251 838 L106 992 L81 992 L-63 838 L-38 838 L94 981 L225 838 L251 838 Z M269 548 C186 548 125 505 96 442 L92 442 L92 767 L70 767 L70 0 L92 0 L92 305 C92 343 93 386 101 412 C123 481 183 527 265 527 C398 527 438 449 438 306 L438 0 L460 0 L460 309 C460 464 411 548 269 548 L269 548 Z " />
<glyph glyph-name="Hbar" unicode="&#x126;" horiz-adv-x="659" d="M580 632 L580 767 L558 767 L558 632 L100 632 L100 767 L78 767 L78 632 L-10 632 L-10 615 L78 615 L78 0 L100 0 L100 386 L558 386 L558 0 L580 0 L580 615 L667 615 L667 632 L580 632 Z M100 407 L100 615 L558 615 L558 407 L100 407 Z " />
<glyph glyph-name="hbar" unicode="&#x127;" horiz-adv-x="524" d="M269 548 C186 548 125 505 96 442 L92 442 L92 646 L265 646 L265 664 L92 664 L92 767 L70 767 L70 664 L11 664 L11 646 L70 646 L70 0 L92 0 L92 305 C92 343 93 386 101 412 C123 481 183 527 265 527 C398 527 438 449 438 306 L438 0 L460 0 L460 309 C460 464 411 548 269 548 L269 548 Z " />
<glyph glyph-name="Itilde" unicode="&#x128;" horiz-adv-x="178" d="M171 868 C221 868 254 919 254 992 L238 992 C238 927 210 885 171 885 C91 885 102 998 12 997 C-43 998 -77 954 -77 882 L-61 882 C-61 943 -34 981 11 980 C88 981 76 868 171 868 L171 868 Z M100 0 L100 767 L78 767 L78 0 L100 0 Z " />
<glyph glyph-name="itilde" unicode="&#x129;" horiz-adv-x="162" d="M163 643 C213 643 246 694 246 767 L230 767 C230 702 202 660 163 660 C83 660 94 773 4 772 C-51 773 -85 729 -85 657 L-69 657 C-69 718 -42 756 3 755 C80 756 68 643 163 643 L163 643 Z M92 0 L92 542 L70 542 L70 0 L92 0 Z " />
<glyph glyph-name="Imacron" unicode="&#x12a;" horiz-adv-x="178" d="M234 920 L234 936 L-58 936 L-58 920 L234 920 Z M100 0 L100 767 L78 767 L78 0 L100 0 Z " />
<glyph glyph-name="imacron" unicode="&#x12b;" horiz-adv-x="162" d="M226 695 L226 711 L-66 711 L-66 695 L226 695 Z M92 0 L92 542 L70 542 L70 0 L92 0 Z " />
<glyph glyph-name="Iogonek" unicode="&#x12e;" horiz-adv-x="178" d="M100 767 L78 767 L78 0 L80 0 C23 -37 -9 -87 -9 -136 C-9 -188 28 -225 100 -225 L100 -208 C39 -208 8 -178 8 -132 C8 -87 41 -36 100 0 L100 767 Z " />
<glyph glyph-name="iogonek" unicode="&#x12f;" horiz-adv-x="162" d="M80 778 C62 778 48 764 48 747 C48 729 62 715 80 715 C97 715 111 729 111 747 C111 764 97 778 80 778 L80 778 Z M72 0 C15 -37 -17 -87 -17 -136 C-17 -188 20 -225 92 -225 L92 -208 C31 -208 0 -178 0 -132 C0 -87 33 -36 92 0 L92 542 L70 542 L70 0 L72 0 Z " />
<glyph glyph-name="Idotaccent" unicode="&#x130;" horiz-adv-x="178" d="M89 827 C106 827 120 841 120 858 C120 876 106 889 89 889 C71 889 57 876 57 858 C57 841 71 827 89 827 L89 827 Z M100 0 L100 767 L78 767 L78 0 L100 0 Z " />
<glyph glyph-name="dotlessi" unicode="&#x131;" horiz-adv-x="162" d="M92 0 L92 542 L70 542 L70 0 L92 0 Z " />
<glyph glyph-name="IJ" unicode="&#x132;" horiz-adv-x="731" d="M100 0 L100 767 L78 767 L78 0 L100 0 Z M433 -6 C511 -6 570 20 607 63 C643 104 659 157 659 259 L659 767 L311 767 L311 746 L636 746 L636 261 C636 164 622 115 591 79 C557 40 504 15 433 15 C361 15 308 40 275 79 C244 114 229 162 229 259 L207 259 C207 157 222 104 258 63 C296 20 355 -6 433 -6 L433 -6 Z " />
<glyph glyph-name="ij" unicode="&#x133;" horiz-adv-x="339" d="M80 715 C97 715 111 729 111 747 C111 764 97 778 80 778 C62 778 48 764 48 747 C48 729 62 715 80 715 L80 715 Z M256 715 C272 715 287 729 287 747 C287 764 272 778 256 778 C238 778 224 764 224 747 C224 729 238 715 256 715 L256 715 Z M92 0 L92 542 L70 542 L70 0 L92 0 Z M187 -225 C234 -225 267 -192 267 -145 L267 542 L245 542 L245 -145 C245 -179 220 -204 186 -204 L123 -204 L123 -225 L187 -225 Z " />
<glyph glyph-name="uni0136" unicode="&#x136;" horiz-adv-x="617" d="M573 761 L573 767 L547 767 L104 308 L100 308 L100 767 L78 767 L78 0 L100 0 L100 272 L281 459 L284 459 L574 0 L598 0 L598 6 L299 478 L573 761 Z M298 -61 C279 -61 266 -74 266 -94 C266 -112 279 -124 298 -124 L306 -124 L271 -224 L271 -227 L288 -227 L322 -123 C328 -107 330 -100 330 -93 C330 -74 318 -61 298 -61 L298 -61 Z " />
<glyph glyph-name="uni0137" unicode="&#x137;" horiz-adv-x="521" d="M454 535 L454 542 L431 542 L97 197 L92 197 L92 767 L70 767 L70 0 L92 0 L92 162 L254 329 L257 329 L475 0 L497 0 L497 6 L271 347 L454 535 Z M245 -61 C226 -61 213 -74 213 -94 C213 -112 226 -124 245 -124 L253 -124 L218 -224 L218 -227 L235 -227 L269 -123 C275 -107 277 -100 277 -93 C277 -74 265 -61 245 -61 L245 -61 Z " />
<glyph glyph-name="Lacute" unicode="&#x139;" horiz-adv-x="477" d="M98 838 L217 992 L193 992 L78 838 L98 838 Z M469 0 L469 21 L100 21 L100 767 L78 767 L78 0 L469 0 Z " />
<glyph glyph-name="lacute" unicode="&#x13a;" horiz-adv-x="242" d="M111 838 L230 992 L206 992 L91 838 L111 838 Z M213 0 L213 21 L149 21 C115 21 90 46 90 80 L90 767 L68 767 L68 80 C68 33 101 0 148 0 L213 0 Z " />
<glyph glyph-name="uni013B" unicode="&#x13b;" horiz-adv-x="477" d="M100 767 L78 767 L78 0 L469 0 L469 21 L100 21 L100 767 Z M273 -61 C254 -61 241 -74 241 -94 C241 -112 254 -124 273 -124 L281 -124 L246 -224 L246 -227 L263 -227 L297 -123 C303 -107 305 -100 305 -93 C305 -74 293 -61 273 -61 L273 -61 Z " />
<glyph glyph-name="uni013C" unicode="&#x13c;" horiz-adv-x="242" d="M149 21 C115 21 90 46 90 80 L90 767 L68 767 L68 80 C68 33 101 0 148 0 L213 0 L213 21 L149 21 Z M101 -61 C82 -61 69 -74 69 -94 C69 -112 82 -124 101 -124 L109 -124 L74 -224 L74 -227 L91 -227 L125 -123 C131 -107 133 -100 133 -93 C133 -74 121 -61 101 -61 L101 -61 Z " />
<glyph glyph-name="Lcaron" unicode="&#x13d;" horiz-adv-x="477" d="M468 710 C473 726 475 734 475 742 C475 759 462 773 444 773 C423 773 409 759 409 741 C409 722 423 708 443 708 C444 708 447 709 451 709 L403 572 L403 568 L419 568 L468 710 Z M78 767 L78 0 L469 0 L469 21 L100 21 L100 767 L78 767 Z " />
<glyph glyph-name="lcaron" unicode="&#x13e;" horiz-adv-x="211" d="M232 773 C212 773 198 759 198 741 C198 722 212 708 232 708 C233 708 236 709 240 709 L192 572 L192 568 L208 568 L257 710 C262 726 264 734 264 742 C264 759 250 773 232 773 L232 773 Z M90 767 L68 767 L68 80 C68 33 101 0 148 0 L213 0 L213 21 L149 21 C115 21 90 46 90 80 L90 767 Z " />
<glyph glyph-name="Ldot" unicode="&#x13f;" horiz-adv-x="574" d="M469 0 L469 21 L100 21 L100 767 L78 767 L78 0 L469 0 Z M357 351 C374 351 390 365 390 384 C390 403 374 417 357 417 C338 417 323 403 323 384 C323 365 338 351 357 351 L357 351 Z " />
<glyph glyph-name="ldot" unicode="&#x140;" horiz-adv-x="419" d="M213 0 L213 21 L149 21 C115 21 90 46 90 80 L90 767 L68 767 L68 80 C68 33 101 0 148 0 L213 0 Z M208 343 C226 343 241 358 241 376 C241 395 226 409 208 409 C190 409 175 395 175 376 C175 358 190 343 208 343 L208 343 Z " />
<glyph glyph-name="Lslash" unicode="&#x141;" horiz-adv-x="477" d="M100 378 L326 540 L326 563 L100 400 L100 767 L78 767 L78 384 L-10 321 L-10 299 L78 362 L78 0 L469 0 L469 21 L100 21 L100 378 Z " />
<glyph glyph-name="lslash" unicode="&#x142;" horiz-adv-x="242" d="M218 549 L90 439 L90 767 L68 767 L68 420 L-15 349 L-15 326 L68 397 L68 80 C68 33 101 0 148 0 L213 0 L213 21 L149 21 C115 21 90 46 90 80 L90 416 L218 525 L218 549 Z " />
<glyph glyph-name="Nacute" unicode="&#x143;" horiz-adv-x="678" d="M349 838 L468 992 L444 992 L329 838 L349 838 Z M100 0 L100 747 L110 747 L553 0 L600 0 L600 767 L577 767 L577 20 L567 20 L124 767 L78 767 L78 0 L100 0 Z " />
<glyph glyph-name="nacute" unicode="&#x144;" horiz-adv-x="524" d="M274 613 L393 767 L369 767 L254 613 L274 613 Z M92 0 L92 305 C92 343 93 386 101 412 C123 481 183 527 265 527 C398 527 438 449 438 306 L438 0 L460 0 L460 309 C460 464 411 548 269 548 C186 548 125 505 96 442 L92 442 L92 542 L70 542 L70 0 L92 0 Z " />
<glyph glyph-name="uni0145" unicode="&#x145;" horiz-adv-x="678" d="M577 20 L567 20 L124 767 L78 767 L78 0 L100 0 L100 747 L110 747 L553 0 L600 0 L600 767 L577 767 L577 20 Z M339 -61 C320 -61 307 -74 307 -94 C307 -112 320 -124 339 -124 L347 -124 L312 -224 L312 -227 L329 -227 L363 -123 C369 -107 371 -100 371 -93 C371 -74 359 -61 339 -61 L339 -61 Z " />
<glyph glyph-name="uni0146" unicode="&#x146;" horiz-adv-x="524" d="M269 548 C186 548 125 505 96 442 L92 442 L92 542 L70 542 L70 0 L92 0 L92 305 C92 343 93 386 101 412 C123 481 183 527 265 527 C398 527 438 449 438 306 L438 0 L460 0 L460 309 C460 464 411 548 269 548 L269 548 Z M265 -61 C246 -61 233 -74 233 -94 C233 -112 246 -124 265 -124 L273 -124 L238 -224 L238 -227 L255 -227 L289 -123 C295 -107 297 -100 297 -93 C297 -74 285 -61 265 -61 L265 -61 Z " />
<glyph glyph-name="Ncaron" unicode="&#x147;" horiz-adv-x="678" d="M496 992 L470 992 L339 849 L207 992 L182 992 L327 838 L351 838 L496 992 Z M577 20 L567 20 L124 767 L78 767 L78 0 L100 0 L100 747 L110 747 L553 0 L600 0 L600 767 L577 767 L577 20 Z " />
<glyph glyph-name="ncaron" unicode="&#x148;" horiz-adv-x="524" d="M422 767 L396 767 L265 624 L133 767 L108 767 L253 613 L277 613 L422 767 Z M269 548 C186 548 125 505 96 442 L92 442 L92 542 L70 542 L70 0 L92 0 L92 305 C92 343 93 386 101 412 C123 481 183 527 265 527 C398 527 438 449 438 306 L438 0 L460 0 L460 309 C460 464 411 548 269 548 L269 548 Z " />
<glyph glyph-name="napostrophe" unicode="&#x149;" horiz-adv-x="631" d="M108 773 C88 773 74 759 74 741 C74 722 88 708 108 708 C109 708 112 709 116 709 L68 572 L68 568 L84 568 L133 710 C138 726 140 734 140 742 C140 759 126 773 108 773 L108 773 Z M375 548 C293 548 232 505 202 442 L198 442 L198 542 L176 542 L176 0 L198 0 L198 305 C198 343 199 386 208 412 C229 481 290 527 371 527 C505 527 545 449 545 306 L545 0 L567 0 L567 309 C567 464 517 548 375 548 L375 548 Z " />
<glyph glyph-name="Eng" unicode="&#x14a;" horiz-adv-x="678" d="M577 20 L567 20 L124 767 L78 767 L78 0 L100 0 L100 747 L110 747 L553 0 L579 0 L579 -146 C579 -179 553 -205 520 -205 L456 -205 L456 -225 L520 -225 C567 -225 600 -192 600 -146 L600 767 L577 767 L577 20 Z " />
<glyph glyph-name="eng" unicode="&#x14b;" horiz-adv-x="524" d="M269 548 C186 548 125 505 96 442 L92 442 L92 542 L70 542 L70 0 L92 0 L92 305 C92 343 93 386 101 412 C123 481 183 527 265 527 C398 527 438 449 438 306 L438 -145 C438 -179 413 -204 380 -204 L316 -204 L316 -225 L381 -225 C427 -225 460 -192 460 -145 L460 309 C460 464 411 548 269 548 L269 548 Z " />
<glyph glyph-name="Omacron" unicode="&#x14c;" horiz-adv-x="770" d="M530 920 L530 936 L238 936 L238 920 L530 920 Z M384 -6 C585 -6 720 151 720 384 C720 617 585 773 384 773 C183 773 49 617 49 384 C49 151 183 -6 384 -6 L384 -6 Z M384 16 C196 16 71 163 71 384 C71 605 196 751 384 751 C572 751 698 605 698 384 C698 163 572 16 384 16 L384 16 Z " />
<glyph glyph-name="omacron" unicode="&#x14d;" horiz-adv-x="598" d="M444 695 L444 711 L152 711 L152 695 L444 695 Z M299 -6 C443 -6 549 91 549 271 C549 451 443 548 299 548 C154 548 49 451 49 271 C49 91 154 -6 299 -6 L299 -6 Z M299 15 C167 15 71 104 71 271 C71 438 167 527 299 527 C431 527 527 438 527 271 C527 104 431 15 299 15 L299 15 Z " />
<glyph glyph-name="Ohungarumlaut" unicode="&#x150;" horiz-adv-x="770" d="M311 838 L427 992 L405 992 L292 838 L311 838 Z M476 838 L593 992 L569 992 L456 838 L476 838 Z M384 -6 C585 -6 720 151 720 384 C720 617 585 773 384 773 C183 773 49 617 49 384 C49 151 183 -6 384 -6 L384 -6 Z M384 16 C196 16 71 163 71 384 C71 605 196 751 384 751 C572 751 698 605 698 384 C698 163 572 16 384 16 L384 16 Z " />
<glyph glyph-name="ohungarumlaut" unicode="&#x151;" horiz-adv-x="598" d="M226 613 L342 767 L320 767 L207 613 L226 613 Z M391 613 L508 767 L484 767 L371 613 L391 613 Z M299 -6 C443 -6 549 91 549 271 C549 451 443 548 299 548 C154 548 49 451 49 271 C49 91 154 -6 299 -6 L299 -6 Z M299 15 C167 15 71 104 71 271 C71 438 167 527 299 527 C431 527 527 438 527 271 C527 104 431 15 299 15 L299 15 Z " />
<glyph glyph-name="OE" unicode="&#x152;" horiz-adv-x="1215" d="M721 386 L1112 386 L1112 407 L721 407 L721 746 L1170 746 L1170 767 L698 767 L698 536 C652 682 537 773 384 773 C183 773 49 617 49 384 C49 151 183 -6 384 -6 C537 -6 652 85 698 232 L698 0 L1192 0 L1192 21 L721 21 L721 386 Z M384 16 C196 16 71 163 71 384 C71 605 196 751 384 751 C572 751 698 605 698 384 C698 163 572 16 384 16 L384 16 Z " />
<glyph glyph-name="oe" unicode="&#x153;" horiz-adv-x="1073" d="M1028 289 C1021 457 917 548 778 548 C661 548 569 484 539 362 C508 484 416 548 299 548 C154 548 49 451 49 271 C49 91 154 -6 299 -6 C416 -6 508 58 539 180 C569 58 661 -6 778 -6 C890 -6 979 53 1013 163 L989 163 C957 66 878 15 778 15 C646 15 550 104 550 271 L550 285 L1028 285 L1028 289 Z M299 15 C167 15 71 104 71 271 C71 438 167 527 299 527 C431 527 527 438 527 271 C527 104 431 15 299 15 L299 15 Z M778 527 C901 527 993 450 1004 304 L551 304 C563 450 655 527 778 527 L778 527 Z " />
<glyph glyph-name="Racute" unicode="&#x154;" horiz-adv-x="580" d="M382 992 L267 838 L287 838 L406 992 L382 992 Z M325 356 C377 364 414 379 442 402 C483 434 511 489 511 559 C511 628 483 683 442 715 C399 751 331 767 224 767 L78 767 L78 0 L100 0 L100 350 L224 350 C251 350 276 351 299 353 L524 0 L546 0 L546 8 L325 352 L325 356 Z M100 371 L100 746 L222 746 C326 746 386 733 429 697 C468 666 488 618 488 559 C488 499 468 451 429 420 C386 384 326 371 222 371 L100 371 Z " />
<glyph glyph-name="racute" unicode="&#x155;" horiz-adv-x="346" d="M169 613 L288 767 L264 767 L149 613 L169 613 Z M92 0 L92 385 C92 473 139 521 228 521 L328 521 L328 542 L230 542 C163 542 127 518 102 483 L92 483 L92 542 L70 542 L70 0 L92 0 Z " />
<glyph glyph-name="uni0156" unicode="&#x156;" horiz-adv-x="580" d="M325 356 C377 364 414 379 442 402 C483 434 511 489 511 559 C511 628 483 683 442 715 C399 751 331 767 224 767 L78 767 L78 0 L100 0 L100 350 L224 350 C251 350 276 351 299 353 L524 0 L546 0 L546 8 L325 352 L325 356 Z M100 371 L100 746 L222 746 C326 746 386 733 429 697 C468 666 488 618 488 559 C488 499 468 451 429 420 C386 384 326 371 222 371 L100 371 Z M277 -61 C258 -61 245 -74 245 -94 C245 -112 258 -124 277 -124 L285 -124 L250 -224 L250 -227 L267 -227 L301 -123 C307 -107 309 -100 309 -93 C309 -74 297 -61 277 -61 L277 -61 Z " />
<glyph glyph-name="uni0157" unicode="&#x157;" horiz-adv-x="346" d="M230 542 C163 542 127 518 102 483 L92 483 L92 542 L70 542 L70 0 L92 0 L92 385 C92 473 139 521 228 521 L328 521 L328 542 L230 542 Z M159 -61 C140 -61 127 -74 127 -94 C127 -112 140 -124 159 -124 L167 -124 L132 -224 L132 -227 L149 -227 L183 -123 C189 -107 191 -100 191 -93 C191 -74 179 -61 159 -61 L159 -61 Z " />
<glyph glyph-name="Rcaron" unicode="&#x158;" horiz-adv-x="580" d="M435 992 L409 992 L278 849 L146 992 L121 992 L266 838 L290 838 L435 992 Z M325 356 C377 364 414 379 442 402 C483 434 511 489 511 559 C511 628 483 683 442 715 C399 751 331 767 224 767 L78 767 L78 0 L100 0 L100 350 L224 350 C251 350 276 351 299 353 L524 0 L546 0 L546 8 L325 352 L325 356 Z M100 371 L100 746 L222 746 C326 746 386 733 429 697 C468 666 488 618 488 559 C488 499 468 451 429 420 C386 384 326 371 222 371 L100 371 Z " />
<glyph glyph-name="rcaron" unicode="&#x159;" horiz-adv-x="346" d="M316 767 L290 767 L159 624 L27 767 L2 767 L147 613 L171 613 L316 767 Z M230 542 C163 542 127 518 102 483 L92 483 L92 542 L70 542 L70 0 L92 0 L92 385 C92 473 139 521 228 521 L328 521 L328 542 L230 542 Z " />
<glyph glyph-name="Sacute" unicode="&#x15a;" horiz-adv-x="679" d="M350 838 L469 992 L445 992 L330 838 L350 838 Z M354 -6 C524 -6 629 74 629 209 C629 335 543 364 454 389 L285 435 C202 457 115 482 115 589 C115 695 201 752 334 752 C483 752 586 683 587 547 L610 547 C609 696 493 773 335 773 C191 773 92 708 92 588 C92 465 191 438 273 415 L446 367 C534 343 607 318 607 210 C607 86 513 15 355 15 C170 15 64 111 64 279 L41 279 C41 96 162 -6 354 -6 L354 -6 Z " />
<glyph glyph-name="sacute" unicode="&#x15b;" horiz-adv-x="512" d="M267 613 L386 767 L362 767 L247 613 L267 613 Z M262 -6 C375 -6 462 43 462 146 C462 221 421 254 333 278 L216 310 C143 330 95 348 95 415 C95 491 160 528 249 528 C350 528 423 483 425 387 L447 387 C444 494 365 548 250 548 C155 548 73 508 73 415 C73 337 125 313 204 291 L329 257 C390 240 440 223 440 146 C440 53 364 14 264 14 C153 14 76 60 63 181 L41 181 C51 54 135 -6 262 -6 L262 -6 Z " />
<glyph glyph-name="Scedilla" unicode="&#x15e;" horiz-adv-x="679" d="M629 209 C629 335 543 364 454 389 L285 435 C202 457 115 482 115 589 C115 695 201 752 334 752 C483 752 586 683 587 547 L610 547 C609 696 493 773 335 773 C191 773 92 708 92 588 C92 465 191 438 273 415 L446 367 C534 343 607 318 607 210 C607 86 513 15 355 15 C170 15 64 111 64 279 L41 279 C41 97 161 -5 351 -6 L303 -95 C316 -95 330 -97 342 -101 C367 -109 385 -127 385 -153 C385 -186 357 -209 315 -209 C293 -209 267 -203 249 -187 L241 -200 C262 -218 289 -224 313 -224 C364 -224 400 -194 400 -153 C400 -122 382 -99 349 -88 C342 -86 333 -84 324 -83 L366 -6 C529 -2 629 77 629 209 L629 209 Z " />
<glyph glyph-name="scedilla" unicode="&#x15f;" horiz-adv-x="512" d="M262 -6 C375 -6 462 43 462 146 C462 221 421 254 333 278 L216 310 C143 330 95 348 95 415 C95 491 160 528 249 528 C350 528 423 483 425 387 L447 387 C444 494 365 548 250 548 C155 548 73 508 73 415 C73 337 125 313 204 291 L329 257 C390 240 440 223 440 146 C440 53 364 14 264 14 C153 14 76 60 63 181 L41 181 C51 59 128 -1 246 -6 L198 -95 C211 -95 225 -97 237 -101 C262 -109 280 -127 280 -153 C280 -186 252 -209 210 -209 C188 -209 162 -203 144 -187 L136 -200 C157 -218 184 -224 208 -224 C259 -224 295 -194 295 -153 C295 -122 277 -99 244 -88 C237 -86 228 -84 219 -83 L261 -6 L262 -6 Z " />
<glyph glyph-name="Scaron" unicode="&#x160;" horiz-adv-x="679" d="M498 992 L472 992 L341 849 L209 992 L184 992 L329 838 L353 838 L498 992 Z M285 435 C202 457 115 482 115 589 C115 695 201 752 334 752 C483 752 586 683 587 547 L610 547 C609 696 493 773 335 773 C191 773 92 708 92 588 C92 465 191 438 273 415 L446 367 C534 343 607 318 607 210 C607 86 513 15 355 15 C170 15 64 111 64 279 L41 279 C41 96 162 -6 354 -6 C524 -6 629 74 629 209 C629 335 543 364 454 389 L285 435 Z " />
<glyph glyph-name="scaron" unicode="&#x161;" horiz-adv-x="512" d="M415 767 L389 767 L258 624 L126 767 L101 767 L246 613 L270 613 L415 767 Z M216 310 C143 330 95 348 95 415 C95 491 160 528 249 528 C350 528 423 483 425 387 L447 387 C444 494 365 548 250 548 C155 548 73 508 73 415 C73 337 125 313 204 291 L329 257 C390 240 440 223 440 146 C440 53 364 14 264 14 C153 14 76 60 63 181 L41 181 C51 54 135 -6 262 -6 C375 -6 462 43 462 146 C462 221 421 254 333 278 L216 310 Z " />
<glyph glyph-name="uni0162" unicode="&#x162;" horiz-adv-x="618" d="M610 767 L7 767 L7 746 L297 746 L297 0 L301 0 L250 -95 C263 -95 277 -97 289 -101 C314 -109 332 -127 332 -153 C332 -186 304 -209 262 -209 C240 -209 214 -203 196 -187 L188 -200 C209 -218 236 -224 260 -224 C311 -224 347 -194 347 -153 C347 -122 329 -99 296 -88 C289 -86 280 -84 271 -83 L317 0 L320 0 L320 6 L321 8 L320 8 L320 746 L610 746 L610 767 Z " />
<glyph glyph-name="uni0163" unicode="&#x163;" horiz-adv-x="285" d="M259 542 L135 542 L135 767 L113 767 L113 542 L22 542 L22 521 L113 521 L113 80 C113 40 137 10 173 2 L121 -95 C134 -95 148 -97 160 -101 C185 -109 203 -127 203 -153 C203 -186 175 -209 133 -209 C111 -209 85 -203 67 -187 L59 -200 C80 -218 107 -224 131 -224 C182 -224 218 -194 218 -153 C218 -122 200 -99 167 -88 C160 -86 151 -84 142 -83 L188 0 L193 0 L259 0 L259 21 L194 21 C160 21 135 46 135 80 L135 521 L259 521 L259 542 Z " />
<glyph glyph-name="Tcaron" unicode="&#x164;" horiz-adv-x="618" d="M466 992 L440 992 L309 849 L177 992 L152 992 L297 838 L321 838 L466 992 Z M7 746 L297 746 L297 0 L320 0 L320 746 L610 746 L610 767 L7 767 L7 746 Z " />
<glyph glyph-name="tcaron" unicode="&#x165;" horiz-adv-x="285" d="M281 852 C260 852 246 838 246 820 C246 801 260 787 280 787 C281 787 284 788 288 788 L240 651 L240 647 L256 647 L305 789 C310 805 312 813 312 821 C312 838 299 852 281 852 L281 852 Z M113 767 L113 542 L22 542 L22 521 L113 521 L113 80 C113 33 146 0 193 0 L259 0 L259 21 L194 21 C160 21 135 46 135 80 L135 521 L259 521 L259 542 L135 542 L135 767 L113 767 Z " />
<glyph glyph-name="Tbar" unicode="&#x166;" horiz-adv-x="618" d="M610 767 L7 767 L7 746 L297 746 L297 393 L181 393 L181 375 L297 375 L297 0 L320 0 L320 375 L435 375 L435 393 L320 393 L320 746 L610 746 L610 767 Z " />
<glyph glyph-name="tbar" unicode="&#x167;" horiz-adv-x="285" d="M276 280 L135 280 L135 521 L259 521 L259 542 L135 542 L135 767 L113 767 L113 542 L22 542 L22 521 L113 521 L113 280 L22 280 L22 262 L113 262 L113 80 C113 33 146 0 193 0 L259 0 L259 21 L194 21 C160 21 135 46 135 80 L135 262 L276 262 L276 280 Z " />
<glyph glyph-name="Utilde" unicode="&#x168;" horiz-adv-x="661" d="M413 868 C463 868 496 919 496 992 L480 992 C480 927 452 885 413 885 C333 885 344 998 254 997 C199 998 165 954 165 882 L181 882 C181 943 208 981 253 980 C330 981 318 868 413 868 L413 868 Z M331 -6 C501 -6 590 74 590 253 L590 767 L567 767 L567 254 C567 91 490 16 331 16 C174 16 94 87 94 254 L94 767 L71 767 L71 253 C71 78 157 -6 331 -6 L331 -6 Z " />
<glyph glyph-name="utilde" unicode="&#x169;" horiz-adv-x="525" d="M341 643 C391 643 424 694 424 767 L408 767 C408 702 380 660 341 660 C261 660 272 773 182 772 C127 773 93 729 93 657 L109 657 C109 718 136 756 181 755 C258 756 246 643 341 643 L341 643 Z M255 -6 C338 -6 399 37 428 100 L432 100 L432 0 L454 0 L454 542 L432 542 L432 237 C432 199 431 156 422 130 C401 61 340 15 259 15 C126 15 86 93 86 236 L86 542 L64 542 L64 233 C64 78 113 -6 255 -6 L255 -6 Z " />
<glyph glyph-name="Umacron" unicode="&#x16a;" horiz-adv-x="661" d="M476 920 L476 936 L184 936 L184 920 L476 920 Z M331 -6 C501 -6 590 74 590 253 L590 767 L567 767 L567 254 C567 91 490 16 331 16 C174 16 94 87 94 254 L94 767 L71 767 L71 253 C71 78 157 -6 331 -6 L331 -6 Z " />
<glyph glyph-name="umacron" unicode="&#x16b;" horiz-adv-x="525" d="M404 695 L404 711 L112 711 L112 695 L404 695 Z M255 -6 C338 -6 399 37 428 100 L432 100 L432 0 L454 0 L454 542 L432 542 L432 237 C432 199 431 156 422 130 C401 61 340 15 259 15 C126 15 86 93 86 236 L86 542 L64 542 L64 233 C64 78 113 -6 255 -6 L255 -6 Z " />
<glyph glyph-name="Uring" unicode="&#x16e;" horiz-adv-x="661" d="M330 830 C379 830 418 869 418 918 C418 967 378 1007 330 1007 C281 1007 241 968 241 918 C241 869 280 830 330 830 L330 830 Z M330 846 C288 846 257 877 257 918 C257 958 289 991 330 991 C371 991 403 958 403 918 C403 878 370 846 330 846 L330 846 Z M331 -6 C501 -6 590 74 590 253 L590 767 L567 767 L567 254 C567 91 490 16 331 16 C174 16 94 87 94 254 L94 767 L71 767 L71 253 C71 78 157 -6 331 -6 L331 -6 Z " />
<glyph glyph-name="uring" unicode="&#x16f;" horiz-adv-x="525" d="M259 605 C308 605 347 644 347 693 C347 742 307 782 259 782 C210 782 170 743 170 693 C170 644 209 605 259 605 L259 605 Z M259 621 C217 621 186 652 186 693 C186 733 218 766 259 766 C300 766 332 733 332 693 C332 653 299 621 259 621 L259 621 Z M255 -6 C338 -6 399 37 428 100 L432 100 L432 0 L454 0 L454 542 L432 542 L432 237 C432 199 431 156 422 130 C401 61 340 15 259 15 C126 15 86 93 86 236 L86 542 L64 542 L64 233 C64 78 113 -6 255 -6 L255 -6 Z " />
<glyph glyph-name="Uhungarumlaut" unicode="&#x170;" horiz-adv-x="661" d="M257 838 L373 992 L351 992 L238 838 L257 838 Z M422 838 L539 992 L515 992 L402 838 L422 838 Z M331 -6 C501 -6 590 74 590 253 L590 767 L567 767 L567 254 C567 91 490 16 331 16 C174 16 94 87 94 254 L94 767 L71 767 L71 253 C71 78 157 -6 331 -6 L331 -6 Z " />
<glyph glyph-name="uhungarumlaut" unicode="&#x171;" horiz-adv-x="525" d="M186 613 L302 767 L280 767 L167 613 L186 613 Z M351 613 L468 767 L444 767 L331 613 L351 613 Z M255 -6 C338 -6 399 37 428 100 L432 100 L432 0 L454 0 L454 542 L432 542 L432 237 C432 199 431 156 422 130 C401 61 340 15 259 15 C126 15 86 93 86 236 L86 542 L64 542 L64 233 C64 78 113 -6 255 -6 L255 -6 Z " />
<glyph glyph-name="Uogonek" unicode="&#x172;" horiz-adv-x="661" d="M567 254 C567 91 490 16 331 16 C174 16 94 87 94 254 L94 767 L71 767 L71 253 C71 78 157 -6 331 -6 C346 -6 361 -5 374 -4 C321 -40 292 -89 292 -136 C292 -188 329 -225 401 -225 L401 -208 C340 -208 309 -178 309 -132 C309 -87 341 -37 399 -1 C525 19 590 100 590 253 L590 767 L567 767 L567 254 Z " />
<glyph glyph-name="uogonek" unicode="&#x173;" horiz-adv-x="525" d="M363 -132 C363 -87 396 -36 455 0 L454 0 L454 542 L432 542 L432 237 C432 199 431 156 422 130 C401 61 340 15 259 15 C126 15 86 93 86 236 L86 542 L64 542 L64 233 C64 78 113 -6 255 -6 C338 -6 399 37 428 100 L432 100 L432 0 L435 0 C378 -37 346 -87 346 -136 C346 -188 383 -225 455 -225 L455 -208 C394 -208 363 -178 363 -132 L363 -132 Z " />
<glyph glyph-name="Wcircumflex" unicode="&#x174;" horiz-adv-x="1046" d="M654 838 L680 838 L535 992 L510 992 L366 838 L391 838 L523 981 L654 838 Z M751 24 L740 24 L545 767 L501 767 L306 24 L295 24 L41 767 L19 767 L19 761 L280 0 L325 0 L519 748 L527 748 L721 0 L766 0 L1027 761 L1027 767 L1005 767 L751 24 Z " />
<glyph glyph-name="wcircumflex" unicode="&#x175;" horiz-adv-x="878" d="M569 613 L595 613 L450 767 L425 767 L281 613 L306 613 L438 756 L569 613 Z M625 22 L612 22 L460 542 L417 542 L265 22 L254 22 L46 542 L22 542 L242 0 L281 0 L434 522 L445 522 L597 0 L638 0 L855 542 L833 542 L625 22 Z " />
<glyph glyph-name="Ycircumflex" unicode="&#x176;" horiz-adv-x="627" d="M444 838 L470 838 L325 992 L300 992 L156 838 L181 838 L313 981 L444 838 Z M314 312 L312 312 L34 767 L11 767 L11 761 L302 287 L302 0 L324 0 L324 287 L615 761 L615 767 L592 767 L314 312 Z " />
<glyph glyph-name="ycircumflex" unicode="&#x177;" horiz-adv-x="522" d="M391 613 L417 613 L272 767 L247 767 L103 613 L128 613 L260 756 L391 613 Z M265 20 L255 20 L46 542 L22 542 L240 0 L257 0 L199 -142 C182 -184 151 -203 107 -203 L36 -203 L36 -224 L110 -224 C162 -224 198 -200 218 -151 L281 0 L499 542 L475 542 L265 20 Z " />
<glyph glyph-name="Ydieresis" unicode="&#x178;" horiz-adv-x="627" d="M221 827 C238 827 252 841 252 858 C252 876 238 889 221 889 C203 889 189 876 189 858 C189 841 203 827 221 827 L221 827 Z M404 827 C420 827 435 841 435 858 C435 876 420 889 404 889 C386 889 372 876 372 858 C372 841 386 827 404 827 L404 827 Z M324 0 L324 287 L615 761 L615 767 L592 767 L314 312 L312 312 L34 767 L11 767 L11 761 L302 287 L302 0 L324 0 Z " />
<glyph glyph-name="Zacute" unicode="&#x179;" horiz-adv-x="636" d="M328 838 L447 992 L423 992 L308 838 L328 838 Z M609 0 L609 21 L44 21 L44 31 L611 725 L611 767 L47 767 L47 746 L589 746 L589 735 L22 41 L22 0 L609 0 Z " />
<glyph glyph-name="zacute" unicode="&#x17a;" horiz-adv-x="486" d="M254 613 L373 767 L349 767 L234 613 L254 613 Z M450 0 L450 21 L51 21 L51 23 L455 508 L455 542 L49 542 L49 521 L433 521 L433 516 L28 31 L28 0 L450 0 Z " />
<glyph glyph-name="Zdotaccent" unicode="&#x17b;" horiz-adv-x="636" d="M318 827 C335 827 349 841 349 858 C349 876 335 889 318 889 C300 889 286 876 286 858 C286 841 300 827 318 827 L318 827 Z M609 0 L609 21 L44 21 L44 31 L611 725 L611 767 L47 767 L47 746 L589 746 L589 735 L22 41 L22 0 L609 0 Z " />
<glyph glyph-name="zdotaccent" unicode="&#x17c;" horiz-adv-x="486" d="M244 715 C261 715 275 729 275 747 C275 764 261 778 244 778 C226 778 212 764 212 747 C212 729 226 715 244 715 L244 715 Z M450 0 L450 21 L51 21 L51 23 L455 508 L455 542 L49 542 L49 521 L433 521 L433 516 L28 31 L28 0 L450 0 Z " />
<glyph glyph-name="Zcaron" unicode="&#x17d;" horiz-adv-x="636" d="M476 992 L450 992 L319 849 L187 992 L162 992 L307 838 L331 838 L476 992 Z M611 767 L47 767 L47 746 L589 746 L589 735 L22 41 L22 0 L609 0 L609 21 L44 21 L44 31 L611 725 L611 767 Z " />
<glyph glyph-name="zcaron" unicode="&#x17e;" horiz-adv-x="486" d="M401 767 L375 767 L244 624 L112 767 L87 767 L232 613 L256 613 L401 767 Z M455 542 L49 542 L49 521 L433 521 L433 516 L28 31 L28 0 L450 0 L450 21 L51 21 L51 23 L455 508 L455 542 Z " />
<glyph glyph-name="florin" unicode="&#x192;" horiz-adv-x="512" d="M71 -255 C201 -255 265 -195 265 -68 L265 524 L432 524 L432 542 L265 542 L265 612 C265 701 306 753 401 753 L432 753 L432 772 L402 772 C293 772 245 711 245 611 L245 542 L154 542 L154 524 L245 524 L245 -67 C245 -185 192 -238 71 -238 L71 -255 Z " />
<glyph glyph-name="Ohorn" unicode="&#x1a0;" horiz-adv-x="770" d="M752 789 C752 697 719 652 639 651 C580 728 492 773 384 773 C183 773 49 617 49 384 C49 151 183 -6 384 -6 C585 -6 720 151 720 384 C720 484 695 569 651 634 C734 640 771 689 771 789 L771 853 L752 853 L752 789 Z M384 16 C196 16 71 163 71 384 C71 605 196 751 384 751 C572 751 698 605 698 384 C698 163 572 16 384 16 L384 16 Z " />
<glyph glyph-name="ohorn" unicode="&#x1a1;" horiz-adv-x="598" d="M602 594 C602 505 571 460 495 456 C451 517 381 548 299 548 C154 548 49 451 49 271 C49 91 154 -6 299 -6 C443 -6 549 91 549 271 C549 340 534 396 507 440 C585 447 621 496 621 594 L621 658 L602 658 L602 594 Z M299 15 C167 15 71 104 71 271 C71 438 167 527 299 527 C431 527 527 438 527 271 C527 104 431 15 299 15 L299 15 Z " />
<glyph glyph-name="Uhorn" unicode="&#x1af;" horiz-adv-x="661" d="M701 805 C701 714 668 669 590 667 L590 767 L567 767 L567 254 C567 91 490 16 331 16 C174 16 94 87 94 254 L94 767 L71 767 L71 253 C71 78 157 -6 331 -6 C501 -6 590 74 590 253 L590 650 C680 652 720 701 720 805 L720 869 L701 869 L701 805 Z " />
<glyph glyph-name="uhorn" unicode="&#x1b0;" horiz-adv-x="525" d="M558 680 C558 587 524 542 442 542 L432 542 L432 237 C432 199 431 156 422 130 C401 61 340 15 259 15 C126 15 86 93 86 236 L86 542 L64 542 L64 233 C64 78 113 -6 255 -6 C338 -6 399 37 428 100 L432 100 L432 0 L454 0 L454 525 C539 529 577 579 577 680 L577 744 L558 744 L558 680 Z " />
<glyph glyph-name="uni01C4" unicode="&#x1c4;" horiz-adv-x="1349" d="M1189 992 L1163 992 L1032 849 L900 992 L875 992 L1020 838 L1044 838 L1189 992 Z M77 767 L77 0 L322 0 C451 0 551 37 618 108 C677 171 709 262 709 378 C709 494 681 585 624 651 C559 727 457 767 323 767 L77 767 Z M1324 767 L760 767 L760 746 L1302 746 L1302 735 L735 41 L735 0 L1322 0 L1322 21 L757 21 L757 31 L1324 725 L1324 767 Z M603 124 C540 56 445 21 322 21 L100 21 L100 746 L323 746 C449 746 546 710 608 637 C661 576 687 489 687 378 C687 270 658 184 603 124 L603 124 Z " />
<glyph glyph-name="uni01C5" unicode="&#x1c5;" horiz-adv-x="1238" d="M77 767 L77 0 L322 0 C451 0 551 37 618 108 C677 171 709 262 709 378 C709 494 681 585 624 651 C559 727 457 767 323 767 L77 767 Z M1153 767 L1127 767 L996 624 L865 767 L839 767 L984 613 L1008 613 L1153 767 Z M603 124 C540 56 445 21 322 21 L100 21 L100 746 L323 746 C449 746 546 710 608 637 C661 576 687 489 687 378 C687 270 658 184 603 124 L603 124 Z M1207 542 L801 542 L801 521 L1185 521 L1185 516 L780 31 L780 0 L1202 0 L1202 21 L803 21 L803 23 L1207 508 L1207 542 Z " />
<glyph glyph-name="uni01C6" unicode="&#x1c6;" horiz-adv-x="1103" d="M519 396 C484 495 400 548 296 548 C153 548 49 450 49 271 C49 92 153 -6 296 -6 C400 -6 484 47 519 146 L525 146 L525 0 L547 0 L547 767 L525 767 L525 396 L519 396 Z M1018 767 L992 767 L861 624 L730 767 L704 767 L849 613 L873 613 L1018 767 Z M1072 542 L666 542 L666 521 L1050 521 L1050 516 L645 31 L645 0 L1067 0 L1067 21 L668 21 L668 23 L1072 508 L1072 542 Z M298 15 C166 15 71 104 71 271 C71 438 166 527 298 527 C430 527 526 439 526 271 C526 103 430 15 298 15 L298 15 Z " />
<glyph glyph-name="uni01C7" unicode="&#x1c7;" horiz-adv-x="1030" d="M469 0 L469 21 L100 21 L100 767 L78 767 L78 0 L469 0 Z M732 -6 C810 -6 869 20 906 63 C942 104 958 157 958 259 L958 767 L610 767 L610 746 L935 746 L935 261 C935 164 921 115 890 79 C856 40 803 15 732 15 C660 15 607 40 574 79 C543 114 528 162 528 259 L506 259 C506 157 521 104 557 63 C595 20 654 -6 732 -6 L732 -6 Z " />
<glyph glyph-name="uni01C8" unicode="&#x1c8;" horiz-adv-x="654" d="M571 715 C587 715 602 729 602 747 C602 764 587 778 571 778 C553 778 539 764 539 747 C539 729 553 715 571 715 L571 715 Z M469 0 L469 21 L100 21 L100 767 L78 767 L78 0 L469 0 Z M502 -225 C549 -225 582 -192 582 -145 L582 542 L560 542 L560 -145 C560 -179 535 -204 501 -204 L438 -204 L438 -225 L502 -225 Z " />
<glyph glyph-name="uni01C9" unicode="&#x1c9;" horiz-adv-x="419" d="M336 715 C353 715 367 729 367 747 C367 764 353 778 336 778 C318 778 304 764 304 747 C304 729 318 715 336 715 L336 715 Z M213 0 L213 21 L149 21 C115 21 90 46 90 80 L90 767 L68 767 L68 80 C68 33 101 0 148 0 L213 0 Z M267 -225 C314 -225 347 -192 347 -145 L347 542 L325 542 L325 -145 C325 -179 300 -204 266 -204 L203 -204 L203 -225 L267 -225 Z " />
<glyph glyph-name="uni01CA" unicode="&#x1ca;" horiz-adv-x="1232" d="M100 0 L100 747 L110 747 L553 0 L600 0 L600 767 L577 767 L577 20 L567 20 L124 767 L78 767 L78 0 L100 0 Z M933 -6 C1011 -6 1070 20 1107 63 C1143 104 1159 157 1159 259 L1159 767 L811 767 L811 746 L1136 746 L1136 261 C1136 164 1122 115 1091 79 C1057 40 1004 15 933 15 C861 15 808 40 775 79 C744 114 729 162 729 259 L707 259 C707 157 722 104 758 63 C796 20 855 -6 933 -6 L933 -6 Z " />
<glyph glyph-name="uni01CB" unicode="&#x1cb;" horiz-adv-x="855" d="M772 715 C788 715 803 729 803 747 C803 764 788 778 772 778 C754 778 740 764 740 747 C740 729 754 715 772 715 L772 715 Z M100 0 L100 747 L110 747 L553 0 L600 0 L600 767 L577 767 L577 20 L567 20 L124 767 L78 767 L78 0 L100 0 Z M703 -225 C750 -225 783 -192 783 -145 L783 542 L761 542 L761 -145 C761 -179 736 -204 702 -204 L639 -204 L639 -225 L703 -225 Z " />
<glyph glyph-name="uni01CC" unicode="&#x1cc;" horiz-adv-x="701" d="M618 715 C635 715 649 729 649 747 C649 764 635 778 618 778 C600 778 586 764 586 747 C586 729 600 715 618 715 L618 715 Z M92 0 L92 305 C92 343 93 386 101 412 C123 481 183 527 265 527 C398 527 438 449 438 306 L438 0 L460 0 L460 309 C460 464 411 548 269 548 C186 548 125 505 96 442 L92 442 L92 542 L70 542 L70 0 L92 0 Z M549 -225 C596 -225 629 -192 629 -145 L629 542 L607 542 L607 -145 C607 -179 582 -204 548 -204 L485 -204 L485 -225 L549 -225 Z " />
<glyph glyph-name="uni01CD" unicode="&#x1cd;" horiz-adv-x="603" d="M459 992 L433 992 L302 849 L170 992 L145 992 L290 838 L314 838 L459 992 Z M281 767 L20 6 L20 0 L42 0 L110 200 L493 200 L562 0 L584 0 L584 6 L323 767 L281 767 Z M296 744 L307 744 L486 221 L117 221 L296 744 Z " />
<glyph glyph-name="uni01CE" unicode="&#x1ce;" horiz-adv-x="536" d="M431 767 L405 767 L274 624 L142 767 L117 767 L262 613 L286 613 L431 767 Z M452 448 C424 511 360 548 265 548 C141 548 74 486 63 387 L85 387 C95 475 154 529 265 529 C388 529 445 463 447 356 L448 304 L226 304 C119 304 51 258 51 149 C51 53 119 -6 229 -6 C328 -6 403 43 440 139 L447 139 L447 0 L469 0 L469 353 C469 387 464 419 452 448 L452 448 Z M230 14 C132 14 73 65 73 149 C73 247 130 285 228 285 L448 285 L447 261 C443 116 371 14 230 14 L230 14 Z " />
<glyph glyph-name="uni01CF" unicode="&#x1cf;" horiz-adv-x="178" d="M89 849 L-43 992 L-68 992 L77 838 L101 838 L246 992 L220 992 L89 849 Z M100 0 L100 767 L78 767 L78 0 L100 0 Z " />
<glyph glyph-name="uni01D0" unicode="&#x1d0;" horiz-adv-x="162" d="M81 624 L-51 767 L-76 767 L69 613 L93 613 L238 767 L212 767 L81 624 Z M92 0 L92 542 L70 542 L70 0 L92 0 Z " />
<glyph glyph-name="uni01D1" unicode="&#x1d1;" horiz-adv-x="770" d="M542 992 L516 992 L385 849 L253 992 L228 992 L373 838 L397 838 L542 992 Z M384 773 C183 773 49 617 49 384 C49 151 183 -6 384 -6 C585 -6 720 151 720 384 C720 617 585 773 384 773 L384 773 Z M384 16 C196 16 71 163 71 384 C71 605 196 751 384 751 C572 751 698 605 698 384 C698 163 572 16 384 16 L384 16 Z " />
<glyph glyph-name="uni01D2" unicode="&#x1d2;" horiz-adv-x="598" d="M456 767 L430 767 L299 624 L167 767 L142 767 L287 613 L311 613 L456 767 Z M299 548 C154 548 49 451 49 271 C49 91 154 -6 299 -6 C443 -6 549 91 549 271 C549 451 443 548 299 548 L299 548 Z M299 15 C167 15 71 104 71 271 C71 438 167 527 299 527 C431 527 527 438 527 271 C527 104 431 15 299 15 L299 15 Z " />
<glyph glyph-name="uni01D3" unicode="&#x1d3;" horiz-adv-x="661" d="M488 992 L462 992 L331 849 L199 992 L174 992 L319 838 L343 838 L488 992 Z M567 254 C567 91 490 16 331 16 C174 16 94 87 94 254 L94 767 L71 767 L71 253 C71 78 157 -6 331 -6 C501 -6 590 74 590 253 L590 767 L567 767 L567 254 Z " />
<glyph glyph-name="uni01D4" unicode="&#x1d4;" horiz-adv-x="525" d="M416 767 L390 767 L259 624 L127 767 L102 767 L247 613 L271 613 L416 767 Z M432 237 C432 199 431 156 422 130 C401 61 340 15 259 15 C126 15 86 93 86 236 L86 542 L64 542 L64 233 C64 78 113 -6 255 -6 C338 -6 399 37 428 100 L432 100 L432 0 L454 0 L454 542 L432 542 L432 237 Z " />
<glyph glyph-name="uni01D5" unicode="&#x1d5;" horiz-adv-x="661" d="M476 1042 L476 1058 L184 1058 L184 1042 L476 1042 Z M239 827 C256 827 270 841 270 858 C270 876 256 889 239 889 C221 889 207 876 207 858 C207 841 221 827 239 827 L239 827 Z M422 827 C438 827 453 841 453 858 C453 876 438 889 422 889 C404 889 390 876 390 858 C390 841 404 827 422 827 L422 827 Z M331 -6 C501 -6 590 74 590 253 L590 767 L567 767 L567 254 C567 91 490 16 331 16 C174 16 94 87 94 254 L94 767 L71 767 L71 253 C71 78 157 -6 331 -6 L331 -6 Z " />
<glyph glyph-name="uni01D6" unicode="&#x1d6;" horiz-adv-x="525" d="M404 931 L404 947 L112 947 L112 931 L404 931 Z M167 715 C184 715 198 729 198 747 C198 764 184 778 167 778 C149 778 135 764 135 747 C135 729 149 715 167 715 L167 715 Z M350 715 C366 715 381 729 381 747 C381 764 366 778 350 778 C332 778 318 764 318 747 C318 729 332 715 350 715 L350 715 Z M255 -6 C338 -6 399 37 428 100 L432 100 L432 0 L454 0 L454 542 L432 542 L432 237 C432 199 431 156 422 130 C401 61 340 15 259 15 C126 15 86 93 86 236 L86 542 L64 542 L64 233 C64 78 113 -6 255 -6 L255 -6 Z " />
<glyph glyph-name="uni01D7" unicode="&#x1d7;" horiz-adv-x="661" d="M340 960 L459 1114 L435 1114 L320 960 L340 960 Z M239 827 C256 827 270 841 270 858 C270 876 256 889 239 889 C221 889 207 876 207 858 C207 841 221 827 239 827 L239 827 Z M422 827 C438 827 453 841 453 858 C453 876 438 889 422 889 C404 889 390 876 390 858 C390 841 404 827 422 827 L422 827 Z M331 -6 C501 -6 590 74 590 253 L590 767 L567 767 L567 254 C567 91 490 16 331 16 C174 16 94 87 94 254 L94 767 L71 767 L71 253 C71 78 157 -6 331 -6 L331 -6 Z " />
<glyph glyph-name="uni01D8" unicode="&#x1d8;" horiz-adv-x="525" d="M268 849 L387 1003 L363 1003 L248 849 L268 849 Z M167 715 C184 715 198 729 198 747 C198 764 184 778 167 778 C149 778 135 764 135 747 C135 729 149 715 167 715 L167 715 Z M350 715 C366 715 381 729 381 747 C381 764 366 778 350 778 C332 778 318 764 318 747 C318 729 332 715 350 715 L350 715 Z M255 -6 C338 -6 399 37 428 100 L432 100 L432 0 L454 0 L454 542 L432 542 L432 237 C432 199 431 156 422 130 C401 61 340 15 259 15 C126 15 86 93 86 236 L86 542 L64 542 L64 233 C64 78 113 -6 255 -6 L255 -6 Z " />
<glyph glyph-name="uni01D9" unicode="&#x1d9;" horiz-adv-x="661" d="M488 1114 L462 1114 L331 971 L199 1114 L174 1114 L319 960 L343 960 L488 1114 Z M207 858 C207 841 221 827 239 827 C256 827 270 841 270 858 C270 876 256 889 239 889 C221 889 207 876 207 858 L207 858 Z M390 858 C390 841 404 827 422 827 C438 827 453 841 453 858 C453 876 438 889 422 889 C404 889 390 876 390 858 L390 858 Z M567 254 C567 91 490 16 331 16 C174 16 94 87 94 254 L94 767 L71 767 L71 253 C71 78 157 -6 331 -6 C501 -6 590 74 590 253 L590 767 L567 767 L567 254 Z " />
<glyph glyph-name="uni01DA" unicode="&#x1da;" horiz-adv-x="525" d="M416 1003 L390 1003 L259 860 L127 1003 L102 1003 L247 849 L271 849 L416 1003 Z M135 747 C135 729 149 715 167 715 C184 715 198 729 198 747 C198 764 184 778 167 778 C149 778 135 764 135 747 L135 747 Z M318 747 C318 729 332 715 350 715 C366 715 381 729 381 747 C381 764 366 778 350 778 C332 778 318 764 318 747 L318 747 Z M432 237 C432 199 431 156 422 130 C401 61 340 15 259 15 C126 15 86 93 86 236 L86 542 L64 542 L64 233 C64 78 113 -6 255 -6 C338 -6 399 37 428 100 L432 100 L432 0 L454 0 L454 542 L432 542 L432 237 Z " />
<glyph glyph-name="uni01DB" unicode="&#x1db;" horiz-adv-x="661" d="M340 960 L225 1114 L203 1114 L321 960 L340 960 Z M239 827 C256 827 270 841 270 858 C270 876 256 889 239 889 C221 889 207 876 207 858 C207 841 221 827 239 827 L239 827 Z M422 827 C438 827 453 841 453 858 C453 876 438 889 422 889 C404 889 390 876 390 858 C390 841 404 827 422 827 L422 827 Z M331 -6 C501 -6 590 74 590 253 L590 767 L567 767 L567 254 C567 91 490 16 331 16 C174 16 94 87 94 254 L94 767 L71 767 L71 253 C71 78 157 -6 331 -6 L331 -6 Z " />
<glyph glyph-name="uni01DC" unicode="&#x1dc;" horiz-adv-x="525" d="M268 849 L153 1003 L131 1003 L249 849 L268 849 Z M167 715 C184 715 198 729 198 747 C198 764 184 778 167 778 C149 778 135 764 135 747 C135 729 149 715 167 715 L167 715 Z M350 715 C366 715 381 729 381 747 C381 764 366 778 350 778 C332 778 318 764 318 747 C318 729 332 715 350 715 L350 715 Z M255 -6 C338 -6 399 37 428 100 L432 100 L432 0 L454 0 L454 542 L432 542 L432 237 C432 199 431 156 422 130 C401 61 340 15 259 15 C126 15 86 93 86 236 L86 542 L64 542 L64 233 C64 78 113 -6 255 -6 L255 -6 Z " />
<glyph glyph-name="Gcaron" unicode="&#x1e6;" horiz-adv-x="782" d="M552 992 L526 992 L395 849 L263 992 L238 992 L383 838 L407 838 L552 992 Z M495 365 L699 365 C694 155 568 16 384 16 C196 16 71 163 71 384 C71 605 196 751 384 751 C541 751 654 650 687 488 L710 488 C676 662 553 773 384 773 C183 773 49 617 49 384 C49 151 183 -6 384 -6 C533 -6 643 79 690 218 L696 218 L696 0 L719 0 L719 386 L495 386 L495 365 Z " />
<glyph glyph-name="uni01EB" unicode="&#x1eb;" horiz-adv-x="598" d="M353 -1 C469 21 549 114 549 271 C549 451 443 548 299 548 C154 548 49 451 49 271 C49 91 154 -6 299 -6 C309 -6 318 -6 328 -5 C275 -41 246 -89 246 -136 C246 -188 283 -225 355 -225 L355 -208 C294 -208 263 -178 263 -132 C263 -87 295 -37 353 -1 L353 -1 Z M71 271 C71 438 167 527 299 527 C431 527 527 438 527 271 C527 104 431 15 299 15 C167 15 71 104 71 271 L71 271 Z " />
<glyph glyph-name="uni01F1" unicode="&#x1f1;" horiz-adv-x="1349" d="M322 0 C451 0 551 37 618 108 C677 171 709 262 709 378 C709 494 681 585 624 651 C559 727 457 767 323 767 L77 767 L77 0 L322 0 Z M1322 0 L1322 21 L757 21 L757 31 L1324 725 L1324 767 L760 767 L760 746 L1302 746 L1302 735 L735 41 L735 0 L1322 0 Z M100 746 L323 746 C449 746 546 710 608 637 C661 576 687 489 687 378 C687 270 658 184 603 124 C540 56 445 21 322 21 L100 21 L100 746 Z " />
<glyph glyph-name="uni01F2" unicode="&#x1f2;" horiz-adv-x="1238" d="M322 0 C451 0 551 37 618 108 C677 171 709 262 709 378 C709 494 681 585 624 651 C559 727 457 767 323 767 L77 767 L77 0 L322 0 Z M100 746 L323 746 C449 746 546 710 608 637 C661 576 687 489 687 378 C687 270 658 184 603 124 C540 56 445 21 322 21 L100 21 L100 746 Z M1202 0 L1202 21 L803 21 L803 23 L1207 508 L1207 542 L801 542 L801 521 L1185 521 L1185 516 L780 31 L780 0 L1202 0 Z " />
<glyph glyph-name="uni01F3" unicode="&#x1f3;" horiz-adv-x="1103" d="M296 -6 C400 -6 484 47 519 146 L525 146 L525 0 L547 0 L547 767 L525 767 L525 396 L519 396 C484 495 400 548 296 548 C153 548 49 450 49 271 C49 92 153 -6 296 -6 L296 -6 Z M1067 0 L1067 21 L668 21 L668 23 L1072 508 L1072 542 L666 542 L666 521 L1050 521 L1050 516 L645 31 L645 0 L1067 0 Z M298 15 C166 15 71 104 71 271 C71 438 166 527 298 527 C430 527 526 439 526 271 C526 103 430 15 298 15 L298 15 Z " />
<glyph glyph-name="Aringacute" unicode="&#x1fa;" horiz-adv-x="603" d="M328 754 C364 765 390 799 390 839 C390 881 360 917 320 926 L430 1068 L407 1068 L302 928 C253 928 213 888 213 839 C213 799 240 765 276 754 L20 6 L20 0 L42 0 L110 200 L493 200 L562 0 L584 0 L584 6 L328 754 Z M229 839 C229 879 261 912 302 912 C343 912 375 879 375 839 C375 802 349 773 314 767 L289 767 C254 773 229 801 229 839 L229 839 Z M296 744 L307 744 L486 221 L117 221 L296 744 Z " />
<glyph glyph-name="aringacute" unicode="&#x1fb;" horiz-adv-x="536" d="M274 605 C323 605 362 644 362 693 C362 736 331 772 292 780 L402 923 L378 923 L273 782 C224 781 185 743 185 693 C185 644 224 605 274 605 L274 605 Z M274 766 C315 766 347 733 347 693 C347 653 314 621 274 621 C232 621 201 652 201 693 C201 733 233 766 274 766 L274 766 Z M452 448 C424 511 360 548 265 548 C141 548 74 486 63 387 L85 387 C95 475 154 529 265 529 C388 529 445 463 447 356 L448 304 L226 304 C119 304 51 258 51 149 C51 53 119 -6 229 -6 C328 -6 403 43 440 139 L447 139 L447 0 L469 0 L469 353 C469 387 464 419 452 448 L452 448 Z M230 14 C132 14 73 65 73 149 C73 247 130 285 228 285 L448 285 L447 261 C443 116 371 14 230 14 L230 14 Z " />
<glyph glyph-name="aeacute" unicode="&#x1fd;" horiz-adv-x="986" d="M603 767 L488 613 L508 613 L627 767 L603 767 Z M941 289 C934 457 830 548 691 548 C587 548 504 498 465 403 C462 419 457 434 451 448 C424 511 360 548 265 548 C141 548 74 486 63 387 L84 387 C95 476 153 529 265 529 C388 529 446 464 447 356 L447 343 C445 330 443 317 442 304 L226 304 C119 304 51 258 51 149 C51 53 119 -6 230 -6 C348 -6 428 64 453 172 C485 56 576 -6 691 -6 C803 -6 891 53 926 163 L902 163 C870 66 791 15 691 15 C578 15 492 80 469 203 L469 285 L941 285 L941 289 Z M691 527 C814 527 906 450 917 304 L469 304 L469 339 C492 462 578 527 691 527 L691 527 Z M230 13 C132 13 72 65 72 149 C72 247 130 285 227 285 L441 285 L441 271 C441 253 442 236 444 220 C429 97 358 13 230 13 L230 13 Z " />
<glyph glyph-name="Oslashacute" unicode="&#x1fe;" horiz-adv-x="770" d="M489 992 L374 838 L394 838 L513 992 L489 992 Z M642 771 L627 782 L581 710 C527 750 460 773 384 773 C183 773 49 617 49 384 C49 248 95 138 173 70 L126 -4 L141 -13 L187 58 C240 17 307 -6 384 -6 C585 -6 720 151 720 384 C720 520 674 630 595 698 L642 771 Z M71 384 C71 605 196 751 384 751 C456 751 519 730 569 691 L185 88 C113 153 71 256 71 384 L71 384 Z M384 16 C312 16 249 38 199 77 L583 679 C656 615 698 512 698 384 C698 163 572 16 384 16 L384 16 Z " />
<glyph glyph-name="oslashacute" unicode="&#x1ff;" horiz-adv-x="598" d="M403 767 L288 613 L308 613 L427 767 L403 767 Z M496 563 L482 573 L441 508 C401 535 353 548 299 548 C154 548 49 451 49 271 C49 166 85 89 144 43 L102 -22 L115 -31 L157 34 C196 8 245 -6 299 -6 C443 -6 549 91 549 271 C549 376 513 453 455 498 L496 563 Z M71 271 C71 438 167 527 299 527 C348 527 393 515 429 490 L156 62 C103 104 71 175 71 271 L71 271 Z M299 15 C249 15 205 28 168 52 L443 480 C495 438 527 367 527 271 C527 104 431 15 299 15 L299 15 Z " />
<glyph glyph-name="uni0218" unicode="&#x218;" horiz-adv-x="679" d="M285 435 C202 457 115 482 115 589 C115 695 201 752 334 752 C483 752 586 683 587 547 L610 547 C609 696 493 773 335 773 C191 773 92 708 92 588 C92 465 191 438 273 415 L446 367 C534 343 607 318 607 210 C607 86 513 15 355 15 C170 15 64 111 64 279 L41 279 C41 96 162 -6 354 -6 C524 -6 629 74 629 209 C629 335 543 364 454 389 L285 435 Z M361 -61 C342 -61 329 -74 329 -94 C329 -112 342 -124 361 -124 L369 -124 L334 -224 L334 -227 L351 -227 L385 -123 C391 -107 393 -100 393 -93 C393 -74 381 -61 361 -61 L361 -61 Z " />
<glyph glyph-name="uni0219" unicode="&#x219;" horiz-adv-x="512" d="M216 310 C143 330 95 348 95 415 C95 491 160 528 249 528 C350 528 423 483 425 387 L447 387 C444 494 365 548 250 548 C155 548 73 508 73 415 C73 337 125 313 204 291 L329 257 C390 240 440 223 440 146 C440 53 364 14 264 14 C153 14 76 60 63 181 L41 181 C51 54 135 -6 262 -6 C375 -6 462 43 462 146 C462 221 421 254 333 278 L216 310 Z M257 -61 C238 -61 225 -74 225 -94 C225 -112 238 -124 257 -124 L265 -124 L230 -224 L230 -227 L247 -227 L281 -123 C287 -107 289 -100 289 -93 C289 -74 277 -61 257 -61 L257 -61 Z " />
<glyph glyph-name="uni021A" unicode="&#x21a;" horiz-adv-x="618" d="M7 746 L297 746 L297 0 L320 0 L320 746 L610 746 L610 767 L7 767 L7 746 Z M308 -61 C289 -61 276 -74 276 -94 C276 -112 289 -124 308 -124 L316 -124 L281 -224 L281 -227 L298 -227 L332 -123 C338 -107 340 -100 340 -93 C340 -74 328 -61 308 -61 L308 -61 Z " />
<glyph glyph-name="uni021B" unicode="&#x21b;" horiz-adv-x="285" d="M259 542 L135 542 L135 767 L113 767 L113 542 L22 542 L22 521 L113 521 L113 80 C113 33 146 0 193 0 L259 0 L259 21 L194 21 C160 21 135 46 135 80 L135 521 L259 521 L259 542 Z M179 -61 C160 -61 147 -74 147 -94 C147 -112 160 -124 179 -124 L187 -124 L152 -224 L152 -227 L169 -227 L203 -123 C209 -107 211 -100 211 -93 C211 -74 199 -61 179 -61 L179 -61 Z " />
<glyph glyph-name="uni0228" unicode="&#x228;" horiz-adv-x="594" d="M572 21 L100 21 L100 386 L492 386 L492 407 L100 407 L100 746 L549 746 L549 767 L78 767 L78 0 L317 0 L266 -95 C279 -95 293 -97 305 -101 C330 -109 348 -127 348 -153 C348 -186 320 -209 278 -209 C256 -209 230 -203 212 -187 L204 -200 C225 -218 252 -224 276 -224 C327 -224 363 -194 363 -153 C363 -122 345 -99 312 -88 C305 -86 296 -84 287 -83 L333 0 L572 0 L572 21 Z " />
<glyph glyph-name="uni0237" unicode="&#x237;" horiz-adv-x="177" d="M25 -225 C72 -225 105 -192 105 -145 L105 542 L83 542 L83 -145 C83 -179 58 -204 24 -204 L-39 -204 L-39 -225 L25 -225 Z " />
<glyph glyph-name="uni0254" unicode="&#x254;" horiz-adv-x="573" d="M274 548 C153 548 65 483 46 361 L68 361 C87 471 163 527 274 527 C406 527 502 439 502 271 C502 103 406 15 274 15 C163 15 87 71 68 181 L46 181 C65 59 153 -6 274 -6 C419 -6 524 91 524 271 C524 451 419 548 274 548 L274 548 Z " />
<glyph glyph-name="circumflex" unicode="&#x2c6;" horiz-adv-x="336" d="M180 767 L155 767 L11 613 L36 613 L168 756 L299 613 L325 613 L180 767 Z " />
<glyph glyph-name="caron" unicode="&#x2c7;" horiz-adv-x="340" d="M170 624 L38 767 L13 767 L158 613 L182 613 L327 767 L301 767 L170 624 Z " />
<glyph glyph-name="breve" unicode="&#x2d8;" horiz-adv-x="403" d="M202 625 C304 625 362 675 362 767 L344 767 C344 684 294 641 202 641 C109 641 58 684 58 767 L41 767 C41 676 96 625 202 625 L202 625 Z " />
<glyph glyph-name="dotaccent" unicode="&#x2d9;" horiz-adv-x="175" d="M88 715 C105 715 119 729 119 747 C119 764 105 778 88 778 C70 778 56 764 56 747 C56 729 70 715 88 715 L88 715 Z " />
<glyph glyph-name="ring" unicode="&#x2da;" horiz-adv-x="268" d="M134 605 C183 605 222 644 222 693 C222 742 182 782 134 782 C85 782 45 743 45 693 C45 644 84 605 134 605 L134 605 Z M134 621 C92 621 61 652 61 693 C61 733 93 766 134 766 C175 766 207 733 207 693 C207 653 174 621 134 621 L134 621 Z " />
<glyph glyph-name="ogonek" unicode="&#x2db;" horiz-adv-x="179" d="M147 -208 C86 -208 55 -178 55 -132 C55 -87 88 -36 147 0 L133 4 C72 -33 38 -85 38 -136 C38 -188 75 -225 147 -225 L147 -208 Z " />
<glyph glyph-name="tilde" unicode="&#x2dc;" horiz-adv-x="430" d="M297 643 C347 643 380 694 380 767 L364 767 C364 702 336 660 297 660 C217 660 228 773 138 772 C83 773 49 729 49 657 L65 657 C65 718 92 756 137 755 C214 756 202 643 297 643 L297 643 Z " />
<glyph glyph-name="hungarumlaut" unicode="&#x2dd;" horiz-adv-x="337" d="M37 613 L153 767 L131 767 L18 613 L37 613 Z M202 613 L319 767 L295 767 L182 613 L202 613 Z " />
<glyph glyph-name="gravecomb" unicode="&#x300;" d="M-18 613 L-133 767 L-155 767 L-37 613 L-18 613 Z " />
<glyph glyph-name="acutecomb" unicode="&#x301;" d="M-136 613 L-17 767 L-41 767 L-156 613 L-136 613 Z " />
<glyph glyph-name="uni0302" unicode="&#x302;" d="M-156 767 L-181 767 L-325 613 L-300 613 L-168 756 L-37 613 L-11 613 L-156 767 Z " />
<glyph glyph-name="tildecomb" unicode="&#x303;" d="M-133 643 C-83 643 -50 694 -50 767 L-66 767 C-66 702 -94 660 -133 660 C-213 660 -202 773 -292 772 C-347 773 -381 729 -381 657 L-365 657 C-365 718 -338 756 -293 755 C-216 756 -228 643 -133 643 L-133 643 Z " />
<glyph glyph-name="uni0304" unicode="&#x304;" d="M-63 695 L-63 711 L-355 711 L-355 695 L-63 695 Z " />
<glyph glyph-name="uni0306" unicode="&#x306;" d="M-201 625 C-99 625 -41 675 -41 767 L-59 767 C-59 684 -109 641 -201 641 C-294 641 -345 684 -345 767 L-362 767 C-362 676 -307 625 -201 625 L-201 625 Z " />
<glyph glyph-name="uni0307" unicode="&#x307;" d="M-87 715 C-70 715 -56 729 -56 747 C-56 764 -70 778 -87 778 C-105 778 -119 764 -119 747 C-119 729 -105 715 -87 715 L-87 715 Z " />
<glyph glyph-name="uni0308" unicode="&#x308;" d="M-269 715 C-252 715 -238 729 -238 747 C-238 764 -252 778 -269 778 C-287 778 -301 764 -301 747 C-301 729 -287 715 -269 715 L-269 715 Z M-86 715 C-70 715 -55 729 -55 747 C-55 764 -70 778 -86 778 C-104 778 -118 764 -118 747 C-118 729 -104 715 -86 715 L-86 715 Z " />
<glyph glyph-name="hookabovecomb" unicode="&#x309;" d="M-151 581 C-103 592 -44 598 -44 671 C-44 705 -59 726 -79 741 C-101 758 -132 767 -171 767 L-187 767 L-187 751 L-171 751 C-133 751 -107 743 -88 727 C-69 713 -62 695 -62 671 C-62 608 -114 603 -154 594 L-151 581 Z " />
<glyph glyph-name="uni030A" unicode="&#x30a;" d="M-134 605 C-85 605 -46 644 -46 693 C-46 742 -86 782 -134 782 C-183 782 -223 743 -223 693 C-223 644 -184 605 -134 605 L-134 605 Z M-134 621 C-176 621 -207 652 -207 693 C-207 733 -175 766 -134 766 C-93 766 -61 733 -61 693 C-61 653 -94 621 -134 621 L-134 621 Z " />
<glyph glyph-name="uni030B" unicode="&#x30b;" d="M-300 613 L-184 767 L-206 767 L-319 613 L-300 613 Z M-135 613 L-18 767 L-42 767 L-155 613 L-135 613 Z " />
<glyph glyph-name="uni030C" unicode="&#x30c;" d="M-170 624 L-302 767 L-327 767 L-182 613 L-158 613 L-13 767 L-39 767 L-170 624 Z " />
<glyph glyph-name="uni030F" unicode="&#x30f;" d="M-295 767 L-319 767 L-202 613 L-182 613 L-295 767 Z M-131 767 L-154 767 L-38 613 L-18 613 L-131 767 Z " />
<glyph glyph-name="uni0312" unicode="&#x312;" d="M-89 665 L-97 665 L-61 754 L-61 757 L-78 757 L-110 673 C-119 650 -121 644 -121 637 C-121 620 -108 609 -89 609 C-70 609 -56 620 -56 638 C-56 655 -70 665 -89 665 L-89 665 Z " />
<glyph glyph-name="uni031B" unicode="&#x31b;" d="M-188 750 C-95 750 -53 799 -53 905 L-53 969 L-72 969 L-72 905 C-72 812 -106 767 -188 767 L-188 750 Z " />
<glyph glyph-name="dotbelowcomb" unicode="&#x323;" d="M-87 -236 C-70 -236 -56 -221 -56 -205 C-56 -187 -70 -173 -87 -173 C-105 -173 -119 -187 -119 -205 C-119 -221 -105 -236 -87 -236 L-87 -236 Z " />
<glyph glyph-name="uni0326" unicode="&#x326;" d="M-82 -61 C-101 -61 -114 -74 -114 -94 C-114 -112 -101 -124 -82 -124 L-74 -124 L-109 -224 L-109 -227 L-92 -227 L-58 -123 C-52 -107 -50 -100 -50 -93 C-50 -74 -62 -61 -82 -61 L-82 -61 Z " />
<glyph glyph-name="uni0327" unicode="&#x327;" d="M-128 -224 C-77 -224 -41 -194 -41 -153 C-41 -122 -59 -99 -92 -88 C-99 -86 -108 -84 -117 -83 L-67 8 L-82 9 L-138 -95 C-125 -95 -111 -97 -99 -101 C-74 -109 -56 -127 -56 -153 C-56 -186 -84 -209 -126 -209 C-148 -209 -174 -203 -192 -187 L-200 -200 C-179 -218 -152 -224 -128 -224 L-128 -224 Z " />
<glyph glyph-name="uni0328" unicode="&#x328;" d="M-32 -208 C-93 -208 -124 -178 -124 -132 C-124 -87 -91 -36 -32 0 L-46 4 C-107 -33 -141 -85 -141 -136 C-141 -188 -104 -225 -32 -225 L-32 -208 Z " />
<glyph glyph-name="uni0335" unicode="&#x335;" d="M-63 308 L-63 326 L-317 326 L-317 308 L-63 308 Z " />
<glyph glyph-name="uni0336" unicode="&#x336;" d="M-63 301 L-63 318 L-740 318 L-740 301 L-63 301 Z " />
<glyph glyph-name="uni0337" unicode="&#x337;" d="M-9 390 L-9 414 L-242 214 L-242 191 L-9 390 Z " />
<glyph glyph-name="uni0338" unicode="&#x338;" d="M9 592 L-5 602 L-385 7 L-372 -2 L9 592 Z " />
<glyph glyph-name="uni0394" unicode="&#x394;" horiz-adv-x="690" d="M606 0 L306 779 L6 0 L606 0 Z M306 730 L580 19 L33 19 L306 730 Z " />
<glyph glyph-name="uni03A9" unicode="&#x3a9;" horiz-adv-x="807" d="M287 0 L287 76 C167 132 90 251 90 403 C90 567 195 696 365 696 C533 696 641 570 641 403 C641 237 563 116 443 78 L443 0 L718 0 L718 18 L464 18 L464 68 C584 115 660 239 660 403 C660 579 546 715 365 715 C187 715 71 581 71 403 C71 254 146 132 266 69 L266 19 L11 19 L11 0 L287 0 Z " />
<glyph glyph-name="uni03BC" unicode="&#x3bc;" horiz-adv-x="580" d="M120 -225 L120 102 C144 31 199 -6 282 -6 C368 -6 434 39 460 116 L460 0 L481 0 L481 542 L460 542 L460 202 C460 87 391 15 285 15 C178 15 122 78 122 201 L122 542 L101 542 L101 -225 L120 -225 Z " />
<glyph glyph-name="pi" unicode="&#x3c0;" horiz-adv-x="567" d="M129 0 L129 522 L392 522 L392 80 C392 33 425 0 471 0 L536 0 L536 21 L472 21 C439 21 414 46 414 80 L414 522 L529 522 L529 542 L40 542 L40 522 L107 522 L107 0 L129 0 Z " />
<glyph glyph-name="uni1E44" unicode="&#x1e44;" horiz-adv-x="678" d="M339 827 C356 827 370 841 370 858 C370 876 356 889 339 889 C321 889 307 876 307 858 C307 841 321 827 339 827 L339 827 Z M100 0 L100 747 L110 747 L553 0 L600 0 L600 767 L577 767 L577 20 L567 20 L124 767 L78 767 L78 0 L100 0 Z " />
<glyph glyph-name="Wgrave" unicode="&#x1e80;" horiz-adv-x="1046" d="M532 838 L417 992 L395 992 L513 838 L532 838 Z M325 0 L519 748 L527 748 L721 0 L766 0 L1027 761 L1027 767 L1005 767 L751 24 L740 24 L545 767 L501 767 L306 24 L295 24 L41 767 L19 767 L19 761 L280 0 L325 0 Z " />
<glyph glyph-name="wgrave" unicode="&#x1e81;" horiz-adv-x="878" d="M448 613 L333 767 L311 767 L429 613 L448 613 Z M281 0 L434 522 L445 522 L597 0 L638 0 L855 542 L833 542 L625 22 L612 22 L460 542 L417 542 L265 22 L254 22 L46 542 L22 542 L242 0 L281 0 Z " />
<glyph glyph-name="Wacute" unicode="&#x1e82;" horiz-adv-x="1046" d="M533 838 L652 992 L628 992 L513 838 L533 838 Z M325 0 L519 748 L527 748 L721 0 L766 0 L1027 761 L1027 767 L1005 767 L751 24 L740 24 L545 767 L501 767 L306 24 L295 24 L41 767 L19 767 L19 761 L280 0 L325 0 Z " />
<glyph glyph-name="wacute" unicode="&#x1e83;" horiz-adv-x="878" d="M448 613 L567 767 L543 767 L428 613 L448 613 Z M281 0 L434 522 L445 522 L597 0 L638 0 L855 542 L833 542 L625 22 L612 22 L460 542 L417 542 L265 22 L254 22 L46 542 L22 542 L242 0 L281 0 Z " />
<glyph glyph-name="Wdieresis" unicode="&#x1e84;" horiz-adv-x="1046" d="M432 827 C449 827 463 841 463 858 C463 876 449 889 432 889 C414 889 400 876 400 858 C400 841 414 827 432 827 L432 827 Z M615 827 C631 827 646 841 646 858 C646 876 631 889 615 889 C597 889 583 876 583 858 C583 841 597 827 615 827 L615 827 Z M325 0 L519 748 L527 748 L721 0 L766 0 L1027 761 L1027 767 L1005 767 L751 24 L740 24 L545 767 L501 767 L306 24 L295 24 L41 767 L19 767 L19 761 L280 0 L325 0 Z " />
<glyph glyph-name="wdieresis" unicode="&#x1e85;" horiz-adv-x="878" d="M347 715 C364 715 378 729 378 747 C378 764 364 778 347 778 C329 778 315 764 315 747 C315 729 329 715 347 715 L347 715 Z M530 715 C546 715 561 729 561 747 C561 764 546 778 530 778 C512 778 498 764 498 747 C498 729 512 715 530 715 L530 715 Z M281 0 L434 522 L445 522 L597 0 L638 0 L855 542 L833 542 L625 22 L612 22 L460 542 L417 542 L265 22 L254 22 L46 542 L22 542 L242 0 L281 0 Z " />
<glyph glyph-name="uni1E9E" unicode="&#x1e9e;" horiz-adv-x="686" d="M355 416 L575 747 L575 767 L78 767 L78 0 L100 0 L100 746 L550 746 L322 403 L452 367 C540 343 613 318 613 211 C613 86 520 21 360 21 L250 21 L250 0 L363 0 C532 0 636 74 636 209 C636 335 550 364 460 387 L355 416 Z " />
<glyph glyph-name="uni1EA0" unicode="&#x1ea0;" horiz-adv-x="603" d="M281 767 L20 6 L20 0 L42 0 L110 200 L493 200 L562 0 L584 0 L584 6 L323 767 L281 767 Z M296 744 L307 744 L486 221 L117 221 L296 744 Z M302 -79 C284 -79 270 -93 270 -111 C270 -127 284 -142 302 -142 C319 -142 333 -127 333 -111 C333 -93 319 -79 302 -79 L302 -79 Z " />
<glyph glyph-name="uni1EA1" unicode="&#x1ea1;" horiz-adv-x="536" d="M452 448 C424 511 360 548 265 548 C141 548 74 486 63 387 L85 387 C95 475 154 529 265 529 C388 529 445 463 447 356 L448 304 L226 304 C119 304 51 258 51 149 C51 53 119 -6 229 -6 C328 -6 403 43 440 139 L447 139 L447 0 L469 0 L469 353 C469 387 464 419 452 448 L452 448 Z M230 14 C132 14 73 65 73 149 C73 247 130 285 228 285 L448 285 L447 261 C443 116 371 14 230 14 L230 14 Z M274 -79 C256 -79 242 -93 242 -111 C242 -127 256 -142 274 -142 C291 -142 305 -127 305 -111 C305 -93 291 -79 274 -79 L274 -79 Z " />
<glyph glyph-name="uni1EA2" unicode="&#x1ea2;" horiz-adv-x="603" d="M362 952 C381 938 388 920 388 896 C388 833 336 828 296 819 L299 806 C347 817 406 823 406 896 C406 930 391 951 371 966 C349 983 318 992 279 992 L263 992 L263 976 L279 976 C317 976 343 968 362 952 L362 952 Z M281 767 L20 6 L20 0 L42 0 L110 200 L493 200 L562 0 L584 0 L584 6 L323 767 L281 767 Z M296 744 L307 744 L486 221 L117 221 L296 744 Z " />
<glyph glyph-name="uni1EA3" unicode="&#x1ea3;" horiz-adv-x="536" d="M333 727 C352 713 359 695 359 671 C359 608 307 603 267 594 L270 581 C318 592 377 598 377 671 C377 705 362 726 342 741 C320 758 289 767 250 767 L234 767 L234 751 L250 751 C288 751 314 743 333 727 L333 727 Z M452 448 C424 511 360 548 265 548 C141 548 74 486 63 387 L85 387 C95 475 154 529 265 529 C388 529 445 463 447 356 L448 304 L226 304 C119 304 51 258 51 149 C51 53 119 -6 229 -6 C328 -6 403 43 440 139 L447 139 L447 0 L469 0 L469 353 C469 387 464 419 452 448 L452 448 Z M230 14 C132 14 73 65 73 149 C73 247 130 285 228 285 L448 285 L447 261 C443 116 371 14 230 14 L230 14 Z " />
<glyph glyph-name="uni1EA4" unicode="&#x1ea4;" horiz-adv-x="603" d="M407 1213 L292 1059 L312 1059 L431 1213 L407 1213 Z M433 838 L459 838 L314 992 L289 992 L145 838 L170 838 L302 981 L433 838 Z M281 767 L20 6 L20 0 L42 0 L110 200 L493 200 L562 0 L584 0 L584 6 L323 767 L281 767 Z M296 744 L307 744 L486 221 L117 221 L296 744 Z " />
<glyph glyph-name="uni1EA5" unicode="&#x1ea5;" horiz-adv-x="536" d="M379 988 L264 834 L284 834 L403 988 L379 988 Z M405 613 L431 613 L286 767 L261 767 L117 613 L142 613 L274 756 L405 613 Z M452 448 C424 511 360 548 265 548 C141 548 74 486 63 387 L85 387 C95 475 154 529 265 529 C388 529 445 463 447 356 L448 304 L226 304 C119 304 51 258 51 149 C51 53 119 -6 229 -6 C328 -6 403 43 440 139 L447 139 L447 0 L469 0 L469 353 C469 387 464 419 452 448 L452 448 Z M230 14 C132 14 73 65 73 149 C73 247 130 285 228 285 L448 285 L447 261 C443 116 371 14 230 14 L230 14 Z " />
<glyph glyph-name="uni1EA6" unicode="&#x1ea6;" horiz-adv-x="603" d="M197 1213 L174 1213 L292 1059 L312 1059 L197 1213 Z M433 838 L459 838 L314 992 L289 992 L145 838 L170 838 L302 981 L433 838 Z M281 767 L20 6 L20 0 L42 0 L110 200 L493 200 L562 0 L584 0 L584 6 L323 767 L281 767 Z M296 744 L307 744 L486 221 L117 221 L296 744 Z " />
<glyph glyph-name="uni1EA7" unicode="&#x1ea7;" horiz-adv-x="536" d="M169 988 L146 988 L264 834 L284 834 L169 988 Z M405 613 L431 613 L286 767 L261 767 L117 613 L142 613 L274 756 L405 613 Z M452 448 C424 511 360 548 265 548 C141 548 74 486 63 387 L85 387 C95 475 154 529 265 529 C388 529 445 463 447 356 L448 304 L226 304 C119 304 51 258 51 149 C51 53 119 -6 229 -6 C328 -6 403 43 440 139 L447 139 L447 0 L469 0 L469 353 C469 387 464 419 452 448 L452 448 Z M230 14 C132 14 73 65 73 149 C73 247 130 285 228 285 L448 285 L447 261 C443 116 371 14 230 14 L230 14 Z " />
<glyph glyph-name="uni1EA8" unicode="&#x1ea8;" horiz-adv-x="603" d="M362 1173 C381 1159 388 1141 388 1117 C388 1054 336 1050 296 1041 L299 1027 C347 1038 406 1044 406 1118 C406 1152 391 1172 371 1187 C349 1204 318 1213 279 1213 L263 1213 L263 1197 L279 1197 C317 1197 343 1189 362 1173 L362 1173 Z M433 838 L459 838 L314 992 L289 992 L145 838 L170 838 L302 981 L433 838 Z M281 767 L20 6 L20 0 L42 0 L110 200 L493 200 L562 0 L584 0 L584 6 L323 767 L281 767 Z M296 744 L307 744 L486 221 L117 221 L296 744 Z " />
<glyph glyph-name="uni1EA9" unicode="&#x1ea9;" horiz-adv-x="536" d="M334 948 C353 934 360 916 360 892 C360 829 308 825 268 816 L271 802 C319 813 378 819 378 893 C378 927 363 947 343 962 C321 979 290 988 251 988 L235 988 L235 972 L251 972 C289 972 315 964 334 948 L334 948 Z M405 613 L431 613 L286 767 L261 767 L117 613 L142 613 L274 756 L405 613 Z M452 448 C424 511 360 548 265 548 C141 548 74 486 63 387 L85 387 C95 475 154 529 265 529 C388 529 445 463 447 356 L448 304 L226 304 C119 304 51 258 51 149 C51 53 119 -6 229 -6 C328 -6 403 43 440 139 L447 139 L447 0 L469 0 L469 353 C469 387 464 419 452 448 L452 448 Z M230 14 C132 14 73 65 73 149 C73 247 130 285 228 285 L448 285 L447 261 C443 116 371 14 230 14 L230 14 Z " />
<glyph glyph-name="uni1EAA" unicode="&#x1eaa;" horiz-adv-x="603" d="M224 1202 C301 1203 289 1090 384 1090 C434 1090 467 1140 467 1213 L451 1213 C451 1149 423 1106 384 1106 C304 1106 315 1219 225 1218 C170 1219 136 1175 136 1104 L152 1104 C152 1165 179 1203 224 1202 L224 1202 Z M145 838 L169 838 L301 981 L433 838 L458 838 L314 992 L288 992 L145 838 Z M281 767 L20 6 L20 0 L42 0 L110 200 L493 200 L562 0 L584 0 L584 6 L323 767 L281 767 Z M296 744 L307 744 L486 221 L117 221 L296 744 Z " />
<glyph glyph-name="uni1EAB" unicode="&#x1eab;" horiz-adv-x="536" d="M196 977 C273 978 261 865 356 865 C406 865 439 915 439 988 L423 988 C423 924 395 881 356 881 C276 881 287 994 197 993 C142 994 108 950 108 879 L124 879 C124 940 151 978 196 977 L196 977 Z M117 613 L141 613 L273 756 L405 613 L430 613 L286 767 L260 767 L117 613 Z M452 448 C424 511 360 548 265 548 C141 548 74 486 63 387 L85 387 C95 475 154 529 265 529 C388 529 445 463 447 356 L448 304 L226 304 C119 304 51 258 51 149 C51 53 119 -6 229 -6 C328 -6 403 43 440 139 L447 139 L447 0 L469 0 L469 353 C469 387 464 419 452 448 L452 448 Z M230 14 C132 14 73 65 73 149 C73 247 130 285 228 285 L448 285 L447 261 C443 116 371 14 230 14 L230 14 Z " />
<glyph glyph-name="uni1EAC" unicode="&#x1eac;" horiz-adv-x="603" d="M433 838 L459 838 L314 992 L289 992 L145 838 L170 838 L302 981 L433 838 Z M281 767 L20 6 L20 0 L42 0 L110 200 L493 200 L562 0 L584 0 L584 6 L323 767 L281 767 Z M296 744 L307 744 L486 221 L117 221 L296 744 Z M302 -79 C284 -79 270 -93 270 -111 C270 -127 284 -142 302 -142 C319 -142 333 -127 333 -111 C333 -93 319 -79 302 -79 L302 -79 Z " />
<glyph glyph-name="uni1EAD" unicode="&#x1ead;" horiz-adv-x="536" d="M405 613 L431 613 L286 767 L261 767 L117 613 L142 613 L274 756 L405 613 Z M452 448 C424 511 360 548 265 548 C141 548 74 486 63 387 L85 387 C95 475 154 529 265 529 C388 529 445 463 447 356 L448 304 L226 304 C119 304 51 258 51 149 C51 53 119 -6 229 -6 C328 -6 403 43 440 139 L447 139 L447 0 L469 0 L469 353 C469 387 464 419 452 448 L452 448 Z M230 14 C132 14 73 65 73 149 C73 247 130 285 228 285 L448 285 L447 261 C443 116 371 14 230 14 L230 14 Z M274 -79 C256 -79 242 -93 242 -111 C242 -127 256 -142 274 -142 C291 -142 305 -127 305 -111 C305 -93 291 -79 274 -79 L274 -79 Z " />
<glyph glyph-name="uni1EAE" unicode="&#x1eae;" horiz-adv-x="603" d="M407 1217 L292 1063 L312 1063 L431 1217 L407 1217 Z M303 850 C405 850 463 900 463 992 L445 992 C445 909 395 866 303 866 C210 866 159 909 159 992 L142 992 C142 901 197 850 303 850 L303 850 Z M281 767 L20 6 L20 0 L42 0 L110 200 L493 200 L562 0 L584 0 L584 6 L323 767 L281 767 Z M296 744 L307 744 L486 221 L117 221 L296 744 Z " />
<glyph glyph-name="uni1EAF" unicode="&#x1eaf;" horiz-adv-x="536" d="M378 992 L263 838 L283 838 L402 992 L378 992 Z M274 625 C376 625 434 675 434 767 L416 767 C416 684 366 641 274 641 C181 641 130 684 130 767 L113 767 C113 676 168 625 274 625 L274 625 Z M452 448 C424 511 360 548 265 548 C141 548 74 486 63 387 L85 387 C95 475 154 529 265 529 C388 529 445 463 447 356 L448 304 L226 304 C119 304 51 258 51 149 C51 53 119 -6 229 -6 C328 -6 403 43 440 139 L447 139 L447 0 L469 0 L469 353 C469 387 464 419 452 448 L452 448 Z M230 14 C132 14 73 65 73 149 C73 247 130 285 228 285 L448 285 L447 261 C443 116 371 14 230 14 L230 14 Z " />
<glyph glyph-name="uni1EB0" unicode="&#x1eb0;" horiz-adv-x="603" d="M197 1217 L174 1217 L292 1063 L312 1063 L197 1217 Z M303 850 C405 850 463 900 463 992 L445 992 C445 909 395 866 303 866 C210 866 159 909 159 992 L142 992 C142 901 197 850 303 850 L303 850 Z M281 767 L20 6 L20 0 L42 0 L110 200 L493 200 L562 0 L584 0 L584 6 L323 767 L281 767 Z M296 744 L307 744 L486 221 L117 221 L296 744 Z " />
<glyph glyph-name="uni1EB1" unicode="&#x1eb1;" horiz-adv-x="536" d="M168 992 L145 992 L263 838 L283 838 L168 992 Z M274 625 C376 625 434 675 434 767 L416 767 C416 684 366 641 274 641 C181 641 130 684 130 767 L113 767 C113 676 168 625 274 625 L274 625 Z M452 448 C424 511 360 548 265 548 C141 548 74 486 63 387 L85 387 C95 475 154 529 265 529 C388 529 445 463 447 356 L448 304 L226 304 C119 304 51 258 51 149 C51 53 119 -6 229 -6 C328 -6 403 43 440 139 L447 139 L447 0 L469 0 L469 353 C469 387 464 419 452 448 L452 448 Z M230 14 C132 14 73 65 73 149 C73 247 130 285 228 285 L448 285 L447 261 C443 116 371 14 230 14 L230 14 Z " />
<glyph glyph-name="uni1EB2" unicode="&#x1eb2;" horiz-adv-x="603" d="M362 1177 C381 1163 388 1145 388 1121 C388 1058 336 1053 296 1044 L299 1031 C347 1042 407 1048 407 1121 C407 1155 391 1176 371 1191 C350 1208 319 1217 279 1217 L264 1217 L264 1201 L279 1201 C317 1201 343 1193 362 1177 L362 1177 Z M303 850 C405 850 463 900 463 992 L445 992 C445 909 395 866 303 866 C210 866 159 909 159 992 L142 992 C142 901 197 850 303 850 L303 850 Z M281 767 L20 6 L20 0 L42 0 L110 200 L493 200 L562 0 L584 0 L584 6 L323 767 L281 767 Z M296 744 L307 744 L486 221 L117 221 L296 744 Z " />
<glyph glyph-name="uni1EB3" unicode="&#x1eb3;" horiz-adv-x="536" d="M333 952 C352 938 359 920 359 896 C359 833 307 828 267 819 L270 806 C318 817 378 823 378 896 C378 930 362 951 342 966 C321 983 290 992 250 992 L235 992 L235 976 L250 976 C288 976 314 968 333 952 L333 952 Z M274 625 C376 625 434 675 434 767 L416 767 C416 684 366 641 274 641 C181 641 130 684 130 767 L113 767 C113 676 168 625 274 625 L274 625 Z M452 448 C424 511 360 548 265 548 C141 548 74 486 63 387 L85 387 C95 475 154 529 265 529 C388 529 445 463 447 356 L448 304 L226 304 C119 304 51 258 51 149 C51 53 119 -6 229 -6 C328 -6 403 43 440 139 L447 139 L447 0 L469 0 L469 353 C469 387 464 419 452 448 L452 448 Z M230 14 C132 14 73 65 73 149 C73 247 130 285 228 285 L448 285 L447 261 C443 116 371 14 230 14 L230 14 Z " />
<glyph glyph-name="uni1EB4" unicode="&#x1eb4;" horiz-adv-x="603" d="M225 1205 C302 1206 289 1093 385 1093 C434 1093 468 1144 468 1217 L452 1217 C452 1152 424 1110 385 1110 C304 1110 315 1223 225 1222 C171 1223 136 1179 136 1107 L152 1107 C152 1168 180 1206 225 1205 L225 1205 Z M303 866 C210 866 159 909 159 992 L142 992 C142 901 197 850 303 850 C405 850 463 900 463 992 L445 992 C445 909 395 866 303 866 L303 866 Z M281 767 L20 6 L20 0 L42 0 L110 200 L493 200 L562 0 L584 0 L584 6 L323 767 L281 767 Z M296 744 L307 744 L486 221 L117 221 L296 744 Z " />
<glyph glyph-name="uni1EB5" unicode="&#x1eb5;" horiz-adv-x="536" d="M196 980 C273 981 260 868 356 868 C405 868 439 919 439 992 L423 992 C423 927 395 885 356 885 C275 885 286 998 196 997 C142 998 107 954 107 882 L123 882 C123 943 151 981 196 980 L196 980 Z M274 641 C181 641 130 684 130 767 L113 767 C113 676 168 625 274 625 C376 625 434 675 434 767 L416 767 C416 684 366 641 274 641 L274 641 Z M452 448 C424 511 360 548 265 548 C141 548 74 486 63 387 L85 387 C95 475 154 529 265 529 C388 529 445 463 447 356 L448 304 L226 304 C119 304 51 258 51 149 C51 53 119 -6 229 -6 C328 -6 403 43 440 139 L447 139 L447 0 L469 0 L469 353 C469 387 464 419 452 448 L452 448 Z M230 14 C132 14 73 65 73 149 C73 247 130 285 228 285 L448 285 L447 261 C443 116 371 14 230 14 L230 14 Z " />
<glyph glyph-name="uni1EB6" unicode="&#x1eb6;" horiz-adv-x="603" d="M303 850 C405 850 463 900 463 992 L445 992 C445 909 395 866 303 866 C210 866 159 909 159 992 L142 992 C142 901 197 850 303 850 L303 850 Z M281 767 L20 6 L20 0 L42 0 L110 200 L493 200 L562 0 L584 0 L584 6 L323 767 L281 767 Z M296 744 L307 744 L486 221 L117 221 L296 744 Z M302 -79 C284 -79 270 -93 270 -111 C270 -127 284 -142 302 -142 C319 -142 333 -127 333 -111 C333 -93 319 -79 302 -79 L302 -79 Z " />
<glyph glyph-name="uni1EB7" unicode="&#x1eb7;" horiz-adv-x="536" d="M274 625 C376 625 434 675 434 767 L416 767 C416 684 366 641 274 641 C181 641 130 684 130 767 L113 767 C113 676 168 625 274 625 L274 625 Z M452 448 C424 511 360 548 265 548 C141 548 74 486 63 387 L85 387 C95 475 154 529 265 529 C388 529 445 463 447 356 L448 304 L226 304 C119 304 51 258 51 149 C51 53 119 -6 229 -6 C328 -6 403 43 440 139 L447 139 L447 0 L469 0 L469 353 C469 387 464 419 452 448 L452 448 Z M230 14 C132 14 73 65 73 149 C73 247 130 285 228 285 L448 285 L447 261 C443 116 371 14 230 14 L230 14 Z M274 -79 C256 -79 242 -93 242 -111 C242 -127 256 -142 274 -142 C291 -142 305 -127 305 -111 C305 -93 291 -79 274 -79 L274 -79 Z " />
<glyph glyph-name="uni1EB8" unicode="&#x1eb8;" horiz-adv-x="594" d="M572 0 L572 21 L100 21 L100 386 L492 386 L492 407 L100 407 L100 746 L549 746 L549 767 L78 767 L78 0 L572 0 Z M325 -142 C342 -142 356 -127 356 -111 C356 -93 342 -79 325 -79 C307 -79 293 -93 293 -111 C293 -127 307 -142 325 -142 L325 -142 Z " />
<glyph glyph-name="uni1EB9" unicode="&#x1eb9;" horiz-adv-x="594" d="M549 289 C541 457 438 548 299 548 C154 548 49 451 49 271 C49 91 154 -6 299 -6 C411 -6 499 53 534 163 L510 163 C478 66 398 15 299 15 C167 15 71 104 71 271 L71 285 L549 285 L549 289 Z M299 527 C422 527 514 450 525 304 L72 304 C84 450 176 527 299 527 L299 527 Z M299 -79 C281 -79 267 -93 267 -111 C267 -127 281 -142 299 -142 C316 -142 330 -127 330 -111 C330 -93 316 -79 299 -79 L299 -79 Z " />
<glyph glyph-name="uni1EBA" unicode="&#x1eba;" horiz-adv-x="594" d="M322 806 C370 817 429 823 429 896 C429 930 414 951 394 966 C372 983 341 992 302 992 L286 992 L286 976 L302 976 C340 976 366 968 385 952 C404 938 411 920 411 896 C411 833 359 828 319 819 L322 806 Z M572 0 L572 21 L100 21 L100 386 L492 386 L492 407 L100 407 L100 746 L549 746 L549 767 L78 767 L78 0 L572 0 Z " />
<glyph glyph-name="uni1EBB" unicode="&#x1ebb;" horiz-adv-x="594" d="M358 727 C377 713 384 695 384 671 C384 608 332 603 292 594 L295 581 C343 592 402 598 402 671 C402 705 387 726 367 741 C345 758 314 767 275 767 L259 767 L259 751 L275 751 C313 751 339 743 358 727 L358 727 Z M549 289 C541 457 438 548 299 548 C154 548 49 451 49 271 C49 91 154 -6 299 -6 C411 -6 499 53 534 163 L510 163 C478 66 398 15 299 15 C167 15 71 104 71 271 L71 285 L549 285 L549 289 Z M299 527 C422 527 514 450 525 304 L72 304 C84 450 176 527 299 527 L299 527 Z " />
<glyph glyph-name="uni1EBC" unicode="&#x1ebc;" horiz-adv-x="594" d="M407 868 C457 868 490 919 490 992 L474 992 C474 927 446 885 407 885 C327 885 338 998 248 997 C193 998 159 954 159 882 L175 882 C175 943 202 981 247 980 C324 981 312 868 407 868 L407 868 Z M572 0 L572 21 L100 21 L100 386 L492 386 L492 407 L100 407 L100 746 L549 746 L549 767 L78 767 L78 0 L572 0 Z " />
<glyph glyph-name="uni1EBD" unicode="&#x1ebd;" horiz-adv-x="594" d="M221 755 C298 756 286 643 381 643 C431 643 464 694 464 767 L448 767 C448 702 420 660 381 660 C301 660 312 773 222 772 C167 773 133 729 133 657 L149 657 C149 718 176 756 221 755 L221 755 Z M549 289 C541 457 438 548 299 548 C154 548 49 451 49 271 C49 91 154 -6 299 -6 C411 -6 499 53 534 163 L510 163 C478 66 398 15 299 15 C167 15 71 104 71 271 L71 285 L549 285 L549 289 Z M299 527 C422 527 514 450 525 304 L72 304 C84 450 176 527 299 527 L299 527 Z " />
<glyph glyph-name="uni1EBE" unicode="&#x1ebe;" horiz-adv-x="594" d="M430 1213 L315 1059 L335 1059 L454 1213 L430 1213 Z M456 838 L482 838 L337 992 L312 992 L168 838 L193 838 L325 981 L456 838 Z M100 386 L492 386 L492 407 L100 407 L100 746 L549 746 L549 767 L78 767 L78 0 L572 0 L572 21 L100 21 L100 386 Z " />
<glyph glyph-name="uni1EBF" unicode="&#x1ebf;" horiz-adv-x="594" d="M403 988 L288 834 L308 834 L427 988 L403 988 Z M429 613 L455 613 L310 767 L285 767 L141 613 L166 613 L298 756 L429 613 Z M549 289 C541 457 438 548 299 548 C154 548 49 451 49 271 C49 91 154 -6 299 -6 C411 -6 499 53 534 163 L510 163 C478 66 398 15 299 15 C167 15 71 104 71 271 L71 285 L549 285 L549 289 Z M299 527 C422 527 514 450 525 304 L72 304 C84 450 176 527 299 527 L299 527 Z " />
<glyph glyph-name="uni1EC0" unicode="&#x1ec0;" horiz-adv-x="594" d="M220 1213 L197 1213 L315 1059 L335 1059 L220 1213 Z M456 838 L482 838 L337 992 L312 992 L168 838 L193 838 L325 981 L456 838 Z M100 386 L492 386 L492 407 L100 407 L100 746 L549 746 L549 767 L78 767 L78 0 L572 0 L572 21 L100 21 L100 386 Z " />
<glyph glyph-name="uni1EC1" unicode="&#x1ec1;" horiz-adv-x="594" d="M193 988 L170 988 L288 834 L308 834 L193 988 Z M429 613 L455 613 L310 767 L285 767 L141 613 L166 613 L298 756 L429 613 Z M549 289 C541 457 438 548 299 548 C154 548 49 451 49 271 C49 91 154 -6 299 -6 C411 -6 499 53 534 163 L510 163 C478 66 398 15 299 15 C167 15 71 104 71 271 L71 285 L549 285 L549 289 Z M299 527 C422 527 514 450 525 304 L72 304 C84 450 176 527 299 527 L299 527 Z " />
<glyph glyph-name="uni1EC2" unicode="&#x1ec2;" horiz-adv-x="594" d="M385 1173 C404 1159 411 1141 411 1117 C411 1054 359 1050 319 1041 L322 1027 C370 1038 429 1044 429 1118 C429 1152 414 1172 394 1187 C372 1204 341 1213 302 1213 L286 1213 L286 1197 L302 1197 C340 1197 366 1189 385 1173 L385 1173 Z M456 838 L482 838 L337 992 L312 992 L168 838 L193 838 L325 981 L456 838 Z M100 386 L492 386 L492 407 L100 407 L100 746 L549 746 L549 767 L78 767 L78 0 L572 0 L572 21 L100 21 L100 386 Z " />
<glyph glyph-name="uni1EC3" unicode="&#x1ec3;" horiz-adv-x="594" d="M358 948 C377 934 384 916 384 892 C384 829 332 825 292 816 L295 802 C343 813 402 819 402 893 C402 927 387 947 367 962 C345 979 314 988 275 988 L259 988 L259 972 L275 972 C313 972 339 964 358 948 L358 948 Z M429 613 L455 613 L310 767 L285 767 L141 613 L166 613 L298 756 L429 613 Z M549 289 C541 457 438 548 299 548 C154 548 49 451 49 271 C49 91 154 -6 299 -6 C411 -6 499 53 534 163 L510 163 C478 66 398 15 299 15 C167 15 71 104 71 271 L71 285 L549 285 L549 289 Z M299 527 C422 527 514 450 525 304 L72 304 C84 450 176 527 299 527 L299 527 Z " />
<glyph glyph-name="uni1EC4" unicode="&#x1ec4;" horiz-adv-x="594" d="M247 1202 C324 1203 312 1090 407 1090 C457 1090 490 1140 490 1213 L474 1213 C474 1149 446 1106 407 1106 C327 1106 338 1219 248 1218 C193 1219 159 1175 159 1104 L175 1104 C175 1165 202 1203 247 1202 L247 1202 Z M168 838 L192 838 L324 981 L456 838 L481 838 L337 992 L311 992 L168 838 Z M100 386 L492 386 L492 407 L100 407 L100 746 L549 746 L549 767 L78 767 L78 0 L572 0 L572 21 L100 21 L100 386 Z " />
<glyph glyph-name="uni1EC5" unicode="&#x1ec5;" horiz-adv-x="594" d="M221 977 C298 978 286 865 381 865 C431 865 464 915 464 988 L448 988 C448 924 420 881 381 881 C301 881 312 994 222 993 C167 994 133 950 133 879 L149 879 C149 940 176 978 221 977 L221 977 Z M142 613 L166 613 L298 756 L430 613 L455 613 L311 767 L285 767 L142 613 Z M549 289 C541 457 438 548 299 548 C154 548 49 451 49 271 C49 91 154 -6 299 -6 C411 -6 499 53 534 163 L510 163 C478 66 398 15 299 15 C167 15 71 104 71 271 L71 285 L549 285 L549 289 Z M299 527 C422 527 514 450 525 304 L72 304 C84 450 176 527 299 527 L299 527 Z " />
<glyph glyph-name="uni1EC6" unicode="&#x1ec6;" horiz-adv-x="594" d="M456 838 L482 838 L337 992 L312 992 L168 838 L193 838 L325 981 L456 838 Z M100 386 L492 386 L492 407 L100 407 L100 746 L549 746 L549 767 L78 767 L78 0 L572 0 L572 21 L100 21 L100 386 Z M325 -79 C307 -79 293 -93 293 -111 C293 -127 307 -142 325 -142 C342 -142 356 -127 356 -111 C356 -93 342 -79 325 -79 L325 -79 Z " />
<glyph glyph-name="uni1EC7" unicode="&#x1ec7;" horiz-adv-x="594" d="M429 613 L455 613 L310 767 L285 767 L141 613 L166 613 L298 756 L429 613 Z M549 289 C541 457 438 548 299 548 C154 548 49 451 49 271 C49 91 154 -6 299 -6 C411 -6 499 53 534 163 L510 163 C478 66 398 15 299 15 C167 15 71 104 71 271 L71 285 L549 285 L549 289 Z M299 527 C422 527 514 450 525 304 L72 304 C84 450 176 527 299 527 L299 527 Z M299 -79 C281 -79 267 -93 267 -111 C267 -127 281 -142 299 -142 C316 -142 330 -127 330 -111 C330 -93 316 -79 299 -79 L299 -79 Z " />
<glyph glyph-name="uni1EC8" unicode="&#x1ec8;" horiz-adv-x="178" d="M85 806 C133 817 192 823 192 896 C192 930 177 951 157 966 C135 983 104 992 65 992 L49 992 L49 976 L65 976 C103 976 129 968 148 952 C167 938 174 920 174 896 C174 833 122 828 82 819 L85 806 Z M100 0 L100 767 L78 767 L78 0 L100 0 Z " />
<glyph glyph-name="uni1EC9" unicode="&#x1ec9;" horiz-adv-x="162" d="M77 581 C125 592 184 598 184 671 C184 705 169 726 149 741 C127 758 96 767 57 767 L41 767 L41 751 L57 751 C95 751 121 743 140 727 C159 713 166 695 166 671 C166 608 114 603 74 594 L77 581 Z M92 0 L92 542 L70 542 L70 0 L92 0 Z " />
<glyph glyph-name="uni1ECA" unicode="&#x1eca;" horiz-adv-x="178" d="M100 0 L100 767 L78 767 L78 0 L100 0 Z M89 -142 C106 -142 120 -127 120 -111 C120 -93 106 -79 89 -79 C71 -79 57 -93 57 -111 C57 -127 71 -142 89 -142 L89 -142 Z " />
<glyph glyph-name="uni1ECB" unicode="&#x1ecb;" horiz-adv-x="162" d="M80 715 C97 715 111 729 111 747 C111 764 97 778 80 778 C62 778 48 764 48 747 C48 729 62 715 80 715 L80 715 Z M92 0 L92 542 L70 542 L70 0 L92 0 Z M80 -142 C97 -142 111 -127 111 -111 C111 -93 97 -79 80 -79 C62 -79 48 -93 48 -111 C48 -127 62 -142 80 -142 L80 -142 Z " />
<glyph glyph-name="uni1ECC" unicode="&#x1ecc;" horiz-adv-x="770" d="M384 -6 C585 -6 720 151 720 384 C720 617 585 773 384 773 C183 773 49 617 49 384 C49 151 183 -6 384 -6 L384 -6 Z M384 16 C196 16 71 163 71 384 C71 605 196 751 384 751 C572 751 698 605 698 384 C698 163 572 16 384 16 L384 16 Z M384 -142 C401 -142 415 -127 415 -111 C415 -93 401 -79 384 -79 C366 -79 352 -93 352 -111 C352 -127 366 -142 384 -142 L384 -142 Z " />
<glyph glyph-name="uni1ECD" unicode="&#x1ecd;" horiz-adv-x="598" d="M299 -6 C443 -6 549 91 549 271 C549 451 443 548 299 548 C154 548 49 451 49 271 C49 91 154 -6 299 -6 L299 -6 Z M299 15 C167 15 71 104 71 271 C71 438 167 527 299 527 C431 527 527 438 527 271 C527 104 431 15 299 15 L299 15 Z M298 -142 C315 -142 329 -127 329 -111 C329 -93 315 -79 298 -79 C280 -79 266 -93 266 -111 C266 -127 280 -142 298 -142 L298 -142 Z " />
<glyph glyph-name="uni1ECE" unicode="&#x1ece;" horiz-adv-x="770" d="M381 806 C429 817 488 823 488 896 C488 930 473 951 453 966 C431 983 400 992 361 992 L345 992 L345 976 L361 976 C399 976 425 968 444 952 C463 938 470 920 470 896 C470 833 418 828 378 819 L381 806 Z M384 -6 C585 -6 720 151 720 384 C720 617 585 773 384 773 C183 773 49 617 49 384 C49 151 183 -6 384 -6 L384 -6 Z M384 16 C196 16 71 163 71 384 C71 605 196 751 384 751 C572 751 698 605 698 384 C698 163 572 16 384 16 L384 16 Z " />
<glyph glyph-name="uni1ECF" unicode="&#x1ecf;" horiz-adv-x="598" d="M295 581 C343 592 402 598 402 671 C402 705 387 726 367 741 C345 758 314 767 275 767 L259 767 L259 751 L275 751 C313 751 339 743 358 727 C377 713 384 695 384 671 C384 608 332 603 292 594 L295 581 Z M299 -6 C443 -6 549 91 549 271 C549 451 443 548 299 548 C154 548 49 451 49 271 C49 91 154 -6 299 -6 L299 -6 Z M299 15 C167 15 71 104 71 271 C71 438 167 527 299 527 C431 527 527 438 527 271 C527 104 431 15 299 15 L299 15 Z " />
<glyph glyph-name="uni1ED0" unicode="&#x1ed0;" horiz-adv-x="770" d="M489 1213 L374 1059 L394 1059 L513 1213 L489 1213 Z M515 838 L541 838 L396 992 L371 992 L227 838 L252 838 L384 981 L515 838 Z M384 773 C183 773 49 617 49 384 C49 151 183 -6 384 -6 C585 -6 720 151 720 384 C720 617 585 773 384 773 L384 773 Z M384 16 C196 16 71 163 71 384 C71 605 196 751 384 751 C572 751 698 605 698 384 C698 163 572 16 384 16 L384 16 Z " />
<glyph glyph-name="uni1ED1" unicode="&#x1ed1;" horiz-adv-x="598" d="M403 988 L288 834 L308 834 L427 988 L403 988 Z M429 613 L455 613 L310 767 L285 767 L141 613 L166 613 L298 756 L429 613 Z M299 548 C154 548 49 451 49 271 C49 91 154 -6 299 -6 C443 -6 549 91 549 271 C549 451 443 548 299 548 L299 548 Z M299 15 C167 15 71 104 71 271 C71 438 167 527 299 527 C431 527 527 438 527 271 C527 104 431 15 299 15 L299 15 Z " />
<glyph glyph-name="uni1ED2" unicode="&#x1ed2;" horiz-adv-x="770" d="M279 1213 L256 1213 L374 1059 L394 1059 L279 1213 Z M515 838 L541 838 L396 992 L371 992 L227 838 L252 838 L384 981 L515 838 Z M384 773 C183 773 49 617 49 384 C49 151 183 -6 384 -6 C585 -6 720 151 720 384 C720 617 585 773 384 773 L384 773 Z M384 16 C196 16 71 163 71 384 C71 605 196 751 384 751 C572 751 698 605 698 384 C698 163 572 16 384 16 L384 16 Z " />
<glyph glyph-name="uni1ED3" unicode="&#x1ed3;" horiz-adv-x="598" d="M193 988 L170 988 L288 834 L308 834 L193 988 Z M429 613 L455 613 L310 767 L285 767 L141 613 L166 613 L298 756 L429 613 Z M299 548 C154 548 49 451 49 271 C49 91 154 -6 299 -6 C443 -6 549 91 549 271 C549 451 443 548 299 548 L299 548 Z M299 15 C167 15 71 104 71 271 C71 438 167 527 299 527 C431 527 527 438 527 271 C527 104 431 15 299 15 L299 15 Z " />
<glyph glyph-name="uni1ED4" unicode="&#x1ed4;" horiz-adv-x="770" d="M444 1173 C463 1159 470 1141 470 1117 C470 1054 418 1050 378 1041 L381 1027 C429 1038 488 1044 488 1118 C488 1152 473 1172 453 1187 C431 1204 400 1213 361 1213 L345 1213 L345 1197 L361 1197 C399 1197 425 1189 444 1173 L444 1173 Z M515 838 L541 838 L396 992 L371 992 L227 838 L252 838 L384 981 L515 838 Z M384 773 C183 773 49 617 49 384 C49 151 183 -6 384 -6 C585 -6 720 151 720 384 C720 617 585 773 384 773 L384 773 Z M384 16 C196 16 71 163 71 384 C71 605 196 751 384 751 C572 751 698 605 698 384 C698 163 572 16 384 16 L384 16 Z " />
<glyph glyph-name="uni1ED5" unicode="&#x1ed5;" horiz-adv-x="598" d="M358 948 C377 934 384 916 384 892 C384 829 332 825 292 816 L295 802 C343 813 402 819 402 893 C402 927 387 947 367 962 C345 979 314 988 275 988 L259 988 L259 972 L275 972 C313 972 339 964 358 948 L358 948 Z M429 613 L455 613 L310 767 L285 767 L141 613 L166 613 L298 756 L429 613 Z M299 548 C154 548 49 451 49 271 C49 91 154 -6 299 -6 C443 -6 549 91 549 271 C549 451 443 548 299 548 L299 548 Z M299 15 C167 15 71 104 71 271 C71 438 167 527 299 527 C431 527 527 438 527 271 C527 104 431 15 299 15 L299 15 Z " />
<glyph glyph-name="uni1ED6" unicode="&#x1ed6;" horiz-adv-x="770" d="M306 1202 C383 1203 371 1090 466 1090 C516 1090 549 1140 549 1213 L533 1213 C533 1149 505 1106 466 1106 C386 1106 397 1219 307 1218 C252 1219 218 1175 218 1104 L234 1104 C234 1165 261 1203 306 1202 L306 1202 Z M227 838 L251 838 L383 981 L515 838 L540 838 L396 992 L370 992 L227 838 Z M384 773 C183 773 49 617 49 384 C49 151 183 -6 384 -6 C585 -6 720 151 720 384 C720 617 585 773 384 773 L384 773 Z M384 16 C196 16 71 163 71 384 C71 605 196 751 384 751 C572 751 698 605 698 384 C698 163 572 16 384 16 L384 16 Z " />
<glyph glyph-name="uni1ED7" unicode="&#x1ed7;" horiz-adv-x="598" d="M221 977 C298 978 286 865 381 865 C431 865 464 915 464 988 L448 988 C448 924 420 881 381 881 C301 881 312 994 222 993 C167 994 133 950 133 879 L149 879 C149 940 176 978 221 977 L221 977 Z M142 613 L166 613 L298 756 L430 613 L455 613 L311 767 L285 767 L142 613 Z M299 548 C154 548 49 451 49 271 C49 91 154 -6 299 -6 C443 -6 549 91 549 271 C549 451 443 548 299 548 L299 548 Z M299 15 C167 15 71 104 71 271 C71 438 167 527 299 527 C431 527 527 438 527 271 C527 104 431 15 299 15 L299 15 Z " />
<glyph glyph-name="uni1ED8" unicode="&#x1ed8;" horiz-adv-x="770" d="M515 838 L541 838 L396 992 L371 992 L227 838 L252 838 L384 981 L515 838 Z M384 773 C183 773 49 617 49 384 C49 151 183 -6 384 -6 C585 -6 720 151 720 384 C720 617 585 773 384 773 L384 773 Z M384 16 C196 16 71 163 71 384 C71 605 196 751 384 751 C572 751 698 605 698 384 C698 163 572 16 384 16 L384 16 Z M384 -79 C366 -79 352 -93 352 -111 C352 -127 366 -142 384 -142 C401 -142 415 -127 415 -111 C415 -93 401 -79 384 -79 L384 -79 Z " />
<glyph glyph-name="uni1ED9" unicode="&#x1ed9;" horiz-adv-x="598" d="M429 613 L455 613 L310 767 L285 767 L141 613 L166 613 L298 756 L429 613 Z M299 548 C154 548 49 451 49 271 C49 91 154 -6 299 -6 C443 -6 549 91 549 271 C549 451 443 548 299 548 L299 548 Z M299 15 C167 15 71 104 71 271 C71 438 167 527 299 527 C431 527 527 438 527 271 C527 104 431 15 299 15 L299 15 Z M298 -79 C280 -79 266 -93 266 -111 C266 -127 280 -142 298 -142 C315 -142 329 -127 329 -111 C329 -93 315 -79 298 -79 L298 -79 Z " />
<glyph glyph-name="uni1EDA" unicode="&#x1eda;" horiz-adv-x="770" d="M489 992 L374 838 L394 838 L513 992 L489 992 Z M752 789 C752 697 719 652 639 651 C580 728 492 773 384 773 C183 773 49 617 49 384 C49 151 183 -6 384 -6 C585 -6 720 151 720 384 C720 484 695 569 651 634 C734 640 771 689 771 789 L771 853 L752 853 L752 789 Z M384 16 C196 16 71 163 71 384 C71 605 196 751 384 751 C572 751 698 605 698 384 C698 163 572 16 384 16 L384 16 Z " />
<glyph glyph-name="uni1EDB" unicode="&#x1edb;" horiz-adv-x="598" d="M403 767 L288 613 L308 613 L427 767 L403 767 Z M602 594 C602 505 571 460 495 456 C451 517 381 548 299 548 C154 548 49 451 49 271 C49 91 154 -6 299 -6 C443 -6 549 91 549 271 C549 340 534 396 507 440 C585 447 621 496 621 594 L621 658 L602 658 L602 594 Z M299 15 C167 15 71 104 71 271 C71 438 167 527 299 527 C431 527 527 438 527 271 C527 104 431 15 299 15 L299 15 Z " />
<glyph glyph-name="uni1EDC" unicode="&#x1edc;" horiz-adv-x="770" d="M278 992 L256 992 L374 838 L393 838 L278 992 Z M752 789 C752 697 719 652 639 651 C580 728 492 773 384 773 C183 773 49 617 49 384 C49 151 183 -6 384 -6 C585 -6 720 151 720 384 C720 484 695 569 651 634 C734 640 771 689 771 789 L771 853 L752 853 L752 789 Z M384 16 C196 16 71 163 71 384 C71 605 196 751 384 751 C572 751 698 605 698 384 C698 163 572 16 384 16 L384 16 Z " />
<glyph glyph-name="uni1EDD" unicode="&#x1edd;" horiz-adv-x="598" d="M193 767 L171 767 L289 613 L308 613 L193 767 Z M602 594 C602 505 571 460 495 456 C451 517 381 548 299 548 C154 548 49 451 49 271 C49 91 154 -6 299 -6 C443 -6 549 91 549 271 C549 340 534 396 507 440 C585 447 621 496 621 594 L621 658 L602 658 L602 594 Z M299 15 C167 15 71 104 71 271 C71 438 167 527 299 527 C431 527 527 438 527 271 C527 104 431 15 299 15 L299 15 Z " />
<glyph glyph-name="uni1EDE" unicode="&#x1ede;" horiz-adv-x="770" d="M444 952 C463 938 470 920 470 896 C470 833 418 828 378 819 L381 806 C429 817 488 823 488 896 C488 930 473 951 453 966 C431 983 400 992 361 992 L345 992 L345 976 L361 976 C399 976 425 968 444 952 L444 952 Z M752 789 C752 697 719 652 639 651 C580 728 492 773 384 773 C183 773 49 617 49 384 C49 151 183 -6 384 -6 C585 -6 720 151 720 384 C720 484 695 569 651 634 C734 640 771 689 771 789 L771 853 L752 853 L752 789 Z M384 16 C196 16 71 163 71 384 C71 605 196 751 384 751 C572 751 698 605 698 384 C698 163 572 16 384 16 L384 16 Z " />
<glyph glyph-name="uni1EDF" unicode="&#x1edf;" horiz-adv-x="598" d="M358 727 C377 713 384 695 384 671 C384 608 332 603 292 594 L295 581 C343 592 402 598 402 671 C402 705 387 726 367 741 C345 758 314 767 275 767 L259 767 L259 751 L275 751 C313 751 339 743 358 727 L358 727 Z M602 594 C602 505 571 460 495 456 C451 517 381 548 299 548 C154 548 49 451 49 271 C49 91 154 -6 299 -6 C443 -6 549 91 549 271 C549 340 534 396 507 440 C585 447 621 496 621 594 L621 658 L602 658 L602 594 Z M299 15 C167 15 71 104 71 271 C71 438 167 527 299 527 C431 527 527 438 527 271 C527 104 431 15 299 15 L299 15 Z " />
<glyph glyph-name="uni1EE0" unicode="&#x1ee0;" horiz-adv-x="770" d="M306 980 C383 981 371 868 466 868 C516 868 549 919 549 992 L533 992 C533 927 505 885 466 885 C386 885 397 998 307 997 C252 998 218 954 218 882 L234 882 C234 943 261 981 306 980 L306 980 Z M752 789 C752 697 719 652 639 651 C580 728 492 773 384 773 C183 773 49 617 49 384 C49 151 183 -6 384 -6 C585 -6 720 151 720 384 C720 484 695 569 651 634 C734 640 771 689 771 789 L771 853 L752 853 L752 789 Z M384 16 C196 16 71 163 71 384 C71 605 196 751 384 751 C572 751 698 605 698 384 C698 163 572 16 384 16 L384 16 Z " />
<glyph glyph-name="uni1EE1" unicode="&#x1ee1;" horiz-adv-x="598" d="M221 755 C298 756 286 643 381 643 C431 643 464 694 464 767 L448 767 C448 702 420 660 381 660 C301 660 312 773 222 772 C167 773 133 729 133 657 L149 657 C149 718 176 756 221 755 L221 755 Z M602 594 C602 505 571 460 495 456 C451 517 381 548 299 548 C154 548 49 451 49 271 C49 91 154 -6 299 -6 C443 -6 549 91 549 271 C549 340 534 396 507 440 C585 447 621 496 621 594 L621 658 L602 658 L602 594 Z M299 15 C167 15 71 104 71 271 C71 438 167 527 299 527 C431 527 527 438 527 271 C527 104 431 15 299 15 L299 15 Z " />
<glyph glyph-name="uni1EE2" unicode="&#x1ee2;" horiz-adv-x="770" d="M752 789 C752 697 719 652 639 651 C580 728 492 773 384 773 C183 773 49 617 49 384 C49 151 183 -6 384 -6 C585 -6 720 151 720 384 C720 484 695 569 651 634 C734 640 771 689 771 789 L771 853 L752 853 L752 789 Z M384 16 C196 16 71 163 71 384 C71 605 196 751 384 751 C572 751 698 605 698 384 C698 163 572 16 384 16 L384 16 Z M384 -79 C366 -79 352 -93 352 -111 C352 -127 366 -142 384 -142 C401 -142 415 -127 415 -111 C415 -93 401 -79 384 -79 L384 -79 Z " />
<glyph glyph-name="uni1EE3" unicode="&#x1ee3;" horiz-adv-x="598" d="M602 594 C602 505 571 460 495 456 C451 517 381 548 299 548 C154 548 49 451 49 271 C49 91 154 -6 299 -6 C443 -6 549 91 549 271 C549 340 534 396 507 440 C585 447 621 496 621 594 L621 658 L602 658 L602 594 Z M299 15 C167 15 71 104 71 271 C71 438 167 527 299 527 C431 527 527 438 527 271 C527 104 431 15 299 15 L299 15 Z M298 -79 C280 -79 266 -93 266 -111 C266 -127 280 -142 298 -142 C315 -142 329 -127 329 -111 C329 -93 315 -79 298 -79 L298 -79 Z " />
<glyph glyph-name="uni1EE4" unicode="&#x1ee4;" horiz-adv-x="661" d="M331 -6 C501 -6 590 74 590 253 L590 767 L567 767 L567 254 C567 91 490 16 331 16 C174 16 94 87 94 254 L94 767 L71 767 L71 253 C71 78 157 -6 331 -6 L331 -6 Z M330 -142 C347 -142 361 -127 361 -111 C361 -93 347 -79 330 -79 C312 -79 298 -93 298 -111 C298 -127 312 -142 330 -142 L330 -142 Z " />
<glyph glyph-name="uni1EE5" unicode="&#x1ee5;" horiz-adv-x="525" d="M255 -6 C338 -6 399 37 428 100 L432 100 L432 0 L454 0 L454 542 L432 542 L432 237 C432 199 431 156 422 130 C401 61 340 15 259 15 C126 15 86 93 86 236 L86 542 L64 542 L64 233 C64 78 113 -6 255 -6 L255 -6 Z M259 -142 C276 -142 290 -127 290 -111 C290 -93 276 -79 259 -79 C241 -79 227 -93 227 -111 C227 -127 241 -142 259 -142 L259 -142 Z " />
<glyph glyph-name="uni1EE6" unicode="&#x1ee6;" horiz-adv-x="661" d="M327 806 C375 817 434 823 434 896 C434 930 419 951 399 966 C377 983 346 992 307 992 L291 992 L291 976 L307 976 C345 976 371 968 390 952 C409 938 416 920 416 896 C416 833 364 828 324 819 L327 806 Z M331 -6 C501 -6 590 74 590 253 L590 767 L567 767 L567 254 C567 91 490 16 331 16 C174 16 94 87 94 254 L94 767 L71 767 L71 253 C71 78 157 -6 331 -6 L331 -6 Z " />
<glyph glyph-name="uni1EE7" unicode="&#x1ee7;" horiz-adv-x="525" d="M255 581 C303 592 362 598 362 671 C362 705 347 726 327 741 C305 758 274 767 235 767 L219 767 L219 751 L235 751 C273 751 299 743 318 727 C337 713 344 695 344 671 C344 608 292 603 252 594 L255 581 Z M255 -6 C338 -6 399 37 428 100 L432 100 L432 0 L454 0 L454 542 L432 542 L432 237 C432 199 431 156 422 130 C401 61 340 15 259 15 C126 15 86 93 86 236 L86 542 L64 542 L64 233 C64 78 113 -6 255 -6 L255 -6 Z " />
<glyph glyph-name="uni1EE8" unicode="&#x1ee8;" horiz-adv-x="661" d="M435 992 L320 838 L340 838 L459 992 L435 992 Z M701 805 C701 714 668 669 590 667 L590 767 L567 767 L567 254 C567 91 490 16 331 16 C174 16 94 87 94 254 L94 767 L71 767 L71 253 C71 78 157 -6 331 -6 C501 -6 590 74 590 253 L590 650 C680 652 720 701 720 805 L720 869 L701 869 L701 805 Z " />
<glyph glyph-name="uni1EE9" unicode="&#x1ee9;" horiz-adv-x="525" d="M363 767 L248 613 L268 613 L387 767 L363 767 Z M558 680 C558 587 524 542 442 542 L432 542 L432 237 C432 199 431 156 422 130 C401 61 340 15 259 15 C126 15 86 93 86 236 L86 542 L64 542 L64 233 C64 78 113 -6 255 -6 C338 -6 399 37 428 100 L432 100 L432 0 L454 0 L454 525 C539 529 577 579 577 680 L577 744 L558 744 L558 680 Z " />
<glyph glyph-name="uni1EEA" unicode="&#x1eea;" horiz-adv-x="661" d="M225 992 L203 992 L321 838 L340 838 L225 992 Z M701 805 C701 714 668 669 590 667 L590 767 L567 767 L567 254 C567 91 490 16 331 16 C174 16 94 87 94 254 L94 767 L71 767 L71 253 C71 78 157 -6 331 -6 C501 -6 590 74 590 253 L590 650 C680 652 720 701 720 805 L720 869 L701 869 L701 805 Z " />
<glyph glyph-name="uni1EEB" unicode="&#x1eeb;" horiz-adv-x="525" d="M153 767 L131 767 L249 613 L268 613 L153 767 Z M558 680 C558 587 524 542 442 542 L432 542 L432 237 C432 199 431 156 422 130 C401 61 340 15 259 15 C126 15 86 93 86 236 L86 542 L64 542 L64 233 C64 78 113 -6 255 -6 C338 -6 399 37 428 100 L432 100 L432 0 L454 0 L454 525 C539 529 577 579 577 680 L577 744 L558 744 L558 680 Z " />
<glyph glyph-name="uni1EEC" unicode="&#x1eec;" horiz-adv-x="661" d="M390 952 C409 938 416 920 416 896 C416 833 364 828 324 819 L327 806 C375 817 434 823 434 896 C434 930 419 951 399 966 C377 983 346 992 307 992 L291 992 L291 976 L307 976 C345 976 371 968 390 952 L390 952 Z M701 805 C701 714 668 669 590 667 L590 767 L567 767 L567 254 C567 91 490 16 331 16 C174 16 94 87 94 254 L94 767 L71 767 L71 253 C71 78 157 -6 331 -6 C501 -6 590 74 590 253 L590 650 C680 652 720 701 720 805 L720 869 L701 869 L701 805 Z " />
<glyph glyph-name="uni1EED" unicode="&#x1eed;" horiz-adv-x="525" d="M318 727 C337 713 344 695 344 671 C344 608 292 603 252 594 L255 581 C303 592 362 598 362 671 C362 705 347 726 327 741 C305 758 274 767 235 767 L219 767 L219 751 L235 751 C273 751 299 743 318 727 L318 727 Z M558 680 C558 587 524 542 442 542 L432 542 L432 237 C432 199 431 156 422 130 C401 61 340 15 259 15 C126 15 86 93 86 236 L86 542 L64 542 L64 233 C64 78 113 -6 255 -6 C338 -6 399 37 428 100 L432 100 L432 0 L454 0 L454 525 C539 529 577 579 577 680 L577 744 L558 744 L558 680 Z " />
<glyph glyph-name="uni1EEE" unicode="&#x1eee;" horiz-adv-x="661" d="M253 980 C330 981 318 868 413 868 C463 868 496 919 496 992 L480 992 C480 927 452 885 413 885 C333 885 344 998 254 997 C199 998 165 954 165 882 L181 882 C181 943 208 981 253 980 L253 980 Z M701 805 C701 714 668 669 590 667 L590 767 L567 767 L567 254 C567 91 490 16 331 16 C174 16 94 87 94 254 L94 767 L71 767 L71 253 C71 78 157 -6 331 -6 C501 -6 590 74 590 253 L590 650 C680 652 720 701 720 805 L720 869 L701 869 L701 805 Z " />
<glyph glyph-name="uni1EEF" unicode="&#x1eef;" horiz-adv-x="525" d="M181 755 C258 756 246 643 341 643 C391 643 424 694 424 767 L408 767 C408 702 380 660 341 660 C261 660 272 773 182 772 C127 773 93 729 93 657 L109 657 C109 718 136 756 181 755 L181 755 Z M558 680 C558 587 524 542 442 542 L432 542 L432 237 C432 199 431 156 422 130 C401 61 340 15 259 15 C126 15 86 93 86 236 L86 542 L64 542 L64 233 C64 78 113 -6 255 -6 C338 -6 399 37 428 100 L432 100 L432 0 L454 0 L454 525 C539 529 577 579 577 680 L577 744 L558 744 L558 680 Z " />
<glyph glyph-name="uni1EF0" unicode="&#x1ef0;" horiz-adv-x="661" d="M701 805 C701 714 668 669 590 667 L590 767 L567 767 L567 254 C567 91 490 16 331 16 C174 16 94 87 94 254 L94 767 L71 767 L71 253 C71 78 157 -6 331 -6 C501 -6 590 74 590 253 L590 650 C680 652 720 701 720 805 L720 869 L701 869 L701 805 Z M330 -79 C312 -79 298 -93 298 -111 C298 -127 312 -142 330 -142 C347 -142 361 -127 361 -111 C361 -93 347 -79 330 -79 L330 -79 Z " />
<glyph glyph-name="uni1EF1" unicode="&#x1ef1;" horiz-adv-x="525" d="M558 680 C558 587 524 542 442 542 L432 542 L432 237 C432 199 431 156 422 130 C401 61 340 15 259 15 C126 15 86 93 86 236 L86 542 L64 542 L64 233 C64 78 113 -6 255 -6 C338 -6 399 37 428 100 L432 100 L432 0 L454 0 L454 525 C539 529 577 579 577 680 L577 744 L558 744 L558 680 Z M259 -79 C241 -79 227 -93 227 -111 C227 -127 241 -142 259 -142 C276 -142 290 -127 290 -111 C290 -93 276 -79 259 -79 L259 -79 Z " />
<glyph glyph-name="Ygrave" unicode="&#x1ef2;" horiz-adv-x="627" d="M322 838 L207 992 L185 992 L303 838 L322 838 Z M324 0 L324 287 L615 761 L615 767 L592 767 L314 312 L312 312 L34 767 L11 767 L11 761 L302 287 L302 0 L324 0 Z " />
<glyph glyph-name="ygrave" unicode="&#x1ef3;" horiz-adv-x="522" d="M154 767 L132 767 L250 613 L269 613 L154 767 Z M265 20 L255 20 L46 542 L22 542 L240 0 L257 0 L199 -142 C182 -184 151 -203 107 -203 L36 -203 L36 -224 L110 -224 C162 -224 198 -200 218 -151 L281 0 L499 542 L475 542 L265 20 Z " />
<glyph glyph-name="uni1EF4" unicode="&#x1ef4;" horiz-adv-x="627" d="M324 0 L324 287 L615 761 L615 767 L592 767 L314 312 L312 312 L34 767 L11 767 L11 761 L302 287 L302 0 L324 0 Z M313 -142 C330 -142 344 -127 344 -111 C344 -93 330 -79 313 -79 C295 -79 281 -93 281 -111 C281 -127 295 -142 313 -142 L313 -142 Z " />
<glyph glyph-name="uni1EF5" unicode="&#x1ef5;" horiz-adv-x="522" d="M265 20 L255 20 L46 542 L22 542 L240 0 L257 0 L199 -142 C182 -184 151 -203 107 -203 L36 -203 L36 -224 L110 -224 C162 -224 198 -200 218 -151 L281 0 L499 542 L475 542 L265 20 Z M420 -79 C402 -79 388 -93 388 -111 C388 -127 402 -142 420 -142 C437 -142 451 -127 451 -111 C451 -93 437 -79 420 -79 L420 -79 Z " />
<glyph glyph-name="uni1EF6" unicode="&#x1ef6;" horiz-adv-x="627" d="M310 806 C358 817 417 823 417 896 C417 930 402 951 382 966 C360 983 329 992 290 992 L274 992 L274 976 L290 976 C328 976 354 968 373 952 C392 938 399 920 399 896 C399 833 347 828 307 819 L310 806 Z M324 0 L324 287 L615 761 L615 767 L592 767 L314 312 L312 312 L34 767 L11 767 L11 761 L302 287 L302 0 L324 0 Z " />
<glyph glyph-name="uni1EF7" unicode="&#x1ef7;" horiz-adv-x="522" d="M320 727 C339 713 346 695 346 671 C346 608 294 603 254 594 L257 581 C305 592 364 598 364 671 C364 705 349 726 329 741 C307 758 276 767 237 767 L221 767 L221 751 L237 751 C275 751 301 743 320 727 L320 727 Z M265 20 L255 20 L46 542 L22 542 L240 0 L257 0 L199 -142 C182 -184 151 -203 107 -203 L36 -203 L36 -224 L110 -224 C162 -224 198 -200 218 -151 L281 0 L499 542 L475 542 L265 20 Z " />
<glyph glyph-name="uni1EF8" unicode="&#x1ef8;" horiz-adv-x="627" d="M395 868 C445 868 478 919 478 992 L462 992 C462 927 434 885 395 885 C315 885 326 998 236 997 C181 998 147 954 147 882 L163 882 C163 943 190 981 235 980 C312 981 300 868 395 868 L395 868 Z M324 0 L324 287 L615 761 L615 767 L592 767 L314 312 L312 312 L34 767 L11 767 L11 761 L302 287 L302 0 L324 0 Z " />
<glyph glyph-name="uni1EF9" unicode="&#x1ef9;" horiz-adv-x="522" d="M182 755 C259 756 247 643 342 643 C392 643 425 694 425 767 L409 767 C409 702 381 660 342 660 C262 660 273 773 183 772 C128 773 94 729 94 657 L110 657 C110 718 137 756 182 755 L182 755 Z M265 20 L255 20 L46 542 L22 542 L240 0 L257 0 L199 -142 C182 -184 151 -203 107 -203 L36 -203 L36 -224 L110 -224 C162 -224 198 -200 218 -151 L281 0 L499 542 L475 542 L265 20 Z " />
<glyph glyph-name="endash" unicode="&#x2013;" horiz-adv-x="500" d="M500 262 L500 280 L0 280 L0 262 L500 262 Z " />
<glyph glyph-name="emdash" unicode="&#x2014;" horiz-adv-x="1000" d="M1000 262 L1000 280 L0 280 L0 262 L1000 262 Z " />
<glyph glyph-name="uni2015" unicode="&#x2015;" horiz-adv-x="500" d="M500 262 L500 280 L0 280 L0 262 L500 262 Z " />
<glyph glyph-name="quoteleft" unicode="&#x2018;" horiz-adv-x="199" d="M115 767 L66 625 C61 610 59 602 59 594 C59 576 73 563 91 563 C111 563 125 576 125 595 C125 614 111 627 91 627 L83 627 L131 764 L131 767 L115 767 Z " />
<glyph glyph-name="quoteright" unicode="&#x2019;" horiz-adv-x="199" d="M108 773 C88 773 74 759 74 741 C74 722 88 708 108 708 C109 708 112 709 116 709 L68 572 L68 568 L84 568 L133 710 C138 726 140 734 140 742 C140 759 126 773 108 773 L108 773 Z " />
<glyph glyph-name="quotesinglbase" unicode="&#x201a;" horiz-adv-x="229" d="M123 60 C103 60 89 47 89 29 C89 10 103 -4 123 -4 L130 -4 L83 -140 L83 -144 L99 -144 L147 -2 C153 13 154 22 154 29 C154 47 141 60 123 60 L123 60 Z " />
<glyph glyph-name="quotedblleft" unicode="&#x201c;" horiz-adv-x="316" d="M66 625 C61 610 59 602 59 594 C59 576 73 563 91 563 C111 563 125 576 125 595 C125 614 111 627 91 627 L83 627 L131 764 L131 767 L115 767 L66 625 Z M232 767 L184 625 C178 610 177 602 177 594 C177 576 190 563 208 563 C228 563 242 576 242 595 C242 614 228 627 208 627 L201 627 L248 764 L248 767 L232 767 Z " />
<glyph glyph-name="quotedblright" unicode="&#x201d;" horiz-adv-x="316" d="M108 773 C88 773 74 759 74 741 C74 722 88 708 108 708 C109 708 112 709 116 709 L68 572 L68 568 L84 568 L133 710 C138 726 140 734 140 742 C140 759 126 773 108 773 L108 773 Z M226 773 C205 773 191 759 191 741 C191 722 205 708 226 708 C227 708 229 709 233 709 L185 572 L185 568 L201 568 L250 710 C255 726 257 734 257 742 C257 759 244 773 226 773 L226 773 Z " />
<glyph glyph-name="quotedblbase" unicode="&#x201e;" horiz-adv-x="346" d="M123 60 C103 60 89 47 89 29 C89 10 103 -4 123 -4 L130 -4 L83 -140 L83 -144 L99 -144 L147 -2 C153 13 154 22 154 29 C154 47 141 60 123 60 L123 60 Z M240 60 C220 60 206 47 206 29 C206 10 220 -4 240 -4 L248 -4 L200 -140 L200 -144 L216 -144 L265 -2 C270 13 272 22 272 29 C272 47 258 60 240 60 L240 60 Z " />
<glyph glyph-name="dagger" unicode="&#x2020;" horiz-adv-x="445" d="M233 -111 L233 517 L380 517 L380 536 L233 536 L233 767 L213 767 L213 536 L65 536 L65 517 L213 517 L213 -111 L233 -111 Z " />
<glyph glyph-name="daggerdbl" unicode="&#x2021;" horiz-adv-x="468" d="M244 -111 L244 118 L392 118 L392 138 L244 138 L244 517 L392 517 L392 536 L244 536 L244 767 L225 767 L225 536 L76 536 L76 517 L225 517 L225 138 L76 138 L76 118 L225 118 L225 -111 L244 -111 Z " />
<glyph glyph-name="bullet" unicode="&#x2022;" horiz-adv-x="374" d="M187 134 C263 134 325 196 325 272 C325 348 263 410 187 410 C110 410 49 348 49 272 C49 196 110 134 187 134 L187 134 Z " />
<glyph glyph-name="ellipsis" unicode="&#x2026;" horiz-adv-x="682" d="M118 -6 C136 -6 151 9 151 28 C151 46 136 60 118 60 C100 60 84 46 84 28 C84 9 100 -6 118 -6 L118 -6 Z M341 -6 C359 -6 374 9 374 28 C374 46 359 60 341 60 C323 60 308 46 308 28 C308 9 323 -6 341 -6 L341 -6 Z M564 -6 C582 -6 597 9 597 28 C597 46 582 60 564 60 C546 60 531 46 531 28 C531 9 546 -6 564 -6 L564 -6 Z " />
<glyph glyph-name="perthousand" unicode="&#x2030;" horiz-adv-x="1162" d="M215 435 C291 435 345 504 345 603 C345 702 290 772 212 772 C116 772 82 675 82 603 C82 531 116 435 215 435 L215 435 Z M223 0 L628 767 L610 767 L205 0 L223 0 Z M215 452 C128 452 99 538 99 603 C99 670 128 755 212 755 C291 755 328 680 328 603 C328 514 282 452 215 452 L215 452 Z M623 -6 C700 -6 753 63 753 162 C753 261 698 332 620 332 C524 332 490 235 490 162 C490 91 524 -6 623 -6 L623 -6 Z M950 -6 C1027 -6 1080 63 1080 162 C1080 261 1026 332 947 332 C850 332 816 235 816 162 C816 91 850 -6 950 -6 L950 -6 Z M623 12 C536 12 507 97 507 162 C507 229 536 315 620 315 C699 315 736 239 736 162 C736 73 690 12 623 12 L623 12 Z M950 12 C862 12 833 97 833 162 C833 229 862 315 947 315 C1025 315 1063 239 1063 162 C1063 73 1016 12 950 12 L950 12 Z " />
<glyph glyph-name="uni2031" unicode="&#x2031;" horiz-adv-x="1489" d="M215 435 C291 435 345 504 345 603 C345 702 290 772 212 772 C116 772 82 675 82 603 C82 531 116 435 215 435 L215 435 Z M223 0 L628 767 L610 767 L205 0 L223 0 Z M215 452 C128 452 99 538 99 603 C99 670 128 755 212 755 C291 755 328 680 328 603 C328 514 282 452 215 452 L215 452 Z M623 -6 C700 -6 753 63 753 162 C753 261 698 332 620 332 C524 332 490 235 490 162 C490 91 524 -6 623 -6 L623 -6 Z M950 -6 C1027 -6 1080 63 1080 162 C1080 261 1026 332 947 332 C850 332 816 235 816 162 C816 91 850 -6 950 -6 L950 -6 Z M1277 -6 C1353 -6 1407 63 1407 162 C1407 261 1352 332 1274 332 C1177 332 1144 235 1144 162 C1144 91 1177 -6 1277 -6 L1277 -6 Z M623 12 C536 12 507 97 507 162 C507 229 536 315 620 315 C699 315 736 239 736 162 C736 73 690 12 623 12 L623 12 Z M950 12 C862 12 833 97 833 162 C833 229 862 315 947 315 C1025 315 1063 239 1063 162 C1063 73 1016 12 950 12 L950 12 Z M1277 12 C1189 12 1161 97 1161 162 C1161 229 1189 315 1274 315 C1353 315 1390 239 1390 162 C1390 73 1343 12 1277 12 L1277 12 Z " />
<glyph glyph-name="guilsinglleft" unicode="&#x2039;" horiz-adv-x="314" d="M250 115 L75 272 L250 428 L250 449 L50 272 L250 93 L250 115 Z " />
<glyph glyph-name="guilsinglright" unicode="&#x203a;" horiz-adv-x="314" d="M264 272 L64 449 L64 428 L239 272 L64 115 L64 93 L264 272 Z " />
<glyph glyph-name="fraction" unicode="&#x2044;" horiz-adv-x="134" d="M-128 0 L277 767 L262 767 L-143 0 L-128 0 Z " />
<glyph glyph-name="uni2074" unicode="&#x2074;" horiz-adv-x="413" d="M297 307 L297 417 L373 417 L373 430 L297 430 L297 767 L278 767 L40 433 L40 417 L284 417 L284 307 L297 307 Z M53 431 L282 752 L284 752 L284 430 L53 430 L53 431 Z " />
<glyph glyph-name="Euro" unicode="&#x20ac;" horiz-adv-x="793" d="M695 97 C643 45 572 14 478 14 C301 14 201 130 172 286 L447 286 L458 304 L169 304 C166 329 164 356 164 383 C164 412 166 441 170 468 L560 468 L572 486 L173 486 C203 640 303 753 478 753 C568 753 639 723 690 674 L700 692 C646 742 572 772 478 772 C292 772 184 649 153 486 L90 486 L90 468 L150 468 C146 441 144 412 144 383 C144 356 146 330 149 304 L90 304 L90 286 L152 286 C181 120 289 -6 478 -6 C577 -6 654 28 709 83 L695 97 Z " />
<glyph glyph-name="uni20B1" unicode="&#x20b1;" horiz-adv-x="658" d="M557 568 C555 633 527 684 487 715 C444 751 377 767 270 767 L123 767 L123 568 L53 568 L53 554 L123 554 L123 0 L146 0 L146 350 L270 350 C377 350 444 366 487 402 C528 433 556 486 557 554 L626 554 L626 568 L557 568 Z M268 746 C372 746 431 733 475 697 C511 668 532 623 534 568 L146 568 L146 746 L268 746 Z M475 420 C431 384 371 371 268 371 L146 371 L146 554 L534 554 C533 496 513 450 475 420 L475 420 Z " />
<glyph glyph-name="uni20B8" unicode="&#x20b8;" horiz-adv-x="785" d="M693 746 L693 766 L91 766 L91 746 L693 746 Z M403 0 L403 592 L693 592 L693 611 L91 611 L91 592 L382 592 L382 0 L403 0 Z " />
<glyph glyph-name="trademark" unicode="&#x2122;" horiz-adv-x="765" d="M168 371 L168 751 L290 751 L290 767 L29 767 L29 751 L151 751 L151 371 L168 371 Z M402 371 L402 747 L542 422 L555 422 L692 741 L692 371 L709 371 L709 767 L684 767 L548 445 L413 767 L385 767 L385 371 L402 371 Z " />
<glyph glyph-name="uni2126" unicode="&#x2126;" horiz-adv-x="859" d="M351 0 L351 76 C231 132 154 251 154 403 C154 567 259 696 430 696 C598 696 705 570 705 403 C705 237 627 116 507 78 L507 0 L782 0 L782 18 L528 18 L528 68 C648 115 724 239 724 403 C724 579 610 715 430 715 C252 715 135 581 135 403 C135 254 211 132 331 69 L330 19 L76 19 L76 0 L351 0 Z " />
<glyph glyph-name="arrowleft" unicode="&#x2190;" horiz-adv-x="823" d="M221 280 L221 396 L9 271 L221 146 L221 262 L823 262 L823 280 L221 280 Z " />
<glyph glyph-name="arrowright" unicode="&#x2192;" horiz-adv-x="823" d="M602 396 L602 280 L0 280 L0 262 L602 262 L602 146 L814 271 L602 396 Z " />
<glyph glyph-name="partialdiff" unicode="&#x2202;" horiz-adv-x="730" d="M316 -6 C533 -6 624 196 624 397 C624 645 541 772 374 772 C268 772 191 722 156 635 L175 628 C207 710 280 755 374 755 C518 755 593 650 602 444 L596 444 C571 523 498 560 396 560 C218 560 92 427 92 232 C92 91 182 -6 316 -6 L316 -6 Z M316 14 C194 14 112 100 112 232 C112 414 226 541 397 541 C598 541 605 367 589 257 C558 124 473 14 316 14 L316 14 Z " />
<glyph glyph-name="uni2206" unicode="&#x2206;" horiz-adv-x="740" d="M670 0 L370 779 L70 0 L670 0 Z M370 730 L644 19 L96 19 L370 730 Z " />
<glyph glyph-name="product" unicode="&#x220f;" horiz-adv-x="693" d="M175 0 L175 748 L518 748 L518 0 L537 0 L537 748 L605 748 L605 767 L87 767 L87 748 L156 748 L156 0 L175 0 Z " />
<glyph glyph-name="summation" unicode="&#x2211;" horiz-adv-x="702" d="M628 0 L628 20 L102 20 L104 35 L421 383 L104 731 L102 747 L628 747 L628 767 L79 767 L79 728 L394 383 L79 39 L79 0 L628 0 Z " />
<glyph glyph-name="minus" unicode="&#x2212;" horiz-adv-x="396" d="M366 262 L366 280 L31 280 L31 262 L366 262 Z " />
<glyph glyph-name="radical" unicode="&#x221a;" horiz-adv-x="686" d="M617 767 L596 767 L283 25 L154 329 L65 329 L65 311 L142 311 L282 -23 L617 767 Z " />
<glyph glyph-name="infinity" unicode="&#x221e;" horiz-adv-x="1135" d="M306 194 C409 194 495 275 562 377 C639 275 725 194 828 194 C940 194 1028 283 1028 393 C1028 503 940 592 828 592 C725 592 639 512 562 410 C495 512 409 592 306 592 C194 592 106 503 106 393 C106 283 194 194 306 194 L306 194 Z M307 213 C207 213 125 293 125 393 C125 493 207 574 307 574 C392 574 475 514 551 393 C475 274 393 213 307 213 L307 213 Z M827 213 C729 213 646 292 572 393 C646 495 729 574 827 574 C927 574 1009 493 1009 393 C1009 293 927 213 827 213 L827 213 Z " />
<glyph glyph-name="integral" unicode="&#x222b;" horiz-adv-x="562" d="M60 -266 C200 -266 263 -207 263 -75 L263 611 C263 694 318 754 390 754 C424 754 459 741 490 716 L501 731 C467 759 428 773 390 773 C308 773 245 704 245 611 L245 -75 C245 -198 191 -248 60 -248 L60 -266 Z " />
<glyph glyph-name="approxequal" unicode="&#x2248;" horiz-adv-x="473" d="M332 298 C398 298 442 360 442 451 L424 451 C424 369 387 315 332 315 C244 315 245 460 138 460 C72 460 31 407 31 319 L49 319 C49 396 81 443 138 443 C232 443 231 298 332 298 L332 298 Z M332 82 C398 82 442 142 442 235 L424 235 C424 153 387 99 332 99 C244 99 245 244 138 244 C72 244 31 189 31 103 L49 103 C49 180 81 227 138 227 C232 227 231 82 332 82 L332 82 Z " />
<glyph glyph-name="notequal" unicode="&#x2260;" horiz-adv-x="469" d="M439 373 L298 373 L387 542 L369 542 L280 373 L31 373 L31 354 L270 354 L182 188 L31 188 L31 169 L172 169 L83 0 L100 0 L189 169 L439 169 L439 188 L200 188 L287 354 L439 354 L439 373 Z " />
<glyph glyph-name="lessequal" unicode="&#x2264;" horiz-adv-x="438" d="M31 375 L31 352 L407 234 L407 254 L56 363 L407 473 L407 493 L31 375 Z M407 169 L407 188 L31 188 L31 169 L407 169 Z " />
<glyph glyph-name="greaterequal" unicode="&#x2265;" horiz-adv-x="438" d="M31 473 L382 363 L31 254 L31 234 L407 352 L407 375 L31 493 L31 473 Z M407 169 L407 188 L31 188 L31 169 L407 169 Z " />
<glyph glyph-name="lozenge" unicode="&#x25ca;" horiz-adv-x="595" d="M319 0 L520 383 L319 767 L275 767 L75 383 L275 0 L319 0 Z M97 383 L288 752 L308 752 L498 383 L308 15 L288 15 L97 383 Z " />
<glyph glyph-name="uniF8FF" unicode="&#xf8ff;" horiz-adv-x="1026" d="M513 -33 C745 -33 933 154 933 387 C933 619 745 807 513 807 C281 807 93 619 93 387 C93 154 281 -33 513 -33 L513 -33 Z M513 6 C302 6 132 176 132 387 C132 598 302 768 513 768 C724 768 894 598 894 387 C894 176 724 6 513 6 L513 6 Z M294 222 C305 222 314 230 314 241 L314 532 C314 543 305 552 294 552 C284 552 275 543 275 532 L275 241 C275 230 284 222 294 222 L294 222 Z M513 222 C524 222 532 230 532 241 L532 532 C532 543 524 552 513 552 C502 552 494 543 494 532 L494 241 C494 230 502 222 513 222 L513 222 Z M731 222 C741 222 751 231 751 241 C751 246 749 250 745 254 L613 387 L745 519 C749 523 751 528 751 532 C751 542 741 552 731 552 C726 552 722 550 719 546 L572 400 C568 397 567 392 567 387 C567 382 568 378 572 373 L718 228 C722 223 726 222 731 222 L731 222 Z M439 368 C451 368 459 376 459 387 C459 398 451 406 439 406 L367 406 C356 406 348 398 348 387 C348 376 356 368 367 368 L439 368 Z " />
<glyph glyph-name="fi" unicode="&#xfb01;" horiz-adv-x="439" d="M358 778 C339 778 325 764 325 747 C325 729 339 715 358 715 C374 715 389 729 389 747 C389 764 374 778 358 778 L358 778 Z M135 687 C135 721 160 746 194 746 L259 746 L259 767 L193 767 C146 767 113 734 113 687 L113 542 L22 542 L22 521 L113 521 L113 0 L135 0 L135 521 L347 521 L347 0 L369 0 L369 542 L135 542 L135 687 Z " />
<glyph glyph-name="fl" unicode="&#xfb02;" horiz-adv-x="519" d="M426 21 C393 21 367 46 367 80 L367 767 L193 767 C146 767 113 734 113 687 L113 542 L22 542 L22 522 L113 522 L113 0 L135 0 L135 522 L259 522 L259 542 L135 542 L135 687 C135 721 160 746 194 746 L345 746 L345 80 C345 33 378 0 425 0 L490 0 L490 21 L426 21 Z " />
</font>
</svg>
