<svg width="605" height="454" viewBox="0 0 605 454" fill="none" xmlns="http://www.w3.org/2000/svg">
<path d="M586.987 0.255859H18.0058C8.06182 0.255859 0 8.31768 0 18.2616V435.995C0 445.939 8.06182 454.001 18.0058 454.001H586.987C596.935 454.001 604.993 445.939 604.997 435.995V18.2616C604.997 8.31768 596.938 0.255859 586.987 0.255859ZM573.639 163.208C573.639 182.43 558.049 198.02 538.824 198.024C519.598 198.02 504.015 182.43 504.012 163.208C504.015 143.979 519.598 128.396 538.827 128.396C558.049 128.399 573.636 143.979 573.639 163.208ZM49.2169 439.589C33.9731 439.589 21.6137 427.23 21.6137 411.983C21.6137 396.742 33.9731 384.376 49.2169 384.376C64.464 384.376 76.8268 396.742 76.8268 411.983C76.8234 427.23 64.464 439.589 49.2169 439.589ZM515.274 344.852L515.27 436.651C515.274 440.792 511.91 444.155 507.766 444.155C503.624 444.155 500.264 440.792 500.258 436.651L500.261 344.852C494.305 343.846 489.763 338.703 489.763 332.462C489.763 326.221 494.309 321.078 500.261 320.075L500.264 293.906C500.264 289.765 503.628 286.405 507.769 286.405C511.914 286.405 515.274 289.765 515.274 293.906V320.075C521.226 321.081 525.771 326.221 525.771 332.462C525.768 338.706 521.222 343.846 515.274 344.852ZM504.015 249.034C504.012 229.809 519.598 214.222 538.827 214.222C558.049 214.222 573.636 229.809 573.639 249.034C573.639 268.256 558.049 283.843 538.824 283.846C519.598 283.843 504.015 268.256 504.015 249.034ZM581.144 344.852L581.141 436.651C581.141 440.799 577.784 444.155 573.636 444.155C569.495 444.155 566.135 440.792 566.131 436.651L566.135 344.852C560.179 343.846 555.637 338.703 555.637 332.462C555.637 326.221 560.183 321.074 566.135 320.075V293.906C566.135 289.765 569.498 286.405 573.639 286.405C577.781 286.405 581.148 289.765 581.148 293.906V320.075C587.1 321.081 591.642 326.224 591.642 332.462C591.642 338.706 587.096 343.846 581.144 344.852Z" fill="#840716"/>
<circle cx="244" cy="227.256" r="200" fill="#E5E5E5"/>
<path d="M421.338 227.13C421.335 129.009 341.8 49.4746 243.682 49.4746C145.565 49.4746 66.0234 129.012 66.0234 227.13C66.0234 325.248 145.565 404.782 243.682 404.782C341.8 404.782 421.335 325.248 421.338 227.13ZM243.682 300.349C203.241 300.349 170.457 267.572 170.457 227.13C170.457 186.692 203.237 153.908 243.679 153.908C284.121 153.908 316.901 186.692 316.901 227.134C316.901 267.575 284.121 300.349 243.682 300.349Z" fill="black"/>
<path d="M243.679 153.904C203.241 153.904 170.457 186.685 170.457 227.127C170.457 267.565 203.241 300.345 243.683 300.345C284.121 300.345 316.902 267.572 316.902 227.13C316.902 186.688 284.117 153.904 243.679 153.904ZM243.679 288.346C209.873 288.346 182.46 260.937 182.46 227.127C182.46 193.313 209.869 165.904 243.683 165.904C277.493 165.904 304.906 193.313 304.906 227.127C304.906 260.937 277.489 288.346 243.679 288.346Z" fill="#727272"/>
<path d="M49.2169 439.59C64.4636 439.59 76.8235 427.23 76.8235 411.984C76.8235 396.737 64.4636 384.377 49.2169 384.377C33.9702 384.377 21.6104 396.737 21.6104 411.984C21.6104 427.23 33.9702 439.59 49.2169 439.59Z" fill="#F7F7F7"/>
<path d="M504.012 163.207C504.015 182.429 519.599 198.019 538.824 198.022C558.049 198.019 573.64 182.429 573.64 163.207C573.636 143.978 558.049 128.398 538.827 128.395C519.599 128.395 504.015 143.978 504.012 163.207ZM538.824 139.65C551.836 139.65 562.384 150.195 562.384 163.21C562.384 176.215 551.836 186.764 538.827 186.764C525.819 186.764 515.267 176.215 515.274 163.21C515.267 150.198 525.819 139.65 538.824 139.65Z" fill="#B1B1B1"/>
<path d="M538.827 186.762C551.838 186.762 562.384 176.216 562.384 163.205C562.384 150.195 551.838 139.648 538.827 139.648C525.817 139.648 515.271 150.195 515.271 163.205C515.271 176.216 525.817 186.762 538.827 186.762Z" fill="#F7F7F7"/>
<path d="M573.639 249.035C573.636 229.81 558.049 214.223 538.827 214.223C519.598 214.223 504.011 229.81 504.015 249.035C504.015 268.257 519.598 283.844 538.824 283.847C558.049 283.844 573.639 268.257 573.639 249.035ZM538.824 272.595C525.819 272.595 515.267 262.047 515.267 249.035C515.267 236.03 525.815 225.481 538.824 225.481C551.832 225.481 562.384 236.027 562.38 249.038C562.384 262.043 551.835 272.595 538.824 272.595Z" fill="#B1B1B1"/>
<path d="M538.824 272.594C551.834 272.594 562.381 262.048 562.381 249.037C562.381 236.027 551.834 225.48 538.824 225.48C525.813 225.48 515.267 236.027 515.267 249.037C515.267 262.048 525.813 272.594 538.824 272.594Z" fill="#F7F7F7"/>
<path d="M466.499 59.8404C471.878 42.771 490.081 33.288 507.155 38.6655C524.228 44.043 533.709 62.2417 528.332 79.3153C522.954 96.3889 504.755 105.87 487.679 100.491C485.627 99.8451 483.694 99.0048 481.876 98.0153C480.153 100.297 478.4 102.63 476.612 105.016C479.233 106.554 482.042 107.848 485.062 108.799C506.724 115.622 529.808 103.591 536.632 81.9333C543.45 60.2768 531.427 37.1886 509.768 30.3669C488.107 23.5443 465.024 35.5721 458.196 57.2288C453.413 72.424 457.929 88.3038 468.513 98.793C470.307 96.3983 472.07 94.0578 473.801 91.764C466.055 83.4937 462.853 71.415 466.499 59.8404Z" fill="#898989"/>
<path d="M528.328 79.314C533.706 62.2404 524.225 44.0418 507.151 38.6643C490.078 33.2868 471.878 42.7708 466.495 59.8391C462.853 71.4148 466.05 83.4956 473.802 91.7573C476.792 87.7943 479.672 84.0105 482.398 80.4667C479.07 75.8707 477.868 69.8252 479.704 63.9958C482.785 54.2131 493.215 48.7822 502.998 51.8634C512.78 54.9446 518.208 65.3734 515.128 75.1529C512.047 84.9356 501.617 90.3665 491.837 87.2863C491.358 87.1353 490.896 86.9506 490.437 86.767C487.728 90.2912 484.859 94.0608 481.881 98.0096C483.699 98.9991 485.632 99.8394 487.684 100.485C504.753 105.865 522.952 96.3844 528.328 79.314Z" fill="#E8E8E8"/>
<path d="M513.167 319.859C513.887 319.859 514.584 319.954 515.273 320.073V293.904C515.273 289.762 511.914 286.402 507.769 286.402C503.628 286.402 500.264 289.762 500.264 293.904L500.261 320.073C500.95 319.958 501.643 319.859 502.367 319.859H513.167Z" fill="black"/>
<path d="M502.367 345.066C501.647 345.066 500.951 344.97 500.261 344.852L500.258 436.65C500.265 440.792 503.621 444.155 507.766 444.155C511.911 444.155 515.274 440.792 515.271 436.65L515.274 344.852C514.584 344.967 513.891 345.066 513.171 345.066H502.367Z" fill="black"/>
<path d="M515.274 320.073C514.584 319.958 513.891 319.859 513.167 319.859H502.364C501.644 319.859 500.947 319.955 500.257 320.073C494.305 321.079 489.76 326.219 489.76 332.46C489.76 338.701 494.302 343.848 500.257 344.85C500.947 344.966 501.64 345.064 502.364 345.064H513.167C513.887 345.064 514.581 344.969 515.27 344.85C521.219 343.844 525.768 338.701 525.771 332.46C525.771 326.219 521.226 321.079 515.274 320.073Z" fill="#F4F4F4"/>
<path d="M568.238 345.066C567.517 345.066 566.821 344.97 566.131 344.852L566.128 436.65C566.131 440.792 569.491 444.155 573.633 444.155C577.781 444.155 581.137 440.798 581.137 436.65L581.141 344.852C580.451 344.967 579.758 345.066 579.038 345.066H568.238Z" fill="black"/>
<path d="M579.038 319.859C579.758 319.859 580.458 319.954 581.148 320.073V293.904C581.148 289.762 577.784 286.402 573.639 286.402C569.498 286.402 566.135 289.762 566.135 293.904V320.073C566.821 319.958 567.517 319.859 568.238 319.859H579.038Z" fill="black"/>
<path d="M581.148 320.073C580.458 319.958 579.762 319.859 579.038 319.859H568.234C567.514 319.859 566.818 319.955 566.132 320.073C560.179 321.076 555.634 326.219 555.634 332.46C555.634 338.701 560.176 343.848 566.132 344.85C566.821 344.966 567.514 345.064 568.238 345.064H579.041C579.761 345.064 580.458 344.969 581.144 344.85C587.096 343.844 591.642 338.701 591.642 332.46C591.642 326.223 587.1 321.079 581.148 320.073Z" fill="#F4F4F4"/>
<path d="M243.682 288.35C277.494 288.35 304.905 260.94 304.905 227.127C304.905 193.315 277.494 165.904 243.682 165.904C209.869 165.904 182.459 193.315 182.459 227.127C182.459 260.94 209.869 288.35 243.682 288.35Z" fill="#E5E5E5"/>
<path d="M515.124 75.1562C518.204 65.3767 512.773 54.9468 502.994 51.8667C493.211 48.7855 482.78 54.2196 479.7 63.9991C477.865 69.8253 479.069 75.875 482.394 80.47C486.487 75.1445 490.243 70.3329 493.438 66.3741C495.208 64.1785 498.422 63.8371 500.615 65.6036C502.804 67.3723 503.152 70.5878 501.385 72.7844C498.218 76.7095 494.492 81.4841 490.429 86.7725C490.891 86.9571 491.349 87.1408 491.829 87.2918C501.616 90.3707 512.042 84.9389 515.124 75.1562Z" fill="#C8C8C8"/>
<path d="M482.927 96.8631C485.906 92.9142 488.774 89.1444 491.483 85.6201C495.545 80.3347 499.272 75.5567 502.438 71.6316C504.205 69.4381 503.861 66.2204 501.669 64.4508C499.476 62.6811 496.262 63.0259 494.491 65.2216C491.295 69.1838 487.539 73.9955 483.448 79.3179C480.722 82.8618 477.846 86.6468 474.853 90.6088C473.119 92.9016 471.359 95.2433 469.565 97.6381C451.902 121.211 431.711 148.953 418.489 167.232L417.463 168.647C415.674 171.115 414.231 173.3 412.822 176.087C409.736 182.199 406.826 191.213 400.866 212.481C398.819 219.786 396.968 226.149 395.295 231.723C390.415 247.963 387.048 257.467 384.808 263.789L383.933 266.263C383.555 267.337 383.24 268.35 382.938 269.333C381.118 275.225 379.91 279.115 360.843 289.424C357.543 291.205 352.853 293.418 347.313 295.877C328.509 304.227 299.435 315.57 277.529 323.919C274.97 320.136 270.952 318.126 267.244 319.198L218.223 333.338C213.282 334.763 210.783 341.107 212.63 347.512C212.77 348.005 212.972 348.45 213.153 348.916C215.347 354.48 220.349 357.847 224.904 356.538L273.936 342.399C276.573 341.637 278.468 339.441 279.414 336.598C279.696 335.746 279.912 334.856 280.015 333.909C289.596 330.266 300.646 326.009 311.689 321.651C333.613 312.994 355.49 303.923 365.701 298.405C387.331 286.713 390.051 280.891 392.691 272.359C392.961 271.493 393.239 270.597 393.568 269.654L394.438 267.199C397.491 258.59 402.596 244.177 410.704 215.24C419.355 184.352 421.204 180.902 425.737 174.64L426.762 173.218C439.945 154.994 460.082 127.335 477.666 103.865C479.451 101.478 481.203 99.1482 482.927 96.8631Z" fill="#2F2F2F"/>
</svg>
