<?xml version="1.0" encoding="UTF-8"?>
<svg xmlns="http://www.w3.org/2000/svg" xmlns:xlink="http://www.w3.org/1999/xlink" version="1.2" >
<font id="HK Guise Bold">
<font-face  font-family="HK Guise" units-per-em="1000" ascent="767" descent="-233" font-style="normal" font-weight="700" font-stretch="normal" cap-height="767" x-height="542" underline-position="-88" underline-thickness="90" />
<missing-glyph  horiz-adv-x="544" d="M494 0 L494 518 L50 518 L50 0 L494 0 Z M105 462 L438 462 L438 56 L105 56 L105 462 Z " />
<glyph glyph-name="NULL" d="" />
<glyph glyph-name="CR" unicode="&#xd;" horiz-adv-x="250" d="" />
<glyph glyph-name="space" unicode="&#x20;" horiz-adv-x="280" d="" />
<glyph glyph-name="exclam" unicode="&#x21;" horiz-adv-x="310" d="M229 229 L229 767 L79 767 L79 229 L229 229 Z M155 -12 C208 -12 250 31 250 83 C250 132 207 174 155 174 C100 174 58 132 58 83 C58 31 100 -12 155 -12 L155 -12 Z " />
<glyph glyph-name="quotedbl" unicode="&#x22;" horiz-adv-x="380" d="M151 414 L151 767 L40 767 L40 414 L151 414 Z M340 414 L340 767 L229 767 L229 414 L340 414 Z " />
<glyph glyph-name="numbersign" unicode="&#x23;" horiz-adv-x="737" d="M218 0 L265 224 L400 224 L352 0 L456 0 L503 224 L657 224 L657 318 L523 318 L555 460 L701 460 L701 553 L575 553 L623 767 L519 767 L473 553 L338 553 L386 767 L281 767 L232 558 L81 558 L81 460 L212 460 L182 318 L37 318 L37 224 L162 224 L115 0 L218 0 Z M316 460 L451 460 L422 318 L287 318 L316 460 Z " />
<glyph glyph-name="dollar" unicode="&#x24;" horiz-adv-x="682" d="M647 230 C647 341 584 415 464 449 L378 473 L378 646 C434 633 465 597 475 539 L629 539 C619 683 507 761 378 776 L378 856 L322 856 L322 779 C182 777 56 707 56 568 C56 417 194 372 261 353 L322 336 L322 119 C228 131 180 186 180 280 L30 280 C30 100 164 4 322 -10 L322 -98 L378 -98 L378 -12 C539 -6 647 85 647 230 L647 230 Z M312 492 C256 508 206 522 206 574 C206 623 250 650 322 651 L322 489 L312 492 Z M378 320 C440 302 497 284 497 214 C497 153 453 121 378 117 L378 320 Z " />
<glyph glyph-name="percent" unicode="&#x25;" horiz-adv-x="754" d="M193 423 C282 423 347 500 347 600 C347 701 280 778 189 778 C97 778 34 703 34 601 C34 498 98 423 193 423 L193 423 Z M193 0 L655 767 L562 767 L99 0 L193 0 Z M193 512 C149 512 123 547 123 601 C123 654 148 689 189 689 C230 689 258 653 258 600 C258 549 230 512 193 512 L193 512 Z M565 -11 C654 -11 719 66 719 166 C719 267 653 343 562 343 C469 343 406 269 406 167 C406 63 470 -11 565 -11 L565 -11 Z M565 78 C522 78 495 112 495 167 C495 220 520 254 562 254 C603 254 630 219 630 166 C630 114 603 78 565 78 L565 78 Z " />
<glyph glyph-name="ampersand" unicode="&#x26;" horiz-adv-x="761" d="M293 -12 C389 -12 471 10 535 59 L586 0 L741 0 L741 12 L613 156 C646 218 663 300 663 403 L535 403 L535 261 L519 261 L403 393 C478 443 540 504 540 593 C540 696 458 776 336 776 C222 776 125 708 125 596 C125 520 172 459 207 424 L207 407 C118 356 36 293 36 182 C36 53 149 -12 293 -12 L293 -12 Z M327 474 C291 511 252 549 252 594 C252 638 282 664 336 664 C396 664 418 630 418 592 C418 542 379 507 327 474 L327 474 Z M295 99 C227 99 169 122 169 190 C169 244 228 286 299 328 L453 151 C410 117 356 99 295 99 L295 99 Z " />
<glyph glyph-name="quotesingle" unicode="&#x27;" horiz-adv-x="192" d="M151 414 L151 767 L40 767 L40 414 L151 414 Z " />
<glyph glyph-name="parenleft" unicode="&#x28;" horiz-adv-x="261" d="M278 -68 C180 60 134 179 134 381 C134 560 178 708 279 832 L160 832 C82 746 29 594 29 383 C29 218 79 19 162 -68 L278 -68 Z " />
<glyph glyph-name="parenright" unicode="&#x29;" horiz-adv-x="261" d="M99 -68 C182 19 232 218 232 383 C232 594 179 746 101 832 L-18 832 C83 708 127 560 127 381 C127 179 81 60 -17 -68 L99 -68 Z " />
<glyph glyph-name="asterisk" unicode="&#x2a;" horiz-adv-x="406" d="M202 555 L263 437 L338 493 L245 586 L375 607 L347 697 L228 638 L249 767 L155 767 L176 638 L57 697 L29 607 L159 586 L66 493 L141 437 L202 555 Z " />
<glyph glyph-name="plus" unicode="&#x2b;" horiz-adv-x="534" d="M317 21 L317 221 L517 221 L517 321 L317 321 L317 521 L217 521 L217 321 L17 321 L17 221 L217 221 L217 21 L317 21 Z " />
<glyph glyph-name="comma" unicode="&#x2c;" horiz-adv-x="283" d="M147 174 C88 174 50 132 50 83 C50 35 82 -6 135 -11 L69 -144 L69 -163 L145 -163 L224 10 C234 31 242 55 242 83 C242 132 203 174 147 174 L147 174 Z " />
<glyph glyph-name="hyphen" unicode="&#x2d;" horiz-adv-x="425" d="M372 221 L372 321 L55 321 L55 221 L372 221 Z " />
<glyph glyph-name="period" unicode="&#x2e;" horiz-adv-x="300" d="M151 -12 C204 -12 246 31 246 83 C246 132 203 174 151 174 C96 174 54 132 54 83 C54 31 96 -12 151 -12 L151 -12 Z " />
<glyph glyph-name="slash" unicode="&#x2f;" horiz-adv-x="468" d="M53 -233 L454 767 L331 767 L-70 -233 L53 -233 Z " />
<glyph glyph-name="zero" unicode="0" horiz-adv-x="612" d="M306 -12 C530 -12 558 161 558 243 L558 524 C558 606 530 779 306 779 C82 779 54 606 54 524 L54 243 C54 161 82 -12 306 -12 L306 -12 Z M306 122 C203 122 204 209 204 243 L204 524 C204 558 203 645 306 645 C409 645 408 558 408 524 L408 243 C408 209 409 122 306 122 L306 122 Z " />
<glyph glyph-name="one" unicode="1" horiz-adv-x="416" d="M210 720 C210 669 189 653 139 653 L26 653 L26 519 L205 519 L205 0 L355 0 L355 767 L210 767 L210 720 Z " />
<glyph glyph-name="two" unicode="2" horiz-adv-x="573" d="M422 334 C493 407 526 471 526 558 C526 671 437 779 285 779 C151 779 43 672 44 539 L194 539 C194 598 225 645 285 645 C348 645 376 598 376 558 C376 518 370 490 315 434 L44 155 L44 0 L538 0 L538 134 L227 134 L422 334 Z " />
<glyph glyph-name="three" unicode="3" horiz-adv-x="653" d="M323 -12 C473 -12 609 70 609 226 C609 307 570 384 474 413 L474 419 C544 456 567 510 567 568 C567 700 448 779 320 779 C188 779 75 694 75 550 L225 550 C230 612 263 645 324 645 C385 645 417 613 417 554 C417 479 365 457 303 457 L270 457 L270 346 L323 346 C385 346 459 334 459 239 C459 160 416 122 325 122 C234 122 190 162 188 244 L38 244 C36 73 169 -12 323 -12 L323 -12 Z " />
<glyph glyph-name="four" unicode="4" horiz-adv-x="653" d="M512 0 L512 168 L620 168 L620 302 L512 302 L512 767 L335 767 L33 312 L33 168 L362 168 L362 0 L512 0 Z M176 310 L353 578 L362 578 L362 302 L176 302 L176 310 Z " />
<glyph glyph-name="five" unicode="5" horiz-adv-x="650" d="M349 522 C309 522 271 516 238 499 L259 633 L567 633 L567 767 L131 767 L58 314 L199 314 C219 359 266 388 321 388 C400 388 455 334 455 258 C455 178 400 122 323 122 C259 122 209 160 194 219 L42 219 C56 88 160 -12 324 -12 C493 -12 605 97 605 254 C605 427 477 522 349 522 L349 522 Z " />
<glyph glyph-name="six" unicode="6" horiz-adv-x="640" d="M467 739 L467 767 L306 767 L100 447 C56 378 37 312 37 252 C37 108 143 -12 321 -12 C493 -12 603 102 603 260 C603 412 491 526 331 531 L467 739 Z M320 122 C242 122 187 178 187 260 C187 340 242 394 320 394 C398 394 453 340 453 260 C453 178 398 122 320 122 L320 122 Z " />
<glyph glyph-name="seven" unicode="7" horiz-adv-x="568" d="M224 0 L539 637 L539 767 L29 767 L29 633 L370 633 L370 625 L70 28 L70 0 L224 0 Z " />
<glyph glyph-name="eight" unicode="8" horiz-adv-x="664" d="M332 -12 C488 -12 620 74 620 232 C620 314 583 368 521 410 L521 419 C557 456 582 509 582 567 C582 700 460 779 332 779 C204 779 82 700 82 567 C82 509 107 456 143 419 L143 410 C81 368 44 314 44 232 C44 74 176 -12 332 -12 L332 -12 Z M332 470 C269 470 230 503 230 553 C230 608 267 645 332 645 C397 645 434 608 434 553 C434 503 395 470 332 470 L332 470 Z M332 122 C250 122 194 169 194 234 C194 304 250 349 332 349 C414 349 470 304 470 234 C470 169 414 122 332 122 L332 122 Z " />
<glyph glyph-name="nine" unicode="9" horiz-adv-x="622" d="M301 779 C129 779 19 665 19 507 C19 355 131 241 291 236 L155 28 L155 0 L316 0 L522 320 C566 389 585 455 585 515 C585 659 479 779 301 779 L301 779 Z M302 373 C224 373 169 427 169 507 C169 589 224 645 302 645 C380 645 435 589 435 507 C435 427 380 373 302 373 L302 373 Z " />
<glyph glyph-name="colon" unicode="&#x3a;" horiz-adv-x="300" d="M151 343 C204 343 246 386 246 438 C246 487 203 529 151 529 C96 529 54 487 54 438 C54 386 96 343 151 343 L151 343 Z M151 -12 C204 -12 246 31 246 83 C246 132 203 174 151 174 C96 174 54 132 54 83 C54 31 96 -12 151 -12 L151 -12 Z " />
<glyph glyph-name="semicolon" unicode="&#x3b;" horiz-adv-x="300" d="M151 343 C204 343 246 386 246 438 C246 487 203 529 151 529 C96 529 54 487 54 438 C54 386 96 343 151 343 L151 343 Z M151 174 C92 174 54 132 54 83 C54 35 86 -6 139 -11 L73 -144 L73 -163 L149 -163 L228 10 C238 31 246 55 246 83 C246 132 207 174 151 174 L151 174 Z " />
<glyph glyph-name="less" unicode="&#x3c;" horiz-adv-x="390" d="M373 151 L123 271 L373 391 L373 506 L17 326 L17 217 L373 36 L373 151 Z " />
<glyph glyph-name="equal" unicode="&#x3d;" horiz-adv-x="534" d="M517 339 L517 439 L17 439 L17 339 L517 339 Z M517 103 L517 203 L17 203 L17 103 L517 103 Z " />
<glyph glyph-name="greater" unicode="&#x3e;" horiz-adv-x="390" d="M373 217 L373 326 L17 506 L17 391 L267 271 L17 151 L17 36 L373 217 Z " />
<glyph glyph-name="question" unicode="&#x3f;" horiz-adv-x="412" d="M227 229 L227 272 C227 421 409 386 409 569 C409 642 377 698 325 731 C287 755 245 767 169 767 L30 767 L30 633 L151 633 C191 633 218 629 235 617 C251 606 259 590 259 565 C259 451 77 488 77 273 L77 229 L227 229 Z M152 -12 C205 -12 247 31 247 83 C247 132 204 174 152 174 C97 174 55 132 55 83 C55 31 97 -12 152 -12 L152 -12 Z " />
<glyph glyph-name="at" unicode="&#x40;" horiz-adv-x="1042" d="M516 -189 C573 -189 623 -181 679 -162 L650 -80 C604 -98 564 -104 516 -104 C290 -104 134 52 134 282 C134 513 288 692 528 692 C759 692 908 528 908 300 C908 153 846 44 758 44 C714 44 697 72 697 129 C697 210 729 348 773 550 L683 550 L673 513 L666 513 C644 554 602 578 542 578 C378 578 259 410 259 237 C259 96 339 20 447 20 C512 20 564 48 602 96 L610 96 C612 74 615 56 620 39 C638 -12 682 -41 749 -41 C900 -41 998 106 998 300 C998 578 800 777 526 777 C242 777 44 561 44 282 C44 4 240 -189 516 -189 L516 -189 Z M447 110 C389 110 350 144 350 234 C350 363 429 488 544 488 C600 488 639 457 639 369 C639 246 562 110 447 110 L447 110 Z " />
<glyph glyph-name="A" unicode="A" horiz-adv-x="757" d="M279 767 L7 28 L7 0 L157 0 L214 160 L542 160 L599 0 L749 0 L749 28 L477 767 L279 767 Z M373 611 L383 611 L495 294 L261 294 L373 611 Z " />
<glyph glyph-name="B" unicode="B" horiz-adv-x="657" d="M291 0 C424 0 492 13 541 51 C598 96 621 167 621 229 C621 317 580 380 503 407 L503 418 C545 442 593 491 593 574 C593 636 572 681 532 713 C465 767 378 767 297 767 L60 767 L60 0 L291 0 Z M210 633 L288 633 C346 633 391 633 417 611 C433 598 443 578 443 548 C443 517 433 498 418 486 C394 466 353 466 325 466 L210 466 L210 633 Z M210 332 L321 332 C375 332 410 333 442 312 C461 299 471 277 471 242 C471 202 457 176 434 159 C397 133 332 134 287 134 L210 134 L210 332 Z " />
<glyph glyph-name="C" unicode="C" horiz-adv-x="782" d="M402 -12 C590 -12 725 101 754 280 L599 280 C577 182 502 122 402 122 C270 122 182 227 182 384 C182 541 270 645 402 645 C502 645 577 585 599 487 L754 487 C725 666 590 779 402 779 C180 779 32 621 32 384 C32 146 180 -12 402 -12 L402 -12 Z " />
<glyph glyph-name="D" unicode="D" horiz-adv-x="747" d="M291 0 C404 0 509 23 586 81 C665 141 715 239 715 384 C715 528 665 626 586 686 C509 744 404 767 291 767 L59 767 L59 0 L291 0 Z M209 633 L289 633 C363 633 440 620 494 572 C537 534 565 473 565 384 C565 294 537 233 494 195 C440 147 363 134 289 134 L209 134 L209 633 Z " />
<glyph glyph-name="E" unicode="E" horiz-adv-x="607" d="M572 0 L572 134 L210 134 L210 327 L527 327 L527 461 L210 461 L210 633 L550 633 L550 767 L60 767 L60 0 L572 0 Z " />
<glyph glyph-name="F" unicode="F" horiz-adv-x="575" d="M210 0 L210 327 L527 327 L527 461 L210 461 L210 633 L550 633 L550 767 L60 767 L60 0 L210 0 Z " />
<glyph glyph-name="G" unicode="G" horiz-adv-x="802" d="M615 284 C603 184 522 122 412 122 C270 122 182 227 182 384 C182 541 270 645 402 645 C502 645 577 585 599 487 L754 487 C725 666 590 779 402 779 C180 779 32 621 32 384 C32 146 180 -12 402 -12 C480 -12 539 5 584 41 L600 41 L619 0 L754 0 L754 418 L404 418 L404 284 L615 284 Z " />
<glyph glyph-name="H" unicode="H" horiz-adv-x="754" d="M210 0 L210 327 L544 327 L544 0 L694 0 L694 767 L544 767 L544 461 L210 461 L210 767 L60 767 L60 0 L210 0 Z " />
<glyph glyph-name="I" unicode="I" horiz-adv-x="270" d="M210 0 L210 767 L60 767 L60 0 L210 0 Z " />
<glyph glyph-name="J" unicode="J" horiz-adv-x="592" d="M275 -12 C367 -12 437 14 481 63 C537 126 537 211 537 258 L537 767 L154 767 L154 633 L387 633 L387 279 C387 244 386 193 360 159 C343 136 313 122 275 122 C237 122 207 136 190 159 C169 187 164 226 163 258 L13 258 C13 211 13 126 69 63 C113 14 183 -12 275 -12 L275 -12 Z " />
<glyph glyph-name="K" unicode="K" horiz-adv-x="736" d="M711 739 L711 767 L528 767 L222 455 L210 455 L210 767 L60 767 L60 0 L210 0 L210 233 L343 368 L354 368 L567 0 L725 0 L725 28 L460 486 L711 739 Z " />
<glyph glyph-name="L" unicode="L" horiz-adv-x="539" d="M533 0 L533 134 L210 134 L210 767 L60 767 L60 0 L533 0 Z " />
<glyph glyph-name="M" unicode="M" horiz-adv-x="953" d="M210 0 L210 633 L220 633 L363 0 L589 0 L732 633 L742 633 L742 0 L892 0 L892 767 L625 767 L481 133 L471 133 L327 767 L60 767 L60 0 L210 0 Z " />
<glyph glyph-name="N" unicode="N" horiz-adv-x="804" d="M210 0 L210 633 L221 633 L486 0 L743 0 L743 767 L593 767 L593 133 L582 133 L317 767 L60 767 L60 0 L210 0 Z " />
<glyph glyph-name="O" unicode="O" horiz-adv-x="805" d="M402 -12 C624 -12 772 146 772 384 C772 621 624 779 402 779 C180 779 32 621 32 384 C32 146 180 -12 402 -12 L402 -12 Z M402 122 C270 122 182 227 182 384 C182 541 270 645 402 645 C534 645 622 541 622 384 C622 227 534 122 402 122 L402 122 Z " />
<glyph glyph-name="P" unicode="P" horiz-adv-x="604" d="M210 0 L210 314 L323 314 C396 314 455 322 498 352 C554 390 582 455 582 541 C582 626 554 691 498 729 C455 759 396 767 323 767 L60 767 L60 0 L210 0 Z M210 633 L298 633 C349 633 381 633 406 613 C417 604 432 587 432 541 C432 497 419 479 406 468 C382 448 348 448 298 448 L210 448 L210 633 Z " />
<glyph glyph-name="Q" unicode="Q" horiz-adv-x="810" d="M694 125 C744 192 772 280 772 384 C772 621 624 779 402 779 C180 779 32 621 32 384 C32 146 180 -12 402 -12 C478 -12 544 6 600 40 L634 0 L777 0 L777 28 L694 125 Z M402 122 C270 122 182 227 182 384 C182 541 270 645 402 645 C534 645 622 541 622 384 C622 330 612 283 593 244 L521 328 L377 328 L377 300 L507 148 C477 131 441 122 402 122 L402 122 Z " />
<glyph glyph-name="R" unicode="R" horiz-adv-x="654" d="M453 330 C470 335 485 343 498 352 C554 390 582 455 582 541 C582 626 554 691 498 729 C455 759 396 767 323 767 L60 767 L60 0 L210 0 L210 314 L286 314 L478 0 L637 0 L637 29 L453 327 L453 330 Z M298 633 C349 633 381 633 406 613 C417 604 432 587 432 541 C432 497 419 479 406 468 C382 448 348 448 298 448 L210 448 L210 633 L298 633 Z " />
<glyph glyph-name="S" unicode="S" horiz-adv-x="682" d="M362 -12 C532 -12 647 80 647 230 C647 341 584 415 464 449 L312 492 C256 508 206 522 206 574 C206 624 252 651 327 651 C416 651 462 613 475 539 L629 539 C618 701 478 779 329 779 C186 779 56 709 56 568 C56 417 194 372 261 353 L368 323 C434 304 497 288 497 214 C497 148 446 117 361 117 C242 117 180 174 180 280 L30 280 C30 85 187 -12 362 -12 L362 -12 Z " />
<glyph glyph-name="T" unicode="T" horiz-adv-x="630" d="M390 0 L390 633 L624 633 L624 767 L6 767 L6 633 L240 633 L240 0 L390 0 Z " />
<glyph glyph-name="U" unicode="U" horiz-adv-x="701" d="M350 -12 C559 -12 647 88 647 254 L647 767 L497 767 L497 264 C497 188 474 122 350 122 C228 122 203 185 203 264 L203 767 L53 767 L53 254 C53 90 138 -12 350 -12 L350 -12 Z " />
<glyph glyph-name="V" unicode="V" horiz-adv-x="757" d="M477 0 L749 739 L749 767 L599 767 L383 167 L373 167 L157 767 L7 767 L7 739 L279 0 L477 0 Z " />
<glyph glyph-name="W" unicode="W" horiz-adv-x="1203" d="M499 0 L597 646 L605 646 L703 0 L923 0 L1195 739 L1195 767 L1045 767 L829 167 L819 167 L728 767 L474 767 L383 167 L373 167 L157 767 L7 767 L7 739 L279 0 L499 0 Z " />
<glyph glyph-name="X" unicode="X" horiz-adv-x="709" d="M176 0 L350 264 L358 264 L532 0 L694 0 L694 28 L454 382 L695 739 L695 767 L533 767 L359 502 L349 502 L175 767 L13 767 L13 739 L254 382 L14 28 L14 0 L176 0 Z " />
<glyph glyph-name="Y" unicode="Y" horiz-adv-x="699" d="M424 0 L424 286 L696 739 L696 767 L538 767 L354 452 L344 452 L160 767 L2 767 L2 739 L274 286 L274 0 L424 0 Z " />
<glyph glyph-name="Z" unicode="Z" horiz-adv-x="656" d="M628 0 L628 134 L182 134 L182 144 L609 561 L609 767 L45 767 L45 633 L457 633 L457 623 L31 206 L31 0 L628 0 Z " />
<glyph glyph-name="bracketleft" unicode="&#x5b;" horiz-adv-x="299" d="M306 -89 L306 0 L178 0 L178 766 L306 766 L306 853 L71 853 L71 -89 L306 -89 Z " />
<glyph glyph-name="backslash" unicode="&#x5c;" horiz-adv-x="468" d="M537 -233 L136 767 L13 767 L414 -233 L537 -233 Z " />
<glyph glyph-name="bracketright" unicode="&#x5d;" horiz-adv-x="299" d="M228 -89 L228 853 L-7 853 L-7 766 L121 766 L121 0 L-7 0 L-7 -89 L228 -89 Z " />
<glyph glyph-name="asciicircum" unicode="&#x5e;" horiz-adv-x="678" d="M172 228 L339 564 L506 228 L646 228 L339 812 L32 228 L172 228 Z " />
<glyph glyph-name="underscore" unicode="&#x5f;" horiz-adv-x="667" d="M612 -100 L612 0 L55 0 L55 -100 L612 -100 Z " />
<glyph glyph-name="grave" unicode="&#x60;" horiz-adv-x="246" d="M245 610 L130 767 L-11 767 L145 610 L245 610 Z " />
<glyph glyph-name="a" unicode="a" horiz-adv-x="554" d="M483 459 C449 527 370 553 281 553 C126 553 58 475 51 378 L194 378 C197 409 221 442 279 442 C339 442 365 409 365 362 L365 336 L253 336 C128 336 34 288 34 166 C34 54 113 -11 227 -11 C280 -11 318 4 354 35 L364 35 L381 0 L505 0 L505 316 C505 356 506 413 483 459 L483 459 Z M247 105 C204 105 177 128 177 167 C177 221 220 231 272 231 L364 231 C360 156 332 105 247 105 L247 105 Z " />
<glyph glyph-name="b" unicode="b" horiz-adv-x="607" d="M336 -12 C480 -12 574 102 574 271 C574 440 480 554 336 554 C284 554 237 541 202 513 L194 513 L194 767 L53 767 L53 0 L180 0 L194 29 L202 29 C237 1 284 -12 336 -12 L336 -12 Z M308 110 C229 110 183 169 183 271 C183 373 229 432 308 432 C387 432 432 372 432 271 C432 170 387 110 308 110 L308 110 Z " />
<glyph glyph-name="c" unicode="c" horiz-adv-x="594" d="M307 -12 C437 -12 538 59 567 181 L419 181 C402 135 360 110 307 110 C224 110 174 168 174 271 C174 373 224 432 307 432 C360 432 402 406 419 361 L567 361 C538 482 436 554 307 554 C147 554 32 447 32 271 C32 94 147 -12 307 -12 L307 -12 Z " />
<glyph glyph-name="d" unicode="d" horiz-adv-x="607" d="M271 -12 C323 -12 370 1 405 29 L413 29 L427 0 L554 0 L554 767 L413 767 L413 513 L405 513 C370 541 323 554 271 554 C127 554 33 440 33 271 C33 102 127 -12 271 -12 L271 -12 Z M299 110 C220 110 175 170 175 271 C175 372 220 432 299 432 C378 432 424 373 424 271 C424 169 378 110 299 110 L299 110 Z " />
<glyph glyph-name="e" unicode="e" horiz-adv-x="612" d="M307 554 C147 554 32 447 32 271 C32 95 147 -12 307 -12 C429 -12 527 54 565 163 L413 163 C391 132 355 110 307 110 C236 110 189 155 177 231 L580 231 L581 270 C582 442 470 554 307 554 L307 554 Z M307 432 C370 432 413 397 431 336 L182 336 C200 397 244 432 307 432 L307 432 Z " />
<glyph glyph-name="f" unicode="f" horiz-adv-x="363" d="M347 638 L347 767 L268 767 C162 767 106 710 106 605 L106 542 L19 542 L19 413 L106 413 L106 0 L247 0 L247 413 L347 413 L347 542 L247 542 L247 605 C247 624 262 638 281 638 L347 638 Z " />
<glyph glyph-name="g" unicode="g" horiz-adv-x="607" d="M434 -225 C512 -225 554 -181 554 -105 L554 542 L427 542 L413 513 L405 513 C370 541 323 554 271 554 C127 554 33 440 33 271 C33 102 127 -12 271 -12 C323 -12 370 1 405 29 L413 29 L413 -65 C413 -89 399 -103 375 -103 L220 -103 C195 -103 182 -89 182 -65 L182 -40 L40 -40 L40 -105 C40 -182 83 -225 160 -225 L434 -225 Z M299 110 C220 110 175 170 175 271 C175 372 220 432 299 432 C378 432 424 373 424 271 C424 169 378 110 299 110 L299 110 Z " />
<glyph glyph-name="h" unicode="h" horiz-adv-x="598" d="M195 0 L195 282 C195 330 201 360 215 383 C232 411 261 426 301 426 C376 426 408 377 408 292 L408 0 L550 0 L550 327 C550 471 468 554 347 554 C286 554 238 532 205 504 L195 504 L195 767 L53 767 L53 0 L195 0 Z " />
<glyph glyph-name="i" unicode="i" horiz-adv-x="247" d="M123 614 C167 614 204 651 204 697 C204 741 167 778 123 778 C77 778 41 741 41 697 C41 651 77 614 123 614 L123 614 Z M194 0 L194 542 L52 542 L52 0 L194 0 Z " />
<glyph glyph-name="j" unicode="j" horiz-adv-x="255" d="M130 614 C174 614 211 651 211 697 C211 741 174 778 130 778 C84 778 48 741 48 697 C48 651 84 614 130 614 L130 614 Z M39 -225 C144 -225 201 -168 201 -63 L201 542 L59 542 L59 -63 C59 -82 44 -96 26 -96 L-18 -96 L-18 -225 L39 -225 Z " />
<glyph glyph-name="k" unicode="k" horiz-adv-x="590" d="M538 505 L538 542 L382 542 L200 349 L195 349 L195 767 L53 767 L53 0 L195 0 L195 159 L278 243 L285 243 L425 0 L573 0 L573 29 L381 347 L538 505 Z " />
<glyph glyph-name="l" unicode="l" horiz-adv-x="290" d="M268 0 L268 129 L224 129 C205 129 191 143 191 162 L191 767 L49 767 L49 162 C49 57 105 0 211 0 L268 0 Z " />
<glyph glyph-name="m" unicode="m" horiz-adv-x="909" d="M195 0 L195 315 C195 347 201 371 214 390 C230 413 256 426 291 426 C351 426 387 388 387 315 L387 0 L528 0 L528 315 C528 339 533 366 543 384 C561 414 590 426 624 426 C685 426 720 387 720 313 L720 0 L862 0 L862 325 C862 461 802 554 659 554 C597 554 550 536 501 484 L489 484 C460 527 412 554 342 554 C279 554 236 531 205 504 L195 504 L177 542 L53 542 L53 0 L195 0 Z " />
<glyph glyph-name="n" unicode="n" horiz-adv-x="598" d="M195 0 L195 282 C195 330 201 360 215 383 C232 411 261 426 301 426 C376 426 408 377 408 292 L408 0 L550 0 L550 327 C550 471 468 554 347 554 C286 554 238 532 205 504 L195 504 L177 542 L53 542 L53 0 L195 0 Z " />
<glyph glyph-name="o" unicode="o" horiz-adv-x="614" d="M307 -12 C466 -12 581 95 581 271 C581 447 466 554 307 554 C147 554 32 447 32 271 C32 95 147 -12 307 -12 L307 -12 Z M307 110 C224 110 174 171 174 271 C174 371 224 432 307 432 C389 432 440 371 440 271 C440 171 389 110 307 110 L307 110 Z " />
<glyph glyph-name="p" unicode="p" horiz-adv-x="607" d="M336 554 C284 554 237 541 202 513 L194 513 L180 542 L53 542 L53 -225 L194 -225 L194 29 L202 29 C237 1 284 -12 336 -12 C480 -12 574 102 574 271 C574 440 480 554 336 554 L336 554 Z M308 432 C387 432 432 372 432 271 C432 170 387 110 308 110 C229 110 183 169 183 271 C183 373 229 432 308 432 L308 432 Z " />
<glyph glyph-name="q" unicode="q" horiz-adv-x="607" d="M271 554 C127 554 33 440 33 271 C33 102 127 -12 271 -12 C323 -12 370 1 405 29 L413 29 L413 -225 L554 -225 L554 542 L427 542 L413 513 L405 513 C370 541 323 554 271 554 L271 554 Z M299 432 C378 432 424 373 424 271 C424 169 378 110 299 110 C220 110 175 170 175 271 C175 372 220 432 299 432 L299 432 Z " />
<glyph glyph-name="r" unicode="r" horiz-adv-x="376" d="M195 0 L195 355 C195 390 217 413 252 413 L360 413 L360 542 L277 542 C246 542 222 531 205 504 L195 504 L177 542 L53 542 L53 0 L195 0 Z " />
<glyph glyph-name="s" unicode="s" horiz-adv-x="542" d="M280 -12 C419 -12 508 60 508 171 C508 263 444 320 339 339 L284 349 C218 361 187 365 187 396 C187 427 222 443 262 443 C307 443 346 424 356 378 L498 378 C485 480 397 554 262 554 C143 554 46 496 46 386 C46 260 174 231 215 224 L300 209 C324 205 367 198 367 155 C367 118 337 99 282 99 C219 99 181 122 174 181 L32 181 C33 57 136 -12 280 -12 L280 -12 Z " />
<glyph glyph-name="t" unicode="t" horiz-adv-x="379" d="M346 542 L246 542 L246 767 L105 767 L105 542 L18 542 L18 413 L105 413 L105 162 C105 57 161 0 267 0 L346 0 L346 129 L280 129 C261 129 246 143 246 162 L246 413 L346 413 L346 542 Z " />
<glyph glyph-name="u" unicode="u" horiz-adv-x="597" d="M249 -12 C312 -12 358 11 391 38 L401 38 L419 0 L543 0 L543 542 L401 542 L401 260 C401 214 396 184 380 158 C362 129 332 116 294 116 C220 116 188 165 188 250 L188 542 L46 542 L46 215 C46 71 128 -12 249 -12 L249 -12 Z " />
<glyph glyph-name="v" unicode="v" horiz-adv-x="601" d="M409 0 L589 542 L438 542 L305 122 L295 122 L162 542 L11 542 L192 0 L409 0 Z " />
<glyph glyph-name="w" unicode="w" horiz-adv-x="942" d="M411 0 L466 413 L476 413 L531 0 L750 0 L930 542 L779 542 L646 122 L636 122 L581 542 L360 542 L305 122 L295 122 L162 542 L11 542 L192 0 L411 0 Z " />
<glyph glyph-name="x" unicode="x" horiz-adv-x="581" d="M185 0 L285 159 L295 159 L395 0 L567 0 L382 273 L567 542 L395 542 L295 387 L285 387 L185 542 L13 542 L197 273 L13 0 L185 0 Z " />
<glyph glyph-name="y" unicode="y" horiz-adv-x="601" d="M305 122 L295 122 L162 542 L11 542 L192 0 L265 0 L245 -56 C237 -78 216 -95 189 -95 L74 -95 L74 -224 L224 -224 C286 -224 339 -188 361 -129 L409 0 L589 542 L438 542 L305 122 Z " />
<glyph glyph-name="z" unicode="z" horiz-adv-x="540" d="M504 0 L504 129 L197 129 L197 140 L492 349 L492 542 L49 542 L49 413 L333 413 L333 402 L39 193 L39 0 L504 0 Z " />
<glyph glyph-name="braceleft" unicode="&#x7b;" horiz-adv-x="285" d="M281 -84 L281 1 L241 1 C199 1 187 32 187 71 L187 233 C187 308 156 339 110 360 L110 371 C156 391 187 423 187 498 L187 660 C187 699 199 730 241 730 L281 730 L281 816 L196 816 C118 816 75 758 75 662 L75 500 C75 433 36 421 3 409 L3 322 C36 310 75 298 75 231 L75 69 C75 -24 115 -84 196 -84 L281 -84 Z " />
<glyph glyph-name="bar" unicode="&#x7c;" horiz-adv-x="346" d="M222 -278 L222 832 L124 832 L124 -278 L222 -278 Z " />
<glyph glyph-name="braceright" unicode="&#x7d;" horiz-adv-x="285" d="M89 -84 C170 -84 210 -24 210 69 L210 231 C210 298 249 310 282 322 L282 409 C249 421 210 433 210 500 L210 662 C210 758 167 816 89 816 L4 816 L4 730 L44 730 C86 730 98 699 98 660 L98 498 C98 423 129 391 175 371 L175 360 C129 339 98 308 98 233 L98 71 C98 32 86 1 44 1 L4 1 L4 -84 L89 -84 Z " />
<glyph glyph-name="asciitilde" unicode="&#x7e;" horiz-adv-x="527" d="M359 164 C450 164 510 244 510 358 L410 358 C410 297 389 253 359 253 C291 253 300 377 166 377 C76 377 17 304 17 195 L117 195 C117 252 135 288 166 288 C239 288 228 164 359 164 L359 164 Z " />
<glyph glyph-name="uni00A0" unicode="&#xa0;" horiz-adv-x="306" d="" />
<glyph glyph-name="exclamdown" unicode="&#xa1;" horiz-adv-x="320" d="M165 554 C110 554 68 511 68 459 C68 410 110 368 165 368 C217 368 260 410 260 459 C260 511 218 554 165 554 L165 554 Z M89 -225 L239 -225 L239 313 L89 313 L89 -225 Z " />
<glyph glyph-name="cent" unicode="&#xa2;" horiz-adv-x="590" d="M327 437 C374 430 408 404 423 361 L563 361 C537 475 446 546 327 553 L327 642 L271 642 L271 552 C130 538 32 434 32 271 C32 107 130 4 271 -10 L271 -101 L327 -101 L327 -11 C446 -4 537 66 563 181 L423 181 C408 138 374 111 327 105 L327 437 Z M166 271 C166 362 205 420 271 434 L271 107 C205 122 166 179 166 271 L166 271 Z " />
<glyph glyph-name="sterling" unicode="&#xa3;" horiz-adv-x="643" d="M260 137 C288 179 298 231 298 286 C298 296 298 306 297 315 L467 315 L467 443 L269 443 C258 476 248 507 248 543 C248 624 286 651 349 651 C432 651 462 603 473 553 L606 553 C606 674 510 779 357 779 C213 779 120 688 120 556 C120 520 129 481 139 443 L47 443 L47 315 L171 315 C172 305 173 295 173 285 C173 206 120 167 45 126 L45 0 L580 0 L580 128 L260 128 L260 137 Z " />
<glyph glyph-name="currency" unicode="&#xa4;" horiz-adv-x="743" d="M227 129 C313 70 429 70 513 129 L572 70 L642 143 L584 199 C643 284 643 400 584 486 L642 542 L571 612 L513 556 C429 614 314 613 229 554 L171 613 L101 540 L157 484 C100 400 99 284 157 200 L100 143 L170 70 L227 129 Z M257 231 C197 291 199 391 259 452 C321 514 420 514 482 453 C544 392 543 293 482 231 C420 168 321 168 257 231 L257 231 Z " />
<glyph glyph-name="yen" unicode="&#xa5;" horiz-adv-x="699" d="M538 767 L354 452 L344 452 L160 767 L2 767 L2 739 L206 400 L102 400 L102 293 L270 293 L274 286 L274 221 L102 221 L102 114 L274 114 L274 0 L424 0 L424 114 L585 114 L585 221 L424 221 L424 286 L428 293 L585 293 L585 400 L492 400 L696 739 L696 767 L538 767 Z " />
<glyph glyph-name="brokenbar" unicode="&#xa6;" horiz-adv-x="275" d="M187 354 L187 832 L88 832 L88 354 L187 354 Z M187 -278 L187 201 L88 201 L88 -278 L187 -278 Z " />
<glyph glyph-name="section" unicode="&#xa7;" horiz-adv-x="662" d="M582 226 C582 474 217 423 217 572 C217 622 259 656 315 656 C372 656 425 622 425 539 L563 539 C560 706 440 778 315 778 C189 778 79 703 79 567 C79 523 91 489 109 462 C90 428 79 387 79 341 C79 92 444 143 444 -6 C444 -56 402 -89 345 -89 C289 -89 235 -56 235 28 L98 28 C101 -139 221 -211 345 -211 C472 -211 582 -137 582 0 C582 44 570 78 552 105 C571 139 582 180 582 226 L582 226 Z M217 352 C217 362 218 371 221 380 C323 334 444 315 444 214 C444 205 443 196 441 187 C338 233 217 252 217 352 L217 352 Z " />
<glyph glyph-name="dieresis" unicode="&#xa8;" horiz-adv-x="446" d="M115 614 C159 614 196 651 196 697 C196 741 159 778 115 778 C69 778 33 741 33 697 C33 651 69 614 115 614 L115 614 Z M332 614 C376 614 413 651 413 697 C413 741 376 778 332 778 C286 778 249 741 249 697 C249 651 286 614 332 614 L332 614 Z " />
<glyph glyph-name="copyright" unicode="&#xa9;" horiz-adv-x="908" d="M454 -16 C682 -16 867 152 867 383 C867 614 682 782 454 782 C226 782 41 614 41 383 C41 152 226 -16 454 -16 L454 -16 Z M455 68 C272 68 124 199 124 383 C124 568 272 699 455 699 C638 699 785 568 785 383 C785 199 638 68 455 68 L455 68 Z M461 133 C580 133 666 203 682 318 L585 318 C573 254 524 218 461 218 C377 218 322 279 322 383 C322 488 377 549 461 549 C524 549 573 513 585 449 L682 449 C665 566 578 634 461 634 C324 634 227 540 227 383 C227 227 324 133 461 133 L461 133 Z " />
<glyph glyph-name="ordfeminine" unicode="&#xaa;" horiz-adv-x="335" d="M287 722 C266 764 218 779 166 779 C74 779 34 733 29 675 L110 675 C113 696 128 715 165 715 C203 715 220 695 220 664 L220 648 L149 648 C74 648 19 619 19 546 C19 480 66 441 134 441 C166 441 191 450 214 472 L220 472 L232 447 L300 447 L300 638 C300 664 300 696 287 722 L287 722 Z M146 507 C118 507 100 522 100 547 C100 579 124 588 160 588 L220 588 C217 539 199 507 146 507 L146 507 Z " />
<glyph glyph-name="guillemotleft" unicode="&#xab;" horiz-adv-x="594" d="M295 193 L197 271 L295 350 L295 464 L63 271 L295 78 L295 193 Z M530 193 L433 271 L530 350 L530 464 L298 271 L530 78 L530 193 Z " />
<glyph glyph-name="logicalnot" unicode="&#xac;" horiz-adv-x="548" d="M531 47 L531 321 L17 321 L17 221 L431 221 L431 47 L531 47 Z " />
<glyph glyph-name="uni00AD" unicode="&#xad;" horiz-adv-x="425" d="M372 221 L372 321 L55 321 L55 221 L372 221 Z " />
<glyph glyph-name="registered" unicode="&#xae;" horiz-adv-x="573" d="M286 266 C427 266 542 370 542 521 C542 673 427 777 286 777 C145 777 31 673 31 521 C31 370 145 266 286 266 L286 266 Z M286 320 C175 320 84 400 84 521 C84 643 175 723 286 723 C397 723 487 643 487 521 C487 400 397 320 286 320 L286 320 Z M253 377 L253 499 L269 499 L284 499 L354 377 L418 377 L339 505 C372 518 394 546 394 581 C394 632 352 667 292 667 L198 667 L198 377 L253 377 Z M253 617 L292 617 C321 617 338 603 338 579 C338 560 323 546 297 545 L253 545 L253 617 Z " />
<glyph glyph-name="macron" unicode="&#xaf;" horiz-adv-x="411" d="M357 622 L357 700 L54 700 L54 622 L357 622 Z " />
<glyph glyph-name="degree" unicode="&#xb0;" horiz-adv-x="485" d="M242 460 C330 460 401 531 401 619 C401 707 330 778 242 778 C155 778 83 707 83 619 C83 531 155 460 242 460 L242 460 Z M242 549 C203 549 172 580 172 619 C172 658 203 689 242 689 C282 689 313 658 313 619 C313 580 282 549 242 549 L242 549 Z " />
<glyph glyph-name="plusminus" unicode="&#xb1;" horiz-adv-x="534" d="M317 239 L317 339 L517 339 L517 439 L317 439 L317 539 L217 539 L217 439 L17 439 L17 339 L217 339 L217 239 L317 239 Z M517 103 L517 203 L17 203 L17 103 L517 103 Z " />
<glyph glyph-name="uni00B2" unicode="&#xb2;" horiz-adv-x="376" d="M271 507 C314 551 334 590 334 642 C334 710 280 774 189 774 C109 774 44 710 44 630 L134 630 C134 666 153 694 189 694 C227 694 244 666 244 642 C244 618 240 601 207 567 L44 400 L44 307 L341 307 L341 387 L154 387 L271 507 Z " />
<glyph glyph-name="uni00B3" unicode="&#xb3;" horiz-adv-x="424" d="M209 300 C299 300 380 349 380 443 C380 491 357 537 299 555 L299 558 C341 581 355 613 355 648 C355 727 284 774 207 774 C128 774 60 723 60 637 L150 637 C153 674 173 694 209 694 C246 694 265 675 265 639 C265 594 234 581 197 581 L177 581 L177 515 L209 515 C246 515 290 507 290 450 C290 403 265 380 210 380 C155 380 129 404 128 453 L38 453 C37 351 116 300 209 300 L209 300 Z " />
<glyph glyph-name="acute" unicode="&#xb4;" horiz-adv-x="251" d="M95 610 L262 767 L121 767 L-2 610 L95 610 Z " />
<glyph glyph-name="uni00B5" unicode="&#xb5;" horiz-adv-x="714" d="M231 -178 L231 8 C255 -4 285 -11 321 -11 C374 -11 438 10 481 63 L481 0 L612 0 L612 542 L481 542 L481 246 C481 151 433 111 359 111 C291 111 255 162 255 233 L255 542 L124 542 L124 -178 L231 -178 Z " />
<glyph glyph-name="paragraph" unicode="&#xb6;" horiz-adv-x="715" d="M378 -133 L378 767 L285 767 C159 767 40 688 40 552 C40 417 159 338 285 338 L285 -133 L378 -133 Z M591 -133 L591 767 L498 767 L498 -133 L591 -133 Z " />
<glyph glyph-name="periodcentered" unicode="&#xb7;" horiz-adv-x="257" d="M129 285 C182 285 224 328 224 380 C224 429 181 471 129 471 C74 471 32 429 32 380 C32 328 74 285 129 285 L129 285 Z " />
<glyph glyph-name="cedilla" unicode="&#xb8;" horiz-adv-x="255" d="M118 -238 C182 -238 231 -194 231 -136 C231 -97 208 -66 173 -52 C164 -49 154 -47 143 -46 L188 11 L130 25 L57 -89 C82 -89 107 -90 125 -96 C153 -103 165 -119 165 -137 C165 -156 150 -173 121 -173 C98 -173 69 -163 38 -134 L2 -192 C41 -224 82 -238 118 -238 L118 -238 Z " />
<glyph glyph-name="uni00B9" unicode="&#xb9;" horiz-adv-x="284" d="M136 739 C136 708 123 699 93 699 L26 699 L26 618 L133 618 L133 307 L223 307 L223 767 L136 767 L136 739 Z " />
<glyph glyph-name="ordmasculine" unicode="&#xba;" horiz-adv-x="358" d="M179 435 C274 435 343 499 343 604 C343 710 274 774 179 774 C83 774 15 710 15 604 C15 499 83 435 179 435 L179 435 Z M179 504 C127 504 95 542 95 604 C95 667 127 705 179 705 C230 705 262 667 262 604 C262 542 230 504 179 504 L179 504 Z " />
<glyph glyph-name="guillemotright" unicode="&#xbb;" horiz-adv-x="594" d="M296 271 L64 464 L64 350 L161 271 L64 193 L64 78 L296 271 Z M531 271 L299 464 L299 350 L397 271 L299 193 L299 78 L531 271 Z " />
<glyph glyph-name="onequarter" unicode="&#xbc;" horiz-adv-x="863" d="M251 307 L251 767 L164 767 L164 739 C164 708 151 699 121 699 L54 699 L54 618 L161 618 L161 307 L251 307 Z M152 0 L245 0 L708 767 L614 767 L152 0 Z M744 460 L638 460 L457 187 L457 101 L654 101 L654 0 L744 0 L744 101 L809 101 L809 181 L744 181 L744 460 Z M543 181 L543 186 L649 347 L654 347 L654 181 L543 181 Z " />
<glyph glyph-name="onehalf" unicode="&#xbd;" horiz-adv-x="840" d="M251 307 L251 767 L164 767 L164 739 C164 708 151 699 121 699 L54 699 L54 618 L161 618 L161 307 L251 307 Z M120 0 L213 0 L676 767 L582 767 L120 0 Z M716 200 C759 244 779 283 779 335 C779 403 725 467 634 467 C554 467 489 403 489 323 L579 323 C579 359 598 387 634 387 C672 387 689 359 689 335 C689 311 685 294 652 260 L489 93 L489 0 L786 0 L786 80 L599 80 L716 200 Z " />
<glyph glyph-name="threequarters" unicode="&#xbe;" horiz-adv-x="963" d="M225 300 C315 300 396 349 396 443 C396 491 373 537 315 555 L315 558 C357 581 371 613 371 648 C371 727 300 774 223 774 C144 774 76 723 76 637 L166 637 C169 674 189 694 225 694 C262 694 281 675 281 639 C281 594 250 581 213 581 L193 581 L193 515 L225 515 C262 515 306 507 306 450 C306 403 281 380 226 380 C171 380 145 404 144 453 L54 453 C53 351 132 300 225 300 L225 300 Z M808 767 L714 767 L252 0 L345 0 L808 767 Z M844 101 L909 101 L909 181 L844 181 L844 460 L738 460 L557 187 L557 101 L754 101 L754 0 L844 0 L844 101 Z M749 347 L754 347 L754 181 L643 181 L643 186 L749 347 Z " />
<glyph glyph-name="questiondown" unicode="&#xbf;" horiz-adv-x="413" d="M260 554 C207 554 165 511 165 459 C165 410 208 368 260 368 C315 368 357 410 357 459 C357 511 315 554 260 554 L260 554 Z M185 313 L185 270 C185 121 3 156 3 -27 C3 -100 35 -156 87 -189 C125 -213 167 -225 243 -225 L382 -225 L382 -91 L261 -91 C221 -91 194 -87 177 -75 C161 -64 153 -48 153 -23 C153 91 335 54 335 269 L335 313 L185 313 Z " />
<glyph glyph-name="Agrave" unicode="&#xc0;" horiz-adv-x="757" d="M313 992 L172 992 L328 835 L428 835 L313 992 Z M279 767 L7 28 L7 0 L157 0 L214 160 L542 160 L599 0 L749 0 L749 28 L477 767 L279 767 Z M373 611 L383 611 L495 294 L261 294 L373 611 Z " />
<glyph glyph-name="Aacute" unicode="&#xc1;" horiz-adv-x="757" d="M452 992 L329 835 L426 835 L593 992 L452 992 Z M279 767 L7 28 L7 0 L157 0 L214 160 L542 160 L599 0 L749 0 L749 28 L477 767 L279 767 Z M373 611 L383 611 L495 294 L261 294 L373 611 Z " />
<glyph glyph-name="Acircumflex" unicode="&#xc2;" horiz-adv-x="757" d="M436 835 L550 835 L433 992 L322 992 L206 835 L320 835 L377 922 L436 835 Z M279 767 L7 28 L7 0 L157 0 L214 160 L542 160 L599 0 L749 0 L749 28 L477 767 L279 767 Z M373 611 L383 611 L495 294 L261 294 L373 611 Z " />
<glyph glyph-name="Atilde" unicode="&#xc3;" horiz-adv-x="757" d="M306 914 C346 914 362 836 447 836 C517 836 561 892 561 992 L482 992 C482 944 467 918 448 918 C411 918 387 995 311 995 C240 995 195 939 195 839 L271 839 C271 887 284 914 306 914 L306 914 Z M279 767 L7 28 L7 0 L157 0 L214 160 L542 160 L599 0 L749 0 L749 28 L477 767 L279 767 Z M373 611 L383 611 L495 294 L261 294 L373 611 Z " />
<glyph glyph-name="Adieresis" unicode="&#xc4;" horiz-adv-x="757" d="M270 827 C314 827 351 864 351 909 C351 954 314 991 270 991 C224 991 188 954 188 909 C188 864 224 827 270 827 L270 827 Z M487 827 C531 827 568 864 568 909 C568 954 531 991 487 991 C441 991 404 954 404 909 C404 864 441 827 487 827 L487 827 Z M279 767 L7 28 L7 0 L157 0 L214 160 L542 160 L599 0 L749 0 L749 28 L477 767 L279 767 Z M373 611 L383 611 L495 294 L261 294 L373 611 Z " />
<glyph glyph-name="Aring" unicode="&#xc5;" horiz-adv-x="757" d="M482 752 C495 772 503 796 503 822 C503 892 445 946 377 946 C308 946 253 890 253 822 C253 797 261 773 274 752 L7 28 L7 0 L157 0 L214 160 L542 160 L599 0 L749 0 L749 28 L482 752 Z M377 875 C411 875 431 853 431 823 C431 790 409 767 377 767 C347 767 324 790 324 823 C324 853 345 875 377 875 L377 875 Z M373 611 L383 611 L495 294 L261 294 L373 611 Z " />
<glyph glyph-name="AE" unicode="&#xc6;" horiz-adv-x="1017" d="M620 327 L937 327 L937 461 L620 461 L620 633 L960 633 L960 767 L280 767 L7 28 L7 0 L161 0 L217 160 L470 160 L470 0 L982 0 L982 134 L620 134 L620 327 Z M381 633 L470 633 L470 295 L264 295 L381 633 Z " />
<glyph glyph-name="Ccedilla" unicode="&#xc7;" horiz-adv-x="782" d="M402 122 C270 122 182 227 182 384 C182 541 270 645 402 645 C502 645 577 585 599 487 L754 487 C725 666 590 779 402 779 C180 779 32 621 32 384 C32 163 160 11 356 -10 L305 -89 C330 -89 355 -90 373 -96 C401 -103 413 -119 413 -137 C413 -156 398 -173 369 -173 C346 -173 317 -163 286 -134 L250 -192 C289 -224 330 -238 366 -238 C430 -238 479 -194 479 -136 C479 -97 456 -66 421 -52 C412 -49 402 -47 391 -46 L418 -12 C598 -5 726 106 754 280 L599 280 C577 182 502 122 402 122 L402 122 Z " />
<glyph glyph-name="Egrave" unicode="&#xc8;" horiz-adv-x="607" d="M366 835 L251 992 L110 992 L266 835 L366 835 Z M572 0 L572 134 L210 134 L210 327 L527 327 L527 461 L210 461 L210 633 L550 633 L550 767 L60 767 L60 0 L572 0 Z " />
<glyph glyph-name="Eacute" unicode="&#xc9;" horiz-adv-x="607" d="M364 835 L531 992 L390 992 L267 835 L364 835 Z M572 0 L572 134 L210 134 L210 327 L527 327 L527 461 L210 461 L210 633 L550 633 L550 767 L60 767 L60 0 L572 0 Z " />
<glyph glyph-name="Ecircumflex" unicode="&#xca;" horiz-adv-x="607" d="M374 835 L488 835 L371 992 L260 992 L144 835 L258 835 L315 922 L374 835 Z M210 327 L527 327 L527 461 L210 461 L210 633 L550 633 L550 767 L60 767 L60 0 L572 0 L572 134 L210 134 L210 327 Z " />
<glyph glyph-name="Edieresis" unicode="&#xcb;" horiz-adv-x="607" d="M208 827 C252 827 289 864 289 909 C289 954 252 991 208 991 C162 991 126 954 126 909 C126 864 162 827 208 827 L208 827 Z M425 827 C469 827 506 864 506 909 C506 954 469 991 425 991 C379 991 342 954 342 909 C342 864 379 827 425 827 L425 827 Z M572 0 L572 134 L210 134 L210 327 L527 327 L527 461 L210 461 L210 633 L550 633 L550 767 L60 767 L60 0 L572 0 Z " />
<glyph glyph-name="Igrave" unicode="&#xcc;" horiz-adv-x="270" d="M185 835 L70 992 L-71 992 L85 835 L185 835 Z M210 0 L210 767 L60 767 L60 0 L210 0 Z " />
<glyph glyph-name="Iacute" unicode="&#xcd;" horiz-adv-x="270" d="M183 835 L350 992 L209 992 L86 835 L183 835 Z M210 0 L210 767 L60 767 L60 0 L210 0 Z " />
<glyph glyph-name="Icircumflex" unicode="&#xce;" horiz-adv-x="270" d="M193 835 L307 835 L190 992 L79 992 L-37 835 L77 835 L134 922 L193 835 Z M210 0 L210 767 L60 767 L60 0 L210 0 Z " />
<glyph glyph-name="Idieresis" unicode="&#xcf;" horiz-adv-x="270" d="M27 827 C71 827 108 864 108 909 C108 954 71 991 27 991 C-19 991 -55 954 -55 909 C-55 864 -19 827 27 827 L27 827 Z M244 827 C288 827 325 864 325 909 C325 954 288 991 244 991 C198 991 161 954 161 909 C161 864 198 827 244 827 L244 827 Z M210 0 L210 767 L60 767 L60 0 L210 0 Z " />
<glyph glyph-name="Eth" unicode="&#xd0;" horiz-adv-x="747" d="M586 686 C509 744 404 767 291 767 L59 767 L59 434 L11 434 L11 334 L59 334 L59 0 L291 0 C404 0 509 23 586 81 C665 141 715 239 715 384 C715 528 665 626 586 686 L586 686 Z M494 195 C440 147 363 134 289 134 L209 134 L209 334 L333 334 L333 434 L209 434 L209 633 L289 633 C363 633 440 620 494 572 C537 534 565 473 565 384 C565 294 537 233 494 195 L494 195 Z " />
<glyph glyph-name="Ntilde" unicode="&#xd1;" horiz-adv-x="804" d="M471 836 C541 836 585 892 585 992 L506 992 C506 944 491 918 472 918 C435 918 411 995 335 995 C264 995 219 939 219 839 L295 839 C295 887 308 914 330 914 C370 914 386 836 471 836 L471 836 Z M210 0 L210 633 L221 633 L486 0 L743 0 L743 767 L593 767 L593 133 L582 133 L317 767 L60 767 L60 0 L210 0 Z " />
<glyph glyph-name="Ograve" unicode="&#xd2;" horiz-adv-x="805" d="M452 835 L337 992 L196 992 L352 835 L452 835 Z M402 -12 C624 -12 772 146 772 384 C772 621 624 779 402 779 C180 779 32 621 32 384 C32 146 180 -12 402 -12 L402 -12 Z M402 122 C270 122 182 227 182 384 C182 541 270 645 402 645 C534 645 622 541 622 384 C622 227 534 122 402 122 L402 122 Z " />
<glyph glyph-name="Oacute" unicode="&#xd3;" horiz-adv-x="805" d="M450 835 L617 992 L476 992 L353 835 L450 835 Z M402 -12 C624 -12 772 146 772 384 C772 621 624 779 402 779 C180 779 32 621 32 384 C32 146 180 -12 402 -12 L402 -12 Z M402 122 C270 122 182 227 182 384 C182 541 270 645 402 645 C534 645 622 541 622 384 C622 227 534 122 402 122 L402 122 Z " />
<glyph glyph-name="Ocircumflex" unicode="&#xd4;" horiz-adv-x="805" d="M460 835 L574 835 L457 992 L346 992 L230 835 L344 835 L401 922 L460 835 Z M402 779 C180 779 32 621 32 384 C32 146 180 -12 402 -12 C624 -12 772 146 772 384 C772 621 624 779 402 779 L402 779 Z M402 122 C270 122 182 227 182 384 C182 541 270 645 402 645 C534 645 622 541 622 384 C622 227 534 122 402 122 L402 122 Z " />
<glyph glyph-name="Otilde" unicode="&#xd5;" horiz-adv-x="805" d="M471 836 C541 836 585 892 585 992 L506 992 C506 944 491 918 472 918 C435 918 411 995 335 995 C264 995 219 939 219 839 L295 839 C295 887 308 914 330 914 C370 914 386 836 471 836 L471 836 Z M402 -12 C624 -12 772 146 772 384 C772 621 624 779 402 779 C180 779 32 621 32 384 C32 146 180 -12 402 -12 L402 -12 Z M402 122 C270 122 182 227 182 384 C182 541 270 645 402 645 C534 645 622 541 622 384 C622 227 534 122 402 122 L402 122 Z " />
<glyph glyph-name="Odieresis" unicode="&#xd6;" horiz-adv-x="805" d="M294 827 C338 827 375 864 375 909 C375 954 338 991 294 991 C248 991 212 954 212 909 C212 864 248 827 294 827 L294 827 Z M511 827 C555 827 592 864 592 909 C592 954 555 991 511 991 C465 991 428 954 428 909 C428 864 465 827 511 827 L511 827 Z M402 -12 C624 -12 772 146 772 384 C772 621 624 779 402 779 C180 779 32 621 32 384 C32 146 180 -12 402 -12 L402 -12 Z M402 122 C270 122 182 227 182 384 C182 541 270 645 402 645 C534 645 622 541 622 384 C622 227 534 122 402 122 L402 122 Z " />
<glyph glyph-name="multiply" unicode="&#xd7;" horiz-adv-x="459" d="M229 200 L371 59 L442 129 L300 271 L442 412 L371 483 L229 342 L88 483 L17 412 L159 271 L17 129 L88 59 L229 200 Z " />
<glyph glyph-name="Oslash" unicode="&#xd8;" horiz-adv-x="805" d="M680 744 L592 798 L561 747 C514 768 461 779 402 779 C180 779 32 621 32 384 C32 253 77 145 155 76 L123 23 L211 -30 L241 20 C289 -1 343 -12 402 -12 C624 -12 772 146 772 384 C772 515 727 622 648 692 L680 744 Z M182 384 C182 541 270 645 402 645 C434 645 463 639 489 628 L234 206 C201 251 182 312 182 384 L182 384 Z M402 122 C370 122 340 128 314 140 L570 563 C603 518 622 456 622 384 C622 227 534 122 402 122 L402 122 Z " />
<glyph glyph-name="Ugrave" unicode="&#xd9;" horiz-adv-x="701" d="M400 835 L285 992 L144 992 L300 835 L400 835 Z M350 -12 C559 -12 647 88 647 254 L647 767 L497 767 L497 264 C497 188 474 122 350 122 C228 122 203 185 203 264 L203 767 L53 767 L53 254 C53 90 138 -12 350 -12 L350 -12 Z " />
<glyph glyph-name="Uacute" unicode="&#xda;" horiz-adv-x="701" d="M398 835 L565 992 L424 992 L301 835 L398 835 Z M350 -12 C559 -12 647 88 647 254 L647 767 L497 767 L497 264 C497 188 474 122 350 122 C228 122 203 185 203 264 L203 767 L53 767 L53 254 C53 90 138 -12 350 -12 L350 -12 Z " />
<glyph glyph-name="Ucircumflex" unicode="&#xdb;" horiz-adv-x="701" d="M408 835 L522 835 L405 992 L294 992 L178 835 L292 835 L349 922 L408 835 Z M497 264 C497 188 474 122 350 122 C228 122 203 185 203 264 L203 767 L53 767 L53 254 C53 90 138 -12 350 -12 C559 -12 647 88 647 254 L647 767 L497 767 L497 264 Z " />
<glyph glyph-name="Udieresis" unicode="&#xdc;" horiz-adv-x="701" d="M242 827 C286 827 323 864 323 909 C323 954 286 991 242 991 C196 991 160 954 160 909 C160 864 196 827 242 827 L242 827 Z M459 827 C503 827 540 864 540 909 C540 954 503 991 459 991 C413 991 376 954 376 909 C376 864 413 827 459 827 L459 827 Z M350 -12 C559 -12 647 88 647 254 L647 767 L497 767 L497 264 C497 188 474 122 350 122 C228 122 203 185 203 264 L203 767 L53 767 L53 254 C53 90 138 -12 350 -12 L350 -12 Z " />
<glyph glyph-name="Yacute" unicode="&#xdd;" horiz-adv-x="699" d="M397 835 L564 992 L423 992 L300 835 L397 835 Z M424 0 L424 286 L696 739 L696 767 L538 767 L354 452 L344 452 L160 767 L2 767 L2 739 L274 286 L274 0 L424 0 Z " />
<glyph glyph-name="Thorn" unicode="&#xde;" horiz-adv-x="634" d="M242 0 L242 211 L355 211 C429 211 487 219 530 249 C586 287 614 352 614 438 C614 523 586 588 530 626 C487 656 429 664 355 664 L242 664 L242 767 L92 767 L92 0 L242 0 Z M242 530 L330 530 C387 530 418 528 438 510 C450 499 464 484 464 438 C464 391 450 376 438 365 C418 347 387 345 330 345 L242 345 L242 530 Z " />
<glyph glyph-name="germandbls" unicode="&#xdf;" horiz-adv-x="759" d="M524 349 C459 361 428 365 428 396 C428 427 462 443 503 443 L663 443 L663 515 C663 665 583 779 379 779 C110 779 71 613 71 483 L71 0 L213 0 L213 483 C213 572 242 651 380 651 C462 651 506 618 517 554 L503 554 C383 554 286 496 286 386 C286 260 414 231 455 224 L540 209 C564 205 607 199 607 155 C607 118 578 99 522 99 C457 99 420 123 414 185 L272 185 C271 60 373 -12 520 -12 C659 -12 749 60 749 171 C749 263 684 320 579 339 L524 349 Z " />
<glyph glyph-name="agrave" unicode="&#xe0;" horiz-adv-x="554" d="M212 767 L71 767 L227 610 L327 610 L212 767 Z M483 459 C449 527 370 553 281 553 C126 553 58 475 51 378 L194 378 C197 409 221 442 279 442 C339 442 365 409 365 362 L365 336 L253 336 C128 336 34 288 34 166 C34 54 113 -11 227 -11 C280 -11 318 4 354 35 L364 35 L381 0 L505 0 L505 316 C505 356 506 413 483 459 L483 459 Z M247 105 C204 105 177 128 177 167 C177 221 220 231 272 231 L364 231 C360 156 332 105 247 105 L247 105 Z " />
<glyph glyph-name="aacute" unicode="&#xe1;" horiz-adv-x="554" d="M351 767 L228 610 L325 610 L492 767 L351 767 Z M483 459 C449 527 370 553 281 553 C126 553 58 475 51 378 L194 378 C197 409 221 442 279 442 C339 442 365 409 365 362 L365 336 L253 336 C128 336 34 288 34 166 C34 54 113 -11 227 -11 C280 -11 318 4 354 35 L364 35 L381 0 L505 0 L505 316 C505 356 506 413 483 459 L483 459 Z M247 105 C204 105 177 128 177 167 C177 221 220 231 272 231 L364 231 C360 156 332 105 247 105 L247 105 Z " />
<glyph glyph-name="acircumflex" unicode="&#xe2;" horiz-adv-x="554" d="M335 610 L449 610 L332 767 L221 767 L105 610 L219 610 L276 697 L335 610 Z M483 459 C449 527 370 553 281 553 C126 553 58 475 51 378 L194 378 C197 409 221 442 279 442 C339 442 365 409 365 362 L365 336 L253 336 C128 336 34 288 34 166 C34 54 113 -11 227 -11 C280 -11 318 4 354 35 L364 35 L381 0 L505 0 L505 316 C505 356 506 413 483 459 L483 459 Z M247 105 C204 105 177 128 177 167 C177 221 220 231 272 231 L364 231 C360 156 332 105 247 105 L247 105 Z " />
<glyph glyph-name="atilde" unicode="&#xe3;" horiz-adv-x="554" d="M205 689 C245 689 261 611 346 611 C416 611 460 667 460 767 L381 767 C381 719 366 693 347 693 C310 693 286 770 210 770 C139 770 94 714 94 614 L170 614 C170 662 183 689 205 689 L205 689 Z M483 459 C449 527 370 553 281 553 C126 553 58 475 51 378 L194 378 C197 409 221 442 279 442 C339 442 365 409 365 362 L365 336 L253 336 C128 336 34 288 34 166 C34 54 113 -11 227 -11 C280 -11 318 4 354 35 L364 35 L381 0 L505 0 L505 316 C505 356 506 413 483 459 L483 459 Z M247 105 C204 105 177 128 177 167 C177 221 220 231 272 231 L364 231 C360 156 332 105 247 105 L247 105 Z " />
<glyph glyph-name="adieresis" unicode="&#xe4;" horiz-adv-x="554" d="M169 614 C213 614 250 651 250 697 C250 741 213 778 169 778 C123 778 87 741 87 697 C87 651 123 614 169 614 L169 614 Z M386 614 C430 614 467 651 467 697 C467 741 430 778 386 778 C340 778 303 741 303 697 C303 651 340 614 386 614 L386 614 Z M483 459 C449 527 370 553 281 553 C126 553 58 475 51 378 L194 378 C197 409 221 442 279 442 C339 442 365 409 365 362 L365 336 L253 336 C128 336 34 288 34 166 C34 54 113 -11 227 -11 C280 -11 318 4 354 35 L364 35 L381 0 L505 0 L505 316 C505 356 506 413 483 459 L483 459 Z M247 105 C204 105 177 128 177 167 C177 221 220 231 272 231 L364 231 C360 156 332 105 247 105 L247 105 Z " />
<glyph glyph-name="aring" unicode="&#xe5;" horiz-adv-x="554" d="M276 580 C346 580 402 636 402 706 C402 776 344 830 276 830 C207 830 152 774 152 706 C152 638 206 580 276 580 L276 580 Z M276 759 C310 759 330 737 330 707 C330 674 308 651 276 651 C246 651 223 674 223 707 C223 737 244 759 276 759 L276 759 Z M483 459 C449 527 370 553 281 553 C126 553 58 475 51 378 L194 378 C197 409 221 442 279 442 C339 442 365 409 365 362 L365 336 L253 336 C128 336 34 288 34 166 C34 54 113 -11 227 -11 C280 -11 318 4 354 35 L364 35 L381 0 L505 0 L505 316 C505 356 506 413 483 459 L483 459 Z M247 105 C204 105 177 128 177 167 C177 221 220 231 272 231 L364 231 C360 156 332 105 247 105 L247 105 Z " />
<glyph glyph-name="ae" unicode="&#xe6;" horiz-adv-x="958" d="M653 554 C577 554 511 530 462 485 C422 535 354 553 279 553 C126 553 58 476 51 379 L186 379 C190 414 216 447 277 447 C341 447 369 413 369 362 L369 334 L250 334 C126 334 34 286 34 165 C34 54 113 -11 236 -11 C318 -11 376 19 414 81 L440 81 C489 21 564 -12 653 -12 C775 -12 873 54 911 163 L759 163 C737 132 701 110 653 110 C582 110 535 155 523 231 L926 231 L927 270 C928 442 816 554 653 554 L653 554 Z M653 432 C716 432 759 397 777 336 L528 336 C546 397 590 432 653 432 L653 432 Z M245 99 C198 99 169 124 169 166 C169 220 208 234 268 234 L369 234 C364 153 334 99 245 99 L245 99 Z " />
<glyph glyph-name="ccedilla" unicode="&#xe7;" horiz-adv-x="594" d="M307 110 C224 110 174 168 174 271 C174 373 224 432 307 432 C360 432 402 406 419 361 L567 361 C538 482 436 554 307 554 C147 554 32 447 32 271 C32 108 129 6 269 -10 L218 -89 C243 -89 268 -90 286 -96 C314 -103 326 -119 326 -137 C326 -156 311 -173 282 -173 C259 -173 230 -163 199 -134 L163 -192 C202 -224 243 -238 279 -238 C343 -238 392 -194 392 -136 C392 -97 369 -66 334 -52 C325 -49 315 -47 304 -46 L332 -11 C450 -3 540 67 567 181 L419 181 C402 135 360 110 307 110 L307 110 Z " />
<glyph glyph-name="egrave" unicode="&#xe8;" horiz-adv-x="612" d="M243 767 L102 767 L258 610 L358 610 L243 767 Z M307 554 C147 554 32 447 32 271 C32 95 147 -12 307 -12 C429 -12 527 54 565 163 L413 163 C391 132 355 110 307 110 C236 110 189 155 177 231 L580 231 L581 270 C582 442 470 554 307 554 L307 554 Z M307 432 C370 432 413 397 431 336 L182 336 C200 397 244 432 307 432 L307 432 Z " />
<glyph glyph-name="eacute" unicode="&#xe9;" horiz-adv-x="612" d="M382 767 L259 610 L356 610 L523 767 L382 767 Z M307 554 C147 554 32 447 32 271 C32 95 147 -12 307 -12 C429 -12 527 54 565 163 L413 163 C391 132 355 110 307 110 C236 110 189 155 177 231 L580 231 L581 270 C582 442 470 554 307 554 L307 554 Z M307 432 C370 432 413 397 431 336 L182 336 C200 397 244 432 307 432 L307 432 Z " />
<glyph glyph-name="ecircumflex" unicode="&#xea;" horiz-adv-x="612" d="M366 610 L480 610 L363 767 L252 767 L136 610 L250 610 L307 697 L366 610 Z M307 554 C147 554 32 447 32 271 C32 95 147 -12 307 -12 C429 -12 527 54 565 163 L413 163 C391 132 355 110 307 110 C236 110 189 155 177 231 L580 231 L581 270 C582 442 470 554 307 554 L307 554 Z M307 432 C370 432 413 397 431 336 L182 336 C200 397 244 432 307 432 L307 432 Z " />
<glyph glyph-name="edieresis" unicode="&#xeb;" horiz-adv-x="612" d="M200 614 C244 614 281 651 281 697 C281 741 244 778 200 778 C154 778 118 741 118 697 C118 651 154 614 200 614 L200 614 Z M417 614 C461 614 498 651 498 697 C498 741 461 778 417 778 C371 778 334 741 334 697 C334 651 371 614 417 614 L417 614 Z M307 554 C147 554 32 447 32 271 C32 95 147 -12 307 -12 C429 -12 527 54 565 163 L413 163 C391 132 355 110 307 110 C236 110 189 155 177 231 L580 231 L581 270 C582 442 470 554 307 554 L307 554 Z M307 432 C370 432 413 397 431 336 L182 336 C200 397 244 432 307 432 L307 432 Z " />
<glyph glyph-name="igrave" unicode="&#xec;" horiz-adv-x="247" d="M173 610 L58 767 L-83 767 L73 610 L173 610 Z M194 0 L194 542 L52 542 L52 0 L194 0 Z " />
<glyph glyph-name="iacute" unicode="&#xed;" horiz-adv-x="247" d="M171 610 L338 767 L197 767 L74 610 L171 610 Z M194 0 L194 542 L52 542 L52 0 L194 0 Z " />
<glyph glyph-name="icircumflex" unicode="&#xee;" horiz-adv-x="247" d="M181 610 L295 610 L178 767 L67 767 L-49 610 L65 610 L122 697 L181 610 Z M194 0 L194 542 L52 542 L52 0 L194 0 Z " />
<glyph glyph-name="idieresis" unicode="&#xef;" horiz-adv-x="247" d="M15 614 C59 614 96 651 96 697 C96 741 59 778 15 778 C-31 778 -67 741 -67 697 C-67 651 -31 614 15 614 L15 614 Z M232 614 C276 614 313 651 313 697 C313 741 276 778 232 778 C186 778 149 741 149 697 C149 651 186 614 232 614 L232 614 Z M194 0 L194 542 L52 542 L52 0 L194 0 Z " />
<glyph glyph-name="eth" unicode="&#xf0;" horiz-adv-x="626" d="M450 597 L507 597 L507 697 L386 697 L341 767 L180 767 L180 739 L207 697 L57 697 L57 597 L273 597 L316 531 C156 526 44 412 44 260 C44 102 154 -12 326 -12 C504 -12 610 108 610 252 C610 312 591 378 547 447 L450 597 Z M327 122 C249 122 194 178 194 260 C194 340 249 394 327 394 C405 394 460 340 460 260 C460 178 405 122 327 122 L327 122 Z " />
<glyph glyph-name="ntilde" unicode="&#xf1;" horiz-adv-x="598" d="M368 611 C438 611 482 667 482 767 L403 767 C403 719 388 693 369 693 C332 693 308 770 232 770 C161 770 116 714 116 614 L192 614 C192 662 205 689 227 689 C267 689 283 611 368 611 L368 611 Z M195 0 L195 282 C195 330 201 360 215 383 C232 411 261 426 301 426 C376 426 408 377 408 292 L408 0 L550 0 L550 327 C550 471 468 554 347 554 C286 554 238 532 205 504 L195 504 L177 542 L53 542 L53 0 L195 0 Z " />
<glyph glyph-name="ograve" unicode="&#xf2;" horiz-adv-x="614" d="M357 610 L242 767 L101 767 L257 610 L357 610 Z M307 -12 C466 -12 581 95 581 271 C581 447 466 554 307 554 C147 554 32 447 32 271 C32 95 147 -12 307 -12 L307 -12 Z M307 110 C224 110 174 171 174 271 C174 371 224 432 307 432 C389 432 440 371 440 271 C440 171 389 110 307 110 L307 110 Z " />
<glyph glyph-name="oacute" unicode="&#xf3;" horiz-adv-x="614" d="M355 610 L522 767 L381 767 L258 610 L355 610 Z M307 -12 C466 -12 581 95 581 271 C581 447 466 554 307 554 C147 554 32 447 32 271 C32 95 147 -12 307 -12 L307 -12 Z M307 110 C224 110 174 171 174 271 C174 371 224 432 307 432 C389 432 440 371 440 271 C440 171 389 110 307 110 L307 110 Z " />
<glyph glyph-name="ocircumflex" unicode="&#xf4;" horiz-adv-x="614" d="M365 610 L479 610 L362 767 L251 767 L135 610 L249 610 L306 697 L365 610 Z M307 554 C147 554 32 447 32 271 C32 95 147 -12 307 -12 C466 -12 581 95 581 271 C581 447 466 554 307 554 L307 554 Z M307 110 C224 110 174 171 174 271 C174 371 224 432 307 432 C389 432 440 371 440 271 C440 171 389 110 307 110 L307 110 Z " />
<glyph glyph-name="otilde" unicode="&#xf5;" horiz-adv-x="614" d="M376 611 C446 611 490 667 490 767 L411 767 C411 719 396 693 377 693 C340 693 316 770 240 770 C169 770 124 714 124 614 L200 614 C200 662 213 689 235 689 C275 689 291 611 376 611 L376 611 Z M307 -12 C466 -12 581 95 581 271 C581 447 466 554 307 554 C147 554 32 447 32 271 C32 95 147 -12 307 -12 L307 -12 Z M307 110 C224 110 174 171 174 271 C174 371 224 432 307 432 C389 432 440 371 440 271 C440 171 389 110 307 110 L307 110 Z " />
<glyph glyph-name="odieresis" unicode="&#xf6;" horiz-adv-x="614" d="M199 614 C243 614 280 651 280 697 C280 741 243 778 199 778 C153 778 117 741 117 697 C117 651 153 614 199 614 L199 614 Z M416 614 C460 614 497 651 497 697 C497 741 460 778 416 778 C370 778 333 741 333 697 C333 651 370 614 416 614 L416 614 Z M307 -12 C466 -12 581 95 581 271 C581 447 466 554 307 554 C147 554 32 447 32 271 C32 95 147 -12 307 -12 L307 -12 Z M307 110 C224 110 174 171 174 271 C174 371 224 432 307 432 C389 432 440 371 440 271 C440 171 389 110 307 110 L307 110 Z " />
<glyph glyph-name="divide" unicode="&#xf7;" horiz-adv-x="524" d="M263 381 C312 381 351 420 351 468 C351 513 311 552 263 552 C213 552 174 513 174 468 C174 420 213 381 263 381 L263 381 Z M512 221 L512 321 L12 321 L12 221 L512 221 Z M263 -10 C312 -10 351 29 351 77 C351 122 311 161 263 161 C213 161 174 122 174 77 C174 29 213 -10 263 -10 L263 -10 Z " />
<glyph glyph-name="oslash" unicode="&#xf8;" horiz-adv-x="614" d="M528 548 L450 594 L415 535 C382 548 346 554 307 554 C147 554 32 447 32 271 C32 176 66 101 122 52 L87 -6 L164 -52 L199 6 C232 -6 268 -12 307 -12 C466 -12 581 95 581 271 C581 366 548 440 492 489 L528 548 Z M174 271 C174 371 224 432 307 432 C322 432 336 430 348 426 L196 173 C182 199 174 232 174 271 L174 271 Z M307 110 C292 110 278 112 266 116 L419 368 C432 342 440 309 440 271 C440 171 389 110 307 110 L307 110 Z " />
<glyph glyph-name="ugrave" unicode="&#xf9;" horiz-adv-x="597" d="M344 610 L229 767 L88 767 L244 610 L344 610 Z M249 -12 C312 -12 358 11 391 38 L401 38 L419 0 L543 0 L543 542 L401 542 L401 260 C401 214 396 184 380 158 C362 129 332 116 294 116 C220 116 188 165 188 250 L188 542 L46 542 L46 215 C46 71 128 -12 249 -12 L249 -12 Z " />
<glyph glyph-name="uacute" unicode="&#xfa;" horiz-adv-x="597" d="M342 610 L509 767 L368 767 L245 610 L342 610 Z M249 -12 C312 -12 358 11 391 38 L401 38 L419 0 L543 0 L543 542 L401 542 L401 260 C401 214 396 184 380 158 C362 129 332 116 294 116 C220 116 188 165 188 250 L188 542 L46 542 L46 215 C46 71 128 -12 249 -12 L249 -12 Z " />
<glyph glyph-name="ucircumflex" unicode="&#xfb;" horiz-adv-x="597" d="M352 610 L466 610 L349 767 L238 767 L122 610 L236 610 L293 697 L352 610 Z M401 260 C401 214 396 184 380 158 C362 129 332 116 294 116 C220 116 188 165 188 250 L188 542 L46 542 L46 215 C46 71 128 -12 249 -12 C312 -12 358 11 391 38 L401 38 L419 0 L543 0 L543 542 L401 542 L401 260 Z " />
<glyph glyph-name="udieresis" unicode="&#xfc;" horiz-adv-x="597" d="M186 614 C230 614 267 651 267 697 C267 741 230 778 186 778 C140 778 104 741 104 697 C104 651 140 614 186 614 L186 614 Z M403 614 C447 614 484 651 484 697 C484 741 447 778 403 778 C357 778 320 741 320 697 C320 651 357 614 403 614 L403 614 Z M249 -12 C312 -12 358 11 391 38 L401 38 L419 0 L543 0 L543 542 L401 542 L401 260 C401 214 396 184 380 158 C362 129 332 116 294 116 C220 116 188 165 188 250 L188 542 L46 542 L46 215 C46 71 128 -12 249 -12 L249 -12 Z " />
<glyph glyph-name="yacute" unicode="&#xfd;" horiz-adv-x="601" d="M374 767 L251 610 L348 610 L515 767 L374 767 Z M305 122 L295 122 L162 542 L11 542 L192 0 L265 0 L245 -56 C237 -78 216 -95 189 -95 L74 -95 L74 -224 L224 -224 C286 -224 339 -188 361 -129 L409 0 L589 542 L438 542 L305 122 Z " />
<glyph glyph-name="thorn" unicode="&#xfe;" horiz-adv-x="620" d="M214 -225 L214 29 L222 29 C257 1 302 -12 355 -12 C499 -12 593 101 593 271 C593 441 499 554 355 554 C302 554 257 541 222 513 L214 513 L214 767 L72 767 L72 -225 L214 -225 Z M327 110 C248 110 203 169 203 271 C203 373 248 432 327 432 C407 432 452 372 452 271 C452 170 407 110 327 110 L327 110 Z " />
<glyph glyph-name="ydieresis" unicode="&#xff;" horiz-adv-x="601" d="M192 614 C236 614 273 651 273 697 C273 741 236 778 192 778 C146 778 110 741 110 697 C110 651 146 614 192 614 L192 614 Z M409 614 C453 614 490 651 490 697 C490 741 453 778 409 778 C363 778 326 741 326 697 C326 651 363 614 409 614 L409 614 Z M305 122 L295 122 L162 542 L11 542 L192 0 L265 0 L245 -56 C237 -78 216 -95 189 -95 L74 -95 L74 -224 L224 -224 C286 -224 339 -188 361 -129 L409 0 L589 542 L438 542 L305 122 Z " />
<glyph glyph-name="Amacron" unicode="&#x100;" horiz-adv-x="757" d="M226 925 L226 847 L529 847 L529 925 L226 925 Z M279 767 L7 28 L7 0 L157 0 L214 160 L542 160 L599 0 L749 0 L749 28 L477 767 L279 767 Z M373 611 L383 611 L495 294 L261 294 L373 611 Z " />
<glyph glyph-name="amacron" unicode="&#x101;" horiz-adv-x="554" d="M125 700 L125 622 L428 622 L428 700 L125 700 Z M483 459 C449 527 370 553 281 553 C126 553 58 475 51 378 L194 378 C197 409 221 442 279 442 C339 442 365 409 365 362 L365 336 L253 336 C128 336 34 288 34 166 C34 54 113 -11 227 -11 C280 -11 318 4 354 35 L364 35 L381 0 L505 0 L505 316 C505 356 506 413 483 459 L483 459 Z M247 105 C204 105 177 128 177 167 C177 221 220 231 272 231 L364 231 C360 156 332 105 247 105 L247 105 Z " />
<glyph glyph-name="Abreve" unicode="&#x102;" horiz-adv-x="757" d="M378 834 C491 834 549 893 549 992 L456 992 C456 935 423 912 378 912 C335 912 300 933 300 992 L207 992 C207 897 259 834 378 834 L378 834 Z M279 767 L7 28 L7 0 L157 0 L214 160 L542 160 L599 0 L749 0 L749 28 L477 767 L279 767 Z M373 611 L383 611 L495 294 L261 294 L373 611 Z " />
<glyph glyph-name="abreve" unicode="&#x103;" horiz-adv-x="554" d="M277 609 C390 609 448 668 448 767 L355 767 C355 710 322 687 277 687 C234 687 199 708 199 767 L106 767 C106 672 158 609 277 609 L277 609 Z M483 459 C449 527 370 553 281 553 C126 553 58 475 51 378 L194 378 C197 409 221 442 279 442 C339 442 365 409 365 362 L365 336 L253 336 C128 336 34 288 34 166 C34 54 113 -11 227 -11 C280 -11 318 4 354 35 L364 35 L381 0 L505 0 L505 316 C505 356 506 413 483 459 L483 459 Z M247 105 C204 105 177 128 177 167 C177 221 220 231 272 231 L364 231 C360 156 332 105 247 105 L247 105 Z " />
<glyph glyph-name="Aogonek" unicode="&#x104;" horiz-adv-x="757" d="M749 28 L477 767 L279 767 L7 28 L7 0 L157 0 L214 160 L542 160 L599 0 L656 0 C594 -52 564 -102 564 -141 C564 -198 626 -236 749 -236 L749 -154 C693 -154 666 -136 666 -107 C666 -78 695 -38 749 0 L749 28 Z M373 611 L383 611 L495 294 L261 294 L373 611 Z " />
<glyph glyph-name="aogonek" unicode="&#x105;" horiz-adv-x="554" d="M483 459 C449 527 370 553 281 553 C126 553 58 475 51 378 L194 378 C197 409 221 442 279 442 C339 442 365 409 365 362 L365 336 L253 336 C128 336 34 288 34 166 C34 54 113 -11 227 -11 C280 -11 318 4 354 35 L364 35 L381 0 L412 0 C350 -52 320 -102 320 -141 C320 -198 382 -236 505 -236 L505 -154 C449 -154 422 -136 422 -107 C422 -78 451 -38 505 0 L505 316 C505 356 506 413 483 459 L483 459 Z M247 105 C204 105 177 128 177 167 C177 221 220 231 272 231 L364 231 C360 156 332 105 247 105 L247 105 Z " />
<glyph glyph-name="Cacute" unicode="&#x106;" horiz-adv-x="782" d="M442 835 L609 992 L468 992 L345 835 L442 835 Z M402 -12 C590 -12 725 101 754 280 L599 280 C577 182 502 122 402 122 C270 122 182 227 182 384 C182 541 270 645 402 645 C502 645 577 585 599 487 L754 487 C725 666 590 779 402 779 C180 779 32 621 32 384 C32 146 180 -12 402 -12 L402 -12 Z " />
<glyph glyph-name="cacute" unicode="&#x107;" horiz-adv-x="594" d="M346 610 L513 767 L372 767 L249 610 L346 610 Z M307 -12 C437 -12 538 59 567 181 L419 181 C402 135 360 110 307 110 C224 110 174 168 174 271 C174 373 224 432 307 432 C360 432 402 406 419 361 L567 361 C538 482 436 554 307 554 C147 554 32 447 32 271 C32 94 147 -12 307 -12 L307 -12 Z " />
<glyph glyph-name="ccircumflex" unicode="&#x109;" horiz-adv-x="594" d="M356 610 L470 610 L353 767 L242 767 L126 610 L240 610 L297 697 L356 610 Z M307 110 C224 110 174 168 174 271 C174 373 224 432 307 432 C360 432 402 406 419 361 L567 361 C538 482 436 554 307 554 C147 554 32 447 32 271 C32 94 147 -12 307 -12 C437 -12 538 59 567 181 L419 181 C402 135 360 110 307 110 L307 110 Z " />
<glyph glyph-name="Cdotaccent" unicode="&#x10a;" horiz-adv-x="782" d="M394 827 C438 827 475 864 475 909 C475 954 438 991 394 991 C348 991 312 954 312 909 C312 864 348 827 394 827 L394 827 Z M402 -12 C590 -12 725 101 754 280 L599 280 C577 182 502 122 402 122 C270 122 182 227 182 384 C182 541 270 645 402 645 C502 645 577 585 599 487 L754 487 C725 666 590 779 402 779 C180 779 32 621 32 384 C32 146 180 -12 402 -12 L402 -12 Z " />
<glyph glyph-name="cdotaccent" unicode="&#x10b;" horiz-adv-x="594" d="M298 614 C342 614 379 651 379 697 C379 741 342 778 298 778 C252 778 216 741 216 697 C216 651 252 614 298 614 L298 614 Z M307 -12 C437 -12 538 59 567 181 L419 181 C402 135 360 110 307 110 C224 110 174 168 174 271 C174 373 224 432 307 432 C360 432 402 406 419 361 L567 361 C538 482 436 554 307 554 C147 554 32 447 32 271 C32 94 147 -12 307 -12 L307 -12 Z " />
<glyph glyph-name="Ccaron" unicode="&#x10c;" horiz-adv-x="782" d="M570 992 L456 992 L397 905 L340 992 L226 992 L342 835 L453 835 L570 992 Z M402 122 C270 122 182 227 182 384 C182 541 270 645 402 645 C502 645 577 585 599 487 L754 487 C725 666 590 779 402 779 C180 779 32 621 32 384 C32 146 180 -12 402 -12 C590 -12 725 101 754 280 L599 280 C577 182 502 122 402 122 L402 122 Z " />
<glyph glyph-name="ccaron" unicode="&#x10d;" horiz-adv-x="594" d="M474 767 L360 767 L301 680 L244 767 L130 767 L246 610 L357 610 L474 767 Z M307 110 C224 110 174 168 174 271 C174 373 224 432 307 432 C360 432 402 406 419 361 L567 361 C538 482 436 554 307 554 C147 554 32 447 32 271 C32 94 147 -12 307 -12 C437 -12 538 59 567 181 L419 181 C402 135 360 110 307 110 L307 110 Z " />
<glyph glyph-name="Dcaron" unicode="&#x10e;" horiz-adv-x="747" d="M538 992 L424 992 L365 905 L308 992 L194 992 L310 835 L421 835 L538 992 Z M586 686 C509 744 404 767 291 767 L59 767 L59 0 L291 0 C404 0 509 23 586 81 C665 141 715 239 715 384 C715 528 665 626 586 686 L586 686 Z M494 195 C440 147 363 134 289 134 L209 134 L209 633 L289 633 C363 633 440 620 494 572 C537 534 565 473 565 384 C565 294 537 233 494 195 L494 195 Z " />
<glyph glyph-name="dcaron" unicode="&#x10f;" horiz-adv-x="723" d="M710 779 C651 779 613 737 613 688 C613 640 645 599 698 594 L632 461 L632 442 L708 442 L787 615 C797 636 805 660 805 688 C805 737 766 779 710 779 L710 779 Z M405 513 C370 541 323 554 271 554 C127 554 33 440 33 271 C33 102 127 -12 271 -12 C323 -12 370 1 405 29 L413 29 L427 0 L554 0 L554 767 L413 767 L413 513 L405 513 Z M299 110 C220 110 175 170 175 271 C175 372 220 432 299 432 C378 432 424 373 424 271 C424 169 378 110 299 110 L299 110 Z " />
<glyph glyph-name="Dcroat" unicode="&#x110;" horiz-adv-x="747" d="M586 686 C509 744 404 767 291 767 L59 767 L59 434 L11 434 L11 334 L59 334 L59 0 L291 0 C404 0 509 23 586 81 C665 141 715 239 715 384 C715 528 665 626 586 686 L586 686 Z M494 195 C440 147 363 134 289 134 L209 134 L209 334 L333 334 L333 434 L209 434 L209 633 L289 633 C363 633 440 620 494 572 C537 534 565 473 565 384 C565 294 537 233 494 195 L494 195 Z " />
<glyph glyph-name="dcroat" unicode="&#x111;" horiz-adv-x="607" d="M554 706 L554 767 L413 767 L413 706 L299 706 L299 606 L413 606 L413 513 L405 513 C370 541 323 554 271 554 C127 554 33 440 33 271 C33 102 127 -12 271 -12 C323 -12 370 1 405 29 L413 29 L427 0 L554 0 L554 606 L621 606 L621 706 L554 706 Z M299 110 C220 110 175 170 175 271 C175 372 220 432 299 432 C378 432 424 373 424 271 C424 169 378 110 299 110 L299 110 Z " />
<glyph glyph-name="Emacron" unicode="&#x112;" horiz-adv-x="607" d="M467 847 L467 925 L164 925 L164 847 L467 847 Z M572 0 L572 134 L210 134 L210 327 L527 327 L527 461 L210 461 L210 633 L550 633 L550 767 L60 767 L60 0 L572 0 Z " />
<glyph glyph-name="emacron" unicode="&#x113;" horiz-adv-x="612" d="M156 700 L156 622 L459 622 L459 700 L156 700 Z M307 554 C147 554 32 447 32 271 C32 95 147 -12 307 -12 C429 -12 527 54 565 163 L413 163 C391 132 355 110 307 110 C236 110 189 155 177 231 L580 231 L581 270 C582 442 470 554 307 554 L307 554 Z M307 432 C370 432 413 397 431 336 L182 336 C200 397 244 432 307 432 L307 432 Z " />
<glyph glyph-name="Edotaccent" unicode="&#x116;" horiz-adv-x="607" d="M316 827 C360 827 397 864 397 909 C397 954 360 991 316 991 C270 991 234 954 234 909 C234 864 270 827 316 827 L316 827 Z M572 0 L572 134 L210 134 L210 327 L527 327 L527 461 L210 461 L210 633 L550 633 L550 767 L60 767 L60 0 L572 0 Z " />
<glyph glyph-name="edotaccent" unicode="&#x117;" horiz-adv-x="612" d="M308 614 C352 614 389 651 389 697 C389 741 352 778 308 778 C262 778 226 741 226 697 C226 651 262 614 308 614 L308 614 Z M307 554 C147 554 32 447 32 271 C32 95 147 -12 307 -12 C429 -12 527 54 565 163 L413 163 C391 132 355 110 307 110 C236 110 189 155 177 231 L580 231 L581 270 C582 442 470 554 307 554 L307 554 Z M307 432 C370 432 413 397 431 336 L182 336 C200 397 244 432 307 432 L307 432 Z " />
<glyph glyph-name="Eogonek" unicode="&#x118;" horiz-adv-x="607" d="M572 134 L210 134 L210 327 L527 327 L527 461 L210 461 L210 633 L550 633 L550 767 L60 767 L60 0 L479 0 C417 -52 387 -102 387 -141 C387 -198 449 -236 572 -236 L572 -154 C516 -154 489 -136 489 -107 C489 -78 518 -38 572 0 L572 134 Z " />
<glyph glyph-name="eogonek" unicode="&#x119;" horiz-adv-x="612" d="M307 554 C147 554 32 447 32 271 C32 104 135 -1 282 -11 C229 -59 203 -105 203 -141 C203 -198 265 -236 388 -236 L388 -154 C332 -154 305 -136 305 -107 C305 -79 333 -40 385 -2 C470 20 535 78 565 163 L413 163 C391 132 355 110 307 110 C236 110 189 155 177 231 L580 231 L581 270 C582 442 470 554 307 554 L307 554 Z M307 432 C370 432 413 397 431 336 L182 336 C200 397 244 432 307 432 L307 432 Z " />
<glyph glyph-name="Ecaron" unicode="&#x11a;" horiz-adv-x="607" d="M492 992 L378 992 L319 905 L262 992 L148 992 L264 835 L375 835 L492 992 Z M210 327 L527 327 L527 461 L210 461 L210 633 L550 633 L550 767 L60 767 L60 0 L572 0 L572 134 L210 134 L210 327 Z " />
<glyph glyph-name="ecaron" unicode="&#x11b;" horiz-adv-x="612" d="M484 767 L370 767 L311 680 L254 767 L140 767 L256 610 L367 610 L484 767 Z M307 554 C147 554 32 447 32 271 C32 95 147 -12 307 -12 C429 -12 527 54 565 163 L413 163 C391 132 355 110 307 110 C236 110 189 155 177 231 L580 231 L581 270 C582 442 470 554 307 554 L307 554 Z M307 432 C370 432 413 397 431 336 L182 336 C200 397 244 432 307 432 L307 432 Z " />
<glyph glyph-name="Gbreve" unicode="&#x11e;" horiz-adv-x="802" d="M411 834 C524 834 582 893 582 992 L489 992 C489 935 456 912 411 912 C368 912 333 933 333 992 L240 992 C240 897 292 834 411 834 L411 834 Z M615 284 C603 184 522 122 412 122 C270 122 182 227 182 384 C182 541 270 645 402 645 C502 645 577 585 599 487 L754 487 C725 666 590 779 402 779 C180 779 32 621 32 384 C32 146 180 -12 402 -12 C480 -12 539 5 584 41 L600 41 L619 0 L754 0 L754 418 L404 418 L404 284 L615 284 Z " />
<glyph glyph-name="gbreve" unicode="&#x11f;" horiz-adv-x="607" d="M304 609 C417 609 475 668 475 767 L382 767 C382 710 349 687 304 687 C261 687 226 708 226 767 L133 767 C133 672 185 609 304 609 L304 609 Z M434 -225 C512 -225 554 -181 554 -105 L554 542 L427 542 L413 513 L405 513 C370 541 323 554 271 554 C127 554 33 440 33 271 C33 102 127 -12 271 -12 C323 -12 370 1 405 29 L413 29 L413 -65 C413 -89 399 -103 375 -103 L220 -103 C195 -103 182 -89 182 -65 L182 -40 L40 -40 L40 -105 C40 -182 83 -225 160 -225 L434 -225 Z M299 110 C220 110 175 170 175 271 C175 372 220 432 299 432 C378 432 424 373 424 271 C424 169 378 110 299 110 L299 110 Z " />
<glyph glyph-name="Gdotaccent" unicode="&#x120;" horiz-adv-x="802" d="M411 827 C455 827 492 864 492 909 C492 954 455 991 411 991 C365 991 329 954 329 909 C329 864 365 827 411 827 L411 827 Z M615 284 C603 184 522 122 412 122 C270 122 182 227 182 384 C182 541 270 645 402 645 C502 645 577 585 599 487 L754 487 C725 666 590 779 402 779 C180 779 32 621 32 384 C32 146 180 -12 402 -12 C480 -12 539 5 584 41 L600 41 L619 0 L754 0 L754 418 L404 418 L404 284 L615 284 Z " />
<glyph glyph-name="gdotaccent" unicode="&#x121;" horiz-adv-x="607" d="M304 614 C348 614 385 651 385 697 C385 741 348 778 304 778 C258 778 222 741 222 697 C222 651 258 614 304 614 L304 614 Z M434 -225 C512 -225 554 -181 554 -105 L554 542 L427 542 L413 513 L405 513 C370 541 323 554 271 554 C127 554 33 440 33 271 C33 102 127 -12 271 -12 C323 -12 370 1 405 29 L413 29 L413 -65 C413 -89 399 -103 375 -103 L220 -103 C195 -103 182 -89 182 -65 L182 -40 L40 -40 L40 -105 C40 -182 83 -225 160 -225 L434 -225 Z M299 110 C220 110 175 170 175 271 C175 372 220 432 299 432 C378 432 424 373 424 271 C424 169 378 110 299 110 L299 110 Z " />
<glyph glyph-name="uni0122" unicode="&#x122;" horiz-adv-x="802" d="M615 284 C603 184 522 122 412 122 C270 122 182 227 182 384 C182 541 270 645 402 645 C502 645 577 585 599 487 L754 487 C725 666 590 779 402 779 C180 779 32 621 32 384 C32 146 180 -12 402 -12 C480 -12 539 5 584 41 L600 41 L619 0 L754 0 L754 418 L404 418 L404 284 L615 284 Z M411 -41 C368 -41 336 -70 336 -112 C336 -149 361 -177 397 -183 L364 -242 L364 -259 L428 -259 L471 -166 C477 -152 486 -130 486 -111 C486 -71 455 -41 411 -41 L411 -41 Z " />
<glyph glyph-name="uni0123" unicode="&#x123;" horiz-adv-x="607" d="M304 572 C347 572 379 598 379 635 C379 669 354 693 318 698 L351 751 L351 767 L287 767 L244 683 C238 671 229 651 229 634 C229 598 260 572 304 572 L304 572 Z M413 513 L405 513 C370 541 323 554 271 554 C127 554 33 440 33 271 C33 102 127 -12 271 -12 C323 -12 370 1 405 29 L413 29 L413 -65 C413 -89 399 -103 375 -103 L220 -103 C195 -103 182 -89 182 -65 L182 -40 L40 -40 L40 -105 C40 -182 83 -225 160 -225 L434 -225 C512 -225 554 -181 554 -105 L554 542 L427 542 L413 513 Z M299 110 C220 110 175 170 175 271 C175 372 220 432 299 432 C378 432 424 373 424 271 C424 169 378 110 299 110 L299 110 Z " />
<glyph glyph-name="hcircumflex" unicode="&#x125;" horiz-adv-x="598" d="M362 835 L476 835 L359 992 L248 992 L132 835 L246 835 L303 922 L362 835 Z M347 554 C286 554 238 532 205 504 L195 504 L195 767 L53 767 L53 0 L195 0 L195 282 C195 330 201 360 215 383 C232 411 261 426 301 426 C376 426 408 377 408 292 L408 0 L550 0 L550 327 C550 471 468 554 347 554 L347 554 Z " />
<glyph glyph-name="Hbar" unicode="&#x126;" horiz-adv-x="754" d="M694 663 L694 767 L544 767 L544 663 L210 663 L210 767 L60 767 L60 663 L16 663 L16 585 L60 585 L60 0 L210 0 L210 327 L544 327 L544 0 L694 0 L694 585 L738 585 L738 663 L694 663 Z M210 461 L210 585 L544 585 L544 461 L210 461 Z " />
<glyph glyph-name="hbar" unicode="&#x127;" horiz-adv-x="598" d="M347 554 C286 554 238 532 205 504 L195 504 L195 606 L311 606 L311 706 L195 706 L195 767 L53 767 L53 706 L-11 706 L-11 606 L53 606 L53 0 L195 0 L195 282 C195 330 201 360 215 383 C232 411 261 426 301 426 C376 426 408 377 408 292 L408 0 L550 0 L550 327 C550 471 468 554 347 554 L347 554 Z " />
<glyph glyph-name="Itilde" unicode="&#x128;" horiz-adv-x="270" d="M204 836 C274 836 318 892 318 992 L239 992 C239 944 224 918 205 918 C168 918 144 995 68 995 C-3 995 -48 939 -48 839 L28 839 C28 887 41 914 63 914 C103 914 119 836 204 836 L204 836 Z M210 0 L210 767 L60 767 L60 0 L210 0 Z " />
<glyph glyph-name="itilde" unicode="&#x129;" horiz-adv-x="247" d="M192 611 C262 611 306 667 306 767 L227 767 C227 719 212 693 193 693 C156 693 132 770 56 770 C-15 770 -60 714 -60 614 L16 614 C16 662 29 689 51 689 C91 689 107 611 192 611 L192 611 Z M194 0 L194 542 L52 542 L52 0 L194 0 Z " />
<glyph glyph-name="Imacron" unicode="&#x12a;" horiz-adv-x="270" d="M286 847 L286 925 L-17 925 L-17 847 L286 847 Z M210 0 L210 767 L60 767 L60 0 L210 0 Z " />
<glyph glyph-name="imacron" unicode="&#x12b;" horiz-adv-x="247" d="M274 622 L274 700 L-29 700 L-29 622 L274 622 Z M194 0 L194 542 L52 542 L52 0 L194 0 Z " />
<glyph glyph-name="Iogonek" unicode="&#x12e;" horiz-adv-x="270" d="M210 767 L60 767 L60 0 L117 0 C55 -52 25 -102 25 -141 C25 -198 87 -236 210 -236 L210 -154 C154 -154 127 -136 127 -107 C127 -78 156 -38 210 0 L210 767 Z " />
<glyph glyph-name="iogonek" unicode="&#x12f;" horiz-adv-x="247" d="M123 614 C167 614 204 651 204 697 C204 741 167 778 123 778 C77 778 41 741 41 697 C41 651 77 614 123 614 L123 614 Z M101 0 C39 -52 9 -102 9 -141 C9 -198 71 -236 194 -236 L194 -154 C138 -154 111 -136 111 -107 C111 -78 140 -38 194 0 L194 542 L52 542 L52 0 L101 0 Z " />
<glyph glyph-name="Idotaccent" unicode="&#x130;" horiz-adv-x="270" d="M135 827 C179 827 216 864 216 909 C216 954 179 991 135 991 C89 991 53 954 53 909 C53 864 89 827 135 827 L135 827 Z M210 0 L210 767 L60 767 L60 0 L210 0 Z " />
<glyph glyph-name="dotlessi" unicode="&#x131;" horiz-adv-x="247" d="M194 0 L194 542 L52 542 L52 0 L194 0 Z " />
<glyph glyph-name="IJ" unicode="&#x132;" horiz-adv-x="862" d="M210 0 L210 767 L60 767 L60 0 L210 0 Z M545 -12 C637 -12 707 14 751 63 C807 126 807 211 807 258 L807 767 L424 767 L424 633 L657 633 L657 279 C657 244 656 193 630 159 C613 136 583 122 545 122 C507 122 477 136 460 159 C439 187 434 226 433 258 L283 258 C283 211 283 126 339 63 C383 14 453 -12 545 -12 L545 -12 Z " />
<glyph glyph-name="ij" unicode="&#x133;" horiz-adv-x="502" d="M123 614 C167 614 204 651 204 697 C204 741 167 778 123 778 C77 778 41 741 41 697 C41 651 77 614 123 614 L123 614 Z M377 614 C421 614 458 651 458 697 C458 741 421 778 377 778 C331 778 295 741 295 697 C295 651 331 614 377 614 L377 614 Z M194 0 L194 542 L52 542 L52 0 L194 0 Z M286 -225 C391 -225 448 -168 448 -63 L448 542 L306 542 L306 -63 C306 -82 291 -96 273 -96 L229 -96 L229 -225 L286 -225 Z " />
<glyph glyph-name="uni0136" unicode="&#x136;" horiz-adv-x="736" d="M711 739 L711 767 L528 767 L222 455 L210 455 L210 767 L60 767 L60 0 L210 0 L210 233 L343 368 L354 368 L567 0 L725 0 L725 28 L460 486 L711 739 Z M351 -41 C308 -41 276 -70 276 -112 C276 -149 301 -177 337 -183 L304 -242 L304 -259 L368 -259 L411 -166 C417 -152 426 -130 426 -111 C426 -71 395 -41 351 -41 L351 -41 Z " />
<glyph glyph-name="uni0137" unicode="&#x137;" horiz-adv-x="590" d="M538 505 L538 542 L382 542 L200 349 L195 349 L195 767 L53 767 L53 0 L195 0 L195 159 L278 243 L285 243 L425 0 L573 0 L573 29 L381 347 L538 505 Z M276 -41 C233 -41 201 -70 201 -112 C201 -149 226 -177 262 -183 L229 -242 L229 -259 L293 -259 L336 -166 C342 -152 351 -130 351 -111 C351 -71 320 -41 276 -41 L276 -41 Z " />
<glyph glyph-name="Lacute" unicode="&#x139;" horiz-adv-x="539" d="M183 835 L350 992 L209 992 L86 835 L183 835 Z M533 0 L533 134 L210 134 L210 767 L60 767 L60 0 L533 0 Z " />
<glyph glyph-name="lacute" unicode="&#x13a;" horiz-adv-x="290" d="M185 835 L352 992 L211 992 L88 835 L185 835 Z M268 0 L268 129 L224 129 C205 129 191 143 191 162 L191 767 L49 767 L49 162 C49 57 105 0 211 0 L268 0 Z " />
<glyph glyph-name="uni013B" unicode="&#x13b;" horiz-adv-x="539" d="M210 767 L60 767 L60 0 L533 0 L533 134 L210 134 L210 767 Z M297 -41 C254 -41 222 -70 222 -112 C222 -149 247 -177 283 -183 L250 -242 L250 -259 L314 -259 L357 -166 C363 -152 372 -130 372 -111 C372 -71 341 -41 297 -41 L297 -41 Z " />
<glyph glyph-name="uni013C" unicode="&#x13c;" horiz-adv-x="290" d="M224 129 C205 129 191 143 191 162 L191 767 L49 767 L49 162 C49 57 105 0 211 0 L268 0 L268 129 L224 129 Z M137 -41 C94 -41 62 -70 62 -112 C62 -149 87 -177 123 -183 L90 -242 L90 -259 L154 -259 L197 -166 C203 -152 212 -130 212 -111 C212 -71 181 -41 137 -41 L137 -41 Z " />
<glyph glyph-name="Lcaron" unicode="&#x13d;" horiz-adv-x="539" d="M370 461 L370 442 L446 442 L525 615 C535 636 543 660 543 688 C543 737 504 779 448 779 C389 779 351 737 351 688 C351 640 383 599 436 594 L370 461 Z M60 767 L60 0 L533 0 L533 134 L210 134 L210 767 L60 767 Z " />
<glyph glyph-name="lcaron" unicode="&#x13e;" horiz-adv-x="357" d="M344 779 C285 779 247 737 247 688 C247 640 279 599 332 594 L266 461 L266 442 L342 442 L421 615 C431 636 439 660 439 688 C439 737 400 779 344 779 L344 779 Z M191 767 L49 767 L49 162 C49 57 105 0 211 0 L268 0 L268 129 L224 129 C205 129 191 143 191 162 L191 767 Z " />
<glyph glyph-name="Ldot" unicode="&#x13f;" horiz-adv-x="592" d="M533 0 L533 134 L210 134 L210 767 L60 767 L60 0 L533 0 Z M447 291 C500 291 542 334 542 386 C542 435 499 477 447 477 C392 477 350 435 350 386 C350 334 392 291 447 291 L447 291 Z " />
<glyph glyph-name="ldot" unicode="&#x140;" horiz-adv-x="447" d="M268 0 L268 129 L224 129 C205 129 191 143 191 162 L191 767 L49 767 L49 162 C49 57 105 0 211 0 L268 0 Z M356 285 C409 285 451 328 451 380 C451 429 408 471 356 471 C301 471 259 429 259 380 C259 328 301 285 356 285 L356 285 Z " />
<glyph glyph-name="Lslash" unicode="&#x141;" horiz-adv-x="539" d="M210 347 L329 429 L329 563 L210 481 L210 767 L60 767 L60 378 L4 340 L4 204 L60 243 L60 0 L533 0 L533 134 L210 134 L210 347 Z " />
<glyph glyph-name="lslash" unicode="&#x142;" horiz-adv-x="290" d="M272 551 L191 476 L191 767 L49 767 L49 345 L1 301 L1 166 L49 210 L49 162 C49 57 105 0 211 0 L268 0 L268 129 L224 129 C205 129 191 143 191 162 L191 342 L272 417 L272 551 Z " />
<glyph glyph-name="Nacute" unicode="&#x143;" horiz-adv-x="804" d="M450 835 L617 992 L476 992 L353 835 L450 835 Z M210 0 L210 633 L221 633 L486 0 L743 0 L743 767 L593 767 L593 133 L582 133 L317 767 L60 767 L60 0 L210 0 Z " />
<glyph glyph-name="nacute" unicode="&#x144;" horiz-adv-x="598" d="M347 610 L514 767 L373 767 L250 610 L347 610 Z M195 0 L195 282 C195 330 201 360 215 383 C232 411 261 426 301 426 C376 426 408 377 408 292 L408 0 L550 0 L550 327 C550 471 468 554 347 554 C286 554 238 532 205 504 L195 504 L177 542 L53 542 L53 0 L195 0 Z " />
<glyph glyph-name="uni0145" unicode="&#x145;" horiz-adv-x="804" d="M593 133 L582 133 L317 767 L60 767 L60 0 L210 0 L210 633 L221 633 L486 0 L743 0 L743 767 L593 767 L593 133 Z M402 -41 C359 -41 327 -70 327 -112 C327 -149 352 -177 388 -183 L355 -242 L355 -259 L419 -259 L462 -166 C468 -152 477 -130 477 -111 C477 -71 446 -41 402 -41 L402 -41 Z " />
<glyph glyph-name="uni0146" unicode="&#x146;" horiz-adv-x="598" d="M347 554 C286 554 238 532 205 504 L195 504 L177 542 L53 542 L53 0 L195 0 L195 282 C195 330 201 360 215 383 C232 411 261 426 301 426 C376 426 408 377 408 292 L408 0 L550 0 L550 327 C550 471 468 554 347 554 L347 554 Z M299 -41 C256 -41 224 -70 224 -112 C224 -149 249 -177 285 -183 L252 -242 L252 -259 L316 -259 L359 -166 C365 -152 374 -130 374 -111 C374 -71 343 -41 299 -41 L299 -41 Z " />
<glyph glyph-name="Ncaron" unicode="&#x147;" horiz-adv-x="804" d="M578 992 L464 992 L405 905 L348 992 L234 992 L350 835 L461 835 L578 992 Z M593 133 L582 133 L317 767 L60 767 L60 0 L210 0 L210 633 L221 633 L486 0 L743 0 L743 767 L593 767 L593 133 Z " />
<glyph glyph-name="ncaron" unicode="&#x148;" horiz-adv-x="598" d="M475 767 L361 767 L302 680 L245 767 L131 767 L247 610 L358 610 L475 767 Z M347 554 C286 554 238 532 205 504 L195 504 L177 542 L53 542 L53 0 L195 0 L195 282 C195 330 201 360 215 383 C232 411 261 426 301 426 C376 426 408 377 408 292 L408 0 L550 0 L550 327 C550 471 468 554 347 554 L347 554 Z " />
<glyph glyph-name="napostrophe" unicode="&#x149;" horiz-adv-x="757" d="M231 688 C231 737 192 779 136 779 C77 779 39 737 39 688 C39 640 71 599 124 594 L58 461 L58 442 L134 442 L213 615 C223 636 231 660 231 688 L231 688 Z M506 554 C445 554 397 532 364 504 L354 504 L336 542 L212 542 L212 0 L354 0 L354 282 C354 330 360 360 374 383 C391 411 420 426 460 426 C535 426 567 377 567 292 L567 0 L709 0 L709 327 C709 471 627 554 506 554 L506 554 Z " />
<glyph glyph-name="Eng" unicode="&#x14a;" horiz-adv-x="804" d="M593 133 L582 133 L317 767 L60 767 L60 0 L210 0 L210 633 L221 633 L486 0 L609 0 L609 -68 C609 -88 594 -103 574 -103 L529 -103 L529 -225 L586 -225 C688 -225 743 -170 743 -68 L743 767 L593 767 L593 133 Z " />
<glyph glyph-name="eng" unicode="&#x14b;" horiz-adv-x="598" d="M347 554 C286 554 238 532 205 504 L195 504 L177 542 L53 542 L53 0 L195 0 L195 282 C195 330 201 360 215 383 C232 411 261 426 301 426 C376 426 408 377 408 292 L408 -63 C408 -82 393 -96 375 -96 L331 -96 L331 -225 L387 -225 C493 -225 550 -168 550 -63 L550 327 C550 471 468 554 347 554 L347 554 Z " />
<glyph glyph-name="Omacron" unicode="&#x14c;" horiz-adv-x="805" d="M553 847 L553 925 L250 925 L250 847 L553 847 Z M402 -12 C624 -12 772 146 772 384 C772 621 624 779 402 779 C180 779 32 621 32 384 C32 146 180 -12 402 -12 L402 -12 Z M402 122 C270 122 182 227 182 384 C182 541 270 645 402 645 C534 645 622 541 622 384 C622 227 534 122 402 122 L402 122 Z " />
<glyph glyph-name="omacron" unicode="&#x14d;" horiz-adv-x="614" d="M458 622 L458 700 L155 700 L155 622 L458 622 Z M307 -12 C466 -12 581 95 581 271 C581 447 466 554 307 554 C147 554 32 447 32 271 C32 95 147 -12 307 -12 L307 -12 Z M307 110 C224 110 174 171 174 271 C174 371 224 432 307 432 C389 432 440 371 440 271 C440 171 389 110 307 110 L307 110 Z " />
<glyph glyph-name="Ohungarumlaut" unicode="&#x150;" horiz-adv-x="805" d="M345 835 L472 992 L353 992 L246 835 L345 835 Z M560 835 L705 992 L564 992 L458 835 L560 835 Z M402 -12 C624 -12 772 146 772 384 C772 621 624 779 402 779 C180 779 32 621 32 384 C32 146 180 -12 402 -12 L402 -12 Z M402 122 C270 122 182 227 182 384 C182 541 270 645 402 645 C534 645 622 541 622 384 C622 227 534 122 402 122 L402 122 Z " />
<glyph glyph-name="ohungarumlaut" unicode="&#x151;" horiz-adv-x="614" d="M250 610 L377 767 L258 767 L151 610 L250 610 Z M465 610 L610 767 L469 767 L363 610 L465 610 Z M307 -12 C466 -12 581 95 581 271 C581 447 466 554 307 554 C147 554 32 447 32 271 C32 95 147 -12 307 -12 L307 -12 Z M307 110 C224 110 174 171 174 271 C174 371 224 432 307 432 C389 432 440 371 440 271 C440 171 389 110 307 110 L307 110 Z " />
<glyph glyph-name="OE" unicode="&#x152;" horiz-adv-x="1173" d="M776 327 L1093 327 L1093 461 L776 461 L776 633 L1116 633 L1116 767 L626 767 L626 710 C566 754 490 779 402 779 C180 779 32 621 32 384 C32 146 180 -12 402 -12 C490 -12 566 13 626 57 L626 0 L1138 0 L1138 134 L776 134 L776 327 Z M402 122 C270 122 182 227 182 384 C182 541 270 645 402 645 C534 645 622 541 622 384 C622 227 534 122 402 122 L402 122 Z " />
<glyph glyph-name="oe" unicode="&#x153;" horiz-adv-x="1026" d="M721 554 C635 554 563 523 514 468 C465 523 392 554 307 554 C147 554 32 447 32 271 C32 95 147 -12 307 -12 C392 -12 465 19 514 74 C563 19 635 -12 721 -12 C843 -12 941 54 979 163 L827 163 C805 132 769 110 721 110 C650 110 603 155 591 231 L994 231 L995 270 C996 442 884 554 721 554 L721 554 Z M307 110 C224 110 174 171 174 271 C174 371 224 432 307 432 C389 432 440 371 440 271 C440 171 389 110 307 110 L307 110 Z M721 432 C784 432 827 397 845 336 L596 336 C614 397 658 432 721 432 L721 432 Z " />
<glyph glyph-name="Racute" unicode="&#x154;" horiz-adv-x="654" d="M384 992 L261 835 L358 835 L525 992 L384 992 Z M453 330 C470 335 485 343 498 352 C554 390 582 455 582 541 C582 626 554 691 498 729 C455 759 396 767 323 767 L60 767 L60 0 L210 0 L210 314 L286 314 L478 0 L637 0 L637 29 L453 327 L453 330 Z M298 633 C349 633 381 633 406 613 C417 604 432 587 432 541 C432 497 419 479 406 468 C382 448 348 448 298 448 L210 448 L210 633 L298 633 Z " />
<glyph glyph-name="racute" unicode="&#x155;" horiz-adv-x="376" d="M236 610 L403 767 L262 767 L139 610 L236 610 Z M195 0 L195 355 C195 390 217 413 252 413 L360 413 L360 542 L277 542 C246 542 222 531 205 504 L195 504 L177 542 L53 542 L53 0 L195 0 Z " />
<glyph glyph-name="uni0156" unicode="&#x156;" horiz-adv-x="654" d="M453 330 C470 335 485 343 498 352 C554 390 582 455 582 541 C582 626 554 691 498 729 C455 759 396 767 323 767 L60 767 L60 0 L210 0 L210 314 L286 314 L478 0 L637 0 L637 29 L453 327 L453 330 Z M298 633 C349 633 381 633 406 613 C417 604 432 587 432 541 C432 497 419 479 406 468 C382 448 348 448 298 448 L210 448 L210 633 L298 633 Z M310 -41 C267 -41 235 -70 235 -112 C235 -149 260 -177 296 -183 L263 -242 L263 -259 L327 -259 L370 -166 C376 -152 385 -130 385 -111 C385 -71 354 -41 310 -41 L310 -41 Z " />
<glyph glyph-name="uni0157" unicode="&#x157;" horiz-adv-x="376" d="M277 542 C246 542 222 531 205 504 L195 504 L177 542 L53 542 L53 0 L195 0 L195 355 C195 390 217 413 252 413 L360 413 L360 542 L277 542 Z M188 -41 C145 -41 113 -70 113 -112 C113 -149 138 -177 174 -183 L141 -242 L141 -259 L205 -259 L248 -166 C254 -152 263 -130 263 -111 C263 -71 232 -41 188 -41 L188 -41 Z " />
<glyph glyph-name="Rcaron" unicode="&#x158;" horiz-adv-x="654" d="M486 992 L372 992 L313 905 L256 992 L142 992 L258 835 L369 835 L486 992 Z M453 330 C470 335 485 343 498 352 C554 390 582 455 582 541 C582 626 554 691 498 729 C455 759 396 767 323 767 L60 767 L60 0 L210 0 L210 314 L286 314 L478 0 L637 0 L637 29 L453 327 L453 330 Z M298 633 C349 633 381 633 406 613 C417 604 432 587 432 541 C432 497 419 479 406 468 C382 448 348 448 298 448 L210 448 L210 633 L298 633 Z " />
<glyph glyph-name="rcaron" unicode="&#x159;" horiz-adv-x="376" d="M364 767 L250 767 L191 680 L134 767 L20 767 L136 610 L247 610 L364 767 Z M195 504 L177 542 L53 542 L53 0 L195 0 L195 355 C195 390 217 413 252 413 L360 413 L360 542 L277 542 C246 542 222 531 205 504 L195 504 Z " />
<glyph glyph-name="Sacute" unicode="&#x15a;" horiz-adv-x="682" d="M389 835 L556 992 L415 992 L292 835 L389 835 Z M362 -12 C532 -12 647 80 647 230 C647 341 584 415 464 449 L312 492 C256 508 206 522 206 574 C206 624 252 651 327 651 C416 651 462 613 475 539 L629 539 C618 701 478 779 329 779 C186 779 56 709 56 568 C56 417 194 372 261 353 L368 323 C434 304 497 288 497 214 C497 148 446 117 361 117 C242 117 180 174 180 280 L30 280 C30 85 187 -12 362 -12 L362 -12 Z " />
<glyph glyph-name="sacute" unicode="&#x15b;" horiz-adv-x="542" d="M323 610 L490 767 L349 767 L226 610 L323 610 Z M280 -12 C419 -12 508 60 508 171 C508 263 444 320 339 339 L284 349 C218 361 187 365 187 396 C187 427 222 443 262 443 C307 443 346 424 356 378 L498 378 C485 480 397 554 262 554 C143 554 46 496 46 386 C46 260 174 231 215 224 L300 209 C324 205 367 198 367 155 C367 118 337 99 282 99 C219 99 181 122 174 181 L32 181 C33 57 136 -12 280 -12 L280 -12 Z " />
<glyph glyph-name="Scedilla" unicode="&#x15e;" horiz-adv-x="682" d="M647 230 C647 341 584 415 464 449 L312 492 C256 508 206 522 206 574 C206 624 252 651 327 651 C416 651 462 613 475 539 L629 539 C618 701 478 779 329 779 C186 779 56 709 56 568 C56 417 194 372 261 353 L368 323 C434 304 497 288 497 214 C497 148 446 117 361 117 C242 117 180 174 180 280 L30 280 C30 96 169 0 332 -11 L282 -89 C307 -89 332 -90 350 -96 C378 -103 390 -119 390 -137 C390 -156 375 -173 346 -173 C323 -173 294 -163 263 -134 L227 -192 C266 -224 307 -238 343 -238 C407 -238 456 -194 456 -136 C456 -97 433 -66 398 -52 C389 -49 379 -47 368 -46 L396 -11 C547 1 647 90 647 230 L647 230 Z " />
<glyph glyph-name="scedilla" unicode="&#x15f;" horiz-adv-x="542" d="M508 171 C508 263 444 320 339 339 L284 349 C218 361 187 365 187 396 C187 427 222 443 262 443 C307 443 346 424 356 378 L498 378 C485 480 397 554 262 554 C143 554 46 496 46 386 C46 260 174 231 215 224 L300 209 C324 205 367 198 367 155 C367 118 337 99 282 99 C219 99 181 122 174 181 L32 181 C33 70 116 3 237 -10 L186 -89 C211 -89 236 -90 254 -96 C282 -103 294 -119 294 -137 C294 -156 279 -173 250 -173 C227 -173 198 -163 167 -134 L131 -192 C170 -224 211 -238 247 -238 C311 -238 360 -194 360 -136 C360 -97 337 -66 302 -52 C293 -49 283 -47 272 -46 L299 -12 C427 -5 508 65 508 171 L508 171 Z " />
<glyph glyph-name="Scaron" unicode="&#x160;" horiz-adv-x="682" d="M517 992 L403 992 L344 905 L287 992 L173 992 L289 835 L400 835 L517 992 Z M312 492 C256 508 206 522 206 574 C206 624 252 651 327 651 C416 651 462 613 475 539 L629 539 C618 701 478 779 329 779 C186 779 56 709 56 568 C56 417 194 372 261 353 L368 323 C434 304 497 288 497 214 C497 148 446 117 361 117 C242 117 180 174 180 280 L30 280 C30 85 187 -12 362 -12 C532 -12 647 80 647 230 C647 341 584 415 464 449 L312 492 Z " />
<glyph glyph-name="scaron" unicode="&#x161;" horiz-adv-x="542" d="M451 767 L337 767 L278 680 L221 767 L107 767 L223 610 L334 610 L451 767 Z M284 349 C218 361 187 365 187 396 C187 427 222 443 262 443 C307 443 346 424 356 378 L498 378 C485 480 397 554 262 554 C143 554 46 496 46 386 C46 260 174 231 215 224 L300 209 C324 205 367 198 367 155 C367 118 337 99 282 99 C219 99 181 122 174 181 L32 181 C33 57 136 -12 280 -12 C419 -12 508 60 508 171 C508 263 444 320 339 339 L284 349 Z " />
<glyph glyph-name="uni0162" unicode="&#x162;" horiz-adv-x="630" d="M390 633 L624 633 L624 767 L6 767 L6 633 L240 633 L240 0 L283 0 L226 -89 C251 -89 276 -90 294 -96 C322 -103 334 -119 334 -137 C334 -156 319 -173 290 -173 C267 -173 238 -163 207 -134 L171 -192 C210 -224 251 -238 287 -238 C351 -238 400 -194 400 -136 C400 -97 377 -66 342 -52 C333 -49 323 -47 312 -46 L348 0 L390 0 L390 633 Z " />
<glyph glyph-name="uni0163" unicode="&#x163;" horiz-adv-x="379" d="M346 542 L246 542 L246 767 L105 767 L105 542 L18 542 L18 413 L105 413 L105 162 C105 83 136 32 197 11 L133 -89 C158 -89 183 -90 201 -96 C229 -103 241 -119 241 -137 C241 -156 226 -173 197 -173 C174 -173 145 -163 114 -134 L78 -192 C117 -224 158 -238 194 -238 C258 -238 307 -194 307 -136 C307 -97 284 -66 249 -52 C240 -49 230 -47 219 -46 L255 0 L267 0 L346 0 L346 129 L280 129 C261 129 246 143 246 162 L246 413 L346 413 L346 542 Z " />
<glyph glyph-name="Tcaron" unicode="&#x164;" horiz-adv-x="630" d="M491 992 L377 992 L318 905 L261 992 L147 992 L263 835 L374 835 L491 992 Z M6 633 L240 633 L240 0 L390 0 L390 633 L624 633 L624 767 L6 767 L6 633 Z " />
<glyph glyph-name="tcaron" unicode="&#x165;" horiz-adv-x="379" d="M366 941 C307 941 269 899 269 850 C269 802 301 761 354 756 L288 623 L288 604 L364 604 L443 777 C453 798 461 822 461 850 C461 899 422 941 366 941 L366 941 Z M105 767 L105 542 L18 542 L18 413 L105 413 L105 162 C105 57 161 0 267 0 L346 0 L346 129 L280 129 C261 129 246 143 246 162 L246 413 L346 413 L346 542 L246 542 L246 767 L105 767 Z " />
<glyph glyph-name="Tbar" unicode="&#x166;" horiz-adv-x="630" d="M624 767 L6 767 L6 633 L240 633 L240 434 L155 434 L155 334 L240 334 L240 0 L390 0 L390 334 L477 334 L477 434 L390 434 L390 633 L624 633 L624 767 Z " />
<glyph glyph-name="tbar" unicode="&#x167;" horiz-adv-x="379" d="M346 542 L246 542 L246 767 L105 767 L105 542 L18 542 L18 413 L105 413 L105 321 L20 321 L20 221 L105 221 L105 162 C105 57 161 0 267 0 L346 0 L346 129 L280 129 C261 129 246 143 246 162 L246 221 L342 221 L342 321 L246 321 L246 413 L346 413 L346 542 Z " />
<glyph glyph-name="Utilde" unicode="&#x168;" horiz-adv-x="701" d="M419 836 C489 836 533 892 533 992 L454 992 C454 944 439 918 420 918 C383 918 359 995 283 995 C212 995 167 939 167 839 L243 839 C243 887 256 914 278 914 C318 914 334 836 419 836 L419 836 Z M350 -12 C559 -12 647 88 647 254 L647 767 L497 767 L497 264 C497 188 474 122 350 122 C228 122 203 185 203 264 L203 767 L53 767 L53 254 C53 90 138 -12 350 -12 L350 -12 Z " />
<glyph glyph-name="utilde" unicode="&#x169;" horiz-adv-x="597" d="M363 611 C433 611 477 667 477 767 L398 767 C398 719 383 693 364 693 C327 693 303 770 227 770 C156 770 111 714 111 614 L187 614 C187 662 200 689 222 689 C262 689 278 611 363 611 L363 611 Z M249 -12 C312 -12 358 11 391 38 L401 38 L419 0 L543 0 L543 542 L401 542 L401 260 C401 214 396 184 380 158 C362 129 332 116 294 116 C220 116 188 165 188 250 L188 542 L46 542 L46 215 C46 71 128 -12 249 -12 L249 -12 Z " />
<glyph glyph-name="Umacron" unicode="&#x16a;" horiz-adv-x="701" d="M501 847 L501 925 L198 925 L198 847 L501 847 Z M350 -12 C559 -12 647 88 647 254 L647 767 L497 767 L497 264 C497 188 474 122 350 122 C228 122 203 185 203 264 L203 767 L53 767 L53 254 C53 90 138 -12 350 -12 L350 -12 Z " />
<glyph glyph-name="umacron" unicode="&#x16b;" horiz-adv-x="597" d="M445 622 L445 700 L142 700 L142 622 L445 622 Z M249 -12 C312 -12 358 11 391 38 L401 38 L419 0 L543 0 L543 542 L401 542 L401 260 C401 214 396 184 380 158 C362 129 332 116 294 116 C220 116 188 165 188 250 L188 542 L46 542 L46 215 C46 71 128 -12 249 -12 L249 -12 Z " />
<glyph glyph-name="Uring" unicode="&#x16e;" horiz-adv-x="701" d="M349 805 C419 805 475 861 475 931 C475 1001 417 1055 349 1055 C280 1055 225 999 225 931 C225 863 279 805 349 805 L349 805 Z M349 876 C319 876 296 899 296 932 C296 962 317 984 349 984 C383 984 403 962 403 932 C403 899 381 876 349 876 L349 876 Z M350 -12 C559 -12 647 88 647 254 L647 767 L497 767 L497 264 C497 188 474 122 350 122 C228 122 203 185 203 264 L203 767 L53 767 L53 254 C53 90 138 -12 350 -12 L350 -12 Z " />
<glyph glyph-name="uring" unicode="&#x16f;" horiz-adv-x="597" d="M293 580 C363 580 419 636 419 706 C419 776 361 830 293 830 C224 830 169 774 169 706 C169 638 223 580 293 580 L293 580 Z M293 651 C263 651 240 674 240 707 C240 737 261 759 293 759 C327 759 347 737 347 707 C347 674 325 651 293 651 L293 651 Z M249 -12 C312 -12 358 11 391 38 L401 38 L419 0 L543 0 L543 542 L401 542 L401 260 C401 214 396 184 380 158 C362 129 332 116 294 116 C220 116 188 165 188 250 L188 542 L46 542 L46 215 C46 71 128 -12 249 -12 L249 -12 Z " />
<glyph glyph-name="Uhungarumlaut" unicode="&#x170;" horiz-adv-x="701" d="M293 835 L420 992 L301 992 L194 835 L293 835 Z M508 835 L653 992 L512 992 L406 835 L508 835 Z M350 -12 C559 -12 647 88 647 254 L647 767 L497 767 L497 264 C497 188 474 122 350 122 C228 122 203 185 203 264 L203 767 L53 767 L53 254 C53 90 138 -12 350 -12 L350 -12 Z " />
<glyph glyph-name="uhungarumlaut" unicode="&#x171;" horiz-adv-x="597" d="M237 610 L364 767 L245 767 L138 610 L237 610 Z M452 610 L597 767 L456 767 L350 610 L452 610 Z M249 -12 C312 -12 358 11 391 38 L401 38 L419 0 L543 0 L543 542 L401 542 L401 260 C401 214 396 184 380 158 C362 129 332 116 294 116 C220 116 188 165 188 250 L188 542 L46 542 L46 215 C46 71 128 -12 249 -12 L249 -12 Z " />
<glyph glyph-name="Uogonek" unicode="&#x172;" horiz-adv-x="701" d="M497 264 C497 188 474 122 350 122 C228 122 203 185 203 264 L203 767 L53 767 L53 254 C53 90 138 -12 350 -12 L354 -12 C302 -60 276 -105 276 -141 C276 -198 338 -236 461 -236 L461 -154 C405 -154 378 -136 378 -107 C378 -78 407 -38 460 0 C590 30 647 121 647 254 L647 767 L497 767 L497 264 Z " />
<glyph glyph-name="uogonek" unicode="&#x173;" horiz-adv-x="597" d="M401 260 C401 214 396 184 380 158 C362 129 332 116 294 116 C220 116 188 165 188 250 L188 542 L46 542 L46 215 C46 71 128 -12 249 -12 C312 -12 358 11 391 38 L401 38 L419 0 L449 0 C387 -52 357 -102 357 -141 C357 -198 419 -236 542 -236 L542 -154 C486 -154 459 -136 459 -107 C459 -78 488 -38 542 0 L543 0 L543 542 L401 542 L401 260 Z " />
<glyph glyph-name="Wcircumflex" unicode="&#x174;" horiz-adv-x="1203" d="M659 835 L773 835 L656 992 L545 992 L429 835 L543 835 L600 922 L659 835 Z M829 167 L819 167 L728 767 L474 767 L383 167 L373 167 L157 767 L7 767 L7 739 L279 0 L499 0 L597 646 L605 646 L703 0 L923 0 L1195 739 L1195 767 L1045 767 L829 167 Z " />
<glyph glyph-name="wcircumflex" unicode="&#x175;" horiz-adv-x="942" d="M529 610 L643 610 L526 767 L415 767 L299 610 L413 610 L470 697 L529 610 Z M646 122 L636 122 L581 542 L360 542 L305 122 L295 122 L162 542 L11 542 L192 0 L411 0 L466 413 L476 413 L531 0 L750 0 L930 542 L779 542 L646 122 Z " />
<glyph glyph-name="Ycircumflex" unicode="&#x176;" horiz-adv-x="699" d="M407 835 L521 835 L404 992 L293 992 L177 835 L291 835 L348 922 L407 835 Z M354 452 L344 452 L160 767 L2 767 L2 739 L274 286 L274 0 L424 0 L424 286 L696 739 L696 767 L538 767 L354 452 Z " />
<glyph glyph-name="ycircumflex" unicode="&#x177;" horiz-adv-x="601" d="M358 610 L472 610 L355 767 L244 767 L128 610 L242 610 L299 697 L358 610 Z M305 122 L295 122 L162 542 L11 542 L192 0 L265 0 L245 -56 C237 -78 216 -95 189 -95 L74 -95 L74 -224 L224 -224 C286 -224 339 -188 361 -129 L409 0 L589 542 L438 542 L305 122 Z " />
<glyph glyph-name="Ydieresis" unicode="&#x178;" horiz-adv-x="699" d="M241 827 C285 827 322 864 322 909 C322 954 285 991 241 991 C195 991 159 954 159 909 C159 864 195 827 241 827 L241 827 Z M458 827 C502 827 539 864 539 909 C539 954 502 991 458 991 C412 991 375 954 375 909 C375 864 412 827 458 827 L458 827 Z M424 0 L424 286 L696 739 L696 767 L538 767 L354 452 L344 452 L160 767 L2 767 L2 739 L274 286 L274 0 L424 0 Z " />
<glyph glyph-name="Zacute" unicode="&#x179;" horiz-adv-x="656" d="M376 835 L543 992 L402 992 L279 835 L376 835 Z M628 0 L628 134 L182 134 L182 144 L609 561 L609 767 L45 767 L45 633 L457 633 L457 623 L31 206 L31 0 L628 0 Z " />
<glyph glyph-name="zacute" unicode="&#x17a;" horiz-adv-x="540" d="M319 610 L486 767 L345 767 L222 610 L319 610 Z M504 0 L504 129 L197 129 L197 140 L492 349 L492 542 L49 542 L49 413 L333 413 L333 402 L39 193 L39 0 L504 0 Z " />
<glyph glyph-name="Zdotaccent" unicode="&#x17b;" horiz-adv-x="656" d="M328 827 C372 827 409 864 409 909 C409 954 372 991 328 991 C282 991 246 954 246 909 C246 864 282 827 328 827 L328 827 Z M628 0 L628 134 L182 134 L182 144 L609 561 L609 767 L45 767 L45 633 L457 633 L457 623 L31 206 L31 0 L628 0 Z " />
<glyph glyph-name="zdotaccent" unicode="&#x17c;" horiz-adv-x="540" d="M271 614 C315 614 352 651 352 697 C352 741 315 778 271 778 C225 778 189 741 189 697 C189 651 225 614 271 614 L271 614 Z M504 0 L504 129 L197 129 L197 140 L492 349 L492 542 L49 542 L49 413 L333 413 L333 402 L39 193 L39 0 L504 0 Z " />
<glyph glyph-name="Zcaron" unicode="&#x17d;" horiz-adv-x="656" d="M504 992 L390 992 L331 905 L274 992 L160 992 L276 835 L387 835 L504 992 Z M182 144 L609 561 L609 767 L45 767 L45 633 L457 633 L457 623 L31 206 L31 0 L628 0 L628 134 L182 134 L182 144 Z " />
<glyph glyph-name="zcaron" unicode="&#x17e;" horiz-adv-x="540" d="M447 767 L333 767 L274 680 L217 767 L103 767 L219 610 L330 610 L447 767 Z M197 140 L492 349 L492 542 L49 542 L49 413 L333 413 L333 402 L39 193 L39 0 L504 0 L504 129 L197 129 L197 140 Z " />
<glyph glyph-name="florin" unicode="&#x192;" horiz-adv-x="479" d="M47 -237 C207 -237 297 -164 297 6 L297 443 L422 443 L422 542 L297 542 L297 591 C297 639 324 655 360 655 L422 655 L422 767 L380 767 C250 767 186 703 186 581 L186 542 L90 542 L90 443 L186 443 L186 17 C186 -103 152 -137 47 -137 L47 -237 Z " />
<glyph glyph-name="Ohorn" unicode="&#x1a0;" horiz-adv-x="805" d="M738 782 C738 722 733 684 664 677 C599 742 509 779 402 779 C180 779 32 621 32 384 C32 146 180 -12 402 -12 C624 -12 772 146 772 384 C772 461 756 530 727 588 C820 606 851 662 851 781 L851 836 L738 836 L738 782 Z M402 122 C270 122 182 227 182 384 C182 541 270 645 402 645 C534 645 622 541 622 384 C622 227 534 122 402 122 L402 122 Z " />
<glyph glyph-name="ohorn" unicode="&#x1a1;" horiz-adv-x="614" d="M535 558 C535 518 533 488 511 470 C462 524 391 554 307 554 C147 554 32 447 32 271 C32 95 147 -12 307 -12 C466 -12 581 95 581 271 C581 309 576 345 565 376 C627 402 648 457 648 557 L648 612 L535 612 L535 558 Z M307 110 C224 110 174 171 174 271 C174 371 224 432 307 432 C389 432 440 371 440 271 C440 171 389 110 307 110 L307 110 Z " />
<glyph glyph-name="Uhorn" unicode="&#x1af;" horiz-adv-x="701" d="M698 783 C698 730 694 695 647 682 L647 767 L497 767 L497 264 C497 188 474 122 350 122 C228 122 203 185 203 264 L203 767 L53 767 L53 254 C53 90 138 -12 350 -12 C559 -12 647 88 647 254 L647 584 C772 594 811 647 811 782 L811 837 L698 837 L698 783 Z " />
<glyph glyph-name="uhorn" unicode="&#x1b0;" horiz-adv-x="597" d="M594 648 C594 581 588 542 495 542 L401 542 L401 260 C401 214 396 184 380 158 C362 129 332 116 294 116 C220 116 188 165 188 250 L188 542 L46 542 L46 215 C46 71 128 -12 249 -12 C312 -12 358 11 391 38 L401 38 L419 0 L543 0 L543 449 C668 459 707 512 707 647 L707 702 L594 702 L594 648 Z " />
<glyph glyph-name="uni01C4" unicode="&#x1c4;" horiz-adv-x="1403" d="M1251 992 L1137 992 L1078 905 L1021 992 L907 992 L1023 835 L1134 835 L1251 992 Z M586 686 C509 744 404 767 291 767 L59 767 L59 0 L291 0 C404 0 509 23 586 81 C665 141 715 239 715 384 C715 528 665 626 586 686 L586 686 Z M929 144 L1356 561 L1356 767 L792 767 L792 633 L1204 633 L1204 623 L778 206 L778 0 L1375 0 L1375 134 L929 134 L929 144 Z M494 195 C440 147 363 134 289 134 L209 134 L209 633 L289 633 C363 633 440 620 494 572 C537 534 565 473 565 384 C565 294 537 233 494 195 L494 195 Z " />
<glyph glyph-name="uni01C5" unicode="&#x1c5;" horiz-adv-x="1287" d="M586 686 C509 744 404 767 291 767 L59 767 L59 0 L291 0 C404 0 509 23 586 81 C665 141 715 239 715 384 C715 528 665 626 586 686 L586 686 Z M1194 767 L1080 767 L1021 680 L964 767 L850 767 L966 610 L1077 610 L1194 767 Z M494 195 C440 147 363 134 289 134 L209 134 L209 633 L289 633 C363 633 440 620 494 572 C537 534 565 473 565 384 C565 294 537 233 494 195 L494 195 Z M944 140 L1239 349 L1239 542 L796 542 L796 413 L1080 413 L1080 402 L786 193 L786 0 L1251 0 L1251 129 L944 129 L944 140 Z " />
<glyph glyph-name="uni01C6" unicode="&#x1c6;" horiz-adv-x="1147" d="M405 513 C370 541 323 554 271 554 C127 554 33 440 33 271 C33 102 127 -12 271 -12 C323 -12 370 1 405 29 L413 29 L427 0 L554 0 L554 767 L413 767 L413 513 L405 513 Z M1054 767 L940 767 L881 680 L824 767 L710 767 L826 610 L937 610 L1054 767 Z M804 140 L1099 349 L1099 542 L656 542 L656 413 L940 413 L940 402 L646 193 L646 0 L1111 0 L1111 129 L804 129 L804 140 Z M299 110 C220 110 175 170 175 271 C175 372 220 432 299 432 C378 432 424 373 424 271 C424 169 378 110 299 110 L299 110 Z " />
<glyph glyph-name="uni01C7" unicode="&#x1c7;" horiz-adv-x="1131" d="M533 0 L533 134 L210 134 L210 767 L60 767 L60 0 L533 0 Z M814 -12 C906 -12 976 14 1020 63 C1076 126 1076 211 1076 258 L1076 767 L693 767 L693 633 L926 633 L926 279 C926 244 925 193 899 159 C882 136 852 122 814 122 C776 122 746 136 729 159 C708 187 703 226 702 258 L552 258 C552 211 552 126 608 63 C652 14 722 -12 814 -12 L814 -12 Z " />
<glyph glyph-name="uni01C8" unicode="&#x1c8;" horiz-adv-x="794" d="M669 614 C713 614 750 651 750 697 C750 741 713 778 669 778 C623 778 587 741 587 697 C587 651 623 614 669 614 L669 614 Z M533 0 L533 134 L210 134 L210 767 L60 767 L60 0 L533 0 Z M578 -225 C683 -225 740 -168 740 -63 L740 542 L598 542 L598 -63 C598 -82 583 -96 565 -96 L521 -96 L521 -225 L578 -225 Z " />
<glyph glyph-name="uni01C9" unicode="&#x1c9;" horiz-adv-x="545" d="M420 614 C464 614 501 651 501 697 C501 741 464 778 420 778 C374 778 338 741 338 697 C338 651 374 614 420 614 L420 614 Z M268 0 L268 129 L224 129 C205 129 191 143 191 162 L191 767 L49 767 L49 162 C49 57 105 0 211 0 L268 0 Z M329 -225 C434 -225 491 -168 491 -63 L491 542 L349 542 L349 -63 C349 -82 334 -96 316 -96 L272 -96 L272 -225 L329 -225 Z " />
<glyph glyph-name="uni01CA" unicode="&#x1ca;" horiz-adv-x="1396" d="M210 0 L210 633 L221 633 L486 0 L743 0 L743 767 L593 767 L593 133 L582 133 L317 767 L60 767 L60 0 L210 0 Z M1079 -12 C1171 -12 1241 14 1285 63 C1341 126 1341 211 1341 258 L1341 767 L958 767 L958 633 L1191 633 L1191 279 C1191 244 1190 193 1164 159 C1147 136 1117 122 1079 122 C1041 122 1011 136 994 159 C973 187 968 226 967 258 L817 258 C817 211 817 126 873 63 C917 14 987 -12 1079 -12 L1079 -12 Z " />
<glyph glyph-name="uni01CB" unicode="&#x1cb;" horiz-adv-x="1059" d="M934 614 C978 614 1015 651 1015 697 C1015 741 978 778 934 778 C888 778 852 741 852 697 C852 651 888 614 934 614 L934 614 Z M210 0 L210 633 L221 633 L486 0 L743 0 L743 767 L593 767 L593 133 L582 133 L317 767 L60 767 L60 0 L210 0 Z M843 -225 C948 -225 1005 -168 1005 -63 L1005 542 L863 542 L863 -63 C863 -82 848 -96 830 -96 L786 -96 L786 -225 L843 -225 Z " />
<glyph glyph-name="uni01CC" unicode="&#x1cc;" horiz-adv-x="853" d="M728 614 C772 614 809 651 809 697 C809 741 772 778 728 778 C682 778 646 741 646 697 C646 651 682 614 728 614 L728 614 Z M195 0 L195 282 C195 330 201 360 215 383 C232 411 261 426 301 426 C376 426 408 377 408 292 L408 0 L550 0 L550 327 C550 471 468 554 347 554 C286 554 238 532 205 504 L195 504 L177 542 L53 542 L53 0 L195 0 Z M637 -225 C742 -225 799 -168 799 -63 L799 542 L657 542 L657 -63 C657 -82 642 -96 624 -96 L580 -96 L580 -225 L637 -225 Z " />
<glyph glyph-name="uni01CD" unicode="&#x1cd;" horiz-adv-x="757" d="M554 992 L440 992 L381 905 L324 992 L210 992 L326 835 L437 835 L554 992 Z M279 767 L7 28 L7 0 L157 0 L214 160 L542 160 L599 0 L749 0 L749 28 L477 767 L279 767 Z M373 611 L383 611 L495 294 L261 294 L373 611 Z " />
<glyph glyph-name="uni01CE" unicode="&#x1ce;" horiz-adv-x="554" d="M453 767 L339 767 L280 680 L223 767 L109 767 L225 610 L336 610 L453 767 Z M483 459 C449 527 370 553 281 553 C126 553 58 475 51 378 L194 378 C197 409 221 442 279 442 C339 442 365 409 365 362 L365 336 L253 336 C128 336 34 288 34 166 C34 54 113 -11 227 -11 C280 -11 318 4 354 35 L364 35 L381 0 L505 0 L505 316 C505 356 506 413 483 459 L483 459 Z M247 105 C204 105 177 128 177 167 C177 221 220 231 272 231 L364 231 C360 156 332 105 247 105 L247 105 Z " />
<glyph glyph-name="uni01CF" unicode="&#x1cf;" horiz-adv-x="270" d="M311 992 L197 992 L138 905 L81 992 L-33 992 L83 835 L194 835 L311 992 Z M210 0 L210 767 L60 767 L60 0 L210 0 Z " />
<glyph glyph-name="uni01D0" unicode="&#x1d0;" horiz-adv-x="247" d="M299 767 L185 767 L126 680 L69 767 L-45 767 L71 610 L182 610 L299 767 Z M194 0 L194 542 L52 542 L52 0 L194 0 Z " />
<glyph glyph-name="uni01D1" unicode="&#x1d1;" horiz-adv-x="805" d="M578 992 L464 992 L405 905 L348 992 L234 992 L350 835 L461 835 L578 992 Z M402 779 C180 779 32 621 32 384 C32 146 180 -12 402 -12 C624 -12 772 146 772 384 C772 621 624 779 402 779 L402 779 Z M402 122 C270 122 182 227 182 384 C182 541 270 645 402 645 C534 645 622 541 622 384 C622 227 534 122 402 122 L402 122 Z " />
<glyph glyph-name="uni01D2" unicode="&#x1d2;" horiz-adv-x="614" d="M483 767 L369 767 L310 680 L253 767 L139 767 L255 610 L366 610 L483 767 Z M307 554 C147 554 32 447 32 271 C32 95 147 -12 307 -12 C466 -12 581 95 581 271 C581 447 466 554 307 554 L307 554 Z M307 110 C224 110 174 171 174 271 C174 371 224 432 307 432 C389 432 440 371 440 271 C440 171 389 110 307 110 L307 110 Z " />
<glyph glyph-name="uni01D3" unicode="&#x1d3;" horiz-adv-x="701" d="M526 992 L412 992 L353 905 L296 992 L182 992 L298 835 L409 835 L526 992 Z M497 264 C497 188 474 122 350 122 C228 122 203 185 203 264 L203 767 L53 767 L53 254 C53 90 138 -12 350 -12 C559 -12 647 88 647 254 L647 767 L497 767 L497 264 Z " />
<glyph glyph-name="uni01D4" unicode="&#x1d4;" horiz-adv-x="597" d="M470 767 L356 767 L297 680 L240 767 L126 767 L242 610 L353 610 L470 767 Z M401 260 C401 214 396 184 380 158 C362 129 332 116 294 116 C220 116 188 165 188 250 L188 542 L46 542 L46 215 C46 71 128 -12 249 -12 C312 -12 358 11 391 38 L401 38 L419 0 L543 0 L543 542 L401 542 L401 260 Z " />
<glyph glyph-name="uni01D5" unicode="&#x1d5;" horiz-adv-x="701" d="M501 1071 L501 1149 L198 1149 L198 1071 L501 1071 Z M242 827 C286 827 323 864 323 909 C323 954 286 991 242 991 C196 991 160 954 160 909 C160 864 196 827 242 827 L242 827 Z M459 827 C503 827 540 864 540 909 C540 954 503 991 459 991 C413 991 376 954 376 909 C376 864 413 827 459 827 L459 827 Z M350 -12 C559 -12 647 88 647 254 L647 767 L497 767 L497 264 C497 188 474 122 350 122 C228 122 203 185 203 264 L203 767 L53 767 L53 254 C53 90 138 -12 350 -12 L350 -12 Z " />
<glyph glyph-name="uni01D6" unicode="&#x1d6;" horiz-adv-x="597" d="M445 858 L445 936 L142 936 L142 858 L445 858 Z M186 614 C230 614 267 651 267 697 C267 741 230 778 186 778 C140 778 104 741 104 697 C104 651 140 614 186 614 L186 614 Z M403 614 C447 614 484 651 484 697 C484 741 447 778 403 778 C357 778 320 741 320 697 C320 651 357 614 403 614 L403 614 Z M249 -12 C312 -12 358 11 391 38 L401 38 L419 0 L543 0 L543 542 L401 542 L401 260 C401 214 396 184 380 158 C362 129 332 116 294 116 C220 116 188 165 188 250 L188 542 L46 542 L46 215 C46 71 128 -12 249 -12 L249 -12 Z " />
<glyph glyph-name="uni01D7" unicode="&#x1d7;" horiz-adv-x="701" d="M398 1059 L565 1216 L424 1216 L301 1059 L398 1059 Z M242 827 C286 827 323 864 323 909 C323 954 286 991 242 991 C196 991 160 954 160 909 C160 864 196 827 242 827 L242 827 Z M459 827 C503 827 540 864 540 909 C540 954 503 991 459 991 C413 991 376 954 376 909 C376 864 413 827 459 827 L459 827 Z M350 -12 C559 -12 647 88 647 254 L647 767 L497 767 L497 264 C497 188 474 122 350 122 C228 122 203 185 203 264 L203 767 L53 767 L53 254 C53 90 138 -12 350 -12 L350 -12 Z " />
<glyph glyph-name="uni01D8" unicode="&#x1d8;" horiz-adv-x="597" d="M342 846 L509 1003 L368 1003 L245 846 L342 846 Z M186 614 C230 614 267 651 267 697 C267 741 230 778 186 778 C140 778 104 741 104 697 C104 651 140 614 186 614 L186 614 Z M403 614 C447 614 484 651 484 697 C484 741 447 778 403 778 C357 778 320 741 320 697 C320 651 357 614 403 614 L403 614 Z M249 -12 C312 -12 358 11 391 38 L401 38 L419 0 L543 0 L543 542 L401 542 L401 260 C401 214 396 184 380 158 C362 129 332 116 294 116 C220 116 188 165 188 250 L188 542 L46 542 L46 215 C46 71 128 -12 249 -12 L249 -12 Z " />
<glyph glyph-name="uni01D9" unicode="&#x1d9;" horiz-adv-x="701" d="M526 1216 L412 1216 L353 1129 L296 1216 L182 1216 L298 1059 L409 1059 L526 1216 Z M242 827 C286 827 323 864 323 909 C323 954 286 991 242 991 C196 991 160 954 160 909 C160 864 196 827 242 827 L242 827 Z M459 991 C413 991 376 954 376 909 C376 864 413 827 459 827 C503 827 540 864 540 909 C540 954 503 991 459 991 L459 991 Z M497 264 C497 188 474 122 350 122 C228 122 203 185 203 264 L203 767 L53 767 L53 254 C53 90 138 -12 350 -12 C559 -12 647 88 647 254 L647 767 L497 767 L497 264 Z " />
<glyph glyph-name="uni01DA" unicode="&#x1da;" horiz-adv-x="597" d="M470 1003 L356 1003 L297 916 L240 1003 L126 1003 L242 846 L353 846 L470 1003 Z M186 614 C230 614 267 651 267 697 C267 741 230 778 186 778 C140 778 104 741 104 697 C104 651 140 614 186 614 L186 614 Z M403 778 C357 778 320 741 320 697 C320 651 357 614 403 614 C447 614 484 651 484 697 C484 741 447 778 403 778 L403 778 Z M401 260 C401 214 396 184 380 158 C362 129 332 116 294 116 C220 116 188 165 188 250 L188 542 L46 542 L46 215 C46 71 128 -12 249 -12 C312 -12 358 11 391 38 L401 38 L419 0 L543 0 L543 542 L401 542 L401 260 Z " />
<glyph glyph-name="uni01DB" unicode="&#x1db;" horiz-adv-x="701" d="M400 1059 L285 1216 L144 1216 L300 1059 L400 1059 Z M242 827 C286 827 323 864 323 909 C323 954 286 991 242 991 C196 991 160 954 160 909 C160 864 196 827 242 827 L242 827 Z M459 827 C503 827 540 864 540 909 C540 954 503 991 459 991 C413 991 376 954 376 909 C376 864 413 827 459 827 L459 827 Z M350 -12 C559 -12 647 88 647 254 L647 767 L497 767 L497 264 C497 188 474 122 350 122 C228 122 203 185 203 264 L203 767 L53 767 L53 254 C53 90 138 -12 350 -12 L350 -12 Z " />
<glyph glyph-name="uni01DC" unicode="&#x1dc;" horiz-adv-x="597" d="M344 846 L229 1003 L88 1003 L244 846 L344 846 Z M186 614 C230 614 267 651 267 697 C267 741 230 778 186 778 C140 778 104 741 104 697 C104 651 140 614 186 614 L186 614 Z M403 614 C447 614 484 651 484 697 C484 741 447 778 403 778 C357 778 320 741 320 697 C320 651 357 614 403 614 L403 614 Z M249 -12 C312 -12 358 11 391 38 L401 38 L419 0 L543 0 L543 542 L401 542 L401 260 C401 214 396 184 380 158 C362 129 332 116 294 116 C220 116 188 165 188 250 L188 542 L46 542 L46 215 C46 71 128 -12 249 -12 L249 -12 Z " />
<glyph glyph-name="Gcaron" unicode="&#x1e6;" horiz-adv-x="802" d="M587 992 L473 992 L414 905 L357 992 L243 992 L359 835 L470 835 L587 992 Z M615 284 C603 184 522 122 412 122 C270 122 182 227 182 384 C182 541 270 645 402 645 C502 645 577 585 599 487 L754 487 C725 666 590 779 402 779 C180 779 32 621 32 384 C32 146 180 -12 402 -12 C480 -12 539 5 584 41 L600 41 L619 0 L754 0 L754 418 L404 418 L404 284 L615 284 Z " />
<glyph glyph-name="uni01EB" unicode="&#x1eb;" horiz-adv-x="614" d="M581 271 C581 447 466 554 307 554 C147 554 32 447 32 271 C32 101 139 -4 290 -12 C237 -59 211 -105 211 -141 C211 -198 273 -236 396 -236 L396 -154 C340 -154 313 -136 313 -107 C313 -78 342 -38 396 0 L395 0 C507 33 581 129 581 271 L581 271 Z M307 110 C224 110 174 171 174 271 C174 371 224 432 307 432 C389 432 440 371 440 271 C440 171 389 110 307 110 L307 110 Z " />
<glyph glyph-name="uni01F1" unicode="&#x1f1;" horiz-adv-x="1403" d="M291 0 C404 0 509 23 586 81 C665 141 715 239 715 384 C715 528 665 626 586 686 C509 744 404 767 291 767 L59 767 L59 0 L291 0 Z M1375 0 L1375 134 L929 134 L929 144 L1356 561 L1356 767 L792 767 L792 633 L1204 633 L1204 623 L778 206 L778 0 L1375 0 Z M209 633 L289 633 C363 633 440 620 494 572 C537 534 565 473 565 384 C565 294 537 233 494 195 C440 147 363 134 289 134 L209 134 L209 633 Z " />
<glyph glyph-name="uni01F2" unicode="&#x1f2;" horiz-adv-x="1287" d="M291 0 C404 0 509 23 586 81 C665 141 715 239 715 384 C715 528 665 626 586 686 C509 744 404 767 291 767 L59 767 L59 0 L291 0 Z M209 633 L289 633 C363 633 440 620 494 572 C537 534 565 473 565 384 C565 294 537 233 494 195 C440 147 363 134 289 134 L209 134 L209 633 Z M1251 0 L1251 129 L944 129 L944 140 L1239 349 L1239 542 L796 542 L796 413 L1080 413 L1080 402 L786 193 L786 0 L1251 0 Z " />
<glyph glyph-name="uni01F3" unicode="&#x1f3;" horiz-adv-x="1147" d="M271 -12 C323 -12 370 1 405 29 L413 29 L427 0 L554 0 L554 767 L413 767 L413 513 L405 513 C370 541 323 554 271 554 C127 554 33 440 33 271 C33 102 127 -12 271 -12 L271 -12 Z M1111 0 L1111 129 L804 129 L804 140 L1099 349 L1099 542 L656 542 L656 413 L940 413 L940 402 L646 193 L646 0 L1111 0 Z M299 110 C220 110 175 170 175 271 C175 372 220 432 299 432 C378 432 424 373 424 271 C424 169 378 110 299 110 L299 110 Z " />
<glyph glyph-name="Aringacute" unicode="&#x1fa;" horiz-adv-x="757" d="M482 752 C495 772 503 796 503 822 C503 858 487 890 463 913 L592 1034 L451 1034 L382 946 L377 946 C308 946 253 890 253 822 C253 797 261 773 274 752 L7 28 L7 0 L157 0 L214 160 L542 160 L599 0 L749 0 L749 28 L482 752 Z M377 875 C411 875 431 853 431 823 C431 790 409 767 377 767 C347 767 324 790 324 823 C324 853 345 875 377 875 L377 875 Z M373 611 L383 611 L495 294 L261 294 L373 611 Z " />
<glyph glyph-name="aringacute" unicode="&#x1fb;" horiz-adv-x="554" d="M276 580 C346 580 402 636 402 706 C402 742 386 774 362 797 L491 918 L350 918 L281 830 L276 830 C207 830 152 774 152 706 C152 638 206 580 276 580 L276 580 Z M276 759 C310 759 330 737 330 707 C330 674 308 651 276 651 C246 651 223 674 223 707 C223 737 244 759 276 759 L276 759 Z M483 459 C449 527 370 553 281 553 C126 553 58 475 51 378 L194 378 C197 409 221 442 279 442 C339 442 365 409 365 362 L365 336 L253 336 C128 336 34 288 34 166 C34 54 113 -11 227 -11 C280 -11 318 4 354 35 L364 35 L381 0 L505 0 L505 316 C505 356 506 413 483 459 L483 459 Z M247 105 C204 105 177 128 177 167 C177 221 220 231 272 231 L364 231 C360 156 332 105 247 105 L247 105 Z " />
<glyph glyph-name="aeacute" unicode="&#x1fd;" horiz-adv-x="958" d="M546 767 L423 610 L520 610 L687 767 L546 767 Z M653 554 C577 554 511 530 462 485 C422 535 354 553 279 553 C126 553 58 476 51 379 L186 379 C190 414 216 447 277 447 C341 447 369 413 369 362 L369 334 L250 334 C126 334 34 286 34 165 C34 54 113 -11 236 -11 C318 -11 376 19 414 81 L440 81 C489 21 564 -12 653 -12 C775 -12 873 54 911 163 L759 163 C737 132 701 110 653 110 C582 110 535 155 523 231 L926 231 L927 270 C928 442 816 554 653 554 L653 554 Z M653 432 C716 432 759 397 777 336 L528 336 C546 397 590 432 653 432 L653 432 Z M245 99 C198 99 169 124 169 166 C169 220 208 234 268 234 L369 234 C364 153 334 99 245 99 L245 99 Z " />
<glyph glyph-name="Oslashacute" unicode="&#x1fe;" horiz-adv-x="805" d="M476 992 L353 835 L450 835 L617 992 L476 992 Z M680 744 L592 798 L561 747 C514 768 461 779 402 779 C180 779 32 621 32 384 C32 253 77 145 155 76 L123 23 L211 -30 L241 20 C289 -1 343 -12 402 -12 C624 -12 772 146 772 384 C772 515 727 622 648 692 L680 744 Z M182 384 C182 541 270 645 402 645 C434 645 463 639 489 628 L234 206 C201 251 182 312 182 384 L182 384 Z M402 122 C370 122 340 128 314 140 L570 563 C603 518 622 456 622 384 C622 227 534 122 402 122 L402 122 Z " />
<glyph glyph-name="oslashacute" unicode="&#x1ff;" horiz-adv-x="614" d="M381 767 L258 610 L355 610 L522 767 L381 767 Z M528 548 L450 594 L415 535 C382 548 346 554 307 554 C147 554 32 447 32 271 C32 176 66 101 122 52 L87 -6 L164 -52 L199 6 C232 -6 268 -12 307 -12 C466 -12 581 95 581 271 C581 366 548 440 492 489 L528 548 Z M174 271 C174 371 224 432 307 432 C322 432 336 430 348 426 L196 173 C182 199 174 232 174 271 L174 271 Z M307 110 C292 110 278 112 266 116 L419 368 C432 342 440 309 440 271 C440 171 389 110 307 110 L307 110 Z " />
<glyph glyph-name="uni0218" unicode="&#x218;" horiz-adv-x="682" d="M312 492 C256 508 206 522 206 574 C206 624 252 651 327 651 C416 651 462 613 475 539 L629 539 C618 701 478 779 329 779 C186 779 56 709 56 568 C56 417 194 372 261 353 L368 323 C434 304 497 288 497 214 C497 148 446 117 361 117 C242 117 180 174 180 280 L30 280 C30 85 187 -12 362 -12 C532 -12 647 80 647 230 C647 341 584 415 464 449 L312 492 Z M371 -41 C328 -41 296 -70 296 -112 C296 -149 321 -177 357 -183 L324 -242 L324 -259 L388 -259 L431 -166 C437 -152 446 -130 446 -111 C446 -71 415 -41 371 -41 L371 -41 Z " />
<glyph glyph-name="uni0219" unicode="&#x219;" horiz-adv-x="542" d="M284 349 C218 361 187 365 187 396 C187 427 222 443 262 443 C307 443 346 424 356 378 L498 378 C485 480 397 554 262 554 C143 554 46 496 46 386 C46 260 174 231 215 224 L300 209 C324 205 367 198 367 155 C367 118 337 99 282 99 C219 99 181 122 174 181 L32 181 C33 57 136 -12 280 -12 C419 -12 508 60 508 171 C508 263 444 320 339 339 L284 349 Z M275 -41 C232 -41 200 -70 200 -112 C200 -149 225 -177 261 -183 L228 -242 L228 -259 L292 -259 L335 -166 C341 -152 350 -130 350 -111 C350 -71 319 -41 275 -41 L275 -41 Z " />
<glyph glyph-name="uni021A" unicode="&#x21a;" horiz-adv-x="630" d="M6 633 L240 633 L240 0 L390 0 L390 633 L624 633 L624 767 L6 767 L6 633 Z M315 -41 C272 -41 240 -70 240 -112 C240 -149 265 -177 301 -183 L268 -242 L268 -259 L332 -259 L375 -166 C381 -152 390 -130 390 -111 C390 -71 359 -41 315 -41 L315 -41 Z " />
<glyph glyph-name="uni021B" unicode="&#x21b;" horiz-adv-x="379" d="M346 542 L246 542 L246 767 L105 767 L105 542 L18 542 L18 413 L105 413 L105 162 C105 57 161 0 267 0 L346 0 L346 129 L280 129 C261 129 246 143 246 162 L246 413 L346 413 L346 542 Z M222 -41 C179 -41 147 -70 147 -112 C147 -149 172 -177 208 -183 L175 -242 L175 -259 L239 -259 L282 -166 C288 -152 297 -130 297 -111 C297 -71 266 -41 222 -41 L222 -41 Z " />
<glyph glyph-name="uni0228" unicode="&#x228;" horiz-adv-x="607" d="M572 134 L210 134 L210 327 L527 327 L527 461 L210 461 L210 633 L550 633 L550 767 L60 767 L60 0 L284 0 L227 -89 C252 -89 277 -90 295 -96 C323 -103 335 -119 335 -137 C335 -156 320 -173 291 -173 C268 -173 239 -163 208 -134 L172 -192 C211 -224 252 -238 288 -238 C352 -238 401 -194 401 -136 C401 -97 378 -66 343 -52 C334 -49 324 -47 313 -46 L349 0 L572 0 L572 134 Z " />
<glyph glyph-name="uni0237" unicode="&#x237;" horiz-adv-x="255" d="M39 -225 C144 -225 201 -168 201 -63 L201 542 L59 542 L59 -63 C59 -82 44 -96 26 -96 L-18 -96 L-18 -225 L39 -225 Z " />
<glyph glyph-name="uni0254" unicode="&#x254;" horiz-adv-x="594" d="M287 554 C157 554 56 483 27 361 L175 361 C192 407 234 432 287 432 C370 432 420 374 420 271 C420 169 370 110 287 110 C234 110 192 136 175 181 L27 181 C56 60 158 -12 287 -12 C447 -12 562 95 562 271 C562 448 447 554 287 554 L287 554 Z " />
<glyph glyph-name="circumflex" unicode="&#x2c6;" horiz-adv-x="345" d="M228 767 L117 767 L1 610 L115 610 L172 697 L231 610 L345 610 L228 767 Z " />
<glyph glyph-name="caron" unicode="&#x2c7;" horiz-adv-x="346" d="M172 680 L115 767 L1 767 L117 610 L228 610 L345 767 L231 767 L172 680 Z " />
<glyph glyph-name="breve" unicode="&#x2d8;" horiz-adv-x="393" d="M197 609 C310 609 368 668 368 767 L275 767 C275 710 242 687 197 687 C154 687 119 708 119 767 L26 767 C26 672 78 609 197 609 L197 609 Z " />
<glyph glyph-name="dotaccent" unicode="&#x2d9;" horiz-adv-x="229" d="M115 614 C159 614 196 651 196 697 C196 741 159 778 115 778 C69 778 33 741 33 697 C33 651 69 614 115 614 L115 614 Z " />
<glyph glyph-name="ring" unicode="&#x2da;" horiz-adv-x="299" d="M148 580 C218 580 274 636 274 706 C274 776 216 830 148 830 C79 830 24 774 24 706 C24 638 78 580 148 580 L148 580 Z M148 651 C118 651 95 674 95 707 C95 737 116 759 148 759 C182 759 202 737 202 707 C202 674 180 651 148 651 L148 651 Z " />
<glyph glyph-name="ogonek" unicode="&#x2db;" horiz-adv-x="240" d="M204 -154 C148 -154 121 -136 121 -107 C121 -78 150 -38 204 0 L111 0 C49 -52 19 -102 19 -141 C19 -198 81 -236 204 -236 L204 -154 Z " />
<glyph glyph-name="tilde" unicode="&#x2dc;" horiz-adv-x="430" d="M284 611 C354 611 398 667 398 767 L319 767 C319 719 304 693 285 693 C248 693 224 770 148 770 C77 770 32 714 32 614 L108 614 C108 662 121 689 143 689 C183 689 199 611 284 611 L284 611 Z " />
<glyph glyph-name="hungarumlaut" unicode="&#x2dd;" horiz-adv-x="455" d="M103 610 L230 767 L111 767 L4 610 L103 610 Z M318 610 L463 767 L322 767 L216 610 L318 610 Z " />
<glyph glyph-name="gravecomb" unicode="&#x300;" d="M-1 610 L-116 767 L-257 767 L-101 610 L-1 610 Z " />
<glyph glyph-name="acutecomb" unicode="&#x301;" d="M-156 610 L11 767 L-130 767 L-253 610 L-156 610 Z " />
<glyph glyph-name="uni0302" unicode="&#x302;" d="M-117 767 L-228 767 L-344 610 L-230 610 L-173 697 L-114 610 L0 610 L-117 767 Z " />
<glyph glyph-name="tildecomb" unicode="&#x303;" d="M-146 611 C-76 611 -32 667 -32 767 L-111 767 C-111 719 -126 693 -145 693 C-182 693 -206 770 -282 770 C-353 770 -398 714 -398 614 L-322 614 C-322 662 -309 689 -287 689 C-247 689 -231 611 -146 611 L-146 611 Z " />
<glyph glyph-name="uni0304" unicode="&#x304;" d="M-54 622 L-54 700 L-357 700 L-357 622 L-54 622 Z " />
<glyph glyph-name="uni0306" unicode="&#x306;" d="M-196 609 C-83 609 -25 668 -25 767 L-118 767 C-118 710 -151 687 -196 687 C-239 687 -274 708 -274 767 L-367 767 C-367 672 -315 609 -196 609 L-196 609 Z " />
<glyph glyph-name="uni0307" unicode="&#x307;" d="M-114 614 C-70 614 -33 651 -33 697 C-33 741 -70 778 -114 778 C-160 778 -196 741 -196 697 C-196 651 -160 614 -114 614 L-114 614 Z " />
<glyph glyph-name="uni0308" unicode="&#x308;" d="M-331 614 C-287 614 -250 651 -250 697 C-250 741 -287 778 -331 778 C-377 778 -413 741 -413 697 C-413 651 -377 614 -331 614 L-331 614 Z M-114 614 C-70 614 -33 651 -33 697 C-33 741 -70 778 -114 778 C-160 778 -197 741 -197 697 C-197 651 -160 614 -114 614 L-114 614 Z " />
<glyph glyph-name="hookabovecomb" unicode="&#x309;" d="M-154 570 C-98 567 -29 587 -29 663 C-29 696 -45 723 -73 742 C-97 758 -129 767 -170 767 L-195 767 L-195 691 L-170 691 C-150 691 -133 689 -122 681 C-115 676 -110 668 -110 658 C-110 626 -137 621 -157 621 L-154 570 Z " />
<glyph glyph-name="uni030A" unicode="&#x30a;" d="M-151 580 C-81 580 -25 636 -25 706 C-25 776 -83 830 -151 830 C-220 830 -275 774 -275 706 C-275 638 -221 580 -151 580 L-151 580 Z M-151 651 C-181 651 -204 674 -204 707 C-204 737 -183 759 -151 759 C-117 759 -97 737 -97 707 C-97 674 -119 651 -151 651 L-151 651 Z " />
<glyph glyph-name="uni030B" unicode="&#x30b;" d="M-352 610 L-225 767 L-344 767 L-451 610 L-352 610 Z M-137 610 L8 767 L-133 767 L-239 610 L-137 610 Z " />
<glyph glyph-name="uni030C" unicode="&#x30c;" d="M-174 680 L-231 767 L-345 767 L-229 610 L-118 610 L-1 767 L-115 767 L-174 680 Z " />
<glyph glyph-name="uni030F" unicode="&#x30f;" d="M-322 767 L-463 767 L-318 610 L-216 610 L-322 767 Z M-111 767 L-230 767 L-103 610 L-4 610 L-111 767 Z " />
<glyph glyph-name="uni0312" unicode="&#x312;" d="M-61 751 L-61 767 L-125 767 L-168 683 C-174 671 -183 651 -183 634 C-183 598 -152 572 -108 572 C-65 572 -33 598 -33 635 C-33 669 -58 693 -94 698 L-61 751 Z " />
<glyph glyph-name="uni031B" unicode="&#x31b;" d="M-247 672 C-84 672 -35 721 -35 872 L-35 927 L-148 927 L-148 873 C-148 806 -154 767 -247 767 L-247 672 Z " />
<glyph glyph-name="dotbelowcomb" unicode="&#x323;" d="M-114 -236 C-70 -236 -33 -199 -33 -154 C-33 -109 -70 -72 -114 -72 C-160 -72 -196 -109 -196 -154 C-196 -199 -160 -236 -114 -236 L-114 -236 Z " />
<glyph glyph-name="uni0326" unicode="&#x326;" d="M-105 -41 C-148 -41 -180 -70 -180 -112 C-180 -149 -155 -177 -119 -183 L-152 -242 L-152 -259 L-88 -259 L-45 -166 C-39 -152 -30 -130 -30 -111 C-30 -71 -61 -41 -105 -41 L-105 -41 Z " />
<glyph glyph-name="uni0327" unicode="&#x327;" d="M-137 -238 C-73 -238 -24 -194 -24 -136 C-24 -97 -47 -66 -82 -52 C-91 -49 -101 -47 -112 -46 L-67 11 L-125 25 L-198 -89 C-173 -89 -148 -90 -130 -96 C-102 -103 -90 -119 -90 -137 C-90 -156 -105 -173 -134 -173 C-157 -173 -186 -163 -217 -134 L-253 -192 C-214 -224 -173 -238 -137 -238 L-137 -238 Z " />
<glyph glyph-name="uni0328" unicode="&#x328;" d="M-36 -154 C-92 -154 -119 -136 -119 -107 C-119 -78 -90 -38 -36 0 L-129 0 C-191 -52 -221 -102 -221 -141 C-221 -198 -159 -236 -36 -236 L-36 -154 Z " />
<glyph glyph-name="uni0335" unicode="&#x335;" d="M-55 270 L-55 370 L-377 370 L-377 270 L-55 270 Z " />
<glyph glyph-name="uni0336" unicode="&#x336;" d="M-54 270 L-54 348 L-776 348 L-776 270 L-54 270 Z " />
<glyph glyph-name="uni0337" unicode="&#x337;" d="M0 380 L0 514 L-271 264 L-271 129 L0 380 Z " />
<glyph glyph-name="uni0338" unicode="&#x338;" d="M34 607 L-44 653 L-407 53 L-330 7 L34 607 Z " />
<glyph glyph-name="uni0394" unicode="&#x394;" horiz-adv-x="670" d="M660 0 L334 809 L10 0 L660 0 Z M334 539 L498 111 L172 111 L334 539 Z " />
<glyph glyph-name="uni03A9" unicode="&#x3a9;" horiz-adv-x="878" d="M678 106 C760 173 812 274 812 388 C812 598 655 763 439 763 C225 763 65 604 65 391 C65 281 121 179 210 110 L63 110 L63 0 L378 0 L378 102 C258 119 181 220 181 387 C181 541 280 652 439 652 C596 652 696 544 696 387 C696 221 620 120 500 102 L500 0 L814 0 L814 106 L678 106 Z " />
<glyph glyph-name="uni03BC" unicode="&#x3bc;" horiz-adv-x="676" d="M215 -225 L215 2 C239 -6 265 -11 300 -11 C350 -11 415 8 459 59 L459 0 L597 0 L597 542 L459 542 L459 249 C459 156 412 117 340 117 C275 117 240 168 240 235 L240 542 L102 542 L102 -225 L215 -225 Z " />
<glyph glyph-name="pi" unicode="&#x3c0;" horiz-adv-x="600" d="M225 0 L225 420 L339 420 L339 162 C339 57 395 0 501 0 L557 0 L557 129 L514 129 C495 129 480 143 480 162 L480 420 L558 420 L558 542 L41 542 L41 420 L83 420 L83 0 L225 0 Z " />
<glyph glyph-name="uni1E44" unicode="&#x1e44;" horiz-adv-x="804" d="M402 827 C446 827 483 864 483 909 C483 954 446 991 402 991 C356 991 320 954 320 909 C320 864 356 827 402 827 L402 827 Z M210 0 L210 633 L221 633 L486 0 L743 0 L743 767 L593 767 L593 133 L582 133 L317 767 L60 767 L60 0 L210 0 Z " />
<glyph glyph-name="Wgrave" unicode="&#x1e80;" horiz-adv-x="1203" d="M651 835 L536 992 L395 992 L551 835 L651 835 Z M499 0 L597 646 L605 646 L703 0 L923 0 L1195 739 L1195 767 L1045 767 L829 167 L819 167 L728 767 L474 767 L383 167 L373 167 L157 767 L7 767 L7 739 L279 0 L499 0 Z " />
<glyph glyph-name="wgrave" unicode="&#x1e81;" horiz-adv-x="942" d="M521 610 L406 767 L265 767 L421 610 L521 610 Z M411 0 L466 413 L476 413 L531 0 L750 0 L930 542 L779 542 L646 122 L636 122 L581 542 L360 542 L305 122 L295 122 L162 542 L11 542 L192 0 L411 0 Z " />
<glyph glyph-name="Wacute" unicode="&#x1e82;" horiz-adv-x="1203" d="M649 835 L816 992 L675 992 L552 835 L649 835 Z M499 0 L597 646 L605 646 L703 0 L923 0 L1195 739 L1195 767 L1045 767 L829 167 L819 167 L728 767 L474 767 L383 167 L373 167 L157 767 L7 767 L7 739 L279 0 L499 0 Z " />
<glyph glyph-name="wacute" unicode="&#x1e83;" horiz-adv-x="942" d="M519 610 L686 767 L545 767 L422 610 L519 610 Z M411 0 L466 413 L476 413 L531 0 L750 0 L930 542 L779 542 L646 122 L636 122 L581 542 L360 542 L305 122 L295 122 L162 542 L11 542 L192 0 L411 0 Z " />
<glyph glyph-name="Wdieresis" unicode="&#x1e84;" horiz-adv-x="1203" d="M493 827 C537 827 574 864 574 909 C574 954 537 991 493 991 C447 991 411 954 411 909 C411 864 447 827 493 827 L493 827 Z M710 827 C754 827 791 864 791 909 C791 954 754 991 710 991 C664 991 627 954 627 909 C627 864 664 827 710 827 L710 827 Z M499 0 L597 646 L605 646 L703 0 L923 0 L1195 739 L1195 767 L1045 767 L829 167 L819 167 L728 767 L474 767 L383 167 L373 167 L157 767 L7 767 L7 739 L279 0 L499 0 Z " />
<glyph glyph-name="wdieresis" unicode="&#x1e85;" horiz-adv-x="942" d="M363 614 C407 614 444 651 444 697 C444 741 407 778 363 778 C317 778 281 741 281 697 C281 651 317 614 363 614 L363 614 Z M580 614 C624 614 661 651 661 697 C661 741 624 778 580 778 C534 778 497 741 497 697 C497 651 534 614 580 614 L580 614 Z M411 0 L466 413 L476 413 L531 0 L750 0 L930 542 L779 542 L646 122 L636 122 L581 542 L360 542 L305 122 L295 122 L162 542 L11 542 L192 0 L411 0 Z " />
<glyph glyph-name="uni1E9E" unicode="&#x1e9e;" horiz-adv-x="778" d="M532 447 L685 634 L685 767 L60 767 L60 0 L207 0 L207 633 L524 633 L306 367 L464 323 C530 305 593 288 593 219 C593 148 542 134 458 134 L305 134 L305 0 L498 0 C648 0 743 80 743 230 C743 341 680 406 560 439 L532 447 Z " />
<glyph glyph-name="uni1EA0" unicode="&#x1ea0;" horiz-adv-x="757" d="M279 767 L7 28 L7 0 L157 0 L214 160 L542 160 L599 0 L749 0 L749 28 L477 767 L279 767 Z M373 611 L383 611 L495 294 L261 294 L373 611 Z M378 -72 C332 -72 296 -109 296 -154 C296 -199 332 -236 378 -236 C422 -236 459 -199 459 -154 C459 -109 422 -72 378 -72 L378 -72 Z " />
<glyph glyph-name="uni1EA1" unicode="&#x1ea1;" horiz-adv-x="554" d="M483 459 C449 527 370 553 281 553 C126 553 58 475 51 378 L194 378 C197 409 221 442 279 442 C339 442 365 409 365 362 L365 336 L253 336 C128 336 34 288 34 166 C34 54 113 -11 227 -11 C280 -11 318 4 354 35 L364 35 L381 0 L505 0 L505 316 C505 356 506 413 483 459 L483 459 Z M247 105 C204 105 177 128 177 167 C177 221 220 231 272 231 L364 231 C360 156 332 105 247 105 L247 105 Z M277 -72 C231 -72 195 -109 195 -154 C195 -199 231 -236 277 -236 C321 -236 358 -199 358 -154 C358 -109 321 -72 277 -72 L277 -72 Z " />
<glyph glyph-name="uni1EA2" unicode="&#x1ea2;" horiz-adv-x="757" d="M400 906 C407 901 412 893 412 883 C412 851 385 846 365 846 L368 795 C424 792 493 812 493 888 C493 921 477 948 449 967 C425 983 393 992 352 992 L327 992 L327 916 L352 916 C372 916 389 914 400 906 L400 906 Z M279 767 L7 28 L7 0 L157 0 L214 160 L542 160 L599 0 L749 0 L749 28 L477 767 L279 767 Z M373 611 L383 611 L495 294 L261 294 L373 611 Z " />
<glyph glyph-name="uni1EA3" unicode="&#x1ea3;" horiz-adv-x="554" d="M299 681 C306 676 311 668 311 658 C311 626 284 621 264 621 L267 570 C323 567 392 587 392 663 C392 696 376 723 348 742 C324 758 292 767 251 767 L226 767 L226 691 L251 691 C271 691 288 689 299 681 L299 681 Z M483 459 C449 527 370 553 281 553 C126 553 58 475 51 378 L194 378 C197 409 221 442 279 442 C339 442 365 409 365 362 L365 336 L253 336 C128 336 34 288 34 166 C34 54 113 -11 227 -11 C280 -11 318 4 354 35 L364 35 L381 0 L505 0 L505 316 C505 356 506 413 483 459 L483 459 Z M247 105 C204 105 177 128 177 167 C177 221 220 231 272 231 L364 231 C360 156 332 105 247 105 L247 105 Z " />
<glyph glyph-name="uni1EA4" unicode="&#x1ea4;" horiz-adv-x="757" d="M452 1217 L329 1060 L426 1060 L593 1217 L452 1217 Z M436 835 L550 835 L433 992 L322 992 L206 835 L320 835 L377 922 L436 835 Z M279 767 L7 28 L7 0 L157 0 L214 160 L542 160 L599 0 L749 0 L749 28 L477 767 L279 767 Z M373 611 L383 611 L495 294 L261 294 L373 611 Z " />
<glyph glyph-name="uni1EA5" unicode="&#x1ea5;" horiz-adv-x="554" d="M351 992 L228 835 L325 835 L492 992 L351 992 Z M335 610 L449 610 L332 767 L221 767 L105 610 L219 610 L276 697 L335 610 Z M483 459 C449 527 370 553 281 553 C126 553 58 475 51 378 L194 378 C197 409 221 442 279 442 C339 442 365 409 365 362 L365 336 L253 336 C128 336 34 288 34 166 C34 54 113 -11 227 -11 C280 -11 318 4 354 35 L364 35 L381 0 L505 0 L505 316 C505 356 506 413 483 459 L483 459 Z M247 105 C204 105 177 128 177 167 C177 221 220 231 272 231 L364 231 C360 156 332 105 247 105 L247 105 Z " />
<glyph glyph-name="uni1EA6" unicode="&#x1ea6;" horiz-adv-x="757" d="M313 1217 L172 1217 L328 1060 L428 1060 L313 1217 Z M320 835 L377 922 L436 835 L550 835 L433 992 L322 992 L206 835 L320 835 Z M279 767 L7 28 L7 0 L157 0 L214 160 L542 160 L599 0 L749 0 L749 28 L477 767 L279 767 Z M373 611 L383 611 L495 294 L261 294 L373 611 Z " />
<glyph glyph-name="uni1EA7" unicode="&#x1ea7;" horiz-adv-x="554" d="M212 992 L71 992 L227 835 L327 835 L212 992 Z M219 610 L276 697 L335 610 L449 610 L332 767 L221 767 L105 610 L219 610 Z M483 459 C449 527 370 553 281 553 C126 553 58 475 51 378 L194 378 C197 409 221 442 279 442 C339 442 365 409 365 362 L365 336 L253 336 C128 336 34 288 34 166 C34 54 113 -11 227 -11 C280 -11 318 4 354 35 L364 35 L381 0 L505 0 L505 316 C505 356 506 413 483 459 L483 459 Z M247 105 C204 105 177 128 177 167 C177 221 220 231 272 231 L364 231 C360 156 332 105 247 105 L247 105 Z " />
<glyph glyph-name="uni1EA8" unicode="&#x1ea8;" horiz-adv-x="757" d="M400 1131 C407 1126 412 1118 412 1108 C412 1076 385 1071 365 1071 L368 1020 C424 1017 493 1037 493 1113 C493 1146 477 1173 449 1192 C425 1208 393 1217 352 1217 L327 1217 L327 1141 L352 1141 C372 1141 389 1139 400 1131 L400 1131 Z M436 835 L550 835 L433 992 L322 992 L206 835 L320 835 L377 922 L436 835 Z M279 767 L7 28 L7 0 L157 0 L214 160 L542 160 L599 0 L749 0 L749 28 L477 767 L279 767 Z M373 611 L383 611 L495 294 L261 294 L373 611 Z " />
<glyph glyph-name="uni1EA9" unicode="&#x1ea9;" horiz-adv-x="554" d="M299 906 C306 901 311 893 311 883 C311 851 284 846 264 846 L267 795 C323 792 392 812 392 888 C392 921 376 948 348 967 C324 983 292 992 251 992 L226 992 L226 916 L251 916 C271 916 288 914 299 906 L299 906 Z M335 610 L449 610 L332 767 L221 767 L105 610 L219 610 L276 697 L335 610 Z M483 459 C449 527 370 553 281 553 C126 553 58 475 51 378 L194 378 C197 409 221 442 279 442 C339 442 365 409 365 362 L365 336 L253 336 C128 336 34 288 34 166 C34 54 113 -11 227 -11 C280 -11 318 4 354 35 L364 35 L381 0 L505 0 L505 316 C505 356 506 413 483 459 L483 459 Z M247 105 C204 105 177 128 177 167 C177 221 220 231 272 231 L364 231 C360 156 332 105 247 105 L247 105 Z " />
<glyph glyph-name="uni1EAA" unicode="&#x1eaa;" horiz-adv-x="757" d="M306 1139 C346 1139 362 1061 447 1061 C517 1061 561 1117 561 1217 L482 1217 C482 1169 467 1143 448 1143 C411 1143 387 1220 311 1220 C240 1220 195 1164 195 1064 L271 1064 C271 1112 284 1139 306 1139 L306 1139 Z M206 835 L320 835 L377 922 L436 835 L550 835 L433 992 L322 992 L206 835 Z M279 767 L7 28 L7 0 L157 0 L214 160 L542 160 L599 0 L749 0 L749 28 L477 767 L279 767 Z M373 611 L383 611 L495 294 L261 294 L373 611 Z " />
<glyph glyph-name="uni1EAB" unicode="&#x1eab;" horiz-adv-x="554" d="M205 914 C245 914 261 836 346 836 C416 836 460 892 460 992 L381 992 C381 944 366 918 347 918 C310 918 286 995 210 995 C139 995 94 939 94 839 L170 839 C170 887 183 914 205 914 L205 914 Z M105 610 L219 610 L276 697 L335 610 L449 610 L332 767 L221 767 L105 610 Z M483 459 C449 527 370 553 281 553 C126 553 58 475 51 378 L194 378 C197 409 221 442 279 442 C339 442 365 409 365 362 L365 336 L253 336 C128 336 34 288 34 166 C34 54 113 -11 227 -11 C280 -11 318 4 354 35 L364 35 L381 0 L505 0 L505 316 C505 356 506 413 483 459 L483 459 Z M247 105 C204 105 177 128 177 167 C177 221 220 231 272 231 L364 231 C360 156 332 105 247 105 L247 105 Z " />
<glyph glyph-name="uni1EAC" unicode="&#x1eac;" horiz-adv-x="757" d="M436 835 L550 835 L433 992 L322 992 L206 835 L320 835 L377 922 L436 835 Z M279 767 L7 28 L7 0 L157 0 L214 160 L542 160 L599 0 L749 0 L749 28 L477 767 L279 767 Z M373 611 L383 611 L495 294 L261 294 L373 611 Z M378 -72 C332 -72 296 -109 296 -154 C296 -199 332 -236 378 -236 C422 -236 459 -199 459 -154 C459 -109 422 -72 378 -72 L378 -72 Z " />
<glyph glyph-name="uni1EAD" unicode="&#x1ead;" horiz-adv-x="554" d="M335 610 L449 610 L332 767 L221 767 L105 610 L219 610 L276 697 L335 610 Z M483 459 C449 527 370 553 281 553 C126 553 58 475 51 378 L194 378 C197 409 221 442 279 442 C339 442 365 409 365 362 L365 336 L253 336 C128 336 34 288 34 166 C34 54 113 -11 227 -11 C280 -11 318 4 354 35 L364 35 L381 0 L505 0 L505 316 C505 356 506 413 483 459 L483 459 Z M247 105 C204 105 177 128 177 167 C177 221 220 231 272 231 L364 231 C360 156 332 105 247 105 L247 105 Z M277 -72 C231 -72 195 -109 195 -154 C195 -199 231 -236 277 -236 C321 -236 358 -199 358 -154 C358 -109 321 -72 277 -72 L277 -72 Z " />
<glyph glyph-name="uni1EAE" unicode="&#x1eae;" horiz-adv-x="757" d="M452 1217 L329 1060 L426 1060 L593 1217 L452 1217 Z M378 834 C491 834 549 893 549 992 L456 992 C456 935 423 912 378 912 C335 912 300 933 300 992 L207 992 C207 897 259 834 378 834 L378 834 Z M279 767 L7 28 L7 0 L157 0 L214 160 L542 160 L599 0 L749 0 L749 28 L477 767 L279 767 Z M373 611 L383 611 L495 294 L261 294 L373 611 Z " />
<glyph glyph-name="uni1EAF" unicode="&#x1eaf;" horiz-adv-x="554" d="M351 992 L228 835 L325 835 L492 992 L351 992 Z M277 609 C390 609 448 668 448 767 L355 767 C355 710 322 687 277 687 C234 687 199 708 199 767 L106 767 C106 672 158 609 277 609 L277 609 Z M483 459 C449 527 370 553 281 553 C126 553 58 475 51 378 L194 378 C197 409 221 442 279 442 C339 442 365 409 365 362 L365 336 L253 336 C128 336 34 288 34 166 C34 54 113 -11 227 -11 C280 -11 318 4 354 35 L364 35 L381 0 L505 0 L505 316 C505 356 506 413 483 459 L483 459 Z M247 105 C204 105 177 128 177 167 C177 221 220 231 272 231 L364 231 C360 156 332 105 247 105 L247 105 Z " />
<glyph glyph-name="uni1EB0" unicode="&#x1eb0;" horiz-adv-x="757" d="M313 1217 L172 1217 L328 1060 L428 1060 L313 1217 Z M207 992 C207 897 259 834 378 834 C491 834 549 893 549 992 L456 992 C456 935 423 912 378 912 C335 912 300 933 300 992 L207 992 Z M279 767 L7 28 L7 0 L157 0 L214 160 L542 160 L599 0 L749 0 L749 28 L477 767 L279 767 Z M373 611 L383 611 L495 294 L261 294 L373 611 Z " />
<glyph glyph-name="uni1EB1" unicode="&#x1eb1;" horiz-adv-x="554" d="M212 992 L71 992 L227 835 L327 835 L212 992 Z M106 767 C106 672 158 609 277 609 C390 609 448 668 448 767 L355 767 C355 710 322 687 277 687 C234 687 199 708 199 767 L106 767 Z M483 459 C449 527 370 553 281 553 C126 553 58 475 51 378 L194 378 C197 409 221 442 279 442 C339 442 365 409 365 362 L365 336 L253 336 C128 336 34 288 34 166 C34 54 113 -11 227 -11 C280 -11 318 4 354 35 L364 35 L381 0 L505 0 L505 316 C505 356 506 413 483 459 L483 459 Z M247 105 C204 105 177 128 177 167 C177 221 220 231 272 231 L364 231 C360 156 332 105 247 105 L247 105 Z " />
<glyph glyph-name="uni1EB2" unicode="&#x1eb2;" horiz-adv-x="757" d="M400 1131 C407 1126 412 1118 412 1108 C412 1076 385 1071 365 1071 L368 1020 C424 1017 493 1037 493 1113 C493 1146 477 1173 449 1192 C425 1208 393 1217 352 1217 L327 1217 L327 1141 L352 1141 C372 1141 389 1139 400 1131 L400 1131 Z M378 834 C491 834 549 893 549 992 L456 992 C456 935 423 912 378 912 C335 912 300 933 300 992 L207 992 C207 897 259 834 378 834 L378 834 Z M279 767 L7 28 L7 0 L157 0 L214 160 L542 160 L599 0 L749 0 L749 28 L477 767 L279 767 Z M373 611 L383 611 L495 294 L261 294 L373 611 Z " />
<glyph glyph-name="uni1EB3" unicode="&#x1eb3;" horiz-adv-x="554" d="M299 906 C306 901 311 893 311 883 C311 851 284 846 264 846 L267 795 C323 792 392 812 392 888 C392 921 376 948 348 967 C324 983 292 992 251 992 L226 992 L226 916 L251 916 C271 916 288 914 299 906 L299 906 Z M277 609 C390 609 448 668 448 767 L355 767 C355 710 322 687 277 687 C234 687 199 708 199 767 L106 767 C106 672 158 609 277 609 L277 609 Z M483 459 C449 527 370 553 281 553 C126 553 58 475 51 378 L194 378 C197 409 221 442 279 442 C339 442 365 409 365 362 L365 336 L253 336 C128 336 34 288 34 166 C34 54 113 -11 227 -11 C280 -11 318 4 354 35 L364 35 L381 0 L505 0 L505 316 C505 356 506 413 483 459 L483 459 Z M247 105 C204 105 177 128 177 167 C177 221 220 231 272 231 L364 231 C360 156 332 105 247 105 L247 105 Z " />
<glyph glyph-name="uni1EB4" unicode="&#x1eb4;" horiz-adv-x="757" d="M306 1139 C346 1139 362 1061 447 1061 C517 1061 561 1117 561 1217 L482 1217 C482 1169 467 1143 448 1143 C411 1143 387 1220 311 1220 C240 1220 195 1164 195 1064 L271 1064 C271 1112 284 1139 306 1139 L306 1139 Z M378 912 C335 912 300 933 300 992 L207 992 C207 897 259 834 378 834 C491 834 549 893 549 992 L456 992 C456 935 423 912 378 912 L378 912 Z M279 767 L7 28 L7 0 L157 0 L214 160 L542 160 L599 0 L749 0 L749 28 L477 767 L279 767 Z M373 611 L383 611 L495 294 L261 294 L373 611 Z " />
<glyph glyph-name="uni1EB5" unicode="&#x1eb5;" horiz-adv-x="554" d="M205 914 C245 914 261 836 346 836 C416 836 460 892 460 992 L381 992 C381 944 366 918 347 918 C310 918 286 995 210 995 C139 995 94 939 94 839 L170 839 C170 887 183 914 205 914 L205 914 Z M277 687 C234 687 199 708 199 767 L106 767 C106 672 158 609 277 609 C390 609 448 668 448 767 L355 767 C355 710 322 687 277 687 L277 687 Z M483 459 C449 527 370 553 281 553 C126 553 58 475 51 378 L194 378 C197 409 221 442 279 442 C339 442 365 409 365 362 L365 336 L253 336 C128 336 34 288 34 166 C34 54 113 -11 227 -11 C280 -11 318 4 354 35 L364 35 L381 0 L505 0 L505 316 C505 356 506 413 483 459 L483 459 Z M247 105 C204 105 177 128 177 167 C177 221 220 231 272 231 L364 231 C360 156 332 105 247 105 L247 105 Z " />
<glyph glyph-name="uni1EB6" unicode="&#x1eb6;" horiz-adv-x="757" d="M378 834 C491 834 549 893 549 992 L456 992 C456 935 423 912 378 912 C335 912 300 933 300 992 L207 992 C207 897 259 834 378 834 L378 834 Z M279 767 L7 28 L7 0 L157 0 L214 160 L542 160 L599 0 L749 0 L749 28 L477 767 L279 767 Z M373 611 L383 611 L495 294 L261 294 L373 611 Z M378 -72 C332 -72 296 -109 296 -154 C296 -199 332 -236 378 -236 C422 -236 459 -199 459 -154 C459 -109 422 -72 378 -72 L378 -72 Z " />
<glyph glyph-name="uni1EB7" unicode="&#x1eb7;" horiz-adv-x="554" d="M277 609 C390 609 448 668 448 767 L355 767 C355 710 322 687 277 687 C234 687 199 708 199 767 L106 767 C106 672 158 609 277 609 L277 609 Z M483 459 C449 527 370 553 281 553 C126 553 58 475 51 378 L194 378 C197 409 221 442 279 442 C339 442 365 409 365 362 L365 336 L253 336 C128 336 34 288 34 166 C34 54 113 -11 227 -11 C280 -11 318 4 354 35 L364 35 L381 0 L505 0 L505 316 C505 356 506 413 483 459 L483 459 Z M247 105 C204 105 177 128 177 167 C177 221 220 231 272 231 L364 231 C360 156 332 105 247 105 L247 105 Z M277 -72 C231 -72 195 -109 195 -154 C195 -199 231 -236 277 -236 C321 -236 358 -199 358 -154 C358 -109 321 -72 277 -72 L277 -72 Z " />
<glyph glyph-name="uni1EB8" unicode="&#x1eb8;" horiz-adv-x="607" d="M572 0 L572 134 L210 134 L210 327 L527 327 L527 461 L210 461 L210 633 L550 633 L550 767 L60 767 L60 0 L572 0 Z M316 -236 C360 -236 397 -199 397 -154 C397 -109 360 -72 316 -72 C270 -72 234 -109 234 -154 C234 -199 270 -236 316 -236 L316 -236 Z " />
<glyph glyph-name="uni1EB9" unicode="&#x1eb9;" horiz-adv-x="612" d="M307 554 C147 554 32 447 32 271 C32 95 147 -12 307 -12 C429 -12 527 54 565 163 L413 163 C391 132 355 110 307 110 C236 110 189 155 177 231 L580 231 L581 270 C582 442 470 554 307 554 L307 554 Z M307 432 C370 432 413 397 431 336 L182 336 C200 397 244 432 307 432 L307 432 Z M308 -72 C262 -72 226 -109 226 -154 C226 -199 262 -236 308 -236 C352 -236 389 -199 389 -154 C389 -109 352 -72 308 -72 L308 -72 Z " />
<glyph glyph-name="uni1EBA" unicode="&#x1eba;" horiz-adv-x="607" d="M306 795 C362 792 431 812 431 888 C431 921 415 948 387 967 C363 983 331 992 290 992 L265 992 L265 916 L290 916 C310 916 327 914 338 906 C345 901 350 893 350 883 C350 851 323 846 303 846 L306 795 Z M572 0 L572 134 L210 134 L210 327 L527 327 L527 461 L210 461 L210 633 L550 633 L550 767 L60 767 L60 0 L572 0 Z " />
<glyph glyph-name="uni1EBB" unicode="&#x1ebb;" horiz-adv-x="612" d="M330 681 C337 676 342 668 342 658 C342 626 315 621 295 621 L298 570 C354 567 423 587 423 663 C423 696 407 723 379 742 C355 758 323 767 282 767 L257 767 L257 691 L282 691 C302 691 319 689 330 681 L330 681 Z M307 554 C147 554 32 447 32 271 C32 95 147 -12 307 -12 C429 -12 527 54 565 163 L413 163 C391 132 355 110 307 110 C236 110 189 155 177 231 L580 231 L581 270 C582 442 470 554 307 554 L307 554 Z M307 432 C370 432 413 397 431 336 L182 336 C200 397 244 432 307 432 L307 432 Z " />
<glyph glyph-name="uni1EBC" unicode="&#x1ebc;" horiz-adv-x="607" d="M385 836 C455 836 499 892 499 992 L420 992 C420 944 405 918 386 918 C349 918 325 995 249 995 C178 995 133 939 133 839 L209 839 C209 887 222 914 244 914 C284 914 300 836 385 836 L385 836 Z M572 0 L572 134 L210 134 L210 327 L527 327 L527 461 L210 461 L210 633 L550 633 L550 767 L60 767 L60 0 L572 0 Z " />
<glyph glyph-name="uni1EBD" unicode="&#x1ebd;" horiz-adv-x="612" d="M236 689 C276 689 292 611 377 611 C447 611 491 667 491 767 L412 767 C412 719 397 693 378 693 C341 693 317 770 241 770 C170 770 125 714 125 614 L201 614 C201 662 214 689 236 689 L236 689 Z M307 554 C147 554 32 447 32 271 C32 95 147 -12 307 -12 C429 -12 527 54 565 163 L413 163 C391 132 355 110 307 110 C236 110 189 155 177 231 L580 231 L581 270 C582 442 470 554 307 554 L307 554 Z M307 432 C370 432 413 397 431 336 L182 336 C200 397 244 432 307 432 L307 432 Z " />
<glyph glyph-name="uni1EBE" unicode="&#x1ebe;" horiz-adv-x="607" d="M390 1217 L267 1060 L364 1060 L531 1217 L390 1217 Z M374 835 L488 835 L371 992 L260 992 L144 835 L258 835 L315 922 L374 835 Z M210 327 L527 327 L527 461 L210 461 L210 633 L550 633 L550 767 L60 767 L60 0 L572 0 L572 134 L210 134 L210 327 Z " />
<glyph glyph-name="uni1EBF" unicode="&#x1ebf;" horiz-adv-x="612" d="M382 992 L259 835 L356 835 L523 992 L382 992 Z M366 610 L480 610 L363 767 L252 767 L136 610 L250 610 L307 697 L366 610 Z M307 554 C147 554 32 447 32 271 C32 95 147 -12 307 -12 C429 -12 527 54 565 163 L413 163 C391 132 355 110 307 110 C236 110 189 155 177 231 L580 231 L581 270 C582 442 470 554 307 554 L307 554 Z M307 432 C370 432 413 397 431 336 L182 336 C200 397 244 432 307 432 L307 432 Z " />
<glyph glyph-name="uni1EC0" unicode="&#x1ec0;" horiz-adv-x="607" d="M251 1217 L110 1217 L266 1060 L366 1060 L251 1217 Z M258 835 L315 922 L374 835 L488 835 L371 992 L260 992 L144 835 L258 835 Z M210 327 L527 327 L527 461 L210 461 L210 633 L550 633 L550 767 L60 767 L60 0 L572 0 L572 134 L210 134 L210 327 Z " />
<glyph glyph-name="uni1EC1" unicode="&#x1ec1;" horiz-adv-x="612" d="M243 992 L102 992 L258 835 L358 835 L243 992 Z M250 610 L307 697 L366 610 L480 610 L363 767 L252 767 L136 610 L250 610 Z M307 554 C147 554 32 447 32 271 C32 95 147 -12 307 -12 C429 -12 527 54 565 163 L413 163 C391 132 355 110 307 110 C236 110 189 155 177 231 L580 231 L581 270 C582 442 470 554 307 554 L307 554 Z M307 432 C370 432 413 397 431 336 L182 336 C200 397 244 432 307 432 L307 432 Z " />
<glyph glyph-name="uni1EC2" unicode="&#x1ec2;" horiz-adv-x="607" d="M338 1131 C345 1126 350 1118 350 1108 C350 1076 323 1071 303 1071 L306 1020 C362 1017 431 1037 431 1113 C431 1146 415 1173 387 1192 C363 1208 331 1217 290 1217 L265 1217 L265 1141 L290 1141 C310 1141 327 1139 338 1131 L338 1131 Z M374 835 L488 835 L371 992 L260 992 L144 835 L258 835 L315 922 L374 835 Z M210 327 L527 327 L527 461 L210 461 L210 633 L550 633 L550 767 L60 767 L60 0 L572 0 L572 134 L210 134 L210 327 Z " />
<glyph glyph-name="uni1EC3" unicode="&#x1ec3;" horiz-adv-x="612" d="M330 906 C337 901 342 893 342 883 C342 851 315 846 295 846 L298 795 C354 792 423 812 423 888 C423 921 407 948 379 967 C355 983 323 992 282 992 L257 992 L257 916 L282 916 C302 916 319 914 330 906 L330 906 Z M366 610 L480 610 L363 767 L252 767 L136 610 L250 610 L307 697 L366 610 Z M307 554 C147 554 32 447 32 271 C32 95 147 -12 307 -12 C429 -12 527 54 565 163 L413 163 C391 132 355 110 307 110 C236 110 189 155 177 231 L580 231 L581 270 C582 442 470 554 307 554 L307 554 Z M307 432 C370 432 413 397 431 336 L182 336 C200 397 244 432 307 432 L307 432 Z " />
<glyph glyph-name="uni1EC4" unicode="&#x1ec4;" horiz-adv-x="607" d="M244 1139 C284 1139 300 1061 385 1061 C455 1061 499 1117 499 1217 L420 1217 C420 1169 405 1143 386 1143 C349 1143 325 1220 249 1220 C178 1220 133 1164 133 1064 L209 1064 C209 1112 222 1139 244 1139 L244 1139 Z M144 835 L258 835 L315 922 L374 835 L488 835 L371 992 L260 992 L144 835 Z M210 327 L527 327 L527 461 L210 461 L210 633 L550 633 L550 767 L60 767 L60 0 L572 0 L572 134 L210 134 L210 327 Z " />
<glyph glyph-name="uni1EC5" unicode="&#x1ec5;" horiz-adv-x="612" d="M236 914 C276 914 292 836 377 836 C447 836 491 892 491 992 L412 992 C412 944 397 918 378 918 C341 918 317 995 241 995 C170 995 125 939 125 839 L201 839 C201 887 214 914 236 914 L236 914 Z M136 610 L250 610 L307 697 L366 610 L480 610 L363 767 L252 767 L136 610 Z M307 554 C147 554 32 447 32 271 C32 95 147 -12 307 -12 C429 -12 527 54 565 163 L413 163 C391 132 355 110 307 110 C236 110 189 155 177 231 L580 231 L581 270 C582 442 470 554 307 554 L307 554 Z M307 432 C370 432 413 397 431 336 L182 336 C200 397 244 432 307 432 L307 432 Z " />
<glyph glyph-name="uni1EC6" unicode="&#x1ec6;" horiz-adv-x="607" d="M374 835 L488 835 L371 992 L260 992 L144 835 L258 835 L315 922 L374 835 Z M210 327 L527 327 L527 461 L210 461 L210 633 L550 633 L550 767 L60 767 L60 0 L572 0 L572 134 L210 134 L210 327 Z M316 -72 C270 -72 234 -109 234 -154 C234 -199 270 -236 316 -236 C360 -236 397 -199 397 -154 C397 -109 360 -72 316 -72 L316 -72 Z " />
<glyph glyph-name="uni1EC7" unicode="&#x1ec7;" horiz-adv-x="612" d="M366 610 L480 610 L363 767 L252 767 L136 610 L250 610 L307 697 L366 610 Z M307 554 C147 554 32 447 32 271 C32 95 147 -12 307 -12 C429 -12 527 54 565 163 L413 163 C391 132 355 110 307 110 C236 110 189 155 177 231 L580 231 L581 270 C582 442 470 554 307 554 L307 554 Z M307 432 C370 432 413 397 431 336 L182 336 C200 397 244 432 307 432 L307 432 Z M308 -72 C262 -72 226 -109 226 -154 C226 -199 262 -236 308 -236 C352 -236 389 -199 389 -154 C389 -109 352 -72 308 -72 L308 -72 Z " />
<glyph glyph-name="uni1EC8" unicode="&#x1ec8;" horiz-adv-x="270" d="M125 795 C181 792 250 812 250 888 C250 921 234 948 206 967 C182 983 150 992 109 992 L84 992 L84 916 L109 916 C129 916 146 914 157 906 C164 901 169 893 169 883 C169 851 142 846 122 846 L125 795 Z M210 0 L210 767 L60 767 L60 0 L210 0 Z " />
<glyph glyph-name="uni1EC9" unicode="&#x1ec9;" horiz-adv-x="247" d="M113 570 C169 567 238 587 238 663 C238 696 222 723 194 742 C170 758 138 767 97 767 L72 767 L72 691 L97 691 C117 691 134 689 145 681 C152 676 157 668 157 658 C157 626 130 621 110 621 L113 570 Z M194 0 L194 542 L52 542 L52 0 L194 0 Z " />
<glyph glyph-name="uni1ECA" unicode="&#x1eca;" horiz-adv-x="270" d="M210 0 L210 767 L60 767 L60 0 L210 0 Z M135 -236 C179 -236 216 -199 216 -154 C216 -109 179 -72 135 -72 C89 -72 53 -109 53 -154 C53 -199 89 -236 135 -236 L135 -236 Z " />
<glyph glyph-name="uni1ECB" unicode="&#x1ecb;" horiz-adv-x="247" d="M123 614 C167 614 204 651 204 697 C204 741 167 778 123 778 C77 778 41 741 41 697 C41 651 77 614 123 614 L123 614 Z M194 0 L194 542 L52 542 L52 0 L194 0 Z M123 -236 C167 -236 204 -199 204 -154 C204 -109 167 -72 123 -72 C77 -72 41 -109 41 -154 C41 -199 77 -236 123 -236 L123 -236 Z " />
<glyph glyph-name="uni1ECC" unicode="&#x1ecc;" horiz-adv-x="805" d="M402 -12 C624 -12 772 146 772 384 C772 621 624 779 402 779 C180 779 32 621 32 384 C32 146 180 -12 402 -12 L402 -12 Z M402 122 C270 122 182 227 182 384 C182 541 270 645 402 645 C534 645 622 541 622 384 C622 227 534 122 402 122 L402 122 Z M402 -236 C446 -236 483 -199 483 -154 C483 -109 446 -72 402 -72 C356 -72 320 -109 320 -154 C320 -199 356 -236 402 -236 L402 -236 Z " />
<glyph glyph-name="uni1ECD" unicode="&#x1ecd;" horiz-adv-x="614" d="M307 -12 C466 -12 581 95 581 271 C581 447 466 554 307 554 C147 554 32 447 32 271 C32 95 147 -12 307 -12 L307 -12 Z M307 110 C224 110 174 171 174 271 C174 371 224 432 307 432 C389 432 440 371 440 271 C440 171 389 110 307 110 L307 110 Z M307 -236 C351 -236 388 -199 388 -154 C388 -109 351 -72 307 -72 C261 -72 225 -109 225 -154 C225 -199 261 -236 307 -236 L307 -236 Z " />
<glyph glyph-name="uni1ECE" unicode="&#x1ece;" horiz-adv-x="805" d="M392 795 C448 792 517 812 517 888 C517 921 501 948 473 967 C449 983 417 992 376 992 L351 992 L351 916 L376 916 C396 916 413 914 424 906 C431 901 436 893 436 883 C436 851 409 846 389 846 L392 795 Z M402 -12 C624 -12 772 146 772 384 C772 621 624 779 402 779 C180 779 32 621 32 384 C32 146 180 -12 402 -12 L402 -12 Z M402 122 C270 122 182 227 182 384 C182 541 270 645 402 645 C534 645 622 541 622 384 C622 227 534 122 402 122 L402 122 Z " />
<glyph glyph-name="uni1ECF" unicode="&#x1ecf;" horiz-adv-x="614" d="M297 570 C353 567 422 587 422 663 C422 696 406 723 378 742 C354 758 322 767 281 767 L256 767 L256 691 L281 691 C301 691 318 689 329 681 C336 676 341 668 341 658 C341 626 314 621 294 621 L297 570 Z M307 -12 C466 -12 581 95 581 271 C581 447 466 554 307 554 C147 554 32 447 32 271 C32 95 147 -12 307 -12 L307 -12 Z M307 110 C224 110 174 171 174 271 C174 371 224 432 307 432 C389 432 440 371 440 271 C440 171 389 110 307 110 L307 110 Z " />
<glyph glyph-name="uni1ED0" unicode="&#x1ed0;" horiz-adv-x="805" d="M476 1217 L353 1060 L450 1060 L617 1217 L476 1217 Z M460 835 L574 835 L457 992 L346 992 L230 835 L344 835 L401 922 L460 835 Z M402 779 C180 779 32 621 32 384 C32 146 180 -12 402 -12 C624 -12 772 146 772 384 C772 621 624 779 402 779 L402 779 Z M402 122 C270 122 182 227 182 384 C182 541 270 645 402 645 C534 645 622 541 622 384 C622 227 534 122 402 122 L402 122 Z " />
<glyph glyph-name="uni1ED1" unicode="&#x1ed1;" horiz-adv-x="614" d="M381 992 L258 835 L355 835 L522 992 L381 992 Z M365 610 L479 610 L362 767 L251 767 L135 610 L249 610 L306 697 L365 610 Z M307 554 C147 554 32 447 32 271 C32 95 147 -12 307 -12 C466 -12 581 95 581 271 C581 447 466 554 307 554 L307 554 Z M307 110 C224 110 174 171 174 271 C174 371 224 432 307 432 C389 432 440 371 440 271 C440 171 389 110 307 110 L307 110 Z " />
<glyph glyph-name="uni1ED2" unicode="&#x1ed2;" horiz-adv-x="805" d="M337 1217 L196 1217 L352 1060 L452 1060 L337 1217 Z M344 835 L401 922 L460 835 L574 835 L457 992 L346 992 L230 835 L344 835 Z M402 779 C180 779 32 621 32 384 C32 146 180 -12 402 -12 C624 -12 772 146 772 384 C772 621 624 779 402 779 L402 779 Z M402 122 C270 122 182 227 182 384 C182 541 270 645 402 645 C534 645 622 541 622 384 C622 227 534 122 402 122 L402 122 Z " />
<glyph glyph-name="uni1ED3" unicode="&#x1ed3;" horiz-adv-x="614" d="M242 992 L101 992 L257 835 L357 835 L242 992 Z M249 610 L306 697 L365 610 L479 610 L362 767 L251 767 L135 610 L249 610 Z M307 554 C147 554 32 447 32 271 C32 95 147 -12 307 -12 C466 -12 581 95 581 271 C581 447 466 554 307 554 L307 554 Z M307 110 C224 110 174 171 174 271 C174 371 224 432 307 432 C389 432 440 371 440 271 C440 171 389 110 307 110 L307 110 Z " />
<glyph glyph-name="uni1ED4" unicode="&#x1ed4;" horiz-adv-x="805" d="M424 1131 C431 1126 436 1118 436 1108 C436 1076 409 1071 389 1071 L392 1020 C448 1017 517 1037 517 1113 C517 1146 501 1173 473 1192 C449 1208 417 1217 376 1217 L351 1217 L351 1141 L376 1141 C396 1141 413 1139 424 1131 L424 1131 Z M460 835 L574 835 L457 992 L346 992 L230 835 L344 835 L401 922 L460 835 Z M402 779 C180 779 32 621 32 384 C32 146 180 -12 402 -12 C624 -12 772 146 772 384 C772 621 624 779 402 779 L402 779 Z M402 122 C270 122 182 227 182 384 C182 541 270 645 402 645 C534 645 622 541 622 384 C622 227 534 122 402 122 L402 122 Z " />
<glyph glyph-name="uni1ED5" unicode="&#x1ed5;" horiz-adv-x="614" d="M329 906 C336 901 341 893 341 883 C341 851 314 846 294 846 L297 795 C353 792 422 812 422 888 C422 921 406 948 378 967 C354 983 322 992 281 992 L256 992 L256 916 L281 916 C301 916 318 914 329 906 L329 906 Z M365 610 L479 610 L362 767 L251 767 L135 610 L249 610 L306 697 L365 610 Z M307 554 C147 554 32 447 32 271 C32 95 147 -12 307 -12 C466 -12 581 95 581 271 C581 447 466 554 307 554 L307 554 Z M307 110 C224 110 174 171 174 271 C174 371 224 432 307 432 C389 432 440 371 440 271 C440 171 389 110 307 110 L307 110 Z " />
<glyph glyph-name="uni1ED6" unicode="&#x1ed6;" horiz-adv-x="805" d="M330 1139 C370 1139 386 1061 471 1061 C541 1061 585 1117 585 1217 L506 1217 C506 1169 491 1143 472 1143 C435 1143 411 1220 335 1220 C264 1220 219 1164 219 1064 L295 1064 C295 1112 308 1139 330 1139 L330 1139 Z M230 835 L344 835 L401 922 L460 835 L574 835 L457 992 L346 992 L230 835 Z M402 779 C180 779 32 621 32 384 C32 146 180 -12 402 -12 C624 -12 772 146 772 384 C772 621 624 779 402 779 L402 779 Z M402 122 C270 122 182 227 182 384 C182 541 270 645 402 645 C534 645 622 541 622 384 C622 227 534 122 402 122 L402 122 Z " />
<glyph glyph-name="uni1ED7" unicode="&#x1ed7;" horiz-adv-x="614" d="M235 914 C275 914 291 836 376 836 C446 836 490 892 490 992 L411 992 C411 944 396 918 377 918 C340 918 316 995 240 995 C169 995 124 939 124 839 L200 839 C200 887 213 914 235 914 L235 914 Z M135 610 L249 610 L306 697 L365 610 L479 610 L362 767 L251 767 L135 610 Z M307 554 C147 554 32 447 32 271 C32 95 147 -12 307 -12 C466 -12 581 95 581 271 C581 447 466 554 307 554 L307 554 Z M307 110 C224 110 174 171 174 271 C174 371 224 432 307 432 C389 432 440 371 440 271 C440 171 389 110 307 110 L307 110 Z " />
<glyph glyph-name="uni1ED8" unicode="&#x1ed8;" horiz-adv-x="805" d="M460 835 L574 835 L457 992 L346 992 L230 835 L344 835 L401 922 L460 835 Z M402 779 C180 779 32 621 32 384 C32 146 180 -12 402 -12 C624 -12 772 146 772 384 C772 621 624 779 402 779 L402 779 Z M402 122 C270 122 182 227 182 384 C182 541 270 645 402 645 C534 645 622 541 622 384 C622 227 534 122 402 122 L402 122 Z M402 -72 C356 -72 320 -109 320 -154 C320 -199 356 -236 402 -236 C446 -236 483 -199 483 -154 C483 -109 446 -72 402 -72 L402 -72 Z " />
<glyph glyph-name="uni1ED9" unicode="&#x1ed9;" horiz-adv-x="614" d="M365 610 L479 610 L362 767 L251 767 L135 610 L249 610 L306 697 L365 610 Z M307 554 C147 554 32 447 32 271 C32 95 147 -12 307 -12 C466 -12 581 95 581 271 C581 447 466 554 307 554 L307 554 Z M307 110 C224 110 174 171 174 271 C174 371 224 432 307 432 C389 432 440 371 440 271 C440 171 389 110 307 110 L307 110 Z M307 -72 C261 -72 225 -109 225 -154 C225 -199 261 -236 307 -236 C351 -236 388 -199 388 -154 C388 -109 351 -72 307 -72 L307 -72 Z " />
<glyph glyph-name="uni1EDA" unicode="&#x1eda;" horiz-adv-x="805" d="M476 992 L353 835 L450 835 L617 992 L476 992 Z M738 782 C738 722 733 684 664 677 C599 742 509 779 402 779 C180 779 32 621 32 384 C32 146 180 -12 402 -12 C624 -12 772 146 772 384 C772 461 756 530 727 588 C820 606 851 662 851 781 L851 836 L738 836 L738 782 Z M402 122 C270 122 182 227 182 384 C182 541 270 645 402 645 C534 645 622 541 622 384 C622 227 534 122 402 122 L402 122 Z " />
<glyph glyph-name="uni1EDB" unicode="&#x1edb;" horiz-adv-x="614" d="M381 767 L258 610 L355 610 L522 767 L381 767 Z M535 558 C535 518 533 488 511 470 C462 524 391 554 307 554 C147 554 32 447 32 271 C32 95 147 -12 307 -12 C466 -12 581 95 581 271 C581 309 576 345 565 376 C627 402 648 457 648 557 L648 612 L535 612 L535 558 Z M307 110 C224 110 174 171 174 271 C174 371 224 432 307 432 C389 432 440 371 440 271 C440 171 389 110 307 110 L307 110 Z " />
<glyph glyph-name="uni1EDC" unicode="&#x1edc;" horiz-adv-x="805" d="M337 992 L196 992 L352 835 L452 835 L337 992 Z M738 782 C738 722 733 684 664 677 C599 742 509 779 402 779 C180 779 32 621 32 384 C32 146 180 -12 402 -12 C624 -12 772 146 772 384 C772 461 756 530 727 588 C820 606 851 662 851 781 L851 836 L738 836 L738 782 Z M402 122 C270 122 182 227 182 384 C182 541 270 645 402 645 C534 645 622 541 622 384 C622 227 534 122 402 122 L402 122 Z " />
<glyph glyph-name="uni1EDD" unicode="&#x1edd;" horiz-adv-x="614" d="M242 767 L101 767 L257 610 L357 610 L242 767 Z M535 558 C535 518 533 488 511 470 C462 524 391 554 307 554 C147 554 32 447 32 271 C32 95 147 -12 307 -12 C466 -12 581 95 581 271 C581 309 576 345 565 376 C627 402 648 457 648 557 L648 612 L535 612 L535 558 Z M307 110 C224 110 174 171 174 271 C174 371 224 432 307 432 C389 432 440 371 440 271 C440 171 389 110 307 110 L307 110 Z " />
<glyph glyph-name="uni1EDE" unicode="&#x1ede;" horiz-adv-x="805" d="M424 906 C431 901 436 893 436 883 C436 851 409 846 389 846 L392 795 C448 792 517 812 517 888 C517 921 501 948 473 967 C449 983 417 992 376 992 L351 992 L351 916 L376 916 C396 916 413 914 424 906 L424 906 Z M738 782 C738 722 733 684 664 677 C599 742 509 779 402 779 C180 779 32 621 32 384 C32 146 180 -12 402 -12 C624 -12 772 146 772 384 C772 461 756 530 727 588 C820 606 851 662 851 781 L851 836 L738 836 L738 782 Z M402 122 C270 122 182 227 182 384 C182 541 270 645 402 645 C534 645 622 541 622 384 C622 227 534 122 402 122 L402 122 Z " />
<glyph glyph-name="uni1EDF" unicode="&#x1edf;" horiz-adv-x="614" d="M329 681 C336 676 341 668 341 658 C341 626 314 621 294 621 L297 570 C353 567 422 587 422 663 C422 696 406 723 378 742 C354 758 322 767 281 767 L256 767 L256 691 L281 691 C301 691 318 689 329 681 L329 681 Z M535 558 C535 518 533 488 511 470 C462 524 391 554 307 554 C147 554 32 447 32 271 C32 95 147 -12 307 -12 C466 -12 581 95 581 271 C581 309 576 345 565 376 C627 402 648 457 648 557 L648 612 L535 612 L535 558 Z M307 110 C224 110 174 171 174 271 C174 371 224 432 307 432 C389 432 440 371 440 271 C440 171 389 110 307 110 L307 110 Z " />
<glyph glyph-name="uni1EE0" unicode="&#x1ee0;" horiz-adv-x="805" d="M330 914 C370 914 386 836 471 836 C541 836 585 892 585 992 L506 992 C506 944 491 918 472 918 C435 918 411 995 335 995 C264 995 219 939 219 839 L295 839 C295 887 308 914 330 914 L330 914 Z M738 782 C738 722 733 684 664 677 C599 742 509 779 402 779 C180 779 32 621 32 384 C32 146 180 -12 402 -12 C624 -12 772 146 772 384 C772 461 756 530 727 588 C820 606 851 662 851 781 L851 836 L738 836 L738 782 Z M402 122 C270 122 182 227 182 384 C182 541 270 645 402 645 C534 645 622 541 622 384 C622 227 534 122 402 122 L402 122 Z " />
<glyph glyph-name="uni1EE1" unicode="&#x1ee1;" horiz-adv-x="614" d="M235 689 C275 689 291 611 376 611 C446 611 490 667 490 767 L411 767 C411 719 396 693 377 693 C340 693 316 770 240 770 C169 770 124 714 124 614 L200 614 C200 662 213 689 235 689 L235 689 Z M535 558 C535 518 533 488 511 470 C462 524 391 554 307 554 C147 554 32 447 32 271 C32 95 147 -12 307 -12 C466 -12 581 95 581 271 C581 309 576 345 565 376 C627 402 648 457 648 557 L648 612 L535 612 L535 558 Z M307 110 C224 110 174 171 174 271 C174 371 224 432 307 432 C389 432 440 371 440 271 C440 171 389 110 307 110 L307 110 Z " />
<glyph glyph-name="uni1EE2" unicode="&#x1ee2;" horiz-adv-x="805" d="M738 782 C738 722 733 684 664 677 C599 742 509 779 402 779 C180 779 32 621 32 384 C32 146 180 -12 402 -12 C624 -12 772 146 772 384 C772 461 756 530 727 588 C820 606 851 662 851 781 L851 836 L738 836 L738 782 Z M402 122 C270 122 182 227 182 384 C182 541 270 645 402 645 C534 645 622 541 622 384 C622 227 534 122 402 122 L402 122 Z M402 -72 C356 -72 320 -109 320 -154 C320 -199 356 -236 402 -236 C446 -236 483 -199 483 -154 C483 -109 446 -72 402 -72 L402 -72 Z " />
<glyph glyph-name="uni1EE3" unicode="&#x1ee3;" horiz-adv-x="614" d="M535 558 C535 518 533 488 511 470 C462 524 391 554 307 554 C147 554 32 447 32 271 C32 95 147 -12 307 -12 C466 -12 581 95 581 271 C581 309 576 345 565 376 C627 402 648 457 648 557 L648 612 L535 612 L535 558 Z M307 110 C224 110 174 171 174 271 C174 371 224 432 307 432 C389 432 440 371 440 271 C440 171 389 110 307 110 L307 110 Z M307 -72 C261 -72 225 -109 225 -154 C225 -199 261 -236 307 -236 C351 -236 388 -199 388 -154 C388 -109 351 -72 307 -72 L307 -72 Z " />
<glyph glyph-name="uni1EE4" unicode="&#x1ee4;" horiz-adv-x="701" d="M350 -12 C559 -12 647 88 647 254 L647 767 L497 767 L497 264 C497 188 474 122 350 122 C228 122 203 185 203 264 L203 767 L53 767 L53 254 C53 90 138 -12 350 -12 L350 -12 Z M350 -236 C394 -236 431 -199 431 -154 C431 -109 394 -72 350 -72 C304 -72 268 -109 268 -154 C268 -199 304 -236 350 -236 L350 -236 Z " />
<glyph glyph-name="uni1EE5" unicode="&#x1ee5;" horiz-adv-x="597" d="M249 -12 C312 -12 358 11 391 38 L401 38 L419 0 L543 0 L543 542 L401 542 L401 260 C401 214 396 184 380 158 C362 129 332 116 294 116 C220 116 188 165 188 250 L188 542 L46 542 L46 215 C46 71 128 -12 249 -12 L249 -12 Z M294 -236 C338 -236 375 -199 375 -154 C375 -109 338 -72 294 -72 C248 -72 212 -109 212 -154 C212 -199 248 -236 294 -236 L294 -236 Z " />
<glyph glyph-name="uni1EE6" unicode="&#x1ee6;" horiz-adv-x="701" d="M340 795 C396 792 465 812 465 888 C465 921 449 948 421 967 C397 983 365 992 324 992 L299 992 L299 916 L324 916 C344 916 361 914 372 906 C379 901 384 893 384 883 C384 851 357 846 337 846 L340 795 Z M350 -12 C559 -12 647 88 647 254 L647 767 L497 767 L497 264 C497 188 474 122 350 122 C228 122 203 185 203 264 L203 767 L53 767 L53 254 C53 90 138 -12 350 -12 L350 -12 Z " />
<glyph glyph-name="uni1EE7" unicode="&#x1ee7;" horiz-adv-x="597" d="M284 570 C340 567 409 587 409 663 C409 696 393 723 365 742 C341 758 309 767 268 767 L243 767 L243 691 L268 691 C288 691 305 689 316 681 C323 676 328 668 328 658 C328 626 301 621 281 621 L284 570 Z M249 -12 C312 -12 358 11 391 38 L401 38 L419 0 L543 0 L543 542 L401 542 L401 260 C401 214 396 184 380 158 C362 129 332 116 294 116 C220 116 188 165 188 250 L188 542 L46 542 L46 215 C46 71 128 -12 249 -12 L249 -12 Z " />
<glyph glyph-name="uni1EE8" unicode="&#x1ee8;" horiz-adv-x="701" d="M424 992 L301 835 L398 835 L565 992 L424 992 Z M698 783 C698 730 694 695 647 682 L647 767 L497 767 L497 264 C497 188 474 122 350 122 C228 122 203 185 203 264 L203 767 L53 767 L53 254 C53 90 138 -12 350 -12 C559 -12 647 88 647 254 L647 584 C772 594 811 647 811 782 L811 837 L698 837 L698 783 Z " />
<glyph glyph-name="uni1EE9" unicode="&#x1ee9;" horiz-adv-x="597" d="M368 767 L245 610 L342 610 L509 767 L368 767 Z M594 648 C594 581 588 542 495 542 L401 542 L401 260 C401 214 396 184 380 158 C362 129 332 116 294 116 C220 116 188 165 188 250 L188 542 L46 542 L46 215 C46 71 128 -12 249 -12 C312 -12 358 11 391 38 L401 38 L419 0 L543 0 L543 449 C668 459 707 512 707 647 L707 702 L594 702 L594 648 Z " />
<glyph glyph-name="uni1EEA" unicode="&#x1eea;" horiz-adv-x="701" d="M285 992 L144 992 L300 835 L400 835 L285 992 Z M698 783 C698 730 694 695 647 682 L647 767 L497 767 L497 264 C497 188 474 122 350 122 C228 122 203 185 203 264 L203 767 L53 767 L53 254 C53 90 138 -12 350 -12 C559 -12 647 88 647 254 L647 584 C772 594 811 647 811 782 L811 837 L698 837 L698 783 Z " />
<glyph glyph-name="uni1EEB" unicode="&#x1eeb;" horiz-adv-x="597" d="M229 767 L88 767 L244 610 L344 610 L229 767 Z M594 648 C594 581 588 542 495 542 L401 542 L401 260 C401 214 396 184 380 158 C362 129 332 116 294 116 C220 116 188 165 188 250 L188 542 L46 542 L46 215 C46 71 128 -12 249 -12 C312 -12 358 11 391 38 L401 38 L419 0 L543 0 L543 449 C668 459 707 512 707 647 L707 702 L594 702 L594 648 Z " />
<glyph glyph-name="uni1EEC" unicode="&#x1eec;" horiz-adv-x="701" d="M372 906 C379 901 384 893 384 883 C384 851 357 846 337 846 L340 795 C396 792 465 812 465 888 C465 921 449 948 421 967 C397 983 365 992 324 992 L299 992 L299 916 L324 916 C344 916 361 914 372 906 L372 906 Z M698 783 C698 730 694 695 647 682 L647 767 L497 767 L497 264 C497 188 474 122 350 122 C228 122 203 185 203 264 L203 767 L53 767 L53 254 C53 90 138 -12 350 -12 C559 -12 647 88 647 254 L647 584 C772 594 811 647 811 782 L811 837 L698 837 L698 783 Z " />
<glyph glyph-name="uni1EED" unicode="&#x1eed;" horiz-adv-x="597" d="M316 681 C323 676 328 668 328 658 C328 626 301 621 281 621 L284 570 C340 567 409 587 409 663 C409 696 393 723 365 742 C341 758 309 767 268 767 L243 767 L243 691 L268 691 C288 691 305 689 316 681 L316 681 Z M594 648 C594 581 588 542 495 542 L401 542 L401 260 C401 214 396 184 380 158 C362 129 332 116 294 116 C220 116 188 165 188 250 L188 542 L46 542 L46 215 C46 71 128 -12 249 -12 C312 -12 358 11 391 38 L401 38 L419 0 L543 0 L543 449 C668 459 707 512 707 647 L707 702 L594 702 L594 648 Z " />
<glyph glyph-name="uni1EEE" unicode="&#x1eee;" horiz-adv-x="701" d="M278 914 C318 914 334 836 419 836 C489 836 533 892 533 992 L454 992 C454 944 439 918 420 918 C383 918 359 995 283 995 C212 995 167 939 167 839 L243 839 C243 887 256 914 278 914 L278 914 Z M698 783 C698 730 694 695 647 682 L647 767 L497 767 L497 264 C497 188 474 122 350 122 C228 122 203 185 203 264 L203 767 L53 767 L53 254 C53 90 138 -12 350 -12 C559 -12 647 88 647 254 L647 584 C772 594 811 647 811 782 L811 837 L698 837 L698 783 Z " />
<glyph glyph-name="uni1EEF" unicode="&#x1eef;" horiz-adv-x="597" d="M222 689 C262 689 278 611 363 611 C433 611 477 667 477 767 L398 767 C398 719 383 693 364 693 C327 693 303 770 227 770 C156 770 111 714 111 614 L187 614 C187 662 200 689 222 689 L222 689 Z M594 648 C594 581 588 542 495 542 L401 542 L401 260 C401 214 396 184 380 158 C362 129 332 116 294 116 C220 116 188 165 188 250 L188 542 L46 542 L46 215 C46 71 128 -12 249 -12 C312 -12 358 11 391 38 L401 38 L419 0 L543 0 L543 449 C668 459 707 512 707 647 L707 702 L594 702 L594 648 Z " />
<glyph glyph-name="uni1EF0" unicode="&#x1ef0;" horiz-adv-x="701" d="M698 783 C698 730 694 695 647 682 L647 767 L497 767 L497 264 C497 188 474 122 350 122 C228 122 203 185 203 264 L203 767 L53 767 L53 254 C53 90 138 -12 350 -12 C559 -12 647 88 647 254 L647 584 C772 594 811 647 811 782 L811 837 L698 837 L698 783 Z M350 -72 C304 -72 268 -109 268 -154 C268 -199 304 -236 350 -236 C394 -236 431 -199 431 -154 C431 -109 394 -72 350 -72 L350 -72 Z " />
<glyph glyph-name="uni1EF1" unicode="&#x1ef1;" horiz-adv-x="597" d="M594 648 C594 581 588 542 495 542 L401 542 L401 260 C401 214 396 184 380 158 C362 129 332 116 294 116 C220 116 188 165 188 250 L188 542 L46 542 L46 215 C46 71 128 -12 249 -12 C312 -12 358 11 391 38 L401 38 L419 0 L543 0 L543 449 C668 459 707 512 707 647 L707 702 L594 702 L594 648 Z M294 -72 C248 -72 212 -109 212 -154 C212 -199 248 -236 294 -236 C338 -236 375 -199 375 -154 C375 -109 338 -72 294 -72 L294 -72 Z " />
<glyph glyph-name="Ygrave" unicode="&#x1ef2;" horiz-adv-x="699" d="M399 835 L284 992 L143 992 L299 835 L399 835 Z M424 0 L424 286 L696 739 L696 767 L538 767 L354 452 L344 452 L160 767 L2 767 L2 739 L274 286 L274 0 L424 0 Z " />
<glyph glyph-name="ygrave" unicode="&#x1ef3;" horiz-adv-x="601" d="M235 767 L94 767 L250 610 L350 610 L235 767 Z M305 122 L295 122 L162 542 L11 542 L192 0 L265 0 L245 -56 C237 -78 216 -95 189 -95 L74 -95 L74 -224 L224 -224 C286 -224 339 -188 361 -129 L409 0 L589 542 L438 542 L305 122 Z " />
<glyph glyph-name="uni1EF4" unicode="&#x1ef4;" horiz-adv-x="699" d="M424 0 L424 286 L696 739 L696 767 L538 767 L354 452 L344 452 L160 767 L2 767 L2 739 L274 286 L274 0 L424 0 Z M349 -236 C393 -236 430 -199 430 -154 C430 -109 393 -72 349 -72 C303 -72 267 -109 267 -154 C267 -199 303 -236 349 -236 L349 -236 Z " />
<glyph glyph-name="uni1EF5" unicode="&#x1ef5;" horiz-adv-x="601" d="M438 542 L305 122 L295 122 L162 542 L11 542 L192 0 L265 0 L245 -56 C237 -78 216 -95 189 -95 L74 -95 L74 -224 L224 -224 C286 -224 339 -188 361 -129 L409 0 L589 542 L438 542 Z M477 -72 C431 -72 395 -109 395 -154 C395 -199 431 -236 477 -236 C521 -236 558 -199 558 -154 C558 -109 521 -72 477 -72 L477 -72 Z " />
<glyph glyph-name="uni1EF6" unicode="&#x1ef6;" horiz-adv-x="699" d="M339 795 C395 792 464 812 464 888 C464 921 448 948 420 967 C396 983 364 992 323 992 L298 992 L298 916 L323 916 C343 916 360 914 371 906 C378 901 383 893 383 883 C383 851 356 846 336 846 L339 795 Z M424 0 L424 286 L696 739 L696 767 L538 767 L354 452 L344 452 L160 767 L2 767 L2 739 L274 286 L274 0 L424 0 Z " />
<glyph glyph-name="uni1EF7" unicode="&#x1ef7;" horiz-adv-x="601" d="M322 681 C329 676 334 668 334 658 C334 626 307 621 287 621 L290 570 C346 567 415 587 415 663 C415 696 399 723 371 742 C347 758 315 767 274 767 L249 767 L249 691 L274 691 C294 691 311 689 322 681 L322 681 Z M305 122 L295 122 L162 542 L11 542 L192 0 L265 0 L245 -56 C237 -78 216 -95 189 -95 L74 -95 L74 -224 L224 -224 C286 -224 339 -188 361 -129 L409 0 L589 542 L438 542 L305 122 Z " />
<glyph glyph-name="uni1EF8" unicode="&#x1ef8;" horiz-adv-x="699" d="M418 836 C488 836 532 892 532 992 L453 992 C453 944 438 918 419 918 C382 918 358 995 282 995 C211 995 166 939 166 839 L242 839 C242 887 255 914 277 914 C317 914 333 836 418 836 L418 836 Z M424 0 L424 286 L696 739 L696 767 L538 767 L354 452 L344 452 L160 767 L2 767 L2 739 L274 286 L274 0 L424 0 Z " />
<glyph glyph-name="uni1EF9" unicode="&#x1ef9;" horiz-adv-x="601" d="M228 689 C268 689 284 611 369 611 C439 611 483 667 483 767 L404 767 C404 719 389 693 370 693 C333 693 309 770 233 770 C162 770 117 714 117 614 L193 614 C193 662 206 689 228 689 L228 689 Z M305 122 L295 122 L162 542 L11 542 L192 0 L265 0 L245 -56 C237 -78 216 -95 189 -95 L74 -95 L74 -224 L224 -224 C286 -224 339 -188 361 -129 L409 0 L589 542 L438 542 L305 122 Z " />
<glyph glyph-name="endash" unicode="&#x2013;" horiz-adv-x="500" d="M500 221 L500 321 L0 321 L0 221 L500 221 Z " />
<glyph glyph-name="emdash" unicode="&#x2014;" horiz-adv-x="1000" d="M1000 221 L1000 321 L0 321 L0 221 L1000 221 Z " />
<glyph glyph-name="uni2015" unicode="&#x2015;" horiz-adv-x="500" d="M500 221 L500 321 L0 321 L0 221 L500 221 Z " />
<glyph glyph-name="quoteleft" unicode="&#x2018;" horiz-adv-x="260" d="M202 748 L202 767 L126 767 L47 594 C37 573 29 549 29 521 C29 472 68 430 124 430 C183 430 221 472 221 521 C221 569 189 610 136 615 L202 748 Z " />
<glyph glyph-name="quoteright" unicode="&#x2019;" horiz-adv-x="260" d="M136 779 C77 779 39 737 39 688 C39 640 71 599 124 594 L58 461 L58 442 L134 442 L213 615 C223 636 231 660 231 688 C231 737 192 779 136 779 L136 779 Z " />
<glyph glyph-name="quotesinglbase" unicode="&#x201a;" horiz-adv-x="283" d="M147 174 C88 174 50 132 50 83 C50 35 82 -6 135 -11 L69 -144 L69 -163 L145 -163 L224 10 C234 31 242 55 242 83 C242 132 203 174 147 174 L147 174 Z " />
<glyph glyph-name="quotedblleft" unicode="&#x201c;" horiz-adv-x="477" d="M202 748 L202 767 L126 767 L47 594 C37 573 29 549 29 521 C29 472 68 430 124 430 C183 430 221 472 221 521 C221 569 189 610 136 615 L202 748 Z M419 748 L419 767 L343 767 L264 594 C254 573 246 549 246 521 C246 472 285 430 341 430 C400 430 438 472 438 521 C438 569 406 610 353 615 L419 748 Z " />
<glyph glyph-name="quotedblright" unicode="&#x201d;" horiz-adv-x="477" d="M136 779 C77 779 39 737 39 688 C39 640 71 599 124 594 L58 461 L58 442 L134 442 L213 615 C223 636 231 660 231 688 C231 737 192 779 136 779 L136 779 Z M353 779 C294 779 256 737 256 688 C256 640 288 599 341 594 L275 461 L275 442 L351 442 L430 615 C440 636 448 660 448 688 C448 737 409 779 353 779 L353 779 Z " />
<glyph glyph-name="quotedblbase" unicode="&#x201e;" horiz-adv-x="500" d="M147 174 C88 174 50 132 50 83 C50 35 82 -6 135 -11 L69 -144 L69 -163 L145 -163 L224 10 C234 31 242 55 242 83 C242 132 203 174 147 174 L147 174 Z M364 174 C305 174 267 132 267 83 C267 35 299 -6 352 -11 L286 -144 L286 -163 L362 -163 L441 10 C451 31 459 55 459 83 C459 132 420 174 364 174 L364 174 Z " />
<glyph glyph-name="dagger" unicode="&#x2020;" horiz-adv-x="434" d="M277 -111 L277 439 L397 439 L397 559 L277 559 L277 767 L157 767 L157 559 L37 559 L37 439 L157 439 L157 -111 L277 -111 Z " />
<glyph glyph-name="daggerdbl" unicode="&#x2021;" horiz-adv-x="492" d="M306 -111 L306 97 L426 97 L426 217 L306 217 L306 439 L426 439 L426 559 L306 559 L306 767 L186 767 L186 559 L66 559 L66 439 L186 439 L186 217 L66 217 L66 97 L186 97 L186 -111 L306 -111 Z " />
<glyph glyph-name="bullet" unicode="&#x2022;" horiz-adv-x="487" d="M243 60 C360 60 454 154 454 271 C454 388 360 482 243 482 C126 482 32 388 32 271 C32 154 126 60 243 60 L243 60 Z " />
<glyph glyph-name="ellipsis" unicode="&#x2026;" horiz-adv-x="820" d="M151 -12 C204 -12 246 31 246 83 C246 132 203 174 151 174 C96 174 54 132 54 83 C54 31 96 -12 151 -12 L151 -12 Z M411 -12 C464 -12 506 31 506 83 C506 132 463 174 411 174 C356 174 314 132 314 83 C314 31 356 -12 411 -12 L411 -12 Z M671 -12 C724 -12 766 31 766 83 C766 132 723 174 671 174 C616 174 574 132 574 83 C574 31 616 -12 671 -12 L671 -12 Z " />
<glyph glyph-name="perthousand" unicode="&#x2030;" horiz-adv-x="1132" d="M208 423 C297 423 362 500 362 600 C362 701 295 778 204 778 C112 778 49 703 49 601 C49 498 113 423 208 423 L208 423 Z M208 0 L670 767 L577 767 L114 0 L208 0 Z M208 512 C164 512 138 547 138 601 C138 654 163 689 204 689 C245 689 273 653 273 600 C273 549 245 512 208 512 L208 512 Z M580 -11 C669 -11 734 66 734 166 C734 267 668 343 577 343 C484 343 421 269 421 167 C421 63 485 -11 580 -11 L580 -11 Z M933 -11 C1022 -11 1088 66 1088 166 C1088 267 1021 343 930 343 C838 343 774 269 774 167 C774 63 839 -11 933 -11 L933 -11 Z M580 78 C537 78 510 112 510 167 C510 220 535 254 577 254 C618 254 645 219 645 166 C645 114 618 78 580 78 L580 78 Z M933 78 C890 78 863 112 863 167 C863 220 889 254 930 254 C971 254 999 219 999 166 C999 114 971 78 933 78 L933 78 Z " />
<glyph glyph-name="uni2031" unicode="&#x2031;" horiz-adv-x="1485" d="M208 423 C297 423 362 500 362 600 C362 701 295 778 204 778 C112 778 49 703 49 601 C49 498 113 423 208 423 L208 423 Z M208 0 L670 767 L577 767 L114 0 L208 0 Z M208 512 C164 512 138 547 138 601 C138 654 163 689 204 689 C245 689 273 653 273 600 C273 549 245 512 208 512 L208 512 Z M580 -11 C669 -11 734 66 734 166 C734 267 668 343 577 343 C484 343 421 269 421 167 C421 63 485 -11 580 -11 L580 -11 Z M933 -11 C1022 -11 1088 66 1088 166 C1088 267 1021 343 930 343 C838 343 774 269 774 167 C774 63 839 -11 933 -11 L933 -11 Z M1287 -11 C1375 -11 1441 66 1441 166 C1441 267 1374 343 1283 343 C1191 343 1128 269 1128 167 C1128 63 1192 -11 1287 -11 L1287 -11 Z M580 78 C537 78 510 112 510 167 C510 220 535 254 577 254 C618 254 645 219 645 166 C645 114 618 78 580 78 L580 78 Z M933 78 C890 78 863 112 863 167 C863 220 889 254 930 254 C971 254 999 219 999 166 C999 114 971 78 933 78 L933 78 Z M1287 78 C1243 78 1217 112 1217 167 C1217 220 1242 254 1283 254 C1324 254 1352 219 1352 166 C1352 114 1324 78 1287 78 L1287 78 Z " />
<glyph glyph-name="guilsinglleft" unicode="&#x2039;" horiz-adv-x="359" d="M295 193 L198 271 L295 350 L295 464 L63 271 L295 78 L295 193 Z " />
<glyph glyph-name="guilsinglright" unicode="&#x203a;" horiz-adv-x="359" d="M296 271 L64 464 L64 350 L161 271 L64 193 L64 78 L296 271 Z " />
<glyph glyph-name="fraction" unicode="&#x2044;" horiz-adv-x="178" d="M-96 0 L367 767 L273 767 L-189 0 L-96 0 Z " />
<glyph glyph-name="uni2074" unicode="&#x2074;" horiz-adv-x="418" d="M320 307 L320 408 L385 408 L385 488 L320 488 L320 767 L214 767 L33 494 L33 408 L230 408 L230 307 L320 307 Z M119 493 L225 654 L230 654 L230 488 L119 488 L119 493 Z " />
<glyph glyph-name="Euro" unicode="&#x20ac;" horiz-adv-x="792" d="M649 170 C611 132 557 111 494 111 C396 111 323 161 289 249 L466 249 L524 349 L267 349 C266 360 266 371 266 383 C266 400 267 417 269 433 L574 433 L633 533 L296 533 C332 611 402 656 494 656 C565 656 622 630 662 583 L732 701 C671 751 591 778 494 778 C318 778 195 688 149 533 L69 533 L69 433 L131 433 C130 417 129 400 129 383 C129 371 129 360 130 349 L69 349 L69 249 L145 249 C187 85 312 -11 494 -11 C594 -11 676 18 739 71 L649 170 Z " />
<glyph glyph-name="uni20B1" unicode="&#x20b1;" horiz-adv-x="678" d="M622 571 C616 641 588 696 539 729 C496 759 437 767 364 767 L101 767 L101 571 L49 571 L49 516 L101 516 L101 0 L251 0 L251 314 L364 314 C437 314 496 322 539 352 C589 386 617 442 622 516 L674 516 L674 571 L622 571 Z M339 633 C390 633 422 633 447 613 C455 606 466 595 470 571 L251 571 L251 633 L339 633 Z M447 468 C423 448 389 448 339 448 L251 448 L251 516 L471 516 C467 490 457 477 447 468 L447 468 Z " />
<glyph glyph-name="uni20B8" unicode="&#x20b8;" horiz-adv-x="757" d="M687 654 L687 767 L70 767 L70 654 L687 654 Z M447 0 L447 463 L687 463 L687 576 L70 576 L70 463 L310 463 L310 0 L447 0 Z " />
<glyph glyph-name="trademark" unicode="&#x2122;" horiz-adv-x="860" d="M219 348 L219 694 L326 694 L326 767 L24 767 L24 694 L130 694 L130 348 L219 348 Z M479 348 L479 677 L577 364 L632 364 L727 674 L727 348 L816 348 L816 767 L681 767 L605 489 L526 767 L391 767 L391 348 L479 348 Z " />
<glyph glyph-name="uni2126" unicode="&#x2126;" horiz-adv-x="919" d="M699 106 C781 173 833 274 833 388 C833 598 676 763 460 763 C246 763 86 604 86 391 C86 281 142 179 231 110 L84 110 L84 0 L399 0 L399 102 C279 119 202 220 202 387 C202 541 301 652 460 652 C617 652 717 544 717 387 C717 221 641 120 521 102 L521 0 L835 0 L835 106 L699 106 Z " />
<glyph glyph-name="arrowleft" unicode="&#x2190;" horiz-adv-x="1038" d="M436 321 L436 546 L-36 271 L436 -4 L436 221 L1038 221 L1038 321 L436 321 Z " />
<glyph glyph-name="arrowright" unicode="&#x2192;" horiz-adv-x="1038" d="M602 546 L602 321 L0 321 L0 221 L602 221 L602 -4 L1074 271 L602 546 Z " />
<glyph glyph-name="partialdiff" unicode="&#x2202;" horiz-adv-x="707" d="M311 -7 C514 -7 633 168 633 414 C633 616 554 776 352 776 C229 776 153 720 114 623 L222 593 C252 667 311 679 351 679 C449 679 501 606 501 503 L492 503 C446 532 397 546 349 546 C201 546 60 423 60 244 C60 99 152 -7 311 -7 L311 -7 Z M319 107 C247 107 182 151 182 246 C182 336 242 438 365 438 C460 438 503 372 503 299 C503 209 436 107 319 107 L319 107 Z " />
<glyph glyph-name="uni2206" unicode="&#x2206;" horiz-adv-x="710" d="M680 0 L354 809 L30 0 L680 0 Z M354 539 L518 111 L192 111 L354 539 Z " />
<glyph glyph-name="product" unicode="&#x220f;" horiz-adv-x="739" d="M244 0 L244 656 L495 656 L495 0 L606 0 L606 656 L651 656 L651 767 L89 767 L89 656 L133 656 L133 0 L244 0 Z " />
<glyph glyph-name="summation" unicode="&#x2211;" horiz-adv-x="708" d="M49 767 L49 706 L355 383 L49 61 L49 0 L642 0 L642 126 L276 126 L534 383 L275 641 L642 641 L642 767 L49 767 Z " />
<glyph glyph-name="minus" unicode="&#x2212;" horiz-adv-x="485" d="M468 221 L468 321 L17 321 L17 221 L468 221 Z " />
<glyph glyph-name="radical" unicode="&#x221a;" horiz-adv-x="663" d="M635 767 L516 767 L280 154 L201 404 L35 404 L35 293 L121 293 L273 -131 L635 767 Z " />
<glyph glyph-name="infinity" unicode="&#x221e;" horiz-adv-x="1030" d="M294 192 C369 192 452 231 514 309 C575 232 659 192 734 192 C870 192 950 278 950 399 C950 520 870 606 734 606 C660 606 577 567 514 489 C453 566 370 606 294 606 C159 606 79 520 79 399 C79 278 159 192 294 192 L294 192 Z M311 299 C241 299 197 334 197 399 C197 463 241 499 311 499 C353 499 413 468 455 399 C414 331 353 299 311 299 L311 299 Z M718 299 C675 299 615 330 573 399 C614 467 675 499 718 499 C788 499 832 463 832 399 C832 334 788 299 718 299 L718 299 Z " />
<glyph glyph-name="integral" unicode="&#x222b;" horiz-adv-x="497" d="M27 -248 C194 -248 304 -159 304 8 L304 612 C304 659 331 674 357 674 C371 674 388 670 407 654 L478 739 C442 770 399 786 357 786 C267 786 193 714 193 617 L193 11 C193 -98 149 -137 27 -137 L27 -248 Z " />
<glyph glyph-name="approxequal" unicode="&#x2248;" horiz-adv-x="527" d="M359 298 C450 298 510 378 510 493 L410 493 C410 431 389 387 359 387 C291 387 300 511 166 511 C76 511 17 438 17 329 L117 329 C117 386 135 423 166 423 C239 423 228 298 359 298 L359 298 Z M359 31 C450 31 510 111 510 226 L410 226 C410 165 389 120 359 120 C291 120 300 245 166 245 C76 245 17 171 17 62 L117 62 C117 119 135 156 166 156 C239 156 228 31 359 31 L359 31 Z " />
<glyph glyph-name="notequal" unicode="&#x2260;" horiz-adv-x="534" d="M517 439 L415 439 L477 542 L384 542 L322 439 L17 439 L17 339 L262 339 L180 203 L17 203 L17 103 L120 103 L58 0 L151 0 L213 103 L517 103 L517 203 L273 203 L355 339 L517 339 L517 439 Z " />
<glyph glyph-name="lessequal" unicode="&#x2264;" horiz-adv-x="450" d="M17 443 L17 334 L433 213 L433 319 L172 388 L433 457 L433 563 L17 443 Z M433 103 L433 203 L17 203 L17 103 L433 103 Z " />
<glyph glyph-name="greaterequal" unicode="&#x2265;" horiz-adv-x="450" d="M17 457 L278 388 L17 319 L17 213 L433 334 L433 443 L17 563 L17 457 Z M433 103 L433 203 L17 203 L17 103 L433 103 Z " />
<glyph glyph-name="lozenge" unicode="&#x25ca;" horiz-adv-x="667" d="M421 0 L628 383 L421 767 L245 767 L39 383 L245 0 L421 0 Z M169 383 L326 698 L340 698 L498 383 L340 69 L326 69 L169 383 Z " />
<glyph glyph-name="uniF8FF" unicode="&#xf8ff;" horiz-adv-x="960" d="M480 -33 C712 -33 900 154 900 387 C900 619 712 807 480 807 C248 807 60 619 60 387 C60 154 248 -33 480 -33 L480 -33 Z M480 6 C269 6 99 176 99 387 C99 598 269 768 480 768 C691 768 861 598 861 387 C861 176 691 6 480 6 L480 6 Z M261 222 C272 222 281 230 281 241 L281 532 C281 543 272 552 261 552 C251 552 242 543 242 532 L242 241 C242 230 251 222 261 222 L261 222 Z M480 222 C491 222 499 230 499 241 L499 532 C499 543 491 552 480 552 C469 552 461 543 461 532 L461 241 C461 230 469 222 480 222 L480 222 Z M698 222 C708 222 718 231 718 241 C718 246 717 250 712 254 L580 387 L712 519 C717 523 718 528 718 532 C718 542 708 552 698 552 C693 552 689 550 686 546 L539 400 C536 397 535 392 535 387 C535 382 536 378 539 373 L686 228 C689 223 693 222 698 222 L698 222 Z M407 368 C418 368 427 376 427 387 C427 398 418 406 407 406 L335 406 C323 406 316 398 316 387 C316 376 323 368 335 368 L407 368 Z " />
<glyph glyph-name="fi" unicode="&#xfb01;" horiz-adv-x="609" d="M485 614 C529 614 566 651 566 697 C566 741 529 778 485 778 C439 778 403 741 403 697 C403 651 439 614 485 614 L485 614 Z M247 605 C247 624 262 638 281 638 L347 638 L347 767 L268 767 C162 767 106 710 106 605 L106 542 L19 542 L19 413 L106 413 L106 0 L247 0 L247 413 L414 413 L414 0 L556 0 L556 542 L247 542 L247 605 Z " />
<glyph glyph-name="fl" unicode="&#xfb02;" horiz-adv-x="652" d="M586 129 C568 129 553 143 553 162 L553 767 L268 767 C162 767 106 710 106 605 L106 542 L19 542 L19 413 L106 413 L106 0 L247 0 L247 413 L347 413 L347 542 L247 542 L247 605 C247 624 262 638 281 638 L411 638 L411 162 C411 57 468 0 573 0 L630 0 L630 129 L586 129 Z " />
</font>
</svg>
