<?xml version="1.0" standalone="no"?>
<!DOCTYPE svg PUBLIC "-//W3C//DTD SVG 20010904//EN"
 "http://www.w3.org/TR/2001/REC-SVG-20010904/DTD/svg10.dtd">
<svg version="1.0" xmlns="http://www.w3.org/2000/svg"
 width="269.000000pt" height="269.000000pt" viewBox="0 0 269.000000 269.000000"
 preserveAspectRatio="xMidYMid meet">
<metadata>
Created by potrace 1.14, written by Peter Selinger 2001-2017
</metadata>
<g transform="translate(0.000000,269.000000) scale(0.100000,-0.100000)"
fill="#000000" stroke="none">
<path d="M1175 2350 c3 -6 -4 -10 -17 -10 -16 0 -19 -3 -10 -9 8 -4 13 -12 12
-16 -1 -5 11 -14 27 -21 26 -12 24 -12 -31 -12 l-59 1 24 18 c13 10 19 19 12
19 -7 0 -10 7 -7 15 5 13 2 13 -28 0 -27 -11 -38 -11 -48 -2 -7 7 -10 8 -8 2
3 -5 0 -16 -8 -23 -12 -11 -14 -10 -15 5 -1 10 -1 21 0 25 0 4 -10 2 -24 -4
-14 -6 -25 -15 -25 -20 0 -5 5 -6 10 -3 6 3 10 -1 10 -10 0 -8 -10 -19 -23
-24 -13 -5 -29 -16 -36 -25 -7 -9 -19 -16 -26 -16 -8 0 -16 -6 -18 -12 -3 -7
-6 -5 -6 6 -1 18 -2 18 -21 1 -24 -22 -16 -38 13 -29 12 3 19 3 15 -1 -4 -4
-3 -16 3 -26 8 -15 6 -17 -8 -12 -10 4 -24 12 -30 19 -10 10 -20 9 -45 -4 -18
-8 -38 -23 -44 -31 -24 -32 -54 -64 -54 -56 0 4 -7 2 -15 -5 -9 -7 -14 -19
-11 -26 3 -7 -2 -15 -10 -18 -9 -3 -13 -10 -9 -15 3 -6 -3 -14 -12 -20 -23
-12 -13 -22 15 -14 12 3 19 10 16 15 -3 5 3 4 15 -4 l21 -13 -23 -9 c-12 -4
-40 -8 -62 -7 -30 1 -36 -1 -25 -9 8 -5 24 -10 36 -10 12 0 21 -7 21 -15 0 -8
-6 -15 -14 -15 -7 0 -13 5 -13 10 0 12 -59 10 -66 -2 -3 -4 2 -8 10 -8 16 0
21 -26 10 -54 -10 -26 -30 -18 -47 17 l-16 32 1 -40 c0 -22 -2 -66 -5 -97 -4
-36 -2 -58 4 -58 6 0 7 5 4 10 -12 19 5 48 30 53 14 2 26 -1 26 -7 1 -6 2 -15
4 -21 1 -5 3 -15 3 -21 1 -6 14 -16 28 -23 17 -7 24 -17 20 -26 -5 -14 5 -19
32 -16 16 2 15 -7 -3 -25 -8 -9 -15 -11 -15 -5 0 6 -8 7 -17 4 -14 -6 -12 -9
12 -19 26 -10 30 -16 27 -46 -2 -18 -1 -30 3 -26 9 9 30 -12 39 -39 14 -44 53
-73 96 -73 23 0 47 6 53 13 22 23 57 76 57 85 0 5 11 7 25 4 28 -5 46 21 27
40 -8 8 -9 5 -5 -11 4 -17 2 -20 -11 -15 -24 9 -20 60 7 87 l22 22 3 -45 c4
-74 11 -89 59 -141 l46 -49 66 0 c36 0 71 4 77 8 18 13 54 162 44 187 -8 21
-5 23 78 39 48 9 89 16 92 16 3 0 14 -20 25 -45 11 -25 26 -45 33 -45 17 0 15
-11 -5 -25 -16 -12 -14 -12 10 -8 22 4 27 2 27 -16 0 -11 -6 -21 -12 -21 -9 0
-8 -4 2 -10 8 -5 11 -10 7 -10 -5 0 -1 -7 8 -16 12 -12 13 -19 4 -30 -6 -8 -9
-20 -6 -28 3 -8 1 -17 -6 -20 -8 -4 -9 -8 -1 -11 6 -3 9 -16 7 -29 -3 -13 1
-27 8 -31 8 -5 10 -4 5 3 -5 8 0 12 12 12 38 0 61 61 38 98 -5 9 -3 19 6 28
13 13 16 13 28 0 10 -13 10 -16 -4 -16 -18 0 -21 -15 -5 -25 5 -4 19 1 30 11
10 9 19 12 19 7 0 -6 -7 -13 -15 -17 -9 -3 -12 -12 -8 -22 5 -14 8 -15 17 -3
15 18 57 42 63 35 11 -11 -48 -58 -67 -53 -11 3 -24 -1 -31 -9 -6 -8 -16 -11
-22 -7 -6 3 -7 1 -3 -6 4 -6 11 -9 16 -6 10 6 24 -71 23 -122 -1 -26 3 -33 18
-33 22 0 71 -29 65 -39 -2 -3 7 -6 20 -6 19 0 22 4 17 22 -7 29 10 29 30 1 13
-19 16 -20 16 -5 1 20 5 21 32 6 11 -5 17 -15 13 -22 -5 -8 -4 -9 4 -2 18 16
4 113 -16 111 -8 0 -17 5 -20 13 -3 10 0 12 11 8 11 -4 14 -2 11 8 -3 8 -15
17 -25 20 -32 10 -19 40 19 43 27 3 32 0 32 -19 0 -21 1 -21 26 6 30 32 44 26
20 -10 -24 -36 -2 -31 25 6 21 29 21 33 6 44 -22 16 -21 28 4 45 59 42 56 35
32 77 -12 21 -28 38 -35 38 -16 0 -46 27 -41 38 3 4 7 6 11 4 4 -2 18 8 32 22
14 14 21 23 15 19 -21 -18 -28 -6 -7 12 44 37 33 113 -20 133 -22 8 -50 51
-52 80 -1 12 -7 21 -14 20 -7 -2 -12 2 -12 8 0 6 6 9 13 6 6 -2 21 -1 32 4 17
6 16 8 -12 14 l-32 7 30 32 c34 36 47 72 30 89 -8 8 -11 4 -11 -16 0 -32 -49
-64 -69 -44 -18 18 -14 77 7 85 13 5 8 8 -18 12 -33 5 -35 7 -32 41 2 26 -2
38 -13 43 -12 4 -14 10 -5 25 15 29 12 50 -4 29 -19 -26 -38 -21 -61 15 -12
18 -34 37 -53 43 -18 5 -29 14 -25 18 4 4 -5 2 -20 -3 -22 -9 -33 -7 -52 5
-15 10 -25 12 -30 5 -3 -7 3 -11 14 -11 12 0 21 -6 21 -14 0 -8 3 -23 7 -33 7
-17 6 -17 -11 0 -9 9 -29 17 -42 17 -14 0 -22 4 -19 10 3 6 0 10 -9 10 -9 0
-13 8 -12 24 4 31 -33 51 -59 32 -13 -10 -15 -17 -8 -32 6 -11 7 -28 2 -39 -7
-19 -10 -17 -13 15 0 9 -9 14 -21 12 -18 -2 -18 -2 -2 8 23 15 22 33 -2 25
-44 -14 -64 -13 -88 2 -32 21 -108 26 -92 6 7 -8 8 -13 1 -13 -5 0 -12 7 -16
15 -3 8 -13 15 -21 15 -9 0 -13 -4 -10 -10z m115 -35 c0 -2 -6 -7 -12 -11 -7
-4 -10 -4 -6 1 4 4 0 14 -10 22 -15 13 -15 13 6 3 12 -6 22 -13 22 -15z m-190
-5 c-20 -13 -33 -13 -25 0 3 6 14 10 23 10 15 0 15 -2 2 -10z m390 -14 c0 -2
-7 -7 -16 -10 -8 -3 -12 -2 -9 4 6 10 25 14 25 6z m-330 -88 c0 -5 -4 -8 -10
-8 -5 0 -10 4 -10 9 0 5 -9 13 -20 16 -11 4 -18 11 -15 16 6 9 54 -20 55 -33z
m215 12 c-3 -4 2 -7 10 -6 7 0 14 -3 14 -9 1 -17 -23 -11 -52 11 -35 28 -34
35 3 23 16 -6 28 -15 25 -19z m-51 -65 c3 -8 1 -15 -4 -15 -6 0 -10 7 -10 15
0 8 2 15 4 15 2 0 6 -7 10 -15z m-106 -12 c-10 -2 -26 -2 -35 0 -10 3 -2 5 17
5 19 0 27 -2 18 -5z m209 -55 c-3 -8 -6 -5 -6 6 -1 11 2 17 5 13 3 -3 4 -12 1
-19z m213 12 c0 -5 -2 -10 -4 -10 -3 0 -8 5 -11 10 -3 6 -1 10 4 10 6 0 11 -4
11 -10z m-922 -46 c2 -18 -1 -25 -10 -22 -10 4 -14 25 -9 55 2 14 15 -9 19
-33z m1066 -3 c-2 -3 -12 3 -22 13 -16 17 -16 18 5 5 12 -7 20 -15 17 -18z
m43 -3 c-3 -8 -6 -5 -6 6 -1 11 2 17 5 13 3 -3 4 -12 1 -19z m-617 -7 c12 -23
1 -29 -42 -23 -28 4 -28 5 -12 23 22 24 41 24 54 0z m237 3 c-3 -3 -12 -4 -19
-1 -8 3 -5 6 6 6 11 1 17 -2 13 -5z m108 -35 c11 -16 1 -19 -13 -3 -7 8 -8 14
-3 14 5 0 13 -5 16 -11z m-328 -23 c-6 -16 -39 -15 -45 2 -2 6 7 12 20 14 29
5 32 3 25 -16z m-84 -3 c-7 -2 -19 -2 -25 0 -7 3 -2 5 12 5 14 0 19 -2 13 -5z
m722 -51 c6 -16 -18 -2 -60 34 l-30 26 42 -24 c24 -12 45 -29 48 -36z m-655
14 c0 -2 -8 -10 -17 -17 -16 -13 -17 -12 -4 4 13 16 21 21 21 13z m-70 -40
c-6 -28 -4 -39 11 -55 23 -25 23 -25 2 -47 -16 -16 -16 -16 4 -10 12 4 24 2
27 -3 7 -11 -77 -27 -92 -17 -5 3 -10 26 -10 51 -1 27 2 44 7 40 5 -3 12 -1
16 5 3 5 -1 10 -9 10 -9 0 -16 4 -16 9 0 5 -3 16 -6 24 -5 15 2 18 62 26 8 1
10 -9 4 -33z m269 -52 c17 -39 14 -84 -6 -85 -11 0 -7 -4 10 -11 51 -18 30
-41 -53 -58 -41 -9 -83 -14 -92 -12 -20 4 -25 32 -5 32 6 0 1 9 -13 19 -20 16
-22 21 -11 35 15 17 86 40 100 32 13 -9 32 19 25 37 -3 8 0 18 5 22 6 3 9 11
6 16 -3 5 0 6 8 3 8 -3 19 -16 26 -30z m-77 -26 c-5 -5 -17 -8 -26 -6 -15 3
-15 5 0 27 15 21 18 22 26 6 7 -11 7 -20 0 -27z m395 36 c-3 -3 -12 -4 -19 -1
-8 3 -5 6 6 6 11 1 17 -2 13 -5z m-1097 -8 c0 -3 -4 -8 -10 -11 -5 -3 -10 -1
-10 4 0 6 5 11 10 11 6 0 10 -2 10 -4z m935 -46 c-3 -5 -14 -10 -23 -10 -15 0
-15 2 -2 10 20 13 33 13 25 0z m-919 -34 c15 -12 16 -17 7 -27 -10 -10 -14 -9
-19 4 -3 9 -10 14 -15 11 -5 -3 -6 -11 -3 -17 5 -9 4 -9 -5 -1 -12 11 -5 44 8
44 4 0 16 -6 27 -14z m1309 -76 c3 -5 1 -10 -4 -10 -6 0 -11 5 -11 10 0 6 2
10 4 10 3 0 8 -4 11 -10z m-975 -14 c0 -3 -4 -8 -10 -11 -5 -3 -10 -1 -10 4 0
6 5 11 10 11 6 0 10 -2 10 -4z m297 -98 c-3 -8 -6 -5 -6 6 -1 11 2 17 5 13 3
-3 4 -12 1 -19z m-24 -106 c-3 -14 -13 -22 -26 -22 -20 0 -20 1 3 25 27 29 32
28 23 -3z m757 8 c0 -5 -4 -10 -10 -10 -5 0 -10 5 -10 10 0 6 5 10 10 10 6 0
10 -4 10 -10z m-129 -83 c-1 -12 -15 -9 -19 4 -3 6 1 10 8 8 6 -3 11 -8 11
-12z m-38 -156 c-2 -6 2 -11 7 -11 6 0 10 -5 10 -10 0 -7 -6 -7 -20 0 -22 12
-28 45 -7 37 6 -2 11 -10 10 -16z"/>
<path d="M832 2273 c-7 -2 -17 -14 -23 -26 -11 -21 -10 -20 15 2 14 14 26 26
26 28 0 3 0 3 -18 -4z"/>
<path d="M1970 1888 c25 -24 38 -29 25 -9 -3 6 -16 16 -28 22 -20 11 -20 9 3
-13z"/>
<path d="M1480 1553 c0 -10 26 -43 34 -43 1 0 3 7 3 15 0 8 -4 12 -8 9 -4 -2
-12 4 -18 13 -6 10 -11 13 -11 6z"/>
<path d="M985 1380 c28 -12 45 -12 45 0 0 6 -15 10 -32 9 -28 0 -30 -2 -13 -9z"/>
<path d="M988 1335 c-9 -10 3 -45 14 -39 5 3 4 13 -4 22 -12 16 -11 16 6 2 16
-13 19 -13 15 -1 -6 16 -22 25 -31 16z"/>
<path d="M886 1284 c-9 -8 -16 -20 -16 -26 0 -6 9 -1 20 12 29 33 25 44 -4 14z"/>
<path d="M1003 1285 c-8 -21 -1 -26 37 -27 17 -1 34 -7 36 -13 7 -17 54 -16
54 1 0 8 -6 14 -13 14 -7 0 -29 9 -50 20 -44 24 -56 25 -64 5z"/>
<path d="M1163 1202 c1 -14 5 -18 11 -12 7 7 6 14 -1 21 -9 9 -12 7 -10 -9z"/>
<path d="M985 1200 c-3 -6 1 -7 9 -4 18 7 21 14 7 14 -6 0 -13 -4 -16 -10z"/>
<path d="M1068 1193 c7 -3 16 -2 19 1 4 3 -2 6 -13 5 -11 0 -14 -3 -6 -6z"/>
<path d="M1390 1186 c0 -8 4 -17 9 -20 5 -4 7 3 4 14 -6 23 -13 26 -13 6z"/>
<path d="M1350 1150 c0 -5 9 -14 20 -20 23 -12 26 -5 6 16 -17 16 -26 18 -26
4z"/>
<path d="M1436 1135 c6 -15 4 -17 -10 -12 -10 4 -15 3 -11 -3 3 -6 -1 -10 -10
-10 -8 0 -18 -7 -21 -15 -4 -8 -12 -15 -20 -15 -8 0 -14 -4 -14 -9 0 -6 -12
-6 -32 0 -17 5 -34 7 -36 4 -3 -2 1 -32 8 -65 7 -34 16 -58 19 -53 3 4 24 21
45 37 48 36 95 87 96 103 0 6 5 13 11 15 6 2 1 12 -11 23 -20 18 -21 18 -14 0z"/>
<path d="M1010 1110 l-34 -5 25 -12 c14 -6 32 -8 39 -3 22 14 6 25 -30 20z"/>
<path d="M920 1045 c0 -48 19 -95 52 -132 l20 -22 -33 -21 c-19 -12 -140 -74
-269 -138 -129 -64 -238 -121 -242 -127 -4 -5 -8 -7 -8 -2 0 20 -53 -31 -88
-86 -53 -82 -145 -345 -167 -474 l-7 -43 370 0 369 0 7 48 c3 26 10 110 16
187 7 97 17 166 35 224 28 93 31 153 13 232 -12 50 -11 52 12 71 24 19 25 26
25 121 0 94 -2 102 -20 105 -30 6 -53 30 -60 63 -11 47 -25 44 -25 -6z"/>
<path d="M1790 902 c0 -23 -62 -86 -115 -117 -59 -35 -188 -74 -266 -81 -59
-6 -67 -9 -59 -23 5 -10 22 -16 42 -16 l33 0 6 -75 c9 -107 24 -171 59 -250
16 -37 30 -84 30 -104 0 -39 39 -151 71 -203 l21 -33 499 0 c469 0 499 1 499
18 -1 36 -28 188 -40 222 -23 66 -52 120 -61 114 -5 -3 -9 8 -9 24 0 45 -67
166 -117 213 -28 26 -108 73 -216 128 -224 114 -286 148 -320 177 -34 29 -57
31 -57 6z"/>
<path d="M1142 780 c0 -19 2 -27 5 -17 2 9 2 25 0 35 -3 9 -5 1 -5 -18z"/>
<path d="M1156 240 c8 -146 25 -234 47 -238 21 -4 22 13 2 115 -8 43 -17 98
-20 123 -3 25 -13 59 -21 75 -13 28 -14 21 -8 -75z"/>
</g>
</svg>
