<svg width="85" height="85" viewBox="0 0 85 85" fill="none" xmlns="http://www.w3.org/2000/svg">
<path d="M50.6495 18.9407L50.8997 18.3367L52.8462 19.1429C53.3742 19.3616 53.8344 19.3897 54.2267 19.2272C54.6153 19.0736 54.919 18.7329 55.1377 18.2048L55.3879 17.6008L56.0274 16.057L55.7857 15.9569L56.3716 15.4919C56.1195 16.1004 55.7206 16.5066 55.1748 16.7104C54.6291 16.9142 54.034 16.8827 53.3897 16.6158C52.6558 16.3118 52.1653 15.8255 51.918 15.1569C51.6744 14.4794 51.7194 13.7379 52.053 12.9324L52.7258 11.3081C53.0595 10.5027 53.5519 9.94654 54.2033 9.63967C54.8546 9.3328 55.5472 9.33136 56.2811 9.63532C56.9254 9.90222 57.3685 10.3007 57.6103 10.8307C57.8521 11.3607 57.8469 11.93 57.5948 12.5386L57.5766 11.8233L57.7511 11.8956L58.2793 10.6203L58.9505 10.8983L55.8089 18.4829C55.5049 19.2167 55.0801 19.6855 54.5343 19.8894C53.9938 20.1058 53.3477 20.0584 52.5959 19.747L50.6495 18.9407ZM53.763 16.0942C54.3716 16.3462 54.9174 16.3574 55.4005 16.1276C55.8963 15.8926 56.2794 15.4485 56.5501 14.7952L57.2229 13.1709C57.4972 12.5086 57.5403 11.9236 57.3522 11.4158C57.1768 10.9028 56.7848 10.5202 56.1762 10.2682C55.5766 10.0198 55.0289 10.0131 54.5332 10.2481C54.0501 10.4779 53.6713 10.9239 53.397 11.5861L52.7242 13.2104C52.4536 13.8637 52.406 14.4469 52.5815 14.9599C52.7696 15.4677 53.1634 15.8458 53.763 16.0942Z" fill="black"/>
<path d="M60.0826 21.1917L60.545 20.7293L62.6101 22.7945L67.3362 18.0683L65.528 16.26L65.9903 15.7977L68.3123 18.1197L63.1238 23.3082L65.0656 25.25L64.6033 25.7124L60.0826 21.1917ZM69.0726 16.7224C68.8945 16.5443 68.802 16.3491 68.7952 16.1368C68.7883 15.9244 68.8705 15.7326 69.0418 15.5614C69.213 15.3902 69.4048 15.308 69.6171 15.3148C69.8295 15.3217 70.0247 15.4141 70.2028 15.5922C70.3808 15.7703 70.4733 15.9655 70.4802 16.1779C70.487 16.3902 70.4048 16.582 70.2336 16.7532C70.0623 16.9244 69.8706 17.0066 69.6582 16.9998C69.4459 16.9929 69.2507 16.9005 69.0726 16.7224Z" fill="black"/>
<path d="M67.866 31.8781L74.176 26.2291L74.4652 26.9271L69.7398 31.0862C69.5315 31.2669 69.3098 31.4531 69.0747 31.6448C68.8523 31.8418 68.6742 31.9942 68.5406 32.1019C68.7113 32.0837 68.9431 32.0611 69.236 32.0341C69.5378 32.0034 69.8281 31.9828 70.1068 31.9722L76.3835 31.5584L76.6671 32.243L68.2107 32.7104L67.866 31.8781Z" fill="black"/>
<path d="M69.8547 42.8587C69.8547 42.2678 69.9709 41.7592 70.2034 41.333C70.4456 40.9068 70.7846 40.5775 71.2205 40.345C71.6564 40.1222 72.1698 40.0108 72.7607 40.0108H75.2308C75.8217 40.0108 76.3302 40.1222 76.7565 40.345C77.1924 40.5775 77.5314 40.9068 77.7736 41.333C78.0157 41.7592 78.1368 42.2678 78.1368 42.8587C78.1368 43.4496 78.0157 43.9533 77.7736 44.3698C77.5314 44.7863 77.1924 45.106 76.7565 45.3288C76.3302 45.5613 75.8217 45.6775 75.2308 45.6775H73.8505V40.7373H72.7607C72.0633 40.7373 71.5111 40.9213 71.1043 41.2894C70.6974 41.6575 70.494 42.1806 70.494 42.8587C70.494 43.4011 70.6248 43.8467 70.8863 44.1954C71.1479 44.5538 71.5063 44.8009 71.9616 44.9365V45.663C71.3125 45.5177 70.7992 45.198 70.4214 44.704C70.0436 44.2197 69.8547 43.6046 69.8547 42.8587ZM74.3445 44.951H75.2308C75.9282 44.951 76.4804 44.7669 76.8872 44.3989C77.2941 44.0404 77.4975 43.5271 77.4975 42.8587C77.4975 42.1806 77.2941 41.6575 76.8872 41.2894C76.4901 40.9213 75.9379 40.7373 75.2308 40.7373H74.4752V45.1108L74.3445 44.951Z" fill="black"/>
<path d="M63.9727 59.9182L69.6235 65.5691L69.1715 66.0211L68.4009 65.2506L68.3393 65.3122L68.216 65.1478C68.531 65.4492 68.6954 65.778 68.7091 66.1342C68.7228 66.4903 68.579 66.8191 68.2776 67.1205C67.9831 67.415 67.6577 67.5623 67.3016 67.5623C66.9385 67.5691 66.5755 67.4321 66.2125 67.1513L66.3974 67.254L66.3152 67.3362L66.1919 67.1719C66.507 67.4732 66.6748 67.7986 66.6954 68.1479C66.7091 68.5041 66.5652 68.8329 66.2639 69.1342C65.9214 69.4767 65.5378 69.6206 65.1131 69.5658C64.6885 69.5247 64.2707 69.2986 63.8597 68.8877L59.4315 64.4594L59.9349 63.956L64.3015 68.3226C64.596 68.6171 64.894 68.7849 65.1953 68.826C65.4967 68.8671 65.7604 68.7746 65.9865 68.5486C66.2262 68.3089 66.3289 68.028 66.2947 67.7061C66.2673 67.391 66.1097 67.0897 65.8221 66.802L61.4555 62.4354L61.9487 61.9423L66.3152 66.3088C66.6098 66.6033 66.9077 66.7712 67.2091 66.8123C67.5105 66.8534 67.7742 66.7609 68.0002 66.5348C68.2262 66.3088 68.3256 66.0383 68.2982 65.7232C68.2708 65.4081 68.1167 65.0965 67.8358 64.7882L63.4693 60.4217L63.9727 59.9182Z" fill="black"/>
<path d="M52.6368 67.9096C53.1827 67.6835 53.697 67.5963 54.1797 67.648C54.6662 67.7086 55.1002 67.8958 55.4818 68.2095C55.8544 68.527 56.1538 68.9587 56.38 69.5046L57.3252 71.7867C57.5513 72.3326 57.643 72.845 57.6003 73.3241C57.5523 73.8158 57.3778 74.255 57.0767 74.6419C56.7756 75.0287 56.3521 75.3352 55.8062 75.5613C55.2603 75.7874 54.7486 75.8683 54.2711 75.804C53.7936 75.7396 53.3685 75.5487 52.9959 75.2313C52.618 74.9265 52.316 74.5011 52.0899 73.9552L51.5616 72.6799L56.1258 70.7894L55.7088 69.7826C55.4419 69.1383 55.0605 68.6986 54.5648 68.4636C54.069 68.2286 53.5079 68.2408 52.8814 68.5003C52.3803 68.7079 52.0187 68.9992 51.7966 69.3743C51.5655 69.7531 51.4745 70.1787 51.5234 70.6512L50.8522 70.9293C50.7381 70.2741 50.8369 69.6774 51.1488 69.1393C51.4517 68.605 51.9477 68.1951 52.6368 67.9096ZM52.4219 72.8583L52.7611 73.6772C53.028 74.3215 53.4093 74.7612 53.9051 74.9962C54.3919 75.2349 54.944 75.2264 55.5615 74.9706C56.188 74.7112 56.5934 74.323 56.7778 73.8063C56.9659 73.2985 56.9246 72.718 56.654 72.0647L56.3649 71.3666L52.3243 73.0403L52.4219 72.8583Z" fill="black"/>
<path d="M32.13 67.8131C32.8907 68.1282 33.4158 68.5816 33.7054 69.1734C33.995 69.7652 34.0027 70.3922 33.7284 71.0544C33.4652 71.6898 33.0454 72.1083 32.4691 72.31C31.8891 72.5206 31.2545 72.4832 30.5654 72.1977L28.0283 71.1468L27.6669 72.0194C27.4222 72.61 27.3943 73.1332 27.583 73.5888C27.768 74.0534 28.1558 74.408 28.7465 74.6526C29.2835 74.8751 29.7821 74.9243 30.2423 74.8004C30.6988 74.6854 31.0511 74.4172 31.2991 73.9957L31.9703 74.2737C31.6213 74.8631 31.1318 75.2475 30.5018 75.4269C29.8591 75.6115 29.1888 75.5593 28.4907 75.2701C27.73 74.9551 27.216 74.4748 26.9486 73.8293C26.6723 73.1801 26.688 72.4842 26.9957 71.7414L29.0808 66.7074L29.752 66.9854L29.1293 68.4889L29.2501 68.5389L28.9241 68.7184C29.1613 68.1457 29.576 67.7775 30.168 67.6138C30.7511 67.4464 31.4051 67.5128 32.13 67.8131ZM31.6974 68.3259C31.062 68.0627 30.4788 68.0151 29.9479 68.1832C29.417 68.3512 29.0422 68.6992 28.8234 69.2272L28.273 70.5562L30.8235 71.6126C31.3068 71.8128 31.7517 71.8398 32.1582 71.6937C32.561 71.5565 32.8533 71.2686 33.0349 70.8301C33.2388 70.3379 33.2222 69.8592 32.985 69.394C32.7351 68.934 32.3059 68.578 31.6974 68.3259Z" fill="black"/>
<path d="M17.2515 53.026C17.4369 53.4735 17.5213 53.9051 17.5048 54.3208C17.4756 54.7313 17.3578 55.1051 17.1515 55.4423C16.9414 55.7704 16.6577 56.0347 16.3004 56.2352L16.0223 55.564C16.3775 55.333 16.6218 55.0116 16.7553 54.5998C16.8762 54.1828 16.8402 53.7416 16.6475 53.2762L16.2749 52.3768C16.071 51.8846 15.7845 51.5472 15.4153 51.3646C15.0371 51.1858 14.6333 51.1853 14.2037 51.3632C13.8189 51.5226 13.5404 51.7743 13.3683 52.1181C13.1925 52.4531 13.1593 52.8286 13.2687 53.2446L13.6623 54.7643C13.8323 55.4279 13.8196 56.0046 13.6241 56.4945C13.4286 56.9843 13.0579 57.3423 12.5119 57.5685C11.9034 57.8205 11.333 57.8104 10.8008 57.5381C10.256 57.2605 9.83711 56.7682 9.54426 56.0612L9.31073 55.4974C9.03271 54.8262 8.97215 54.2117 9.12905 53.6539C9.28224 53.0872 9.61881 52.6595 10.1388 52.3707L10.4168 53.0419C10.09 53.2402 9.87777 53.5378 9.78008 53.9347C9.67343 54.3354 9.71834 54.7729 9.91481 55.2472L10.1483 55.811C10.3559 56.3121 10.648 56.663 11.0246 56.8634C11.3976 57.055 11.7943 57.0636 12.2149 56.8894C12.5819 56.7374 12.8271 56.4943 12.9508 56.16C13.0744 55.8257 13.0775 55.4155 12.9601 54.9294L12.5776 53.4365C12.4246 52.8393 12.463 52.2992 12.6927 51.8161C12.9099 51.3277 13.2914 50.9705 13.8373 50.7444C14.4727 50.4812 15.068 50.4757 15.6234 50.728C16.175 50.9713 16.5936 51.4375 16.879 52.1266L17.2515 53.026Z" fill="black"/>
<path d="M15.1453 42.1559C15.1453 42.7274 15.0291 43.2262 14.7966 43.6524C14.5544 44.0787 14.2154 44.408 13.7795 44.6405C13.3436 44.873 12.8302 44.9892 12.2393 44.9892H9.7692C9.17831 44.9892 8.66976 44.873 8.24355 44.6405C7.80765 44.408 7.46862 44.0787 7.22645 43.6524C6.98428 43.2262 6.8632 42.7274 6.8632 42.1559C6.8632 41.5843 6.98428 41.0855 7.22645 40.6593C7.46862 40.233 7.80765 39.9037 8.24355 39.6712C8.66976 39.4387 9.17831 39.3225 9.7692 39.3225H12.2393C12.8302 39.3225 13.3436 39.4387 13.7795 39.6712C14.2154 39.9037 14.5544 40.233 14.7966 40.6593C15.0291 41.0758 15.1453 41.5747 15.1453 42.1559ZM14.506 42.1559C14.506 41.4875 14.3074 40.9692 13.9102 40.6011C13.5131 40.2331 12.9561 40.049 12.2393 40.049H9.7692C9.05239 40.049 8.4954 40.2379 8.09825 40.6157C7.7011 40.9838 7.50252 41.4972 7.50252 42.1559C7.50252 42.8145 7.7011 43.3328 8.09825 43.7106C8.4954 44.0787 9.05239 44.2627 9.7692 44.2627H12.2393C12.9561 44.2627 13.5131 44.0787 13.9102 43.7106C14.3074 43.3425 14.506 42.8242 14.506 42.1559Z" fill="black"/>
<path d="M17.3593 31.7139C17.0256 32.5193 16.5227 33.0502 15.8504 33.3064C15.1691 33.559 14.4034 33.5091 13.5532 33.157L8.77425 31.1775L9.05227 30.5063L13.8312 32.4858C14.5024 32.7638 15.0945 32.8151 15.6075 32.6397C16.1243 32.4553 16.505 32.0678 16.7496 31.4771C16.998 30.8775 17.0047 30.3298 16.7697 29.8341C16.5347 29.3383 16.0816 28.9514 15.4104 28.6734L10.6314 26.6939L10.9094 26.0227L15.6884 28.0022C16.5296 28.3506 17.1 28.8595 17.3994 29.5287C17.7026 30.189 17.6892 30.9174 17.3593 31.7139Z" fill="black"/>
<path d="M21.3458 24.7633L15.695 19.1124L16.2087 18.5987L17.1848 19.5748L17.4211 19.3385L17.6368 20.1707C17.1505 19.6844 16.9108 19.1501 16.9176 18.5679C16.9245 17.972 17.1779 17.424 17.6779 16.924C18.2327 16.3692 18.856 16.1021 19.5478 16.1226C20.2396 16.1432 20.8903 16.4582 21.4999 17.0679L25.2706 20.8385L24.7569 21.3522L21.0582 17.6535C20.5513 17.1466 20.0273 16.8829 19.4862 16.8624C18.9451 16.8281 18.4553 17.0302 18.017 17.4685C17.5649 17.9206 17.3491 18.4241 17.3697 18.9789C17.3971 19.5268 17.6608 20.0508 18.1608 20.5508L21.8595 24.2496L21.3458 24.7633Z" fill="black"/>
<path d="M32.1753 17.1682C31.4414 17.4722 30.7507 17.4752 30.1031 17.1773C29.4517 16.8704 28.9592 16.3143 28.6256 15.5088L27.6748 13.2133C27.3412 12.4079 27.2961 11.6664 27.5397 10.9888C27.7833 10.3113 28.272 9.82052 29.0059 9.51655C29.6502 9.24966 30.2497 9.21626 30.8044 9.41637C31.3681 9.61277 31.776 10.0153 32.028 10.6238L31.2907 9.90694L31.5324 9.80685L30.9485 8.39733L30.1145 6.38374L30.7857 6.10572L34.8447 15.9052L34.1735 16.1832L33.7565 15.1764L33.3806 15.3321L33.5293 14.2483C33.7814 14.8568 33.7776 15.4298 33.5179 15.9673C33.2672 16.501 32.8196 16.9013 32.1753 17.1682ZM32.0704 16.5354C32.679 16.2833 33.0728 15.9052 33.252 15.4012C33.4364 14.8844 33.3932 14.2994 33.1226 13.6461L32.1718 11.3506C31.8975 10.6884 31.5143 10.2442 31.0223 10.0181C30.5354 9.77943 29.9878 9.78611 29.3792 10.0382C28.7796 10.2865 28.3876 10.6691 28.2032 11.1858C28.0241 11.6899 28.0717 12.2731 28.346 12.9353L29.2968 15.2308C29.5674 15.8841 29.9461 16.3301 30.4329 16.5688C30.925 16.7949 31.4708 16.7837 32.0704 16.5354Z" fill="black"/>
</svg>
