<svg width="85" height="85" viewBox="0 0 85 85" fill="none" xmlns="http://www.w3.org/2000/svg">
<path d="M50.2602 18.7795L50.9274 17.1686L53.0081 18.0305C53.384 18.1862 53.7093 18.2108 53.984 18.1044C54.2677 18.0018 54.4781 17.7849 54.6153 17.4537L54.7321 17.1718L55.3428 15.7734L54.8729 15.5788L55.5374 15.3036C55.2742 15.939 54.8939 16.3634 54.3966 16.5768C53.903 16.7813 53.352 16.7574 52.7434 16.5054C52.0006 16.1977 51.513 15.6917 51.2805 14.9872C51.0481 14.2828 51.1153 13.4876 51.4823 12.6017L52.0383 11.2593C52.4016 10.3822 52.9145 9.77686 53.577 9.44315C54.2431 9.10049 54.9476 9.08299 55.6904 9.39067C56.299 9.64274 56.7036 10.02 56.9044 10.5226C57.1088 11.0162 57.0794 11.5807 56.8163 12.2161L56.541 11.5516L57.0109 11.7462L57.5276 10.3089L59.5412 11.143L56.5608 18.3382C56.2272 19.1437 55.6866 19.6642 54.939 19.8997C54.2003 20.1389 53.3566 20.0621 52.408 19.6691L50.2602 18.7795ZM54.1912 15.0605C54.5581 15.2125 54.8871 15.2282 55.1782 15.1076C55.473 14.9781 55.7001 14.7209 55.8595 14.3361L56.3599 13.128C56.5193 12.7431 56.5387 12.4052 56.4181 12.1141C56.3013 11.814 56.0594 11.588 55.6925 11.436C55.3166 11.2804 54.9813 11.2673 54.6865 11.3968C54.4043 11.5211 54.1835 11.7756 54.0241 12.1604L53.5237 13.3686C53.3643 13.7534 53.3386 14.094 53.4465 14.3903C53.5671 14.6814 53.8153 14.9048 54.1912 15.0605Z" fill="black"/>
<path d="M59.8258 20.9348L61.2231 19.5375L63.1752 21.4896L66.0417 18.6231L64.3464 16.9279L65.7335 15.5408L68.8671 18.6745L64.6136 22.928L66.2574 24.5719L64.8601 25.9692L59.8258 20.9348ZM68.939 16.9587C68.6582 16.6779 68.5041 16.3799 68.4767 16.0648C68.4561 15.7566 68.5692 15.4792 68.8157 15.2326C69.0623 14.986 69.3397 14.873 69.6479 14.8936C69.963 14.921 70.261 15.0751 70.5418 15.3559C70.8226 15.6367 70.9733 15.9313 70.9939 16.2395C71.0213 16.5546 70.9117 16.8354 70.6651 17.082C70.4185 17.3286 70.1377 17.4382 69.8226 17.4108C69.5144 17.3902 69.2199 17.2395 68.939 16.9587Z" fill="black"/>
<path d="M67.5213 31.0458L73.9036 25.5713L74.7654 27.652L71.129 30.6052C70.9081 30.7806 70.6648 30.9652 70.3991 31.1591C70.1334 31.3531 69.9185 31.505 69.7543 31.6149C69.9519 31.5855 70.2113 31.541 70.5325 31.4813C70.8575 31.4306 71.1538 31.3865 71.4214 31.3491L76.0888 30.8469L76.9395 32.9008L68.5666 33.5695L67.5213 31.0458Z" fill="black"/>
<path d="M69.8547 42.8587C69.8547 42.1516 69.9855 41.5316 70.247 40.9988C70.5182 40.4758 70.8912 40.0689 71.3658 39.7783C71.8502 39.4974 72.412 39.3569 73.0513 39.3569H74.9402C75.5795 39.3569 76.1365 39.4974 76.6112 39.7783C77.0955 40.0689 77.4684 40.4758 77.73 40.9988C78.0012 41.5316 78.1368 42.1516 78.1368 42.8587C78.1368 43.5658 78.0012 44.1761 77.73 44.6895C77.4684 45.2125 77.0955 45.6145 76.6112 45.8954C76.1365 46.186 75.5795 46.3313 74.9402 46.3313H73.4872V41.4347H73.0513C72.5476 41.4347 72.165 41.5558 71.9034 41.798C71.6516 42.0402 71.5257 42.4034 71.5257 42.8877C71.5257 43.2268 71.5838 43.498 71.7 43.7014C71.8163 43.9145 71.9761 44.055 72.1795 44.1228V46.2587C71.4821 46.0843 70.9202 45.6872 70.494 45.0672C70.0678 44.457 69.8547 43.7208 69.8547 42.8587ZM74.606 44.2536H74.9693C75.4633 44.2536 75.8411 44.1373 76.1026 43.9048C76.3641 43.682 76.4949 43.3333 76.4949 42.8587C76.4949 42.384 76.3593 42.0256 76.0881 41.7835C75.8168 41.551 75.4342 41.4347 74.9402 41.4347H74.7223L74.7513 44.3989L74.606 44.2536Z" fill="black"/>
<path d="M64.3528 59.5381L70.0037 65.1889L68.7913 66.4013L67.9694 65.5793L67.7228 65.8259L67.7742 65.4869C68.0961 65.8088 68.2605 66.1581 68.2673 66.5348C68.281 66.9184 68.1509 67.2472 67.8769 67.5212C67.5824 67.8157 67.2262 67.9184 66.8084 67.8294C66.3906 67.7404 65.9728 67.4869 65.5549 67.0691L66.2022 67.3465L65.9145 67.6342L65.8632 67.3979C66.1851 67.7198 66.3529 68.0657 66.3666 68.4356C66.3871 68.8123 66.2467 69.1514 65.9454 69.4527C65.6029 69.7952 65.1953 69.9425 64.7227 69.8945C64.257 69.8534 63.8015 69.6103 63.3562 69.1651L59.0411 64.8499L60.3664 63.5245L64.5789 67.7369C64.7364 67.8945 64.8905 67.9801 65.0412 67.9938C65.1988 68.0143 65.3426 67.9595 65.4727 67.8294C65.6029 67.6993 65.6577 67.5554 65.6371 67.3979C65.6234 67.2472 65.5378 67.0931 65.3803 66.9355L61.1678 62.7231L62.2261 61.6648L66.4385 65.8773C66.5961 66.0348 66.7502 66.1205 66.9009 66.1342C67.0584 66.1547 67.2022 66.0999 67.3324 65.9698C67.4625 65.8396 67.5173 65.6958 67.4968 65.5382C67.4831 65.3876 67.3975 65.2334 67.2399 65.0759L63.0275 60.8635L64.3528 59.5381Z" fill="black"/>
<path d="M52.6368 67.9096C53.2901 67.639 53.9129 67.5226 54.5052 67.5603C55.0922 67.6108 55.6108 67.7996 56.0609 68.1269C56.5058 68.4669 56.8506 68.9322 57.0952 69.5228L57.8181 71.268C58.0628 71.8586 58.1461 72.427 58.0682 72.973C57.9851 73.5316 57.752 74.0319 57.3688 74.4737C56.9804 74.9282 56.4595 75.2907 55.8062 75.5613C55.1529 75.8319 54.5372 75.9401 53.9591 75.886C53.3757 75.8446 52.8616 75.6539 52.4168 75.3139C51.9666 74.9866 51.6192 74.5276 51.3746 73.937L50.8185 72.5946L55.3424 70.7207L55.1756 70.318C54.9829 69.8526 54.7246 69.5455 54.4007 69.3965C54.0806 69.2565 53.6968 69.2792 53.2494 69.4645C52.9362 69.5942 52.7078 69.7517 52.5644 69.937C52.412 70.1259 52.3434 70.3273 52.3586 70.5412L50.3852 71.3586C50.2794 70.6475 50.4313 69.9765 50.841 69.3455C51.2417 68.7182 51.8403 68.2395 52.6368 67.9096ZM53.1663 72.8331L53.3053 73.1687C53.4944 73.6251 53.7464 73.9296 54.0612 74.0823C54.3671 74.2387 54.7394 74.226 55.1779 74.0444C55.6164 73.8627 55.8956 73.6003 56.0156 73.257C56.1266 72.9175 56.0875 72.5195 55.8985 72.0631L55.8151 71.8617L53.0877 73.0229L53.1663 72.8331Z" fill="black"/>
<path d="M32.6669 68.0355C33.4097 68.3432 33.917 68.7892 34.1887 69.3736C34.4514 69.9542 34.4401 70.5891 34.1547 71.2782C33.847 72.021 33.3566 72.4836 32.6833 72.6661C31.9975 72.8538 31.1713 72.7475 30.2047 72.3471L28.6744 71.7133L28.4464 72.2636C28.3278 72.55 28.3362 72.8209 28.4716 73.0762C28.5981 73.3277 28.8313 73.524 29.1714 73.6648C29.4846 73.7946 29.7738 73.8305 30.0389 73.7726C30.3041 73.7146 30.5109 73.5696 30.6595 73.3376L32.606 74.1438C32.2177 74.8533 31.6528 75.306 30.911 75.502C30.1566 75.7033 29.332 75.6186 28.437 75.2479C27.4973 74.8587 26.8509 74.3183 26.4978 73.6268C26.132 72.9406 26.1103 72.2082 26.4328 71.4296L28.4902 66.4627L30.4367 67.269L29.9362 68.4771L30.2584 68.6106L29.7282 68.9414C29.958 68.3866 30.3429 68.027 30.8827 67.8627C31.41 67.7036 32.0047 67.7612 32.6669 68.0355ZM31.3036 69.2008C30.9098 69.0377 30.545 69.0071 30.2091 69.1092C29.8606 69.2165 29.616 69.4401 29.4751 69.7802L29.147 70.5722L30.6371 71.1894C30.9414 71.3155 31.2246 71.3279 31.4866 71.2268C31.745 71.1346 31.9335 70.9453 32.0521 70.6589C32.1781 70.3546 32.1753 70.0704 32.0436 69.8061C31.9082 69.5508 31.6615 69.349 31.3036 69.2008Z" fill="black"/>
<path d="M17.2237 52.9589C17.4758 53.5674 17.6024 54.1389 17.6035 54.6731C17.5957 55.2111 17.4755 55.6803 17.2429 56.0807C17.0066 56.4721 16.6603 56.7623 16.2039 56.9514L15.3698 54.9378C15.5846 54.8488 15.7202 54.6826 15.7766 54.439C15.8203 54.1903 15.7792 53.9137 15.6531 53.6095L15.4085 53.0188C15.2565 52.6519 15.0744 52.4023 14.8624 52.2699C14.6466 52.1286 14.4179 52.108 14.1762 52.2081C13.9525 52.3008 13.8177 52.4563 13.7718 52.6745C13.7169 52.8964 13.7412 53.1956 13.8448 53.5721L14.0932 54.4758C14.3587 55.4457 14.413 56.2096 14.2561 56.7674C14.0992 57.3252 13.6807 57.7449 13.0005 58.0266C12.2846 58.3232 11.6278 58.3069 11.0301 57.9778C10.4325 57.6487 9.9372 57.0098 9.54426 56.0612L9.33297 55.5511C8.95857 54.6472 8.85705 53.8452 9.0284 53.1452C9.19976 52.4451 9.61656 51.9579 10.2788 51.6836L11.1129 53.6972C10.9339 53.7713 10.8278 53.9201 10.7945 54.1436C10.7486 54.3618 10.785 54.6141 10.9036 54.9005L11.1149 55.4106C11.252 55.7418 11.4103 55.9593 11.5896 56.0632C11.7601 56.1709 11.9571 56.1784 12.1809 56.0857C12.3867 56.0005 12.5155 55.8685 12.5673 55.6897C12.6154 55.5021 12.5988 55.2468 12.5175 54.924L12.2546 53.9477C11.9854 52.9688 11.9327 52.1833 12.0964 51.5913C12.2563 50.9903 12.6809 50.5471 13.37 50.2617C14.1217 49.9503 14.8064 49.9707 15.4242 50.323C16.0419 50.6752 16.5602 51.357 16.9791 52.3682L17.2237 52.9589Z" fill="black"/>
<path d="M15.1453 42.1559C15.1453 42.863 15.0145 43.4781 14.753 44.0012C14.4818 44.5242 14.1088 44.9311 13.6342 45.2217C13.1498 45.5026 12.588 45.6431 11.9487 45.6431H10.0598C9.42048 45.6431 8.8635 45.5026 8.38885 45.2217C7.90452 44.9311 7.53158 44.5242 7.27004 44.0012C6.99881 43.4781 6.8632 42.863 6.8632 42.1559C6.8632 41.439 6.99881 40.8239 7.27004 40.3105C7.53158 39.7875 7.90452 39.3855 8.38885 39.1046C8.8635 38.814 9.42048 38.6687 10.0598 38.6687H11.9487C12.588 38.6687 13.1498 38.814 13.6342 39.1046C14.1088 39.3855 14.4818 39.7875 14.753 40.3105C15.0145 40.8239 15.1453 41.439 15.1453 42.1559ZM13.2564 42.1559C13.2564 41.7296 13.145 41.4051 12.9222 41.1823C12.6897 40.9596 12.3652 40.8482 11.9487 40.8482H10.0598C9.63359 40.8482 9.30908 40.9596 9.08629 41.1823C8.8635 41.4051 8.7521 41.7296 8.7521 42.1559C8.7521 42.5724 8.8635 42.8969 9.08629 43.1294C9.30908 43.3522 9.63359 43.4636 10.0598 43.4636H11.9487C12.3652 43.4636 12.6897 43.3522 12.9222 43.1294C13.145 42.8969 13.2564 42.5724 13.2564 42.1559Z" fill="black"/>
<path d="M17.3593 31.7139C16.9478 32.7073 16.3568 33.3747 15.5863 33.716C14.8195 34.0485 13.9708 34.022 13.04 33.6364L8.5296 31.7681L9.36365 29.7545L13.8607 31.6173C14.2724 31.7878 14.6308 31.8209 14.9361 31.7167C15.2325 31.6088 15.4585 31.3669 15.6142 30.991C15.7661 30.6241 15.7755 30.2977 15.6423 30.0119C15.5038 29.7134 15.2287 29.4789 14.8171 29.3084L10.32 27.4456L11.1541 25.432L15.6646 27.3003C16.6042 27.6895 17.2258 28.2773 17.5292 29.0635C17.8237 29.846 17.767 30.7295 17.3593 31.7139Z" fill="black"/>
<path d="M20.8938 25.2153L15.2429 19.5645L16.7327 18.0747L17.8115 19.1535L18.2636 18.7015L18.1711 19.5131C17.6916 19.0337 17.4519 18.5199 17.4519 17.972C17.4519 17.424 17.6848 16.9172 18.1505 16.4514C18.6985 15.9034 19.3287 15.6569 20.041 15.7116C20.7602 15.7596 21.4383 16.1021 22.0753 16.7391L25.7227 20.3864L24.1815 21.9276L20.6883 18.4343C20.3938 18.1398 20.0889 17.9925 19.7739 17.9925C19.4588 17.9788 19.1608 18.1124 18.88 18.3932C18.606 18.6672 18.4759 18.9617 18.4896 19.2768C18.4964 19.585 18.6471 19.8864 18.9417 20.181L22.4349 23.6742L20.8938 25.2153Z" fill="black"/>
<path d="M31.5846 17.4129C30.8418 17.7205 30.1392 17.7075 29.4767 17.3738C28.8143 17.0401 28.2995 16.4303 27.9326 15.5443L27.1541 13.6649C26.7908 12.7879 26.7254 11.9972 26.9579 11.2928C27.1866 10.5794 27.6724 10.0689 28.4152 9.76121C29.0238 9.50914 29.5767 9.48981 30.074 9.70321C30.5676 9.90766 30.946 10.3276 31.2092 10.963L30.5447 10.6878L31.0146 10.4932L30.1968 8.70872L29.3627 6.69512L31.3763 5.86106L35.4354 15.6606L33.4889 16.4668L32.9051 15.0573L32.4352 15.2519L32.7105 14.5875C32.9737 15.2229 33.0049 15.7918 32.8041 16.2944C32.5997 16.788 32.1932 17.1608 31.5846 17.4129ZM31.5867 15.3675C31.9536 15.2155 32.1973 14.994 32.3179 14.7029C32.4348 14.4028 32.4135 14.0604 32.2541 13.6756L31.5313 11.9305C31.3719 11.5456 31.1466 11.293 30.8555 11.1724C30.5607 11.0429 30.2299 11.0541 29.863 11.2061C29.4871 11.3618 29.2407 11.5896 29.1238 11.8897C29.0122 12.1771 29.0361 12.5132 29.1955 12.898L29.9184 14.6431C30.0778 15.0279 30.3004 15.2869 30.5862 15.4202C30.8773 15.5407 31.2108 15.5232 31.5867 15.3675Z" fill="black"/>
</svg>
