<svg width="142" height="129" viewBox="0 0 142 129" fill="none" xmlns="http://www.w3.org/2000/svg">
<path d="M47.9396 60.8438H0.628563V44.5187L34.3882 11.4722V10.6798H1.73804V0.0605258H46.4339V16.3856L12.595 49.432V50.2245H47.9396V60.8438ZM55.8161 16.9404C60.0955 16.9404 63.873 17.8649 67.1486 19.714C70.477 21.5632 73.0394 24.2048 74.8357 27.6388C76.6319 31.0201 77.5301 34.9561 77.5301 39.4468L77.4508 42.5375H45.5139C45.9894 45.5489 47.1253 47.8999 48.9216 49.5905C50.7178 51.2812 53.016 52.1265 55.8161 52.1265C57.6653 52.1265 59.303 51.7566 60.7295 51.017C62.156 50.2245 63.3183 49.1943 64.2164 47.9263H76.2621C74.7828 52.2585 72.2205 55.6662 68.5751 58.1493C64.9297 60.5796 60.6767 61.7947 55.8161 61.7947C51.5896 61.7947 47.8121 60.8966 44.4837 59.1003C41.2081 57.2512 38.6457 54.636 36.7966 51.2547C34.9475 47.8735 34.0229 43.9111 34.0229 39.3675C34.0229 34.824 34.9475 30.8616 36.7966 27.4803C38.6457 24.0991 41.2081 21.5103 44.4837 19.714C47.8121 17.8649 51.5896 16.9404 55.8161 16.9404ZM55.8161 26.6086C53.333 26.6086 51.2462 27.269 49.5555 28.5898C47.8649 29.9106 46.6498 31.7861 45.9101 34.2164H65.6429C64.9032 31.7861 63.6881 29.9106 61.9975 28.5898C60.3597 27.269 58.2992 26.6086 55.8161 26.6086ZM83.2601 61.7947C79.509 61.7947 76.207 60.8702 73.3541 59.021C70.5012 57.1191 68.2822 54.4775 66.6973 51.0962C65.1651 47.715 64.3991 43.8054 64.3991 39.3675C64.3991 34.9296 65.1651 31.0201 66.6973 27.6388C68.2822 24.2576 70.5012 21.6424 73.3541 19.7933C76.207 17.8913 79.509 16.9404 83.2601 16.9404C87.6451 16.9404 91.1849 18.0234 93.8793 20.1895H94.5133V0.0605258H105.687V60.8438H95.6228L94.5133 58.5456H93.8793C91.1849 60.7117 87.6451 61.7947 83.2601 61.7947ZM85.479 52.1265C88.5961 52.1265 91.0264 51.017 92.7699 48.7981C94.5133 46.5263 95.385 43.3828 95.385 39.3675C95.385 35.3523 94.5133 32.2352 92.7699 30.0163C91.0264 27.7445 88.5961 26.6086 85.479 26.6086C82.3619 26.6086 79.9317 27.7445 78.1882 30.0163C76.4976 32.2352 75.6523 35.3523 75.6523 39.3675C75.6523 43.3828 76.4976 46.5263 78.1882 48.7981C79.9317 51.017 82.3619 52.1265 85.479 52.1265ZM54.5172 69.2795L34.626 89.3292L55.6267 125.625V127.844H43.1055L26.2257 98.6805H25.3539L14.814 109.379V127.844H2.92676V67.0605H14.814V91.7859H15.7649L40.0148 67.0605H54.5172V69.2795ZM76.5742 91.4689C77.3666 93.0539 77.8421 94.7181 78.0006 96.4615C78.212 98.205 78.3176 100.318 78.3176 102.801V127.844H68.4909L67.1436 125.07H66.3512C64.9247 126.338 63.3926 127.263 61.7548 127.844C60.1698 128.425 58.3471 128.715 56.2867 128.715C51.6903 128.715 47.992 127.474 45.1919 124.991C42.3919 122.508 40.9918 119.074 40.9918 114.689C40.9918 110.092 42.5503 106.711 45.6674 104.545C48.8374 102.326 53.0639 101.216 58.3471 101.216H67.2229V99.156C67.2229 97.2012 66.6417 95.6691 65.4794 94.5596C64.37 93.3973 62.6793 92.8161 60.4076 92.8161C58.2943 92.8161 56.6829 93.318 55.5734 94.3218C54.464 95.3256 53.83 96.5144 53.6715 97.888H42.339C42.656 93.7671 44.3202 90.4387 47.3316 87.9028C50.3431 85.314 54.7545 84.0196 60.5661 84.0196C64.3171 84.0196 67.5927 84.6272 70.3928 85.8423C73.2457 87.0046 75.3062 88.8801 76.5742 91.4689ZM57.8716 119.523C61.0416 119.523 63.3397 118.677 64.7662 116.987C66.1927 115.243 66.9852 112.76 67.1436 109.537H59.8528C57.4754 109.537 55.6263 109.907 54.3055 110.647C52.9847 111.334 52.3243 112.655 52.3243 114.609C52.3243 116.141 52.8262 117.357 53.83 118.255C54.8338 119.1 56.181 119.523 57.8716 119.523ZM79.3249 127.844H68.0717V84.8913H79.3249V127.844ZM73.6983 79.1855C71.902 79.1855 70.3699 78.5515 69.1019 77.2835C67.834 76.0155 67.2 74.457 67.2 72.6079C67.2 70.8644 67.834 69.3587 69.1019 68.0908C70.3699 66.8228 71.902 66.1888 73.6983 66.1888C75.4418 66.1888 76.9475 66.8228 78.2155 68.0908C79.4834 69.3587 80.1174 70.8644 80.1174 72.6079C80.1174 74.4042 79.4834 75.9627 78.2155 77.2835C76.9475 78.5515 75.4418 79.1855 73.6983 79.1855ZM86.7798 128.795C83.0288 128.795 79.7267 127.87 76.8738 126.021C74.0209 124.119 71.8019 121.477 70.217 118.096C68.6849 114.715 67.9188 110.805 67.9188 106.368C67.9188 101.93 68.6849 98.0201 70.217 94.6388C71.8019 91.2576 74.0209 88.6424 76.8738 86.7933C79.7267 84.8913 83.0288 83.9404 86.7798 83.9404C91.1649 83.9404 94.7046 85.0234 97.3991 87.1895H98.033V67.0605H109.207V127.844H99.1425L98.033 125.546H97.3991C94.7046 127.712 91.1649 128.795 86.7798 128.795ZM88.9988 119.126C92.1159 119.126 94.5461 118.017 96.2896 115.798C98.033 113.526 98.9048 110.383 98.9048 106.368C98.9048 102.352 98.033 99.2352 96.2896 97.0163C94.5461 94.7445 92.1159 93.6086 88.9988 93.6086C85.8817 93.6086 83.4514 94.7445 81.708 97.0163C80.0173 99.2352 79.172 102.352 79.172 106.368C79.172 110.383 80.0173 113.526 81.708 115.798C83.4514 118.017 85.8817 119.126 88.9988 119.126ZM119.543 128.795C115.316 128.795 111.539 127.897 108.21 126.1C104.935 124.251 102.372 121.636 100.523 118.255C98.674 114.873 97.7495 110.911 97.7495 106.368C97.7495 101.824 98.674 97.8616 100.523 94.4803C102.372 91.0991 104.935 88.5103 108.21 86.714C111.539 84.8649 115.316 83.9404 119.543 83.9404C123.769 83.9404 127.52 84.8649 130.796 86.714C134.071 88.5103 136.634 91.0991 138.483 94.4803C140.332 97.8616 141.257 101.824 141.257 106.368C141.257 110.911 140.332 114.873 138.483 118.255C136.634 121.636 134.071 124.251 130.796 126.1C127.52 127.897 123.769 128.795 119.543 128.795ZM119.543 119.126C122.818 119.126 125.381 117.991 127.23 115.719C129.132 113.447 130.083 110.33 130.083 106.368C130.083 102.405 129.132 99.288 127.23 97.0163C125.381 94.7445 122.818 93.6086 119.543 93.6086C116.267 93.6086 113.678 94.7445 111.776 97.0163C109.927 99.288 109.003 102.405 109.003 106.368C109.003 110.33 109.927 113.447 111.776 115.719C113.678 117.991 116.267 119.126 119.543 119.126Z" fill="#101010"/>
</svg>
