<svg width="62" height="23" viewBox="0 0 62 23" fill="none" xmlns="http://www.w3.org/2000/svg">
<path fill-rule="evenodd" clip-rule="evenodd" d="M0.349609 22.6459H13.7493H17.9215H18.1643V15.7879L22.079 11.8144H22.4028L28.6722 22.6459H28.909H33.3227H33.5595L39.8289 11.8144H40.1527L44.0673 15.7879V22.6459H44.3102H48.4824H61.8821V16.5826L49.3434 4.30878V4.01443H61.47V0.0703125H48.4824H44.8694H44.0673V9.25362H43.7141L34.7074 0.0703125H32.9105H29.3212H27.5243L18.5176 9.25362H18.1643V0.0703125H17.3623H13.7493H0.76168V4.01443H12.8883V4.30878L0.349609 16.5826V22.6459ZM13.7493 9.66204L4.79411 18.4075V18.7018H13.7493V9.66204ZM31.1158 2.70344L25.5228 8.34118L31.1158 18.0077L36.7089 8.34118L31.1158 2.70344ZM48.4824 9.66204V18.7018H57.4376V18.4075L48.4824 9.66204Z" fill="#101010"/>
</svg>
