<?xml version="1.0" encoding="UTF-8"?>
<svg xmlns="http://www.w3.org/2000/svg" xmlns:xlink="http://www.w3.org/1999/xlink" version="1.2" >
<font id="HK Guise Light">
<font-face  font-family="HK Guise" units-per-em="1000" ascent="767" descent="-233" font-style="normal" font-weight="300" font-stretch="normal" cap-height="767" x-height="542" underline-position="-113" underline-thickness="41" />
<missing-glyph  horiz-adv-x="551" d="M501 0 L501 521 L50 521 L50 0 L501 0 Z M78 493 L472 493 L472 28 L78 28 L78 493 Z " />
<glyph glyph-name="NULL" d="" />
<glyph glyph-name="CR" unicode="&#xd;" horiz-adv-x="250" d="" />
<glyph glyph-name="space" unicode="&#x20;" horiz-adv-x="280" d="" />
<glyph glyph-name="exclam" unicode="&#x21;" horiz-adv-x="256" d="M160 188 L160 767 L95 767 L95 188 L160 188 Z M128 -8 C158 -8 182 16 182 46 C182 75 157 98 128 98 C98 98 73 75 73 46 C73 16 98 -8 128 -8 L128 -8 Z " />
<glyph glyph-name="quotedbl" unicode="&#x22;" horiz-adv-x="309" d="M94 463 L94 767 L45 767 L45 463 L94 463 Z M264 463 L264 767 L214 767 L214 463 L264 463 Z " />
<glyph glyph-name="numbersign" unicode="&#x23;" horiz-adv-x="727" d="M179 0 L227 234 L433 234 L383 0 L431 0 L479 234 L639 234 L639 277 L488 277 L536 504 L685 504 L685 546 L545 546 L592 767 L545 767 L498 546 L293 546 L340 767 L292 767 L245 548 L90 548 L90 504 L236 504 L189 277 L43 277 L43 234 L180 234 L132 0 L179 0 Z M283 504 L489 504 L442 277 L237 277 L283 504 Z " />
<glyph glyph-name="dollar" unicode="&#x24;" horiz-adv-x="680" d="M635 216 C635 337 557 381 457 409 L371 433 L371 716 C478 705 545 648 549 545 L616 545 C612 685 508 762 371 773 L371 856 L343 856 L343 775 L333 775 C189 775 80 708 80 582 C80 449 192 416 269 394 L343 374 L343 49 C189 54 102 136 102 279 L37 279 C37 96 164 -3 343 -8 L343 -98 L371 -98 L371 -8 C532 -3 635 80 635 216 L635 216 Z M294 454 C220 474 145 496 145 584 C145 671 218 718 332 718 L343 718 L343 440 L294 454 Z M371 366 L420 353 C500 330 570 308 570 212 C570 111 496 53 371 49 L371 366 Z " />
<glyph glyph-name="percent" unicode="&#x25;" horiz-adv-x="764" d="M186 431 C266 431 324 502 324 602 C324 702 265 774 182 774 C87 774 44 685 44 602 C44 520 88 431 186 431 L186 431 Z M191 0 L614 767 L572 767 L148 0 L191 0 Z M186 472 C113 472 85 541 85 602 C85 664 112 733 182 733 C248 733 283 671 283 602 C283 526 242 472 186 472 L186 472 Z M582 -8 C663 -8 720 64 720 164 C720 263 661 336 579 336 C483 336 440 246 440 164 C440 81 484 -8 582 -8 L582 -8 Z M582 34 C509 34 481 102 481 164 C481 226 508 295 579 295 C645 295 679 233 679 164 C679 87 639 34 582 34 L582 34 Z " />
<glyph glyph-name="ampersand" unicode="&#x26;" horiz-adv-x="704" d="M279 -8 C378 -8 459 22 520 82 L590 0 L656 0 L656 7 L555 125 C600 187 627 274 633 381 L577 381 C571 299 552 230 523 172 L513 172 L325 393 C421 443 513 495 513 599 C513 698 436 774 330 774 C220 774 135 704 135 600 C135 524 202 449 237 411 L237 400 C138 352 48 292 48 175 C48 59 142 -8 279 -8 L279 -8 Z M291 430 C260 467 190 534 190 600 C190 674 246 724 330 724 C409 724 459 669 459 599 C459 514 378 473 291 430 L291 430 Z M280 42 C177 42 106 89 106 178 C106 271 188 320 279 366 L485 122 C434 70 364 42 280 42 L280 42 Z " />
<glyph glyph-name="quotesingle" unicode="&#x27;" horiz-adv-x="140" d="M94 463 L94 767 L45 767 L45 463 L94 463 Z " />
<glyph glyph-name="parenleft" unicode="&#x28;" horiz-adv-x="225" d="M221 -26 C134 79 88 235 88 382 C88 522 128 677 222 792 L167 792 C82 689 41 535 41 382 C41 251 87 66 167 -26 L221 -26 Z " />
<glyph glyph-name="parenright" unicode="&#x29;" horiz-adv-x="225" d="M58 -26 C138 66 185 251 185 382 C185 535 143 689 59 792 L4 792 C98 677 137 522 137 382 C137 235 91 79 5 -26 L58 -26 Z " />
<glyph glyph-name="asterisk" unicode="&#x2a;" horiz-adv-x="403" d="M201 571 L283 452 L317 478 L228 592 L366 632 L353 672 L218 624 L223 767 L180 767 L185 624 L49 672 L36 632 L174 592 L85 478 L119 452 L201 571 Z " />
<glyph glyph-name="plus" unicode="&#x2b;" horiz-adv-x="578" d="M312 8 L312 248 L552 248 L552 294 L312 294 L312 534 L266 534 L266 294 L26 294 L26 248 L266 248 L266 8 L312 8 Z " />
<glyph glyph-name="comma" unicode="&#x2c;" horiz-adv-x="247" d="M131 98 C98 98 76 75 76 47 C76 17 97 -6 131 -6 L133 -6 L78 -142 L78 -150 L114 -150 L173 2 C180 19 184 33 184 47 C184 75 162 98 131 98 L131 98 Z " />
<glyph glyph-name="hyphen" unicode="&#x2d;" horiz-adv-x="408" d="M348 248 L348 294 L61 294 L61 248 L348 248 Z " />
<glyph glyph-name="period" unicode="&#x2e;" horiz-adv-x="257" d="M129 -8 C158 -8 183 16 183 46 C183 75 158 98 129 98 C98 98 74 75 74 46 C74 16 98 -8 129 -8 L129 -8 Z " />
<glyph glyph-name="slash" unicode="&#x2f;" horiz-adv-x="421" d="M3 -231 L392 767 L337 767 L-53 -231 L3 -231 Z " />
<glyph glyph-name="zero" unicode="0" horiz-adv-x="578" d="M289 -8 C485 -8 511 156 511 249 L511 518 C511 611 485 775 289 775 C92 775 66 611 66 518 L66 249 C66 156 92 -8 289 -8 L289 -8 Z M289 51 C144 51 131 176 131 249 L131 518 C131 591 144 716 289 716 C434 716 446 591 446 518 L446 249 C446 176 434 51 289 51 L289 51 Z " />
<glyph glyph-name="one" unicode="1" horiz-adv-x="371" d="M235 696 C235 657 217 644 178 644 L37 644 L37 585 L233 585 L233 0 L298 0 L298 767 L235 767 L235 696 Z " />
<glyph glyph-name="two" unicode="2" horiz-adv-x="548" d="M502 0 L502 59 L107 59 L114 60 L405 386 C457 444 484 504 484 567 C484 678 395 775 268 775 C149 775 52 678 52 559 L117 559 C117 646 181 716 268 716 C357 716 419 647 419 567 C419 523 404 480 358 430 L50 85 L50 0 L502 0 Z " />
<glyph glyph-name="three" unicode="3" horiz-adv-x="631" d="M313 -8 C462 -8 576 76 576 216 C576 334 483 391 379 409 L379 412 C462 432 536 479 536 580 C536 696 434 775 310 775 C182 775 85 694 85 567 L150 567 C152 659 214 716 312 716 C407 716 471 659 471 575 C471 456 362 430 280 430 L245 430 L245 380 L288 380 C383 380 511 354 511 221 C511 115 437 51 313 51 C188 51 114 115 114 226 L48 226 C48 77 159 -8 313 -8 L313 -8 Z " />
<glyph glyph-name="four" unicode="4" horiz-adv-x="641" d="M484 0 L484 178 L603 178 L603 237 L484 237 L484 767 L403 767 L38 244 L38 178 L419 178 L419 0 L484 0 Z M100 241 L414 688 L419 688 L419 237 L100 237 L100 241 Z " />
<glyph glyph-name="five" unicode="5" horiz-adv-x="625" d="M329 507 C262 507 202 484 152 434 L198 708 L533 708 L533 767 L143 767 L73 349 L143 349 C183 413 247 448 319 448 C427 448 506 367 506 254 C506 137 422 51 309 51 C217 51 143 110 119 204 L53 204 C78 78 174 -8 310 -8 C462 -8 571 103 571 252 C571 405 461 507 329 507 L329 507 Z " />
<glyph glyph-name="six" unicode="6" horiz-adv-x="609" d="M305 497 C276 497 248 491 221 479 L386 754 L386 767 L318 767 L96 396 C65 346 48 291 48 240 C48 90 158 -8 305 -8 C451 -8 561 91 561 244 C561 398 449 497 305 497 L305 497 Z M305 51 C196 51 113 123 113 244 C113 354 198 437 305 437 C412 437 496 365 496 245 C496 123 412 51 305 51 L305 51 Z " />
<glyph glyph-name="seven" unicode="7" horiz-adv-x="574" d="M166 0 L540 705 L540 767 L29 767 L29 708 L467 708 L467 701 L100 13 L100 0 L166 0 Z " />
<glyph glyph-name="eight" unicode="8" horiz-adv-x="616" d="M308 -8 C438 -8 560 69 560 218 C560 316 502 387 411 415 L411 417 C475 442 519 505 519 581 C519 698 425 775 309 775 C206 775 100 706 100 586 C100 506 142 444 206 417 L206 415 C114 388 55 317 55 218 C55 69 178 -8 308 -8 L308 -8 Z M310 440 C222 440 164 496 164 581 C164 666 232 716 309 716 C396 716 454 659 454 575 C454 496 395 440 310 440 L310 440 Z M308 51 C208 51 120 109 120 219 C120 319 196 387 308 387 C418 387 495 319 495 219 C495 109 408 51 308 51 L308 51 Z " />
<glyph glyph-name="nine" unicode="9" horiz-adv-x="604" d="M299 775 C153 775 43 676 43 523 C43 369 155 270 300 270 C328 270 356 276 382 288 L218 13 L218 0 L286 0 L508 371 C539 421 556 476 556 527 C556 677 446 775 299 775 L299 775 Z M300 330 C192 330 108 402 108 522 C108 644 192 716 300 716 C408 716 491 644 491 523 C491 413 406 330 300 330 L300 330 Z " />
<glyph glyph-name="colon" unicode="&#x3a;" horiz-adv-x="257" d="M129 423 C158 423 183 447 183 477 C183 505 158 529 129 529 C98 529 74 505 74 477 C74 447 98 423 129 423 L129 423 Z M129 -8 C158 -8 183 16 183 46 C183 75 158 98 129 98 C98 98 74 75 74 46 C74 16 98 -8 129 -8 L129 -8 Z " />
<glyph glyph-name="semicolon" unicode="&#x3b;" horiz-adv-x="261" d="M133 423 C163 423 187 447 187 477 C187 505 162 529 133 529 C103 529 79 505 79 477 C79 447 103 423 133 423 L133 423 Z M134 98 C101 98 79 75 79 47 C79 17 101 -6 134 -6 L136 -6 L82 -142 L82 -150 L118 -150 L176 2 C183 19 187 33 187 47 C187 75 165 98 134 98 L134 98 Z " />
<glyph glyph-name="less" unicode="&#x3c;" horiz-adv-x="382" d="M356 118 L73 271 L356 424 L356 476 L26 297 L26 246 L356 67 L356 118 Z " />
<glyph glyph-name="equal" unicode="&#x3d;" horiz-adv-x="491" d="M465 349 L465 395 L26 395 L26 349 L465 349 Z M465 147 L465 193 L26 193 L26 147 L465 147 Z " />
<glyph glyph-name="greater" unicode="&#x3e;" horiz-adv-x="382" d="M356 246 L356 297 L26 476 L26 424 L309 271 L26 118 L26 67 L356 246 Z " />
<glyph glyph-name="question" unicode="&#x3f;" horiz-adv-x="370" d="M154 188 L154 307 C154 477 350 421 350 593 C350 649 326 695 285 725 C249 751 199 767 125 767 L36 767 L36 708 L118 708 C174 708 217 697 245 676 C271 656 285 629 285 591 C285 450 89 509 89 307 L89 188 L154 188 Z M122 -8 C151 -8 176 16 176 46 C176 75 151 98 122 98 C91 98 67 75 67 46 C67 16 91 -8 122 -8 L122 -8 Z " />
<glyph glyph-name="at" unicode="&#x40;" horiz-adv-x="1072" d="M531 -192 C589 -192 639 -184 696 -165 L682 -127 C631 -145 585 -153 531 -153 C287 -153 97 11 97 280 C97 546 279 741 543 741 C799 741 975 559 975 304 C975 146 909 5 773 5 C704 5 687 58 695 131 C703 226 744 401 772 540 L731 540 L709 437 L706 437 C696 522 648 569 563 569 C388 569 285 379 285 222 C285 98 351 30 454 30 C551 30 620 94 660 173 L664 173 C659 145 658 119 658 97 C655 13 695 -35 770 -35 C934 -35 1016 127 1016 304 C1016 581 818 780 542 780 C257 780 56 567 56 280 C56 -10 265 -192 531 -192 L531 -192 Z M454 71 C374 71 327 121 327 221 C327 359 412 527 564 527 C644 527 689 480 689 380 C689 245 606 71 454 71 L454 71 Z " />
<glyph glyph-name="A" unicode="A" horiz-adv-x="654" d="M280 767 L16 13 L16 0 L80 0 L144 186 L510 186 L574 0 L639 0 L639 13 L374 767 L280 767 Z M322 700 L333 700 L490 245 L165 245 L322 700 Z " />
<glyph glyph-name="B" unicode="B" horiz-adv-x="610" d="M290 0 C394 0 459 18 503 58 C545 96 564 152 564 212 C564 314 515 382 427 403 L427 411 C486 436 531 495 531 579 C531 639 510 687 472 719 C424 758 365 767 265 767 L72 767 L72 0 L290 0 Z M137 708 L262 708 C352 708 393 699 423 674 C451 650 466 615 466 570 C466 525 451 491 427 466 C400 438 358 427 317 427 L137 427 L137 708 Z M137 368 L329 368 C387 368 428 358 459 330 C486 305 499 267 499 217 C499 166 483 130 457 105 C419 69 355 58 288 58 L137 58 L137 368 Z " />
<glyph glyph-name="C" unicode="C" horiz-adv-x="764" d="M390 -8 C565 -8 692 103 724 279 L657 279 C628 139 527 51 390 51 C221 51 108 185 108 384 C108 583 221 716 390 716 C528 716 628 628 657 488 L724 488 C692 664 565 775 390 775 C182 775 43 619 43 384 C43 149 182 -8 390 -8 L390 -8 Z " />
<glyph glyph-name="D" unicode="D" horiz-adv-x="754" d="M312 0 C435 0 537 32 608 99 C673 161 711 254 711 380 C711 505 675 599 611 663 C542 733 439 767 313 767 L71 767 L71 0 L312 0 Z M136 708 L312 708 C420 708 511 680 570 615 C619 562 646 483 646 380 C646 278 618 200 567 148 C506 86 418 59 311 59 L136 59 L136 708 Z " />
<glyph glyph-name="E" unicode="E" horiz-adv-x="598" d="M572 0 L572 59 L137 59 L137 366 L504 366 L504 425 L137 425 L137 708 L549 708 L549 767 L72 767 L72 0 L572 0 Z " />
<glyph glyph-name="F" unicode="F" horiz-adv-x="569" d="M137 0 L137 366 L504 366 L504 425 L137 425 L137 708 L549 708 L549 767 L72 767 L72 0 L137 0 Z " />
<glyph glyph-name="G" unicode="G" horiz-adv-x="788" d="M465 338 L670 338 C665 164 554 51 394 51 C221 51 108 185 108 384 C108 583 221 716 390 716 C528 716 628 628 657 488 L724 488 C692 664 565 775 390 775 C182 775 43 619 43 384 C43 149 182 -8 390 -8 C520 -8 611 48 665 150 L666 150 L666 0 L731 0 L731 396 L465 396 L465 338 Z " />
<glyph glyph-name="H" unicode="H" horiz-adv-x="691" d="M137 0 L137 366 L553 366 L553 0 L618 0 L618 767 L553 767 L553 425 L137 425 L137 767 L72 767 L72 0 L137 0 Z " />
<glyph glyph-name="I" unicode="I" horiz-adv-x="208" d="M137 0 L137 767 L72 767 L72 0 L137 0 Z " />
<glyph glyph-name="J" unicode="J" horiz-adv-x="566" d="M261 -8 C344 -8 407 18 447 63 C489 111 499 175 499 259 L499 767 L140 767 L140 708 L434 708 L434 267 C434 190 425 141 395 105 C367 72 322 51 261 51 C201 51 156 72 128 105 C100 138 89 184 89 259 L23 259 C23 175 34 111 76 63 C116 18 179 -8 261 -8 L261 -8 Z " />
<glyph glyph-name="K" unicode="K" horiz-adv-x="657" d="M619 754 L619 767 L541 767 L143 357 L137 357 L137 767 L72 767 L72 0 L137 0 L137 261 L302 429 L307 429 L572 0 L640 0 L640 13 L353 481 L619 754 Z " />
<glyph glyph-name="L" unicode="L" horiz-adv-x="498" d="M491 0 L491 59 L137 59 L137 767 L72 767 L72 0 L491 0 Z " />
<glyph glyph-name="M" unicode="M" horiz-adv-x="893" d="M137 0 L137 709 L147 709 L394 0 L497 0 L744 709 L755 709 L755 0 L820 0 L820 767 L698 767 L451 58 L441 58 L193 767 L72 767 L72 0 L137 0 Z " />
<glyph glyph-name="N" unicode="N" horiz-adv-x="720" d="M137 0 L137 709 L147 709 L531 0 L648 0 L648 767 L583 767 L583 58 L572 58 L188 767 L72 767 L72 0 L137 0 Z " />
<glyph glyph-name="O" unicode="O" horiz-adv-x="782" d="M390 -8 C598 -8 738 149 738 384 C738 619 598 775 390 775 C182 775 43 619 43 384 C43 149 182 -8 390 -8 L390 -8 Z M390 51 C221 51 108 185 108 384 C108 583 221 716 390 716 C559 716 672 583 672 384 C672 185 559 51 390 51 L390 51 Z " />
<glyph glyph-name="P" unicode="P" horiz-adv-x="564" d="M137 0 L137 338 L257 338 C353 338 417 352 460 385 C507 420 535 478 535 553 C535 627 507 685 460 720 C417 753 353 767 257 767 L72 767 L72 0 L137 0 Z M137 708 L248 708 C334 708 384 699 421 669 C451 645 470 608 470 553 C470 498 452 461 421 436 C384 406 333 397 248 397 L137 397 L137 708 Z " />
<glyph glyph-name="Q" unicode="Q" horiz-adv-x="784" d="M738 384 C738 619 598 775 390 775 C182 775 43 619 43 384 C43 149 182 -8 390 -8 C480 -8 557 21 615 73 L673 0 L735 0 L735 13 L655 115 C708 183 738 275 738 384 L738 384 Z M390 51 C221 51 108 185 108 384 C108 583 221 716 390 716 C559 716 672 583 672 384 C672 298 651 224 613 168 L526 278 L463 278 L463 265 L576 123 C528 77 464 51 390 51 L390 51 Z " />
<glyph glyph-name="R" unicode="R" horiz-adv-x="605" d="M367 347 C406 354 436 367 460 385 C507 420 535 478 535 553 C535 627 507 685 460 720 C417 753 353 767 257 767 L72 767 L72 0 L137 0 L137 338 L257 338 C270 338 283 338 295 339 L509 0 L576 0 L576 15 L367 344 L367 347 Z M137 397 L137 708 L248 708 C334 708 384 699 421 669 C451 645 470 608 470 553 C470 498 452 461 421 436 C384 406 333 397 248 397 L137 397 Z " />
<glyph glyph-name="S" unicode="S" horiz-adv-x="680" d="M356 -8 C526 -8 635 76 635 216 C635 337 557 381 457 409 L294 454 C220 474 145 496 145 584 C145 671 218 718 332 718 C461 718 544 660 549 545 L616 545 C612 698 488 775 333 775 C189 775 80 708 80 582 C80 449 192 416 269 394 L420 353 C500 330 570 308 570 212 C570 107 491 49 357 49 C194 49 102 132 102 279 L37 279 C37 92 170 -8 356 -8 L356 -8 Z " />
<glyph glyph-name="T" unicode="T" horiz-adv-x="622" d="M343 0 L343 708 L615 708 L615 767 L7 767 L7 708 L278 708 L278 0 L343 0 Z " />
<glyph glyph-name="U" unicode="U" horiz-adv-x="675" d="M337 -8 C520 -8 609 79 609 253 L609 767 L544 767 L544 257 C544 123 484 51 337 51 C192 51 130 120 130 257 L130 767 L65 767 L65 253 C65 82 151 -8 337 -8 L337 -8 Z " />
<glyph glyph-name="V" unicode="V" horiz-adv-x="654" d="M374 0 L638 754 L638 767 L574 767 L332 72 L321 72 L79 767 L15 767 L15 754 L280 0 L374 0 Z " />
<glyph glyph-name="W" unicode="W" horiz-adv-x="1098" d="M383 0 L545 714 L553 714 L715 0 L818 0 L1083 754 L1083 767 L1019 767 L777 72 L766 72 L606 767 L492 767 L332 72 L321 72 L79 767 L15 767 L15 754 L280 0 L383 0 Z " />
<glyph glyph-name="X" unicode="X" horiz-adv-x="657" d="M89 0 L324 338 L332 338 L568 0 L637 0 L637 13 L375 387 L632 754 L632 767 L563 767 L332 437 L323 437 L94 767 L24 767 L24 754 L280 387 L19 13 L19 0 L89 0 Z " />
<glyph glyph-name="Y" unicode="Y" horiz-adv-x="651" d="M358 0 L358 287 L642 754 L642 767 L574 767 L328 358 L322 358 L76 767 L8 767 L8 754 L292 287 L292 0 L358 0 Z " />
<glyph glyph-name="Z" unicode="Z" horiz-adv-x="642" d="M615 0 L615 59 L90 59 L90 69 L610 671 L610 767 L46 767 L46 708 L545 708 L545 697 L25 96 L25 0 L615 0 Z " />
<glyph glyph-name="bracketleft" unicode="&#x5b;" horiz-adv-x="279" d="M276 -63 L276 -22 L129 -22 L129 788 L276 788 L276 828 L81 828 L81 -63 L276 -63 Z " />
<glyph glyph-name="backslash" unicode="&#x5c;" horiz-adv-x="421" d="M473 -231 L82 767 L27 767 L417 -231 L473 -231 Z " />
<glyph glyph-name="bracketright" unicode="&#x5d;" horiz-adv-x="279" d="M198 -63 L198 828 L3 828 L3 788 L150 788 L150 -22 L3 -22 L3 -63 L198 -63 Z " />
<glyph glyph-name="asciicircum" unicode="&#x5e;" horiz-adv-x="599" d="M125 253 L300 675 L475 253 L537 253 L300 790 L63 253 L125 253 Z " />
<glyph glyph-name="underscore" unicode="&#x5f;" horiz-adv-x="677" d="M617 -45 L617 0 L61 0 L61 -45 L617 -45 Z " />
<glyph glyph-name="grave" unicode="&#x60;" horiz-adv-x="197" d="M185 612 L70 767 L8 767 L139 612 L185 612 Z " />
<glyph glyph-name="a" unicode="a" horiz-adv-x="542" d="M462 452 C432 517 363 550 271 550 C136 550 68 482 59 384 L121 384 C129 453 176 500 270 500 C372 500 419 445 420 358 L420 314 L235 314 C122 314 45 268 45 155 C45 53 117 -8 228 -8 C312 -8 375 30 411 105 L419 105 L419 0 L481 0 L481 341 C481 377 478 417 462 452 L462 452 Z M236 44 C156 44 107 86 107 155 C107 238 160 267 242 267 L420 267 L420 259 C417 133 361 44 236 44 L236 44 Z " />
<glyph glyph-name="b" unicode="b" horiz-adv-x="614" d="M326 -8 C470 -8 571 95 571 271 C571 447 470 550 326 550 C240 550 168 510 133 435 L127 435 L127 767 L65 767 L65 0 L127 0 L127 107 L133 107 C168 32 240 -8 326 -8 L326 -8 Z M316 47 C202 47 122 125 122 271 C122 417 202 495 316 495 C430 495 509 416 509 271 C509 126 430 47 316 47 L316 47 Z " />
<glyph glyph-name="c" unicode="c" horiz-adv-x="580" d="M301 -8 C426 -8 518 59 541 181 L476 181 C458 93 393 47 301 47 C186 47 105 125 105 271 C105 417 186 495 301 495 C393 495 458 449 476 361 L541 361 C518 483 426 550 301 550 C152 550 43 449 43 271 C43 92 152 -8 301 -8 L301 -8 Z " />
<glyph glyph-name="d" unicode="d" horiz-adv-x="614" d="M288 -8 C374 -8 446 32 481 107 L487 107 L487 0 L549 0 L549 767 L487 767 L487 435 L481 435 C446 510 374 550 288 550 C144 550 43 447 43 271 C43 95 144 -8 288 -8 L288 -8 Z M298 47 C184 47 105 126 105 271 C105 416 184 495 298 495 C412 495 492 417 492 271 C492 125 412 47 298 47 L298 47 Z " />
<glyph glyph-name="e" unicode="e" horiz-adv-x="600" d="M559 283 C555 452 448 550 301 550 C152 550 43 449 43 271 C43 93 152 -8 301 -8 C417 -8 509 53 544 163 L478 163 C449 88 384 47 301 47 C187 47 107 125 105 267 L559 267 L559 283 Z M301 495 C405 495 481 431 495 314 L108 314 C122 432 198 495 301 495 L301 495 Z " />
<glyph glyph-name="f" unicode="f" horiz-adv-x="306" d="M289 710 L289 767 L218 767 C152 767 111 726 111 660 L111 542 L21 542 L21 485 L111 485 L111 0 L173 0 L173 485 L289 485 L289 542 L173 542 L173 660 C173 689 194 710 223 710 L289 710 Z " />
<glyph glyph-name="g" unicode="g" horiz-adv-x="614" d="M451 -225 C514 -225 549 -190 549 -127 L549 542 L487 542 L487 435 L481 435 C446 510 374 550 288 550 C144 550 43 447 43 271 C43 95 144 -8 288 -8 C374 -8 446 32 481 107 L487 107 L487 -111 C487 -150 467 -171 428 -171 L181 -171 C141 -171 121 -150 121 -111 L121 -47 L59 -47 L59 -127 C59 -190 94 -225 158 -225 L451 -225 Z M298 47 C184 47 105 126 105 271 C105 416 184 495 298 495 C412 495 492 417 492 271 C492 125 412 47 298 47 L298 47 Z " />
<glyph glyph-name="h" unicode="h" horiz-adv-x="549" d="M126 0 L126 297 C126 339 129 377 139 402 C159 458 209 493 277 493 C391 493 428 425 428 301 L428 0 L490 0 L490 315 C490 466 430 550 295 550 C220 550 163 514 132 463 L126 463 L126 767 L64 767 L64 0 L126 0 Z " />
<glyph glyph-name="i" unicode="i" horiz-adv-x="190" d="M95 681 C121 681 143 703 143 730 C143 756 121 778 95 778 C68 778 46 756 46 730 C46 703 68 681 95 681 L95 681 Z M126 0 L126 542 L64 542 L64 0 L126 0 Z " />
<glyph glyph-name="j" unicode="j" horiz-adv-x="203" d="M106 681 C132 681 154 703 154 730 C154 756 132 778 106 778 C79 778 57 756 57 730 C57 703 79 681 106 681 L106 681 Z M30 -225 C96 -225 137 -184 137 -118 L137 542 L75 542 L75 -118 C75 -147 53 -168 25 -168 L-32 -168 L-32 -225 L30 -225 Z " />
<glyph glyph-name="k" unicode="k" horiz-adv-x="544" d="M482 525 L482 542 L415 542 L131 247 L126 247 L126 767 L64 767 L64 0 L126 0 L126 161 L262 300 L267 300 L458 0 L523 0 L523 14 L308 347 L482 525 Z " />
<glyph glyph-name="l" unicode="l" horiz-adv-x="258" d="M231 0 L231 57 L174 57 C145 57 124 78 124 107 L124 767 L62 767 L62 107 C62 41 103 0 169 0 L231 0 Z " />
<glyph glyph-name="m" unicode="m" horiz-adv-x="883" d="M127 0 L127 313 C127 365 132 393 143 416 C166 465 212 493 274 493 C379 493 413 423 413 313 L413 0 L475 0 L475 313 C475 355 478 381 488 406 C509 462 559 493 623 493 C723 493 762 426 762 338 L762 0 L824 0 L824 343 C824 457 774 550 636 550 C556 550 494 512 463 437 L455 437 C433 512 378 550 293 550 C217 550 163 516 134 463 L127 463 L127 542 L65 542 L65 0 L127 0 Z " />
<glyph glyph-name="n" unicode="n" horiz-adv-x="549" d="M126 0 L126 297 C126 339 129 377 139 402 C159 458 209 493 277 493 C391 493 428 425 428 301 L428 0 L490 0 L490 315 C490 466 430 550 295 550 C220 550 163 514 132 463 L126 463 L126 542 L64 542 L64 0 L126 0 Z " />
<glyph glyph-name="o" unicode="o" horiz-adv-x="604" d="M301 -8 C451 -8 559 93 559 271 C559 449 451 550 301 550 C152 550 43 449 43 271 C43 93 152 -8 301 -8 L301 -8 Z M301 47 C186 47 105 126 105 271 C105 416 186 495 301 495 C417 495 498 416 498 271 C498 126 417 47 301 47 L301 47 Z " />
<glyph glyph-name="p" unicode="p" horiz-adv-x="614" d="M326 550 C240 550 168 510 133 435 L127 435 L127 542 L65 542 L65 -225 L127 -225 L127 107 L133 107 C168 32 240 -8 326 -8 C470 -8 571 95 571 271 C571 447 470 550 326 550 L326 550 Z M316 495 C430 495 509 416 509 271 C509 126 430 47 316 47 C202 47 122 125 122 271 C122 417 202 495 316 495 L316 495 Z " />
<glyph glyph-name="q" unicode="q" horiz-adv-x="614" d="M288 550 C144 550 43 447 43 271 C43 95 144 -8 288 -8 C374 -8 446 32 481 107 L487 107 L487 -225 L549 -225 L549 542 L487 542 L487 435 L481 435 C446 510 374 550 288 550 L288 550 Z M298 495 C412 495 492 417 492 271 C492 125 412 47 298 47 C184 47 105 126 105 271 C105 416 184 495 298 495 L298 495 Z " />
<glyph glyph-name="r" unicode="r" horiz-adv-x="356" d="M126 0 L126 375 C126 445 165 485 236 485 L338 485 L338 542 L246 542 C191 542 159 522 136 490 L126 490 L126 542 L64 542 L64 0 L126 0 Z " />
<glyph glyph-name="s" unicode="s" horiz-adv-x="522" d="M268 -8 C389 -8 477 49 477 154 C477 235 429 276 335 298 L238 323 C168 340 125 354 125 409 C125 469 181 500 253 500 C336 500 397 463 402 384 L464 384 C458 489 375 550 254 550 C151 550 64 504 64 405 C64 311 141 286 208 269 L319 241 C368 228 416 215 416 149 C416 75 355 42 270 42 C175 42 111 81 100 181 L38 181 C45 55 135 -8 268 -8 L268 -8 Z " />
<glyph glyph-name="t" unicode="t" horiz-adv-x="316" d="M288 542 L172 542 L172 767 L111 767 L111 542 L20 542 L20 485 L111 485 L111 107 C111 41 151 0 218 0 L288 0 L288 57 L223 57 C194 57 172 78 172 107 L172 485 L288 485 L288 542 Z " />
<glyph glyph-name="u" unicode="u" horiz-adv-x="549" d="M253 -8 C329 -8 385 28 416 79 L422 79 L422 0 L484 0 L484 542 L422 542 L422 245 C422 204 419 166 408 140 C388 83 338 49 271 49 C157 49 120 117 120 241 L120 542 L58 542 L58 227 C58 76 118 -8 253 -8 L253 -8 Z " />
<glyph glyph-name="v" unicode="v" horiz-adv-x="548" d="M323 0 L529 542 L463 542 L279 54 L269 54 L84 542 L18 542 L224 0 L323 0 Z " />
<glyph glyph-name="w" unicode="w" horiz-adv-x="900" d="M324 0 L444 486 L455 486 L575 0 L676 0 L880 542 L815 542 L632 56 L620 56 L500 542 L398 542 L279 56 L268 56 L84 542 L18 542 L225 0 L324 0 Z " />
<glyph glyph-name="x" unicode="x" horiz-adv-x="536" d="M96 0 L262 225 L273 225 L439 0 L515 0 L313 272 L514 542 L439 542 L273 320 L262 320 L96 542 L21 542 L222 272 L20 0 L96 0 Z " />
<glyph glyph-name="y" unicode="y" horiz-adv-x="548" d="M279 54 L269 54 L84 542 L18 542 L224 0 L258 0 L214 -113 C200 -149 173 -167 134 -167 L49 -167 L49 -224 L148 -224 C204 -224 245 -196 266 -144 L323 0 L529 542 L463 542 L279 54 Z " />
<glyph glyph-name="z" unicode="z" horiz-adv-x="504" d="M468 0 L468 57 L100 57 L100 62 L467 455 L467 542 L49 542 L49 485 L399 485 L399 478 L32 85 L32 0 L468 0 Z " />
<glyph glyph-name="braceleft" unicode="&#x7b;" horiz-adv-x="257" d="M250 -73 L250 -33 L210 -33 C160 -33 133 2 133 61 L133 260 C133 309 108 336 66 353 L66 359 C110 374 133 403 133 463 L133 682 C133 742 157 773 217 773 L250 773 L250 813 L200 813 C121 813 83 768 83 683 L83 464 C83 408 58 390 18 379 L18 333 C55 321 83 303 83 259 L83 60 C83 -21 122 -73 193 -73 L250 -73 Z " />
<glyph glyph-name="bar" unicode="&#x7c;" horiz-adv-x="328" d="M186 -278 L186 832 L141 832 L141 -278 L186 -278 Z " />
<glyph glyph-name="braceright" unicode="&#x7d;" horiz-adv-x="257" d="M64 -73 C135 -73 174 -21 174 60 L174 259 C174 303 202 321 238 333 L238 379 C199 390 174 408 174 464 L174 683 C174 768 136 813 57 813 L6 813 L6 773 L40 773 C100 773 124 742 124 682 L124 463 C124 403 147 374 190 359 L190 353 C149 336 124 309 124 260 L124 61 C124 2 96 -33 46 -33 L7 -33 L7 -73 L64 -73 Z " />
<glyph glyph-name="asciitilde" unicode="&#x7e;" horiz-adv-x="491" d="M341 181 C416 181 464 248 464 348 L419 348 C419 273 388 223 341 223 C260 223 263 360 148 360 C74 360 26 300 26 205 L71 205 C71 276 99 319 148 319 C234 319 230 181 341 181 L341 181 Z " />
<glyph glyph-name="uni00A0" unicode="&#xa0;" horiz-adv-x="306" d="" />
<glyph glyph-name="exclamdown" unicode="&#xa1;" horiz-adv-x="270" d="M142 550 C112 550 88 526 88 496 C88 467 112 444 142 444 C171 444 196 467 196 496 C196 526 172 550 142 550 L142 550 Z M109 -225 L174 -225 L174 354 L109 354 L109 -225 Z " />
<glyph glyph-name="cent" unicode="&#xa2;" horiz-adv-x="578" d="M317 498 C402 492 461 446 478 361 L539 361 C518 478 433 544 317 550 L317 642 L288 642 L288 550 C146 544 43 444 43 271 C43 97 146 -2 288 -8 L288 -101 L317 -101 L317 -8 C433 -2 518 64 539 181 L478 181 C461 96 402 50 317 44 L317 498 Z M102 271 C102 412 178 492 288 498 L288 44 C178 50 102 129 102 271 L102 271 Z " />
<glyph glyph-name="sterling" unicode="&#xa3;" horiz-adv-x="598" d="M138 65 C165 85 254 129 254 237 C254 291 241 333 226 372 L431 372 L431 428 L203 428 C190 463 179 500 179 545 C179 653 245 719 341 719 C428 719 482 668 495 591 L554 591 C544 699 462 775 344 775 C214 775 123 681 123 550 C123 505 133 465 147 428 L53 428 L53 372 L168 372 C184 329 199 286 199 236 C199 154 141 94 49 67 L49 0 L539 0 L539 56 L138 56 L138 65 Z " />
<glyph glyph-name="currency" unicode="&#xa4;" horiz-adv-x="749" d="M216 155 C307 77 441 77 531 155 L586 101 L617 134 L563 187 C641 277 641 412 563 502 L617 555 L585 587 L531 534 C441 611 307 611 217 533 L163 587 L131 554 L185 501 C108 412 108 277 185 187 L131 134 L163 101 L216 155 Z M231 201 C152 279 153 408 231 486 C310 566 438 566 516 487 C596 409 595 280 516 201 C438 122 310 122 231 201 L231 201 Z " />
<glyph glyph-name="yen" unicode="&#xa5;" horiz-adv-x="651" d="M574 767 L328 358 L322 358 L76 767 L8 767 L8 754 L263 335 L109 335 L109 287 L292 287 L292 171 L109 171 L109 123 L292 123 L292 0 L358 0 L358 123 L575 123 L575 171 L358 171 L358 287 L575 287 L575 335 L387 335 L642 754 L642 767 L574 767 Z " />
<glyph glyph-name="brokenbar" unicode="&#xa6;" horiz-adv-x="250" d="M148 364 L148 832 L102 832 L102 364 L148 364 Z M148 -278 L148 185 L102 185 L102 -278 L148 -278 Z " />
<glyph glyph-name="section" unicode="&#xa7;" horiz-adv-x="665" d="M534 94 C556 126 567 165 567 209 C567 459 157 392 157 591 C157 663 221 721 308 721 C414 721 490 663 490 545 L549 545 C548 700 444 774 308 774 C190 774 97 699 97 589 C97 546 110 513 131 487 C109 455 97 415 97 372 C97 122 508 188 508 -11 C508 -83 444 -140 357 -140 C250 -140 175 -83 175 36 L115 36 C116 -119 220 -194 357 -194 C474 -194 568 -119 568 -9 C568 34 555 67 534 94 L534 94 Z M157 376 C157 401 163 426 174 446 C293 365 507 361 507 204 C507 178 501 154 490 134 C371 216 157 220 157 376 L157 376 Z " />
<glyph glyph-name="dieresis" unicode="&#xa8;" horiz-adv-x="387" d="M97 681 C123 681 145 703 145 730 C145 756 123 778 97 778 C70 778 48 756 48 730 C48 703 70 681 97 681 L97 681 Z M291 681 C317 681 339 703 339 730 C339 756 317 778 291 778 C264 778 242 756 242 730 C242 703 264 681 291 681 L291 681 Z " />
<glyph glyph-name="copyright" unicode="&#xa9;" horiz-adv-x="893" d="M447 -10 C664 -10 840 156 840 383 C840 610 664 776 447 776 C230 776 53 610 53 383 C53 156 230 -10 447 -10 L447 -10 Z M447 30 C250 30 92 177 92 383 C92 589 250 737 447 737 C642 737 802 588 802 383 C802 179 642 30 447 30 L447 30 Z M451 120 C578 120 656 201 675 314 L631 314 C613 224 552 160 451 160 C329 160 261 256 261 383 C261 511 328 607 451 607 C552 607 613 541 631 453 L675 453 C655 567 576 646 451 646 C302 646 218 532 218 383 C218 234 302 120 451 120 L451 120 Z " />
<glyph glyph-name="ordfeminine" unicode="&#xaa;" horiz-adv-x="336" d="M280 716 C261 757 218 775 165 775 C85 775 43 734 37 676 L76 676 C81 716 108 743 164 743 C224 743 251 711 251 660 L251 634 L143 634 C75 634 29 607 29 537 C29 478 73 440 138 440 C188 440 225 462 248 506 L253 506 L258 445 L291 445 L291 648 C291 671 288 698 280 716 L280 716 Z M144 473 C98 473 67 497 67 538 C67 586 99 605 148 605 L251 605 L251 600 C251 525 217 473 144 473 L144 473 Z " />
<glyph glyph-name="guillemotleft" unicode="&#xab;" horiz-adv-x="525" d="M265 141 L115 272 L265 402 L265 454 L54 272 L265 88 L265 141 Z M461 141 L312 272 L461 402 L461 454 L251 272 L461 88 L461 141 Z " />
<glyph glyph-name="logicalnot" unicode="&#xac;" horiz-adv-x="538" d="M511 20 L511 294 L26 294 L26 249 L466 249 L466 20 L511 20 Z " />
<glyph glyph-name="uni00AD" unicode="&#xad;" horiz-adv-x="408" d="M348 248 L348 294 L61 294 L61 248 L348 248 Z " />
<glyph glyph-name="registered" unicode="&#xae;" horiz-adv-x="595" d="M297 267 C436 267 549 371 549 521 C549 672 436 776 297 776 C158 776 46 672 46 521 C46 371 159 267 297 267 L297 267 Z M297 294 C174 294 73 386 73 521 C73 657 173 749 297 749 C421 749 521 657 521 521 C521 386 420 294 297 294 L297 294 Z M246 369 L246 506 L291 506 C298 506 304 507 310 508 L390 369 L422 369 L339 511 C381 521 403 550 403 589 C403 641 364 674 301 674 L218 674 L218 369 L246 369 Z M246 648 L301 648 C347 648 374 626 374 588 C374 552 349 531 304 530 L246 530 L246 648 Z " />
<glyph glyph-name="macron" unicode="&#xaf;" horiz-adv-x="416" d="M356 671 L356 707 L60 707 L60 671 L356 671 Z " />
<glyph glyph-name="degree" unicode="&#xb0;" horiz-adv-x="514" d="M257 464 C342 464 411 533 411 619 C411 705 342 774 257 774 C171 774 101 705 101 619 C101 533 171 464 257 464 L257 464 Z M257 505 C193 505 142 555 142 619 C142 683 193 733 257 733 C320 733 371 683 371 619 C371 555 320 505 257 505 L257 505 Z " />
<glyph glyph-name="plusminus" unicode="&#xb1;" horiz-adv-x="578" d="M312 238 L312 349 L552 349 L552 395 L312 395 L312 506 L266 506 L266 395 L26 395 L26 349 L266 349 L266 238 L312 238 Z M552 147 L552 193 L26 193 L26 147 L552 147 Z " />
<glyph glyph-name="uni00B2" unicode="&#xb2;" horiz-adv-x="368" d="M322 307 L322 342 L85 342 L89 343 L263 539 C295 573 311 609 311 647 C311 714 257 772 181 772 C110 772 51 714 52 643 L91 643 C91 695 129 736 181 736 C234 736 272 695 272 647 C272 621 263 595 235 565 L51 358 L51 307 L322 307 Z " />
<glyph glyph-name="uni00B3" unicode="&#xb3;" horiz-adv-x="420" d="M207 302 C296 302 365 353 365 436 C365 507 309 542 247 552 L247 554 C297 566 341 594 341 655 C341 725 280 772 205 772 C128 772 70 723 70 647 L109 647 C110 702 148 736 206 736 C264 736 302 702 302 652 C302 580 236 565 187 565 L167 565 L167 535 L192 535 C249 535 326 519 326 439 C326 376 281 338 207 338 C132 338 88 376 87 442 L48 442 C48 353 115 302 207 302 L207 302 Z " />
<glyph glyph-name="acute" unicode="&#xb4;" horiz-adv-x="199" d="M56 612 L191 767 L128 767 L11 612 L56 612 Z " />
<glyph glyph-name="uni00B5" unicode="&#xb5;" horiz-adv-x="676" d="M189 -192 L189 71 C213 19 260 -8 327 -8 C403 -8 468 30 499 99 L499 0 L557 0 L557 542 L499 542 L499 216 C499 108 437 46 342 46 C248 46 198 106 198 211 L198 542 L141 542 L141 -192 L189 -192 Z " />
<glyph glyph-name="paragraph" unicode="&#xb6;" horiz-adv-x="657" d="M353 -133 L353 767 L311 767 C184 767 65 688 65 552 C65 417 184 338 311 338 L311 -133 L353 -133 Z M516 -133 L516 767 L473 767 L473 -133 L516 -133 Z " />
<glyph glyph-name="periodcentered" unicode="&#xb7;" horiz-adv-x="195" d="M98 324 C127 324 151 348 151 378 C151 406 127 430 98 430 C67 430 43 406 43 378 C43 348 67 324 98 324 L98 324 Z " />
<glyph glyph-name="cedilla" unicode="&#xb8;" horiz-adv-x="227" d="M96 -229 C151 -229 192 -194 192 -147 C192 -114 172 -88 139 -76 C131 -74 121 -72 112 -71 L160 9 L131 15 L69 -93 C86 -93 104 -95 118 -99 C144 -107 159 -125 159 -147 C159 -176 136 -197 98 -197 C76 -197 49 -189 27 -169 L9 -198 C36 -220 68 -229 96 -229 L96 -229 Z " />
<glyph glyph-name="uni00B9" unicode="&#xb9;" horiz-adv-x="267" d="M156 725 C156 701 145 694 122 694 L37 694 L37 658 L155 658 L155 307 L194 307 L194 767 L156 767 L156 725 Z " />
<glyph glyph-name="ordmasculine" unicode="&#xba;" horiz-adv-x="363" d="M181 437 C270 437 337 497 337 604 C337 711 270 772 181 772 C92 772 26 711 26 604 C26 497 92 437 181 437 L181 437 Z M181 471 C113 471 64 518 64 604 C64 691 113 738 181 738 C250 738 299 691 299 604 C299 518 250 471 181 471 L181 471 Z " />
<glyph glyph-name="guillemotright" unicode="&#xbb;" horiz-adv-x="525" d="M274 272 L64 454 L64 402 L213 272 L64 141 L64 88 L274 272 Z M471 272 L260 454 L260 402 L410 272 L260 141 L260 88 L471 272 Z " />
<glyph glyph-name="onequarter" unicode="&#xbc;" horiz-adv-x="858" d="M223 767 L185 767 L185 725 C185 701 175 694 151 694 L66 694 L66 658 L184 658 L184 307 L223 307 L223 767 Z M190 0 L231 0 L655 767 L614 767 L190 0 Z M720 460 L671 460 L452 146 L452 107 L681 107 L681 0 L720 0 L720 107 L792 107 L792 142 L720 142 L720 460 Z M490 142 L490 145 L678 413 L681 413 L681 142 L490 142 Z " />
<glyph glyph-name="onehalf" unicode="&#xbd;" horiz-adv-x="853" d="M223 307 L223 767 L185 767 L185 725 C185 701 175 694 151 694 L66 694 L66 658 L184 658 L184 307 L223 307 Z M153 0 L194 0 L618 767 L577 767 L153 0 Z M553 36 L728 232 C760 266 776 302 776 340 C776 407 722 465 646 465 C574 465 516 407 516 336 L555 336 C555 388 594 429 646 429 C699 429 737 388 737 340 C737 314 727 288 700 258 L515 51 L515 0 L787 0 L787 35 L549 35 L553 36 Z " />
<glyph glyph-name="threequarters" unicode="&#xbe;" horiz-adv-x="951" d="M225 302 C314 302 383 353 383 436 C383 508 327 542 265 553 L265 554 C315 566 359 594 359 655 C359 725 298 772 223 772 C146 772 88 723 88 647 L127 647 C128 702 166 736 224 736 C282 736 319 703 319 652 C319 580 254 565 206 565 L184 565 L184 535 L210 535 C267 535 344 519 344 439 C344 376 299 338 225 338 C150 338 106 376 105 442 L66 442 C66 353 133 302 225 302 L225 302 Z M748 767 L707 767 L283 0 L323 0 L748 767 Z M813 107 L884 107 L884 142 L813 142 L813 460 L764 460 L545 146 L545 107 L773 107 L773 0 L813 0 L813 107 Z M771 413 L773 413 L773 142 L583 142 L583 145 L771 413 Z " />
<glyph glyph-name="questiondown" unicode="&#xbf;" horiz-adv-x="371" d="M248 550 C219 550 195 526 195 496 C195 467 219 444 248 444 C279 444 303 467 303 496 C303 526 279 550 248 550 L248 550 Z M216 354 L216 235 C216 65 20 121 20 -51 C20 -107 44 -153 85 -183 C121 -209 171 -225 245 -225 L335 -225 L335 -166 L252 -166 C196 -166 153 -155 125 -134 C99 -114 85 -87 85 -49 C85 92 281 33 281 235 L281 354 L216 354 Z " />
<glyph glyph-name="Agrave" unicode="&#xc0;" horiz-adv-x="654" d="M235 992 L173 992 L304 837 L350 837 L235 992 Z M280 767 L16 13 L16 0 L80 0 L144 186 L510 186 L574 0 L639 0 L639 13 L374 767 L280 767 Z M322 700 L333 700 L490 245 L165 245 L322 700 Z " />
<glyph glyph-name="Aacute" unicode="&#xc1;" horiz-adv-x="654" d="M421 992 L304 837 L349 837 L484 992 L421 992 Z M280 767 L16 13 L16 0 L80 0 L144 186 L510 186 L574 0 L639 0 L639 13 L374 767 L280 767 Z M322 700 L333 700 L490 245 L165 245 L322 700 Z " />
<glyph glyph-name="Acircumflex" unicode="&#xc2;" horiz-adv-x="654" d="M435 837 L489 837 L354 992 L300 992 L166 837 L220 837 L327 963 L435 837 Z M280 767 L16 13 L16 0 L80 0 L144 186 L510 186 L574 0 L639 0 L639 13 L374 767 L280 767 Z M322 700 L333 700 L490 245 L165 245 L322 700 Z " />
<glyph glyph-name="Atilde" unicode="&#xc3;" horiz-adv-x="654" d="M252 958 C317 959 314 858 406 858 C462 858 499 910 499 992 L462 992 C462 933 439 896 406 896 C340 896 339 997 254 996 C194 997 156 949 156 868 L192 868 C192 925 215 959 252 958 L252 958 Z M280 767 L16 13 L16 0 L80 0 L144 186 L510 186 L574 0 L639 0 L639 13 L374 767 L280 767 Z M322 700 L333 700 L490 245 L165 245 L322 700 Z " />
<glyph glyph-name="Adieresis" unicode="&#xc4;" horiz-adv-x="654" d="M231 827 C256 827 278 849 278 875 C278 902 256 923 231 923 C203 923 182 902 182 875 C182 849 203 827 231 827 L231 827 Z M425 827 C450 827 473 849 473 875 C473 902 450 923 425 923 C397 923 376 902 376 875 C376 849 397 827 425 827 L425 827 Z M280 767 L16 13 L16 0 L80 0 L144 186 L510 186 L574 0 L639 0 L639 13 L374 767 L280 767 Z M322 700 L333 700 L490 245 L165 245 L322 700 Z " />
<glyph glyph-name="Aring" unicode="&#xc5;" horiz-adv-x="654" d="M381 747 C409 765 428 797 428 833 C428 889 382 934 327 934 C271 934 227 889 227 833 C227 798 245 766 273 748 L16 13 L16 0 L80 0 L144 186 L510 186 L574 0 L639 0 L639 13 L381 747 Z M327 900 C365 900 393 870 393 833 C393 800 371 772 339 767 L315 767 C283 772 261 799 261 833 C261 870 289 900 327 900 L327 900 Z M322 700 L333 700 L490 245 L165 245 L322 700 Z " />
<glyph glyph-name="AE" unicode="&#xc6;" horiz-adv-x="981" d="M519 366 L886 366 L886 425 L519 425 L519 708 L932 708 L932 767 L281 767 L16 13 L16 0 L82 0 L146 186 L454 186 L454 0 L954 0 L954 59 L519 59 L519 366 Z M325 708 L454 708 L454 246 L166 246 L325 708 Z " />
<glyph glyph-name="Ccedilla" unicode="&#xc7;" horiz-adv-x="764" d="M390 51 C221 51 108 185 108 384 C108 583 221 716 390 716 C528 716 628 628 657 488 L724 488 C692 664 565 775 390 775 C182 775 43 619 43 384 C43 160 170 6 362 -7 L313 -93 C330 -93 348 -95 362 -99 C388 -107 403 -125 403 -147 C403 -176 380 -197 342 -197 C320 -197 293 -189 271 -169 L253 -198 C280 -220 312 -229 340 -229 C395 -229 436 -194 436 -147 C436 -114 416 -88 383 -76 C375 -74 365 -72 356 -71 L394 -8 C567 -6 692 104 724 279 L657 279 C628 139 527 51 390 51 L390 51 Z " />
<glyph glyph-name="Egrave" unicode="&#xc8;" horiz-adv-x="598" d="M345 837 L230 992 L168 992 L299 837 L345 837 Z M572 0 L572 59 L137 59 L137 366 L504 366 L504 425 L137 425 L137 708 L549 708 L549 767 L72 767 L72 0 L572 0 Z " />
<glyph glyph-name="Eacute" unicode="&#xc9;" horiz-adv-x="598" d="M344 837 L479 992 L416 992 L299 837 L344 837 Z M572 0 L572 59 L137 59 L137 366 L504 366 L504 425 L137 425 L137 708 L549 708 L549 767 L72 767 L72 0 L572 0 Z " />
<glyph glyph-name="Ecircumflex" unicode="&#xca;" horiz-adv-x="598" d="M429 837 L483 837 L348 992 L294 992 L160 837 L214 837 L321 963 L429 837 Z M137 366 L504 366 L504 425 L137 425 L137 708 L549 708 L549 767 L72 767 L72 0 L572 0 L572 59 L137 59 L137 366 Z " />
<glyph glyph-name="Edieresis" unicode="&#xcb;" horiz-adv-x="598" d="M226 827 C251 827 273 849 273 875 C273 902 251 923 226 923 C198 923 177 902 177 875 C177 849 198 827 226 827 L226 827 Z M420 827 C445 827 468 849 468 875 C468 902 445 923 420 923 C392 923 371 902 371 875 C371 849 392 827 420 827 L420 827 Z M572 0 L572 59 L137 59 L137 366 L504 366 L504 425 L137 425 L137 708 L549 708 L549 767 L72 767 L72 0 L572 0 Z " />
<glyph glyph-name="Igrave" unicode="&#xcc;" horiz-adv-x="208" d="M127 837 L12 992 L-50 992 L81 837 L127 837 Z M137 0 L137 767 L72 767 L72 0 L137 0 Z " />
<glyph glyph-name="Iacute" unicode="&#xcd;" horiz-adv-x="208" d="M126 837 L261 992 L198 992 L81 837 L126 837 Z M137 0 L137 767 L72 767 L72 0 L137 0 Z " />
<glyph glyph-name="Icircumflex" unicode="&#xce;" horiz-adv-x="208" d="M76 992 L-58 837 L-4 837 L103 963 L211 837 L265 837 L130 992 L76 992 Z M137 0 L137 767 L72 767 L72 0 L137 0 Z " />
<glyph glyph-name="Idieresis" unicode="&#xcf;" horiz-adv-x="208" d="M8 827 C33 827 55 849 55 875 C55 902 33 923 8 923 C-20 923 -41 902 -41 875 C-41 849 -20 827 8 827 L8 827 Z M202 827 C227 827 250 849 250 875 C250 902 227 923 202 923 C174 923 153 902 153 875 C153 849 174 827 202 827 L202 827 Z M137 0 L137 767 L72 767 L72 0 L137 0 Z " />
<glyph glyph-name="Eth" unicode="&#xd0;" horiz-adv-x="754" d="M611 663 C542 733 439 767 313 767 L71 767 L71 406 L23 406 L23 361 L71 361 L71 0 L312 0 C435 0 537 32 608 99 C673 161 711 254 711 380 C711 505 675 599 611 663 L611 663 Z M567 148 C506 86 418 59 311 59 L136 59 L136 361 L299 361 L299 406 L136 406 L136 708 L312 708 C420 708 511 680 570 615 C619 562 646 483 646 380 C646 278 618 200 567 148 L567 148 Z " />
<glyph glyph-name="Ntilde" unicode="&#xd1;" horiz-adv-x="720" d="M438 858 C494 858 531 910 531 992 L494 992 C494 933 471 896 438 896 C372 896 371 997 286 996 C226 997 188 949 188 868 L224 868 C224 925 247 959 284 958 C349 959 346 858 438 858 L438 858 Z M137 0 L137 709 L147 709 L531 0 L648 0 L648 767 L583 767 L583 58 L572 58 L188 767 L72 767 L72 0 L137 0 Z " />
<glyph glyph-name="Ograve" unicode="&#xd2;" horiz-adv-x="782" d="M413 837 L298 992 L236 992 L367 837 L413 837 Z M390 -8 C598 -8 738 149 738 384 C738 619 598 775 390 775 C182 775 43 619 43 384 C43 149 182 -8 390 -8 L390 -8 Z M390 51 C221 51 108 185 108 384 C108 583 221 716 390 716 C559 716 672 583 672 384 C672 185 559 51 390 51 L390 51 Z " />
<glyph glyph-name="Oacute" unicode="&#xd3;" horiz-adv-x="782" d="M412 837 L547 992 L484 992 L367 837 L412 837 Z M390 -8 C598 -8 738 149 738 384 C738 619 598 775 390 775 C182 775 43 619 43 384 C43 149 182 -8 390 -8 L390 -8 Z M390 51 C221 51 108 185 108 384 C108 583 221 716 390 716 C559 716 672 583 672 384 C672 185 559 51 390 51 L390 51 Z " />
<glyph glyph-name="Ocircumflex" unicode="&#xd4;" horiz-adv-x="782" d="M497 837 L551 837 L416 992 L362 992 L228 837 L282 837 L389 963 L497 837 Z M390 775 C182 775 43 619 43 384 C43 149 182 -8 390 -8 C598 -8 738 149 738 384 C738 619 598 775 390 775 L390 775 Z M390 51 C221 51 108 185 108 384 C108 583 221 716 390 716 C559 716 672 583 672 384 C672 185 559 51 390 51 L390 51 Z " />
<glyph glyph-name="Otilde" unicode="&#xd5;" horiz-adv-x="782" d="M468 858 C524 858 561 910 561 992 L524 992 C524 933 501 896 468 896 C402 896 401 997 316 996 C256 997 218 949 218 868 L254 868 C254 925 277 959 314 958 C379 959 376 858 468 858 L468 858 Z M390 -8 C598 -8 738 149 738 384 C738 619 598 775 390 775 C182 775 43 619 43 384 C43 149 182 -8 390 -8 L390 -8 Z M390 51 C221 51 108 185 108 384 C108 583 221 716 390 716 C559 716 672 583 672 384 C672 185 559 51 390 51 L390 51 Z " />
<glyph glyph-name="Odieresis" unicode="&#xd6;" horiz-adv-x="782" d="M294 827 C319 827 341 849 341 875 C341 902 319 923 294 923 C266 923 245 902 245 875 C245 849 266 827 294 827 L294 827 Z M488 827 C513 827 536 849 536 875 C536 902 513 923 488 923 C460 923 439 902 439 875 C439 849 460 827 488 827 L488 827 Z M390 -8 C598 -8 738 149 738 384 C738 619 598 775 390 775 C182 775 43 619 43 384 C43 149 182 -8 390 -8 L390 -8 Z M390 51 C221 51 108 185 108 384 C108 583 221 716 390 716 C559 716 672 583 672 384 C672 185 559 51 390 51 L390 51 Z " />
<glyph glyph-name="multiply" unicode="&#xd7;" horiz-adv-x="457" d="M228 239 L398 69 L431 101 L261 271 L431 441 L398 473 L228 304 L58 473 L26 441 L196 271 L26 101 L58 69 L228 239 Z " />
<glyph glyph-name="Oslash" unicode="&#xd8;" horiz-adv-x="782" d="M655 762 L616 787 L576 724 C524 757 461 775 390 775 C182 775 43 619 43 384 C43 249 89 140 167 72 L125 5 L165 -19 L204 44 C256 10 319 -8 390 -8 C598 -8 738 149 738 384 C738 519 692 628 613 696 L655 762 Z M108 384 C108 583 221 716 390 716 C449 716 500 700 543 671 L201 126 C142 185 108 275 108 384 L108 384 Z M390 51 C332 51 280 67 237 96 L579 641 C638 583 672 493 672 384 C672 185 559 51 390 51 L390 51 Z " />
<glyph glyph-name="Ugrave" unicode="&#xd9;" horiz-adv-x="675" d="M360 837 L245 992 L183 992 L314 837 L360 837 Z M337 -8 C520 -8 609 79 609 253 L609 767 L544 767 L544 257 C544 123 484 51 337 51 C192 51 130 120 130 257 L130 767 L65 767 L65 253 C65 82 151 -8 337 -8 L337 -8 Z " />
<glyph glyph-name="Uacute" unicode="&#xda;" horiz-adv-x="675" d="M359 837 L494 992 L431 992 L314 837 L359 837 Z M337 -8 C520 -8 609 79 609 253 L609 767 L544 767 L544 257 C544 123 484 51 337 51 C192 51 130 120 130 257 L130 767 L65 767 L65 253 C65 82 151 -8 337 -8 L337 -8 Z " />
<glyph glyph-name="Ucircumflex" unicode="&#xdb;" horiz-adv-x="675" d="M444 837 L498 837 L363 992 L309 992 L175 837 L229 837 L336 963 L444 837 Z M544 257 C544 123 484 51 337 51 C192 51 130 120 130 257 L130 767 L65 767 L65 253 C65 82 151 -8 337 -8 C520 -8 609 79 609 253 L609 767 L544 767 L544 257 Z " />
<glyph glyph-name="Udieresis" unicode="&#xdc;" horiz-adv-x="675" d="M241 827 C266 827 288 849 288 875 C288 902 266 923 241 923 C213 923 192 902 192 875 C192 849 213 827 241 827 L241 827 Z M435 827 C460 827 483 849 483 875 C483 902 460 923 435 923 C407 923 386 902 386 875 C386 849 407 827 435 827 L435 827 Z M337 -8 C520 -8 609 79 609 253 L609 767 L544 767 L544 257 C544 123 484 51 337 51 C192 51 130 120 130 257 L130 767 L65 767 L65 253 C65 82 151 -8 337 -8 L337 -8 Z " />
<glyph glyph-name="Yacute" unicode="&#xdd;" horiz-adv-x="651" d="M347 837 L482 992 L419 992 L302 837 L347 837 Z M358 0 L358 287 L642 754 L642 767 L574 767 L328 358 L322 358 L76 767 L8 767 L8 754 L292 287 L292 0 L358 0 Z " />
<glyph glyph-name="Thorn" unicode="&#xde;" horiz-adv-x="620" d="M178 0 L178 228 L298 228 C395 228 459 241 502 275 C548 309 576 367 576 442 C576 517 548 575 502 609 C459 643 395 657 298 657 L178 657 L178 767 L113 767 L113 0 L178 0 Z M178 598 L289 598 C377 598 427 588 463 559 C492 534 511 498 511 442 C511 387 492 350 463 326 C427 296 377 287 289 287 L178 287 L178 598 Z " />
<glyph glyph-name="germandbls" unicode="&#xdf;" horiz-adv-x="691" d="M425 323 C355 340 312 354 312 409 C312 469 367 500 440 500 L568 500 L568 535 C568 662 510 775 333 775 C119 775 89 625 89 497 L89 0 L151 0 L151 497 C151 605 175 718 334 718 C458 718 502 642 506 550 L441 550 C337 550 250 504 250 405 C250 311 328 286 394 269 L506 241 C554 228 602 215 602 149 C602 75 542 42 456 42 C362 42 298 82 287 171 L225 171 C232 56 321 -8 455 -8 C576 -8 664 49 664 154 C664 235 615 276 522 298 L425 323 Z " />
<glyph glyph-name="agrave" unicode="&#xe0;" horiz-adv-x="542" d="M185 767 L123 767 L254 612 L300 612 L185 767 Z M462 452 C432 517 363 550 271 550 C136 550 68 482 59 384 L121 384 C129 453 176 500 270 500 C372 500 419 445 420 358 L420 314 L235 314 C122 314 45 268 45 155 C45 53 117 -8 228 -8 C312 -8 375 30 411 105 L419 105 L419 0 L481 0 L481 341 C481 377 478 417 462 452 L462 452 Z M236 44 C156 44 107 86 107 155 C107 238 160 267 242 267 L420 267 L420 259 C417 133 361 44 236 44 L236 44 Z " />
<glyph glyph-name="aacute" unicode="&#xe1;" horiz-adv-x="542" d="M372 767 L255 612 L300 612 L435 767 L372 767 Z M462 452 C432 517 363 550 271 550 C136 550 68 482 59 384 L121 384 C129 453 176 500 270 500 C372 500 419 445 420 358 L420 314 L235 314 C122 314 45 268 45 155 C45 53 117 -8 228 -8 C312 -8 375 30 411 105 L419 105 L419 0 L481 0 L481 341 C481 377 478 417 462 452 L462 452 Z M236 44 C156 44 107 86 107 155 C107 238 160 267 242 267 L420 267 L420 259 C417 133 361 44 236 44 L236 44 Z " />
<glyph glyph-name="acircumflex" unicode="&#xe2;" horiz-adv-x="542" d="M385 612 L439 612 L304 767 L250 767 L116 612 L170 612 L277 738 L385 612 Z M462 452 C432 517 363 550 271 550 C136 550 68 482 59 384 L121 384 C129 453 176 500 270 500 C372 500 419 445 420 358 L420 314 L235 314 C122 314 45 268 45 155 C45 53 117 -8 228 -8 C312 -8 375 30 411 105 L419 105 L419 0 L481 0 L481 341 C481 377 478 417 462 452 L462 452 Z M236 44 C156 44 107 86 107 155 C107 238 160 267 242 267 L420 267 L420 259 C417 133 361 44 236 44 L236 44 Z " />
<glyph glyph-name="atilde" unicode="&#xe3;" horiz-adv-x="542" d="M202 733 C267 734 264 633 356 633 C412 633 449 685 449 767 L412 767 C412 708 389 671 356 671 C290 671 289 772 204 771 C144 772 106 724 106 643 L142 643 C142 700 165 734 202 733 L202 733 Z M462 452 C432 517 363 550 271 550 C136 550 68 482 59 384 L121 384 C129 453 176 500 270 500 C372 500 419 445 420 358 L420 314 L235 314 C122 314 45 268 45 155 C45 53 117 -8 228 -8 C312 -8 375 30 411 105 L419 105 L419 0 L481 0 L481 341 C481 377 478 417 462 452 L462 452 Z M236 44 C156 44 107 86 107 155 C107 238 160 267 242 267 L420 267 L420 259 C417 133 361 44 236 44 L236 44 Z " />
<glyph glyph-name="adieresis" unicode="&#xe4;" horiz-adv-x="542" d="M181 681 C207 681 229 703 229 730 C229 756 207 778 181 778 C154 778 132 756 132 730 C132 703 154 681 181 681 L181 681 Z M375 681 C401 681 423 703 423 730 C423 756 401 778 375 778 C348 778 326 756 326 730 C326 703 348 681 375 681 L375 681 Z M462 452 C432 517 363 550 271 550 C136 550 68 482 59 384 L121 384 C129 453 176 500 270 500 C372 500 419 445 420 358 L420 314 L235 314 C122 314 45 268 45 155 C45 53 117 -8 228 -8 C312 -8 375 30 411 105 L419 105 L419 0 L481 0 L481 341 C481 377 478 417 462 452 L462 452 Z M236 44 C156 44 107 86 107 155 C107 238 160 267 242 267 L420 267 L420 259 C417 133 361 44 236 44 L236 44 Z " />
<glyph glyph-name="aring" unicode="&#xe5;" horiz-adv-x="542" d="M277 597 C333 597 378 642 378 697 C378 753 331 798 277 798 C221 798 176 753 176 697 C176 642 220 597 277 597 L277 597 Z M277 764 C315 764 343 735 343 698 C343 660 314 631 277 631 C239 631 210 659 210 698 C210 735 239 764 277 764 L277 764 Z M462 452 C432 517 363 550 271 550 C136 550 68 482 59 384 L121 384 C129 453 176 500 270 500 C372 500 419 445 420 358 L420 314 L235 314 C122 314 45 268 45 155 C45 53 117 -8 228 -8 C312 -8 375 30 411 105 L419 105 L419 0 L481 0 L481 341 C481 377 478 417 462 452 L462 452 Z M236 44 C156 44 107 86 107 155 C107 238 160 267 242 267 L420 267 L420 259 C417 133 361 44 236 44 L236 44 Z " />
<glyph glyph-name="ae" unicode="&#xe6;" horiz-adv-x="976" d="M936 283 C932 452 825 550 678 550 C587 550 510 512 465 442 C464 445 462 448 461 451 C431 517 362 550 270 550 C136 550 68 483 59 385 L118 385 C127 455 174 502 269 502 C372 502 420 447 421 358 L422 314 L234 314 C121 314 45 268 45 155 C45 53 117 -8 232 -8 C338 -8 410 49 440 142 L443 142 C483 45 570 -8 678 -8 C793 -8 885 53 921 163 L854 163 C826 88 761 47 678 47 C564 47 484 125 482 267 L936 267 L936 283 Z M678 495 C782 495 857 431 872 314 L485 314 C499 432 575 495 678 495 L678 495 Z M235 42 C154 42 104 85 104 155 C104 238 156 268 241 268 L420 268 C420 261 420 254 421 247 C415 126 358 42 235 42 L235 42 Z " />
<glyph glyph-name="ccedilla" unicode="&#xe7;" horiz-adv-x="580" d="M301 47 C186 47 105 125 105 271 C105 417 186 495 301 495 C393 495 458 449 476 361 L541 361 C518 483 426 550 301 550 C152 550 43 449 43 271 C43 100 142 1 281 -7 L232 -93 C249 -93 267 -95 281 -99 C307 -107 322 -125 322 -147 C322 -176 299 -197 261 -197 C239 -197 212 -189 190 -169 L172 -198 C199 -220 231 -229 259 -229 C314 -229 355 -194 355 -147 C355 -114 335 -88 302 -76 C294 -74 284 -72 275 -71 L313 -8 C432 -4 519 63 541 181 L476 181 C458 93 393 47 301 47 L301 47 Z " />
<glyph glyph-name="egrave" unicode="&#xe8;" horiz-adv-x="600" d="M209 767 L147 767 L278 612 L324 612 L209 767 Z M559 283 C555 452 448 550 301 550 C152 550 43 449 43 271 C43 93 152 -8 301 -8 C417 -8 509 53 544 163 L478 163 C449 88 384 47 301 47 C187 47 107 125 105 267 L559 267 L559 283 Z M301 495 C405 495 481 431 495 314 L108 314 C122 432 198 495 301 495 L301 495 Z " />
<glyph glyph-name="eacute" unicode="&#xe9;" horiz-adv-x="600" d="M396 767 L279 612 L324 612 L459 767 L396 767 Z M559 283 C555 452 448 550 301 550 C152 550 43 449 43 271 C43 93 152 -8 301 -8 C417 -8 509 53 544 163 L478 163 C449 88 384 47 301 47 C187 47 107 125 105 267 L559 267 L559 283 Z M301 495 C405 495 481 431 495 314 L108 314 C122 432 198 495 301 495 L301 495 Z " />
<glyph glyph-name="ecircumflex" unicode="&#xea;" horiz-adv-x="600" d="M409 612 L463 612 L328 767 L274 767 L140 612 L194 612 L301 738 L409 612 Z M559 283 C555 452 448 550 301 550 C152 550 43 449 43 271 C43 93 152 -8 301 -8 C417 -8 509 53 544 163 L478 163 C449 88 384 47 301 47 C187 47 107 125 105 267 L559 267 L559 283 Z M301 495 C405 495 481 431 495 314 L108 314 C122 432 198 495 301 495 L301 495 Z " />
<glyph glyph-name="edieresis" unicode="&#xeb;" horiz-adv-x="600" d="M205 681 C231 681 253 703 253 730 C253 756 231 778 205 778 C178 778 156 756 156 730 C156 703 178 681 205 681 L205 681 Z M399 681 C425 681 447 703 447 730 C447 756 425 778 399 778 C372 778 350 756 350 730 C350 703 372 681 399 681 L399 681 Z M559 283 C555 452 448 550 301 550 C152 550 43 449 43 271 C43 93 152 -8 301 -8 C417 -8 509 53 544 163 L478 163 C449 88 384 47 301 47 C187 47 107 125 105 267 L559 267 L559 283 Z M301 495 C405 495 481 431 495 314 L108 314 C122 432 198 495 301 495 L301 495 Z " />
<glyph glyph-name="igrave" unicode="&#xec;" horiz-adv-x="190" d="M117 612 L2 767 L-60 767 L71 612 L117 612 Z M126 0 L126 542 L64 542 L64 0 L126 0 Z " />
<glyph glyph-name="iacute" unicode="&#xed;" horiz-adv-x="190" d="M117 612 L252 767 L189 767 L72 612 L117 612 Z M126 0 L126 542 L64 542 L64 0 L126 0 Z " />
<glyph glyph-name="icircumflex" unicode="&#xee;" horiz-adv-x="190" d="M67 767 L-67 612 L-13 612 L94 738 L202 612 L256 612 L121 767 L67 767 Z M126 0 L126 542 L64 542 L64 0 L126 0 Z " />
<glyph glyph-name="idieresis" unicode="&#xef;" horiz-adv-x="190" d="M-2 681 C24 681 46 703 46 730 C46 756 24 778 -2 778 C-29 778 -51 756 -51 730 C-51 703 -29 681 -2 681 L-2 681 Z M192 681 C218 681 240 703 240 730 C240 756 218 778 192 778 C165 778 143 756 143 730 C143 703 165 681 192 681 L192 681 Z M126 0 L126 542 L64 542 L64 0 L126 0 Z " />
<glyph glyph-name="eth" unicode="&#xf0;" horiz-adv-x="602" d="M382 622 L435 622 L435 667 L355 667 L295 767 L227 767 L227 754 L279 667 L59 667 L59 622 L306 622 L391 479 C365 491 337 497 309 497 C164 497 52 398 52 244 C52 91 162 -8 308 -8 C455 -8 565 90 565 240 C565 291 548 346 517 396 L382 622 Z M309 51 C201 51 117 123 117 245 C117 365 201 437 309 437 C415 437 500 354 500 244 C500 123 417 51 309 51 L309 51 Z " />
<glyph glyph-name="ntilde" unicode="&#xf1;" horiz-adv-x="549" d="M355 633 C411 633 448 685 448 767 L411 767 C411 708 388 671 355 671 C289 671 288 772 203 771 C143 772 105 724 105 643 L141 643 C141 700 164 734 201 733 C266 734 263 633 355 633 L355 633 Z M126 0 L126 297 C126 339 129 377 139 402 C159 458 209 493 277 493 C391 493 428 425 428 301 L428 0 L490 0 L490 315 C490 466 430 550 295 550 C220 550 163 514 132 463 L126 463 L126 542 L64 542 L64 0 L126 0 Z " />
<glyph glyph-name="ograve" unicode="&#xf2;" horiz-adv-x="604" d="M324 612 L209 767 L147 767 L278 612 L324 612 Z M301 -8 C451 -8 559 93 559 271 C559 449 451 550 301 550 C152 550 43 449 43 271 C43 93 152 -8 301 -8 L301 -8 Z M301 47 C186 47 105 126 105 271 C105 416 186 495 301 495 C417 495 498 416 498 271 C498 126 417 47 301 47 L301 47 Z " />
<glyph glyph-name="oacute" unicode="&#xf3;" horiz-adv-x="604" d="M323 612 L458 767 L395 767 L278 612 L323 612 Z M301 -8 C451 -8 559 93 559 271 C559 449 451 550 301 550 C152 550 43 449 43 271 C43 93 152 -8 301 -8 L301 -8 Z M301 47 C186 47 105 126 105 271 C105 416 186 495 301 495 C417 495 498 416 498 271 C498 126 417 47 301 47 L301 47 Z " />
<glyph glyph-name="ocircumflex" unicode="&#xf4;" horiz-adv-x="604" d="M409 612 L463 612 L328 767 L274 767 L140 612 L194 612 L301 738 L409 612 Z M301 550 C152 550 43 449 43 271 C43 93 152 -8 301 -8 C451 -8 559 93 559 271 C559 449 451 550 301 550 L301 550 Z M301 47 C186 47 105 126 105 271 C105 416 186 495 301 495 C417 495 498 416 498 271 C498 126 417 47 301 47 L301 47 Z " />
<glyph glyph-name="otilde" unicode="&#xf5;" horiz-adv-x="604" d="M379 633 C435 633 472 685 472 767 L435 767 C435 708 412 671 379 671 C313 671 312 772 227 771 C167 772 129 724 129 643 L165 643 C165 700 188 734 225 733 C290 734 287 633 379 633 L379 633 Z M301 -8 C451 -8 559 93 559 271 C559 449 451 550 301 550 C152 550 43 449 43 271 C43 93 152 -8 301 -8 L301 -8 Z M301 47 C186 47 105 126 105 271 C105 416 186 495 301 495 C417 495 498 416 498 271 C498 126 417 47 301 47 L301 47 Z " />
<glyph glyph-name="odieresis" unicode="&#xf6;" horiz-adv-x="604" d="M204 681 C230 681 252 703 252 730 C252 756 230 778 204 778 C177 778 155 756 155 730 C155 703 177 681 204 681 L204 681 Z M398 681 C424 681 446 703 446 730 C446 756 424 778 398 778 C371 778 349 756 349 730 C349 703 371 681 398 681 L398 681 Z M301 -8 C451 -8 559 93 559 271 C559 449 451 550 301 550 C152 550 43 449 43 271 C43 93 152 -8 301 -8 L301 -8 Z M301 47 C186 47 105 126 105 271 C105 416 186 495 301 495 C417 495 498 416 498 271 C498 126 417 47 301 47 L301 47 Z " />
<glyph glyph-name="divide" unicode="&#xf7;" horiz-adv-x="562" d="M278 415 C306 415 328 438 328 466 C328 492 305 514 278 514 C249 514 227 492 227 466 C227 438 249 415 278 415 L278 415 Z M527 248 L527 294 L27 294 L27 248 L527 248 Z M278 28 C306 28 328 50 328 78 C328 104 305 127 278 127 C249 127 227 104 227 78 C227 50 249 28 278 28 L278 28 Z " />
<glyph glyph-name="oslash" unicode="&#xf8;" horiz-adv-x="604" d="M507 558 L471 580 L432 518 C395 539 350 550 301 550 C152 550 43 449 43 271 C43 170 78 93 137 46 L97 -17 L132 -38 L171 23 C208 3 252 -8 301 -8 C451 -8 559 93 559 271 C559 372 524 448 467 495 L507 558 Z M105 271 C105 416 186 495 301 495 C339 495 373 487 402 470 L168 96 C128 134 105 193 105 271 L105 271 Z M301 47 C264 47 230 55 201 72 L436 445 C475 407 498 348 498 271 C498 126 417 47 301 47 L301 47 Z " />
<glyph glyph-name="ugrave" unicode="&#xf9;" horiz-adv-x="549" d="M293 612 L178 767 L116 767 L247 612 L293 612 Z M253 -8 C329 -8 385 28 416 79 L422 79 L422 0 L484 0 L484 542 L422 542 L422 245 C422 204 419 166 408 140 C388 83 338 49 271 49 C157 49 120 117 120 241 L120 542 L58 542 L58 227 C58 76 118 -8 253 -8 L253 -8 Z " />
<glyph glyph-name="uacute" unicode="&#xfa;" horiz-adv-x="549" d="M293 612 L428 767 L365 767 L248 612 L293 612 Z M253 -8 C329 -8 385 28 416 79 L422 79 L422 0 L484 0 L484 542 L422 542 L422 245 C422 204 419 166 408 140 C388 83 338 49 271 49 C157 49 120 117 120 241 L120 542 L58 542 L58 227 C58 76 118 -8 253 -8 L253 -8 Z " />
<glyph glyph-name="ucircumflex" unicode="&#xfb;" horiz-adv-x="549" d="M378 612 L432 612 L297 767 L243 767 L109 612 L163 612 L270 738 L378 612 Z M422 245 C422 204 419 166 408 140 C388 83 338 49 271 49 C157 49 120 117 120 241 L120 542 L58 542 L58 227 C58 76 118 -8 253 -8 C329 -8 385 28 416 79 L422 79 L422 0 L484 0 L484 542 L422 542 L422 245 Z " />
<glyph glyph-name="udieresis" unicode="&#xfc;" horiz-adv-x="549" d="M174 681 C200 681 222 703 222 730 C222 756 200 778 174 778 C147 778 125 756 125 730 C125 703 147 681 174 681 L174 681 Z M368 681 C394 681 416 703 416 730 C416 756 394 778 368 778 C341 778 319 756 319 730 C319 703 341 681 368 681 L368 681 Z M253 -8 C329 -8 385 28 416 79 L422 79 L422 0 L484 0 L484 542 L422 542 L422 245 C422 204 419 166 408 140 C388 83 338 49 271 49 C157 49 120 117 120 241 L120 542 L58 542 L58 227 C58 76 118 -8 253 -8 L253 -8 Z " />
<glyph glyph-name="yacute" unicode="&#xfd;" horiz-adv-x="548" d="M367 767 L250 612 L295 612 L430 767 L367 767 Z M279 54 L269 54 L84 542 L18 542 L224 0 L258 0 L214 -113 C200 -149 173 -167 134 -167 L49 -167 L49 -224 L148 -224 C204 -224 245 -196 266 -144 L323 0 L529 542 L463 542 L279 54 Z " />
<glyph glyph-name="thorn" unicode="&#xfe;" horiz-adv-x="643" d="M152 -225 L152 107 L159 107 C194 32 265 -8 352 -8 C495 -8 596 95 596 271 C596 447 495 550 352 550 C265 550 194 510 159 435 L152 435 L152 767 L90 767 L90 -225 L152 -225 Z M341 47 C227 47 148 125 148 271 C148 417 227 495 341 495 C456 495 534 416 534 271 C534 126 456 47 341 47 L341 47 Z " />
<glyph glyph-name="ydieresis" unicode="&#xff;" horiz-adv-x="548" d="M176 681 C202 681 224 703 224 730 C224 756 202 778 176 778 C149 778 127 756 127 730 C127 703 149 681 176 681 L176 681 Z M370 681 C396 681 418 703 418 730 C418 756 396 778 370 778 C343 778 321 756 321 730 C321 703 343 681 370 681 L370 681 Z M279 54 L269 54 L84 542 L18 542 L224 0 L258 0 L214 -113 C200 -149 173 -167 134 -167 L49 -167 L49 -224 L148 -224 C204 -224 245 -196 266 -144 L323 0 L529 542 L463 542 L279 54 Z " />
<glyph glyph-name="Amacron" unicode="&#x100;" horiz-adv-x="654" d="M179 932 L179 896 L475 896 L475 932 L179 932 Z M280 767 L16 13 L16 0 L80 0 L144 186 L510 186 L574 0 L639 0 L639 13 L374 767 L280 767 Z M322 700 L333 700 L490 245 L165 245 L322 700 Z " />
<glyph glyph-name="amacron" unicode="&#x101;" horiz-adv-x="542" d="M129 707 L129 671 L425 671 L425 707 L129 707 Z M462 452 C432 517 363 550 271 550 C136 550 68 482 59 384 L121 384 C129 453 176 500 270 500 C372 500 419 445 420 358 L420 314 L235 314 C122 314 45 268 45 155 C45 53 117 -8 228 -8 C312 -8 375 30 411 105 L419 105 L419 0 L481 0 L481 341 C481 377 478 417 462 452 L462 452 Z M236 44 C156 44 107 86 107 155 C107 238 160 267 242 267 L420 267 L420 259 C417 133 361 44 236 44 L236 44 Z " />
<glyph glyph-name="Abreve" unicode="&#x102;" horiz-adv-x="654" d="M327 844 C433 844 491 898 491 992 L448 992 C448 918 403 881 327 881 C251 881 205 917 205 992 L163 992 C163 899 217 844 327 844 L327 844 Z M280 767 L16 13 L16 0 L80 0 L144 186 L510 186 L574 0 L639 0 L639 13 L374 767 L280 767 Z M322 700 L333 700 L490 245 L165 245 L322 700 Z " />
<glyph glyph-name="abreve" unicode="&#x103;" horiz-adv-x="542" d="M278 619 C384 619 442 673 442 767 L399 767 C399 693 354 656 278 656 C202 656 156 692 156 767 L114 767 C114 674 168 619 278 619 L278 619 Z M462 452 C432 517 363 550 271 550 C136 550 68 482 59 384 L121 384 C129 453 176 500 270 500 C372 500 419 445 420 358 L420 314 L235 314 C122 314 45 268 45 155 C45 53 117 -8 228 -8 C312 -8 375 30 411 105 L419 105 L419 0 L481 0 L481 341 C481 377 478 417 462 452 L462 452 Z M236 44 C156 44 107 86 107 155 C107 238 160 267 242 267 L420 267 L420 259 C417 133 361 44 236 44 L236 44 Z " />
<glyph glyph-name="Aogonek" unicode="&#x104;" horiz-adv-x="654" d="M639 13 L374 767 L280 767 L16 13 L16 0 L80 0 L144 186 L510 186 L574 0 L596 0 C536 -41 505 -92 505 -138 C505 -191 550 -229 639 -229 L639 -190 C580 -190 550 -164 550 -124 C550 -84 582 -37 639 0 L639 13 Z M322 700 L333 700 L490 245 L165 245 L322 700 Z " />
<glyph glyph-name="aogonek" unicode="&#x105;" horiz-adv-x="542" d="M481 341 C481 377 478 417 462 452 C432 517 363 550 271 550 C136 550 68 482 59 384 L121 384 C129 453 176 500 270 500 C372 500 419 445 420 358 L420 314 L235 314 C122 314 45 268 45 155 C45 53 117 -8 228 -8 C312 -8 375 30 411 105 L419 105 L419 0 L438 0 C378 -41 347 -92 347 -138 C347 -191 392 -229 481 -229 L481 -190 C422 -190 392 -164 392 -124 C392 -84 424 -37 481 0 L481 341 Z M236 44 C156 44 107 86 107 155 C107 238 160 267 242 267 L420 267 L420 259 C417 133 361 44 236 44 L236 44 Z " />
<glyph glyph-name="Cacute" unicode="&#x106;" horiz-adv-x="764" d="M404 837 L539 992 L476 992 L359 837 L404 837 Z M390 -8 C565 -8 692 103 724 279 L657 279 C628 139 527 51 390 51 C221 51 108 185 108 384 C108 583 221 716 390 716 C528 716 628 628 657 488 L724 488 C692 664 565 775 390 775 C182 775 43 619 43 384 C43 149 182 -8 390 -8 L390 -8 Z " />
<glyph glyph-name="cacute" unicode="&#x107;" horiz-adv-x="580" d="M320 612 L455 767 L392 767 L275 612 L320 612 Z M301 -8 C426 -8 518 59 541 181 L476 181 C458 93 393 47 301 47 C186 47 105 125 105 271 C105 417 186 495 301 495 C393 495 458 449 476 361 L541 361 C518 483 426 550 301 550 C152 550 43 449 43 271 C43 92 152 -8 301 -8 L301 -8 Z " />
<glyph glyph-name="ccircumflex" unicode="&#x109;" horiz-adv-x="580" d="M405 612 L459 612 L324 767 L270 767 L136 612 L190 612 L297 738 L405 612 Z M301 47 C186 47 105 125 105 271 C105 417 186 495 301 495 C393 495 458 449 476 361 L541 361 C518 483 426 550 301 550 C152 550 43 449 43 271 C43 92 152 -8 301 -8 C426 -8 518 59 541 181 L476 181 C458 93 393 47 301 47 L301 47 Z " />
<glyph glyph-name="Cdotaccent" unicode="&#x10a;" horiz-adv-x="764" d="M382 827 C407 827 429 849 429 875 C429 902 407 923 382 923 C354 923 333 902 333 875 C333 849 354 827 382 827 L382 827 Z M390 -8 C565 -8 692 103 724 279 L657 279 C628 139 527 51 390 51 C221 51 108 185 108 384 C108 583 221 716 390 716 C528 716 628 628 657 488 L724 488 C692 664 565 775 390 775 C182 775 43 619 43 384 C43 149 182 -8 390 -8 L390 -8 Z " />
<glyph glyph-name="cdotaccent" unicode="&#x10b;" horiz-adv-x="580" d="M298 681 C324 681 346 703 346 730 C346 756 324 778 298 778 C271 778 249 756 249 730 C249 703 271 681 298 681 L298 681 Z M301 -8 C426 -8 518 59 541 181 L476 181 C458 93 393 47 301 47 C186 47 105 125 105 271 C105 417 186 495 301 495 C393 495 458 449 476 361 L541 361 C518 483 426 550 301 550 C152 550 43 449 43 271 C43 92 152 -8 301 -8 L301 -8 Z " />
<glyph glyph-name="Ccaron" unicode="&#x10c;" horiz-adv-x="764" d="M545 992 L490 992 L382 866 L276 992 L221 992 L356 837 L409 837 L545 992 Z M390 51 C221 51 108 185 108 384 C108 583 221 716 390 716 C528 716 628 628 657 488 L724 488 C692 664 565 775 390 775 C182 775 43 619 43 384 C43 149 182 -8 390 -8 C565 -8 692 103 724 279 L657 279 C628 139 527 51 390 51 L390 51 Z " />
<glyph glyph-name="ccaron" unicode="&#x10d;" horiz-adv-x="580" d="M461 767 L406 767 L298 641 L192 767 L137 767 L272 612 L325 612 L461 767 Z M301 47 C186 47 105 125 105 271 C105 417 186 495 301 495 C393 495 458 449 476 361 L541 361 C518 483 426 550 301 550 C152 550 43 449 43 271 C43 92 152 -8 301 -8 C426 -8 518 59 541 181 L476 181 C458 93 393 47 301 47 L301 47 Z " />
<glyph glyph-name="Dcaron" unicode="&#x10e;" horiz-adv-x="754" d="M530 992 L475 992 L367 866 L261 992 L206 992 L341 837 L394 837 L530 992 Z M611 663 C542 733 439 767 313 767 L71 767 L71 0 L312 0 C435 0 537 32 608 99 C673 161 711 254 711 380 C711 505 675 599 611 663 L611 663 Z M567 148 C506 86 418 59 311 59 L136 59 L136 708 L312 708 C420 708 511 680 570 615 C619 562 646 483 646 380 C646 278 618 200 567 148 L567 148 Z " />
<glyph glyph-name="dcaron" unicode="&#x10f;" horiz-adv-x="666" d="M676 775 C643 775 621 752 621 723 C621 694 643 670 676 670 L678 670 L623 535 L623 526 L659 526 L718 678 C725 696 729 709 729 724 C729 752 707 775 676 775 L676 775 Z M481 435 C446 510 374 550 288 550 C144 550 43 447 43 271 C43 95 144 -8 288 -8 C374 -8 446 32 481 107 L487 107 L487 0 L549 0 L549 767 L487 767 L487 435 L481 435 Z M298 47 C184 47 105 126 105 271 C105 416 184 495 298 495 C412 495 492 417 492 271 C492 125 412 47 298 47 L298 47 Z " />
<glyph glyph-name="Dcroat" unicode="&#x110;" horiz-adv-x="754" d="M611 663 C542 733 439 767 313 767 L71 767 L71 406 L23 406 L23 361 L71 361 L71 0 L312 0 C435 0 537 32 608 99 C673 161 711 254 711 380 C711 505 675 599 611 663 L611 663 Z M567 148 C506 86 418 59 311 59 L136 59 L136 361 L299 361 L299 406 L136 406 L136 708 L312 708 C420 708 511 680 570 615 C619 562 646 483 646 380 C646 278 618 200 567 148 L567 148 Z " />
<glyph glyph-name="dcroat" unicode="&#x111;" horiz-adv-x="614" d="M549 678 L549 767 L487 767 L487 678 L359 678 L359 633 L487 633 L487 435 L481 435 C446 510 374 550 288 550 C144 550 43 447 43 271 C43 95 144 -8 288 -8 C374 -8 446 32 481 107 L487 107 L487 0 L549 0 L549 633 L635 633 L635 678 L549 678 Z M298 47 C184 47 105 126 105 271 C105 416 184 495 298 495 C412 495 492 417 492 271 C492 125 412 47 298 47 L298 47 Z " />
<glyph glyph-name="Emacron" unicode="&#x112;" horiz-adv-x="598" d="M470 896 L470 932 L174 932 L174 896 L470 896 Z M572 0 L572 59 L137 59 L137 366 L504 366 L504 425 L137 425 L137 708 L549 708 L549 767 L72 767 L72 0 L572 0 Z " />
<glyph glyph-name="emacron" unicode="&#x113;" horiz-adv-x="600" d="M153 707 L153 671 L449 671 L449 707 L153 707 Z M559 283 C555 452 448 550 301 550 C152 550 43 449 43 271 C43 93 152 -8 301 -8 C417 -8 509 53 544 163 L478 163 C449 88 384 47 301 47 C187 47 107 125 105 267 L559 267 L559 283 Z M301 495 C405 495 481 431 495 314 L108 314 C122 432 198 495 301 495 L301 495 Z " />
<glyph glyph-name="Edotaccent" unicode="&#x116;" horiz-adv-x="598" d="M323 827 C348 827 370 849 370 875 C370 902 348 923 323 923 C295 923 274 902 274 875 C274 849 295 827 323 827 L323 827 Z M572 0 L572 59 L137 59 L137 366 L504 366 L504 425 L137 425 L137 708 L549 708 L549 767 L72 767 L72 0 L572 0 Z " />
<glyph glyph-name="edotaccent" unicode="&#x117;" horiz-adv-x="600" d="M302 681 C328 681 350 703 350 730 C350 756 328 778 302 778 C275 778 253 756 253 730 C253 703 275 681 302 681 L302 681 Z M559 283 C555 452 448 550 301 550 C152 550 43 449 43 271 C43 93 152 -8 301 -8 C417 -8 509 53 544 163 L478 163 C449 88 384 47 301 47 C187 47 107 125 105 267 L559 267 L559 283 Z M301 495 C405 495 481 431 495 314 L108 314 C122 432 198 495 301 495 L301 495 Z " />
<glyph glyph-name="Eogonek" unicode="&#x118;" horiz-adv-x="598" d="M572 59 L137 59 L137 366 L504 366 L504 425 L137 425 L137 708 L549 708 L549 767 L72 767 L72 0 L529 0 C469 -41 438 -92 438 -138 C438 -191 483 -229 572 -229 L572 -190 C513 -190 483 -164 483 -124 C483 -84 515 -37 572 0 L572 59 Z " />
<glyph glyph-name="eogonek" unicode="&#x119;" horiz-adv-x="600" d="M559 283 C555 452 448 550 301 550 C152 550 43 449 43 271 C43 93 152 -8 301 -8 L312 -8 C259 -47 232 -95 232 -138 C232 -191 277 -229 366 -229 L366 -190 C307 -190 277 -164 277 -124 C277 -85 308 -38 363 -2 C449 17 516 74 544 163 L478 163 C449 88 384 47 301 47 C187 47 107 125 105 267 L559 267 L559 283 Z M301 495 C405 495 481 431 495 314 L108 314 C122 432 198 495 301 495 L301 495 Z " />
<glyph glyph-name="Ecaron" unicode="&#x11a;" horiz-adv-x="598" d="M486 992 L431 992 L323 866 L217 992 L162 992 L297 837 L350 837 L486 992 Z M137 366 L504 366 L504 425 L137 425 L137 708 L549 708 L549 767 L72 767 L72 0 L572 0 L572 59 L137 59 L137 366 Z " />
<glyph glyph-name="ecaron" unicode="&#x11b;" horiz-adv-x="600" d="M465 767 L410 767 L302 641 L196 767 L141 767 L276 612 L329 612 L465 767 Z M559 283 C555 452 448 550 301 550 C152 550 43 449 43 271 C43 93 152 -8 301 -8 C417 -8 509 53 544 163 L478 163 C449 88 384 47 301 47 C187 47 107 125 105 267 L559 267 L559 283 Z M301 495 C405 495 481 431 495 314 L108 314 C122 432 198 495 301 495 L301 495 Z " />
<glyph glyph-name="Gbreve" unicode="&#x11e;" horiz-adv-x="788" d="M400 844 C506 844 564 898 564 992 L521 992 C521 918 476 881 400 881 C324 881 278 917 278 992 L236 992 C236 899 290 844 400 844 L400 844 Z M465 338 L670 338 C665 164 554 51 394 51 C221 51 108 185 108 384 C108 583 221 716 390 716 C528 716 628 628 657 488 L724 488 C692 664 565 775 390 775 C182 775 43 619 43 384 C43 149 182 -8 390 -8 C520 -8 611 48 665 150 L666 150 L666 0 L731 0 L731 396 L465 396 L465 338 Z " />
<glyph glyph-name="gbreve" unicode="&#x11f;" horiz-adv-x="614" d="M316 619 C422 619 480 673 480 767 L437 767 C437 693 392 656 316 656 C240 656 194 692 194 767 L152 767 C152 674 206 619 316 619 L316 619 Z M451 -225 C514 -225 549 -190 549 -127 L549 542 L487 542 L487 435 L481 435 C446 510 374 550 288 550 C144 550 43 447 43 271 C43 95 144 -8 288 -8 C374 -8 446 32 481 107 L487 107 L487 -111 C487 -150 467 -171 428 -171 L181 -171 C141 -171 121 -150 121 -111 L121 -47 L59 -47 L59 -127 C59 -190 94 -225 158 -225 L451 -225 Z M298 47 C184 47 105 126 105 271 C105 416 184 495 298 495 C412 495 492 417 492 271 C492 125 412 47 298 47 L298 47 Z " />
<glyph glyph-name="Gdotaccent" unicode="&#x120;" horiz-adv-x="788" d="M401 827 C426 827 448 849 448 875 C448 902 426 923 401 923 C373 923 352 902 352 875 C352 849 373 827 401 827 L401 827 Z M465 338 L670 338 C665 164 554 51 394 51 C221 51 108 185 108 384 C108 583 221 716 390 716 C528 716 628 628 657 488 L724 488 C692 664 565 775 390 775 C182 775 43 619 43 384 C43 149 182 -8 390 -8 C520 -8 611 48 665 150 L666 150 L666 0 L731 0 L731 396 L465 396 L465 338 Z " />
<glyph glyph-name="gdotaccent" unicode="&#x121;" horiz-adv-x="614" d="M316 681 C342 681 364 703 364 730 C364 756 342 778 316 778 C289 778 267 756 267 730 C267 703 289 681 316 681 L316 681 Z M451 -225 C514 -225 549 -190 549 -127 L549 542 L487 542 L487 435 L481 435 C446 510 374 550 288 550 C144 550 43 447 43 271 C43 95 144 -8 288 -8 C374 -8 446 32 481 107 L487 107 L487 -111 C487 -150 467 -171 428 -171 L181 -171 C141 -171 121 -150 121 -111 L121 -47 L59 -47 L59 -127 C59 -190 94 -225 158 -225 L451 -225 Z M298 47 C184 47 105 126 105 271 C105 416 184 495 298 495 C412 495 492 417 492 271 C492 125 412 47 298 47 L298 47 Z " />
<glyph glyph-name="uni0122" unicode="&#x122;" horiz-adv-x="788" d="M465 338 L670 338 C665 164 554 51 394 51 C221 51 108 185 108 384 C108 583 221 716 390 716 C528 716 628 628 657 488 L724 488 C692 664 565 775 390 775 C182 775 43 619 43 384 C43 149 182 -8 390 -8 C520 -8 611 48 665 150 L666 150 L666 0 L731 0 L731 396 L465 396 L465 338 Z M400 -55 C373 -55 354 -72 354 -100 C354 -126 373 -144 400 -144 L366 -230 L366 -237 L399 -237 L436 -137 C442 -122 446 -110 446 -99 C446 -73 428 -55 400 -55 L400 -55 Z " />
<glyph glyph-name="uni0123" unicode="&#x123;" horiz-adv-x="614" d="M316 597 C343 597 363 613 363 637 C363 661 343 676 316 676 L315 676 L350 753 L350 760 L317 760 L282 676 C274 657 270 646 270 636 C270 613 289 597 316 597 L316 597 Z M487 435 L481 435 C446 510 374 550 288 550 C144 550 43 447 43 271 C43 95 144 -8 288 -8 C374 -8 446 32 481 107 L487 107 L487 -111 C487 -150 467 -171 428 -171 L181 -171 C141 -171 121 -150 121 -111 L121 -47 L59 -47 L59 -127 C59 -190 94 -225 158 -225 L451 -225 C514 -225 549 -190 549 -127 L549 542 L487 542 L487 435 Z M298 47 C184 47 105 126 105 271 C105 416 184 495 298 495 C412 495 492 417 492 271 C492 125 412 47 298 47 L298 47 Z " />
<glyph glyph-name="hcircumflex" unicode="&#x125;" horiz-adv-x="549" d="M325 837 L190 992 L136 992 L2 837 L56 837 L163 963 L271 837 L325 837 Z M295 550 C220 550 163 514 132 463 L126 463 L126 767 L64 767 L64 0 L126 0 L126 297 C126 339 129 377 139 402 C159 458 209 493 277 493 C391 493 428 425 428 301 L428 0 L490 0 L490 315 C490 466 430 550 295 550 L295 550 Z " />
<glyph glyph-name="Hbar" unicode="&#x126;" horiz-adv-x="691" d="M618 642 L618 767 L553 767 L553 642 L137 642 L137 767 L72 767 L72 642 L-1 642 L-1 605 L72 605 L72 0 L137 0 L137 366 L553 366 L553 0 L618 0 L618 605 L691 605 L691 642 L618 642 Z M137 425 L137 605 L553 605 L553 425 L137 425 Z " />
<glyph glyph-name="hbar" unicode="&#x127;" horiz-adv-x="549" d="M295 550 C220 550 163 514 132 463 L126 463 L126 632 L280 632 L280 677 L126 677 L126 767 L64 767 L64 677 L4 677 L4 632 L64 632 L64 0 L126 0 L126 297 C126 339 129 377 139 402 C159 458 209 493 277 493 C391 493 428 425 428 301 L428 0 L490 0 L490 315 C490 466 430 550 295 550 L295 550 Z " />
<glyph glyph-name="Itilde" unicode="&#x128;" horiz-adv-x="208" d="M182 858 C238 858 275 910 275 992 L238 992 C238 933 215 896 182 896 C116 896 115 997 30 996 C-30 997 -68 949 -68 868 L-32 868 C-32 925 -9 959 28 958 C93 959 90 858 182 858 L182 858 Z M137 0 L137 767 L72 767 L72 0 L137 0 Z " />
<glyph glyph-name="itilde" unicode="&#x129;" horiz-adv-x="190" d="M173 633 C229 633 266 685 266 767 L229 767 C229 708 206 671 173 671 C107 671 106 772 21 771 C-39 772 -77 724 -77 643 L-41 643 C-41 700 -18 734 19 733 C84 734 81 633 173 633 L173 633 Z M126 0 L126 542 L64 542 L64 0 L126 0 Z " />
<glyph glyph-name="Imacron" unicode="&#x12a;" horiz-adv-x="208" d="M252 896 L252 932 L-44 932 L-44 896 L252 896 Z M137 0 L137 767 L72 767 L72 0 L137 0 Z " />
<glyph glyph-name="imacron" unicode="&#x12b;" horiz-adv-x="190" d="M242 671 L242 707 L-54 707 L-54 671 L242 671 Z M126 0 L126 542 L64 542 L64 0 L126 0 Z " />
<glyph glyph-name="Iogonek" unicode="&#x12e;" horiz-adv-x="208" d="M137 767 L72 767 L72 0 L94 0 C34 -41 3 -92 3 -138 C3 -191 48 -229 137 -229 L137 -190 C78 -190 48 -164 48 -124 C48 -84 80 -37 137 0 L137 767 Z " />
<glyph glyph-name="iogonek" unicode="&#x12f;" horiz-adv-x="190" d="M95 778 C68 778 46 756 46 730 C46 703 68 681 95 681 C121 681 143 703 143 730 C143 756 121 778 95 778 L95 778 Z M83 0 C23 -41 -8 -92 -8 -138 C-8 -191 37 -229 126 -229 L126 -190 C67 -190 37 -164 37 -124 C37 -84 69 -37 126 0 L126 542 L64 542 L64 0 L83 0 Z " />
<glyph glyph-name="Idotaccent" unicode="&#x130;" horiz-adv-x="208" d="M105 827 C130 827 152 849 152 875 C152 902 130 923 105 923 C77 923 56 902 56 875 C56 849 77 827 105 827 L105 827 Z M137 0 L137 767 L72 767 L72 0 L137 0 Z " />
<glyph glyph-name="dotlessi" unicode="&#x131;" horiz-adv-x="190" d="M126 0 L126 542 L64 542 L64 0 L126 0 Z " />
<glyph glyph-name="IJ" unicode="&#x132;" horiz-adv-x="775" d="M137 0 L137 767 L72 767 L72 0 L137 0 Z M469 -8 C552 -8 615 18 655 63 C697 111 707 175 707 259 L707 767 L348 767 L348 708 L642 708 L642 267 C642 190 633 141 603 105 C575 72 530 51 469 51 C409 51 364 72 336 105 C308 138 297 184 297 259 L231 259 C231 175 242 111 284 63 C324 18 387 -8 469 -8 L469 -8 Z " />
<glyph glyph-name="ij" unicode="&#x133;" horiz-adv-x="393" d="M95 681 C121 681 143 703 143 730 C143 756 121 778 95 778 C68 778 46 756 46 730 C46 703 68 681 95 681 L95 681 Z M296 681 C322 681 344 703 344 730 C344 756 322 778 296 778 C268 778 247 756 247 730 C247 703 268 681 296 681 L296 681 Z M126 0 L126 542 L64 542 L64 0 L126 0 Z M220 -225 C286 -225 327 -184 327 -118 L327 542 L265 542 L265 -118 C265 -147 243 -168 215 -168 L158 -168 L158 -225 L220 -225 Z " />
<glyph glyph-name="uni0136" unicode="&#x136;" horiz-adv-x="657" d="M619 754 L619 767 L541 767 L143 357 L137 357 L137 767 L72 767 L72 0 L137 0 L137 261 L302 429 L307 429 L572 0 L640 0 L640 13 L353 481 L619 754 Z M316 -55 C289 -55 270 -72 270 -100 C270 -126 289 -144 316 -144 L282 -230 L282 -237 L315 -237 L352 -137 C358 -122 362 -110 362 -99 C362 -73 344 -55 316 -55 L316 -55 Z " />
<glyph glyph-name="uni0137" unicode="&#x137;" horiz-adv-x="544" d="M482 525 L482 542 L415 542 L131 247 L126 247 L126 767 L64 767 L64 0 L126 0 L126 161 L262 300 L267 300 L458 0 L523 0 L523 14 L308 347 L482 525 Z M255 -55 C228 -55 209 -72 209 -100 C209 -126 228 -144 255 -144 L221 -230 L221 -237 L254 -237 L291 -137 C297 -122 301 -110 301 -99 C301 -73 283 -55 255 -55 L255 -55 Z " />
<glyph glyph-name="Lacute" unicode="&#x139;" horiz-adv-x="498" d="M126 837 L261 992 L198 992 L81 837 L126 837 Z M491 0 L491 59 L137 59 L137 767 L72 767 L72 0 L491 0 Z " />
<glyph glyph-name="lacute" unicode="&#x13a;" horiz-adv-x="258" d="M136 837 L271 992 L208 992 L91 837 L136 837 Z M231 0 L231 57 L174 57 C145 57 124 78 124 107 L124 767 L62 767 L62 107 C62 41 103 0 169 0 L231 0 Z " />
<glyph glyph-name="uni013B" unicode="&#x13b;" horiz-adv-x="498" d="M137 767 L72 767 L72 0 L491 0 L491 59 L137 59 L137 767 Z M281 -55 C254 -55 235 -72 235 -100 C235 -126 254 -144 281 -144 L247 -230 L247 -237 L280 -237 L317 -137 C323 -122 327 -110 327 -99 C327 -73 309 -55 281 -55 L281 -55 Z " />
<glyph glyph-name="uni013C" unicode="&#x13c;" horiz-adv-x="258" d="M174 57 C145 57 124 78 124 107 L124 767 L62 767 L62 107 C62 41 103 0 169 0 L231 0 L231 57 L174 57 Z M113 -55 C86 -55 67 -72 67 -100 C67 -126 86 -144 113 -144 L79 -230 L79 -237 L112 -237 L149 -137 C155 -122 159 -110 159 -99 C159 -73 141 -55 113 -55 L113 -55 Z " />
<glyph glyph-name="Lcaron" unicode="&#x13d;" horiz-adv-x="498" d="M444 670 L447 670 L392 535 L392 526 L428 526 L487 678 C494 696 497 709 497 724 C497 752 475 775 445 775 C412 775 390 752 390 723 C390 694 411 670 444 670 L444 670 Z M72 767 L72 0 L491 0 L491 59 L137 59 L137 767 L72 767 Z " />
<glyph glyph-name="lcaron" unicode="&#x13e;" horiz-adv-x="260" d="M270 775 C236 775 214 752 214 723 C214 694 236 670 269 670 L271 670 L217 535 L217 526 L253 526 L311 678 C318 696 322 709 322 724 C322 752 300 775 270 775 L270 775 Z M124 767 L62 767 L62 107 C62 41 103 0 169 0 L231 0 L231 57 L174 57 C145 57 124 78 124 107 L124 767 Z " />
<glyph glyph-name="Ldot" unicode="&#x13f;" horiz-adv-x="580" d="M491 0 L491 59 L137 59 L137 767 L72 767 L72 0 L491 0 Z M387 331 C416 331 440 355 440 385 C440 413 416 437 387 437 C356 437 332 413 332 385 C332 355 356 331 387 331 L387 331 Z " />
<glyph glyph-name="ldot" unicode="&#x140;" horiz-adv-x="429" d="M231 0 L231 57 L174 57 C145 57 124 78 124 107 L124 767 L62 767 L62 107 C62 41 103 0 169 0 L231 0 Z M258 324 C287 324 311 348 311 378 C311 406 287 430 258 430 C227 430 203 406 203 378 C203 348 227 324 258 324 L258 324 Z " />
<glyph glyph-name="Lslash" unicode="&#x141;" horiz-adv-x="498" d="M137 368 L327 503 L327 563 L137 428 L137 767 L72 767 L72 382 L-5 327 L-5 267 L72 322 L72 0 L491 0 L491 59 L137 59 L137 368 Z " />
<glyph glyph-name="lslash" unicode="&#x142;" horiz-adv-x="258" d="M236 550 L124 451 L124 767 L62 767 L62 396 L-9 333 L-9 272 L62 335 L62 107 C62 41 103 0 169 0 L231 0 L231 57 L174 57 C145 57 124 78 124 107 L124 390 L236 489 L236 550 Z " />
<glyph glyph-name="Nacute" unicode="&#x143;" horiz-adv-x="720" d="M382 837 L517 992 L454 992 L337 837 L382 837 Z M137 0 L137 709 L147 709 L531 0 L648 0 L648 767 L583 767 L583 58 L572 58 L188 767 L72 767 L72 0 L137 0 Z " />
<glyph glyph-name="nacute" unicode="&#x144;" horiz-adv-x="549" d="M299 612 L434 767 L371 767 L254 612 L299 612 Z M126 0 L126 297 C126 339 129 377 139 402 C159 458 209 493 277 493 C391 493 428 425 428 301 L428 0 L490 0 L490 315 C490 466 430 550 295 550 C220 550 163 514 132 463 L126 463 L126 542 L64 542 L64 0 L126 0 Z " />
<glyph glyph-name="uni0145" unicode="&#x145;" horiz-adv-x="720" d="M583 58 L572 58 L188 767 L72 767 L72 0 L137 0 L137 709 L147 709 L531 0 L648 0 L648 767 L583 767 L583 58 Z M360 -55 C333 -55 314 -72 314 -100 C314 -126 333 -144 360 -144 L326 -230 L326 -237 L359 -237 L396 -137 C402 -122 406 -110 406 -99 C406 -73 388 -55 360 -55 L360 -55 Z " />
<glyph glyph-name="uni0146" unicode="&#x146;" horiz-adv-x="549" d="M295 550 C220 550 163 514 132 463 L126 463 L126 542 L64 542 L64 0 L126 0 L126 297 C126 339 129 377 139 402 C159 458 209 493 277 493 C391 493 428 425 428 301 L428 0 L490 0 L490 315 C490 466 430 550 295 550 L295 550 Z M277 -55 C250 -55 231 -72 231 -100 C231 -126 250 -144 277 -144 L243 -230 L243 -237 L276 -237 L313 -137 C319 -122 323 -110 323 -99 C323 -73 305 -55 277 -55 L277 -55 Z " />
<glyph glyph-name="Ncaron" unicode="&#x147;" horiz-adv-x="720" d="M524 992 L469 992 L361 866 L255 992 L200 992 L335 837 L388 837 L524 992 Z M583 58 L572 58 L188 767 L72 767 L72 0 L137 0 L137 709 L147 709 L531 0 L648 0 L648 767 L583 767 L583 58 Z " />
<glyph glyph-name="ncaron" unicode="&#x148;" horiz-adv-x="549" d="M440 767 L385 767 L277 641 L171 767 L116 767 L251 612 L304 612 L440 767 Z M295 550 C220 550 163 514 132 463 L126 463 L126 542 L64 542 L64 0 L126 0 L126 297 C126 339 129 377 139 402 C159 458 209 493 277 493 C391 493 428 425 428 301 L428 0 L490 0 L490 315 C490 466 430 550 295 550 L295 550 Z " />
<glyph glyph-name="napostrophe" unicode="&#x149;" horiz-adv-x="673" d="M118 775 C84 775 62 752 62 723 C62 694 84 670 117 670 L119 670 L65 535 L65 526 L101 526 L159 678 C166 696 170 709 170 724 C170 752 148 775 118 775 L118 775 Z M419 550 C343 550 287 514 256 463 L250 463 L250 542 L188 542 L188 0 L250 0 L250 297 C250 339 253 377 263 402 C283 458 333 493 401 493 C515 493 552 425 552 301 L552 0 L614 0 L614 315 C614 466 554 550 419 550 L419 550 Z " />
<glyph glyph-name="Eng" unicode="&#x14a;" horiz-adv-x="720" d="M583 58 L572 58 L188 767 L72 767 L72 0 L137 0 L137 709 L147 709 L531 0 L589 0 L589 -120 C589 -149 567 -171 538 -171 L480 -171 L480 -225 L542 -225 C607 -225 648 -185 648 -120 L648 767 L583 767 L583 58 Z " />
<glyph glyph-name="eng" unicode="&#x14b;" horiz-adv-x="549" d="M295 550 C220 550 163 514 132 463 L126 463 L126 542 L64 542 L64 0 L126 0 L126 297 C126 339 129 377 139 402 C159 458 209 493 277 493 C391 493 428 425 428 301 L428 -118 C428 -147 407 -168 378 -168 L321 -168 L321 -225 L383 -225 C449 -225 490 -184 490 -118 L490 315 C490 466 430 550 295 550 L295 550 Z " />
<glyph glyph-name="Omacron" unicode="&#x14c;" horiz-adv-x="782" d="M538 896 L538 932 L242 932 L242 896 L538 896 Z M390 -8 C598 -8 738 149 738 384 C738 619 598 775 390 775 C182 775 43 619 43 384 C43 149 182 -8 390 -8 L390 -8 Z M390 51 C221 51 108 185 108 384 C108 583 221 716 390 716 C559 716 672 583 672 384 C672 185 559 51 390 51 L390 51 Z " />
<glyph glyph-name="omacron" unicode="&#x14d;" horiz-adv-x="604" d="M449 671 L449 707 L153 707 L153 671 L449 671 Z M301 -8 C451 -8 559 93 559 271 C559 449 451 550 301 550 C152 550 43 449 43 271 C43 93 152 -8 301 -8 L301 -8 Z M301 47 C186 47 105 126 105 271 C105 416 186 495 301 495 C417 495 498 416 498 271 C498 126 417 47 301 47 L301 47 Z " />
<glyph glyph-name="Ohungarumlaut" unicode="&#x150;" horiz-adv-x="782" d="M323 837 L443 992 L389 992 L277 837 L323 837 Z M504 837 L631 992 L568 992 L457 837 L504 837 Z M390 -8 C598 -8 738 149 738 384 C738 619 598 775 390 775 C182 775 43 619 43 384 C43 149 182 -8 390 -8 L390 -8 Z M390 51 C221 51 108 185 108 384 C108 583 221 716 390 716 C559 716 672 583 672 384 C672 185 559 51 390 51 L390 51 Z " />
<glyph glyph-name="ohungarumlaut" unicode="&#x151;" horiz-adv-x="604" d="M234 612 L354 767 L300 767 L188 612 L234 612 Z M415 612 L542 767 L479 767 L368 612 L415 612 Z M301 -8 C451 -8 559 93 559 271 C559 449 451 550 301 550 C152 550 43 449 43 271 C43 93 152 -8 301 -8 L301 -8 Z M301 47 C186 47 105 126 105 271 C105 416 186 495 301 495 C417 495 498 416 498 271 C498 126 417 47 301 47 L301 47 Z " />
<glyph glyph-name="OE" unicode="&#x152;" horiz-adv-x="1201" d="M739 366 L1106 366 L1106 425 L739 425 L739 708 L1152 708 L1152 767 L674 767 L674 625 C614 720 514 775 390 775 C182 775 43 619 43 384 C43 149 182 -8 390 -8 C514 -8 614 48 674 142 L674 0 L1174 0 L1174 59 L739 59 L739 366 Z M390 51 C221 51 108 185 108 384 C108 583 221 716 390 716 C559 716 672 583 672 384 C672 185 559 51 390 51 L390 51 Z " />
<glyph glyph-name="oe" unicode="&#x153;" horiz-adv-x="1057" d="M1017 283 C1013 452 906 550 759 550 C656 550 572 502 530 413 C488 502 405 550 301 550 C152 550 43 449 43 271 C43 93 152 -8 301 -8 C405 -8 488 40 530 129 C572 40 656 -8 759 -8 C874 -8 966 53 1002 163 L935 163 C907 88 842 47 759 47 C645 47 565 125 563 267 L1017 267 L1017 283 Z M301 47 C186 47 105 126 105 271 C105 416 186 495 301 495 C417 495 498 416 498 271 C498 126 417 47 301 47 L301 47 Z M759 495 C862 495 938 431 953 314 L566 314 C580 432 656 495 759 495 L759 495 Z " />
<glyph glyph-name="Racute" unicode="&#x154;" horiz-adv-x="605" d="M382 992 L265 837 L310 837 L445 992 L382 992 Z M367 347 C406 354 436 367 460 385 C507 420 535 478 535 553 C535 627 507 685 460 720 C417 753 353 767 257 767 L72 767 L72 0 L137 0 L137 338 L257 338 C270 338 283 338 295 339 L509 0 L576 0 L576 15 L367 344 L367 347 Z M137 397 L137 708 L248 708 C334 708 384 699 421 669 C451 645 470 608 470 553 C470 498 452 461 421 436 C384 406 333 397 248 397 L137 397 Z " />
<glyph glyph-name="racute" unicode="&#x155;" horiz-adv-x="356" d="M191 612 L326 767 L263 767 L146 612 L191 612 Z M126 0 L126 375 C126 445 165 485 236 485 L338 485 L338 542 L246 542 C191 542 159 522 136 490 L126 490 L126 542 L64 542 L64 0 L126 0 Z " />
<glyph glyph-name="uni0156" unicode="&#x156;" horiz-adv-x="605" d="M367 347 C406 354 436 367 460 385 C507 420 535 478 535 553 C535 627 507 685 460 720 C417 753 353 767 257 767 L72 767 L72 0 L137 0 L137 338 L257 338 C270 338 283 338 295 339 L509 0 L576 0 L576 15 L367 344 L367 347 Z M137 397 L137 708 L248 708 C334 708 384 699 421 669 C451 645 470 608 470 553 C470 498 452 461 421 436 C384 406 333 397 248 397 L137 397 Z M288 -55 C261 -55 242 -72 242 -100 C242 -126 261 -144 288 -144 L254 -230 L254 -237 L287 -237 L324 -137 C330 -122 334 -110 334 -99 C334 -73 316 -55 288 -55 L288 -55 Z " />
<glyph glyph-name="uni0157" unicode="&#x157;" horiz-adv-x="356" d="M246 542 C191 542 159 522 136 490 L126 490 L126 542 L64 542 L64 0 L126 0 L126 375 C126 445 165 485 236 485 L338 485 L338 542 L246 542 Z M169 -55 C142 -55 123 -72 123 -100 C123 -126 142 -144 169 -144 L135 -230 L135 -237 L168 -237 L205 -137 C211 -122 215 -110 215 -99 C215 -73 197 -55 169 -55 L169 -55 Z " />
<glyph glyph-name="Rcaron" unicode="&#x158;" horiz-adv-x="605" d="M452 992 L397 992 L289 866 L183 992 L128 992 L263 837 L316 837 L452 992 Z M367 347 C406 354 436 367 460 385 C507 420 535 478 535 553 C535 627 507 685 460 720 C417 753 353 767 257 767 L72 767 L72 0 L137 0 L137 338 L257 338 C270 338 283 338 295 339 L509 0 L576 0 L576 15 L367 344 L367 347 Z M137 397 L137 708 L248 708 C334 708 384 699 421 669 C451 645 470 608 470 553 C470 498 452 461 421 436 C384 406 333 397 248 397 L137 397 Z " />
<glyph glyph-name="rcaron" unicode="&#x159;" horiz-adv-x="356" d="M332 767 L277 767 L169 641 L63 767 L8 767 L143 612 L196 612 L332 767 Z M246 542 C191 542 159 522 136 490 L126 490 L126 542 L64 542 L64 0 L126 0 L126 375 C126 445 165 485 236 485 L338 485 L338 542 L246 542 Z " />
<glyph glyph-name="Sacute" unicode="&#x15a;" horiz-adv-x="680" d="M363 837 L498 992 L435 992 L318 837 L363 837 Z M356 -8 C526 -8 635 76 635 216 C635 337 557 381 457 409 L294 454 C220 474 145 496 145 584 C145 671 218 718 332 718 C461 718 544 660 549 545 L616 545 C612 698 488 775 333 775 C189 775 80 708 80 582 C80 449 192 416 269 394 L420 353 C500 330 570 308 570 212 C570 107 491 49 357 49 C194 49 102 132 102 279 L37 279 C37 92 170 -8 356 -8 L356 -8 Z " />
<glyph glyph-name="sacute" unicode="&#x15b;" horiz-adv-x="522" d="M285 612 L420 767 L357 767 L240 612 L285 612 Z M268 -8 C389 -8 477 49 477 154 C477 235 429 276 335 298 L238 323 C168 340 125 354 125 409 C125 469 181 500 253 500 C336 500 397 463 402 384 L464 384 C458 489 375 550 254 550 C151 550 64 504 64 405 C64 311 141 286 208 269 L319 241 C368 228 416 215 416 149 C416 75 355 42 270 42 C175 42 111 81 100 181 L38 181 C45 55 135 -8 268 -8 L268 -8 Z " />
<glyph glyph-name="Scedilla" unicode="&#x15e;" horiz-adv-x="680" d="M635 216 C635 337 557 381 457 409 L294 454 C220 474 145 496 145 584 C145 671 218 718 332 718 C461 718 544 660 549 545 L616 545 C612 698 488 775 333 775 C189 775 80 708 80 582 C80 449 192 416 269 394 L420 353 C500 330 570 308 570 212 C570 107 491 49 357 49 C194 49 102 132 102 279 L37 279 C37 96 165 -4 345 -8 L296 -93 C313 -93 331 -95 345 -99 C371 -107 386 -125 386 -147 C386 -176 363 -197 325 -197 C303 -197 276 -189 254 -169 L236 -198 C263 -220 295 -229 323 -229 C378 -229 419 -194 419 -147 C419 -114 399 -88 366 -76 C358 -74 348 -72 339 -71 L377 -8 C535 -1 635 82 635 216 L635 216 Z " />
<glyph glyph-name="scedilla" unicode="&#x15f;" horiz-adv-x="522" d="M477 154 C477 235 429 276 335 298 L238 323 C168 340 125 354 125 409 C125 469 181 500 253 500 C336 500 397 463 402 384 L464 384 C458 489 375 550 254 550 C151 550 64 504 64 405 C64 311 141 286 208 269 L319 241 C368 228 416 215 416 149 C416 75 355 42 270 42 C175 42 111 81 100 181 L38 181 C45 63 124 0 243 -7 L194 -93 C211 -93 229 -95 243 -99 C269 -107 284 -125 284 -147 C284 -176 261 -197 223 -197 C201 -197 174 -189 152 -169 L134 -198 C161 -220 193 -229 221 -229 C276 -229 317 -194 317 -147 C317 -114 297 -88 264 -76 C256 -74 246 -72 237 -71 L275 -8 C392 -6 477 51 477 154 L477 154 Z " />
<glyph glyph-name="Scaron" unicode="&#x160;" horiz-adv-x="680" d="M504 992 L449 992 L341 866 L235 992 L180 992 L315 837 L368 837 L504 992 Z M294 454 C220 474 145 496 145 584 C145 671 218 718 332 718 C461 718 544 660 549 545 L616 545 C612 698 488 775 333 775 C189 775 80 708 80 582 C80 449 192 416 269 394 L420 353 C500 330 570 308 570 212 C570 107 491 49 357 49 C194 49 102 132 102 279 L37 279 C37 92 170 -8 356 -8 C526 -8 635 76 635 216 C635 337 557 381 457 409 L294 454 Z " />
<glyph glyph-name="scaron" unicode="&#x161;" horiz-adv-x="522" d="M427 767 L372 767 L264 641 L158 767 L103 767 L238 612 L291 612 L427 767 Z M238 323 C168 340 125 354 125 409 C125 469 181 500 253 500 C336 500 397 463 402 384 L464 384 C458 489 375 550 254 550 C151 550 64 504 64 405 C64 311 141 286 208 269 L319 241 C368 228 416 215 416 149 C416 75 355 42 270 42 C175 42 111 81 100 181 L38 181 C45 55 135 -8 268 -8 C389 -8 477 49 477 154 C477 235 429 276 335 298 L238 323 Z " />
<glyph glyph-name="uni0162" unicode="&#x162;" horiz-adv-x="622" d="M343 708 L615 708 L615 767 L7 767 L7 708 L278 708 L278 0 L295 0 L242 -93 C259 -93 277 -95 291 -99 C317 -107 332 -125 332 -147 C332 -176 309 -197 271 -197 C249 -197 222 -189 200 -169 L182 -198 C209 -220 241 -229 269 -229 C324 -229 365 -194 365 -147 C365 -114 345 -88 312 -76 C304 -74 294 -72 285 -71 L328 0 L343 0 L343 708 Z " />
<glyph glyph-name="uni0163" unicode="&#x163;" horiz-adv-x="316" d="M288 542 L172 542 L172 767 L111 767 L111 542 L20 542 L20 485 L111 485 L111 107 C111 54 137 17 181 5 L125 -93 C142 -93 160 -95 174 -99 C200 -107 215 -125 215 -147 C215 -176 192 -197 154 -197 C132 -197 105 -189 83 -169 L65 -198 C92 -220 124 -229 152 -229 C207 -229 248 -194 248 -147 C248 -114 228 -88 195 -76 C187 -74 177 -72 168 -71 L211 0 L218 0 L288 0 L288 57 L223 57 C194 57 172 78 172 107 L172 485 L288 485 L288 542 Z " />
<glyph glyph-name="Tcaron" unicode="&#x164;" horiz-adv-x="622" d="M474 992 L419 992 L311 866 L205 992 L150 992 L285 837 L338 837 L474 992 Z M7 708 L278 708 L278 0 L343 0 L343 708 L615 708 L615 767 L7 767 L7 708 Z " />
<glyph glyph-name="tcaron" unicode="&#x165;" horiz-adv-x="316" d="M309 882 C276 882 254 859 254 830 C254 801 275 777 308 777 L311 777 L256 642 L256 633 L292 633 L351 785 C358 803 361 816 361 831 C361 859 339 882 309 882 L309 882 Z M111 767 L111 542 L20 542 L20 485 L111 485 L111 107 C111 41 151 0 218 0 L288 0 L288 57 L223 57 C194 57 172 78 172 107 L172 485 L288 485 L288 542 L172 542 L172 767 L111 767 Z " />
<glyph glyph-name="Tbar" unicode="&#x166;" horiz-adv-x="622" d="M615 767 L7 767 L7 708 L278 708 L278 406 L173 406 L173 361 L278 361 L278 0 L343 0 L343 361 L449 361 L449 406 L343 406 L343 708 L615 708 L615 767 Z " />
<glyph glyph-name="tbar" unicode="&#x167;" horiz-adv-x="316" d="M298 293 L172 293 L172 485 L288 485 L288 542 L172 542 L172 767 L111 767 L111 542 L20 542 L20 485 L111 485 L111 293 L22 293 L22 248 L111 248 L111 107 C111 41 151 0 218 0 L288 0 L288 57 L223 57 C194 57 172 78 172 107 L172 248 L298 248 L298 293 Z " />
<glyph glyph-name="Utilde" unicode="&#x168;" horiz-adv-x="675" d="M415 858 C471 858 508 910 508 992 L471 992 C471 933 448 896 415 896 C349 896 348 997 263 996 C203 997 165 949 165 868 L201 868 C201 925 224 959 261 958 C326 959 323 858 415 858 L415 858 Z M337 -8 C520 -8 609 79 609 253 L609 767 L544 767 L544 257 C544 123 484 51 337 51 C192 51 130 120 130 257 L130 767 L65 767 L65 253 C65 82 151 -8 337 -8 L337 -8 Z " />
<glyph glyph-name="utilde" unicode="&#x169;" horiz-adv-x="549" d="M349 633 C405 633 442 685 442 767 L405 767 C405 708 382 671 349 671 C283 671 282 772 197 771 C137 772 99 724 99 643 L135 643 C135 700 158 734 195 733 C260 734 257 633 349 633 L349 633 Z M253 -8 C329 -8 385 28 416 79 L422 79 L422 0 L484 0 L484 542 L422 542 L422 245 C422 204 419 166 408 140 C388 83 338 49 271 49 C157 49 120 117 120 241 L120 542 L58 542 L58 227 C58 76 118 -8 253 -8 L253 -8 Z " />
<glyph glyph-name="Umacron" unicode="&#x16a;" horiz-adv-x="675" d="M485 896 L485 932 L189 932 L189 896 L485 896 Z M337 -8 C520 -8 609 79 609 253 L609 767 L544 767 L544 257 C544 123 484 51 337 51 C192 51 130 120 130 257 L130 767 L65 767 L65 253 C65 82 151 -8 337 -8 L337 -8 Z " />
<glyph glyph-name="umacron" unicode="&#x16b;" horiz-adv-x="549" d="M418 671 L418 707 L122 707 L122 671 L418 671 Z M253 -8 C329 -8 385 28 416 79 L422 79 L422 0 L484 0 L484 542 L422 542 L422 245 C422 204 419 166 408 140 C388 83 338 49 271 49 C157 49 120 117 120 241 L120 542 L58 542 L58 227 C58 76 118 -8 253 -8 L253 -8 Z " />
<glyph glyph-name="Uring" unicode="&#x16e;" horiz-adv-x="675" d="M337 822 C393 822 438 867 438 922 C438 978 391 1023 337 1023 C281 1023 236 978 236 922 C236 867 280 822 337 822 L337 822 Z M337 856 C299 856 270 884 270 923 C270 960 299 989 337 989 C375 989 403 960 403 923 C403 885 374 856 337 856 L337 856 Z M337 -8 C520 -8 609 79 609 253 L609 767 L544 767 L544 257 C544 123 484 51 337 51 C192 51 130 120 130 257 L130 767 L65 767 L65 253 C65 82 151 -8 337 -8 L337 -8 Z " />
<glyph glyph-name="uring" unicode="&#x16f;" horiz-adv-x="549" d="M270 597 C326 597 371 642 371 697 C371 753 324 798 270 798 C214 798 169 753 169 697 C169 642 213 597 270 597 L270 597 Z M270 631 C232 631 203 659 203 698 C203 735 232 764 270 764 C308 764 336 735 336 698 C336 660 307 631 270 631 L270 631 Z M253 -8 C329 -8 385 28 416 79 L422 79 L422 0 L484 0 L484 542 L422 542 L422 245 C422 204 419 166 408 140 C388 83 338 49 271 49 C157 49 120 117 120 241 L120 542 L58 542 L58 227 C58 76 118 -8 253 -8 L253 -8 Z " />
<glyph glyph-name="Uhungarumlaut" unicode="&#x170;" horiz-adv-x="675" d="M269 837 L389 992 L335 992 L223 837 L269 837 Z M450 837 L577 992 L514 992 L403 837 L450 837 Z M337 -8 C520 -8 609 79 609 253 L609 767 L544 767 L544 257 C544 123 484 51 337 51 C192 51 130 120 130 257 L130 767 L65 767 L65 253 C65 82 151 -8 337 -8 L337 -8 Z " />
<glyph glyph-name="uhungarumlaut" unicode="&#x171;" horiz-adv-x="549" d="M203 612 L323 767 L269 767 L157 612 L203 612 Z M384 612 L511 767 L448 767 L337 612 L384 612 Z M253 -8 C329 -8 385 28 416 79 L422 79 L422 0 L484 0 L484 542 L422 542 L422 245 C422 204 419 166 408 140 C388 83 338 49 271 49 C157 49 120 117 120 241 L120 542 L58 542 L58 227 C58 76 118 -8 253 -8 L253 -8 Z " />
<glyph glyph-name="Uogonek" unicode="&#x172;" horiz-adv-x="675" d="M544 257 C544 123 484 51 337 51 C192 51 130 120 130 257 L130 767 L65 767 L65 253 C65 82 151 -8 337 -8 C348 -8 358 -8 368 -7 C315 -47 287 -94 287 -138 C287 -191 332 -229 421 -229 L421 -190 C362 -190 332 -164 332 -124 C332 -84 363 -38 420 -1 C547 23 609 108 609 253 L609 767 L544 767 L544 257 Z " />
<glyph glyph-name="uogonek" unicode="&#x173;" horiz-adv-x="549" d="M484 542 L422 542 L422 245 C422 204 419 166 408 140 C388 83 338 49 271 49 C157 49 120 117 120 241 L120 542 L58 542 L58 227 C58 76 118 -8 253 -8 C329 -8 385 28 416 79 L422 79 L422 0 L441 0 C381 -41 350 -92 350 -138 C350 -191 395 -229 484 -229 L484 -190 C425 -190 395 -164 395 -124 C395 -84 427 -37 484 0 L484 542 Z " />
<glyph glyph-name="Wcircumflex" unicode="&#x174;" horiz-adv-x="1098" d="M656 837 L710 837 L575 992 L521 992 L387 837 L441 837 L548 963 L656 837 Z M777 72 L766 72 L606 767 L492 767 L332 72 L321 72 L79 767 L15 767 L15 754 L280 0 L383 0 L545 714 L553 714 L715 0 L818 0 L1083 754 L1083 767 L1019 767 L777 72 Z " />
<glyph glyph-name="wcircumflex" unicode="&#x175;" horiz-adv-x="900" d="M557 612 L611 612 L476 767 L422 767 L288 612 L342 612 L449 738 L557 612 Z M632 56 L620 56 L500 542 L398 542 L279 56 L268 56 L84 542 L18 542 L225 0 L324 0 L444 486 L455 486 L575 0 L676 0 L880 542 L815 542 L632 56 Z " />
<glyph glyph-name="Ycircumflex" unicode="&#x176;" horiz-adv-x="651" d="M432 837 L486 837 L351 992 L297 992 L163 837 L217 837 L324 963 L432 837 Z M328 358 L322 358 L76 767 L8 767 L8 754 L292 287 L292 0 L358 0 L358 287 L642 754 L642 767 L574 767 L328 358 Z " />
<glyph glyph-name="ycircumflex" unicode="&#x177;" horiz-adv-x="548" d="M381 612 L435 612 L300 767 L246 767 L112 612 L166 612 L273 738 L381 612 Z M279 54 L269 54 L84 542 L18 542 L224 0 L258 0 L214 -113 C200 -149 173 -167 134 -167 L49 -167 L49 -224 L148 -224 C204 -224 245 -196 266 -144 L323 0 L529 542 L463 542 L279 54 Z " />
<glyph glyph-name="Ydieresis" unicode="&#x178;" horiz-adv-x="651" d="M229 827 C254 827 276 849 276 875 C276 902 254 923 229 923 C201 923 180 902 180 875 C180 849 201 827 229 827 L229 827 Z M423 827 C448 827 471 849 471 875 C471 902 448 923 423 923 C395 923 374 902 374 875 C374 849 395 827 423 827 L423 827 Z M358 0 L358 287 L642 754 L642 767 L574 767 L328 358 L322 358 L76 767 L8 767 L8 754 L292 287 L292 0 L358 0 Z " />
<glyph glyph-name="Zacute" unicode="&#x179;" horiz-adv-x="642" d="M344 837 L479 992 L416 992 L299 837 L344 837 Z M615 0 L615 59 L90 59 L90 69 L610 671 L610 767 L46 767 L46 708 L545 708 L545 697 L25 96 L25 0 L615 0 Z " />
<glyph glyph-name="zacute" unicode="&#x17a;" horiz-adv-x="504" d="M275 612 L410 767 L347 767 L230 612 L275 612 Z M468 0 L468 57 L100 57 L100 62 L467 455 L467 542 L49 542 L49 485 L399 485 L399 478 L32 85 L32 0 L468 0 Z " />
<glyph glyph-name="Zdotaccent" unicode="&#x17b;" horiz-adv-x="642" d="M322 827 C347 827 369 849 369 875 C369 902 347 923 322 923 C294 923 273 902 273 875 C273 849 294 827 322 827 L322 827 Z M615 0 L615 59 L90 59 L90 69 L610 671 L610 767 L46 767 L46 708 L545 708 L545 697 L25 96 L25 0 L615 0 Z " />
<glyph glyph-name="zdotaccent" unicode="&#x17c;" horiz-adv-x="504" d="M253 681 C279 681 301 703 301 730 C301 756 279 778 253 778 C226 778 204 756 204 730 C204 703 226 681 253 681 L253 681 Z M468 0 L468 57 L100 57 L100 62 L467 455 L467 542 L49 542 L49 485 L399 485 L399 478 L32 85 L32 0 L468 0 Z " />
<glyph glyph-name="Zcaron" unicode="&#x17d;" horiz-adv-x="642" d="M485 992 L430 992 L322 866 L216 992 L161 992 L296 837 L349 837 L485 992 Z M90 69 L610 671 L610 767 L46 767 L46 708 L545 708 L545 697 L25 96 L25 0 L615 0 L615 59 L90 59 L90 69 Z " />
<glyph glyph-name="zcaron" unicode="&#x17e;" horiz-adv-x="504" d="M417 767 L362 767 L254 641 L148 767 L93 767 L228 612 L281 612 L417 767 Z M100 62 L467 455 L467 542 L49 542 L49 485 L399 485 L399 478 L32 85 L32 0 L468 0 L468 57 L100 57 L100 62 Z " />
<glyph glyph-name="florin" unicode="&#x192;" horiz-adv-x="501" d="M63 -249 C203 -249 275 -185 275 -43 L275 497 L429 497 L429 542 L275 542 L275 605 C275 680 312 720 387 720 L429 720 L429 770 L395 770 C279 770 225 709 225 601 L225 542 L132 542 L132 497 L225 497 L225 -39 C225 -158 178 -204 63 -204 L63 -249 Z " />
<glyph glyph-name="Ohorn" unicode="&#x1a0;" horiz-adv-x="782" d="M747 787 C747 706 725 663 649 659 C588 733 498 775 390 775 C182 775 43 619 43 384 C43 149 182 -8 390 -8 C598 -8 738 149 738 384 C738 476 717 555 678 618 C765 630 798 680 798 786 L798 847 L747 847 L747 787 Z M390 51 C221 51 108 185 108 384 C108 583 221 716 390 716 C559 716 672 583 672 384 C672 185 559 51 390 51 L390 51 Z " />
<glyph glyph-name="ohorn" unicode="&#x1a1;" horiz-adv-x="604" d="M580 582 C580 509 562 467 504 457 C458 517 386 550 301 550 C152 550 43 449 43 271 C43 93 152 -8 301 -8 C451 -8 559 93 559 271 C559 327 548 376 529 416 C602 432 631 483 631 581 L631 642 L580 642 L580 582 Z M301 47 C186 47 105 126 105 271 C105 416 186 495 301 495 C417 495 498 416 498 271 C498 126 417 47 301 47 L301 47 Z " />
<glyph glyph-name="Uhorn" unicode="&#x1af;" horiz-adv-x="675" d="M699 798 C699 720 679 677 609 671 L609 767 L544 767 L544 257 C544 123 484 51 337 51 C192 51 130 120 130 257 L130 767 L65 767 L65 253 C65 82 151 -8 337 -8 C520 -8 609 79 609 253 L609 628 C711 633 750 683 750 797 L750 858 L699 858 L699 798 Z " />
<glyph glyph-name="uhorn" unicode="&#x1b0;" horiz-adv-x="549" d="M570 670 C570 585 546 542 460 542 L422 542 L422 245 C422 204 419 166 408 140 C388 83 338 49 271 49 C157 49 120 117 120 241 L120 542 L58 542 L58 227 C58 76 118 -8 253 -8 C329 -8 385 28 416 79 L422 79 L422 0 L484 0 L484 500 C583 506 621 557 621 669 L621 730 L570 730 L570 670 Z " />
<glyph glyph-name="uni01C4" unicode="&#x1c4;" horiz-adv-x="1367" d="M1209 992 L1154 992 L1046 866 L940 992 L885 992 L1020 837 L1073 837 L1209 992 Z M71 767 L71 0 L312 0 C435 0 537 32 608 99 C673 161 711 254 711 380 C711 505 675 599 611 663 C542 733 439 767 313 767 L71 767 Z M814 69 L1334 671 L1334 767 L770 767 L770 708 L1269 708 L1269 697 L749 96 L749 0 L1339 0 L1339 59 L814 59 L814 69 Z M567 148 C506 86 418 59 311 59 L136 59 L136 708 L312 708 C420 708 511 680 570 615 C619 562 646 483 646 380 C646 278 618 200 567 148 L567 148 Z " />
<glyph glyph-name="uni01C5" unicode="&#x1c5;" horiz-adv-x="1254" d="M71 767 L71 0 L312 0 C435 0 537 32 608 99 C673 161 711 254 711 380 C711 505 675 599 611 663 C542 733 439 767 313 767 L71 767 Z M1166 767 L1111 767 L1004 641 L897 767 L843 767 L978 612 L1031 612 L1166 767 Z M567 148 C506 86 418 59 311 59 L136 59 L136 708 L312 708 C420 708 511 680 570 615 C619 562 646 483 646 380 C646 278 618 200 567 148 L567 148 Z M850 62 L1217 455 L1217 542 L799 542 L799 485 L1149 485 L1149 478 L782 85 L782 0 L1218 0 L1218 57 L850 57 L850 62 Z " />
<glyph glyph-name="uni01C6" unicode="&#x1c6;" horiz-adv-x="1117" d="M481 435 C446 510 374 550 288 550 C144 550 43 447 43 271 C43 95 144 -8 288 -8 C374 -8 446 32 481 107 L487 107 L487 0 L549 0 L549 767 L487 767 L487 435 L481 435 Z M1030 767 L975 767 L868 641 L761 767 L707 767 L842 612 L895 612 L1030 767 Z M714 62 L1081 455 L1081 542 L663 542 L663 485 L1013 485 L1013 478 L646 85 L646 0 L1082 0 L1082 57 L714 57 L714 62 Z M298 47 C184 47 105 126 105 271 C105 416 184 495 298 495 C412 495 492 417 492 271 C492 125 412 47 298 47 L298 47 Z " />
<glyph glyph-name="uni01C7" unicode="&#x1c7;" horiz-adv-x="1064" d="M491 0 L491 59 L137 59 L137 767 L72 767 L72 0 L491 0 Z M759 -8 C842 -8 905 18 945 63 C987 111 997 175 997 259 L997 767 L638 767 L638 708 L932 708 L932 267 C932 190 923 141 893 105 C865 72 820 51 759 51 C699 51 654 72 626 105 C598 138 587 184 587 259 L521 259 C521 175 532 111 574 63 C614 18 677 -8 759 -8 L759 -8 Z " />
<glyph glyph-name="uni01C8" unicode="&#x1c8;" horiz-adv-x="700" d="M604 681 C630 681 652 703 652 730 C652 756 630 778 604 778 C576 778 555 756 555 730 C555 703 576 681 604 681 L604 681 Z M491 0 L491 59 L137 59 L137 767 L72 767 L72 0 L491 0 Z M528 -225 C594 -225 635 -184 635 -118 L635 542 L573 542 L573 -118 C573 -147 551 -168 523 -168 L466 -168 L466 -225 L528 -225 Z " />
<glyph glyph-name="uni01C9" unicode="&#x1c9;" horiz-adv-x="461" d="M364 681 C390 681 412 703 412 730 C412 756 390 778 364 778 C337 778 315 756 315 730 C315 703 337 681 364 681 L364 681 Z M231 0 L231 57 L174 57 C145 57 124 78 124 107 L124 767 L62 767 L62 107 C62 41 103 0 169 0 L231 0 Z M288 -225 C354 -225 395 -184 395 -118 L395 542 L333 542 L333 -118 C333 -147 311 -168 283 -168 L226 -168 L226 -225 L288 -225 Z " />
<glyph glyph-name="uni01CA" unicode="&#x1ca;" horiz-adv-x="1286" d="M137 0 L137 709 L147 709 L531 0 L648 0 L648 767 L583 767 L583 58 L572 58 L188 767 L72 767 L72 0 L137 0 Z M981 -8 C1064 -8 1127 18 1167 63 C1209 111 1219 175 1219 259 L1219 767 L860 767 L860 708 L1154 708 L1154 267 C1154 190 1145 141 1115 105 C1087 72 1042 51 981 51 C921 51 876 72 848 105 C820 138 809 184 809 259 L743 259 C743 175 754 111 796 63 C836 18 899 -8 981 -8 L981 -8 Z " />
<glyph glyph-name="uni01CB" unicode="&#x1cb;" horiz-adv-x="923" d="M826 681 C852 681 874 703 874 730 C874 756 852 778 826 778 C798 778 777 756 777 730 C777 703 798 681 826 681 L826 681 Z M137 0 L137 709 L147 709 L531 0 L648 0 L648 767 L583 767 L583 58 L572 58 L188 767 L72 767 L72 0 L137 0 Z M750 -225 C816 -225 857 -184 857 -118 L857 542 L795 542 L795 -118 C795 -147 773 -168 745 -168 L688 -168 L688 -225 L750 -225 Z " />
<glyph glyph-name="uni01CC" unicode="&#x1cc;" horiz-adv-x="752" d="M655 681 C681 681 703 703 703 730 C703 756 681 778 655 778 C628 778 606 756 606 730 C606 703 628 681 655 681 L655 681 Z M126 0 L126 297 C126 339 129 377 139 402 C159 458 209 493 277 493 C391 493 428 425 428 301 L428 0 L490 0 L490 315 C490 466 430 550 295 550 C220 550 163 514 132 463 L126 463 L126 542 L64 542 L64 0 L126 0 Z M579 -225 C645 -225 686 -184 686 -118 L686 542 L624 542 L624 -118 C624 -147 602 -168 574 -168 L517 -168 L517 -225 L579 -225 Z " />
<glyph glyph-name="uni01CD" unicode="&#x1cd;" horiz-adv-x="654" d="M491 992 L436 992 L328 866 L222 992 L167 992 L302 837 L355 837 L491 992 Z M280 767 L16 13 L16 0 L80 0 L144 186 L510 186 L574 0 L639 0 L639 13 L374 767 L280 767 Z M322 700 L333 700 L490 245 L165 245 L322 700 Z " />
<glyph glyph-name="uni01CE" unicode="&#x1ce;" horiz-adv-x="542" d="M441 767 L386 767 L278 641 L172 767 L117 767 L252 612 L305 612 L441 767 Z M462 452 C432 517 363 550 271 550 C136 550 68 482 59 384 L121 384 C129 453 176 500 270 500 C372 500 419 445 420 358 L420 314 L235 314 C122 314 45 268 45 155 C45 53 117 -8 228 -8 C312 -8 375 30 411 105 L419 105 L419 0 L481 0 L481 341 C481 377 478 417 462 452 L462 452 Z M236 44 C156 44 107 86 107 155 C107 238 160 267 242 267 L420 267 L420 259 C417 133 361 44 236 44 L236 44 Z " />
<glyph glyph-name="uni01CF" unicode="&#x1cf;" horiz-adv-x="208" d="M268 992 L213 992 L105 866 L-1 992 L-56 992 L79 837 L132 837 L268 992 Z M137 0 L137 767 L72 767 L72 0 L137 0 Z " />
<glyph glyph-name="uni01D0" unicode="&#x1d0;" horiz-adv-x="190" d="M258 767 L203 767 L95 641 L-11 767 L-66 767 L69 612 L122 612 L258 767 Z M126 0 L126 542 L64 542 L64 0 L126 0 Z " />
<glyph glyph-name="uni01D1" unicode="&#x1d1;" horiz-adv-x="782" d="M554 992 L499 992 L391 866 L285 992 L230 992 L365 837 L418 837 L554 992 Z M390 775 C182 775 43 619 43 384 C43 149 182 -8 390 -8 C598 -8 738 149 738 384 C738 619 598 775 390 775 L390 775 Z M390 51 C221 51 108 185 108 384 C108 583 221 716 390 716 C559 716 672 583 672 384 C672 185 559 51 390 51 L390 51 Z " />
<glyph glyph-name="uni01D2" unicode="&#x1d2;" horiz-adv-x="604" d="M465 767 L410 767 L302 641 L196 767 L141 767 L276 612 L329 612 L465 767 Z M301 550 C152 550 43 449 43 271 C43 93 152 -8 301 -8 C451 -8 559 93 559 271 C559 449 451 550 301 550 L301 550 Z M301 47 C186 47 105 126 105 271 C105 416 186 495 301 495 C417 495 498 416 498 271 C498 126 417 47 301 47 L301 47 Z " />
<glyph glyph-name="uni01D3" unicode="&#x1d3;" horiz-adv-x="675" d="M500 992 L445 992 L337 866 L231 992 L176 992 L311 837 L364 837 L500 992 Z M544 257 C544 123 484 51 337 51 C192 51 130 120 130 257 L130 767 L65 767 L65 253 C65 82 151 -8 337 -8 C520 -8 609 79 609 253 L609 767 L544 767 L544 257 Z " />
<glyph glyph-name="uni01D4" unicode="&#x1d4;" horiz-adv-x="549" d="M434 767 L379 767 L271 641 L165 767 L110 767 L245 612 L298 612 L434 767 Z M422 245 C422 204 419 166 408 140 C388 83 338 49 271 49 C157 49 120 117 120 241 L120 542 L58 542 L58 227 C58 76 118 -8 253 -8 C329 -8 385 28 416 79 L422 79 L422 0 L484 0 L484 542 L422 542 L422 245 Z " />
<glyph glyph-name="uni01D5" unicode="&#x1d5;" horiz-adv-x="675" d="M485 1052 L485 1088 L189 1088 L189 1052 L485 1052 Z M241 827 C266 827 288 849 288 875 C288 902 266 923 241 923 C213 923 192 902 192 875 C192 849 213 827 241 827 L241 827 Z M435 827 C460 827 483 849 483 875 C483 902 460 923 435 923 C407 923 386 902 386 875 C386 849 407 827 435 827 L435 827 Z M337 -8 C520 -8 609 79 609 253 L609 767 L544 767 L544 257 C544 123 484 51 337 51 C192 51 130 120 130 257 L130 767 L65 767 L65 253 C65 82 151 -8 337 -8 L337 -8 Z " />
<glyph glyph-name="uni01D6" unicode="&#x1d6;" horiz-adv-x="549" d="M418 907 L418 943 L122 943 L122 907 L418 907 Z M174 681 C200 681 222 703 222 730 C222 756 200 778 174 778 C147 778 125 756 125 730 C125 703 147 681 174 681 L174 681 Z M368 681 C394 681 416 703 416 730 C416 756 394 778 368 778 C341 778 319 756 319 730 C319 703 341 681 368 681 L368 681 Z M253 -8 C329 -8 385 28 416 79 L422 79 L422 0 L484 0 L484 542 L422 542 L422 245 C422 204 419 166 408 140 C388 83 338 49 271 49 C157 49 120 117 120 241 L120 542 L58 542 L58 227 C58 76 118 -8 253 -8 L253 -8 Z " />
<glyph glyph-name="uni01D7" unicode="&#x1d7;" horiz-adv-x="675" d="M359 993 L494 1148 L431 1148 L314 993 L359 993 Z M241 827 C266 827 288 849 288 875 C288 902 266 923 241 923 C213 923 192 902 192 875 C192 849 213 827 241 827 L241 827 Z M435 827 C460 827 483 849 483 875 C483 902 460 923 435 923 C407 923 386 902 386 875 C386 849 407 827 435 827 L435 827 Z M337 -8 C520 -8 609 79 609 253 L609 767 L544 767 L544 257 C544 123 484 51 337 51 C192 51 130 120 130 257 L130 767 L65 767 L65 253 C65 82 151 -8 337 -8 L337 -8 Z " />
<glyph glyph-name="uni01D8" unicode="&#x1d8;" horiz-adv-x="549" d="M293 848 L428 1003 L365 1003 L248 848 L293 848 Z M174 681 C200 681 222 703 222 730 C222 756 200 778 174 778 C147 778 125 756 125 730 C125 703 147 681 174 681 L174 681 Z M368 681 C394 681 416 703 416 730 C416 756 394 778 368 778 C341 778 319 756 319 730 C319 703 341 681 368 681 L368 681 Z M253 -8 C329 -8 385 28 416 79 L422 79 L422 0 L484 0 L484 542 L422 542 L422 245 C422 204 419 166 408 140 C388 83 338 49 271 49 C157 49 120 117 120 241 L120 542 L58 542 L58 227 C58 76 118 -8 253 -8 L253 -8 Z " />
<glyph glyph-name="uni01D9" unicode="&#x1d9;" horiz-adv-x="675" d="M500 1148 L445 1148 L337 1022 L231 1148 L176 1148 L311 993 L364 993 L500 1148 Z M192 875 C192 849 213 827 241 827 C266 827 288 849 288 875 C288 902 266 923 241 923 C213 923 192 902 192 875 L192 875 Z M386 875 C386 849 407 827 435 827 C460 827 483 849 483 875 C483 902 460 923 435 923 C407 923 386 902 386 875 L386 875 Z M544 257 C544 123 484 51 337 51 C192 51 130 120 130 257 L130 767 L65 767 L65 253 C65 82 151 -8 337 -8 C520 -8 609 79 609 253 L609 767 L544 767 L544 257 Z " />
<glyph glyph-name="uni01DA" unicode="&#x1da;" horiz-adv-x="549" d="M434 1003 L379 1003 L271 877 L165 1003 L110 1003 L245 848 L298 848 L434 1003 Z M125 730 C125 703 147 681 174 681 C200 681 222 703 222 730 C222 756 200 778 174 778 C147 778 125 756 125 730 L125 730 Z M319 730 C319 703 341 681 368 681 C394 681 416 703 416 730 C416 756 394 778 368 778 C341 778 319 756 319 730 L319 730 Z M422 245 C422 204 419 166 408 140 C388 83 338 49 271 49 C157 49 120 117 120 241 L120 542 L58 542 L58 227 C58 76 118 -8 253 -8 C329 -8 385 28 416 79 L422 79 L422 0 L484 0 L484 542 L422 542 L422 245 Z " />
<glyph glyph-name="uni01DB" unicode="&#x1db;" horiz-adv-x="675" d="M360 993 L245 1148 L183 1148 L314 993 L360 993 Z M241 827 C266 827 288 849 288 875 C288 902 266 923 241 923 C213 923 192 902 192 875 C192 849 213 827 241 827 L241 827 Z M435 827 C460 827 483 849 483 875 C483 902 460 923 435 923 C407 923 386 902 386 875 C386 849 407 827 435 827 L435 827 Z M337 -8 C520 -8 609 79 609 253 L609 767 L544 767 L544 257 C544 123 484 51 337 51 C192 51 130 120 130 257 L130 767 L65 767 L65 253 C65 82 151 -8 337 -8 L337 -8 Z " />
<glyph glyph-name="uni01DC" unicode="&#x1dc;" horiz-adv-x="549" d="M293 848 L178 1003 L116 1003 L247 848 L293 848 Z M174 681 C200 681 222 703 222 730 C222 756 200 778 174 778 C147 778 125 756 125 730 C125 703 147 681 174 681 L174 681 Z M368 681 C394 681 416 703 416 730 C416 756 394 778 368 778 C341 778 319 756 319 730 C319 703 341 681 368 681 L368 681 Z M253 -8 C329 -8 385 28 416 79 L422 79 L422 0 L484 0 L484 542 L422 542 L422 245 C422 204 419 166 408 140 C388 83 338 49 271 49 C157 49 120 117 120 241 L120 542 L58 542 L58 227 C58 76 118 -8 253 -8 L253 -8 Z " />
<glyph glyph-name="Gcaron" unicode="&#x1e6;" horiz-adv-x="788" d="M564 992 L509 992 L401 866 L295 992 L240 992 L375 837 L428 837 L564 992 Z M465 338 L670 338 C665 164 554 51 394 51 C221 51 108 185 108 384 C108 583 221 716 390 716 C528 716 628 628 657 488 L724 488 C692 664 565 775 390 775 C182 775 43 619 43 384 C43 149 182 -8 390 -8 C520 -8 611 48 665 150 L666 150 L666 0 L731 0 L731 396 L465 396 L465 338 Z " />
<glyph glyph-name="uni01EB" unicode="&#x1eb;" horiz-adv-x="604" d="M366 -1 C481 25 559 120 559 271 C559 449 451 550 301 550 C152 550 43 449 43 271 C43 93 152 -8 301 -8 L314 -8 C261 -47 234 -95 234 -138 C234 -191 279 -229 368 -229 L368 -190 C309 -190 279 -164 279 -124 C279 -84 310 -38 366 -1 L366 -1 Z M105 271 C105 416 186 495 301 495 C417 495 498 416 498 271 C498 126 417 47 301 47 C186 47 105 126 105 271 L105 271 Z " />
<glyph glyph-name="uni01F1" unicode="&#x1f1;" horiz-adv-x="1367" d="M312 0 C435 0 537 32 608 99 C673 161 711 254 711 380 C711 505 675 599 611 663 C542 733 439 767 313 767 L71 767 L71 0 L312 0 Z M1339 0 L1339 59 L814 59 L814 69 L1334 671 L1334 767 L770 767 L770 708 L1269 708 L1269 697 L749 96 L749 0 L1339 0 Z M136 708 L312 708 C420 708 511 680 570 615 C619 562 646 483 646 380 C646 278 618 200 567 148 C506 86 418 59 311 59 L136 59 L136 708 Z " />
<glyph glyph-name="uni01F2" unicode="&#x1f2;" horiz-adv-x="1254" d="M312 0 C435 0 537 32 608 99 C673 161 711 254 711 380 C711 505 675 599 611 663 C542 733 439 767 313 767 L71 767 L71 0 L312 0 Z M136 708 L312 708 C420 708 511 680 570 615 C619 562 646 483 646 380 C646 278 618 200 567 148 C506 86 418 59 311 59 L136 59 L136 708 Z M1218 0 L1218 57 L850 57 L850 62 L1217 455 L1217 542 L799 542 L799 485 L1149 485 L1149 478 L782 85 L782 0 L1218 0 Z " />
<glyph glyph-name="uni01F3" unicode="&#x1f3;" horiz-adv-x="1117" d="M288 -8 C374 -8 446 32 481 107 L487 107 L487 0 L549 0 L549 767 L487 767 L487 435 L481 435 C446 510 374 550 288 550 C144 550 43 447 43 271 C43 95 144 -8 288 -8 L288 -8 Z M1082 0 L1082 57 L714 57 L714 62 L1081 455 L1081 542 L663 542 L663 485 L1013 485 L1013 478 L646 85 L646 0 L1082 0 Z M298 47 C184 47 105 126 105 271 C105 416 184 495 298 495 C412 495 492 417 492 271 C492 125 412 47 298 47 L298 47 Z " />
<glyph glyph-name="Aringacute" unicode="&#x1fa;" horiz-adv-x="654" d="M381 747 C409 765 428 797 428 833 C428 874 403 909 369 925 L484 1057 L421 1057 L328 934 L327 934 C271 934 227 889 227 833 C227 798 245 766 273 748 L16 13 L16 0 L80 0 L144 186 L510 186 L574 0 L639 0 L639 13 L381 747 Z M327 900 C365 900 393 870 393 833 C393 800 371 772 339 767 L315 767 C283 772 261 799 261 833 C261 870 289 900 327 900 L327 900 Z M322 700 L333 700 L490 245 L165 245 L322 700 Z " />
<glyph glyph-name="aringacute" unicode="&#x1fb;" horiz-adv-x="542" d="M277 597 C333 597 378 642 378 697 C378 738 353 773 319 789 L434 921 L371 921 L278 798 L277 798 C221 798 176 753 176 697 C176 642 220 597 277 597 L277 597 Z M277 764 C315 764 343 735 343 698 C343 660 314 631 277 631 C239 631 210 659 210 698 C210 735 239 764 277 764 L277 764 Z M462 452 C432 517 363 550 271 550 C136 550 68 482 59 384 L121 384 C129 453 176 500 270 500 C372 500 419 445 420 358 L420 314 L235 314 C122 314 45 268 45 155 C45 53 117 -8 228 -8 C312 -8 375 30 411 105 L419 105 L419 0 L481 0 L481 341 C481 377 478 417 462 452 L462 452 Z M236 44 C156 44 107 86 107 155 C107 238 160 267 242 267 L420 267 L420 259 C417 133 361 44 236 44 L236 44 Z " />
<glyph glyph-name="aeacute" unicode="&#x1fd;" horiz-adv-x="976" d="M584 767 L467 612 L512 612 L647 767 L584 767 Z M936 283 C932 452 825 550 678 550 C587 550 510 512 465 442 C464 445 462 448 461 451 C431 517 362 550 270 550 C136 550 68 483 59 385 L118 385 C127 455 174 502 269 502 C372 502 420 447 421 358 L422 314 L234 314 C121 314 45 268 45 155 C45 53 117 -8 232 -8 C338 -8 410 49 440 142 L443 142 C483 45 570 -8 678 -8 C793 -8 885 53 921 163 L854 163 C826 88 761 47 678 47 C564 47 484 125 482 267 L936 267 L936 283 Z M678 495 C782 495 857 431 872 314 L485 314 C499 432 575 495 678 495 L678 495 Z M235 42 C154 42 104 85 104 155 C104 238 156 268 241 268 L420 268 C420 261 420 254 421 247 C415 126 358 42 235 42 L235 42 Z " />
<glyph glyph-name="Oslashacute" unicode="&#x1fe;" horiz-adv-x="782" d="M484 992 L367 837 L412 837 L547 992 L484 992 Z M655 762 L616 787 L576 724 C524 757 461 775 390 775 C182 775 43 619 43 384 C43 249 89 140 167 72 L125 5 L165 -19 L204 44 C256 10 319 -8 390 -8 C598 -8 738 149 738 384 C738 519 692 628 613 696 L655 762 Z M108 384 C108 583 221 716 390 716 C449 716 500 700 543 671 L201 126 C142 185 108 275 108 384 L108 384 Z M390 51 C332 51 280 67 237 96 L579 641 C638 583 672 493 672 384 C672 185 559 51 390 51 L390 51 Z " />
<glyph glyph-name="oslashacute" unicode="&#x1ff;" horiz-adv-x="604" d="M395 767 L278 612 L323 612 L458 767 L395 767 Z M507 558 L471 580 L432 518 C395 539 350 550 301 550 C152 550 43 449 43 271 C43 170 78 93 137 46 L97 -17 L132 -38 L171 23 C208 3 252 -8 301 -8 C451 -8 559 93 559 271 C559 372 524 448 467 495 L507 558 Z M105 271 C105 416 186 495 301 495 C339 495 373 487 402 470 L168 96 C128 134 105 193 105 271 L105 271 Z M301 47 C264 47 230 55 201 72 L436 445 C475 407 498 348 498 271 C498 126 417 47 301 47 L301 47 Z " />
<glyph glyph-name="uni0218" unicode="&#x218;" horiz-adv-x="680" d="M294 454 C220 474 145 496 145 584 C145 671 218 718 332 718 C461 718 544 660 549 545 L616 545 C612 698 488 775 333 775 C189 775 80 708 80 582 C80 449 192 416 269 394 L420 353 C500 330 570 308 570 212 C570 107 491 49 357 49 C194 49 102 132 102 279 L37 279 C37 92 170 -8 356 -8 C526 -8 635 76 635 216 C635 337 557 381 457 409 L294 454 Z M365 -55 C338 -55 319 -72 319 -100 C319 -126 338 -144 365 -144 L331 -230 L331 -237 L364 -237 L401 -137 C407 -122 411 -110 411 -99 C411 -73 393 -55 365 -55 L365 -55 Z " />
<glyph glyph-name="uni0219" unicode="&#x219;" horiz-adv-x="522" d="M238 323 C168 340 125 354 125 409 C125 469 181 500 253 500 C336 500 397 463 402 384 L464 384 C458 489 375 550 254 550 C151 550 64 504 64 405 C64 311 141 286 208 269 L319 241 C368 228 416 215 416 149 C416 75 355 42 270 42 C175 42 111 81 100 181 L38 181 C45 55 135 -8 268 -8 C389 -8 477 49 477 154 C477 235 429 276 335 298 L238 323 Z M263 -55 C236 -55 217 -72 217 -100 C217 -126 236 -144 263 -144 L229 -230 L229 -237 L262 -237 L299 -137 C305 -122 309 -110 309 -99 C309 -73 291 -55 263 -55 L263 -55 Z " />
<glyph glyph-name="uni021A" unicode="&#x21a;" horiz-adv-x="622" d="M7 708 L278 708 L278 0 L343 0 L343 708 L615 708 L615 767 L7 767 L7 708 Z M310 -55 C283 -55 264 -72 264 -100 C264 -126 283 -144 310 -144 L276 -230 L276 -237 L309 -237 L346 -137 C352 -122 356 -110 356 -99 C356 -73 338 -55 310 -55 L310 -55 Z " />
<glyph glyph-name="uni021B" unicode="&#x21b;" horiz-adv-x="316" d="M288 542 L172 542 L172 767 L111 767 L111 542 L20 542 L20 485 L111 485 L111 107 C111 41 151 0 218 0 L288 0 L288 57 L223 57 C194 57 172 78 172 107 L172 485 L288 485 L288 542 Z M193 -55 C166 -55 147 -72 147 -100 C147 -126 166 -144 193 -144 L159 -230 L159 -237 L192 -237 L229 -137 C235 -122 239 -110 239 -99 C239 -73 221 -55 193 -55 L193 -55 Z " />
<glyph glyph-name="uni0228" unicode="&#x228;" horiz-adv-x="598" d="M572 59 L137 59 L137 366 L504 366 L504 425 L137 425 L137 708 L549 708 L549 767 L72 767 L72 0 L306 0 L253 -93 C270 -93 288 -95 302 -99 C328 -107 343 -125 343 -147 C343 -176 320 -197 282 -197 C260 -197 233 -189 211 -169 L193 -198 C220 -220 252 -229 280 -229 C335 -229 376 -194 376 -147 C376 -114 356 -88 323 -76 C315 -74 305 -72 296 -71 L339 0 L572 0 L572 59 Z " />
<glyph glyph-name="uni0237" unicode="&#x237;" horiz-adv-x="203" d="M30 -225 C96 -225 137 -184 137 -118 L137 542 L75 542 L75 -118 C75 -147 53 -168 25 -168 L-32 -168 L-32 -225 L30 -225 Z " />
<glyph glyph-name="uni0254" unicode="&#x254;" horiz-adv-x="580" d="M279 550 C154 550 62 483 39 361 L104 361 C122 449 187 495 279 495 C394 495 475 417 475 271 C475 125 394 47 279 47 C187 47 122 93 104 181 L39 181 C62 59 154 -8 279 -8 C428 -8 537 93 537 271 C537 450 428 550 279 550 L279 550 Z " />
<glyph glyph-name="circumflex" unicode="&#x2c6;" horiz-adv-x="339" d="M196 767 L142 767 L8 612 L62 612 L169 738 L277 612 L331 612 L196 767 Z " />
<glyph glyph-name="caron" unicode="&#x2c7;" horiz-adv-x="342" d="M170 641 L64 767 L9 767 L144 612 L197 612 L333 767 L278 767 L170 641 Z " />
<glyph glyph-name="breve" unicode="&#x2d8;" horiz-adv-x="400" d="M200 619 C306 619 364 673 364 767 L321 767 C321 693 276 656 200 656 C124 656 78 692 78 767 L36 767 C36 674 90 619 200 619 L200 619 Z " />
<glyph glyph-name="dotaccent" unicode="&#x2d9;" horiz-adv-x="193" d="M97 681 C123 681 145 703 145 730 C145 756 123 778 97 778 C70 778 48 756 48 730 C48 703 70 681 97 681 L97 681 Z " />
<glyph glyph-name="ring" unicode="&#x2da;" horiz-adv-x="278" d="M139 597 C195 597 240 642 240 697 C240 753 193 798 139 798 C83 798 38 753 38 697 C38 642 82 597 139 597 L139 597 Z M139 631 C101 631 72 659 72 698 C72 735 101 764 139 764 C177 764 205 735 205 698 C205 660 176 631 139 631 L139 631 Z " />
<glyph glyph-name="ogonek" unicode="&#x2db;" horiz-adv-x="199" d="M166 -190 C107 -190 77 -164 77 -124 C77 -84 109 -37 166 0 L126 2 C64 -39 32 -91 32 -138 C32 -191 77 -229 166 -229 L166 -190 Z " />
<glyph glyph-name="tilde" unicode="&#x2dc;" horiz-adv-x="430" d="M293 633 C349 633 386 685 386 767 L349 767 C349 708 326 671 293 671 C227 671 226 772 141 771 C81 772 43 724 43 643 L79 643 C79 700 102 734 139 733 C204 734 201 633 293 633 L293 633 Z " />
<glyph glyph-name="hungarumlaut" unicode="&#x2dd;" horiz-adv-x="376" d="M59 612 L179 767 L125 767 L13 612 L59 612 Z M240 612 L367 767 L304 767 L193 612 L240 612 Z " />
<glyph glyph-name="gravecomb" unicode="&#x300;" d="M-12 612 L-127 767 L-189 767 L-58 612 L-12 612 Z " />
<glyph glyph-name="acutecomb" unicode="&#x301;" d="M-143 612 L-8 767 L-71 767 L-188 612 L-143 612 Z " />
<glyph glyph-name="uni0302" unicode="&#x302;" d="M-143 767 L-197 767 L-331 612 L-277 612 L-170 738 L-62 612 L-8 612 L-143 767 Z " />
<glyph glyph-name="tildecomb" unicode="&#x303;" d="M-137 633 C-81 633 -44 685 -44 767 L-81 767 C-81 708 -104 671 -137 671 C-203 671 -204 772 -289 771 C-349 772 -387 724 -387 643 L-351 643 C-351 700 -328 734 -291 733 C-226 734 -229 633 -137 633 L-137 633 Z " />
<glyph glyph-name="uni0304" unicode="&#x304;" d="M-60 671 L-60 707 L-356 707 L-356 671 L-60 671 Z " />
<glyph glyph-name="uni0306" unicode="&#x306;" d="M-200 619 C-94 619 -36 673 -36 767 L-79 767 C-79 693 -124 656 -200 656 C-276 656 -322 692 -322 767 L-364 767 C-364 674 -310 619 -200 619 L-200 619 Z " />
<glyph glyph-name="uni0307" unicode="&#x307;" d="M-96 681 C-70 681 -48 703 -48 730 C-48 756 -70 778 -96 778 C-123 778 -145 756 -145 730 C-145 703 -123 681 -96 681 L-96 681 Z " />
<glyph glyph-name="uni0308" unicode="&#x308;" d="M-290 681 C-264 681 -242 703 -242 730 C-242 756 -264 778 -290 778 C-317 778 -339 756 -339 730 C-339 703 -317 681 -290 681 L-290 681 Z M-96 681 C-70 681 -48 703 -48 730 C-48 756 -70 778 -96 778 C-123 778 -145 756 -145 730 C-145 703 -123 681 -96 681 L-96 681 Z " />
<glyph glyph-name="hookabovecomb" unicode="&#x309;" d="M-152 577 C-102 584 -39 594 -39 669 C-39 702 -54 725 -78 741 C-100 758 -131 767 -171 767 L-190 767 L-190 731 L-171 731 C-139 731 -116 725 -99 712 C-84 701 -78 686 -78 667 C-78 614 -122 609 -155 603 L-152 577 Z " />
<glyph glyph-name="uni030A" unicode="&#x30a;" d="M-139 597 C-83 597 -38 642 -38 697 C-38 753 -85 798 -139 798 C-195 798 -240 753 -240 697 C-240 642 -196 597 -139 597 L-139 597 Z M-139 631 C-177 631 -206 659 -206 698 C-206 735 -177 764 -139 764 C-101 764 -73 735 -73 698 C-73 660 -102 631 -139 631 L-139 631 Z " />
<glyph glyph-name="uni030B" unicode="&#x30b;" d="M-317 612 L-197 767 L-251 767 L-363 612 L-317 612 Z M-136 612 L-9 767 L-72 767 L-183 612 L-136 612 Z " />
<glyph glyph-name="uni030C" unicode="&#x30c;" d="M-172 641 L-278 767 L-333 767 L-198 612 L-145 612 L-9 767 L-64 767 L-172 641 Z " />
<glyph glyph-name="uni030F" unicode="&#x30f;" d="M-304 767 L-367 767 L-240 612 L-193 612 L-304 767 Z M-124 767 L-179 767 L-59 612 L-13 612 L-124 767 Z " />
<glyph glyph-name="uni0312" unicode="&#x312;" d="M-95 676 L-96 676 L-61 753 L-61 760 L-94 760 L-129 676 C-137 657 -141 646 -141 636 C-141 613 -122 597 -95 597 C-68 597 -48 613 -48 637 C-48 661 -68 676 -95 676 L-95 676 Z " />
<glyph glyph-name="uni031B" unicode="&#x31b;" d="M-208 724 C-91 724 -47 773 -47 894 L-47 955 L-98 955 L-98 895 C-98 810 -122 767 -208 767 L-208 724 Z " />
<glyph glyph-name="dotbelowcomb" unicode="&#x323;" d="M-96 -236 C-70 -236 -48 -214 -48 -188 C-48 -161 -70 -139 -96 -139 C-123 -139 -145 -161 -145 -188 C-145 -214 -123 -236 -96 -236 L-96 -236 Z " />
<glyph glyph-name="uni0326" unicode="&#x326;" d="M-90 -55 C-117 -55 -136 -72 -136 -100 C-136 -126 -117 -144 -90 -144 L-124 -230 L-124 -237 L-91 -237 L-54 -137 C-48 -122 -44 -110 -44 -99 C-44 -73 -62 -55 -90 -55 L-90 -55 Z " />
<glyph glyph-name="uni0327" unicode="&#x327;" d="M-131 -229 C-76 -229 -35 -194 -35 -147 C-35 -114 -55 -88 -88 -76 C-96 -74 -106 -72 -115 -71 L-67 9 L-96 15 L-158 -93 C-141 -93 -123 -95 -109 -99 C-83 -107 -68 -125 -68 -147 C-68 -176 -91 -197 -129 -197 C-151 -197 -178 -189 -200 -169 L-218 -198 C-191 -220 -159 -229 -131 -229 L-131 -229 Z " />
<glyph glyph-name="uni0328" unicode="&#x328;" d="M-33 -190 C-92 -190 -122 -164 -122 -124 C-122 -84 -90 -37 -33 0 L-73 2 C-135 -39 -167 -91 -167 -138 C-167 -191 -122 -229 -33 -229 L-33 -190 Z " />
<glyph glyph-name="uni0335" unicode="&#x335;" d="M-61 295 L-61 340 L-337 340 L-337 295 L-61 295 Z " />
<glyph glyph-name="uni0336" unicode="&#x336;" d="M-60 291 L-60 328 L-752 328 L-752 291 L-60 291 Z " />
<glyph glyph-name="uni0337" unicode="&#x337;" d="M-6 387 L-6 448 L-251 231 L-251 170 L-6 387 Z " />
<glyph glyph-name="uni0338" unicode="&#x338;" d="M18 597 L-18 619 L-392 22 L-357 1 L18 597 Z " />
<glyph glyph-name="uni0394" unicode="&#x394;" horiz-adv-x="684" d="M624 0 L316 789 L8 0 L624 0 Z M316 666 L553 49 L79 49 L316 666 Z " />
<glyph glyph-name="uni03A9" unicode="&#x3a9;" horiz-adv-x="831" d="M317 0 L317 85 C197 128 120 241 120 397 C120 558 223 682 390 682 C554 682 659 561 659 397 C659 231 582 118 462 86 L462 0 L750 0 L750 48 L524 48 L524 73 C638 126 710 246 710 398 C710 585 582 731 390 731 C200 731 69 589 69 399 C69 259 143 139 259 75 L258 49 L29 49 L29 0 L317 0 Z " />
<glyph glyph-name="uni03BC" unicode="&#x3bc;" horiz-adv-x="612" d="M152 -225 L152 68 C176 19 221 -8 288 -8 C362 -8 428 29 460 97 L460 0 L519 0 L519 542 L460 542 L460 218 C460 110 398 49 303 49 C210 49 161 108 161 212 L161 542 L101 542 L101 -225 L152 -225 Z " />
<glyph glyph-name="pi" unicode="&#x3c0;" horiz-adv-x="578" d="M161 0 L161 488 L374 488 L374 107 C374 41 415 0 481 0 L543 0 L543 57 L486 57 C457 57 436 78 436 107 L436 488 L539 488 L539 542 L40 542 L40 488 L99 488 L99 0 L161 0 Z " />
<glyph glyph-name="uni1E44" unicode="&#x1e44;" horiz-adv-x="720" d="M361 827 C386 827 408 849 408 875 C408 902 386 923 361 923 C333 923 312 902 312 875 C312 849 333 827 361 827 L361 827 Z M137 0 L137 709 L147 709 L531 0 L648 0 L648 767 L583 767 L583 58 L572 58 L188 767 L72 767 L72 0 L137 0 Z " />
<glyph glyph-name="Wgrave" unicode="&#x1e80;" horiz-adv-x="1098" d="M572 837 L457 992 L395 992 L526 837 L572 837 Z M383 0 L545 714 L553 714 L715 0 L818 0 L1083 754 L1083 767 L1019 767 L777 72 L766 72 L606 767 L492 767 L332 72 L321 72 L79 767 L15 767 L15 754 L280 0 L383 0 Z " />
<glyph glyph-name="wgrave" unicode="&#x1e81;" horiz-adv-x="900" d="M472 612 L357 767 L295 767 L426 612 L472 612 Z M324 0 L444 486 L455 486 L575 0 L676 0 L880 542 L815 542 L632 56 L620 56 L500 542 L398 542 L279 56 L268 56 L84 542 L18 542 L225 0 L324 0 Z " />
<glyph glyph-name="Wacute" unicode="&#x1e82;" horiz-adv-x="1098" d="M571 837 L706 992 L643 992 L526 837 L571 837 Z M383 0 L545 714 L553 714 L715 0 L818 0 L1083 754 L1083 767 L1019 767 L777 72 L766 72 L606 767 L492 767 L332 72 L321 72 L79 767 L15 767 L15 754 L280 0 L383 0 Z " />
<glyph glyph-name="wacute" unicode="&#x1e83;" horiz-adv-x="900" d="M471 612 L606 767 L543 767 L426 612 L471 612 Z M324 0 L444 486 L455 486 L575 0 L676 0 L880 542 L815 542 L632 56 L620 56 L500 542 L398 542 L279 56 L268 56 L84 542 L18 542 L225 0 L324 0 Z " />
<glyph glyph-name="Wdieresis" unicode="&#x1e84;" horiz-adv-x="1098" d="M453 827 C478 827 500 849 500 875 C500 902 478 923 453 923 C425 923 404 902 404 875 C404 849 425 827 453 827 L453 827 Z M647 827 C672 827 695 849 695 875 C695 902 672 923 647 923 C619 923 598 902 598 875 C598 849 619 827 647 827 L647 827 Z M383 0 L545 714 L553 714 L715 0 L818 0 L1083 754 L1083 767 L1019 767 L777 72 L766 72 L606 767 L492 767 L332 72 L321 72 L79 767 L15 767 L15 754 L280 0 L383 0 Z " />
<glyph glyph-name="wdieresis" unicode="&#x1e85;" horiz-adv-x="900" d="M352 681 C378 681 400 703 400 730 C400 756 378 778 352 778 C325 778 303 756 303 730 C303 703 325 681 352 681 L352 681 Z M546 681 C572 681 594 703 594 730 C594 756 572 778 546 778 C519 778 497 756 497 730 C497 703 519 681 546 681 L546 681 Z M324 0 L444 486 L455 486 L575 0 L676 0 L880 542 L815 542 L632 56 L620 56 L500 542 L398 542 L279 56 L268 56 L84 542 L18 542 L225 0 L324 0 Z " />
<glyph glyph-name="uni1E9E" unicode="&#x1e9e;" horiz-adv-x="716" d="M413 427 L612 709 L612 767 L72 767 L72 0 L136 0 L136 708 L542 708 L316 391 L456 353 C537 330 607 308 607 213 C607 107 527 59 393 59 L268 59 L268 0 L408 0 C570 0 672 76 672 216 C672 337 593 378 494 405 L413 427 Z " />
<glyph glyph-name="uni1EA0" unicode="&#x1ea0;" horiz-adv-x="654" d="M280 767 L16 13 L16 0 L80 0 L144 186 L510 186 L574 0 L639 0 L639 13 L374 767 L280 767 Z M322 700 L333 700 L490 245 L165 245 L322 700 Z M327 -76 C300 -76 278 -98 278 -125 C278 -151 300 -173 327 -173 C353 -173 375 -151 375 -125 C375 -98 353 -76 327 -76 L327 -76 Z " />
<glyph glyph-name="uni1EA1" unicode="&#x1ea1;" horiz-adv-x="542" d="M462 452 C432 517 363 550 271 550 C136 550 68 482 59 384 L121 384 C129 453 176 500 270 500 C372 500 419 445 420 358 L420 314 L235 314 C122 314 45 268 45 155 C45 53 117 -8 228 -8 C312 -8 375 30 411 105 L419 105 L419 0 L481 0 L481 341 C481 377 478 417 462 452 L462 452 Z M236 44 C156 44 107 86 107 155 C107 238 160 267 242 267 L420 267 L420 259 C417 133 361 44 236 44 L236 44 Z M277 -76 C250 -76 228 -98 228 -125 C228 -151 250 -173 277 -173 C303 -173 325 -151 325 -125 C325 -98 303 -76 277 -76 L277 -76 Z " />
<glyph glyph-name="uni1EA2" unicode="&#x1ea2;" horiz-adv-x="654" d="M375 937 C390 926 396 911 396 892 C396 839 352 834 319 828 L322 802 C372 809 435 819 435 894 C435 927 420 950 396 966 C374 983 343 992 303 992 L284 992 L284 956 L303 956 C335 956 358 950 375 937 L375 937 Z M280 767 L16 13 L16 0 L80 0 L144 186 L510 186 L574 0 L639 0 L639 13 L374 767 L280 767 Z M322 700 L333 700 L490 245 L165 245 L322 700 Z " />
<glyph glyph-name="uni1EA3" unicode="&#x1ea3;" horiz-adv-x="542" d="M325 712 C340 701 346 686 346 667 C346 614 302 609 269 603 L272 577 C322 584 385 594 385 669 C385 702 370 725 346 741 C324 758 293 767 253 767 L234 767 L234 731 L253 731 C285 731 308 725 325 712 L325 712 Z M462 452 C432 517 363 550 271 550 C136 550 68 482 59 384 L121 384 C129 453 176 500 270 500 C372 500 419 445 420 358 L420 314 L235 314 C122 314 45 268 45 155 C45 53 117 -8 228 -8 C312 -8 375 30 411 105 L419 105 L419 0 L481 0 L481 341 C481 377 478 417 462 452 L462 452 Z M236 44 C156 44 107 86 107 155 C107 238 160 267 242 267 L420 267 L420 259 C417 133 361 44 236 44 L236 44 Z " />
<glyph glyph-name="uni1EA4" unicode="&#x1ea4;" horiz-adv-x="654" d="M422 1215 L305 1059 L350 1059 L485 1215 L422 1215 Z M435 837 L489 837 L354 992 L300 992 L166 837 L220 837 L327 963 L435 837 Z M280 767 L16 13 L16 0 L80 0 L144 186 L510 186 L574 0 L639 0 L639 13 L374 767 L280 767 Z M322 700 L333 700 L490 245 L165 245 L322 700 Z " />
<glyph glyph-name="uni1EA5" unicode="&#x1ea5;" horiz-adv-x="542" d="M372 990 L255 834 L300 834 L435 990 L372 990 Z M385 612 L439 612 L304 767 L250 767 L116 612 L170 612 L277 738 L385 612 Z M462 452 C432 517 363 550 271 550 C136 550 68 482 59 384 L121 384 C129 453 176 500 270 500 C372 500 419 445 420 358 L420 314 L235 314 C122 314 45 268 45 155 C45 53 117 -8 228 -8 C312 -8 375 30 411 105 L419 105 L419 0 L481 0 L481 341 C481 377 478 417 462 452 L462 452 Z M236 44 C156 44 107 86 107 155 C107 238 160 267 242 267 L420 267 L420 259 C417 133 361 44 236 44 L236 44 Z " />
<glyph glyph-name="uni1EA6" unicode="&#x1ea6;" horiz-adv-x="654" d="M236 1215 L174 1215 L304 1059 L351 1059 L236 1215 Z M435 837 L489 837 L354 992 L300 992 L166 837 L220 837 L327 963 L435 837 Z M280 767 L16 13 L16 0 L80 0 L144 186 L510 186 L574 0 L639 0 L639 13 L374 767 L280 767 Z M322 700 L333 700 L490 245 L165 245 L322 700 Z " />
<glyph glyph-name="uni1EA7" unicode="&#x1ea7;" horiz-adv-x="542" d="M186 990 L124 990 L254 834 L301 834 L186 990 Z M385 612 L439 612 L304 767 L250 767 L116 612 L170 612 L277 738 L385 612 Z M462 452 C432 517 363 550 271 550 C136 550 68 482 59 384 L121 384 C129 453 176 500 270 500 C372 500 419 445 420 358 L420 314 L235 314 C122 314 45 268 45 155 C45 53 117 -8 228 -8 C312 -8 375 30 411 105 L419 105 L419 0 L481 0 L481 341 C481 377 478 417 462 452 L462 452 Z M236 44 C156 44 107 86 107 155 C107 238 160 267 242 267 L420 267 L420 259 C417 133 361 44 236 44 L236 44 Z " />
<glyph glyph-name="uni1EA8" unicode="&#x1ea8;" horiz-adv-x="654" d="M375 1159 C390 1148 396 1133 396 1114 C396 1061 353 1057 319 1051 L322 1025 C373 1031 436 1042 436 1116 C436 1150 420 1172 397 1189 C375 1206 344 1215 304 1215 L285 1215 L285 1179 L304 1179 C335 1179 359 1172 375 1159 L375 1159 Z M435 837 L489 837 L354 992 L300 992 L166 837 L220 837 L327 963 L435 837 Z M280 767 L16 13 L16 0 L80 0 L144 186 L510 186 L574 0 L639 0 L639 13 L374 767 L280 767 Z M322 700 L333 700 L490 245 L165 245 L322 700 Z " />
<glyph glyph-name="uni1EA9" unicode="&#x1ea9;" horiz-adv-x="542" d="M325 934 C340 923 346 908 346 889 C346 836 303 832 269 826 L272 800 C323 806 386 817 386 891 C386 925 370 947 347 964 C325 981 294 990 254 990 L235 990 L235 954 L254 954 C285 954 309 947 325 934 L325 934 Z M385 612 L439 612 L304 767 L250 767 L116 612 L170 612 L277 738 L385 612 Z M462 452 C432 517 363 550 271 550 C136 550 68 482 59 384 L121 384 C129 453 176 500 270 500 C372 500 419 445 420 358 L420 314 L235 314 C122 314 45 268 45 155 C45 53 117 -8 228 -8 C312 -8 375 30 411 105 L419 105 L419 0 L481 0 L481 341 C481 377 478 417 462 452 L462 452 Z M236 44 C156 44 107 86 107 155 C107 238 160 267 242 267 L420 267 L420 259 C417 133 361 44 236 44 L236 44 Z " />
<glyph glyph-name="uni1EAA" unicode="&#x1eaa;" horiz-adv-x="654" d="M252 1181 C317 1181 314 1080 406 1080 C462 1080 499 1132 499 1215 L462 1215 C462 1155 439 1118 406 1118 C340 1118 339 1219 254 1219 C194 1219 156 1171 156 1090 L192 1090 C192 1147 215 1181 252 1181 L252 1181 Z M166 837 L220 837 L327 963 L435 837 L490 837 L354 992 L300 992 L166 837 Z M280 767 L16 13 L16 0 L80 0 L144 186 L510 186 L574 0 L639 0 L639 13 L374 767 L280 767 Z M322 700 L333 700 L490 245 L165 245 L322 700 Z " />
<glyph glyph-name="uni1EAB" unicode="&#x1eab;" horiz-adv-x="542" d="M202 956 C267 956 264 855 356 855 C412 855 449 907 449 990 L412 990 C412 930 389 893 356 893 C290 893 289 994 204 994 C144 994 106 946 106 865 L142 865 C142 922 165 956 202 956 L202 956 Z M116 612 L170 612 L277 738 L385 612 L440 612 L304 767 L250 767 L116 612 Z M462 452 C432 517 363 550 271 550 C136 550 68 482 59 384 L121 384 C129 453 176 500 270 500 C372 500 419 445 420 358 L420 314 L235 314 C122 314 45 268 45 155 C45 53 117 -8 228 -8 C312 -8 375 30 411 105 L419 105 L419 0 L481 0 L481 341 C481 377 478 417 462 452 L462 452 Z M236 44 C156 44 107 86 107 155 C107 238 160 267 242 267 L420 267 L420 259 C417 133 361 44 236 44 L236 44 Z " />
<glyph glyph-name="uni1EAC" unicode="&#x1eac;" horiz-adv-x="654" d="M435 837 L489 837 L354 992 L300 992 L166 837 L220 837 L327 963 L435 837 Z M280 767 L16 13 L16 0 L80 0 L144 186 L510 186 L574 0 L639 0 L639 13 L374 767 L280 767 Z M322 700 L333 700 L490 245 L165 245 L322 700 Z M327 -76 C300 -76 278 -98 278 -125 C278 -151 300 -173 327 -173 C353 -173 375 -151 375 -125 C375 -98 353 -76 327 -76 L327 -76 Z " />
<glyph glyph-name="uni1EAD" unicode="&#x1ead;" horiz-adv-x="542" d="M385 612 L439 612 L304 767 L250 767 L116 612 L170 612 L277 738 L385 612 Z M462 452 C432 517 363 550 271 550 C136 550 68 482 59 384 L121 384 C129 453 176 500 270 500 C372 500 419 445 420 358 L420 314 L235 314 C122 314 45 268 45 155 C45 53 117 -8 228 -8 C312 -8 375 30 411 105 L419 105 L419 0 L481 0 L481 341 C481 377 478 417 462 452 L462 452 Z M236 44 C156 44 107 86 107 155 C107 238 160 267 242 267 L420 267 L420 259 C417 133 361 44 236 44 L236 44 Z M277 -76 C250 -76 228 -98 228 -125 C228 -151 250 -173 277 -173 C303 -173 325 -151 325 -125 C325 -98 303 -76 277 -76 L277 -76 Z " />
<glyph glyph-name="uni1EAE" unicode="&#x1eae;" horiz-adv-x="654" d="M421 1217 L304 1062 L349 1062 L484 1217 L421 1217 Z M327 844 C433 844 491 898 491 992 L448 992 C448 918 403 881 327 881 C251 881 205 917 205 992 L163 992 C163 899 217 844 327 844 L327 844 Z M280 767 L16 13 L16 0 L80 0 L144 186 L510 186 L574 0 L639 0 L639 13 L374 767 L280 767 Z M322 700 L333 700 L490 245 L165 245 L322 700 Z " />
<glyph glyph-name="uni1EAF" unicode="&#x1eaf;" horiz-adv-x="542" d="M372 992 L255 837 L300 837 L435 992 L372 992 Z M278 619 C384 619 442 673 442 767 L399 767 C399 693 354 656 278 656 C202 656 156 692 156 767 L114 767 C114 674 168 619 278 619 L278 619 Z M462 452 C432 517 363 550 271 550 C136 550 68 482 59 384 L121 384 C129 453 176 500 270 500 C372 500 419 445 420 358 L420 314 L235 314 C122 314 45 268 45 155 C45 53 117 -8 228 -8 C312 -8 375 30 411 105 L419 105 L419 0 L481 0 L481 341 C481 377 478 417 462 452 L462 452 Z M236 44 C156 44 107 86 107 155 C107 238 160 267 242 267 L420 267 L420 259 C417 133 361 44 236 44 L236 44 Z " />
<glyph glyph-name="uni1EB0" unicode="&#x1eb0;" horiz-adv-x="654" d="M235 1217 L173 1217 L304 1062 L350 1062 L235 1217 Z M327 844 C433 844 491 898 491 992 L448 992 C448 918 403 881 327 881 C251 881 205 917 205 992 L163 992 C163 899 217 844 327 844 L327 844 Z M280 767 L16 13 L16 0 L80 0 L144 186 L510 186 L574 0 L639 0 L639 13 L374 767 L280 767 Z M322 700 L333 700 L490 245 L165 245 L322 700 Z " />
<glyph glyph-name="uni1EB1" unicode="&#x1eb1;" horiz-adv-x="542" d="M186 992 L124 992 L255 837 L301 837 L186 992 Z M278 619 C384 619 442 673 442 767 L399 767 C399 693 354 656 278 656 C202 656 156 692 156 767 L114 767 C114 674 168 619 278 619 L278 619 Z M462 452 C432 517 363 550 271 550 C136 550 68 482 59 384 L121 384 C129 453 176 500 270 500 C372 500 419 445 420 358 L420 314 L235 314 C122 314 45 268 45 155 C45 53 117 -8 228 -8 C312 -8 375 30 411 105 L419 105 L419 0 L481 0 L481 341 C481 377 478 417 462 452 L462 452 Z M236 44 C156 44 107 86 107 155 C107 238 160 267 242 267 L420 267 L420 259 C417 133 361 44 236 44 L236 44 Z " />
<glyph glyph-name="uni1EB2" unicode="&#x1eb2;" horiz-adv-x="654" d="M374 1162 C389 1151 396 1136 396 1117 C396 1064 352 1059 318 1053 L321 1027 C372 1034 435 1044 435 1119 C435 1152 419 1175 396 1191 C374 1208 343 1217 303 1217 L284 1217 L284 1181 L303 1181 C335 1181 358 1175 374 1162 L374 1162 Z M327 844 C433 844 491 898 491 992 L448 992 C448 918 403 881 327 881 C251 881 205 917 205 992 L163 992 C163 899 217 844 327 844 L327 844 Z M280 767 L16 13 L16 0 L80 0 L144 186 L510 186 L574 0 L639 0 L639 13 L374 767 L280 767 Z M322 700 L333 700 L490 245 L165 245 L322 700 Z " />
<glyph glyph-name="uni1EB3" unicode="&#x1eb3;" horiz-adv-x="542" d="M325 937 C340 926 347 911 347 892 C347 839 303 834 269 828 L272 802 C323 809 386 819 386 894 C386 927 370 950 347 966 C325 983 294 992 254 992 L235 992 L235 956 L254 956 C286 956 309 950 325 937 L325 937 Z M278 619 C384 619 442 673 442 767 L399 767 C399 693 354 656 278 656 C202 656 156 692 156 767 L114 767 C114 674 168 619 278 619 L278 619 Z M462 452 C432 517 363 550 271 550 C136 550 68 482 59 384 L121 384 C129 453 176 500 270 500 C372 500 419 445 420 358 L420 314 L235 314 C122 314 45 268 45 155 C45 53 117 -8 228 -8 C312 -8 375 30 411 105 L419 105 L419 0 L481 0 L481 341 C481 377 478 417 462 452 L462 452 Z M236 44 C156 44 107 86 107 155 C107 238 160 267 242 267 L420 267 L420 259 C417 133 361 44 236 44 L236 44 Z " />
<glyph glyph-name="uni1EB4" unicode="&#x1eb4;" horiz-adv-x="654" d="M251 1183 C316 1184 313 1083 405 1083 C461 1083 498 1135 498 1217 L461 1217 C461 1158 438 1121 405 1121 C339 1121 339 1222 253 1221 C193 1222 155 1174 155 1093 L191 1093 C191 1150 214 1184 251 1183 L251 1183 Z M327 881 C251 881 205 917 205 992 L163 992 C163 899 217 844 327 844 C433 844 491 898 491 992 L448 992 C448 918 403 881 327 881 L327 881 Z M280 767 L16 13 L16 0 L80 0 L144 186 L510 186 L574 0 L639 0 L639 13 L374 767 L280 767 Z M322 700 L333 700 L490 245 L165 245 L322 700 Z " />
<glyph glyph-name="uni1EB5" unicode="&#x1eb5;" horiz-adv-x="542" d="M202 958 C267 959 264 858 356 858 C412 858 449 910 449 992 L412 992 C412 933 389 896 356 896 C290 896 290 997 204 996 C144 997 106 949 106 868 L142 868 C142 925 165 959 202 958 L202 958 Z M278 656 C202 656 156 692 156 767 L114 767 C114 674 168 619 278 619 C384 619 442 673 442 767 L399 767 C399 693 354 656 278 656 L278 656 Z M462 452 C432 517 363 550 271 550 C136 550 68 482 59 384 L121 384 C129 453 176 500 270 500 C372 500 419 445 420 358 L420 314 L235 314 C122 314 45 268 45 155 C45 53 117 -8 228 -8 C312 -8 375 30 411 105 L419 105 L419 0 L481 0 L481 341 C481 377 478 417 462 452 L462 452 Z M236 44 C156 44 107 86 107 155 C107 238 160 267 242 267 L420 267 L420 259 C417 133 361 44 236 44 L236 44 Z " />
<glyph glyph-name="uni1EB6" unicode="&#x1eb6;" horiz-adv-x="654" d="M327 844 C433 844 491 898 491 992 L448 992 C448 918 403 881 327 881 C251 881 205 917 205 992 L163 992 C163 899 217 844 327 844 L327 844 Z M280 767 L16 13 L16 0 L80 0 L144 186 L510 186 L574 0 L639 0 L639 13 L374 767 L280 767 Z M322 700 L333 700 L490 245 L165 245 L322 700 Z M327 -76 C300 -76 278 -98 278 -125 C278 -151 300 -173 327 -173 C353 -173 375 -151 375 -125 C375 -98 353 -76 327 -76 L327 -76 Z " />
<glyph glyph-name="uni1EB7" unicode="&#x1eb7;" horiz-adv-x="542" d="M278 619 C384 619 442 673 442 767 L399 767 C399 693 354 656 278 656 C202 656 156 692 156 767 L114 767 C114 674 168 619 278 619 L278 619 Z M462 452 C432 517 363 550 271 550 C136 550 68 482 59 384 L121 384 C129 453 176 500 270 500 C372 500 419 445 420 358 L420 314 L235 314 C122 314 45 268 45 155 C45 53 117 -8 228 -8 C312 -8 375 30 411 105 L419 105 L419 0 L481 0 L481 341 C481 377 478 417 462 452 L462 452 Z M236 44 C156 44 107 86 107 155 C107 238 160 267 242 267 L420 267 L420 259 C417 133 361 44 236 44 L236 44 Z M277 -76 C250 -76 228 -98 228 -125 C228 -151 250 -173 277 -173 C303 -173 325 -151 325 -125 C325 -98 303 -76 277 -76 L277 -76 Z " />
<glyph glyph-name="uni1EB8" unicode="&#x1eb8;" horiz-adv-x="598" d="M572 0 L572 59 L137 59 L137 366 L504 366 L504 425 L137 425 L137 708 L549 708 L549 767 L72 767 L72 0 L572 0 Z M322 -173 C348 -173 370 -151 370 -125 C370 -98 348 -76 322 -76 C295 -76 273 -98 273 -125 C273 -151 295 -173 322 -173 L322 -173 Z " />
<glyph glyph-name="uni1EB9" unicode="&#x1eb9;" horiz-adv-x="600" d="M559 283 C555 452 448 550 301 550 C152 550 43 449 43 271 C43 93 152 -8 301 -8 C417 -8 509 53 544 163 L478 163 C449 88 384 47 301 47 C187 47 107 125 105 267 L559 267 L559 283 Z M301 495 C405 495 481 431 495 314 L108 314 C122 432 198 495 301 495 L301 495 Z M302 -76 C275 -76 253 -98 253 -125 C253 -151 275 -173 302 -173 C328 -173 350 -151 350 -125 C350 -98 328 -76 302 -76 L302 -76 Z " />
<glyph glyph-name="uni1EBA" unicode="&#x1eba;" horiz-adv-x="598" d="M317 802 C367 809 430 819 430 894 C430 927 415 950 391 966 C369 983 338 992 298 992 L279 992 L279 956 L298 956 C330 956 353 950 370 937 C385 926 391 911 391 892 C391 839 347 834 314 828 L317 802 Z M572 0 L572 59 L137 59 L137 366 L504 366 L504 425 L137 425 L137 708 L549 708 L549 767 L72 767 L72 0 L572 0 Z " />
<glyph glyph-name="uni1EBB" unicode="&#x1ebb;" horiz-adv-x="600" d="M350 712 C365 701 371 686 371 667 C371 614 327 609 294 603 L297 577 C347 584 410 594 410 669 C410 702 395 725 371 741 C349 758 318 767 278 767 L259 767 L259 731 L278 731 C310 731 333 725 350 712 L350 712 Z M559 283 C555 452 448 550 301 550 C152 550 43 449 43 271 C43 93 152 -8 301 -8 C417 -8 509 53 544 163 L478 163 C449 88 384 47 301 47 C187 47 107 125 105 267 L559 267 L559 283 Z M301 495 C405 495 481 431 495 314 L108 314 C122 432 198 495 301 495 L301 495 Z " />
<glyph glyph-name="uni1EBC" unicode="&#x1ebc;" horiz-adv-x="598" d="M400 858 C456 858 493 910 493 992 L456 992 C456 933 433 896 400 896 C334 896 333 997 248 996 C188 997 150 949 150 868 L186 868 C186 925 209 959 246 958 C311 959 308 858 400 858 L400 858 Z M572 0 L572 59 L137 59 L137 366 L504 366 L504 425 L137 425 L137 708 L549 708 L549 767 L72 767 L72 0 L572 0 Z " />
<glyph glyph-name="uni1EBD" unicode="&#x1ebd;" horiz-adv-x="600" d="M226 733 C291 734 288 633 380 633 C436 633 473 685 473 767 L436 767 C436 708 413 671 380 671 C314 671 313 772 228 771 C168 772 130 724 130 643 L166 643 C166 700 189 734 226 733 L226 733 Z M559 283 C555 452 448 550 301 550 C152 550 43 449 43 271 C43 93 152 -8 301 -8 C417 -8 509 53 544 163 L478 163 C449 88 384 47 301 47 C187 47 107 125 105 267 L559 267 L559 283 Z M301 495 C405 495 481 431 495 314 L108 314 C122 432 198 495 301 495 L301 495 Z " />
<glyph glyph-name="uni1EBE" unicode="&#x1ebe;" horiz-adv-x="598" d="M416 1215 L299 1059 L344 1059 L479 1215 L416 1215 Z M429 837 L483 837 L348 992 L294 992 L160 837 L214 837 L321 963 L429 837 Z M137 366 L504 366 L504 425 L137 425 L137 708 L549 708 L549 767 L72 767 L72 0 L572 0 L572 59 L137 59 L137 366 Z " />
<glyph glyph-name="uni1EBF" unicode="&#x1ebf;" horiz-adv-x="600" d="M396 990 L279 834 L324 834 L459 990 L396 990 Z M409 612 L463 612 L328 767 L274 767 L140 612 L194 612 L301 738 L409 612 Z M559 283 C555 452 448 550 301 550 C152 550 43 449 43 271 C43 93 152 -8 301 -8 C417 -8 509 53 544 163 L478 163 C449 88 384 47 301 47 C187 47 107 125 105 267 L559 267 L559 283 Z M301 495 C405 495 481 431 495 314 L108 314 C122 432 198 495 301 495 L301 495 Z " />
<glyph glyph-name="uni1EC0" unicode="&#x1ec0;" horiz-adv-x="598" d="M230 1215 L168 1215 L298 1059 L345 1059 L230 1215 Z M429 837 L483 837 L348 992 L294 992 L160 837 L214 837 L321 963 L429 837 Z M137 366 L504 366 L504 425 L137 425 L137 708 L549 708 L549 767 L72 767 L72 0 L572 0 L572 59 L137 59 L137 366 Z " />
<glyph glyph-name="uni1EC1" unicode="&#x1ec1;" horiz-adv-x="600" d="M210 990 L148 990 L278 834 L325 834 L210 990 Z M409 612 L463 612 L328 767 L274 767 L140 612 L194 612 L301 738 L409 612 Z M559 283 C555 452 448 550 301 550 C152 550 43 449 43 271 C43 93 152 -8 301 -8 C417 -8 509 53 544 163 L478 163 C449 88 384 47 301 47 C187 47 107 125 105 267 L559 267 L559 283 Z M301 495 C405 495 481 431 495 314 L108 314 C122 432 198 495 301 495 L301 495 Z " />
<glyph glyph-name="uni1EC2" unicode="&#x1ec2;" horiz-adv-x="598" d="M369 1159 C384 1148 390 1133 390 1114 C390 1061 347 1057 313 1051 L316 1025 C367 1031 430 1042 430 1116 C430 1150 414 1172 391 1189 C369 1206 338 1215 298 1215 L279 1215 L279 1179 L298 1179 C329 1179 353 1172 369 1159 L369 1159 Z M429 837 L483 837 L348 992 L294 992 L160 837 L214 837 L321 963 L429 837 Z M137 366 L504 366 L504 425 L137 425 L137 708 L549 708 L549 767 L72 767 L72 0 L572 0 L572 59 L137 59 L137 366 Z " />
<glyph glyph-name="uni1EC3" unicode="&#x1ec3;" horiz-adv-x="600" d="M349 934 C364 923 370 908 370 889 C370 836 327 832 293 826 L296 800 C347 806 410 817 410 891 C410 925 394 947 371 964 C349 981 318 990 278 990 L259 990 L259 954 L278 954 C309 954 333 947 349 934 L349 934 Z M409 612 L463 612 L328 767 L274 767 L140 612 L194 612 L301 738 L409 612 Z M559 283 C555 452 448 550 301 550 C152 550 43 449 43 271 C43 93 152 -8 301 -8 C417 -8 509 53 544 163 L478 163 C449 88 384 47 301 47 C187 47 107 125 105 267 L559 267 L559 283 Z M301 495 C405 495 481 431 495 314 L108 314 C122 432 198 495 301 495 L301 495 Z " />
<glyph glyph-name="uni1EC4" unicode="&#x1ec4;" horiz-adv-x="598" d="M246 1181 C311 1181 308 1080 400 1080 C456 1080 493 1132 493 1215 L456 1215 C456 1155 433 1118 400 1118 C334 1118 333 1219 248 1219 C188 1219 150 1171 150 1090 L186 1090 C186 1147 209 1181 246 1181 L246 1181 Z M160 837 L214 837 L321 963 L429 837 L484 837 L348 992 L294 992 L160 837 Z M137 366 L504 366 L504 425 L137 425 L137 708 L549 708 L549 767 L72 767 L72 0 L572 0 L572 59 L137 59 L137 366 Z " />
<glyph glyph-name="uni1EC5" unicode="&#x1ec5;" horiz-adv-x="600" d="M226 956 C291 956 288 855 380 855 C436 855 473 907 473 990 L436 990 C436 930 413 893 380 893 C314 893 313 994 228 994 C168 994 130 946 130 865 L166 865 C166 922 189 956 226 956 L226 956 Z M140 612 L194 612 L301 738 L409 612 L464 612 L328 767 L274 767 L140 612 Z M559 283 C555 452 448 550 301 550 C152 550 43 449 43 271 C43 93 152 -8 301 -8 C417 -8 509 53 544 163 L478 163 C449 88 384 47 301 47 C187 47 107 125 105 267 L559 267 L559 283 Z M301 495 C405 495 481 431 495 314 L108 314 C122 432 198 495 301 495 L301 495 Z " />
<glyph glyph-name="uni1EC6" unicode="&#x1ec6;" horiz-adv-x="598" d="M429 837 L483 837 L348 992 L294 992 L160 837 L214 837 L321 963 L429 837 Z M137 366 L504 366 L504 425 L137 425 L137 708 L549 708 L549 767 L72 767 L72 0 L572 0 L572 59 L137 59 L137 366 Z M322 -76 C295 -76 273 -98 273 -125 C273 -151 295 -173 322 -173 C348 -173 370 -151 370 -125 C370 -98 348 -76 322 -76 L322 -76 Z " />
<glyph glyph-name="uni1EC7" unicode="&#x1ec7;" horiz-adv-x="600" d="M409 612 L463 612 L328 767 L274 767 L140 612 L194 612 L301 738 L409 612 Z M559 283 C555 452 448 550 301 550 C152 550 43 449 43 271 C43 93 152 -8 301 -8 C417 -8 509 53 544 163 L478 163 C449 88 384 47 301 47 C187 47 107 125 105 267 L559 267 L559 283 Z M301 495 C405 495 481 431 495 314 L108 314 C122 432 198 495 301 495 L301 495 Z M302 -76 C275 -76 253 -98 253 -125 C253 -151 275 -173 302 -173 C328 -173 350 -151 350 -125 C350 -98 328 -76 302 -76 L302 -76 Z " />
<glyph glyph-name="uni1EC8" unicode="&#x1ec8;" horiz-adv-x="208" d="M99 802 C149 809 212 819 212 894 C212 927 197 950 173 966 C151 983 120 992 80 992 L61 992 L61 956 L80 956 C112 956 135 950 152 937 C167 926 173 911 173 892 C173 839 129 834 96 828 L99 802 Z M137 0 L137 767 L72 767 L72 0 L137 0 Z " />
<glyph glyph-name="uni1EC9" unicode="&#x1ec9;" horiz-adv-x="190" d="M89 577 C139 584 202 594 202 669 C202 702 187 725 163 741 C141 758 110 767 70 767 L51 767 L51 731 L70 731 C102 731 125 725 142 712 C157 701 163 686 163 667 C163 614 119 609 86 603 L89 577 Z M126 0 L126 542 L64 542 L64 0 L126 0 Z " />
<glyph glyph-name="uni1ECA" unicode="&#x1eca;" horiz-adv-x="208" d="M137 0 L137 767 L72 767 L72 0 L137 0 Z M104 -173 C130 -173 152 -151 152 -125 C152 -98 130 -76 104 -76 C77 -76 55 -98 55 -125 C55 -151 77 -173 104 -173 L104 -173 Z " />
<glyph glyph-name="uni1ECB" unicode="&#x1ecb;" horiz-adv-x="190" d="M95 681 C121 681 143 703 143 730 C143 756 121 778 95 778 C68 778 46 756 46 730 C46 703 68 681 95 681 L95 681 Z M126 0 L126 542 L64 542 L64 0 L126 0 Z M95 -173 C121 -173 143 -151 143 -125 C143 -98 121 -76 95 -76 C68 -76 46 -98 46 -125 C46 -151 68 -173 95 -173 L95 -173 Z " />
<glyph glyph-name="uni1ECC" unicode="&#x1ecc;" horiz-adv-x="782" d="M390 -8 C598 -8 738 149 738 384 C738 619 598 775 390 775 C182 775 43 619 43 384 C43 149 182 -8 390 -8 L390 -8 Z M390 51 C221 51 108 185 108 384 C108 583 221 716 390 716 C559 716 672 583 672 384 C672 185 559 51 390 51 L390 51 Z M390 -173 C416 -173 438 -151 438 -125 C438 -98 416 -76 390 -76 C363 -76 341 -98 341 -125 C341 -151 363 -173 390 -173 L390 -173 Z " />
<glyph glyph-name="uni1ECD" unicode="&#x1ecd;" horiz-adv-x="604" d="M301 -8 C451 -8 559 93 559 271 C559 449 451 550 301 550 C152 550 43 449 43 271 C43 93 152 -8 301 -8 L301 -8 Z M301 47 C186 47 105 126 105 271 C105 416 186 495 301 495 C417 495 498 416 498 271 C498 126 417 47 301 47 L301 47 Z M301 -173 C327 -173 349 -151 349 -125 C349 -98 327 -76 301 -76 C274 -76 252 -98 252 -125 C252 -151 274 -173 301 -173 L301 -173 Z " />
<glyph glyph-name="uni1ECE" unicode="&#x1ece;" horiz-adv-x="782" d="M385 802 C435 809 498 819 498 894 C498 927 483 950 459 966 C437 983 406 992 366 992 L347 992 L347 956 L366 956 C398 956 421 950 438 937 C453 926 459 911 459 892 C459 839 415 834 382 828 L385 802 Z M390 -8 C598 -8 738 149 738 384 C738 619 598 775 390 775 C182 775 43 619 43 384 C43 149 182 -8 390 -8 L390 -8 Z M390 51 C221 51 108 185 108 384 C108 583 221 716 390 716 C559 716 672 583 672 384 C672 185 559 51 390 51 L390 51 Z " />
<glyph glyph-name="uni1ECF" unicode="&#x1ecf;" horiz-adv-x="604" d="M296 577 C346 584 409 594 409 669 C409 702 394 725 370 741 C348 758 317 767 277 767 L258 767 L258 731 L277 731 C309 731 332 725 349 712 C364 701 370 686 370 667 C370 614 326 609 293 603 L296 577 Z M301 -8 C451 -8 559 93 559 271 C559 449 451 550 301 550 C152 550 43 449 43 271 C43 93 152 -8 301 -8 L301 -8 Z M301 47 C186 47 105 126 105 271 C105 416 186 495 301 495 C417 495 498 416 498 271 C498 126 417 47 301 47 L301 47 Z " />
<glyph glyph-name="uni1ED0" unicode="&#x1ed0;" horiz-adv-x="782" d="M484 1215 L367 1059 L412 1059 L547 1215 L484 1215 Z M497 837 L551 837 L416 992 L362 992 L228 837 L282 837 L389 963 L497 837 Z M390 775 C182 775 43 619 43 384 C43 149 182 -8 390 -8 C598 -8 738 149 738 384 C738 619 598 775 390 775 L390 775 Z M390 51 C221 51 108 185 108 384 C108 583 221 716 390 716 C559 716 672 583 672 384 C672 185 559 51 390 51 L390 51 Z " />
<glyph glyph-name="uni1ED1" unicode="&#x1ed1;" horiz-adv-x="604" d="M396 990 L279 834 L324 834 L459 990 L396 990 Z M409 612 L463 612 L328 767 L274 767 L140 612 L194 612 L301 738 L409 612 Z M301 550 C152 550 43 449 43 271 C43 93 152 -8 301 -8 C451 -8 559 93 559 271 C559 449 451 550 301 550 L301 550 Z M301 47 C186 47 105 126 105 271 C105 416 186 495 301 495 C417 495 498 416 498 271 C498 126 417 47 301 47 L301 47 Z " />
<glyph glyph-name="uni1ED2" unicode="&#x1ed2;" horiz-adv-x="782" d="M298 1215 L236 1215 L366 1059 L413 1059 L298 1215 Z M497 837 L551 837 L416 992 L362 992 L228 837 L282 837 L389 963 L497 837 Z M390 775 C182 775 43 619 43 384 C43 149 182 -8 390 -8 C598 -8 738 149 738 384 C738 619 598 775 390 775 L390 775 Z M390 51 C221 51 108 185 108 384 C108 583 221 716 390 716 C559 716 672 583 672 384 C672 185 559 51 390 51 L390 51 Z " />
<glyph glyph-name="uni1ED3" unicode="&#x1ed3;" horiz-adv-x="604" d="M210 990 L148 990 L278 834 L325 834 L210 990 Z M409 612 L463 612 L328 767 L274 767 L140 612 L194 612 L301 738 L409 612 Z M301 550 C152 550 43 449 43 271 C43 93 152 -8 301 -8 C451 -8 559 93 559 271 C559 449 451 550 301 550 L301 550 Z M301 47 C186 47 105 126 105 271 C105 416 186 495 301 495 C417 495 498 416 498 271 C498 126 417 47 301 47 L301 47 Z " />
<glyph glyph-name="uni1ED4" unicode="&#x1ed4;" horiz-adv-x="782" d="M437 1159 C452 1148 458 1133 458 1114 C458 1061 415 1057 381 1051 L384 1025 C435 1031 498 1042 498 1116 C498 1150 482 1172 459 1189 C437 1206 406 1215 366 1215 L347 1215 L347 1179 L366 1179 C397 1179 421 1172 437 1159 L437 1159 Z M497 837 L551 837 L416 992 L362 992 L228 837 L282 837 L389 963 L497 837 Z M390 775 C182 775 43 619 43 384 C43 149 182 -8 390 -8 C598 -8 738 149 738 384 C738 619 598 775 390 775 L390 775 Z M390 51 C221 51 108 185 108 384 C108 583 221 716 390 716 C559 716 672 583 672 384 C672 185 559 51 390 51 L390 51 Z " />
<glyph glyph-name="uni1ED5" unicode="&#x1ed5;" horiz-adv-x="604" d="M349 934 C364 923 370 908 370 889 C370 836 327 832 293 826 L296 800 C347 806 410 817 410 891 C410 925 394 947 371 964 C349 981 318 990 278 990 L259 990 L259 954 L278 954 C309 954 333 947 349 934 L349 934 Z M409 612 L463 612 L328 767 L274 767 L140 612 L194 612 L301 738 L409 612 Z M301 550 C152 550 43 449 43 271 C43 93 152 -8 301 -8 C451 -8 559 93 559 271 C559 449 451 550 301 550 L301 550 Z M301 47 C186 47 105 126 105 271 C105 416 186 495 301 495 C417 495 498 416 498 271 C498 126 417 47 301 47 L301 47 Z " />
<glyph glyph-name="uni1ED6" unicode="&#x1ed6;" horiz-adv-x="782" d="M314 1181 C379 1181 376 1080 468 1080 C524 1080 561 1132 561 1215 L524 1215 C524 1155 501 1118 468 1118 C402 1118 401 1219 316 1219 C256 1219 218 1171 218 1090 L254 1090 C254 1147 277 1181 314 1181 L314 1181 Z M228 837 L282 837 L389 963 L497 837 L552 837 L416 992 L362 992 L228 837 Z M390 775 C182 775 43 619 43 384 C43 149 182 -8 390 -8 C598 -8 738 149 738 384 C738 619 598 775 390 775 L390 775 Z M390 51 C221 51 108 185 108 384 C108 583 221 716 390 716 C559 716 672 583 672 384 C672 185 559 51 390 51 L390 51 Z " />
<glyph glyph-name="uni1ED7" unicode="&#x1ed7;" horiz-adv-x="604" d="M225 956 C290 956 287 855 379 855 C435 855 472 907 472 990 L435 990 C435 930 412 893 379 893 C313 893 312 994 227 994 C167 994 129 946 129 865 L165 865 C165 922 188 956 225 956 L225 956 Z M139 612 L193 612 L300 738 L408 612 L463 612 L327 767 L273 767 L139 612 Z M301 550 C152 550 43 449 43 271 C43 93 152 -8 301 -8 C451 -8 559 93 559 271 C559 449 451 550 301 550 L301 550 Z M301 47 C186 47 105 126 105 271 C105 416 186 495 301 495 C417 495 498 416 498 271 C498 126 417 47 301 47 L301 47 Z " />
<glyph glyph-name="uni1ED8" unicode="&#x1ed8;" horiz-adv-x="782" d="M497 837 L551 837 L416 992 L362 992 L228 837 L282 837 L389 963 L497 837 Z M390 775 C182 775 43 619 43 384 C43 149 182 -8 390 -8 C598 -8 738 149 738 384 C738 619 598 775 390 775 L390 775 Z M390 51 C221 51 108 185 108 384 C108 583 221 716 390 716 C559 716 672 583 672 384 C672 185 559 51 390 51 L390 51 Z M390 -76 C363 -76 341 -98 341 -125 C341 -151 363 -173 390 -173 C416 -173 438 -151 438 -125 C438 -98 416 -76 390 -76 L390 -76 Z " />
<glyph glyph-name="uni1ED9" unicode="&#x1ed9;" horiz-adv-x="604" d="M409 612 L463 612 L328 767 L274 767 L140 612 L194 612 L301 738 L409 612 Z M301 550 C152 550 43 449 43 271 C43 93 152 -8 301 -8 C451 -8 559 93 559 271 C559 449 451 550 301 550 L301 550 Z M301 47 C186 47 105 126 105 271 C105 416 186 495 301 495 C417 495 498 416 498 271 C498 126 417 47 301 47 L301 47 Z M301 -76 C274 -76 252 -98 252 -125 C252 -151 274 -173 301 -173 C327 -173 349 -151 349 -125 C349 -98 327 -76 301 -76 L301 -76 Z " />
<glyph glyph-name="uni1EDA" unicode="&#x1eda;" horiz-adv-x="782" d="M484 992 L367 837 L412 837 L547 992 L484 992 Z M747 787 C747 706 725 663 649 659 C588 733 498 775 390 775 C182 775 43 619 43 384 C43 149 182 -8 390 -8 C598 -8 738 149 738 384 C738 476 717 555 678 618 C765 630 798 680 798 786 L798 847 L747 847 L747 787 Z M390 51 C221 51 108 185 108 384 C108 583 221 716 390 716 C559 716 672 583 672 384 C672 185 559 51 390 51 L390 51 Z " />
<glyph glyph-name="uni1EDB" unicode="&#x1edb;" horiz-adv-x="604" d="M395 767 L278 612 L323 612 L458 767 L395 767 Z M580 582 C580 509 562 467 504 457 C458 517 386 550 301 550 C152 550 43 449 43 271 C43 93 152 -8 301 -8 C451 -8 559 93 559 271 C559 327 548 376 529 416 C602 432 631 483 631 581 L631 642 L580 642 L580 582 Z M301 47 C186 47 105 126 105 271 C105 416 186 495 301 495 C417 495 498 416 498 271 C498 126 417 47 301 47 L301 47 Z " />
<glyph glyph-name="uni1EDC" unicode="&#x1edc;" horiz-adv-x="782" d="M298 992 L236 992 L367 837 L413 837 L298 992 Z M747 787 C747 706 725 663 649 659 C588 733 498 775 390 775 C182 775 43 619 43 384 C43 149 182 -8 390 -8 C598 -8 738 149 738 384 C738 476 717 555 678 618 C765 630 798 680 798 786 L798 847 L747 847 L747 787 Z M390 51 C221 51 108 185 108 384 C108 583 221 716 390 716 C559 716 672 583 672 384 C672 185 559 51 390 51 L390 51 Z " />
<glyph glyph-name="uni1EDD" unicode="&#x1edd;" horiz-adv-x="604" d="M209 767 L147 767 L278 612 L324 612 L209 767 Z M580 582 C580 509 562 467 504 457 C458 517 386 550 301 550 C152 550 43 449 43 271 C43 93 152 -8 301 -8 C451 -8 559 93 559 271 C559 327 548 376 529 416 C602 432 631 483 631 581 L631 642 L580 642 L580 582 Z M301 47 C186 47 105 126 105 271 C105 416 186 495 301 495 C417 495 498 416 498 271 C498 126 417 47 301 47 L301 47 Z " />
<glyph glyph-name="uni1EDE" unicode="&#x1ede;" horiz-adv-x="782" d="M438 937 C453 926 459 911 459 892 C459 839 415 834 382 828 L385 802 C435 809 498 819 498 894 C498 927 483 950 459 966 C437 983 406 992 366 992 L347 992 L347 956 L366 956 C398 956 421 950 438 937 L438 937 Z M747 787 C747 706 725 663 649 659 C588 733 498 775 390 775 C182 775 43 619 43 384 C43 149 182 -8 390 -8 C598 -8 738 149 738 384 C738 476 717 555 678 618 C765 630 798 680 798 786 L798 847 L747 847 L747 787 Z M390 51 C221 51 108 185 108 384 C108 583 221 716 390 716 C559 716 672 583 672 384 C672 185 559 51 390 51 L390 51 Z " />
<glyph glyph-name="uni1EDF" unicode="&#x1edf;" horiz-adv-x="604" d="M349 712 C364 701 370 686 370 667 C370 614 326 609 293 603 L296 577 C346 584 409 594 409 669 C409 702 394 725 370 741 C348 758 317 767 277 767 L258 767 L258 731 L277 731 C309 731 332 725 349 712 L349 712 Z M580 582 C580 509 562 467 504 457 C458 517 386 550 301 550 C152 550 43 449 43 271 C43 93 152 -8 301 -8 C451 -8 559 93 559 271 C559 327 548 376 529 416 C602 432 631 483 631 581 L631 642 L580 642 L580 582 Z M301 47 C186 47 105 126 105 271 C105 416 186 495 301 495 C417 495 498 416 498 271 C498 126 417 47 301 47 L301 47 Z " />
<glyph glyph-name="uni1EE0" unicode="&#x1ee0;" horiz-adv-x="782" d="M314 958 C379 959 376 858 468 858 C524 858 561 910 561 992 L524 992 C524 933 501 896 468 896 C402 896 401 997 316 996 C256 997 218 949 218 868 L254 868 C254 925 277 959 314 958 L314 958 Z M747 787 C747 706 725 663 649 659 C588 733 498 775 390 775 C182 775 43 619 43 384 C43 149 182 -8 390 -8 C598 -8 738 149 738 384 C738 476 717 555 678 618 C765 630 798 680 798 786 L798 847 L747 847 L747 787 Z M390 51 C221 51 108 185 108 384 C108 583 221 716 390 716 C559 716 672 583 672 384 C672 185 559 51 390 51 L390 51 Z " />
<glyph glyph-name="uni1EE1" unicode="&#x1ee1;" horiz-adv-x="604" d="M225 733 C290 734 287 633 379 633 C435 633 472 685 472 767 L435 767 C435 708 412 671 379 671 C313 671 312 772 227 771 C167 772 129 724 129 643 L165 643 C165 700 188 734 225 733 L225 733 Z M580 582 C580 509 562 467 504 457 C458 517 386 550 301 550 C152 550 43 449 43 271 C43 93 152 -8 301 -8 C451 -8 559 93 559 271 C559 327 548 376 529 416 C602 432 631 483 631 581 L631 642 L580 642 L580 582 Z M301 47 C186 47 105 126 105 271 C105 416 186 495 301 495 C417 495 498 416 498 271 C498 126 417 47 301 47 L301 47 Z " />
<glyph glyph-name="uni1EE2" unicode="&#x1ee2;" horiz-adv-x="782" d="M747 787 C747 706 725 663 649 659 C588 733 498 775 390 775 C182 775 43 619 43 384 C43 149 182 -8 390 -8 C598 -8 738 149 738 384 C738 476 717 555 678 618 C765 630 798 680 798 786 L798 847 L747 847 L747 787 Z M390 51 C221 51 108 185 108 384 C108 583 221 716 390 716 C559 716 672 583 672 384 C672 185 559 51 390 51 L390 51 Z M390 -76 C363 -76 341 -98 341 -125 C341 -151 363 -173 390 -173 C416 -173 438 -151 438 -125 C438 -98 416 -76 390 -76 L390 -76 Z " />
<glyph glyph-name="uni1EE3" unicode="&#x1ee3;" horiz-adv-x="604" d="M580 582 C580 509 562 467 504 457 C458 517 386 550 301 550 C152 550 43 449 43 271 C43 93 152 -8 301 -8 C451 -8 559 93 559 271 C559 327 548 376 529 416 C602 432 631 483 631 581 L631 642 L580 642 L580 582 Z M301 47 C186 47 105 126 105 271 C105 416 186 495 301 495 C417 495 498 416 498 271 C498 126 417 47 301 47 L301 47 Z M301 -76 C274 -76 252 -98 252 -125 C252 -151 274 -173 301 -173 C327 -173 349 -151 349 -125 C349 -98 327 -76 301 -76 L301 -76 Z " />
<glyph glyph-name="uni1EE4" unicode="&#x1ee4;" horiz-adv-x="675" d="M337 -8 C520 -8 609 79 609 253 L609 767 L544 767 L544 257 C544 123 484 51 337 51 C192 51 130 120 130 257 L130 767 L65 767 L65 253 C65 82 151 -8 337 -8 L337 -8 Z M337 -173 C363 -173 385 -151 385 -125 C385 -98 363 -76 337 -76 C310 -76 288 -98 288 -125 C288 -151 310 -173 337 -173 L337 -173 Z " />
<glyph glyph-name="uni1EE5" unicode="&#x1ee5;" horiz-adv-x="549" d="M253 -8 C329 -8 385 28 416 79 L422 79 L422 0 L484 0 L484 542 L422 542 L422 245 C422 204 419 166 408 140 C388 83 338 49 271 49 C157 49 120 117 120 241 L120 542 L58 542 L58 227 C58 76 118 -8 253 -8 L253 -8 Z M270 -173 C296 -173 318 -151 318 -125 C318 -98 296 -76 270 -76 C243 -76 221 -98 221 -125 C221 -151 243 -173 270 -173 L270 -173 Z " />
<glyph glyph-name="uni1EE6" unicode="&#x1ee6;" horiz-adv-x="675" d="M332 802 C382 809 445 819 445 894 C445 927 430 950 406 966 C384 983 353 992 313 992 L294 992 L294 956 L313 956 C345 956 368 950 385 937 C400 926 406 911 406 892 C406 839 362 834 329 828 L332 802 Z M337 -8 C520 -8 609 79 609 253 L609 767 L544 767 L544 257 C544 123 484 51 337 51 C192 51 130 120 130 257 L130 767 L65 767 L65 253 C65 82 151 -8 337 -8 L337 -8 Z " />
<glyph glyph-name="uni1EE7" unicode="&#x1ee7;" horiz-adv-x="549" d="M265 577 C315 584 378 594 378 669 C378 702 363 725 339 741 C317 758 286 767 246 767 L227 767 L227 731 L246 731 C278 731 301 725 318 712 C333 701 339 686 339 667 C339 614 295 609 262 603 L265 577 Z M253 -8 C329 -8 385 28 416 79 L422 79 L422 0 L484 0 L484 542 L422 542 L422 245 C422 204 419 166 408 140 C388 83 338 49 271 49 C157 49 120 117 120 241 L120 542 L58 542 L58 227 C58 76 118 -8 253 -8 L253 -8 Z " />
<glyph glyph-name="uni1EE8" unicode="&#x1ee8;" horiz-adv-x="675" d="M431 992 L314 837 L359 837 L494 992 L431 992 Z M699 798 C699 720 679 677 609 671 L609 767 L544 767 L544 257 C544 123 484 51 337 51 C192 51 130 120 130 257 L130 767 L65 767 L65 253 C65 82 151 -8 337 -8 C520 -8 609 79 609 253 L609 628 C711 633 750 683 750 797 L750 858 L699 858 L699 798 Z " />
<glyph glyph-name="uni1EE9" unicode="&#x1ee9;" horiz-adv-x="549" d="M365 767 L248 612 L293 612 L428 767 L365 767 Z M570 670 C570 585 546 542 460 542 L422 542 L422 245 C422 204 419 166 408 140 C388 83 338 49 271 49 C157 49 120 117 120 241 L120 542 L58 542 L58 227 C58 76 118 -8 253 -8 C329 -8 385 28 416 79 L422 79 L422 0 L484 0 L484 500 C583 506 621 557 621 669 L621 730 L570 730 L570 670 Z " />
<glyph glyph-name="uni1EEA" unicode="&#x1eea;" horiz-adv-x="675" d="M245 992 L183 992 L314 837 L360 837 L245 992 Z M699 798 C699 720 679 677 609 671 L609 767 L544 767 L544 257 C544 123 484 51 337 51 C192 51 130 120 130 257 L130 767 L65 767 L65 253 C65 82 151 -8 337 -8 C520 -8 609 79 609 253 L609 628 C711 633 750 683 750 797 L750 858 L699 858 L699 798 Z " />
<glyph glyph-name="uni1EEB" unicode="&#x1eeb;" horiz-adv-x="549" d="M178 767 L116 767 L247 612 L293 612 L178 767 Z M570 670 C570 585 546 542 460 542 L422 542 L422 245 C422 204 419 166 408 140 C388 83 338 49 271 49 C157 49 120 117 120 241 L120 542 L58 542 L58 227 C58 76 118 -8 253 -8 C329 -8 385 28 416 79 L422 79 L422 0 L484 0 L484 500 C583 506 621 557 621 669 L621 730 L570 730 L570 670 Z " />
<glyph glyph-name="uni1EEC" unicode="&#x1eec;" horiz-adv-x="675" d="M385 937 C400 926 406 911 406 892 C406 839 362 834 329 828 L332 802 C382 809 445 819 445 894 C445 927 430 950 406 966 C384 983 353 992 313 992 L294 992 L294 956 L313 956 C345 956 368 950 385 937 L385 937 Z M699 798 C699 720 679 677 609 671 L609 767 L544 767 L544 257 C544 123 484 51 337 51 C192 51 130 120 130 257 L130 767 L65 767 L65 253 C65 82 151 -8 337 -8 C520 -8 609 79 609 253 L609 628 C711 633 750 683 750 797 L750 858 L699 858 L699 798 Z " />
<glyph glyph-name="uni1EED" unicode="&#x1eed;" horiz-adv-x="549" d="M318 712 C333 701 339 686 339 667 C339 614 295 609 262 603 L265 577 C315 584 378 594 378 669 C378 702 363 725 339 741 C317 758 286 767 246 767 L227 767 L227 731 L246 731 C278 731 301 725 318 712 L318 712 Z M570 670 C570 585 546 542 460 542 L422 542 L422 245 C422 204 419 166 408 140 C388 83 338 49 271 49 C157 49 120 117 120 241 L120 542 L58 542 L58 227 C58 76 118 -8 253 -8 C329 -8 385 28 416 79 L422 79 L422 0 L484 0 L484 500 C583 506 621 557 621 669 L621 730 L570 730 L570 670 Z " />
<glyph glyph-name="uni1EEE" unicode="&#x1eee;" horiz-adv-x="675" d="M261 958 C326 959 323 858 415 858 C471 858 508 910 508 992 L471 992 C471 933 448 896 415 896 C349 896 348 997 263 996 C203 997 165 949 165 868 L201 868 C201 925 224 959 261 958 L261 958 Z M699 798 C699 720 679 677 609 671 L609 767 L544 767 L544 257 C544 123 484 51 337 51 C192 51 130 120 130 257 L130 767 L65 767 L65 253 C65 82 151 -8 337 -8 C520 -8 609 79 609 253 L609 628 C711 633 750 683 750 797 L750 858 L699 858 L699 798 Z " />
<glyph glyph-name="uni1EEF" unicode="&#x1eef;" horiz-adv-x="549" d="M195 733 C260 734 257 633 349 633 C405 633 442 685 442 767 L405 767 C405 708 382 671 349 671 C283 671 282 772 197 771 C137 772 99 724 99 643 L135 643 C135 700 158 734 195 733 L195 733 Z M570 670 C570 585 546 542 460 542 L422 542 L422 245 C422 204 419 166 408 140 C388 83 338 49 271 49 C157 49 120 117 120 241 L120 542 L58 542 L58 227 C58 76 118 -8 253 -8 C329 -8 385 28 416 79 L422 79 L422 0 L484 0 L484 500 C583 506 621 557 621 669 L621 730 L570 730 L570 670 Z " />
<glyph glyph-name="uni1EF0" unicode="&#x1ef0;" horiz-adv-x="675" d="M699 798 C699 720 679 677 609 671 L609 767 L544 767 L544 257 C544 123 484 51 337 51 C192 51 130 120 130 257 L130 767 L65 767 L65 253 C65 82 151 -8 337 -8 C520 -8 609 79 609 253 L609 628 C711 633 750 683 750 797 L750 858 L699 858 L699 798 Z M337 -76 C310 -76 288 -98 288 -125 C288 -151 310 -173 337 -173 C363 -173 385 -151 385 -125 C385 -98 363 -76 337 -76 L337 -76 Z " />
<glyph glyph-name="uni1EF1" unicode="&#x1ef1;" horiz-adv-x="549" d="M570 670 C570 585 546 542 460 542 L422 542 L422 245 C422 204 419 166 408 140 C388 83 338 49 271 49 C157 49 120 117 120 241 L120 542 L58 542 L58 227 C58 76 118 -8 253 -8 C329 -8 385 28 416 79 L422 79 L422 0 L484 0 L484 500 C583 506 621 557 621 669 L621 730 L570 730 L570 670 Z M270 -76 C243 -76 221 -98 221 -125 C221 -151 243 -173 270 -173 C296 -173 318 -151 318 -125 C318 -98 296 -76 270 -76 L270 -76 Z " />
<glyph glyph-name="Ygrave" unicode="&#x1ef2;" horiz-adv-x="651" d="M348 837 L233 992 L171 992 L302 837 L348 837 Z M358 0 L358 287 L642 754 L642 767 L574 767 L328 358 L322 358 L76 767 L8 767 L8 754 L292 287 L292 0 L358 0 Z " />
<glyph glyph-name="ygrave" unicode="&#x1ef3;" horiz-adv-x="548" d="M181 767 L119 767 L250 612 L296 612 L181 767 Z M279 54 L269 54 L84 542 L18 542 L224 0 L258 0 L214 -113 C200 -149 173 -167 134 -167 L49 -167 L49 -224 L148 -224 C204 -224 245 -196 266 -144 L323 0 L529 542 L463 542 L279 54 Z " />
<glyph glyph-name="uni1EF4" unicode="&#x1ef4;" horiz-adv-x="651" d="M358 0 L358 287 L642 754 L642 767 L574 767 L328 358 L322 358 L76 767 L8 767 L8 754 L292 287 L292 0 L358 0 Z M325 -173 C351 -173 373 -151 373 -125 C373 -98 351 -76 325 -76 C298 -76 276 -98 276 -125 C276 -151 298 -173 325 -173 L325 -173 Z " />
<glyph glyph-name="uni1EF5" unicode="&#x1ef5;" horiz-adv-x="548" d="M279 54 L269 54 L84 542 L18 542 L224 0 L258 0 L214 -113 C200 -149 173 -167 134 -167 L49 -167 L49 -224 L148 -224 C204 -224 245 -196 266 -144 L323 0 L529 542 L463 542 L279 54 Z M439 -76 C412 -76 390 -98 390 -125 C390 -151 412 -173 439 -173 C465 -173 487 -151 487 -125 C487 -98 465 -76 439 -76 L439 -76 Z " />
<glyph glyph-name="uni1EF6" unicode="&#x1ef6;" horiz-adv-x="651" d="M320 802 C370 809 433 819 433 894 C433 927 418 950 394 966 C372 983 341 992 301 992 L282 992 L282 956 L301 956 C333 956 356 950 373 937 C388 926 394 911 394 892 C394 839 350 834 317 828 L320 802 Z M358 0 L358 287 L642 754 L642 767 L574 767 L328 358 L322 358 L76 767 L8 767 L8 754 L292 287 L292 0 L358 0 Z " />
<glyph glyph-name="uni1EF7" unicode="&#x1ef7;" horiz-adv-x="548" d="M321 712 C336 701 342 686 342 667 C342 614 298 609 265 603 L268 577 C318 584 381 594 381 669 C381 702 366 725 342 741 C320 758 289 767 249 767 L230 767 L230 731 L249 731 C281 731 304 725 321 712 L321 712 Z M279 54 L269 54 L84 542 L18 542 L224 0 L258 0 L214 -113 C200 -149 173 -167 134 -167 L49 -167 L49 -224 L148 -224 C204 -224 245 -196 266 -144 L323 0 L529 542 L463 542 L279 54 Z " />
<glyph glyph-name="uni1EF8" unicode="&#x1ef8;" horiz-adv-x="651" d="M403 858 C459 858 496 910 496 992 L459 992 C459 933 436 896 403 896 C337 896 336 997 251 996 C191 997 153 949 153 868 L189 868 C189 925 212 959 249 958 C314 959 311 858 403 858 L403 858 Z M358 0 L358 287 L642 754 L642 767 L574 767 L328 358 L322 358 L76 767 L8 767 L8 754 L292 287 L292 0 L358 0 Z " />
<glyph glyph-name="uni1EF9" unicode="&#x1ef9;" horiz-adv-x="548" d="M198 733 C263 734 260 633 352 633 C408 633 445 685 445 767 L408 767 C408 708 385 671 352 671 C286 671 285 772 200 771 C140 772 102 724 102 643 L138 643 C138 700 161 734 198 733 L198 733 Z M279 54 L269 54 L84 542 L18 542 L224 0 L258 0 L214 -113 C200 -149 173 -167 134 -167 L49 -167 L49 -224 L148 -224 C204 -224 245 -196 266 -144 L323 0 L529 542 L463 542 L279 54 Z " />
<glyph glyph-name="endash" unicode="&#x2013;" horiz-adv-x="500" d="M500 248 L500 294 L0 294 L0 248 L500 248 Z " />
<glyph glyph-name="emdash" unicode="&#x2014;" horiz-adv-x="1000" d="M1000 248 L1000 294 L0 294 L0 248 L1000 248 Z " />
<glyph glyph-name="uni2015" unicode="&#x2015;" horiz-adv-x="500" d="M500 248 L500 294 L0 294 L0 248 L500 248 Z " />
<glyph glyph-name="quoteleft" unicode="&#x2018;" horiz-adv-x="219" d="M102 623 L100 623 L155 758 L155 767 L119 767 L60 615 C53 598 49 584 49 570 C49 542 71 519 102 519 C135 519 157 542 157 570 C157 600 135 623 102 623 L102 623 Z " />
<glyph glyph-name="quoteright" unicode="&#x2019;" horiz-adv-x="219" d="M118 775 C84 775 62 752 62 723 C62 694 84 670 117 670 L119 670 L65 535 L65 526 L101 526 L159 678 C166 696 170 709 170 724 C170 752 148 775 118 775 L118 775 Z " />
<glyph glyph-name="quotesinglbase" unicode="&#x201a;" horiz-adv-x="247" d="M131 98 C98 98 76 75 76 47 C76 17 97 -6 131 -6 L133 -6 L78 -142 L78 -150 L114 -150 L173 2 C180 19 184 33 184 47 C184 75 162 98 131 98 L131 98 Z " />
<glyph glyph-name="quotedblleft" unicode="&#x201c;" horiz-adv-x="370" d="M102 623 L100 623 L155 758 L155 767 L119 767 L60 615 C53 598 49 584 49 570 C49 542 71 519 102 519 C135 519 157 542 157 570 C157 600 135 623 102 623 L102 623 Z M253 623 L250 623 L305 758 L305 767 L269 767 L210 615 C204 598 200 584 200 570 C200 542 222 519 252 519 C286 519 308 542 308 570 C308 600 286 623 253 623 L253 623 Z " />
<glyph glyph-name="quotedblright" unicode="&#x201d;" horiz-adv-x="370" d="M118 775 C84 775 62 752 62 723 C62 694 84 670 117 670 L119 670 L65 535 L65 526 L101 526 L159 678 C166 696 170 709 170 724 C170 752 148 775 118 775 L118 775 Z M268 775 C235 775 213 752 213 723 C213 694 235 670 268 670 L270 670 L215 535 L215 526 L251 526 L310 678 C317 696 321 709 321 724 C321 752 299 775 268 775 L268 775 Z " />
<glyph glyph-name="quotedblbase" unicode="&#x201e;" horiz-adv-x="397" d="M131 98 C98 98 76 75 76 47 C76 17 97 -6 131 -6 L133 -6 L78 -142 L78 -150 L114 -150 L173 2 C180 19 184 33 184 47 C184 75 162 98 131 98 L131 98 Z M282 98 C248 98 226 75 226 47 C226 17 248 -6 281 -6 L283 -6 L229 -142 L229 -150 L265 -150 L323 2 C330 19 334 33 334 47 C334 75 312 98 282 98 L282 98 Z " />
<glyph glyph-name="dagger" unicode="&#x2020;" horiz-adv-x="441" d="M247 -111 L247 491 L386 491 L386 544 L247 544 L247 767 L195 767 L195 544 L55 544 L55 491 L195 491 L195 -111 L247 -111 Z " />
<glyph glyph-name="daggerdbl" unicode="&#x2021;" horiz-adv-x="476" d="M265 -111 L265 111 L403 111 L403 164 L265 164 L265 491 L403 491 L403 544 L265 544 L265 767 L212 767 L212 544 L73 544 L73 491 L212 491 L212 164 L73 164 L73 111 L212 111 L212 -111 L265 -111 Z " />
<glyph glyph-name="bullet" unicode="&#x2022;" horiz-adv-x="412" d="M205 109 C295 109 368 182 368 272 C368 362 295 434 205 434 C116 434 43 362 43 272 C43 182 116 109 205 109 L205 109 Z " />
<glyph glyph-name="ellipsis" unicode="&#x2026;" horiz-adv-x="728" d="M129 -8 C158 -8 183 16 183 46 C183 75 158 98 129 98 C98 98 74 75 74 46 C74 16 98 -8 129 -8 L129 -8 Z M364 -8 C394 -8 418 16 418 46 C418 75 393 98 364 98 C334 98 310 75 310 46 C310 16 334 -8 364 -8 L364 -8 Z M600 -8 C629 -8 653 16 653 46 C653 75 629 98 600 98 C569 98 545 75 545 46 C545 16 569 -8 600 -8 L600 -8 Z " />
<glyph glyph-name="perthousand" unicode="&#x2030;" horiz-adv-x="1152" d="M213 431 C293 431 351 502 351 602 C351 702 292 774 210 774 C114 774 71 685 71 602 C71 520 115 431 213 431 L213 431 Z M218 0 L642 767 L599 767 L175 0 L218 0 Z M213 472 C140 472 112 541 112 602 C112 664 140 733 210 733 C276 733 310 671 310 602 C310 526 270 472 213 472 L213 472 Z M609 -8 C690 -8 747 64 747 164 C747 263 688 336 606 336 C510 336 467 246 467 164 C467 81 511 -8 609 -8 L609 -8 Z M944 -8 C1025 -8 1082 64 1082 164 C1082 263 1024 336 941 336 C846 336 802 246 802 164 C802 81 846 -8 944 -8 L944 -8 Z M609 34 C536 34 508 102 508 164 C508 226 536 295 606 295 C672 295 706 233 706 164 C706 87 666 34 609 34 L609 34 Z M944 34 C872 34 843 102 843 164 C843 226 871 295 941 295 C1007 295 1041 233 1041 164 C1041 87 1001 34 944 34 L944 34 Z " />
<glyph glyph-name="uni2031" unicode="&#x2031;" horiz-adv-x="1487" d="M213 431 C293 431 351 502 351 602 C351 702 292 774 210 774 C114 774 71 685 71 602 C71 520 115 431 213 431 L213 431 Z M218 0 L642 767 L599 767 L175 0 L218 0 Z M213 472 C140 472 112 541 112 602 C112 664 140 733 210 733 C276 733 310 671 310 602 C310 526 270 472 213 472 L213 472 Z M609 -8 C690 -8 747 64 747 164 C747 263 688 336 606 336 C510 336 467 246 467 164 C467 81 511 -8 609 -8 L609 -8 Z M944 -8 C1025 -8 1082 64 1082 164 C1082 263 1024 336 941 336 C846 336 802 246 802 164 C802 81 846 -8 944 -8 L944 -8 Z M1280 -8 C1360 -8 1418 64 1418 164 C1418 263 1359 336 1277 336 C1182 336 1138 246 1138 164 C1138 81 1182 -8 1280 -8 L1280 -8 Z M609 34 C536 34 508 102 508 164 C508 226 536 295 606 295 C672 295 706 233 706 164 C706 87 666 34 609 34 L609 34 Z M944 34 C872 34 843 102 843 164 C843 226 871 295 941 295 C1007 295 1041 233 1041 164 C1041 87 1001 34 944 34 L944 34 Z M1280 34 C1207 34 1179 102 1179 164 C1179 226 1207 295 1277 295 C1343 295 1377 233 1377 164 C1377 87 1337 34 1280 34 L1280 34 Z " />
<glyph glyph-name="guilsinglleft" unicode="&#x2039;" horiz-adv-x="329" d="M265 141 L116 272 L265 402 L265 454 L55 272 L265 88 L265 141 Z " />
<glyph glyph-name="guilsinglright" unicode="&#x203a;" horiz-adv-x="329" d="M274 272 L64 454 L64 402 L213 272 L64 141 L64 88 L274 272 Z " />
<glyph glyph-name="fraction" unicode="&#x2044;" horiz-adv-x="148" d="M-118 0 L307 767 L266 767 L-158 0 L-118 0 Z " />
<glyph glyph-name="uni2074" unicode="&#x2074;" horiz-adv-x="415" d="M305 307 L305 414 L377 414 L377 449 L305 449 L305 767 L256 767 L38 453 L38 414 L266 414 L266 307 L305 307 Z M75 452 L263 720 L266 720 L266 449 L75 449 L75 452 Z " />
<glyph glyph-name="Euro" unicode="&#x20ac;" horiz-adv-x="793" d="M680 121 C633 74 567 46 484 46 C333 46 241 139 210 274 L453 274 L480 319 L202 319 C199 340 198 361 198 383 C198 408 200 433 203 456 L565 456 L592 502 L212 502 C245 632 337 721 484 721 C567 721 633 692 680 644 L710 695 C654 745 578 774 484 774 C300 774 187 663 151 502 L83 502 L83 456 L143 456 C141 432 139 408 139 383 C139 361 140 340 142 319 L83 319 L83 274 L149 274 C183 108 297 -8 484 -8 C583 -8 661 25 719 79 L680 121 Z " />
<glyph glyph-name="uni20B1" unicode="&#x20b1;" horiz-adv-x="664" d="M579 569 C575 635 548 688 505 720 C462 753 397 767 301 767 L116 767 L116 569 L51 569 L51 541 L116 541 L116 0 L181 0 L181 338 L301 338 C397 338 462 352 505 385 C549 418 576 472 579 541 L642 541 L642 569 L579 569 Z M292 708 C378 708 428 699 465 669 C492 647 510 615 513 569 L181 569 L181 708 L292 708 Z M465 436 C429 406 377 397 292 397 L181 397 L181 541 L514 541 C511 493 494 459 465 436 L465 436 Z " />
<glyph glyph-name="uni20B8" unicode="&#x20b8;" horiz-adv-x="775" d="M691 716 L691 766 L84 766 L84 716 L691 716 Z M417 0 L417 549 L691 549 L691 599 L84 599 L84 549 L358 549 L358 0 L417 0 Z " />
<glyph glyph-name="trademark" unicode="&#x2122;" horiz-adv-x="797" d="M185 363 L185 732 L302 732 L302 767 L27 767 L27 732 L144 732 L144 363 L185 363 Z M428 363 L428 724 L554 403 L581 403 L704 719 L704 363 L745 363 L745 767 L683 767 L567 459 L451 767 L387 767 L387 363 L428 363 Z " />
<glyph glyph-name="uni2126" unicode="&#x2126;" horiz-adv-x="879" d="M367 0 L367 85 C247 128 170 241 170 397 C170 558 273 682 440 682 C604 682 709 561 709 397 C709 231 632 118 512 86 L512 0 L800 0 L800 48 L574 48 L574 73 C688 126 760 246 760 398 C760 585 632 731 440 731 C250 731 119 589 119 399 C119 259 193 139 309 75 L308 49 L78 49 L78 0 L367 0 Z " />
<glyph glyph-name="arrowleft" unicode="&#x2190;" horiz-adv-x="895" d="M293 294 L293 446 L-5 271 L293 96 L293 248 L895 248 L895 294 L293 294 Z " />
<glyph glyph-name="arrowright" unicode="&#x2192;" horiz-adv-x="895" d="M602 446 L602 294 L0 294 L0 248 L602 248 L602 96 L901 271 L602 446 Z " />
<glyph glyph-name="partialdiff" unicode="&#x2202;" horiz-adv-x="722" d="M314 -6 C527 -6 627 186 627 403 C627 635 545 774 367 774 C255 774 178 721 142 631 L191 616 C222 696 290 729 366 729 C495 729 563 636 568 464 L562 464 C529 526 464 555 380 555 C212 555 82 425 82 236 C82 93 172 -6 314 -6 L314 -6 Z M317 45 C212 45 135 117 135 237 C135 388 232 507 387 507 C552 507 571 369 560 271 C540 152 461 45 317 45 L317 45 Z " />
<glyph glyph-name="uni2206" unicode="&#x2206;" horiz-adv-x="730" d="M673 0 L364 789 L56 0 L673 0 Z M364 666 L602 49 L128 49 L364 666 Z " />
<glyph glyph-name="product" unicode="&#x220f;" horiz-adv-x="708" d="M198 0 L198 718 L510 718 L510 0 L560 0 L560 718 L620 718 L620 767 L88 767 L88 718 L148 718 L148 0 L198 0 Z " />
<glyph glyph-name="summation" unicode="&#x2211;" horiz-adv-x="704" d="M69 767 L69 721 L381 383 L69 46 L69 0 L633 0 L633 55 L151 55 L459 383 L150 712 L633 712 L633 767 L69 767 Z " />
<glyph glyph-name="minus" unicode="&#x2212;" horiz-adv-x="426" d="M400 248 L400 294 L26 294 L26 248 L400 248 Z " />
<glyph glyph-name="radical" unicode="&#x221a;" horiz-adv-x="678" d="M623 767 L570 767 L282 68 L170 354 L55 354 L55 305 L135 305 L279 -59 L623 767 Z " />
<glyph glyph-name="infinity" unicode="&#x221e;" horiz-adv-x="1100" d="M302 193 C395 193 481 261 546 355 C617 261 703 193 797 193 C917 193 1002 281 1002 395 C1002 509 917 597 797 597 C703 597 618 530 546 436 C481 530 396 597 302 597 C182 597 97 509 97 395 C97 281 182 193 302 193 L302 193 Z M309 242 C218 242 149 307 149 395 C149 483 218 549 309 549 C379 549 454 499 519 395 C455 293 379 242 309 242 L309 242 Z M791 242 C711 242 636 305 572 395 C636 485 711 549 791 549 C881 549 950 483 950 395 C950 307 881 242 791 242 L791 242 Z " />
<glyph glyph-name="integral" unicode="&#x222b;" horiz-adv-x="540" d="M49 -260 C198 -260 277 -191 277 -47 L277 611 C277 682 322 728 379 728 C406 728 435 717 462 695 L493 733 C459 763 418 777 379 777 C294 777 227 707 227 613 L227 -46 C227 -164 177 -211 49 -211 L49 -260 Z " />
<glyph glyph-name="approxequal" unicode="&#x2248;" horiz-adv-x="491" d="M341 298 C416 298 464 366 464 465 L419 465 C419 390 388 339 341 339 C260 339 263 477 148 477 C74 477 26 417 26 322 L71 322 C71 393 99 437 148 437 C234 437 230 298 341 298 L341 298 Z M341 65 C416 65 464 132 464 232 L419 232 C419 157 388 106 341 106 C260 106 263 244 148 244 C74 244 26 183 26 89 L71 89 C71 160 99 203 148 203 C234 203 230 65 341 65 L341 65 Z " />
<glyph glyph-name="notequal" unicode="&#x2260;" horiz-adv-x="491" d="M465 395 L336 395 L417 542 L374 542 L293 395 L26 395 L26 349 L268 349 L181 193 L26 193 L26 147 L156 147 L75 0 L117 0 L198 147 L465 147 L465 193 L224 193 L310 349 L465 349 L465 395 Z " />
<glyph glyph-name="lessequal" unicode="&#x2264;" horiz-adv-x="442" d="M26 397 L26 346 L416 227 L416 276 L90 371 L416 467 L416 516 L26 397 Z M416 147 L416 193 L26 193 L26 147 L416 147 Z " />
<glyph glyph-name="greaterequal" unicode="&#x2265;" horiz-adv-x="442" d="M26 467 L352 371 L26 276 L26 227 L416 346 L416 397 L26 516 L26 467 Z M416 147 L416 193 L26 193 L26 147 L416 147 Z " />
<glyph glyph-name="lozenge" unicode="&#x25ca;" horiz-adv-x="619" d="M353 0 L556 383 L353 767 L265 767 L63 383 L265 0 L353 0 Z M121 383 L301 734 L318 734 L498 383 L318 33 L301 33 L121 383 Z " />
<glyph glyph-name="uniF8FF" unicode="&#xf8ff;" horiz-adv-x="1004" d="M502 -33 C734 -33 922 154 922 387 C922 619 734 807 502 807 C270 807 82 619 82 387 C82 154 270 -33 502 -33 L502 -33 Z M502 6 C291 6 121 176 121 387 C121 598 291 768 502 768 C713 768 883 598 883 387 C883 176 713 6 502 6 L502 6 Z M283 222 C294 222 303 230 303 241 L303 532 C303 543 294 552 283 552 C273 552 264 543 264 532 L264 241 C264 230 273 222 283 222 L283 222 Z M502 222 C513 222 521 230 521 241 L521 532 C521 543 513 552 502 552 C491 552 483 543 483 532 L483 241 C483 230 491 222 502 222 L502 222 Z M720 222 C730 222 740 231 740 241 C740 246 739 250 734 254 L602 387 L734 519 C739 523 740 528 740 532 C740 542 730 552 720 552 C715 552 711 550 708 546 L561 400 C558 397 557 392 557 387 C557 382 558 378 561 373 L708 228 C711 223 715 222 720 222 L720 222 Z M429 368 C440 368 449 376 449 387 C449 398 440 406 429 406 L357 406 C345 406 338 398 338 387 C338 376 345 368 357 368 L429 368 Z " />
<glyph glyph-name="fi" unicode="&#xfb01;" horiz-adv-x="496" d="M400 778 C373 778 351 756 351 730 C351 703 373 681 400 681 C426 681 448 703 448 730 C448 756 426 778 400 778 L400 778 Z M173 660 C173 689 194 710 223 710 L289 710 L289 767 L218 767 C152 767 111 726 111 660 L111 542 L21 542 L21 485 L111 485 L111 0 L173 0 L173 485 L369 485 L369 0 L431 0 L431 542 L173 542 L173 660 Z " />
<glyph glyph-name="fl" unicode="&#xfb02;" horiz-adv-x="563" d="M480 57 C451 57 429 78 429 107 L429 767 L218 767 C152 767 111 726 111 660 L111 542 L21 542 L21 486 L111 486 L111 0 L173 0 L173 486 L289 486 L289 542 L173 542 L173 660 C173 689 194 710 223 710 L367 710 L367 107 C367 41 408 0 475 0 L536 0 L536 57 L480 57 Z " />
</font>
</svg>
