<?xml version="1.0" encoding="UTF-8"?>
<svg xmlns="http://www.w3.org/2000/svg" xmlns:xlink="http://www.w3.org/1999/xlink" version="1.2" >
<font id="HK Guise Medium">
<font-face  font-family="HK Guise" units-per-em="1000" ascent="767" descent="-233" font-style="normal" font-weight="500" font-stretch="normal" cap-height="767" x-height="542" underline-position="-101" underline-thickness="65" />
<missing-glyph  horiz-adv-x="547" d="M497 0 L497 520 L50 520 L50 0 L497 0 Z M91 477 L455 477 L455 42 L91 42 L91 477 Z " />
<glyph glyph-name="NULL" d="" />
<glyph glyph-name="CR" unicode="&#xd;" horiz-adv-x="250" d="" />
<glyph glyph-name="space" unicode="&#x20;" horiz-adv-x="280" d="" />
<glyph glyph-name="exclam" unicode="&#x21;" horiz-adv-x="283" d="M195 209 L195 767 L87 767 L87 209 L195 209 Z M141 -10 C183 -10 216 24 216 65 C216 103 182 136 141 136 C99 136 66 103 66 65 C66 24 99 -10 141 -10 L141 -10 Z " />
<glyph glyph-name="quotedbl" unicode="&#x22;" horiz-adv-x="345" d="M123 439 L123 767 L42 767 L42 439 L123 439 Z M302 439 L302 767 L221 767 L221 439 L302 439 Z " />
<glyph glyph-name="numbersign" unicode="&#x23;" horiz-adv-x="732" d="M198 0 L246 229 L416 229 L368 0 L443 0 L491 229 L648 229 L648 298 L505 298 L545 482 L693 482 L693 550 L560 550 L607 767 L532 767 L486 550 L316 550 L363 767 L287 767 L238 553 L85 553 L85 482 L224 482 L186 298 L40 298 L40 229 L171 229 L123 0 L198 0 Z M300 482 L470 482 L432 298 L262 298 L300 482 Z " />
<glyph glyph-name="dollar" unicode="&#x24;" horiz-adv-x="681" d="M641 223 C641 339 570 398 461 429 L375 453 L375 682 C456 669 504 622 512 542 L623 542 C616 684 508 761 375 775 L375 856 L332 856 L332 777 L331 777 C188 777 68 709 68 575 C68 433 193 394 265 374 L332 355 L332 84 C208 92 141 161 141 280 L34 280 C34 99 165 0 332 -9 L332 -98 L375 -98 L375 -10 C536 -4 641 83 641 223 L641 223 Z M303 473 C238 491 176 509 176 579 C176 648 235 685 329 685 L332 685 L332 465 L303 473 Z M375 343 L394 338 C467 317 534 298 534 213 C534 131 474 87 375 83 L375 343 Z " />
<glyph glyph-name="percent" unicode="&#x25;" horiz-adv-x="759" d="M189 427 C274 427 335 501 335 601 C335 701 272 776 186 776 C92 776 39 694 39 602 C39 509 93 427 189 427 L189 427 Z M192 0 L635 767 L567 767 L123 0 L192 0 Z M189 492 C131 492 104 544 104 602 C104 659 130 711 186 711 C239 711 270 662 270 601 C270 537 236 492 189 492 L189 492 Z M573 -9 C658 -9 719 65 719 165 C719 265 657 339 570 339 C476 339 423 258 423 165 C423 72 477 -9 573 -9 L573 -9 Z M573 56 C516 56 488 107 488 165 C488 223 514 274 570 274 C624 274 654 226 654 165 C654 100 621 56 573 56 L573 56 Z " />
<glyph glyph-name="ampersand" unicode="&#x26;" horiz-adv-x="733" d="M286 -10 C383 -10 465 16 528 71 L588 0 L699 0 L699 10 L584 141 C623 203 645 287 648 392 L556 392 C553 328 544 269 529 217 L516 217 L364 393 C450 443 526 500 526 596 C526 697 447 775 333 775 C221 775 130 706 130 598 C130 522 187 454 222 418 L222 404 C128 354 42 293 42 179 C42 56 146 -10 286 -10 L286 -10 Z M309 452 C275 489 221 541 221 597 C221 656 264 694 333 694 C402 694 439 649 439 595 C439 528 378 490 309 452 L309 452 Z M288 70 C202 70 137 106 137 184 C137 258 208 303 289 347 L469 137 C422 94 360 70 288 70 L288 70 Z " />
<glyph glyph-name="quotesingle" unicode="&#x27;" horiz-adv-x="166" d="M123 439 L123 767 L42 767 L42 439 L123 439 Z " />
<glyph glyph-name="parenleft" unicode="&#x28;" horiz-adv-x="243" d="M249 -47 C157 70 111 207 111 381 C111 541 153 692 250 812 L163 812 C82 718 35 564 35 383 C35 234 83 43 164 -47 L249 -47 Z " />
<glyph glyph-name="parenright" unicode="&#x29;" horiz-adv-x="243" d="M79 -47 C160 43 208 234 208 383 C208 564 161 718 80 812 L-7 812 C90 692 132 541 132 381 C132 207 86 70 -6 -47 L79 -47 Z " />
<glyph glyph-name="asterisk" unicode="&#x2a;" horiz-adv-x="404" d="M201 563 L273 445 L328 485 L236 589 L371 619 L350 685 L223 631 L236 767 L167 767 L180 631 L53 685 L32 619 L167 589 L76 485 L130 445 L201 563 Z " />
<glyph glyph-name="plus" unicode="&#x2b;" horiz-adv-x="556" d="M315 15 L315 235 L535 235 L535 307 L315 307 L315 527 L242 527 L242 307 L22 307 L22 235 L242 235 L242 15 L315 15 Z " />
<glyph glyph-name="comma" unicode="&#x2c;" horiz-adv-x="265" d="M139 136 C93 136 63 104 63 65 C63 26 91 -7 134 -9 L74 -143 L74 -157 L130 -157 L198 6 C207 25 213 44 213 65 C213 104 182 136 139 136 L139 136 Z " />
<glyph glyph-name="hyphen" unicode="&#x2d;" horiz-adv-x="416" d="M360 235 L360 307 L58 307 L58 235 L360 235 Z " />
<glyph glyph-name="period" unicode="&#x2e;" horiz-adv-x="278" d="M140 -10 C181 -10 214 24 214 65 C214 103 181 136 140 136 C97 136 64 103 64 65 C64 24 97 -10 140 -10 L140 -10 Z " />
<glyph glyph-name="slash" unicode="&#x2f;" horiz-adv-x="444" d="M28 -232 L423 767 L334 767 L-62 -232 L28 -232 Z " />
<glyph glyph-name="zero" unicode="0" horiz-adv-x="595" d="M297 -10 C508 -10 535 159 535 246 L535 521 C535 608 508 777 297 777 C87 777 60 608 60 521 L60 246 C60 159 87 -10 297 -10 L297 -10 Z M297 87 C173 87 168 193 168 246 L168 521 C168 574 173 680 297 680 C421 680 427 574 427 521 L427 246 C427 193 421 87 297 87 L297 87 Z " />
<glyph glyph-name="one" unicode="1" horiz-adv-x="394" d="M222 708 C222 663 203 649 158 649 L32 649 L32 552 L219 552 L219 0 L326 0 L326 767 L222 767 L222 708 Z " />
<glyph glyph-name="two" unicode="2" horiz-adv-x="561" d="M413 360 C475 425 505 487 505 562 C505 674 416 777 277 777 C150 777 47 675 48 549 L156 549 C156 622 203 680 277 680 C352 680 398 622 398 562 C398 520 387 485 337 432 L47 120 L47 0 L520 0 L520 96 L169 96 L413 360 Z " />
<glyph glyph-name="three" unicode="3" horiz-adv-x="642" d="M318 -10 C467 -10 593 73 593 221 C593 321 527 388 427 411 L427 416 C503 444 551 494 551 574 C551 698 441 777 315 777 C185 777 80 694 80 559 L187 559 C191 635 238 680 318 680 C396 680 444 636 444 564 C444 467 363 443 292 443 L258 443 L258 363 L305 363 C384 363 485 344 485 230 C485 138 426 87 319 87 C211 87 152 139 151 235 L43 235 C42 75 164 -10 318 -10 L318 -10 Z " />
<glyph glyph-name="four" unicode="4" horiz-adv-x="647" d="M498 0 L498 173 L612 173 L612 270 L498 270 L498 767 L369 767 L35 278 L35 173 L390 173 L390 0 L498 0 Z M138 276 L383 633 L390 633 L390 270 L138 270 L138 276 Z " />
<glyph glyph-name="five" unicode="5" horiz-adv-x="637" d="M339 514 C286 514 237 501 196 470 L228 671 L550 671 L550 767 L137 767 L65 332 L171 332 C201 386 256 418 320 418 C414 418 481 350 481 256 C481 158 411 87 316 87 C238 87 176 135 156 211 L48 211 C67 83 167 -10 317 -10 C477 -10 588 100 588 253 C588 416 469 514 339 514 L339 514 Z " />
<glyph glyph-name="six" unicode="6" horiz-adv-x="625" d="M312 514 C301 514 291 513 280 511 L427 746 L427 767 L312 767 L98 421 C61 362 43 302 43 246 C43 99 151 -10 313 -10 C472 -10 582 96 582 252 C582 407 468 514 312 514 L312 514 Z M312 87 C219 87 150 150 150 252 C150 347 220 416 312 416 C405 416 475 353 475 253 C475 151 405 87 312 87 L312 87 Z " />
<glyph glyph-name="seven" unicode="7" horiz-adv-x="571" d="M195 0 L540 671 L540 767 L29 767 L29 671 L419 671 L419 663 L85 21 L85 0 L195 0 Z " />
<glyph glyph-name="eight" unicode="8" horiz-adv-x="640" d="M320 -10 C463 -10 590 72 590 225 C590 315 542 378 466 412 L466 418 C516 449 550 507 550 574 C550 699 442 777 321 777 C205 777 91 703 91 577 C91 507 125 450 174 418 L174 412 C98 378 50 316 50 225 C50 72 177 -10 320 -10 L320 -10 Z M321 455 C246 455 197 500 197 567 C197 637 249 681 321 681 C397 681 444 634 444 564 C444 500 395 455 321 455 L321 455 Z M320 87 C229 87 157 139 157 226 C157 311 223 368 320 368 C416 368 483 311 483 226 C483 139 411 87 320 87 L320 87 Z " />
<glyph glyph-name="nine" unicode="9" horiz-adv-x="613" d="M300 777 C141 777 31 671 31 515 C31 360 146 253 301 253 C312 253 322 254 333 256 L186 21 L186 0 L301 0 L515 346 C552 405 571 465 571 521 C571 668 462 777 300 777 L300 777 Z M301 351 C208 351 139 414 139 514 C139 616 208 680 301 680 C394 680 463 617 463 515 C463 420 393 351 301 351 L301 351 Z " />
<glyph glyph-name="colon" unicode="&#x3a;" horiz-adv-x="278" d="M140 383 C181 383 214 416 214 457 C214 496 181 529 140 529 C97 529 64 496 64 457 C64 416 97 383 140 383 L140 383 Z M140 -10 C181 -10 214 24 214 65 C214 103 181 136 140 136 C97 136 64 103 64 65 C64 24 97 -10 140 -10 L140 -10 Z " />
<glyph glyph-name="semicolon" unicode="&#x3b;" horiz-adv-x="281" d="M142 383 C183 383 216 416 216 457 C216 496 183 529 142 529 C99 529 66 496 66 457 C66 416 99 383 142 383 L142 383 Z M143 136 C97 136 67 104 67 65 C67 26 94 -7 138 -9 L77 -143 L77 -157 L133 -157 L202 6 C211 25 216 44 216 65 C216 104 186 136 143 136 L143 136 Z " />
<glyph glyph-name="less" unicode="&#x3c;" horiz-adv-x="386" d="M364 135 L98 271 L364 408 L364 491 L22 312 L22 231 L364 51 L364 135 Z " />
<glyph glyph-name="equal" unicode="&#x3d;" horiz-adv-x="512" d="M491 344 L491 417 L22 417 L22 344 L491 344 Z M491 125 L491 198 L22 198 L22 125 L491 125 Z " />
<glyph glyph-name="greater" unicode="&#x3e;" horiz-adv-x="386" d="M364 231 L364 312 L22 491 L22 408 L288 271 L22 135 L22 51 L364 231 Z " />
<glyph glyph-name="question" unicode="&#x3f;" horiz-adv-x="391" d="M191 209 L191 290 C191 449 379 404 379 581 C379 646 351 696 305 728 C268 753 222 767 147 767 L33 767 L33 671 L135 671 C183 671 218 663 240 647 C261 631 272 610 272 578 C272 451 83 498 83 290 L83 209 L191 209 Z M137 -10 C178 -10 211 24 211 65 C211 103 178 136 137 136 C94 136 61 103 61 65 C61 24 94 -10 137 -10 L137 -10 Z " />
<glyph glyph-name="at" unicode="&#x40;" horiz-adv-x="1057" d="M524 -191 C581 -191 631 -183 687 -164 L666 -103 C618 -121 574 -128 524 -128 C288 -128 116 32 116 281 C116 529 283 716 535 716 C779 716 942 543 942 302 C942 150 877 24 766 24 C709 24 692 65 696 130 C700 218 736 374 773 545 L707 545 L691 475 L686 475 C670 538 625 573 552 573 C383 573 272 394 272 230 C272 97 345 25 450 25 C532 25 592 71 631 134 L637 134 C636 109 637 88 639 68 C647 1 688 -38 759 -38 C917 -38 1007 116 1007 302 C1007 580 809 779 534 779 C250 779 50 564 50 281 C50 -3 253 -191 524 -191 L524 -191 Z M450 91 C381 91 339 132 339 228 C339 361 420 508 554 508 C622 508 664 468 664 375 C664 245 584 91 450 91 L450 91 Z " />
<glyph glyph-name="A" unicode="A" horiz-adv-x="706" d="M280 767 L11 21 L11 0 L119 0 L179 173 L527 173 L587 0 L694 0 L694 21 L426 767 L280 767 Z M347 655 L358 655 L493 270 L213 270 L347 655 Z " />
<glyph glyph-name="B" unicode="B" horiz-adv-x="633" d="M290 0 C409 0 476 15 522 54 C572 96 592 159 592 221 C592 315 547 381 465 405 L465 414 C515 439 562 493 562 576 C562 638 541 684 502 716 C444 762 372 767 281 767 L66 767 L66 0 L290 0 Z M173 671 L275 671 C349 671 392 666 420 642 C442 624 454 596 454 559 C454 521 442 494 423 476 C397 452 355 447 321 447 L173 447 L173 671 Z M173 350 L325 350 C381 350 419 345 451 321 C473 302 485 272 485 230 C485 184 470 153 445 132 C408 101 343 96 288 96 L173 96 L173 350 Z " />
<glyph glyph-name="C" unicode="C" horiz-adv-x="773" d="M396 -10 C578 -10 709 102 739 280 L628 280 C603 160 515 87 396 87 C245 87 145 206 145 384 C145 562 245 680 396 680 C515 680 603 607 628 487 L739 487 C709 665 578 777 396 777 C181 777 38 620 38 384 C38 148 181 -10 396 -10 L396 -10 Z " />
<glyph glyph-name="D" unicode="D" horiz-adv-x="751" d="M301 0 C420 0 523 28 597 90 C669 151 713 247 713 382 C713 517 670 612 599 674 C526 738 422 767 302 767 L65 767 L65 0 L301 0 Z M173 671 L300 671 C392 671 475 650 532 594 C578 548 606 478 606 382 C606 286 577 217 530 171 C473 117 390 96 300 96 L173 96 L173 671 Z " />
<glyph glyph-name="E" unicode="E" horiz-adv-x="603" d="M572 0 L572 96 L173 96 L173 347 L515 347 L515 443 L173 443 L173 671 L550 671 L550 767 L66 767 L66 0 L572 0 Z " />
<glyph glyph-name="F" unicode="F" horiz-adv-x="572" d="M173 0 L173 347 L515 347 L515 443 L173 443 L173 671 L550 671 L550 767 L66 767 L66 0 L173 0 Z " />
<glyph glyph-name="G" unicode="G" horiz-adv-x="795" d="M434 311 L642 311 C635 174 538 87 403 87 C245 87 145 206 145 384 C145 562 245 680 396 680 C515 680 603 607 628 487 L739 487 C709 665 578 777 396 777 C181 777 38 620 38 384 C38 148 181 -10 396 -10 C499 -10 574 21 627 83 L635 83 L635 0 L742 0 L742 407 L434 407 L434 311 Z " />
<glyph glyph-name="H" unicode="H" horiz-adv-x="722" d="M173 0 L173 347 L549 347 L549 0 L656 0 L656 767 L549 767 L549 443 L173 443 L173 767 L66 767 L66 0 L173 0 Z " />
<glyph glyph-name="I" unicode="I" horiz-adv-x="239" d="M173 0 L173 767 L66 767 L66 0 L173 0 Z " />
<glyph glyph-name="J" unicode="J" horiz-adv-x="579" d="M268 -10 C356 -10 422 16 464 63 C513 119 518 193 518 258 L518 767 L147 767 L147 671 L411 671 L411 273 C411 217 405 167 378 132 C355 104 317 86 268 86 C219 86 181 104 159 132 C135 163 126 205 126 258 L18 258 C18 193 23 119 73 63 C115 16 181 -10 268 -10 L268 -10 Z " />
<glyph glyph-name="K" unicode="K" horiz-adv-x="696" d="M665 746 L665 767 L534 767 L183 406 L173 406 L173 767 L66 767 L66 0 L173 0 L173 246 L323 398 L331 398 L569 0 L683 0 L683 21 L407 483 L665 746 Z " />
<glyph glyph-name="L" unicode="L" horiz-adv-x="518" d="M512 0 L512 96 L173 96 L173 767 L66 767 L66 0 L512 0 Z " />
<glyph glyph-name="M" unicode="M" horiz-adv-x="923" d="M173 0 L173 671 L184 671 L379 0 L543 0 L738 671 L748 671 L748 0 L856 0 L856 767 L662 767 L466 95 L456 95 L260 767 L66 767 L66 0 L173 0 Z " />
<glyph glyph-name="N" unicode="N" horiz-adv-x="762" d="M173 0 L173 671 L184 671 L508 0 L695 0 L695 767 L588 767 L588 95 L577 95 L253 767 L66 767 L66 0 L173 0 Z " />
<glyph glyph-name="O" unicode="O" horiz-adv-x="793" d="M396 -10 C611 -10 755 148 755 384 C755 620 611 777 396 777 C181 777 38 620 38 384 C38 148 181 -10 396 -10 L396 -10 Z M396 87 C245 87 145 206 145 384 C145 562 245 680 396 680 C547 680 647 562 647 384 C647 206 547 87 396 87 L396 87 Z " />
<glyph glyph-name="P" unicode="P" horiz-adv-x="584" d="M173 0 L173 326 L290 326 C374 326 436 337 479 369 C530 405 558 466 558 547 C558 627 530 688 479 724 C436 756 374 767 290 767 L66 767 L66 0 L173 0 Z M173 671 L273 671 C341 671 383 666 414 641 C434 625 451 597 451 547 C451 498 435 470 414 452 C383 427 341 422 273 422 L173 422 L173 671 Z " />
<glyph glyph-name="Q" unicode="Q" horiz-adv-x="797" d="M674 120 C726 187 755 278 755 384 C755 620 611 777 396 777 C181 777 38 620 38 384 C38 148 181 -10 396 -10 C478 -10 550 13 608 55 L653 0 L756 0 L756 21 L674 120 Z M396 87 C245 87 145 206 145 384 C145 562 245 680 396 680 C547 680 647 562 647 384 C647 314 632 253 604 205 L523 303 L420 303 L420 282 L542 134 C502 104 453 87 396 87 L396 87 Z " />
<glyph glyph-name="R" unicode="R" horiz-adv-x="629" d="M410 338 C437 345 460 355 479 369 C530 405 558 466 558 547 C558 627 530 688 479 724 C436 756 374 767 290 767 L66 767 L66 0 L173 0 L173 326 L290 326 L291 326 L493 0 L607 0 L607 22 L410 335 L410 338 Z M273 671 C341 671 383 666 414 641 C434 625 451 597 451 547 C451 498 435 470 414 452 C383 427 341 422 273 422 L173 422 L173 671 L273 671 Z " />
<glyph glyph-name="S" unicode="S" horiz-adv-x="681" d="M359 -10 C529 -10 641 78 641 223 C641 339 570 398 461 429 L303 473 C238 491 176 509 176 579 C176 648 235 685 329 685 C438 685 503 636 512 542 L623 542 C615 699 483 777 331 777 C188 777 68 709 68 575 C68 433 193 394 265 374 L394 338 C467 317 534 298 534 213 C534 127 468 83 359 83 C218 83 141 153 141 280 L34 280 C34 89 179 -10 359 -10 L359 -10 Z " />
<glyph glyph-name="T" unicode="T" horiz-adv-x="626" d="M367 0 L367 671 L619 671 L619 767 L6 767 L6 671 L259 671 L259 0 L367 0 Z " />
<glyph glyph-name="U" unicode="U" horiz-adv-x="688" d="M344 -10 C540 -10 628 83 628 254 L628 767 L520 767 L520 261 C520 156 479 87 344 87 C210 87 167 152 167 261 L167 767 L59 767 L59 254 C59 86 144 -10 344 -10 L344 -10 Z " />
<glyph glyph-name="V" unicode="V" horiz-adv-x="705" d="M425 0 L694 746 L694 767 L586 767 L357 119 L347 119 L118 767 L11 767 L11 746 L279 0 L425 0 Z " />
<glyph glyph-name="W" unicode="W" horiz-adv-x="1151" d="M441 0 L571 680 L579 680 L709 0 L871 0 L1139 746 L1139 767 L1032 767 L803 119 L793 119 L667 767 L483 767 L357 119 L347 119 L118 767 L11 767 L11 746 L279 0 L441 0 Z " />
<glyph glyph-name="X" unicode="X" horiz-adv-x="683" d="M132 0 L337 301 L345 301 L550 0 L666 0 L666 21 L415 384 L664 746 L664 767 L548 767 L345 469 L336 469 L134 767 L19 767 L19 746 L267 384 L16 21 L16 0 L132 0 Z " />
<glyph glyph-name="Y" unicode="Y" horiz-adv-x="675" d="M391 0 L391 286 L669 746 L669 767 L556 767 L341 405 L333 405 L118 767 L5 767 L5 746 L283 286 L283 0 L391 0 Z " />
<glyph glyph-name="Z" unicode="Z" horiz-adv-x="649" d="M622 0 L622 96 L136 96 L136 106 L610 616 L610 767 L46 767 L46 671 L501 671 L501 660 L28 151 L28 0 L622 0 Z " />
<glyph glyph-name="bracketleft" unicode="&#x5b;" horiz-adv-x="289" d="M291 -76 L291 -11 L154 -11 L154 777 L291 777 L291 840 L76 840 L76 -76 L291 -76 Z " />
<glyph glyph-name="backslash" unicode="&#x5c;" horiz-adv-x="444" d="M505 -232 L109 767 L20 767 L416 -232 L505 -232 Z " />
<glyph glyph-name="bracketright" unicode="&#x5d;" horiz-adv-x="289" d="M213 -76 L213 840 L-2 840 L-2 777 L135 777 L135 -11 L-2 -11 L-2 -76 L213 -76 Z " />
<glyph glyph-name="asciicircum" unicode="&#x5e;" horiz-adv-x="639" d="M149 240 L319 619 L491 240 L592 240 L319 801 L47 240 L149 240 Z " />
<glyph glyph-name="underscore" unicode="&#x5f;" horiz-adv-x="672" d="M614 -73 L614 0 L58 0 L58 -73 L614 -73 Z " />
<glyph glyph-name="grave" unicode="&#x60;" horiz-adv-x="222" d="M215 611 L100 767 L-1 767 L142 611 L215 611 Z " />
<glyph glyph-name="a" unicode="a" horiz-adv-x="548" d="M473 455 C441 522 367 551 276 551 C131 551 63 479 55 381 L158 381 C163 431 199 471 274 471 C355 471 392 427 392 360 L392 325 L244 325 C125 325 40 278 40 160 C40 54 115 -9 228 -9 C296 -9 346 17 383 70 L392 70 L392 0 L493 0 L493 328 C493 366 492 415 473 455 L473 455 Z M241 75 C180 75 142 107 142 161 C142 230 190 249 257 249 L392 249 C389 146 348 75 241 75 L241 75 Z " />
<glyph glyph-name="b" unicode="b" horiz-adv-x="611" d="M331 -10 C475 -10 572 99 572 271 C572 443 475 552 331 552 C262 552 202 526 167 474 L160 474 L160 767 L59 767 L59 0 L160 0 L160 68 L167 68 C202 16 262 -10 331 -10 L331 -10 Z M312 78 C215 78 153 147 153 271 C153 395 215 464 312 464 C408 464 470 394 470 271 C470 148 408 78 312 78 L312 78 Z " />
<glyph glyph-name="c" unicode="c" horiz-adv-x="587" d="M304 -10 C431 -10 528 59 554 181 L448 181 C430 114 377 78 304 78 C205 78 140 146 140 271 C140 395 205 464 304 464 C377 464 430 428 448 361 L554 361 C528 482 431 552 304 552 C149 552 38 448 38 271 C38 93 149 -10 304 -10 L304 -10 Z " />
<glyph glyph-name="d" unicode="d" horiz-adv-x="610" d="M279 -10 C349 -10 408 16 443 68 L450 68 L450 0 L552 0 L552 767 L450 767 L450 474 L443 474 C408 526 349 552 279 552 C136 552 38 443 38 271 C38 99 136 -10 279 -10 L279 -10 Z M299 78 C202 78 140 148 140 271 C140 394 202 464 299 464 C395 464 458 395 458 271 C458 147 395 78 299 78 L299 78 Z " />
<glyph glyph-name="e" unicode="e" horiz-adv-x="606" d="M570 276 C568 447 459 552 304 552 C149 552 38 448 38 271 C38 94 149 -10 304 -10 C423 -10 518 54 555 163 L445 163 C420 110 369 78 304 78 C211 78 148 141 141 249 L570 249 L570 276 Z M304 464 C387 464 447 414 464 325 L145 325 C161 414 221 464 304 464 L304 464 Z " />
<glyph glyph-name="f" unicode="f" horiz-adv-x="334" d="M318 674 L318 767 L243 767 C157 767 108 718 108 632 L108 542 L20 542 L20 449 L108 449 L108 0 L210 0 L210 449 L318 449 L318 542 L210 542 L210 632 C210 656 228 674 252 674 L318 674 Z " />
<glyph glyph-name="g" unicode="g" horiz-adv-x="610" d="M442 -225 C513 -225 552 -185 552 -116 L552 542 L450 542 L450 474 L443 474 C408 526 349 552 279 552 C136 552 38 443 38 271 C38 99 136 -10 279 -10 C349 -10 408 16 443 68 L450 68 L450 -88 C450 -119 433 -137 401 -137 L200 -137 C168 -137 152 -119 152 -88 L152 -43 L50 -43 L50 -116 C50 -186 89 -225 159 -225 L442 -225 Z M299 78 C202 78 140 148 140 271 C140 394 202 464 299 464 C395 464 458 395 458 271 C458 147 395 78 299 78 L299 78 Z " />
<glyph glyph-name="h" unicode="h" horiz-adv-x="573" d="M161 0 L161 290 C161 334 165 369 177 393 C196 434 235 460 289 460 C383 460 418 401 418 297 L418 0 L520 0 L520 321 C520 469 449 552 321 552 C253 552 200 523 169 483 L161 483 L161 767 L59 767 L59 0 L161 0 Z " />
<glyph glyph-name="i" unicode="i" horiz-adv-x="219" d="M109 648 C144 648 173 677 173 714 C173 749 144 778 109 778 C72 778 44 749 44 714 C44 677 72 648 109 648 L109 648 Z M160 0 L160 542 L58 542 L58 0 L160 0 Z " />
<glyph glyph-name="j" unicode="j" horiz-adv-x="229" d="M118 648 C153 648 182 677 182 714 C182 749 153 778 118 778 C81 778 53 749 53 714 C53 677 81 648 118 648 L118 648 Z M34 -225 C120 -225 169 -176 169 -90 L169 542 L67 542 L67 -90 C67 -114 49 -132 25 -132 L-25 -132 L-25 -225 L34 -225 Z " />
<glyph glyph-name="k" unicode="k" horiz-adv-x="567" d="M510 515 L510 542 L398 542 L166 298 L161 298 L161 767 L59 767 L59 0 L161 0 L161 160 L271 272 L276 272 L442 0 L548 0 L548 21 L344 347 L510 515 Z " />
<glyph glyph-name="l" unicode="l" horiz-adv-x="274" d="M250 0 L250 93 L199 93 C175 93 157 111 157 135 L157 767 L55 767 L55 135 C55 49 104 0 190 0 L250 0 Z " />
<glyph glyph-name="m" unicode="m" horiz-adv-x="896" d="M161 0 L161 314 C161 356 167 382 179 403 C198 439 234 460 282 460 C365 460 400 406 400 314 L400 0 L502 0 L502 314 C502 347 506 374 515 395 C535 438 574 460 623 460 C704 460 741 406 741 326 L741 0 L843 0 L843 334 C843 459 788 552 648 552 C576 552 522 524 482 460 L472 460 C446 519 395 552 318 552 C248 552 199 524 170 484 L161 484 L161 542 L59 542 L59 0 L161 0 Z " />
<glyph glyph-name="n" unicode="n" horiz-adv-x="573" d="M161 0 L161 290 C161 334 165 369 177 393 C196 434 235 460 289 460 C383 460 418 401 418 297 L418 0 L520 0 L520 321 C520 469 449 552 321 552 C253 552 200 523 169 483 L161 483 L161 542 L59 542 L59 0 L161 0 Z " />
<glyph glyph-name="o" unicode="o" horiz-adv-x="609" d="M304 -10 C458 -10 570 94 570 271 C570 448 458 552 304 552 C149 552 38 448 38 271 C38 94 149 -10 304 -10 L304 -10 Z M304 78 C205 78 140 149 140 271 C140 393 205 464 304 464 C403 464 469 393 469 271 C469 149 403 78 304 78 L304 78 Z " />
<glyph glyph-name="p" unicode="p" horiz-adv-x="611" d="M331 552 C262 552 202 526 167 474 L160 474 L160 542 L59 542 L59 -225 L160 -225 L160 68 L167 68 C202 16 262 -10 331 -10 C475 -10 572 99 572 271 C572 443 475 552 331 552 L331 552 Z M312 464 C408 464 470 394 470 271 C470 148 408 78 312 78 C215 78 153 147 153 271 C153 395 215 464 312 464 L312 464 Z " />
<glyph glyph-name="q" unicode="q" horiz-adv-x="611" d="M280 552 C136 552 39 443 39 271 C39 99 136 -10 280 -10 C349 -10 409 16 444 68 L451 68 L451 -225 L552 -225 L552 542 L451 542 L451 474 L444 474 C409 526 349 552 280 552 L280 552 Z M299 464 C396 464 458 395 458 271 C458 147 396 78 299 78 C203 78 141 148 141 271 C141 394 203 464 299 464 L299 464 Z " />
<glyph glyph-name="r" unicode="r" horiz-adv-x="366" d="M161 0 L161 365 C161 418 191 449 244 449 L349 449 L349 542 L261 542 C218 542 190 527 171 497 L161 497 L161 542 L59 542 L59 0 L161 0 Z " />
<glyph glyph-name="s" unicode="s" horiz-adv-x="532" d="M274 -10 C404 -10 493 54 493 163 C493 249 436 298 337 319 L261 336 C193 351 156 359 156 402 C156 448 201 471 258 471 C321 471 372 444 379 381 L481 381 C471 485 386 552 258 552 C147 552 55 500 55 396 C55 286 158 258 211 246 L310 225 C346 217 391 206 391 152 C391 96 346 71 276 71 C197 71 146 101 137 181 L35 181 C39 56 136 -10 274 -10 L274 -10 Z " />
<glyph glyph-name="t" unicode="t" horiz-adv-x="348" d="M317 542 L209 542 L209 767 L108 767 L108 542 L19 542 L19 449 L108 449 L108 135 C108 49 156 0 242 0 L317 0 L317 93 L251 93 C227 93 209 111 209 135 L209 449 L317 449 L317 542 Z " />
<glyph glyph-name="u" unicode="u" horiz-adv-x="573" d="M251 -10 C321 -10 372 20 403 59 L411 59 L411 0 L513 0 L513 542 L411 542 L411 252 C411 209 408 175 394 149 C375 106 335 82 282 82 C189 82 154 141 154 245 L154 542 L52 542 L52 221 C52 73 123 -10 251 -10 L251 -10 Z " />
<glyph glyph-name="v" unicode="v" horiz-adv-x="575" d="M366 0 L559 542 L450 542 L292 88 L282 88 L123 542 L15 542 L208 0 L366 0 Z " />
<glyph glyph-name="w" unicode="w" horiz-adv-x="921" d="M368 0 L455 449 L466 449 L553 0 L713 0 L905 542 L797 542 L639 89 L628 89 L541 542 L379 542 L292 89 L281 89 L123 542 L15 542 L209 0 L368 0 Z " />
<glyph glyph-name="x" unicode="x" horiz-adv-x="559" d="M140 0 L274 192 L284 192 L417 0 L541 0 L348 273 L541 542 L417 542 L284 353 L274 353 L141 542 L17 542 L209 273 L17 0 L140 0 Z " />
<glyph glyph-name="y" unicode="y" horiz-adv-x="575" d="M292 88 L282 88 L123 542 L15 542 L208 0 L262 0 L230 -85 C219 -113 194 -131 162 -131 L61 -131 L61 -224 L186 -224 C245 -224 292 -192 313 -136 L366 0 L559 542 L450 542 L292 88 Z " />
<glyph glyph-name="z" unicode="z" horiz-adv-x="522" d="M486 0 L486 93 L148 93 L148 101 L480 402 L480 542 L49 542 L49 449 L366 449 L366 440 L35 139 L35 0 L486 0 Z " />
<glyph glyph-name="braceleft" unicode="&#x7b;" horiz-adv-x="271" d="M265 -78 L265 -16 L226 -16 C180 -16 160 17 160 66 L160 247 C160 308 132 337 88 357 L88 365 C133 382 160 413 160 480 L160 671 C160 721 178 752 229 752 L266 752 L266 814 L198 814 C120 814 79 763 79 672 L79 482 C79 420 47 405 11 394 L11 328 C46 316 79 300 79 245 L79 64 C79 -22 118 -78 194 -78 L265 -78 Z " />
<glyph glyph-name="bar" unicode="&#x7c;" horiz-adv-x="337" d="M204 -278 L204 832 L133 832 L133 -278 L204 -278 Z " />
<glyph glyph-name="braceright" unicode="&#x7d;" horiz-adv-x="271" d="M76 -78 C152 -78 192 -22 192 64 L192 245 C192 300 225 316 260 328 L260 394 C224 405 192 420 192 482 L192 672 C192 763 151 814 73 814 L5 814 L5 752 L42 752 C93 752 111 721 111 671 L111 480 C111 413 138 382 183 365 L183 357 C139 337 111 308 111 247 L111 66 C111 17 91 -16 45 -16 L6 -16 L6 -78 L76 -78 Z " />
<glyph glyph-name="asciitilde" unicode="&#x7e;" horiz-adv-x="509" d="M350 173 C433 173 487 246 487 353 L415 353 C415 285 388 238 350 238 C275 238 282 369 157 369 C75 369 22 302 22 200 L94 200 C94 264 117 304 157 304 C237 304 229 173 350 173 L350 173 Z " />
<glyph glyph-name="uni00A0" unicode="&#xa0;" horiz-adv-x="306" d="" />
<glyph glyph-name="exclamdown" unicode="&#xa1;" horiz-adv-x="295" d="M154 552 C111 552 78 518 78 477 C78 439 111 406 154 406 C194 406 228 439 228 477 C228 518 195 552 154 552 L154 552 Z M99 -225 L207 -225 L207 333 L99 333 L99 -225 Z " />
<glyph glyph-name="cent" unicode="&#xa2;" horiz-adv-x="584" d="M322 467 C388 461 434 424 450 361 L551 361 C527 476 440 545 322 551 L322 642 L280 642 L280 551 C138 541 38 439 38 271 C38 102 138 1 280 -9 L280 -101 L322 -101 L322 -9 C440 -3 527 65 551 181 L450 181 C434 117 388 81 322 75 L322 467 Z M134 271 C134 388 191 457 280 467 L280 75 C191 85 134 154 134 271 L134 271 Z " />
<glyph glyph-name="sterling" unicode="&#xa3;" horiz-adv-x="621" d="M199 101 C226 132 276 180 276 261 C276 292 272 319 267 343 L449 343 L449 435 L237 435 C224 469 214 503 214 544 C214 638 265 685 345 685 C430 685 472 635 484 572 L580 572 C575 687 486 777 351 777 C213 777 122 685 122 553 C122 512 132 473 144 435 L50 435 L50 343 L173 343 C181 316 186 289 186 261 C186 180 130 131 47 96 L47 0 L560 0 L560 92 L199 92 L199 101 Z " />
<glyph glyph-name="currency" unicode="&#xa4;" horiz-adv-x="746" d="M221 142 C310 74 435 74 522 142 L579 85 L630 138 L574 193 C642 280 642 406 574 494 L630 548 L578 599 L522 545 C435 612 311 612 223 544 L167 600 L116 547 L171 493 C104 406 103 280 171 194 L115 138 L166 85 L221 142 Z M244 216 C175 285 176 400 245 469 C315 540 429 540 499 470 C570 400 569 287 499 216 C429 145 315 145 244 216 L244 216 Z " />
<glyph glyph-name="yen" unicode="&#xa5;" horiz-adv-x="675" d="M556 767 L341 405 L333 405 L118 767 L5 767 L5 746 L234 367 L106 367 L106 290 L281 290 L283 286 L283 196 L106 196 L106 119 L283 119 L283 0 L391 0 L391 119 L580 119 L580 196 L391 196 L391 286 L393 290 L580 290 L580 367 L440 367 L669 746 L669 767 L556 767 Z " />
<glyph glyph-name="brokenbar" unicode="&#xa6;" horiz-adv-x="262" d="M167 359 L167 832 L95 832 L95 359 L167 359 Z M167 -278 L167 193 L95 193 L95 -278 L167 -278 Z " />
<glyph glyph-name="section" unicode="&#xa7;" horiz-adv-x="664" d="M575 217 C575 466 187 408 187 582 C187 643 240 688 311 688 C393 688 457 643 457 542 L556 542 C554 703 442 776 311 776 C190 776 88 701 88 578 C88 535 100 501 120 474 C99 441 88 401 88 356 C88 107 476 165 476 -8 C476 -70 423 -115 351 -115 C270 -115 205 -70 205 32 L107 32 C109 -129 221 -202 351 -202 C473 -202 575 -128 575 -4 C575 40 563 73 543 100 C564 133 575 173 575 217 L575 217 Z M187 364 C187 381 190 397 196 412 C311 350 476 337 476 209 C476 192 473 176 467 161 C352 224 187 237 187 364 L187 364 Z " />
<glyph glyph-name="dieresis" unicode="&#xa8;" horiz-adv-x="416" d="M106 648 C141 648 170 677 170 714 C170 749 141 778 106 778 C69 778 41 749 41 714 C41 677 69 648 106 648 L106 648 Z M312 648 C346 648 376 677 376 714 C376 749 346 778 312 778 C275 778 246 749 246 714 C246 677 275 648 312 648 L312 648 Z " />
<glyph glyph-name="copyright" unicode="&#xa9;" horiz-adv-x="901" d="M450 -13 C673 -13 853 154 853 383 C853 612 673 779 450 779 C228 779 47 612 47 383 C47 154 228 -13 450 -13 L450 -13 Z M451 49 C261 49 108 188 108 383 C108 578 261 718 451 718 C640 718 793 578 793 383 C793 189 640 49 451 49 L451 49 Z M456 127 C579 127 661 202 678 316 L608 316 C593 239 538 189 456 189 C353 189 292 267 292 383 C292 500 352 578 456 578 C538 578 593 527 608 451 L678 451 C660 567 577 640 456 640 C313 640 222 536 222 383 C222 231 313 127 456 127 L456 127 Z " />
<glyph glyph-name="ordfeminine" unicode="&#xaa;" horiz-adv-x="335" d="M283 719 C264 760 218 777 165 777 C80 777 38 734 33 675 L93 675 C97 706 118 729 165 729 C213 729 236 703 236 662 L236 641 L146 641 C75 641 24 613 24 542 C24 479 69 441 136 441 C177 441 208 456 231 489 L236 489 L245 446 L295 446 L295 643 C295 668 294 697 283 719 L283 719 Z M145 490 C108 490 84 510 84 542 C84 583 111 596 154 596 L236 596 C235 532 209 490 145 490 L145 490 Z " />
<glyph glyph-name="guillemotleft" unicode="&#xab;" horiz-adv-x="560" d="M280 167 L157 271 L280 376 L280 459 L59 271 L280 83 L280 167 Z M496 167 L373 271 L496 376 L496 459 L275 271 L496 83 L496 167 Z " />
<glyph glyph-name="logicalnot" unicode="&#xac;" horiz-adv-x="543" d="M521 33 L521 307 L22 307 L22 235 L449 235 L449 33 L521 33 Z " />
<glyph glyph-name="uni00AD" unicode="&#xad;" horiz-adv-x="416" d="M360 235 L360 307 L58 307 L58 235 L360 235 Z " />
<glyph glyph-name="registered" unicode="&#xae;" horiz-adv-x="584" d="M292 266 C431 266 546 370 546 521 C546 672 432 777 292 777 C151 777 38 672 38 521 C38 370 152 266 292 266 L292 266 Z M292 307 C174 307 78 393 78 521 C78 650 174 736 292 736 C409 736 504 650 504 521 C504 393 409 307 292 307 L292 307 Z M249 373 L249 503 L280 503 L297 503 L372 373 L420 373 L339 508 C376 520 398 548 398 585 C398 637 358 671 297 671 L208 671 L208 373 L249 373 Z M249 632 L297 632 C334 632 356 615 356 584 C356 556 336 538 300 538 L249 538 L249 632 Z " />
<glyph glyph-name="macron" unicode="&#xaf;" horiz-adv-x="413" d="M356 646 L356 704 L57 704 L57 646 L356 646 Z " />
<glyph glyph-name="degree" unicode="&#xb0;" horiz-adv-x="499" d="M249 462 C336 462 406 532 406 619 C406 706 336 776 249 776 C163 776 92 706 92 619 C92 532 163 462 249 462 L249 462 Z M249 527 C198 527 157 568 157 619 C157 670 198 711 249 711 C301 711 342 670 342 619 C342 568 301 527 249 527 L249 527 Z " />
<glyph glyph-name="plusminus" unicode="&#xb1;" horiz-adv-x="556" d="M315 238 L315 344 L535 344 L535 417 L315 417 L315 522 L242 522 L242 417 L22 417 L22 344 L242 344 L242 238 L315 238 Z M535 125 L535 198 L22 198 L22 125 L535 125 Z " />
<glyph glyph-name="uni00B2" unicode="&#xb2;" horiz-adv-x="372" d="M267 523 C304 562 322 599 322 644 C322 712 269 773 185 773 C109 773 48 712 48 636 L113 636 C113 680 141 715 185 715 C231 715 258 680 258 644 C258 619 251 598 221 566 L47 379 L47 307 L331 307 L331 365 L120 365 L267 523 Z " />
<glyph glyph-name="uni00B3" unicode="&#xb3;" horiz-adv-x="422" d="M208 301 C298 301 373 351 373 439 C373 499 333 540 273 554 L273 556 C319 573 348 604 348 651 C348 726 282 773 206 773 C128 773 65 723 65 642 L130 642 C132 688 160 715 208 715 C255 715 283 689 283 646 C283 587 235 573 192 573 L172 573 L172 525 L200 525 C248 525 308 513 308 445 C308 390 273 359 209 359 C144 359 108 390 108 448 L43 448 C42 352 116 301 208 301 L208 301 Z " />
<glyph glyph-name="acute" unicode="&#xb4;" horiz-adv-x="225" d="M76 611 L227 767 L125 767 L4 611 L76 611 Z " />
<glyph glyph-name="uni00B5" unicode="&#xb5;" horiz-adv-x="695" d="M210 -185 L210 39 C234 8 273 -9 324 -9 C388 -9 453 20 490 81 L490 0 L584 0 L584 542 L490 542 L490 231 C490 129 435 79 350 79 C269 79 227 134 227 222 L227 542 L133 542 L133 -185 L210 -185 Z " />
<glyph glyph-name="paragraph" unicode="&#xb6;" horiz-adv-x="686" d="M366 -133 L366 767 L298 767 C172 767 53 688 53 552 C53 417 172 338 298 338 L298 -133 L366 -133 Z M553 -133 L553 767 L486 767 L486 -133 L553 -133 Z " />
<glyph glyph-name="periodcentered" unicode="&#xb7;" horiz-adv-x="226" d="M113 304 C155 304 188 338 188 379 C188 418 154 450 113 450 C71 450 38 418 38 379 C38 338 71 304 113 304 L113 304 Z " />
<glyph glyph-name="cedilla" unicode="&#xb8;" horiz-adv-x="241" d="M107 -233 C167 -233 211 -194 211 -142 C211 -105 190 -77 156 -64 C147 -61 138 -59 127 -58 L174 10 L130 20 L63 -91 C84 -91 105 -92 121 -98 C148 -105 162 -122 162 -142 C162 -166 143 -185 110 -185 C87 -185 59 -176 32 -152 L6 -195 C39 -222 75 -233 107 -233 L107 -233 Z " />
<glyph glyph-name="uni00B9" unicode="&#xb9;" horiz-adv-x="275" d="M146 732 C146 705 134 696 107 696 L31 696 L31 638 L144 638 L144 307 L208 307 L208 767 L146 767 L146 732 Z " />
<glyph glyph-name="ordmasculine" unicode="&#xba;" horiz-adv-x="360" d="M180 436 C272 436 340 498 340 604 C340 711 272 773 180 773 C88 773 21 711 21 604 C21 498 88 436 180 436 L180 436 Z M180 487 C120 487 80 530 80 604 C80 679 120 722 180 722 C240 722 280 679 280 604 C280 530 240 487 180 487 L180 487 Z " />
<glyph glyph-name="guillemotright" unicode="&#xbb;" horiz-adv-x="560" d="M285 271 L64 459 L64 376 L187 271 L64 167 L64 83 L285 271 Z M501 271 L280 459 L280 376 L403 271 L280 167 L280 83 L501 271 Z " />
<glyph glyph-name="onequarter" unicode="&#xbc;" horiz-adv-x="861" d="M237 307 L237 767 L174 767 L174 732 C174 705 163 696 136 696 L60 696 L60 638 L172 638 L172 307 L237 307 Z M171 0 L238 0 L682 767 L614 767 L171 0 Z M732 460 L655 460 L455 167 L455 104 L667 104 L667 0 L732 0 L732 104 L800 104 L800 162 L732 162 L732 460 Z M516 162 L516 165 L663 380 L667 380 L667 162 L516 162 Z " />
<glyph glyph-name="onehalf" unicode="&#xbd;" horiz-adv-x="846" d="M237 307 L237 767 L174 767 L174 732 C174 705 163 696 136 696 L60 696 L60 638 L172 638 L172 307 L237 307 Z M137 0 L203 0 L647 767 L580 767 L137 0 Z M722 216 C759 255 777 292 777 337 C777 405 724 466 640 466 C564 466 502 405 503 329 L567 329 C567 373 596 408 640 408 C685 408 713 373 713 337 C713 312 706 291 676 259 L502 72 L502 0 L786 0 L786 58 L575 58 L722 216 Z " />
<glyph glyph-name="threequarters" unicode="&#xbe;" horiz-adv-x="957" d="M225 301 C315 301 390 351 390 440 C390 499 350 539 290 554 L290 556 C336 574 365 603 365 652 C365 726 299 773 223 773 C145 773 82 723 82 642 L147 642 C149 688 177 715 224 715 C272 715 300 689 300 645 C300 587 252 573 209 573 L189 573 L189 525 L218 525 C264 525 325 513 325 444 C325 389 290 359 226 359 C161 359 125 390 125 447 L60 447 C59 352 132 301 225 301 L225 301 Z M778 767 L710 767 L267 0 L334 0 L778 767 Z M828 104 L897 104 L897 162 L828 162 L828 460 L751 460 L551 167 L551 104 L764 104 L764 0 L828 0 L828 104 Z M760 380 L764 380 L764 162 L613 162 L613 165 L760 380 Z " />
<glyph glyph-name="questiondown" unicode="&#xbf;" horiz-adv-x="392" d="M254 552 C213 552 180 518 180 477 C180 439 214 406 254 406 C297 406 330 439 330 477 C330 518 297 552 254 552 L254 552 Z M200 333 L200 252 C200 93 12 138 12 -39 C12 -104 40 -154 86 -186 C123 -211 169 -225 244 -225 L358 -225 L358 -129 L256 -129 C208 -129 173 -121 151 -105 C130 -89 119 -68 119 -36 C119 91 308 44 308 252 L308 333 L200 333 Z " />
<glyph glyph-name="Agrave" unicode="&#xc0;" horiz-adv-x="706" d="M274 992 L173 992 L316 836 L389 836 L274 992 Z M280 767 L11 21 L11 0 L119 0 L179 173 L527 173 L587 0 L694 0 L694 21 L426 767 L280 767 Z M347 655 L358 655 L493 270 L213 270 L347 655 Z " />
<glyph glyph-name="Aacute" unicode="&#xc1;" horiz-adv-x="706" d="M437 992 L316 836 L388 836 L539 992 L437 992 Z M280 767 L11 21 L11 0 L119 0 L179 173 L527 173 L587 0 L694 0 L694 21 L426 767 L280 767 Z M347 655 L358 655 L493 270 L213 270 L347 655 Z " />
<glyph glyph-name="Acircumflex" unicode="&#xc2;" horiz-adv-x="706" d="M435 836 L519 836 L393 992 L311 992 L185 836 L270 836 L352 944 L435 836 Z M280 767 L11 21 L11 0 L119 0 L179 173 L527 173 L587 0 L694 0 L694 21 L426 767 L280 767 Z M347 655 L358 655 L493 270 L213 270 L347 655 Z " />
<glyph glyph-name="Atilde" unicode="&#xc3;" horiz-adv-x="706" d="M279 936 C331 936 338 847 426 847 C490 847 530 901 530 992 L472 992 C472 938 453 907 427 907 C376 907 363 996 283 996 C217 996 176 944 176 853 L232 853 C232 906 249 936 279 936 L279 936 Z M280 767 L11 21 L11 0 L119 0 L179 173 L527 173 L587 0 L694 0 L694 21 L426 767 L280 767 Z M347 655 L358 655 L493 270 L213 270 L347 655 Z " />
<glyph glyph-name="Adieresis" unicode="&#xc4;" horiz-adv-x="706" d="M251 827 C286 827 315 856 315 892 C315 928 286 957 251 957 C214 957 185 928 185 892 C185 856 214 827 251 827 L251 827 Z M456 827 C491 827 521 856 521 892 C521 928 491 957 456 957 C420 957 390 928 390 892 C390 856 420 827 456 827 L456 827 Z M280 767 L11 21 L11 0 L119 0 L179 173 L527 173 L587 0 L694 0 L694 21 L426 767 L280 767 Z M347 655 L358 655 L493 270 L213 270 L347 655 Z " />
<glyph glyph-name="Aring" unicode="&#xc5;" horiz-adv-x="706" d="M433 748 C453 769 465 797 465 828 C465 890 413 940 352 940 C290 940 240 889 240 828 C240 797 252 768 273 747 L11 21 L11 0 L119 0 L179 173 L527 173 L587 0 L694 0 L694 21 L433 748 Z M352 887 C388 887 412 862 412 828 C412 793 387 767 352 767 C318 767 292 792 292 828 C292 862 317 887 352 887 L352 887 Z M347 655 L358 655 L493 270 L213 270 L347 655 Z " />
<glyph glyph-name="AE" unicode="&#xc6;" horiz-adv-x="999" d="M570 347 L911 347 L911 443 L570 443 L570 671 L946 671 L946 767 L280 767 L11 21 L11 0 L121 0 L181 173 L462 173 L462 0 L968 0 L968 96 L570 96 L570 347 Z M353 671 L462 671 L462 270 L214 270 L353 671 Z " />
<glyph glyph-name="Ccedilla" unicode="&#xc7;" horiz-adv-x="773" d="M396 87 C245 87 145 206 145 384 C145 562 245 680 396 680 C515 680 603 607 628 487 L739 487 C709 665 578 777 396 777 C181 777 38 620 38 384 C38 162 165 9 359 -8 L309 -91 C330 -91 351 -92 367 -98 C394 -105 408 -122 408 -142 C408 -166 389 -185 356 -185 C333 -185 305 -176 278 -152 L252 -195 C285 -222 321 -233 353 -233 C413 -233 457 -194 457 -142 C457 -105 436 -77 402 -64 C393 -61 384 -59 373 -58 L406 -10 C583 -6 710 105 739 280 L628 280 C603 160 515 87 396 87 L396 87 Z " />
<glyph glyph-name="Egrave" unicode="&#xc8;" horiz-adv-x="603" d="M355 836 L240 992 L139 992 L282 836 L355 836 Z M572 0 L572 96 L173 96 L173 347 L515 347 L515 443 L173 443 L173 671 L550 671 L550 767 L66 767 L66 0 L572 0 Z " />
<glyph glyph-name="Eacute" unicode="&#xc9;" horiz-adv-x="603" d="M355 836 L506 992 L404 992 L283 836 L355 836 Z M572 0 L572 96 L173 96 L173 347 L515 347 L515 443 L173 443 L173 671 L550 671 L550 767 L66 767 L66 0 L572 0 Z " />
<glyph glyph-name="Ecircumflex" unicode="&#xca;" horiz-adv-x="603" d="M402 836 L486 836 L360 992 L278 992 L152 836 L237 836 L319 944 L402 836 Z M173 347 L515 347 L515 443 L173 443 L173 671 L550 671 L550 767 L66 767 L66 0 L572 0 L572 96 L173 96 L173 347 Z " />
<glyph glyph-name="Edieresis" unicode="&#xcb;" horiz-adv-x="603" d="M217 827 C252 827 281 856 281 892 C281 928 252 957 217 957 C180 957 151 928 151 892 C151 856 180 827 217 827 L217 827 Z M422 827 C457 827 487 856 487 892 C487 928 457 957 422 957 C386 957 356 928 356 892 C356 856 386 827 422 827 L422 827 Z M572 0 L572 96 L173 96 L173 347 L515 347 L515 443 L173 443 L173 671 L550 671 L550 767 L66 767 L66 0 L572 0 Z " />
<glyph glyph-name="Igrave" unicode="&#xcc;" horiz-adv-x="239" d="M156 836 L41 992 L-60 992 L83 836 L156 836 Z M173 0 L173 767 L66 767 L66 0 L173 0 Z " />
<glyph glyph-name="Iacute" unicode="&#xcd;" horiz-adv-x="239" d="M155 836 L306 992 L204 992 L83 836 L155 836 Z M173 0 L173 767 L66 767 L66 0 L173 0 Z " />
<glyph glyph-name="Icircumflex" unicode="&#xce;" horiz-adv-x="239" d="M78 992 L-48 836 L37 836 L119 944 L202 836 L286 836 L160 992 L78 992 Z M173 0 L173 767 L66 767 L66 0 L173 0 Z " />
<glyph glyph-name="Idieresis" unicode="&#xcf;" horiz-adv-x="239" d="M17 827 C52 827 81 856 81 892 C81 928 52 957 17 957 C-20 957 -49 928 -49 892 C-49 856 -20 827 17 827 L17 827 Z M222 827 C257 827 287 856 287 892 C287 928 257 957 222 957 C186 957 156 928 156 892 C156 856 186 827 222 827 L222 827 Z M173 0 L173 767 L66 767 L66 0 L173 0 Z " />
<glyph glyph-name="Eth" unicode="&#xd0;" horiz-adv-x="751" d="M599 674 C526 738 422 767 302 767 L65 767 L65 420 L17 420 L17 348 L65 348 L65 0 L301 0 C420 0 523 28 597 90 C669 151 713 247 713 382 C713 517 670 612 599 674 L599 674 Z M530 171 C473 117 390 96 300 96 L173 96 L173 348 L316 348 L316 420 L173 420 L173 671 L300 671 C392 671 475 650 532 594 C578 548 606 478 606 382 C606 286 577 217 530 171 L530 171 Z " />
<glyph glyph-name="Ntilde" unicode="&#xd1;" horiz-adv-x="762" d="M454 847 C518 847 558 901 558 992 L500 992 C500 938 481 907 455 907 C404 907 391 996 311 996 C245 996 204 944 204 853 L260 853 C260 906 277 936 307 936 C359 936 366 847 454 847 L454 847 Z M173 0 L173 671 L184 671 L508 0 L695 0 L695 767 L588 767 L588 95 L577 95 L253 767 L66 767 L66 0 L173 0 Z " />
<glyph glyph-name="Ograve" unicode="&#xd2;" horiz-adv-x="793" d="M432 836 L317 992 L216 992 L359 836 L432 836 Z M396 -10 C611 -10 755 148 755 384 C755 620 611 777 396 777 C181 777 38 620 38 384 C38 148 181 -10 396 -10 L396 -10 Z M396 87 C245 87 145 206 145 384 C145 562 245 680 396 680 C547 680 647 562 647 384 C647 206 547 87 396 87 L396 87 Z " />
<glyph glyph-name="Oacute" unicode="&#xd3;" horiz-adv-x="793" d="M432 836 L583 992 L481 992 L360 836 L432 836 Z M396 -10 C611 -10 755 148 755 384 C755 620 611 777 396 777 C181 777 38 620 38 384 C38 148 181 -10 396 -10 L396 -10 Z M396 87 C245 87 145 206 145 384 C145 562 245 680 396 680 C547 680 647 562 647 384 C647 206 547 87 396 87 L396 87 Z " />
<glyph glyph-name="Ocircumflex" unicode="&#xd4;" horiz-adv-x="793" d="M479 836 L563 836 L437 992 L355 992 L229 836 L314 836 L396 944 L479 836 Z M396 777 C181 777 38 620 38 384 C38 148 181 -10 396 -10 C611 -10 755 148 755 384 C755 620 611 777 396 777 L396 777 Z M396 87 C245 87 145 206 145 384 C145 562 245 680 396 680 C547 680 647 562 647 384 C647 206 547 87 396 87 L396 87 Z " />
<glyph glyph-name="Otilde" unicode="&#xd5;" horiz-adv-x="793" d="M469 847 C533 847 573 901 573 992 L515 992 C515 938 496 907 470 907 C419 907 406 996 326 996 C260 996 219 944 219 853 L275 853 C275 906 292 936 322 936 C374 936 381 847 469 847 L469 847 Z M396 -10 C611 -10 755 148 755 384 C755 620 611 777 396 777 C181 777 38 620 38 384 C38 148 181 -10 396 -10 L396 -10 Z M396 87 C245 87 145 206 145 384 C145 562 245 680 396 680 C547 680 647 562 647 384 C647 206 547 87 396 87 L396 87 Z " />
<glyph glyph-name="Odieresis" unicode="&#xd6;" horiz-adv-x="793" d="M294 827 C329 827 358 856 358 892 C358 928 329 957 294 957 C257 957 228 928 228 892 C228 856 257 827 294 827 L294 827 Z M499 827 C534 827 564 856 564 892 C564 928 534 957 499 957 C463 957 433 928 433 892 C433 856 463 827 499 827 L499 827 Z M396 -10 C611 -10 755 148 755 384 C755 620 611 777 396 777 C181 777 38 620 38 384 C38 148 181 -10 396 -10 L396 -10 Z M396 87 C245 87 145 206 145 384 C145 562 245 680 396 680 C547 680 647 562 647 384 C647 206 547 87 396 87 L396 87 Z " />
<glyph glyph-name="multiply" unicode="&#xd7;" horiz-adv-x="458" d="M229 219 L385 64 L436 115 L280 271 L436 426 L385 478 L229 323 L73 478 L22 426 L177 271 L22 115 L73 64 L229 219 Z " />
<glyph glyph-name="Oslash" unicode="&#xd8;" horiz-adv-x="793" d="M667 753 L603 793 L568 737 C519 763 461 777 396 777 C181 777 38 620 38 384 C38 251 83 143 161 74 L124 14 L187 -24 L221 32 C272 5 330 -10 396 -10 C611 -10 755 148 755 384 C755 517 709 625 631 694 L667 753 Z M145 384 C145 562 245 680 396 680 C441 680 481 670 515 651 L217 165 C171 217 145 293 145 384 L145 384 Z M396 87 C350 87 310 98 275 118 L574 603 C621 551 647 476 647 384 C647 206 547 87 396 87 L396 87 Z " />
<glyph glyph-name="Ugrave" unicode="&#xd9;" horiz-adv-x="688" d="M380 836 L265 992 L164 992 L307 836 L380 836 Z M344 -10 C540 -10 628 83 628 254 L628 767 L520 767 L520 261 C520 156 479 87 344 87 C210 87 167 152 167 261 L167 767 L59 767 L59 254 C59 86 144 -10 344 -10 L344 -10 Z " />
<glyph glyph-name="Uacute" unicode="&#xda;" horiz-adv-x="688" d="M379 836 L530 992 L428 992 L307 836 L379 836 Z M344 -10 C540 -10 628 83 628 254 L628 767 L520 767 L520 261 C520 156 479 87 344 87 C210 87 167 152 167 261 L167 767 L59 767 L59 254 C59 86 144 -10 344 -10 L344 -10 Z " />
<glyph glyph-name="Ucircumflex" unicode="&#xdb;" horiz-adv-x="688" d="M426 836 L510 836 L384 992 L302 992 L176 836 L261 836 L343 944 L426 836 Z M520 261 C520 156 479 87 344 87 C210 87 167 152 167 261 L167 767 L59 767 L59 254 C59 86 144 -10 344 -10 C540 -10 628 83 628 254 L628 767 L520 767 L520 261 Z " />
<glyph glyph-name="Udieresis" unicode="&#xdc;" horiz-adv-x="688" d="M241 827 C276 827 305 856 305 892 C305 928 276 957 241 957 C204 957 175 928 175 892 C175 856 204 827 241 827 L241 827 Z M446 827 C481 827 511 856 511 892 C511 928 481 957 446 957 C410 957 380 928 380 892 C380 856 410 827 446 827 L446 827 Z M344 -10 C540 -10 628 83 628 254 L628 767 L520 767 L520 261 C520 156 479 87 344 87 C210 87 167 152 167 261 L167 767 L59 767 L59 254 C59 86 144 -10 344 -10 L344 -10 Z " />
<glyph glyph-name="Yacute" unicode="&#xdd;" horiz-adv-x="675" d="M372 836 L523 992 L421 992 L300 836 L372 836 Z M391 0 L391 286 L669 746 L669 767 L556 767 L341 405 L333 405 L118 767 L5 767 L5 746 L283 286 L283 0 L391 0 Z " />
<glyph glyph-name="Thorn" unicode="&#xde;" horiz-adv-x="627" d="M210 0 L210 219 L327 219 C412 219 473 230 516 262 C567 298 595 360 595 440 C595 520 567 582 516 618 C473 650 412 660 327 660 L210 660 L210 767 L102 767 L102 0 L210 0 Z M210 564 L309 564 C382 564 423 558 450 534 C471 517 487 491 487 440 C487 389 471 363 450 345 C423 321 382 316 309 316 L210 316 L210 564 Z " />
<glyph glyph-name="germandbls" unicode="&#xdf;" horiz-adv-x="725" d="M474 336 C407 351 370 359 370 402 C370 448 415 471 472 471 L616 471 L616 525 C616 663 547 777 356 777 C115 777 80 619 80 490 L80 0 L182 0 L182 490 C182 589 208 685 357 685 C460 685 504 631 512 552 L472 552 C360 552 268 500 268 396 C268 286 371 258 425 246 L523 225 C559 217 605 207 605 152 C605 96 560 71 489 71 C409 71 359 103 350 178 L248 178 C252 58 347 -10 487 -10 C617 -10 707 54 707 163 C707 249 650 298 550 319 L474 336 Z " />
<glyph glyph-name="agrave" unicode="&#xe0;" horiz-adv-x="548" d="M203 767 L102 767 L245 611 L318 611 L203 767 Z M473 455 C441 522 367 551 276 551 C131 551 63 479 55 381 L158 381 C163 431 199 471 274 471 C355 471 392 427 392 360 L392 325 L244 325 C125 325 40 278 40 160 C40 54 115 -9 228 -9 C296 -9 346 17 383 70 L392 70 L392 0 L493 0 L493 328 C493 366 492 415 473 455 L473 455 Z M241 75 C180 75 142 107 142 161 C142 230 190 249 257 249 L392 249 C389 146 348 75 241 75 L241 75 Z " />
<glyph glyph-name="aacute" unicode="&#xe1;" horiz-adv-x="548" d="M366 767 L245 611 L317 611 L468 767 L366 767 Z M473 455 C441 522 367 551 276 551 C131 551 63 479 55 381 L158 381 C163 431 199 471 274 471 C355 471 392 427 392 360 L392 325 L244 325 C125 325 40 278 40 160 C40 54 115 -9 228 -9 C296 -9 346 17 383 70 L392 70 L392 0 L493 0 L493 328 C493 366 492 415 473 455 L473 455 Z M241 75 C180 75 142 107 142 161 C142 230 190 249 257 249 L392 249 C389 146 348 75 241 75 L241 75 Z " />
<glyph glyph-name="acircumflex" unicode="&#xe2;" horiz-adv-x="548" d="M364 611 L448 611 L322 767 L240 767 L114 611 L199 611 L281 719 L364 611 Z M473 455 C441 522 367 551 276 551 C131 551 63 479 55 381 L158 381 C163 431 199 471 274 471 C355 471 392 427 392 360 L392 325 L244 325 C125 325 40 278 40 160 C40 54 115 -9 228 -9 C296 -9 346 17 383 70 L392 70 L392 0 L493 0 L493 328 C493 366 492 415 473 455 L473 455 Z M241 75 C180 75 142 107 142 161 C142 230 190 249 257 249 L392 249 C389 146 348 75 241 75 L241 75 Z " />
<glyph glyph-name="atilde" unicode="&#xe3;" horiz-adv-x="548" d="M207 711 C259 711 266 622 354 622 C418 622 458 676 458 767 L400 767 C400 713 381 682 355 682 C304 682 291 771 211 771 C145 771 104 719 104 628 L160 628 C160 681 177 711 207 711 L207 711 Z M473 455 C441 522 367 551 276 551 C131 551 63 479 55 381 L158 381 C163 431 199 471 274 471 C355 471 392 427 392 360 L392 325 L244 325 C125 325 40 278 40 160 C40 54 115 -9 228 -9 C296 -9 346 17 383 70 L392 70 L392 0 L493 0 L493 328 C493 366 492 415 473 455 L473 455 Z M241 75 C180 75 142 107 142 161 C142 230 190 249 257 249 L392 249 C389 146 348 75 241 75 L241 75 Z " />
<glyph glyph-name="adieresis" unicode="&#xe4;" horiz-adv-x="548" d="M179 648 C214 648 243 677 243 714 C243 749 214 778 179 778 C142 778 114 749 114 714 C114 677 142 648 179 648 L179 648 Z M385 648 C419 648 449 677 449 714 C449 749 419 778 385 778 C348 778 319 749 319 714 C319 677 348 648 385 648 L385 648 Z M473 455 C441 522 367 551 276 551 C131 551 63 479 55 381 L158 381 C163 431 199 471 274 471 C355 471 392 427 392 360 L392 325 L244 325 C125 325 40 278 40 160 C40 54 115 -9 228 -9 C296 -9 346 17 383 70 L392 70 L392 0 L493 0 L493 328 C493 366 492 415 473 455 L473 455 Z M241 75 C180 75 142 107 142 161 C142 230 190 249 257 249 L392 249 C389 146 348 75 241 75 L241 75 Z " />
<glyph glyph-name="aring" unicode="&#xe5;" horiz-adv-x="548" d="M280 588 C343 588 394 639 394 702 C394 765 342 814 280 814 C218 814 168 764 168 702 C168 640 217 588 280 588 L280 588 Z M280 761 C317 761 341 736 341 702 C341 667 315 641 280 641 C246 641 221 667 221 702 C221 736 245 761 280 761 L280 761 Z M473 455 C441 522 367 551 276 551 C131 551 63 479 55 381 L158 381 C163 431 199 471 274 471 C355 471 392 427 392 360 L392 325 L244 325 C125 325 40 278 40 160 C40 54 115 -9 228 -9 C296 -9 346 17 383 70 L392 70 L392 0 L493 0 L493 328 C493 366 492 415 473 455 L473 455 Z M241 75 C180 75 142 107 142 161 C142 230 190 249 257 249 L392 249 C389 146 348 75 241 75 L241 75 Z " />
<glyph glyph-name="ae" unicode="&#xe6;" horiz-adv-x="967" d="M932 276 C930 447 821 552 666 552 C583 552 512 522 464 466 C429 525 359 551 274 551 C131 551 63 479 55 382 L152 382 C158 435 195 474 273 474 C357 474 395 430 395 360 L395 324 L242 324 C124 324 40 277 40 160 C40 54 115 -9 234 -9 C328 -9 393 34 427 111 L439 111 C484 33 566 -10 666 -10 C784 -10 879 54 916 163 L807 163 C781 110 731 78 666 78 C572 78 509 141 502 249 L931 249 L932 276 Z M666 464 C749 464 808 414 825 325 L506 325 C522 414 582 464 666 464 L666 464 Z M240 70 C176 70 137 104 137 160 C137 229 182 251 254 251 L395 251 C393 145 349 70 240 70 L240 70 Z " />
<glyph glyph-name="ccedilla" unicode="&#xe7;" horiz-adv-x="587" d="M304 78 C205 78 140 146 140 271 C140 395 205 464 304 464 C377 464 430 428 448 361 L554 361 C528 482 431 552 304 552 C149 552 38 448 38 271 C38 104 135 4 275 -9 L225 -91 C246 -91 267 -92 283 -98 C310 -105 324 -122 324 -142 C324 -166 305 -185 272 -185 C249 -185 221 -176 194 -152 L168 -195 C201 -222 237 -233 269 -233 C329 -233 373 -194 373 -142 C373 -105 352 -77 318 -64 C309 -61 300 -59 289 -58 L323 -10 C440 -3 529 65 554 181 L448 181 C430 114 377 78 304 78 L304 78 Z " />
<glyph glyph-name="egrave" unicode="&#xe8;" horiz-adv-x="606" d="M226 767 L125 767 L268 611 L341 611 L226 767 Z M570 276 C568 447 459 552 304 552 C149 552 38 448 38 271 C38 94 149 -10 304 -10 C423 -10 518 54 555 163 L445 163 C420 110 369 78 304 78 C211 78 148 141 141 249 L570 249 L570 276 Z M304 464 C387 464 447 414 464 325 L145 325 C161 414 221 464 304 464 L304 464 Z " />
<glyph glyph-name="eacute" unicode="&#xe9;" horiz-adv-x="606" d="M389 767 L268 611 L340 611 L491 767 L389 767 Z M570 276 C568 447 459 552 304 552 C149 552 38 448 38 271 C38 94 149 -10 304 -10 C423 -10 518 54 555 163 L445 163 C420 110 369 78 304 78 C211 78 148 141 141 249 L570 249 L570 276 Z M304 464 C387 464 447 414 464 325 L145 325 C161 414 221 464 304 464 L304 464 Z " />
<glyph glyph-name="ecircumflex" unicode="&#xea;" horiz-adv-x="606" d="M387 611 L471 611 L345 767 L263 767 L137 611 L222 611 L304 719 L387 611 Z M570 276 C568 447 459 552 304 552 C149 552 38 448 38 271 C38 94 149 -10 304 -10 C423 -10 518 54 555 163 L445 163 C420 110 369 78 304 78 C211 78 148 141 141 249 L570 249 L570 276 Z M304 464 C387 464 447 414 464 325 L145 325 C161 414 221 464 304 464 L304 464 Z " />
<glyph glyph-name="edieresis" unicode="&#xeb;" horiz-adv-x="606" d="M202 648 C237 648 266 677 266 714 C266 749 237 778 202 778 C165 778 137 749 137 714 C137 677 165 648 202 648 L202 648 Z M408 648 C442 648 472 677 472 714 C472 749 442 778 408 778 C371 778 342 749 342 714 C342 677 371 648 408 648 L408 648 Z M570 276 C568 447 459 552 304 552 C149 552 38 448 38 271 C38 94 149 -10 304 -10 C423 -10 518 54 555 163 L445 163 C420 110 369 78 304 78 C211 78 148 141 141 249 L570 249 L570 276 Z M304 464 C387 464 447 414 464 325 L145 325 C161 414 221 464 304 464 L304 464 Z " />
<glyph glyph-name="igrave" unicode="&#xec;" horiz-adv-x="219" d="M145 611 L30 767 L-71 767 L72 611 L145 611 Z M160 0 L160 542 L58 542 L58 0 L160 0 Z " />
<glyph glyph-name="iacute" unicode="&#xed;" horiz-adv-x="219" d="M144 611 L295 767 L193 767 L72 611 L144 611 Z M160 0 L160 542 L58 542 L58 0 L160 0 Z " />
<glyph glyph-name="icircumflex" unicode="&#xee;" horiz-adv-x="219" d="M67 767 L-59 611 L26 611 L108 719 L191 611 L275 611 L149 767 L67 767 Z M160 0 L160 542 L58 542 L58 0 L160 0 Z " />
<glyph glyph-name="idieresis" unicode="&#xef;" horiz-adv-x="219" d="M6 648 C41 648 70 677 70 714 C70 749 41 778 6 778 C-31 778 -59 749 -59 714 C-59 677 -31 648 6 648 L6 648 Z M212 648 C246 648 276 677 276 714 C276 749 246 778 212 778 C175 778 146 749 146 714 C146 677 175 648 212 648 L212 648 Z M160 0 L160 542 L58 542 L58 0 L160 0 Z " />
<glyph glyph-name="eth" unicode="&#xf0;" horiz-adv-x="614" d="M415 610 L471 610 L471 682 L371 682 L318 767 L203 767 L203 746 L243 682 L58 682 L58 610 L288 610 L350 511 C339 513 329 514 318 514 C163 514 48 407 48 252 C48 96 158 -10 317 -10 C479 -10 588 99 588 246 C588 302 569 362 532 421 L415 610 Z M318 87 C225 87 156 151 156 253 C156 353 225 416 318 416 C410 416 480 347 480 252 C480 150 411 87 318 87 L318 87 Z " />
<glyph glyph-name="ntilde" unicode="&#xf1;" horiz-adv-x="573" d="M362 622 C426 622 466 676 466 767 L408 767 C408 713 389 682 363 682 C312 682 299 771 219 771 C153 771 112 719 112 628 L168 628 C168 681 185 711 215 711 C267 711 274 622 362 622 L362 622 Z M161 0 L161 290 C161 334 165 369 177 393 C196 434 235 460 289 460 C383 460 418 401 418 297 L418 0 L520 0 L520 321 C520 469 449 552 321 552 C253 552 200 523 169 483 L161 483 L161 542 L59 542 L59 0 L161 0 Z " />
<glyph glyph-name="ograve" unicode="&#xf2;" horiz-adv-x="609" d="M341 611 L226 767 L125 767 L268 611 L341 611 Z M304 -10 C458 -10 570 94 570 271 C570 448 458 552 304 552 C149 552 38 448 38 271 C38 94 149 -10 304 -10 L304 -10 Z M304 78 C205 78 140 149 140 271 C140 393 205 464 304 464 C403 464 469 393 469 271 C469 149 403 78 304 78 L304 78 Z " />
<glyph glyph-name="oacute" unicode="&#xf3;" horiz-adv-x="609" d="M340 611 L491 767 L389 767 L268 611 L340 611 Z M304 -10 C458 -10 570 94 570 271 C570 448 458 552 304 552 C149 552 38 448 38 271 C38 94 149 -10 304 -10 L304 -10 Z M304 78 C205 78 140 149 140 271 C140 393 205 464 304 464 C403 464 469 393 469 271 C469 149 403 78 304 78 L304 78 Z " />
<glyph glyph-name="ocircumflex" unicode="&#xf4;" horiz-adv-x="609" d="M387 611 L471 611 L345 767 L263 767 L137 611 L222 611 L304 719 L387 611 Z M304 552 C149 552 38 448 38 271 C38 94 149 -10 304 -10 C458 -10 570 94 570 271 C570 448 458 552 304 552 L304 552 Z M304 78 C205 78 140 149 140 271 C140 393 205 464 304 464 C403 464 469 393 469 271 C469 149 403 78 304 78 L304 78 Z " />
<glyph glyph-name="otilde" unicode="&#xf5;" horiz-adv-x="609" d="M377 622 C441 622 481 676 481 767 L423 767 C423 713 404 682 378 682 C327 682 314 771 234 771 C168 771 127 719 127 628 L183 628 C183 681 200 711 230 711 C282 711 289 622 377 622 L377 622 Z M304 -10 C458 -10 570 94 570 271 C570 448 458 552 304 552 C149 552 38 448 38 271 C38 94 149 -10 304 -10 L304 -10 Z M304 78 C205 78 140 149 140 271 C140 393 205 464 304 464 C403 464 469 393 469 271 C469 149 403 78 304 78 L304 78 Z " />
<glyph glyph-name="odieresis" unicode="&#xf6;" horiz-adv-x="609" d="M202 648 C237 648 266 677 266 714 C266 749 237 778 202 778 C165 778 137 749 137 714 C137 677 165 648 202 648 L202 648 Z M408 648 C442 648 472 677 472 714 C472 749 442 778 408 778 C371 778 342 749 342 714 C342 677 371 648 408 648 L408 648 Z M304 -10 C458 -10 570 94 570 271 C570 448 458 552 304 552 C149 552 38 448 38 271 C38 94 149 -10 304 -10 L304 -10 Z M304 78 C205 78 140 149 140 271 C140 393 205 464 304 464 C403 464 469 393 469 271 C469 149 403 78 304 78 L304 78 Z " />
<glyph glyph-name="divide" unicode="&#xf7;" horiz-adv-x="543" d="M271 398 C309 398 340 429 340 467 C340 503 308 533 271 533 C231 533 200 503 200 467 C200 429 231 398 271 398 L271 398 Z M520 235 L520 307 L20 307 L20 235 L520 235 Z M271 9 C309 9 340 39 340 78 C340 113 308 144 271 144 C231 144 200 113 200 78 C200 39 231 9 271 9 L271 9 Z " />
<glyph glyph-name="oslash" unicode="&#xf8;" horiz-adv-x="609" d="M517 553 L461 587 L424 527 C389 544 348 552 304 552 C149 552 38 448 38 271 C38 173 72 97 129 49 L92 -11 L148 -45 L185 14 C220 -2 260 -10 304 -10 C458 -10 570 94 570 271 C570 369 536 444 479 492 L517 553 Z M140 271 C140 393 205 464 304 464 C331 464 355 459 376 449 L181 133 C155 166 140 213 140 271 L140 271 Z M304 78 C278 78 254 83 233 93 L428 408 C454 376 469 329 469 271 C469 149 403 78 304 78 L304 78 Z " />
<glyph glyph-name="ugrave" unicode="&#xf9;" horiz-adv-x="573" d="M319 611 L204 767 L103 767 L246 611 L319 611 Z M251 -10 C321 -10 372 20 403 59 L411 59 L411 0 L513 0 L513 542 L411 542 L411 252 C411 209 408 175 394 149 C375 106 335 82 282 82 C189 82 154 141 154 245 L154 542 L52 542 L52 221 C52 73 123 -10 251 -10 L251 -10 Z " />
<glyph glyph-name="uacute" unicode="&#xfa;" horiz-adv-x="573" d="M318 611 L469 767 L367 767 L246 611 L318 611 Z M251 -10 C321 -10 372 20 403 59 L411 59 L411 0 L513 0 L513 542 L411 542 L411 252 C411 209 408 175 394 149 C375 106 335 82 282 82 C189 82 154 141 154 245 L154 542 L52 542 L52 221 C52 73 123 -10 251 -10 L251 -10 Z " />
<glyph glyph-name="ucircumflex" unicode="&#xfb;" horiz-adv-x="573" d="M365 611 L449 611 L323 767 L241 767 L115 611 L200 611 L282 719 L365 611 Z M411 252 C411 209 408 175 394 149 C375 106 335 82 282 82 C189 82 154 141 154 245 L154 542 L52 542 L52 221 C52 73 123 -10 251 -10 C321 -10 372 20 403 59 L411 59 L411 0 L513 0 L513 542 L411 542 L411 252 Z " />
<glyph glyph-name="udieresis" unicode="&#xfc;" horiz-adv-x="573" d="M180 648 C215 648 244 677 244 714 C244 749 215 778 180 778 C143 778 115 749 115 714 C115 677 143 648 180 648 L180 648 Z M386 648 C420 648 450 677 450 714 C450 749 420 778 386 778 C349 778 320 749 320 714 C320 677 349 648 386 648 L386 648 Z M251 -10 C321 -10 372 20 403 59 L411 59 L411 0 L513 0 L513 542 L411 542 L411 252 C411 209 408 175 394 149 C375 106 335 82 282 82 C189 82 154 141 154 245 L154 542 L52 542 L52 221 C52 73 123 -10 251 -10 L251 -10 Z " />
<glyph glyph-name="yacute" unicode="&#xfd;" horiz-adv-x="575" d="M371 767 L250 611 L322 611 L473 767 L371 767 Z M292 88 L282 88 L123 542 L15 542 L208 0 L262 0 L230 -85 C219 -113 194 -131 162 -131 L61 -131 L61 -224 L186 -224 C245 -224 292 -192 313 -136 L366 0 L559 542 L450 542 L292 88 Z " />
<glyph glyph-name="thorn" unicode="&#xfe;" horiz-adv-x="631" d="M183 -225 L183 68 L190 68 C225 16 284 -10 353 -10 C497 -10 595 98 595 271 C595 444 497 552 353 552 C284 552 225 526 190 474 L183 474 L183 767 L81 767 L81 -225 L183 -225 Z M334 78 C238 78 176 147 176 271 C176 395 238 464 334 464 C431 464 493 394 493 271 C493 148 431 78 334 78 L334 78 Z " />
<glyph glyph-name="ydieresis" unicode="&#xff;" horiz-adv-x="575" d="M184 648 C219 648 248 677 248 714 C248 749 219 778 184 778 C147 778 119 749 119 714 C119 677 147 648 184 648 L184 648 Z M390 648 C424 648 454 677 454 714 C454 749 424 778 390 778 C353 778 324 749 324 714 C324 677 353 648 390 648 L390 648 Z M292 88 L282 88 L123 542 L15 542 L208 0 L262 0 L230 -85 C219 -113 194 -131 162 -131 L61 -131 L61 -224 L186 -224 C245 -224 292 -192 313 -136 L366 0 L559 542 L450 542 L292 88 Z " />
<glyph glyph-name="Amacron" unicode="&#x100;" horiz-adv-x="706" d="M203 929 L203 871 L502 871 L502 929 L203 929 Z M280 767 L11 21 L11 0 L119 0 L179 173 L527 173 L587 0 L694 0 L694 21 L426 767 L280 767 Z M347 655 L358 655 L493 270 L213 270 L347 655 Z " />
<glyph glyph-name="amacron" unicode="&#x101;" horiz-adv-x="548" d="M131 704 L131 646 L430 646 L430 704 L131 704 Z M473 455 C441 522 367 551 276 551 C131 551 63 479 55 381 L158 381 C163 431 199 471 274 471 C355 471 392 427 392 360 L392 325 L244 325 C125 325 40 278 40 160 C40 54 115 -9 228 -9 C296 -9 346 17 383 70 L392 70 L392 0 L493 0 L493 328 C493 366 492 415 473 455 L473 455 Z M241 75 C180 75 142 107 142 161 C142 230 190 249 257 249 L392 249 C389 146 348 75 241 75 L241 75 Z " />
<glyph glyph-name="Abreve" unicode="&#x102;" horiz-adv-x="706" d="M353 839 C462 839 520 895 520 992 L452 992 C452 926 413 897 353 897 C293 897 253 925 253 992 L185 992 C185 898 238 839 353 839 L353 839 Z M280 767 L11 21 L11 0 L119 0 L179 173 L527 173 L587 0 L694 0 L694 21 L426 767 L280 767 Z M347 655 L358 655 L493 270 L213 270 L347 655 Z " />
<glyph glyph-name="abreve" unicode="&#x103;" horiz-adv-x="548" d="M282 614 C391 614 449 670 449 767 L381 767 C381 701 342 672 282 672 C222 672 182 700 182 767 L114 767 C114 673 167 614 282 614 L282 614 Z M473 455 C441 522 367 551 276 551 C131 551 63 479 55 381 L158 381 C163 431 199 471 274 471 C355 471 392 427 392 360 L392 325 L244 325 C125 325 40 278 40 160 C40 54 115 -9 228 -9 C296 -9 346 17 383 70 L392 70 L392 0 L493 0 L493 328 C493 366 492 415 473 455 L473 455 Z M241 75 C180 75 142 107 142 161 C142 230 190 249 257 249 L392 249 C389 146 348 75 241 75 L241 75 Z " />
<glyph glyph-name="Aogonek" unicode="&#x104;" horiz-adv-x="706" d="M694 21 L426 767 L280 767 L11 21 L11 0 L119 0 L179 173 L527 173 L587 0 L626 0 C566 -47 534 -96 534 -139 C534 -195 588 -232 694 -232 L694 -172 C636 -172 608 -150 608 -115 C608 -81 638 -37 694 0 L694 21 Z M347 655 L358 655 L493 270 L213 270 L347 655 Z " />
<glyph glyph-name="aogonek" unicode="&#x105;" horiz-adv-x="548" d="M493 328 C493 366 492 415 473 455 C441 522 367 551 276 551 C131 551 63 479 55 381 L158 381 C163 431 199 471 274 471 C355 471 392 427 392 360 L392 325 L244 325 C125 325 40 278 40 160 C40 54 115 -9 228 -9 C296 -9 346 17 383 70 L392 70 L392 0 L425 0 C365 -47 333 -96 333 -139 C333 -195 387 -232 493 -232 L493 -172 C435 -172 407 -150 407 -115 C407 -81 437 -37 493 0 L493 328 Z M241 75 C180 75 142 107 142 161 C142 230 190 249 257 249 L392 249 C389 146 348 75 241 75 L241 75 Z " />
<glyph glyph-name="Cacute" unicode="&#x106;" horiz-adv-x="773" d="M423 836 L574 992 L472 992 L351 836 L423 836 Z M396 -10 C578 -10 709 102 739 280 L628 280 C603 160 515 87 396 87 C245 87 145 206 145 384 C145 562 245 680 396 680 C515 680 603 607 628 487 L739 487 C709 665 578 777 396 777 C181 777 38 620 38 384 C38 148 181 -10 396 -10 L396 -10 Z " />
<glyph glyph-name="cacute" unicode="&#x107;" horiz-adv-x="587" d="M333 611 L484 767 L382 767 L261 611 L333 611 Z M304 -10 C431 -10 528 59 554 181 L448 181 C430 114 377 78 304 78 C205 78 140 146 140 271 C140 395 205 464 304 464 C377 464 430 428 448 361 L554 361 C528 482 431 552 304 552 C149 552 38 448 38 271 C38 93 149 -10 304 -10 L304 -10 Z " />
<glyph glyph-name="ccircumflex" unicode="&#x109;" horiz-adv-x="587" d="M381 611 L465 611 L339 767 L257 767 L131 611 L216 611 L298 719 L381 611 Z M304 78 C205 78 140 146 140 271 C140 395 205 464 304 464 C377 464 430 428 448 361 L554 361 C528 482 431 552 304 552 C149 552 38 448 38 271 C38 93 149 -10 304 -10 C431 -10 528 59 554 181 L448 181 C430 114 377 78 304 78 L304 78 Z " />
<glyph glyph-name="Cdotaccent" unicode="&#x10a;" horiz-adv-x="773" d="M388 827 C423 827 452 856 452 892 C452 928 423 957 388 957 C351 957 322 928 322 892 C322 856 351 827 388 827 L388 827 Z M396 -10 C578 -10 709 102 739 280 L628 280 C603 160 515 87 396 87 C245 87 145 206 145 384 C145 562 245 680 396 680 C515 680 603 607 628 487 L739 487 C709 665 578 777 396 777 C181 777 38 620 38 384 C38 148 181 -10 396 -10 L396 -10 Z " />
<glyph glyph-name="cdotaccent" unicode="&#x10b;" horiz-adv-x="587" d="M298 648 C333 648 362 677 362 714 C362 749 333 778 298 778 C261 778 233 749 233 714 C233 677 261 648 298 648 L298 648 Z M304 -10 C431 -10 528 59 554 181 L448 181 C430 114 377 78 304 78 C205 78 140 146 140 271 C140 395 205 464 304 464 C377 464 430 428 448 361 L554 361 C528 482 431 552 304 552 C149 552 38 448 38 271 C38 93 149 -10 304 -10 L304 -10 Z " />
<glyph glyph-name="Ccaron" unicode="&#x10c;" horiz-adv-x="773" d="M558 992 L473 992 L390 884 L308 992 L224 992 L350 836 L432 836 L558 992 Z M396 87 C245 87 145 206 145 384 C145 562 245 680 396 680 C515 680 603 607 628 487 L739 487 C709 665 578 777 396 777 C181 777 38 620 38 384 C38 148 181 -10 396 -10 C578 -10 709 102 739 280 L628 280 C603 160 515 87 396 87 L396 87 Z " />
<glyph glyph-name="ccaron" unicode="&#x10d;" horiz-adv-x="587" d="M468 767 L383 767 L300 659 L218 767 L134 767 L260 611 L342 611 L468 767 Z M304 78 C205 78 140 146 140 271 C140 395 205 464 304 464 C377 464 430 428 448 361 L554 361 C528 482 431 552 304 552 C149 552 38 448 38 271 C38 93 149 -10 304 -10 C431 -10 528 59 554 181 L448 181 C430 114 377 78 304 78 L304 78 Z " />
<glyph glyph-name="Dcaron" unicode="&#x10e;" horiz-adv-x="751" d="M534 992 L449 992 L366 884 L284 992 L200 992 L326 836 L408 836 L534 992 Z M599 674 C526 738 422 767 302 767 L65 767 L65 0 L301 0 C420 0 523 28 597 90 C669 151 713 247 713 382 C713 517 670 612 599 674 L599 674 Z M530 171 C473 117 390 96 300 96 L173 96 L173 671 L300 671 C392 671 475 650 532 594 C578 548 606 478 606 382 C606 286 577 217 530 171 L530 171 Z " />
<glyph glyph-name="dcaron" unicode="&#x10f;" horiz-adv-x="695" d="M693 777 C647 777 617 744 617 706 C617 666 645 633 689 631 L628 498 L628 484 L684 484 L753 647 C761 666 767 685 767 706 C767 744 736 777 693 777 L693 777 Z M443 474 C408 526 349 552 279 552 C136 552 38 443 38 271 C38 99 136 -10 279 -10 C349 -10 408 16 443 68 L450 68 L450 0 L552 0 L552 767 L450 767 L450 474 L443 474 Z M299 78 C202 78 140 148 140 271 C140 394 202 464 299 464 C395 464 458 395 458 271 C458 147 395 78 299 78 L299 78 Z " />
<glyph glyph-name="Dcroat" unicode="&#x110;" horiz-adv-x="751" d="M599 674 C526 738 422 767 302 767 L65 767 L65 420 L17 420 L17 348 L65 348 L65 0 L301 0 C420 0 523 28 597 90 C669 151 713 247 713 382 C713 517 670 612 599 674 L599 674 Z M530 171 C473 117 390 96 300 96 L173 96 L173 348 L316 348 L316 420 L173 420 L173 671 L300 671 C392 671 475 650 532 594 C578 548 606 478 606 382 C606 286 577 217 530 171 L530 171 Z " />
<glyph glyph-name="dcroat" unicode="&#x111;" horiz-adv-x="610" d="M552 692 L552 767 L450 767 L450 692 L327 692 L327 620 L450 620 L450 474 L443 474 C408 526 349 552 279 552 C136 552 38 443 38 271 C38 99 136 -10 279 -10 C349 -10 408 16 443 68 L450 68 L450 0 L552 0 L552 620 L626 620 L626 692 L552 692 Z M299 78 C202 78 140 148 140 271 C140 394 202 464 299 464 C395 464 458 395 458 271 C458 147 395 78 299 78 L299 78 Z " />
<glyph glyph-name="Emacron" unicode="&#x112;" horiz-adv-x="603" d="M468 871 L468 929 L169 929 L169 871 L468 871 Z M572 0 L572 96 L173 96 L173 347 L515 347 L515 443 L173 443 L173 671 L550 671 L550 767 L66 767 L66 0 L572 0 Z " />
<glyph glyph-name="emacron" unicode="&#x113;" horiz-adv-x="606" d="M155 704 L155 646 L454 646 L454 704 L155 704 Z M570 276 C568 447 459 552 304 552 C149 552 38 448 38 271 C38 94 149 -10 304 -10 C423 -10 518 54 555 163 L445 163 C420 110 369 78 304 78 C211 78 148 141 141 249 L570 249 L570 276 Z M304 464 C387 464 447 414 464 325 L145 325 C161 414 221 464 304 464 L304 464 Z " />
<glyph glyph-name="Edotaccent" unicode="&#x116;" horiz-adv-x="603" d="M319 827 C354 827 383 856 383 892 C383 928 354 957 319 957 C282 957 253 928 253 892 C253 856 282 827 319 827 L319 827 Z M572 0 L572 96 L173 96 L173 347 L515 347 L515 443 L173 443 L173 671 L550 671 L550 767 L66 767 L66 0 L572 0 Z " />
<glyph glyph-name="edotaccent" unicode="&#x117;" horiz-adv-x="606" d="M305 648 C340 648 369 677 369 714 C369 749 340 778 305 778 C268 778 240 749 240 714 C240 677 268 648 305 648 L305 648 Z M570 276 C568 447 459 552 304 552 C149 552 38 448 38 271 C38 94 149 -10 304 -10 C423 -10 518 54 555 163 L445 163 C420 110 369 78 304 78 C211 78 148 141 141 249 L570 249 L570 276 Z M304 464 C387 464 447 414 464 325 L145 325 C161 414 221 464 304 464 L304 464 Z " />
<glyph glyph-name="Eogonek" unicode="&#x118;" horiz-adv-x="603" d="M572 96 L173 96 L173 347 L515 347 L515 443 L173 443 L173 671 L550 671 L550 767 L66 767 L66 0 L504 0 C444 -47 412 -96 412 -139 C412 -195 466 -232 572 -232 L572 -172 C514 -172 486 -150 486 -115 C486 -81 516 -37 572 0 L572 96 Z " />
<glyph glyph-name="eogonek" unicode="&#x119;" horiz-adv-x="606" d="M570 276 C568 447 459 552 304 552 C149 552 38 448 38 271 C38 97 145 -7 296 -10 C244 -54 217 -99 217 -139 C217 -195 271 -232 377 -232 L377 -172 C319 -172 291 -150 291 -115 C291 -82 320 -39 374 -2 C460 18 526 76 555 163 L445 163 C420 110 369 78 304 78 C211 78 148 141 141 249 L570 249 L570 276 Z M304 464 C387 464 447 414 464 325 L145 325 C161 414 221 464 304 464 L304 464 Z " />
<glyph glyph-name="Ecaron" unicode="&#x11a;" horiz-adv-x="603" d="M489 992 L404 992 L321 884 L239 992 L155 992 L281 836 L363 836 L489 992 Z M173 347 L515 347 L515 443 L173 443 L173 671 L550 671 L550 767 L66 767 L66 0 L572 0 L572 96 L173 96 L173 347 Z " />
<glyph glyph-name="ecaron" unicode="&#x11b;" horiz-adv-x="606" d="M475 767 L390 767 L307 659 L225 767 L141 767 L267 611 L349 611 L475 767 Z M570 276 C568 447 459 552 304 552 C149 552 38 448 38 271 C38 94 149 -10 304 -10 C423 -10 518 54 555 163 L445 163 C420 110 369 78 304 78 C211 78 148 141 141 249 L570 249 L570 276 Z M304 464 C387 464 447 414 464 325 L145 325 C161 414 221 464 304 464 L304 464 Z " />
<glyph glyph-name="Gbreve" unicode="&#x11e;" horiz-adv-x="795" d="M406 839 C515 839 573 895 573 992 L505 992 C505 926 466 897 406 897 C346 897 306 925 306 992 L238 992 C238 898 291 839 406 839 L406 839 Z M434 311 L642 311 C635 174 538 87 403 87 C245 87 145 206 145 384 C145 562 245 680 396 680 C515 680 603 607 628 487 L739 487 C709 665 578 777 396 777 C181 777 38 620 38 384 C38 148 181 -10 396 -10 C499 -10 574 21 627 83 L635 83 L635 0 L742 0 L742 407 L434 407 L434 311 Z " />
<glyph glyph-name="gbreve" unicode="&#x11f;" horiz-adv-x="610" d="M315 614 C424 614 482 670 482 767 L414 767 C414 701 375 672 315 672 C255 672 215 700 215 767 L147 767 C147 673 200 614 315 614 L315 614 Z M442 -225 C513 -225 552 -185 552 -116 L552 542 L450 542 L450 474 L443 474 C408 526 349 552 279 552 C136 552 38 443 38 271 C38 99 136 -10 279 -10 C349 -10 408 16 443 68 L450 68 L450 -88 C450 -119 433 -137 401 -137 L200 -137 C168 -137 152 -119 152 -88 L152 -43 L50 -43 L50 -116 C50 -186 89 -225 159 -225 L442 -225 Z M299 78 C202 78 140 148 140 271 C140 394 202 464 299 464 C395 464 458 395 458 271 C458 147 395 78 299 78 L299 78 Z " />
<glyph glyph-name="Gdotaccent" unicode="&#x120;" horiz-adv-x="795" d="M406 827 C441 827 470 856 470 892 C470 928 441 957 406 957 C369 957 340 928 340 892 C340 856 369 827 406 827 L406 827 Z M434 311 L642 311 C635 174 538 87 403 87 C245 87 145 206 145 384 C145 562 245 680 396 680 C515 680 603 607 628 487 L739 487 C709 665 578 777 396 777 C181 777 38 620 38 384 C38 148 181 -10 396 -10 C499 -10 574 21 627 83 L635 83 L635 0 L742 0 L742 407 L434 407 L434 311 Z " />
<glyph glyph-name="gdotaccent" unicode="&#x121;" horiz-adv-x="610" d="M314 648 C349 648 378 677 378 714 C378 749 349 778 314 778 C277 778 249 749 249 714 C249 677 277 648 314 648 L314 648 Z M442 -225 C513 -225 552 -185 552 -116 L552 542 L450 542 L450 474 L443 474 C408 526 349 552 279 552 C136 552 38 443 38 271 C38 99 136 -10 279 -10 C349 -10 408 16 443 68 L450 68 L450 -88 C450 -119 433 -137 401 -137 L200 -137 C168 -137 152 -119 152 -88 L152 -43 L50 -43 L50 -116 C50 -186 89 -225 159 -225 L442 -225 Z M299 78 C202 78 140 148 140 271 C140 394 202 464 299 464 C395 464 458 395 458 271 C458 147 395 78 299 78 L299 78 Z " />
<glyph glyph-name="uni0122" unicode="&#x122;" horiz-adv-x="795" d="M434 311 L642 311 C635 174 538 87 403 87 C245 87 145 206 145 384 C145 562 245 680 396 680 C515 680 603 607 628 487 L739 487 C709 665 578 777 396 777 C181 777 38 620 38 384 C38 148 181 -10 396 -10 C499 -10 574 21 627 83 L635 83 L635 0 L742 0 L742 407 L434 407 L434 311 Z M406 -48 C371 -48 345 -71 345 -106 C345 -138 368 -161 399 -164 L366 -236 L366 -248 L414 -248 L454 -152 C460 -137 467 -120 467 -105 C467 -72 442 -48 406 -48 L406 -48 Z " />
<glyph glyph-name="uni0123" unicode="&#x123;" horiz-adv-x="610" d="M314 584 C349 584 375 605 375 636 C375 665 352 685 321 688 L355 752 L355 764 L306 764 L267 680 C260 664 253 649 253 635 C253 605 278 584 314 584 L314 584 Z M450 474 L443 474 C408 526 349 552 279 552 C136 552 38 443 38 271 C38 99 136 -10 279 -10 C349 -10 408 16 443 68 L450 68 L450 -88 C450 -119 433 -137 401 -137 L200 -137 C168 -137 152 -119 152 -88 L152 -43 L50 -43 L50 -116 C50 -186 89 -225 159 -225 L442 -225 C513 -225 552 -185 552 -116 L552 542 L450 542 L450 474 Z M299 78 C202 78 140 148 140 271 C140 394 202 464 299 464 C395 464 458 395 458 271 C458 147 395 78 299 78 L299 78 Z " />
<glyph glyph-name="hcircumflex" unicode="&#x125;" horiz-adv-x="573" d="M317 836 L401 836 L275 992 L193 992 L67 836 L152 836 L234 944 L317 836 Z M321 552 C253 552 200 523 169 483 L161 483 L161 767 L59 767 L59 0 L161 0 L161 290 C161 334 165 369 177 393 C196 434 235 460 289 460 C383 460 418 401 418 297 L418 0 L520 0 L520 321 C520 469 449 552 321 552 L321 552 Z " />
<glyph glyph-name="Hbar" unicode="&#x126;" horiz-adv-x="722" d="M656 653 L656 767 L549 767 L549 653 L173 653 L173 767 L66 767 L66 653 L7 653 L7 595 L66 595 L66 0 L173 0 L173 347 L549 347 L549 0 L656 0 L656 595 L714 595 L714 653 L656 653 Z M173 443 L173 595 L549 595 L549 443 L173 443 Z " />
<glyph glyph-name="hbar" unicode="&#x127;" horiz-adv-x="573" d="M321 552 C253 552 200 523 169 483 L161 483 L161 620 L296 620 L296 692 L161 692 L161 767 L59 767 L59 692 L-3 692 L-3 620 L59 620 L59 0 L161 0 L161 290 C161 334 165 369 177 393 C196 434 235 460 289 460 C383 460 418 401 418 297 L418 0 L520 0 L520 321 C520 469 449 552 321 552 L321 552 Z " />
<glyph glyph-name="Itilde" unicode="&#x128;" horiz-adv-x="239" d="M193 847 C257 847 297 901 297 992 L239 992 C239 938 220 907 194 907 C143 907 130 996 50 996 C-16 996 -57 944 -57 853 L-1 853 C-1 906 16 936 46 936 C98 936 105 847 193 847 L193 847 Z M173 0 L173 767 L66 767 L66 0 L173 0 Z " />
<glyph glyph-name="itilde" unicode="&#x129;" horiz-adv-x="219" d="M182 622 C246 622 286 676 286 767 L228 767 C228 713 209 682 183 682 C132 682 119 771 39 771 C-27 771 -68 719 -68 628 L-12 628 C-12 681 5 711 35 711 C87 711 94 622 182 622 L182 622 Z M160 0 L160 542 L58 542 L58 0 L160 0 Z " />
<glyph glyph-name="Imacron" unicode="&#x12a;" horiz-adv-x="239" d="M268 871 L268 929 L-31 929 L-31 871 L268 871 Z M173 0 L173 767 L66 767 L66 0 L173 0 Z " />
<glyph glyph-name="imacron" unicode="&#x12b;" horiz-adv-x="219" d="M258 646 L258 704 L-41 704 L-41 646 L258 646 Z M160 0 L160 542 L58 542 L58 0 L160 0 Z " />
<glyph glyph-name="Iogonek" unicode="&#x12e;" horiz-adv-x="239" d="M173 767 L66 767 L66 0 L105 0 C45 -47 13 -96 13 -139 C13 -195 67 -232 173 -232 L173 -172 C115 -172 87 -150 87 -115 C87 -81 117 -37 173 0 L173 767 Z " />
<glyph glyph-name="iogonek" unicode="&#x12f;" horiz-adv-x="219" d="M109 648 C144 648 173 677 173 714 C173 749 144 778 109 778 C72 778 44 749 44 714 C44 677 72 648 109 648 L109 648 Z M92 0 C32 -47 0 -96 0 -139 C0 -195 54 -232 160 -232 L160 -172 C102 -172 74 -150 74 -115 C74 -81 104 -37 160 0 L160 542 L58 542 L58 0 L92 0 Z " />
<glyph glyph-name="Idotaccent" unicode="&#x130;" horiz-adv-x="239" d="M120 827 C155 827 184 856 184 892 C184 928 155 957 120 957 C83 957 54 928 54 892 C54 856 83 827 120 827 L120 827 Z M173 0 L173 767 L66 767 L66 0 L173 0 Z " />
<glyph glyph-name="dotlessi" unicode="&#x131;" horiz-adv-x="219" d="M160 0 L160 542 L58 542 L58 0 L160 0 Z " />
<glyph glyph-name="IJ" unicode="&#x132;" horiz-adv-x="818" d="M173 0 L173 767 L66 767 L66 0 L173 0 Z M507 -10 C595 -10 661 16 703 63 C752 119 757 193 757 258 L757 767 L386 767 L386 671 L650 671 L650 273 C650 217 644 167 617 132 C594 104 556 86 507 86 C458 86 420 104 398 132 C374 163 365 205 365 258 L257 258 C257 193 262 119 312 63 C354 16 420 -10 507 -10 L507 -10 Z " />
<glyph glyph-name="ij" unicode="&#x133;" horiz-adv-x="448" d="M109 648 C144 648 173 677 173 714 C173 749 144 778 109 778 C72 778 44 749 44 714 C44 677 72 648 109 648 L109 648 Z M337 648 C372 648 401 677 401 714 C401 749 372 778 337 778 C300 778 272 749 272 714 C272 677 300 648 337 648 L337 648 Z M160 0 L160 542 L58 542 L58 0 L160 0 Z M253 -225 C339 -225 388 -176 388 -90 L388 542 L286 542 L286 -90 C286 -114 268 -132 244 -132 L194 -132 L194 -225 L253 -225 Z " />
<glyph glyph-name="uni0136" unicode="&#x136;" horiz-adv-x="696" d="M665 746 L665 767 L534 767 L183 406 L173 406 L173 767 L66 767 L66 0 L173 0 L173 246 L323 398 L331 398 L569 0 L683 0 L683 21 L407 483 L665 746 Z M333 -48 C298 -48 272 -71 272 -106 C272 -138 295 -161 326 -164 L293 -236 L293 -248 L341 -248 L381 -152 C387 -137 394 -120 394 -105 C394 -72 369 -48 333 -48 L333 -48 Z " />
<glyph glyph-name="uni0137" unicode="&#x137;" horiz-adv-x="567" d="M510 515 L510 542 L398 542 L166 298 L161 298 L161 767 L59 767 L59 0 L161 0 L161 160 L271 272 L276 272 L442 0 L548 0 L548 21 L344 347 L510 515 Z M266 -48 C231 -48 205 -71 205 -106 C205 -138 228 -161 259 -164 L226 -236 L226 -248 L274 -248 L314 -152 C320 -137 327 -120 327 -105 C327 -72 302 -48 266 -48 L266 -48 Z " />
<glyph glyph-name="Lacute" unicode="&#x139;" horiz-adv-x="518" d="M155 836 L306 992 L204 992 L83 836 L155 836 Z M512 0 L512 96 L173 96 L173 767 L66 767 L66 0 L512 0 Z " />
<glyph glyph-name="lacute" unicode="&#x13a;" horiz-adv-x="274" d="M161 836 L312 992 L210 992 L89 836 L161 836 Z M250 0 L250 93 L199 93 C175 93 157 111 157 135 L157 767 L55 767 L55 135 C55 49 104 0 190 0 L250 0 Z " />
<glyph glyph-name="uni013B" unicode="&#x13b;" horiz-adv-x="518" d="M173 767 L66 767 L66 0 L512 0 L512 96 L173 96 L173 767 Z M289 -48 C254 -48 228 -71 228 -106 C228 -138 251 -161 282 -164 L249 -236 L249 -248 L297 -248 L337 -152 C343 -137 350 -120 350 -105 C350 -72 325 -48 289 -48 L289 -48 Z " />
<glyph glyph-name="uni013C" unicode="&#x13c;" horiz-adv-x="274" d="M199 93 C175 93 157 111 157 135 L157 767 L55 767 L55 135 C55 49 104 0 190 0 L250 0 L250 93 L199 93 Z M125 -48 C90 -48 64 -71 64 -106 C64 -138 87 -161 118 -164 L85 -236 L85 -248 L133 -248 L173 -152 C179 -137 186 -120 186 -105 C186 -72 161 -48 125 -48 L125 -48 Z " />
<glyph glyph-name="Lcaron" unicode="&#x13d;" horiz-adv-x="518" d="M381 498 L381 484 L437 484 L506 647 C515 666 521 685 521 706 C521 744 490 777 447 777 C401 777 371 744 371 706 C371 666 398 633 442 631 L381 498 Z M66 767 L66 0 L512 0 L512 96 L173 96 L173 767 L66 767 Z " />
<glyph glyph-name="lcaron" unicode="&#x13e;" horiz-adv-x="308" d="M307 777 C261 777 231 744 231 706 C231 666 258 633 302 631 L241 498 L241 484 L297 484 L366 647 C375 666 381 685 381 706 C381 744 350 777 307 777 L307 777 Z M157 767 L55 767 L55 135 C55 49 104 0 190 0 L250 0 L250 93 L199 93 C175 93 157 111 157 135 L157 767 Z " />
<glyph glyph-name="Ldot" unicode="&#x13f;" horiz-adv-x="586" d="M512 0 L512 96 L173 96 L173 767 L66 767 L66 0 L512 0 Z M417 311 C458 311 491 344 491 385 C491 424 457 457 417 457 C374 457 341 424 341 385 C341 344 374 311 417 311 L417 311 Z " />
<glyph glyph-name="ldot" unicode="&#x140;" horiz-adv-x="438" d="M250 0 L250 93 L199 93 C175 93 157 111 157 135 L157 767 L55 767 L55 135 C55 49 104 0 190 0 L250 0 Z M307 304 C348 304 381 338 381 379 C381 418 347 450 307 450 C264 450 231 418 231 379 C231 338 264 304 307 304 L307 304 Z " />
<glyph glyph-name="Lslash" unicode="&#x141;" horiz-adv-x="518" d="M173 358 L328 466 L328 563 L173 455 L173 767 L66 767 L66 381 L-1 334 L-1 236 L66 283 L66 0 L512 0 L512 96 L173 96 L173 358 Z " />
<glyph glyph-name="lslash" unicode="&#x142;" horiz-adv-x="274" d="M254 551 L157 463 L157 767 L55 767 L55 371 L-4 317 L-4 220 L55 273 L55 135 C55 49 104 0 190 0 L250 0 L250 93 L199 93 C175 93 157 111 157 135 L157 365 L254 453 L254 551 Z " />
<glyph glyph-name="Nacute" unicode="&#x143;" horiz-adv-x="762" d="M417 836 L568 992 L466 992 L345 836 L417 836 Z M173 0 L173 671 L184 671 L508 0 L695 0 L695 767 L588 767 L588 95 L577 95 L253 767 L66 767 L66 0 L173 0 Z " />
<glyph glyph-name="nacute" unicode="&#x144;" horiz-adv-x="573" d="M324 611 L475 767 L373 767 L252 611 L324 611 Z M161 0 L161 290 C161 334 165 369 177 393 C196 434 235 460 289 460 C383 460 418 401 418 297 L418 0 L520 0 L520 321 C520 469 449 552 321 552 C253 552 200 523 169 483 L161 483 L161 542 L59 542 L59 0 L161 0 Z " />
<glyph glyph-name="uni0145" unicode="&#x145;" horiz-adv-x="762" d="M588 95 L577 95 L253 767 L66 767 L66 0 L173 0 L173 671 L184 671 L508 0 L695 0 L695 767 L588 767 L588 95 Z M381 -48 C346 -48 320 -71 320 -106 C320 -138 343 -161 374 -164 L341 -236 L341 -248 L389 -248 L429 -152 C435 -137 442 -120 442 -105 C442 -72 417 -48 381 -48 L381 -48 Z " />
<glyph glyph-name="uni0146" unicode="&#x146;" horiz-adv-x="573" d="M321 552 C253 552 200 523 169 483 L161 483 L161 542 L59 542 L59 0 L161 0 L161 290 C161 334 165 369 177 393 C196 434 235 460 289 460 C383 460 418 401 418 297 L418 0 L520 0 L520 321 C520 469 449 552 321 552 L321 552 Z M289 -48 C254 -48 228 -71 228 -106 C228 -138 251 -161 282 -164 L249 -236 L249 -248 L297 -248 L337 -152 C343 -137 350 -120 350 -105 C350 -72 325 -48 289 -48 L289 -48 Z " />
<glyph glyph-name="Ncaron" unicode="&#x147;" horiz-adv-x="762" d="M551 992 L466 992 L383 884 L301 992 L217 992 L343 836 L425 836 L551 992 Z M588 95 L577 95 L253 767 L66 767 L66 0 L173 0 L173 671 L184 671 L508 0 L695 0 L695 767 L588 767 L588 95 Z " />
<glyph glyph-name="ncaron" unicode="&#x148;" horiz-adv-x="573" d="M459 767 L374 767 L291 659 L209 767 L125 767 L251 611 L333 611 L459 767 Z M321 552 C253 552 200 523 169 483 L161 483 L161 542 L59 542 L59 0 L161 0 L161 290 C161 334 165 369 177 393 C196 434 235 460 289 460 C383 460 418 401 418 297 L418 0 L520 0 L520 321 C520 469 449 552 321 552 L321 552 Z " />
<glyph glyph-name="napostrophe" unicode="&#x149;" horiz-adv-x="715" d="M127 777 C81 777 51 744 51 706 C51 666 78 633 122 631 L61 498 L61 484 L117 484 L186 647 C195 666 201 685 201 706 C201 744 170 777 127 777 L127 777 Z M462 552 C394 552 342 523 310 483 L302 483 L302 542 L200 542 L200 0 L302 0 L302 290 C302 334 306 369 319 393 C337 434 377 460 430 460 C525 460 560 401 560 297 L560 0 L662 0 L662 321 C662 469 590 552 462 552 L462 552 Z " />
<glyph glyph-name="Eng" unicode="&#x14a;" horiz-adv-x="762" d="M588 95 L577 95 L253 767 L66 767 L66 0 L173 0 L173 671 L184 671 L508 0 L599 0 L599 -94 C599 -118 580 -137 556 -137 L505 -137 L505 -225 L564 -225 C648 -225 695 -177 695 -94 L695 767 L588 767 L588 95 Z " />
<glyph glyph-name="eng" unicode="&#x14b;" horiz-adv-x="573" d="M321 552 C253 552 200 523 169 483 L161 483 L161 542 L59 542 L59 0 L161 0 L161 290 C161 334 165 369 177 393 C196 434 235 460 289 460 C383 460 418 401 418 297 L418 -90 C418 -114 400 -132 377 -132 L326 -132 L326 -225 L385 -225 C471 -225 520 -176 520 -90 L520 321 C520 469 449 552 321 552 L321 552 Z " />
<glyph glyph-name="Omacron" unicode="&#x14c;" horiz-adv-x="793" d="M545 871 L545 929 L246 929 L246 871 L545 871 Z M396 -10 C611 -10 755 148 755 384 C755 620 611 777 396 777 C181 777 38 620 38 384 C38 148 181 -10 396 -10 L396 -10 Z M396 87 C245 87 145 206 145 384 C145 562 245 680 396 680 C547 680 647 562 647 384 C647 206 547 87 396 87 L396 87 Z " />
<glyph glyph-name="omacron" unicode="&#x14d;" horiz-adv-x="609" d="M453 646 L453 704 L154 704 L154 646 L453 646 Z M304 -10 C458 -10 570 94 570 271 C570 448 458 552 304 552 C149 552 38 448 38 271 C38 94 149 -10 304 -10 L304 -10 Z M304 78 C205 78 140 149 140 271 C140 393 205 464 304 464 C403 464 469 393 469 271 C469 149 403 78 304 78 L304 78 Z " />
<glyph glyph-name="Ohungarumlaut" unicode="&#x150;" horiz-adv-x="793" d="M334 836 L457 992 L371 992 L262 836 L334 836 Z M532 836 L668 992 L566 992 L458 836 L532 836 Z M396 -10 C611 -10 755 148 755 384 C755 620 611 777 396 777 C181 777 38 620 38 384 C38 148 181 -10 396 -10 L396 -10 Z M396 87 C245 87 145 206 145 384 C145 562 245 680 396 680 C547 680 647 562 647 384 C647 206 547 87 396 87 L396 87 Z " />
<glyph glyph-name="ohungarumlaut" unicode="&#x151;" horiz-adv-x="609" d="M242 611 L365 767 L279 767 L170 611 L242 611 Z M440 611 L576 767 L474 767 L366 611 L440 611 Z M304 -10 C458 -10 570 94 570 271 C570 448 458 552 304 552 C149 552 38 448 38 271 C38 94 149 -10 304 -10 L304 -10 Z M304 78 C205 78 140 149 140 271 C140 393 205 464 304 464 C403 464 469 393 469 271 C469 149 403 78 304 78 L304 78 Z " />
<glyph glyph-name="OE" unicode="&#x152;" horiz-adv-x="1187" d="M758 347 L1099 347 L1099 443 L758 443 L758 671 L1134 671 L1134 767 L650 767 L650 676 C587 740 500 777 396 777 C181 777 38 620 38 384 C38 148 181 -10 396 -10 C500 -10 587 27 650 92 L650 0 L1156 0 L1156 96 L758 96 L758 347 Z M396 87 C245 87 145 206 145 384 C145 562 245 680 396 680 C547 680 647 562 647 384 C647 206 547 87 396 87 L396 87 Z " />
<glyph glyph-name="oe" unicode="&#x153;" horiz-adv-x="1042" d="M1006 276 C1004 447 895 552 740 552 C646 552 569 514 522 445 C475 514 397 552 304 552 C149 552 38 448 38 271 C38 94 149 -10 304 -10 C397 -10 475 28 522 97 C569 28 646 -10 740 -10 C859 -10 954 54 990 163 L881 163 C856 110 805 78 740 78 C647 78 583 141 576 249 L1005 249 L1006 276 Z M304 78 C205 78 140 149 140 271 C140 393 205 464 304 464 C403 464 469 393 469 271 C469 149 403 78 304 78 L304 78 Z M740 464 C823 464 883 414 899 325 L580 325 C597 414 657 464 740 464 L740 464 Z " />
<glyph glyph-name="Racute" unicode="&#x154;" horiz-adv-x="629" d="M384 992 L263 836 L335 836 L486 992 L384 992 Z M410 338 C437 345 460 355 479 369 C530 405 558 466 558 547 C558 627 530 688 479 724 C436 756 374 767 290 767 L66 767 L66 0 L173 0 L173 326 L290 326 L291 326 L493 0 L607 0 L607 22 L410 335 L410 338 Z M273 671 C341 671 383 666 414 641 C434 625 451 597 451 547 C451 498 435 470 414 452 C383 427 341 422 273 422 L173 422 L173 671 L273 671 Z " />
<glyph glyph-name="racute" unicode="&#x155;" horiz-adv-x="366" d="M214 611 L365 767 L263 767 L142 611 L214 611 Z M161 0 L161 365 C161 418 191 449 244 449 L349 449 L349 542 L261 542 C218 542 190 527 171 497 L161 497 L161 542 L59 542 L59 0 L161 0 Z " />
<glyph glyph-name="uni0156" unicode="&#x156;" horiz-adv-x="629" d="M410 338 C437 345 460 355 479 369 C530 405 558 466 558 547 C558 627 530 688 479 724 C436 756 374 767 290 767 L66 767 L66 0 L173 0 L173 326 L290 326 L291 326 L493 0 L607 0 L607 22 L410 335 L410 338 Z M273 671 C341 671 383 666 414 641 C434 625 451 597 451 547 C451 498 435 470 414 452 C383 427 341 422 273 422 L173 422 L173 671 L273 671 Z M299 -48 C264 -48 238 -71 238 -106 C238 -138 261 -161 292 -164 L259 -236 L259 -248 L307 -248 L347 -152 C353 -137 360 -120 360 -105 C360 -72 335 -48 299 -48 L299 -48 Z " />
<glyph glyph-name="uni0157" unicode="&#x157;" horiz-adv-x="366" d="M261 542 C218 542 190 527 171 497 L161 497 L161 542 L59 542 L59 0 L161 0 L161 365 C161 418 191 449 244 449 L349 449 L349 542 L261 542 Z M178 -48 C143 -48 117 -71 117 -106 C117 -138 140 -161 171 -164 L138 -236 L138 -248 L186 -248 L226 -152 C232 -137 239 -120 239 -105 C239 -72 214 -48 178 -48 L178 -48 Z " />
<glyph glyph-name="Rcaron" unicode="&#x158;" horiz-adv-x="629" d="M469 992 L384 992 L301 884 L219 992 L135 992 L261 836 L343 836 L469 992 Z M410 338 C437 345 460 355 479 369 C530 405 558 466 558 547 C558 627 530 688 479 724 C436 756 374 767 290 767 L66 767 L66 0 L173 0 L173 326 L290 326 L291 326 L493 0 L607 0 L607 22 L410 335 L410 338 Z M273 671 C341 671 383 666 414 641 C434 625 451 597 451 547 C451 498 435 470 414 452 C383 427 341 422 273 422 L173 422 L173 671 L273 671 Z " />
<glyph glyph-name="rcaron" unicode="&#x159;" horiz-adv-x="366" d="M348 767 L263 767 L180 659 L98 767 L14 767 L140 611 L222 611 L348 767 Z M261 542 C218 542 190 527 171 497 L161 497 L161 542 L59 542 L59 0 L161 0 L161 365 C161 418 191 449 244 449 L349 449 L349 542 L261 542 Z " />
<glyph glyph-name="Sacute" unicode="&#x15a;" horiz-adv-x="681" d="M376 836 L527 992 L425 992 L304 836 L376 836 Z M359 -10 C529 -10 641 78 641 223 C641 339 570 398 461 429 L303 473 C238 491 176 509 176 579 C176 648 235 685 329 685 C438 685 503 636 512 542 L623 542 C615 699 483 777 331 777 C188 777 68 709 68 575 C68 433 193 394 265 374 L394 338 C467 317 534 298 534 213 C534 127 468 83 359 83 C218 83 141 153 141 280 L34 280 C34 89 179 -10 359 -10 L359 -10 Z " />
<glyph glyph-name="sacute" unicode="&#x15b;" horiz-adv-x="532" d="M305 611 L456 767 L354 767 L233 611 L305 611 Z M274 -10 C404 -10 493 54 493 163 C493 249 436 298 337 319 L261 336 C193 351 156 359 156 402 C156 448 201 471 258 471 C321 471 372 444 379 381 L481 381 C471 485 386 552 258 552 C147 552 55 500 55 396 C55 286 158 258 211 246 L310 225 C346 217 391 206 391 152 C391 96 346 71 276 71 C197 71 146 101 137 181 L35 181 C39 56 136 -10 274 -10 L274 -10 Z " />
<glyph glyph-name="Scedilla" unicode="&#x15e;" horiz-adv-x="681" d="M641 223 C641 339 570 398 461 429 L303 473 C238 491 176 509 176 579 C176 648 235 685 329 685 C438 685 503 636 512 542 L623 542 C615 699 483 777 331 777 C188 777 68 709 68 575 C68 433 193 394 265 374 L394 338 C467 317 534 298 534 213 C534 127 468 83 359 83 C218 83 141 153 141 280 L34 280 C34 96 168 -2 338 -10 L289 -91 C310 -91 331 -92 347 -98 C374 -105 388 -122 388 -142 C388 -166 369 -185 336 -185 C313 -185 285 -176 258 -152 L232 -195 C265 -222 301 -233 333 -233 C393 -233 437 -194 437 -142 C437 -105 416 -77 382 -64 C373 -61 364 -59 353 -58 L387 -9 C541 0 641 86 641 223 L641 223 Z " />
<glyph glyph-name="scedilla" unicode="&#x15f;" horiz-adv-x="532" d="M493 163 C493 249 436 298 337 319 L261 336 C193 351 156 359 156 402 C156 448 201 471 258 471 C321 471 372 444 379 381 L481 381 C471 485 386 552 258 552 C147 552 55 500 55 396 C55 286 158 258 211 246 L310 225 C346 217 391 206 391 152 C391 96 346 71 276 71 C197 71 146 101 137 181 L35 181 C39 67 120 2 240 -9 L190 -91 C211 -91 232 -92 248 -98 C275 -105 289 -122 289 -142 C289 -166 270 -185 237 -185 C214 -185 186 -176 159 -152 L133 -195 C166 -222 202 -233 234 -233 C294 -233 338 -194 338 -142 C338 -105 317 -77 283 -64 C274 -61 265 -59 254 -58 L287 -10 C410 -6 493 58 493 163 L493 163 Z " />
<glyph glyph-name="Scaron" unicode="&#x160;" horiz-adv-x="681" d="M511 992 L426 992 L343 884 L261 992 L177 992 L303 836 L385 836 L511 992 Z M303 473 C238 491 176 509 176 579 C176 648 235 685 329 685 C438 685 503 636 512 542 L623 542 C615 699 483 777 331 777 C188 777 68 709 68 575 C68 433 193 394 265 374 L394 338 C467 317 534 298 534 213 C534 127 468 83 359 83 C218 83 141 153 141 280 L34 280 C34 89 179 -10 359 -10 C529 -10 641 78 641 223 C641 339 570 398 461 429 L303 473 Z " />
<glyph glyph-name="scaron" unicode="&#x161;" horiz-adv-x="532" d="M439 767 L354 767 L271 659 L189 767 L105 767 L231 611 L313 611 L439 767 Z M261 336 C193 351 156 359 156 402 C156 448 201 471 258 471 C321 471 372 444 379 381 L481 381 C471 485 386 552 258 552 C147 552 55 500 55 396 C55 286 158 258 211 246 L310 225 C346 217 391 206 391 152 C391 96 346 71 276 71 C197 71 146 101 137 181 L35 181 C39 56 136 -10 274 -10 C404 -10 493 54 493 163 C493 249 436 298 337 319 L261 336 Z " />
<glyph glyph-name="uni0162" unicode="&#x162;" horiz-adv-x="626" d="M367 671 L619 671 L619 767 L6 767 L6 671 L259 671 L259 0 L289 0 L234 -91 C255 -91 276 -92 292 -98 C319 -105 333 -122 333 -142 C333 -166 314 -185 281 -185 C258 -185 230 -176 203 -152 L177 -195 C210 -222 246 -233 278 -233 C338 -233 382 -194 382 -142 C382 -105 361 -77 327 -64 C318 -61 309 -59 298 -58 L338 0 L367 0 L367 671 Z " />
<glyph glyph-name="uni0163" unicode="&#x163;" horiz-adv-x="348" d="M317 542 L209 542 L209 767 L108 767 L108 542 L19 542 L19 449 L108 449 L108 135 C108 69 136 25 189 8 L129 -91 C150 -91 171 -92 187 -98 C214 -105 228 -122 228 -142 C228 -166 209 -185 176 -185 C153 -185 125 -176 98 -152 L72 -195 C105 -222 141 -233 173 -233 C233 -233 277 -194 277 -142 C277 -105 256 -77 222 -64 C213 -61 204 -59 193 -58 L233 0 L242 0 L317 0 L317 93 L251 93 C227 93 209 111 209 135 L209 449 L317 449 L317 542 Z " />
<glyph glyph-name="Tcaron" unicode="&#x164;" horiz-adv-x="626" d="M483 992 L398 992 L315 884 L233 992 L149 992 L275 836 L357 836 L483 992 Z M6 671 L259 671 L259 0 L367 0 L367 671 L619 671 L619 767 L6 767 L6 671 Z " />
<glyph glyph-name="tcaron" unicode="&#x165;" horiz-adv-x="348" d="M338 911 C292 911 262 878 262 840 C262 800 289 767 333 765 L272 632 L272 618 L328 618 L397 781 C406 800 412 819 412 840 C412 878 381 911 338 911 L338 911 Z M108 767 L108 542 L19 542 L19 449 L108 449 L108 135 C108 49 156 0 242 0 L317 0 L317 93 L251 93 C227 93 209 111 209 135 L209 449 L317 449 L317 542 L209 542 L209 767 L108 767 Z " />
<glyph glyph-name="Tbar" unicode="&#x166;" horiz-adv-x="626" d="M619 767 L6 767 L6 671 L259 671 L259 420 L164 420 L164 348 L259 348 L259 0 L367 0 L367 348 L463 348 L463 420 L367 420 L367 671 L619 671 L619 767 Z " />
<glyph glyph-name="tbar" unicode="&#x167;" horiz-adv-x="348" d="M320 307 L209 307 L209 449 L317 449 L317 542 L209 542 L209 767 L108 767 L108 542 L19 542 L19 449 L108 449 L108 307 L21 307 L21 235 L108 235 L108 135 C108 49 156 0 242 0 L317 0 L317 93 L251 93 C227 93 209 111 209 135 L209 235 L320 235 L320 307 Z " />
<glyph glyph-name="Utilde" unicode="&#x168;" horiz-adv-x="688" d="M417 847 C481 847 521 901 521 992 L463 992 C463 938 444 907 418 907 C367 907 354 996 274 996 C208 996 167 944 167 853 L223 853 C223 906 240 936 270 936 C322 936 329 847 417 847 L417 847 Z M344 -10 C540 -10 628 83 628 254 L628 767 L520 767 L520 261 C520 156 479 87 344 87 C210 87 167 152 167 261 L167 767 L59 767 L59 254 C59 86 144 -10 344 -10 L344 -10 Z " />
<glyph glyph-name="utilde" unicode="&#x169;" horiz-adv-x="573" d="M355 622 C419 622 459 676 459 767 L401 767 C401 713 382 682 356 682 C305 682 292 771 212 771 C146 771 105 719 105 628 L161 628 C161 681 178 711 208 711 C260 711 267 622 355 622 L355 622 Z M251 -10 C321 -10 372 20 403 59 L411 59 L411 0 L513 0 L513 542 L411 542 L411 252 C411 209 408 175 394 149 C375 106 335 82 282 82 C189 82 154 141 154 245 L154 542 L52 542 L52 221 C52 73 123 -10 251 -10 L251 -10 Z " />
<glyph glyph-name="Umacron" unicode="&#x16a;" horiz-adv-x="688" d="M492 871 L492 929 L193 929 L193 871 L492 871 Z M344 -10 C540 -10 628 83 628 254 L628 767 L520 767 L520 261 C520 156 479 87 344 87 C210 87 167 152 167 261 L167 767 L59 767 L59 254 C59 86 144 -10 344 -10 L344 -10 Z " />
<glyph glyph-name="umacron" unicode="&#x16b;" horiz-adv-x="573" d="M431 646 L431 704 L132 704 L132 646 L431 646 Z M251 -10 C321 -10 372 20 403 59 L411 59 L411 0 L513 0 L513 542 L411 542 L411 252 C411 209 408 175 394 149 C375 106 335 82 282 82 C189 82 154 141 154 245 L154 542 L52 542 L52 221 C52 73 123 -10 251 -10 L251 -10 Z " />
<glyph glyph-name="Uring" unicode="&#x16e;" horiz-adv-x="688" d="M342 813 C405 813 456 864 456 927 C456 990 404 1039 342 1039 C280 1039 230 989 230 927 C230 865 279 813 342 813 L342 813 Z M342 866 C308 866 283 892 283 927 C283 961 307 986 342 986 C379 986 403 961 403 927 C403 892 377 866 342 866 L342 866 Z M344 -10 C540 -10 628 83 628 254 L628 767 L520 767 L520 261 C520 156 479 87 344 87 C210 87 167 152 167 261 L167 767 L59 767 L59 254 C59 86 144 -10 344 -10 L344 -10 Z " />
<glyph glyph-name="uring" unicode="&#x16f;" horiz-adv-x="573" d="M281 588 C344 588 395 639 395 702 C395 765 343 814 281 814 C219 814 169 764 169 702 C169 640 218 588 281 588 L281 588 Z M281 641 C247 641 222 667 222 702 C222 736 246 761 281 761 C318 761 342 736 342 702 C342 667 316 641 281 641 L281 641 Z M251 -10 C321 -10 372 20 403 59 L411 59 L411 0 L513 0 L513 542 L411 542 L411 252 C411 209 408 175 394 149 C375 106 335 82 282 82 C189 82 154 141 154 245 L154 542 L52 542 L52 221 C52 73 123 -10 251 -10 L251 -10 Z " />
<glyph glyph-name="Uhungarumlaut" unicode="&#x170;" horiz-adv-x="688" d="M281 836 L404 992 L318 992 L209 836 L281 836 Z M479 836 L615 992 L513 992 L405 836 L479 836 Z M344 -10 C540 -10 628 83 628 254 L628 767 L520 767 L520 261 C520 156 479 87 344 87 C210 87 167 152 167 261 L167 767 L59 767 L59 254 C59 86 144 -10 344 -10 L344 -10 Z " />
<glyph glyph-name="uhungarumlaut" unicode="&#x171;" horiz-adv-x="573" d="M220 611 L343 767 L257 767 L148 611 L220 611 Z M418 611 L554 767 L452 767 L344 611 L418 611 Z M251 -10 C321 -10 372 20 403 59 L411 59 L411 0 L513 0 L513 542 L411 542 L411 252 C411 209 408 175 394 149 C375 106 335 82 282 82 C189 82 154 141 154 245 L154 542 L52 542 L52 221 C52 73 123 -10 251 -10 L251 -10 Z " />
<glyph glyph-name="Uogonek" unicode="&#x172;" horiz-adv-x="688" d="M520 261 C520 156 479 87 344 87 C210 87 167 152 167 261 L167 767 L59 767 L59 254 C59 86 144 -10 344 -10 L361 -10 C308 -54 281 -99 281 -139 C281 -195 335 -232 441 -232 L441 -172 C383 -172 355 -150 355 -115 C355 -81 384 -38 439 -1 C569 26 628 114 628 254 L628 767 L520 767 L520 261 Z " />
<glyph glyph-name="uogonek" unicode="&#x173;" horiz-adv-x="573" d="M513 542 L411 542 L411 252 C411 209 408 175 394 149 C375 106 335 82 282 82 C189 82 154 141 154 245 L154 542 L52 542 L52 221 C52 73 123 -10 251 -10 C321 -10 372 20 403 59 L411 59 L411 0 L445 0 C385 -47 353 -96 353 -139 C353 -195 407 -232 513 -232 L513 -172 C455 -172 427 -150 427 -115 C427 -81 457 -37 513 0 L513 542 Z " />
<glyph glyph-name="Wcircumflex" unicode="&#x174;" horiz-adv-x="1151" d="M658 836 L742 836 L616 992 L534 992 L408 836 L493 836 L575 944 L658 836 Z M803 119 L793 119 L667 767 L483 767 L357 119 L347 119 L118 767 L11 767 L11 746 L279 0 L441 0 L571 680 L579 680 L709 0 L871 0 L1139 746 L1139 767 L1032 767 L803 119 Z " />
<glyph glyph-name="wcircumflex" unicode="&#x175;" horiz-adv-x="921" d="M543 611 L627 611 L501 767 L419 767 L293 611 L378 611 L460 719 L543 611 Z M639 89 L628 89 L541 542 L379 542 L292 89 L281 89 L123 542 L15 542 L209 0 L368 0 L455 449 L466 449 L553 0 L713 0 L905 542 L797 542 L639 89 Z " />
<glyph glyph-name="Ycircumflex" unicode="&#x176;" horiz-adv-x="675" d="M420 836 L504 836 L378 992 L296 992 L170 836 L255 836 L337 944 L420 836 Z M341 405 L333 405 L118 767 L5 767 L5 746 L283 286 L283 0 L391 0 L391 286 L669 746 L669 767 L556 767 L341 405 Z " />
<glyph glyph-name="ycircumflex" unicode="&#x177;" horiz-adv-x="575" d="M369 611 L453 611 L327 767 L245 767 L119 611 L204 611 L286 719 L369 611 Z M292 88 L282 88 L123 542 L15 542 L208 0 L262 0 L230 -85 C219 -113 194 -131 162 -131 L61 -131 L61 -224 L186 -224 C245 -224 292 -192 313 -136 L366 0 L559 542 L450 542 L292 88 Z " />
<glyph glyph-name="Ydieresis" unicode="&#x178;" horiz-adv-x="675" d="M235 827 C270 827 299 856 299 892 C299 928 270 957 235 957 C198 957 169 928 169 892 C169 856 198 827 235 827 L235 827 Z M440 827 C475 827 505 856 505 892 C505 928 475 957 440 957 C404 957 374 928 374 892 C374 856 404 827 440 827 L440 827 Z M391 0 L391 286 L669 746 L669 767 L556 767 L341 405 L333 405 L118 767 L5 767 L5 746 L283 286 L283 0 L391 0 Z " />
<glyph glyph-name="Zacute" unicode="&#x179;" horiz-adv-x="649" d="M360 836 L511 992 L409 992 L288 836 L360 836 Z M622 0 L622 96 L136 96 L136 106 L610 616 L610 767 L46 767 L46 671 L501 671 L501 660 L28 151 L28 0 L622 0 Z " />
<glyph glyph-name="zacute" unicode="&#x17a;" horiz-adv-x="522" d="M298 611 L449 767 L347 767 L226 611 L298 611 Z M486 0 L486 93 L148 93 L148 101 L480 402 L480 542 L49 542 L49 449 L366 449 L366 440 L35 139 L35 0 L486 0 Z " />
<glyph glyph-name="Zdotaccent" unicode="&#x17b;" horiz-adv-x="649" d="M325 827 C360 827 389 856 389 892 C389 928 360 957 325 957 C288 957 259 928 259 892 C259 856 288 827 325 827 L325 827 Z M622 0 L622 96 L136 96 L136 106 L610 616 L610 767 L46 767 L46 671 L501 671 L501 660 L28 151 L28 0 L622 0 Z " />
<glyph glyph-name="zdotaccent" unicode="&#x17c;" horiz-adv-x="522" d="M262 648 C297 648 326 677 326 714 C326 749 297 778 262 778 C225 778 197 749 197 714 C197 677 225 648 262 648 L262 648 Z M486 0 L486 93 L148 93 L148 101 L480 402 L480 542 L49 542 L49 449 L366 449 L366 440 L35 139 L35 0 L486 0 Z " />
<glyph glyph-name="Zcaron" unicode="&#x17d;" horiz-adv-x="649" d="M495 992 L410 992 L327 884 L245 992 L161 992 L287 836 L369 836 L495 992 Z M136 106 L610 616 L610 767 L46 767 L46 671 L501 671 L501 660 L28 151 L28 0 L622 0 L622 96 L136 96 L136 106 Z " />
<glyph glyph-name="zcaron" unicode="&#x17e;" horiz-adv-x="522" d="M432 767 L347 767 L264 659 L182 767 L98 767 L224 611 L306 611 L432 767 Z M148 101 L480 402 L480 542 L49 542 L49 449 L366 449 L366 440 L35 139 L35 0 L486 0 L486 93 L148 93 L148 101 Z " />
<glyph glyph-name="florin" unicode="&#x192;" horiz-adv-x="490" d="M55 -243 C205 -243 286 -174 286 -19 L286 470 L425 470 L425 542 L286 542 L286 598 C286 660 318 688 374 688 L425 688 L425 769 L387 769 C264 769 206 706 206 591 L206 542 L111 542 L111 470 L206 470 L206 -11 C206 -130 165 -171 55 -171 L55 -243 Z " />
<glyph glyph-name="Ohorn" unicode="&#x1a0;" horiz-adv-x="793" d="M743 785 C743 715 729 674 656 669 C594 738 504 777 396 777 C181 777 38 620 38 384 C38 148 181 -10 396 -10 C611 -10 755 148 755 384 C755 469 737 543 703 604 C793 619 824 672 824 784 L824 842 L743 842 L743 785 Z M396 87 C245 87 145 206 145 384 C145 562 245 680 396 680 C547 680 647 562 647 384 C647 206 547 87 396 87 L396 87 Z " />
<glyph glyph-name="ohorn" unicode="&#x1a1;" horiz-adv-x="609" d="M558 570 C558 514 549 477 509 462 C462 520 389 552 304 552 C149 552 38 448 38 271 C38 94 149 -10 304 -10 C458 -10 570 94 570 271 C570 318 562 360 548 396 C615 417 639 470 639 569 L639 627 L558 627 L558 570 Z M304 78 C205 78 140 149 140 271 C140 393 205 464 304 464 C403 464 469 393 469 271 C469 149 403 78 304 78 L304 78 Z " />
<glyph glyph-name="Uhorn" unicode="&#x1af;" horiz-adv-x="688" d="M699 791 C699 726 687 687 628 677 L628 767 L520 767 L520 261 C520 156 479 87 344 87 C210 87 167 152 167 261 L167 767 L59 767 L59 254 C59 86 144 -10 344 -10 C540 -10 628 83 628 254 L628 606 C742 614 780 666 780 790 L780 848 L699 848 L699 791 Z " />
<glyph glyph-name="uhorn" unicode="&#x1b0;" horiz-adv-x="573" d="M582 659 C582 583 566 542 477 542 L411 542 L411 252 C411 209 408 175 394 149 C375 106 335 82 282 82 C189 82 154 141 154 245 L154 542 L52 542 L52 221 C52 73 123 -10 251 -10 C321 -10 372 20 403 59 L411 59 L411 0 L513 0 L513 474 C625 483 663 534 663 658 L663 716 L582 716 L582 659 Z " />
<glyph glyph-name="uni01C4" unicode="&#x1c4;" horiz-adv-x="1385" d="M1231 992 L1146 992 L1063 884 L981 992 L897 992 L1023 836 L1105 836 L1231 992 Z M599 674 C526 738 422 767 302 767 L65 767 L65 0 L301 0 C420 0 523 28 597 90 C669 151 713 247 713 382 C713 517 670 612 599 674 L599 674 Z M872 106 L1346 616 L1346 767 L782 767 L782 671 L1237 671 L1237 660 L764 151 L764 0 L1358 0 L1358 96 L872 96 L872 106 Z M530 171 C473 117 390 96 300 96 L173 96 L173 671 L300 671 C392 671 475 650 532 594 C578 548 606 478 606 382 C606 286 577 217 530 171 L530 171 Z " />
<glyph glyph-name="uni01C5" unicode="&#x1c5;" horiz-adv-x="1271" d="M599 674 C526 738 422 767 302 767 L65 767 L65 0 L301 0 C420 0 523 28 597 90 C669 151 713 247 713 382 C713 517 670 612 599 674 L599 674 Z M1181 767 L1096 767 L1013 659 L931 767 L847 767 L972 611 L1054 611 L1181 767 Z M530 171 C473 117 390 96 300 96 L173 96 L173 671 L300 671 C392 671 475 650 532 594 C578 548 606 478 606 382 C606 286 577 217 530 171 L530 171 Z M897 101 L1229 402 L1229 542 L798 542 L798 449 L1115 449 L1115 440 L784 139 L784 0 L1235 0 L1235 93 L897 93 L897 101 Z " />
<glyph glyph-name="uni01C6" unicode="&#x1c6;" horiz-adv-x="1132" d="M443 474 C408 526 349 552 279 552 C136 552 38 443 38 271 C38 99 136 -10 279 -10 C349 -10 408 16 443 68 L450 68 L450 0 L552 0 L552 767 L450 767 L450 474 L443 474 Z M1042 767 L957 767 L874 659 L792 767 L708 767 L833 611 L915 611 L1042 767 Z M758 101 L1090 402 L1090 542 L659 542 L659 449 L976 449 L976 440 L645 139 L645 0 L1096 0 L1096 93 L758 93 L758 101 Z M299 78 C202 78 140 148 140 271 C140 394 202 464 299 464 C395 464 458 395 458 271 C458 147 395 78 299 78 L299 78 Z " />
<glyph glyph-name="uni01C7" unicode="&#x1c7;" horiz-adv-x="1097" d="M512 0 L512 96 L173 96 L173 767 L66 767 L66 0 L512 0 Z M786 -10 C874 -10 940 16 982 63 C1031 119 1036 193 1036 258 L1036 767 L665 767 L665 671 L929 671 L929 273 C929 217 923 167 896 132 C873 104 835 86 786 86 C737 86 699 104 677 132 C653 163 644 205 644 258 L536 258 C536 193 541 119 591 63 C633 16 699 -10 786 -10 L786 -10 Z " />
<glyph glyph-name="uni01C8" unicode="&#x1c8;" horiz-adv-x="747" d="M636 648 C671 648 700 677 700 714 C700 749 671 778 636 778 C599 778 571 749 571 714 C571 677 599 648 636 648 L636 648 Z M512 0 L512 96 L173 96 L173 767 L66 767 L66 0 L512 0 Z M552 -225 C638 -225 687 -176 687 -90 L687 542 L585 542 L585 -90 C585 -114 567 -132 543 -132 L493 -132 L493 -225 L552 -225 Z " />
<glyph glyph-name="uni01C9" unicode="&#x1c9;" horiz-adv-x="503" d="M392 648 C427 648 456 677 456 714 C456 749 427 778 392 778 C355 778 327 749 327 714 C327 677 355 648 392 648 L392 648 Z M250 0 L250 93 L199 93 C175 93 157 111 157 135 L157 767 L55 767 L55 135 C55 49 104 0 190 0 L250 0 Z M308 -225 C394 -225 443 -176 443 -90 L443 542 L341 542 L341 -90 C341 -114 323 -132 299 -132 L249 -132 L249 -225 L308 -225 Z " />
<glyph glyph-name="uni01CA" unicode="&#x1ca;" horiz-adv-x="1341" d="M173 0 L173 671 L184 671 L508 0 L695 0 L695 767 L588 767 L588 95 L577 95 L253 767 L66 767 L66 0 L173 0 Z M1030 -10 C1118 -10 1184 16 1226 63 C1275 119 1280 193 1280 258 L1280 767 L909 767 L909 671 L1173 671 L1173 273 C1173 217 1167 167 1140 132 C1117 104 1079 86 1030 86 C981 86 943 104 921 132 C897 163 888 205 888 258 L780 258 C780 193 785 119 835 63 C877 16 943 -10 1030 -10 L1030 -10 Z " />
<glyph glyph-name="uni01CB" unicode="&#x1cb;" horiz-adv-x="991" d="M880 648 C915 648 944 677 944 714 C944 749 915 778 880 778 C843 778 815 749 815 714 C815 677 843 648 880 648 L880 648 Z M173 0 L173 671 L184 671 L508 0 L695 0 L695 767 L588 767 L588 95 L577 95 L253 767 L66 767 L66 0 L173 0 Z M796 -225 C882 -225 931 -176 931 -90 L931 542 L829 542 L829 -90 C829 -114 811 -132 787 -132 L737 -132 L737 -225 L796 -225 Z " />
<glyph glyph-name="uni01CC" unicode="&#x1cc;" horiz-adv-x="802" d="M691 648 C726 648 755 677 755 714 C755 749 726 778 691 778 C654 778 626 749 626 714 C626 677 654 648 691 648 L691 648 Z M161 0 L161 290 C161 334 165 369 177 393 C196 434 235 460 289 460 C383 460 418 401 418 297 L418 0 L520 0 L520 321 C520 469 449 552 321 552 C253 552 200 523 169 483 L161 483 L161 542 L59 542 L59 0 L161 0 Z M607 -225 C693 -225 742 -176 742 -90 L742 542 L640 542 L640 -90 C640 -114 622 -132 598 -132 L548 -132 L548 -225 L607 -225 Z " />
<glyph glyph-name="uni01CD" unicode="&#x1cd;" horiz-adv-x="706" d="M522 992 L437 992 L354 884 L272 992 L188 992 L314 836 L396 836 L522 992 Z M280 767 L11 21 L11 0 L119 0 L179 173 L527 173 L587 0 L694 0 L694 21 L426 767 L280 767 Z M347 655 L358 655 L493 270 L213 270 L347 655 Z " />
<glyph glyph-name="uni01CE" unicode="&#x1ce;" horiz-adv-x="548" d="M451 767 L366 767 L283 659 L201 767 L117 767 L243 611 L325 611 L451 767 Z M473 455 C441 522 367 551 276 551 C131 551 63 479 55 381 L158 381 C163 431 199 471 274 471 C355 471 392 427 392 360 L392 325 L244 325 C125 325 40 278 40 160 C40 54 115 -9 228 -9 C296 -9 346 17 383 70 L392 70 L392 0 L493 0 L493 328 C493 366 492 415 473 455 L473 455 Z M241 75 C180 75 142 107 142 161 C142 230 190 249 257 249 L392 249 C389 146 348 75 241 75 L241 75 Z " />
<glyph glyph-name="uni01CF" unicode="&#x1cf;" horiz-adv-x="239" d="M289 992 L204 992 L121 884 L39 992 L-45 992 L81 836 L163 836 L289 992 Z M173 0 L173 767 L66 767 L66 0 L173 0 Z " />
<glyph glyph-name="uni01D0" unicode="&#x1d0;" horiz-adv-x="219" d="M279 767 L194 767 L111 659 L29 767 L-55 767 L71 611 L153 611 L279 767 Z M160 0 L160 542 L58 542 L58 0 L160 0 Z " />
<glyph glyph-name="uni01D1" unicode="&#x1d1;" horiz-adv-x="793" d="M566 992 L481 992 L398 884 L316 992 L232 992 L358 836 L440 836 L566 992 Z M396 777 C181 777 38 620 38 384 C38 148 181 -10 396 -10 C611 -10 755 148 755 384 C755 620 611 777 396 777 L396 777 Z M396 87 C245 87 145 206 145 384 C145 562 245 680 396 680 C547 680 647 562 647 384 C647 206 547 87 396 87 L396 87 Z " />
<glyph glyph-name="uni01D2" unicode="&#x1d2;" horiz-adv-x="609" d="M474 767 L389 767 L306 659 L224 767 L140 767 L266 611 L348 611 L474 767 Z M304 552 C149 552 38 448 38 271 C38 94 149 -10 304 -10 C458 -10 570 94 570 271 C570 448 458 552 304 552 L304 552 Z M304 78 C205 78 140 149 140 271 C140 393 205 464 304 464 C403 464 469 393 469 271 C469 149 403 78 304 78 L304 78 Z " />
<glyph glyph-name="uni01D3" unicode="&#x1d3;" horiz-adv-x="688" d="M513 992 L428 992 L345 884 L263 992 L179 992 L305 836 L387 836 L513 992 Z M520 261 C520 156 479 87 344 87 C210 87 167 152 167 261 L167 767 L59 767 L59 254 C59 86 144 -10 344 -10 C540 -10 628 83 628 254 L628 767 L520 767 L520 261 Z " />
<glyph glyph-name="uni01D4" unicode="&#x1d4;" horiz-adv-x="573" d="M452 767 L367 767 L284 659 L202 767 L118 767 L244 611 L326 611 L452 767 Z M411 252 C411 209 408 175 394 149 C375 106 335 82 282 82 C189 82 154 141 154 245 L154 542 L52 542 L52 221 C52 73 123 -10 251 -10 C321 -10 372 20 403 59 L411 59 L411 0 L513 0 L513 542 L411 542 L411 252 Z " />
<glyph glyph-name="uni01D5" unicode="&#x1d5;" horiz-adv-x="688" d="M492 1061 L492 1119 L193 1119 L193 1061 L492 1061 Z M241 827 C276 827 305 856 305 892 C305 928 276 957 241 957 C204 957 175 928 175 892 C175 856 204 827 241 827 L241 827 Z M446 827 C481 827 511 856 511 892 C511 928 481 957 446 957 C410 957 380 928 380 892 C380 856 410 827 446 827 L446 827 Z M344 -10 C540 -10 628 83 628 254 L628 767 L520 767 L520 261 C520 156 479 87 344 87 C210 87 167 152 167 261 L167 767 L59 767 L59 254 C59 86 144 -10 344 -10 L344 -10 Z " />
<glyph glyph-name="uni01D6" unicode="&#x1d6;" horiz-adv-x="573" d="M431 882 L431 940 L132 940 L132 882 L431 882 Z M180 648 C215 648 244 677 244 714 C244 749 215 778 180 778 C143 778 115 749 115 714 C115 677 143 648 180 648 L180 648 Z M386 648 C420 648 450 677 450 714 C450 749 420 778 386 778 C349 778 320 749 320 714 C320 677 349 648 386 648 L386 648 Z M251 -10 C321 -10 372 20 403 59 L411 59 L411 0 L513 0 L513 542 L411 542 L411 252 C411 209 408 175 394 149 C375 106 335 82 282 82 C189 82 154 141 154 245 L154 542 L52 542 L52 221 C52 73 123 -10 251 -10 L251 -10 Z " />
<glyph glyph-name="uni01D7" unicode="&#x1d7;" horiz-adv-x="688" d="M379 1026 L530 1182 L428 1182 L307 1026 L379 1026 Z M241 827 C276 827 305 856 305 892 C305 928 276 957 241 957 C204 957 175 928 175 892 C175 856 204 827 241 827 L241 827 Z M446 827 C481 827 511 856 511 892 C511 928 481 957 446 957 C410 957 380 928 380 892 C380 856 410 827 446 827 L446 827 Z M344 -10 C540 -10 628 83 628 254 L628 767 L520 767 L520 261 C520 156 479 87 344 87 C210 87 167 152 167 261 L167 767 L59 767 L59 254 C59 86 144 -10 344 -10 L344 -10 Z " />
<glyph glyph-name="uni01D8" unicode="&#x1d8;" horiz-adv-x="573" d="M318 847 L469 1003 L367 1003 L246 847 L318 847 Z M180 648 C215 648 244 677 244 714 C244 749 215 778 180 778 C143 778 115 749 115 714 C115 677 143 648 180 648 L180 648 Z M386 648 C420 648 450 677 450 714 C450 749 420 778 386 778 C349 778 320 749 320 714 C320 677 349 648 386 648 L386 648 Z M251 -10 C321 -10 372 20 403 59 L411 59 L411 0 L513 0 L513 542 L411 542 L411 252 C411 209 408 175 394 149 C375 106 335 82 282 82 C189 82 154 141 154 245 L154 542 L52 542 L52 221 C52 73 123 -10 251 -10 L251 -10 Z " />
<glyph glyph-name="uni01D9" unicode="&#x1d9;" horiz-adv-x="688" d="M513 1182 L428 1182 L345 1074 L263 1182 L179 1182 L305 1026 L387 1026 L513 1182 Z M241 827 C276 827 305 856 305 892 C305 928 276 957 241 957 C204 957 175 928 175 892 C175 856 204 827 241 827 L241 827 Z M380 892 C380 856 410 827 446 827 C481 827 511 856 511 892 C511 928 481 957 446 957 C410 957 380 928 380 892 L380 892 Z M520 261 C520 156 479 87 344 87 C210 87 167 152 167 261 L167 767 L59 767 L59 254 C59 86 144 -10 344 -10 C540 -10 628 83 628 254 L628 767 L520 767 L520 261 Z " />
<glyph glyph-name="uni01DA" unicode="&#x1da;" horiz-adv-x="573" d="M452 1003 L367 1003 L284 895 L202 1003 L118 1003 L244 847 L326 847 L452 1003 Z M180 648 C215 648 244 677 244 714 C244 749 215 778 180 778 C143 778 115 749 115 714 C115 677 143 648 180 648 L180 648 Z M320 714 C320 677 349 648 386 648 C420 648 450 677 450 714 C450 749 420 778 386 778 C349 778 320 749 320 714 L320 714 Z M411 252 C411 209 408 175 394 149 C375 106 335 82 282 82 C189 82 154 141 154 245 L154 542 L52 542 L52 221 C52 73 123 -10 251 -10 C321 -10 372 20 403 59 L411 59 L411 0 L513 0 L513 542 L411 542 L411 252 Z " />
<glyph glyph-name="uni01DB" unicode="&#x1db;" horiz-adv-x="688" d="M380 1026 L265 1182 L164 1182 L307 1026 L380 1026 Z M241 827 C276 827 305 856 305 892 C305 928 276 957 241 957 C204 957 175 928 175 892 C175 856 204 827 241 827 L241 827 Z M446 827 C481 827 511 856 511 892 C511 928 481 957 446 957 C410 957 380 928 380 892 C380 856 410 827 446 827 L446 827 Z M344 -10 C540 -10 628 83 628 254 L628 767 L520 767 L520 261 C520 156 479 87 344 87 C210 87 167 152 167 261 L167 767 L59 767 L59 254 C59 86 144 -10 344 -10 L344 -10 Z " />
<glyph glyph-name="uni01DC" unicode="&#x1dc;" horiz-adv-x="573" d="M319 847 L204 1003 L103 1003 L246 847 L319 847 Z M180 648 C215 648 244 677 244 714 C244 749 215 778 180 778 C143 778 115 749 115 714 C115 677 143 648 180 648 L180 648 Z M386 648 C420 648 450 677 450 714 C450 749 420 778 386 778 C349 778 320 749 320 714 C320 677 349 648 386 648 L386 648 Z M251 -10 C321 -10 372 20 403 59 L411 59 L411 0 L513 0 L513 542 L411 542 L411 252 C411 209 408 175 394 149 C375 106 335 82 282 82 C189 82 154 141 154 245 L154 542 L52 542 L52 221 C52 73 123 -10 251 -10 L251 -10 Z " />
<glyph glyph-name="Gcaron" unicode="&#x1e6;" horiz-adv-x="795" d="M575 992 L490 992 L407 884 L325 992 L241 992 L367 836 L449 836 L575 992 Z M434 311 L642 311 C635 174 538 87 403 87 C245 87 145 206 145 384 C145 562 245 680 396 680 C515 680 603 607 628 487 L739 487 C709 665 578 777 396 777 C181 777 38 620 38 384 C38 148 181 -10 396 -10 C499 -10 574 21 627 83 L635 83 L635 0 L742 0 L742 407 L434 407 L434 311 Z " />
<glyph glyph-name="uni01EB" unicode="&#x1eb;" horiz-adv-x="609" d="M381 0 C494 29 570 125 570 271 C570 448 458 552 304 552 C149 552 38 448 38 271 C38 95 148 -9 301 -10 C249 -54 222 -99 222 -139 C222 -195 276 -232 382 -232 L382 -172 C324 -172 296 -150 296 -115 C296 -81 326 -37 381 0 L381 0 Z M140 271 C140 393 205 464 304 464 C403 464 469 393 469 271 C469 149 403 78 304 78 C205 78 140 149 140 271 L140 271 Z " />
<glyph glyph-name="uni01F1" unicode="&#x1f1;" horiz-adv-x="1385" d="M301 0 C420 0 523 28 597 90 C669 151 713 247 713 382 C713 517 670 612 599 674 C526 738 422 767 302 767 L65 767 L65 0 L301 0 Z M1358 0 L1358 96 L872 96 L872 106 L1346 616 L1346 767 L782 767 L782 671 L1237 671 L1237 660 L764 151 L764 0 L1358 0 Z M173 671 L300 671 C392 671 475 650 532 594 C578 548 606 478 606 382 C606 286 577 217 530 171 C473 117 390 96 300 96 L173 96 L173 671 Z " />
<glyph glyph-name="uni01F2" unicode="&#x1f2;" horiz-adv-x="1271" d="M301 0 C420 0 523 28 597 90 C669 151 713 247 713 382 C713 517 670 612 599 674 C526 738 422 767 302 767 L65 767 L65 0 L301 0 Z M173 671 L300 671 C392 671 475 650 532 594 C578 548 606 478 606 382 C606 286 577 217 530 171 C473 117 390 96 300 96 L173 96 L173 671 Z M1235 0 L1235 93 L897 93 L897 101 L1229 402 L1229 542 L798 542 L798 449 L1115 449 L1115 440 L784 139 L784 0 L1235 0 Z " />
<glyph glyph-name="uni01F3" unicode="&#x1f3;" horiz-adv-x="1132" d="M279 -10 C349 -10 408 16 443 68 L450 68 L450 0 L552 0 L552 767 L450 767 L450 474 L443 474 C408 526 349 552 279 552 C136 552 38 443 38 271 C38 99 136 -10 279 -10 L279 -10 Z M1096 0 L1096 93 L758 93 L758 101 L1090 402 L1090 542 L659 542 L659 449 L976 449 L976 440 L645 139 L645 0 L1096 0 Z M299 78 C202 78 140 148 140 271 C140 394 202 464 299 464 C395 464 458 395 458 271 C458 147 395 78 299 78 L299 78 Z " />
<glyph glyph-name="Aringacute" unicode="&#x1fa;" horiz-adv-x="706" d="M433 748 C453 769 465 797 465 828 C465 866 446 899 417 920 L538 1045 L436 1045 L355 940 L352 940 C290 940 240 889 240 828 C240 797 252 768 273 747 L11 21 L11 0 L119 0 L179 173 L527 173 L587 0 L694 0 L694 21 L433 748 Z M352 887 C388 887 412 862 412 828 C412 793 387 767 352 767 C318 767 292 792 292 828 C292 862 317 887 352 887 L352 887 Z M347 655 L358 655 L493 270 L213 270 L347 655 Z " />
<glyph glyph-name="aringacute" unicode="&#x1fb;" horiz-adv-x="548" d="M280 588 C343 588 394 639 394 702 C394 741 374 774 345 794 L467 920 L365 920 L283 814 L280 814 C218 814 168 764 168 702 C168 640 217 588 280 588 L280 588 Z M280 761 C317 761 341 736 341 702 C341 667 315 641 280 641 C246 641 221 667 221 702 C221 736 245 761 280 761 L280 761 Z M473 455 C441 522 367 551 276 551 C131 551 63 479 55 381 L158 381 C163 431 199 471 274 471 C355 471 392 427 392 360 L392 325 L244 325 C125 325 40 278 40 160 C40 54 115 -9 228 -9 C296 -9 346 17 383 70 L392 70 L392 0 L493 0 L493 328 C493 366 492 415 473 455 L473 455 Z M241 75 C180 75 142 107 142 161 C142 230 190 249 257 249 L392 249 C389 146 348 75 241 75 L241 75 Z " />
<glyph glyph-name="aeacute" unicode="&#x1fd;" horiz-adv-x="967" d="M565 767 L444 611 L516 611 L667 767 L565 767 Z M932 276 C930 447 821 552 666 552 C583 552 512 522 464 466 C429 525 359 551 274 551 C131 551 63 479 55 382 L152 382 C158 435 195 474 273 474 C357 474 395 430 395 360 L395 324 L242 324 C124 324 40 277 40 160 C40 54 115 -9 234 -9 C328 -9 393 34 427 111 L439 111 C484 33 566 -10 666 -10 C784 -10 879 54 916 163 L807 163 C781 110 731 78 666 78 C572 78 509 141 502 249 L931 249 L932 276 Z M666 464 C749 464 808 414 825 325 L506 325 C522 414 582 464 666 464 L666 464 Z M240 70 C176 70 137 104 137 160 C137 229 182 251 254 251 L395 251 C393 145 349 70 240 70 L240 70 Z " />
<glyph glyph-name="Oslashacute" unicode="&#x1fe;" horiz-adv-x="793" d="M481 992 L360 836 L432 836 L583 992 L481 992 Z M667 753 L603 793 L568 737 C519 763 461 777 396 777 C181 777 38 620 38 384 C38 251 83 143 161 74 L124 14 L187 -24 L221 32 C272 5 330 -10 396 -10 C611 -10 755 148 755 384 C755 517 709 625 631 694 L667 753 Z M145 384 C145 562 245 680 396 680 C441 680 481 670 515 651 L217 165 C171 217 145 293 145 384 L145 384 Z M396 87 C350 87 310 98 275 118 L574 603 C621 551 647 476 647 384 C647 206 547 87 396 87 L396 87 Z " />
<glyph glyph-name="oslashacute" unicode="&#x1ff;" horiz-adv-x="609" d="M389 767 L268 611 L340 611 L491 767 L389 767 Z M517 553 L461 587 L424 527 C389 544 348 552 304 552 C149 552 38 448 38 271 C38 173 72 97 129 49 L92 -11 L148 -45 L185 14 C220 -2 260 -10 304 -10 C458 -10 570 94 570 271 C570 369 536 444 479 492 L517 553 Z M140 271 C140 393 205 464 304 464 C331 464 355 459 376 449 L181 133 C155 166 140 213 140 271 L140 271 Z M304 78 C278 78 254 83 233 93 L428 408 C454 376 469 329 469 271 C469 149 403 78 304 78 L304 78 Z " />
<glyph glyph-name="uni0218" unicode="&#x218;" horiz-adv-x="681" d="M303 473 C238 491 176 509 176 579 C176 648 235 685 329 685 C438 685 503 636 512 542 L623 542 C615 699 483 777 331 777 C188 777 68 709 68 575 C68 433 193 394 265 374 L394 338 C467 317 534 298 534 213 C534 127 468 83 359 83 C218 83 141 153 141 280 L34 280 C34 89 179 -10 359 -10 C529 -10 641 78 641 223 C641 339 570 398 461 429 L303 473 Z M368 -48 C333 -48 307 -71 307 -106 C307 -138 330 -161 361 -164 L328 -236 L328 -248 L376 -248 L416 -152 C422 -137 429 -120 429 -105 C429 -72 404 -48 368 -48 L368 -48 Z " />
<glyph glyph-name="uni0219" unicode="&#x219;" horiz-adv-x="532" d="M261 336 C193 351 156 359 156 402 C156 448 201 471 258 471 C321 471 372 444 379 381 L481 381 C471 485 386 552 258 552 C147 552 55 500 55 396 C55 286 158 258 211 246 L310 225 C346 217 391 206 391 152 C391 96 346 71 276 71 C197 71 146 101 137 181 L35 181 C39 56 136 -10 274 -10 C404 -10 493 54 493 163 C493 249 436 298 337 319 L261 336 Z M269 -48 C234 -48 208 -71 208 -106 C208 -138 231 -161 262 -164 L229 -236 L229 -248 L277 -248 L317 -152 C323 -137 330 -120 330 -105 C330 -72 305 -48 269 -48 L269 -48 Z " />
<glyph glyph-name="uni021A" unicode="&#x21a;" horiz-adv-x="626" d="M6 671 L259 671 L259 0 L367 0 L367 671 L619 671 L619 767 L6 767 L6 671 Z M313 -48 C278 -48 252 -71 252 -106 C252 -138 275 -161 306 -164 L273 -236 L273 -248 L321 -248 L361 -152 C367 -137 374 -120 374 -105 C374 -72 349 -48 313 -48 L313 -48 Z " />
<glyph glyph-name="uni021B" unicode="&#x21b;" horiz-adv-x="348" d="M317 542 L209 542 L209 767 L108 767 L108 542 L19 542 L19 449 L108 449 L108 135 C108 49 156 0 242 0 L317 0 L317 93 L251 93 C227 93 209 111 209 135 L209 449 L317 449 L317 542 Z M208 -48 C173 -48 147 -71 147 -106 C147 -138 170 -161 201 -164 L168 -236 L168 -248 L216 -248 L256 -152 C262 -137 269 -120 269 -105 C269 -72 244 -48 208 -48 L208 -48 Z " />
<glyph glyph-name="uni0228" unicode="&#x228;" horiz-adv-x="603" d="M572 96 L173 96 L173 347 L515 347 L515 443 L173 443 L173 671 L550 671 L550 767 L66 767 L66 0 L295 0 L240 -91 C261 -91 282 -92 298 -98 C325 -105 339 -122 339 -142 C339 -166 320 -185 287 -185 C264 -185 236 -176 209 -152 L183 -195 C216 -222 252 -233 284 -233 C344 -233 388 -194 388 -142 C388 -105 367 -77 333 -64 C324 -61 315 -59 304 -58 L344 0 L572 0 L572 96 Z " />
<glyph glyph-name="uni0237" unicode="&#x237;" horiz-adv-x="229" d="M34 -225 C120 -225 169 -176 169 -90 L169 542 L67 542 L67 -90 C67 -114 49 -132 25 -132 L-25 -132 L-25 -225 L34 -225 Z " />
<glyph glyph-name="uni0254" unicode="&#x254;" horiz-adv-x="587" d="M283 552 C156 552 59 483 33 361 L139 361 C157 428 210 464 283 464 C382 464 447 396 447 271 C447 147 382 78 283 78 C210 78 157 114 139 181 L33 181 C59 60 156 -10 283 -10 C438 -10 549 94 549 271 C549 449 438 552 283 552 L283 552 Z " />
<glyph glyph-name="circumflex" unicode="&#x2c6;" horiz-adv-x="342" d="M212 767 L130 767 L4 611 L89 611 L171 719 L254 611 L338 611 L212 767 Z " />
<glyph glyph-name="caron" unicode="&#x2c7;" horiz-adv-x="344" d="M171 659 L89 767 L5 767 L131 611 L213 611 L339 767 L254 767 L171 659 Z " />
<glyph glyph-name="breve" unicode="&#x2d8;" horiz-adv-x="396" d="M199 614 C308 614 366 670 366 767 L298 767 C298 701 259 672 199 672 C139 672 99 700 99 767 L31 767 C31 673 84 614 199 614 L199 614 Z " />
<glyph glyph-name="dotaccent" unicode="&#x2d9;" horiz-adv-x="211" d="M106 648 C141 648 170 677 170 714 C170 749 141 778 106 778 C69 778 41 749 41 714 C41 677 69 648 106 648 L106 648 Z " />
<glyph glyph-name="ring" unicode="&#x2da;" horiz-adv-x="289" d="M143 588 C206 588 257 639 257 702 C257 765 205 814 143 814 C81 814 31 764 31 702 C31 640 80 588 143 588 L143 588 Z M143 641 C109 641 84 667 84 702 C84 736 108 761 143 761 C180 761 204 736 204 702 C204 667 178 641 143 641 L143 641 Z " />
<glyph glyph-name="ogonek" unicode="&#x2db;" horiz-adv-x="220" d="M185 -172 C127 -172 99 -150 99 -115 C99 -81 129 -37 185 0 L118 1 C57 -46 25 -96 25 -139 C25 -195 79 -232 185 -232 L185 -172 Z " />
<glyph glyph-name="tilde" unicode="&#x2dc;" horiz-adv-x="430" d="M288 622 C352 622 392 676 392 767 L334 767 C334 713 315 682 289 682 C238 682 225 771 145 771 C79 771 38 719 38 628 L94 628 C94 681 111 711 141 711 C193 711 200 622 288 622 L288 622 Z " />
<glyph glyph-name="hungarumlaut" unicode="&#x2dd;" horiz-adv-x="416" d="M81 611 L204 767 L118 767 L9 611 L81 611 Z M279 611 L415 767 L313 767 L205 611 L279 611 Z " />
<glyph glyph-name="gravecomb" unicode="&#x300;" d="M-7 611 L-122 767 L-223 767 L-80 611 L-7 611 Z " />
<glyph glyph-name="acutecomb" unicode="&#x301;" d="M-149 611 L2 767 L-100 767 L-221 611 L-149 611 Z " />
<glyph glyph-name="uni0302" unicode="&#x302;" d="M-130 767 L-212 767 L-338 611 L-253 611 L-171 719 L-88 611 L-4 611 L-130 767 Z " />
<glyph glyph-name="tildecomb" unicode="&#x303;" d="M-142 622 C-78 622 -38 676 -38 767 L-96 767 C-96 713 -115 682 -141 682 C-192 682 -205 771 -285 771 C-351 771 -392 719 -392 628 L-336 628 C-336 681 -319 711 -289 711 C-237 711 -230 622 -142 622 L-142 622 Z " />
<glyph glyph-name="uni0304" unicode="&#x304;" d="M-57 646 L-57 704 L-356 704 L-356 646 L-57 646 Z " />
<glyph glyph-name="uni0306" unicode="&#x306;" d="M-197 614 C-88 614 -30 670 -30 767 L-98 767 C-98 701 -137 672 -197 672 C-257 672 -297 700 -297 767 L-365 767 C-365 673 -312 614 -197 614 L-197 614 Z " />
<glyph glyph-name="uni0307" unicode="&#x307;" d="M-105 648 C-70 648 -41 677 -41 714 C-41 749 -70 778 -105 778 C-142 778 -170 749 -170 714 C-170 677 -142 648 -105 648 L-105 648 Z " />
<glyph glyph-name="uni0308" unicode="&#x308;" d="M-310 648 C-275 648 -246 677 -246 714 C-246 749 -275 778 -310 778 C-347 778 -375 749 -375 714 C-375 677 -347 648 -310 648 L-310 648 Z M-104 648 C-70 648 -40 677 -40 714 C-40 749 -70 778 -104 778 C-141 778 -170 749 -170 714 C-170 677 -141 648 -104 648 L-104 648 Z " />
<glyph glyph-name="hookabovecomb" unicode="&#x309;" d="M-153 574 C-99 575 -34 591 -34 666 C-34 699 -49 724 -75 742 C-98 758 -130 767 -170 767 L-192 767 L-192 711 L-170 711 C-144 711 -124 707 -110 696 C-99 688 -94 677 -94 662 C-94 620 -129 615 -156 612 L-153 574 Z " />
<glyph glyph-name="uni030A" unicode="&#x30a;" d="M-146 588 C-83 588 -32 639 -32 702 C-32 765 -84 814 -146 814 C-208 814 -258 764 -258 702 C-258 640 -209 588 -146 588 L-146 588 Z M-146 641 C-180 641 -205 667 -205 702 C-205 736 -181 761 -146 761 C-109 761 -85 736 -85 702 C-85 667 -111 641 -146 641 L-146 641 Z " />
<glyph glyph-name="uni030B" unicode="&#x30b;" d="M-335 611 L-212 767 L-298 767 L-407 611 L-335 611 Z M-137 611 L-1 767 L-103 767 L-211 611 L-137 611 Z " />
<glyph glyph-name="uni030C" unicode="&#x30c;" d="M-173 659 L-255 767 L-339 767 L-213 611 L-131 611 L-5 767 L-90 767 L-173 659 Z " />
<glyph glyph-name="uni030F" unicode="&#x30f;" d="M-313 767 L-415 767 L-280 611 L-205 611 L-313 767 Z M-118 767 L-205 767 L-82 611 L-9 611 L-118 767 Z " />
<glyph glyph-name="uni0312" unicode="&#x312;" d="M-61 752 L-61 764 L-110 764 L-149 680 C-156 664 -163 649 -163 635 C-163 605 -138 584 -102 584 C-67 584 -41 605 -41 636 C-41 665 -64 685 -95 688 L-61 752 Z " />
<glyph glyph-name="uni031B" unicode="&#x31b;" d="M-227 698 C-87 698 -41 747 -41 883 L-41 941 L-122 941 L-122 884 C-122 808 -138 767 -227 767 L-227 698 Z " />
<glyph glyph-name="dotbelowcomb" unicode="&#x323;" d="M-105 -236 C-70 -236 -41 -206 -41 -171 C-41 -135 -70 -106 -105 -106 C-142 -106 -170 -135 -170 -171 C-170 -206 -142 -236 -105 -236 L-105 -236 Z " />
<glyph glyph-name="uni0326" unicode="&#x326;" d="M-97 -48 C-132 -48 -158 -71 -158 -106 C-158 -138 -135 -161 -104 -164 L-137 -236 L-137 -248 L-89 -248 L-49 -152 C-43 -137 -36 -120 -36 -105 C-36 -72 -61 -48 -97 -48 L-97 -48 Z " />
<glyph glyph-name="uni0327" unicode="&#x327;" d="M-134 -233 C-74 -233 -30 -194 -30 -142 C-30 -105 -51 -77 -85 -64 C-94 -61 -103 -59 -114 -58 L-67 10 L-111 20 L-178 -91 C-157 -91 -136 -92 -120 -98 C-93 -105 -79 -122 -79 -142 C-79 -166 -98 -185 -131 -185 C-154 -185 -182 -176 -209 -152 L-235 -195 C-202 -222 -166 -233 -134 -233 L-134 -233 Z " />
<glyph glyph-name="uni0328" unicode="&#x328;" d="M-35 -172 C-93 -172 -121 -150 -121 -115 C-121 -81 -91 -37 -35 0 L-102 1 C-163 -46 -195 -96 -195 -139 C-195 -195 -141 -232 -35 -232 L-35 -172 Z " />
<glyph glyph-name="uni0335" unicode="&#x335;" d="M-58 283 L-58 355 L-357 355 L-357 283 L-58 283 Z " />
<glyph glyph-name="uni0336" unicode="&#x336;" d="M-57 280 L-57 338 L-764 338 L-764 280 L-57 280 Z " />
<glyph glyph-name="uni0337" unicode="&#x337;" d="M-3 383 L-3 481 L-261 247 L-261 150 L-3 383 Z " />
<glyph glyph-name="uni0338" unicode="&#x338;" d="M25 602 L-31 636 L-400 38 L-344 4 L25 602 Z " />
<glyph glyph-name="uni0394" unicode="&#x394;" horiz-adv-x="677" d="M642 0 L325 799 L9 0 L642 0 Z M325 603 L525 80 L126 80 L325 603 Z " />
<glyph glyph-name="uni03A9" unicode="&#x3a9;" horiz-adv-x="854" d="M348 0 L348 93 C228 123 151 230 151 392 C151 550 252 667 414 667 C575 667 678 553 678 392 C678 226 601 119 481 94 L481 0 L782 0 L782 77 L585 77 C692 137 761 253 761 393 C761 592 619 747 414 747 C212 747 67 596 67 395 C67 263 139 147 251 80 L46 80 L46 0 L348 0 Z " />
<glyph glyph-name="uni03BC" unicode="&#x3bc;" horiz-adv-x="644" d="M183 -225 L183 35 C207 6 243 -9 294 -9 C356 -9 421 18 459 78 L459 0 L558 0 L558 542 L459 542 L459 233 C459 133 405 83 322 83 C243 83 201 138 201 224 L201 542 L102 542 L102 -225 L183 -225 Z " />
<glyph glyph-name="pi" unicode="&#x3c0;" horiz-adv-x="589" d="M193 0 L193 454 L357 454 L357 135 C357 49 405 0 491 0 L550 0 L550 93 L500 93 C476 93 458 111 458 135 L458 454 L548 454 L548 542 L41 542 L41 454 L91 454 L91 0 L193 0 Z " />
<glyph glyph-name="uni1E44" unicode="&#x1e44;" horiz-adv-x="762" d="M381 827 C416 827 445 856 445 892 C445 928 416 957 381 957 C344 957 315 928 315 892 C315 856 344 827 381 827 L381 827 Z M173 0 L173 671 L184 671 L508 0 L695 0 L695 767 L588 767 L588 95 L577 95 L253 767 L66 767 L66 0 L173 0 Z " />
<glyph glyph-name="Wgrave" unicode="&#x1e80;" horiz-adv-x="1151" d="M611 836 L496 992 L395 992 L538 836 L611 836 Z M441 0 L571 680 L579 680 L709 0 L871 0 L1139 746 L1139 767 L1032 767 L803 119 L793 119 L667 767 L483 767 L357 119 L347 119 L118 767 L11 767 L11 746 L279 0 L441 0 Z " />
<glyph glyph-name="wgrave" unicode="&#x1e81;" horiz-adv-x="921" d="M497 611 L382 767 L281 767 L424 611 L497 611 Z M368 0 L455 449 L466 449 L553 0 L713 0 L905 542 L797 542 L639 89 L628 89 L541 542 L379 542 L292 89 L281 89 L123 542 L15 542 L209 0 L368 0 Z " />
<glyph glyph-name="Wacute" unicode="&#x1e82;" horiz-adv-x="1151" d="M611 836 L762 992 L660 992 L539 836 L611 836 Z M441 0 L571 680 L579 680 L709 0 L871 0 L1139 746 L1139 767 L1032 767 L803 119 L793 119 L667 767 L483 767 L357 119 L347 119 L118 767 L11 767 L11 746 L279 0 L441 0 Z " />
<glyph glyph-name="wacute" unicode="&#x1e83;" horiz-adv-x="921" d="M496 611 L647 767 L545 767 L424 611 L496 611 Z M368 0 L455 449 L466 449 L553 0 L713 0 L905 542 L797 542 L639 89 L628 89 L541 542 L379 542 L292 89 L281 89 L123 542 L15 542 L209 0 L368 0 Z " />
<glyph glyph-name="Wdieresis" unicode="&#x1e84;" horiz-adv-x="1151" d="M473 827 C508 827 537 856 537 892 C537 928 508 957 473 957 C436 957 407 928 407 892 C407 856 436 827 473 827 L473 827 Z M678 827 C713 827 743 856 743 892 C743 928 713 957 678 957 C642 957 612 928 612 892 C612 856 642 827 678 827 L678 827 Z M441 0 L571 680 L579 680 L709 0 L871 0 L1139 746 L1139 767 L1032 767 L803 119 L793 119 L667 767 L483 767 L357 119 L347 119 L118 767 L11 767 L11 746 L279 0 L441 0 Z " />
<glyph glyph-name="wdieresis" unicode="&#x1e85;" horiz-adv-x="921" d="M358 648 C393 648 422 677 422 714 C422 749 393 778 358 778 C321 778 293 749 293 714 C293 677 321 648 358 648 L358 648 Z M564 648 C598 648 628 677 628 714 C628 749 598 778 564 778 C527 778 498 749 498 714 C498 677 527 648 564 648 L564 648 Z M368 0 L455 449 L466 449 L553 0 L713 0 L905 542 L797 542 L639 89 L628 89 L541 542 L379 542 L292 89 L281 89 L123 542 L15 542 L209 0 L368 0 Z " />
<glyph glyph-name="uni1E9E" unicode="&#x1e9e;" horiz-adv-x="747" d="M472 437 L648 672 L648 767 L66 767 L66 0 L171 0 L171 671 L534 671 L311 379 L460 338 C533 318 600 298 600 216 C600 127 535 96 425 96 L287 96 L287 0 L453 0 C609 0 707 78 707 223 C707 339 637 392 527 422 L472 437 Z " />
<glyph glyph-name="uni1EA0" unicode="&#x1ea0;" horiz-adv-x="706" d="M280 767 L11 21 L11 0 L119 0 L179 173 L527 173 L587 0 L694 0 L694 21 L426 767 L280 767 Z M347 655 L358 655 L493 270 L213 270 L347 655 Z M353 -75 C316 -75 288 -104 288 -140 C288 -175 316 -205 353 -205 C388 -205 417 -175 417 -140 C417 -104 388 -75 353 -75 L353 -75 Z " />
<glyph glyph-name="uni1EA1" unicode="&#x1ea1;" horiz-adv-x="548" d="M473 455 C441 522 367 551 276 551 C131 551 63 479 55 381 L158 381 C163 431 199 471 274 471 C355 471 392 427 392 360 L392 325 L244 325 C125 325 40 278 40 160 C40 54 115 -9 228 -9 C296 -9 346 17 383 70 L392 70 L392 0 L493 0 L493 328 C493 366 492 415 473 455 L473 455 Z M241 75 C180 75 142 107 142 161 C142 230 190 249 257 249 L392 249 C389 146 348 75 241 75 L241 75 Z M281 -75 C244 -75 216 -104 216 -140 C216 -175 244 -205 281 -205 C316 -205 345 -175 345 -140 C345 -104 316 -75 281 -75 L281 -75 Z " />
<glyph glyph-name="uni1EA2" unicode="&#x1ea2;" horiz-adv-x="706" d="M388 921 C399 913 404 902 404 887 C404 845 369 840 342 837 L345 799 C399 800 464 816 464 891 C464 924 449 949 423 967 C400 983 368 992 328 992 L306 992 L306 936 L328 936 C354 936 374 932 388 921 L388 921 Z M280 767 L11 21 L11 0 L119 0 L179 173 L527 173 L587 0 L694 0 L694 21 L426 767 L280 767 Z M347 655 L358 655 L493 270 L213 270 L347 655 Z " />
<glyph glyph-name="uni1EA3" unicode="&#x1ea3;" horiz-adv-x="548" d="M316 696 C327 688 332 677 332 662 C332 620 297 615 270 612 L273 574 C327 575 392 591 392 666 C392 699 377 724 351 742 C328 758 296 767 256 767 L234 767 L234 711 L256 711 C282 711 302 707 316 696 L316 696 Z M473 455 C441 522 367 551 276 551 C131 551 63 479 55 381 L158 381 C163 431 199 471 274 471 C355 471 392 427 392 360 L392 325 L244 325 C125 325 40 278 40 160 C40 54 115 -9 228 -9 C296 -9 346 17 383 70 L392 70 L392 0 L493 0 L493 328 C493 366 492 415 473 455 L473 455 Z M241 75 C180 75 142 107 142 161 C142 230 190 249 257 249 L392 249 C389 146 348 75 241 75 L241 75 Z " />
<glyph glyph-name="uni1EA4" unicode="&#x1ea4;" horiz-adv-x="706" d="M437 1216 L316 1060 L388 1060 L539 1216 L437 1216 Z M435 836 L519 836 L393 992 L311 992 L185 836 L270 836 L352 944 L435 836 Z M280 767 L11 21 L11 0 L119 0 L179 173 L527 173 L587 0 L694 0 L694 21 L426 767 L280 767 Z M347 655 L358 655 L493 270 L213 270 L347 655 Z " />
<glyph glyph-name="uni1EA5" unicode="&#x1ea5;" horiz-adv-x="548" d="M366 991 L245 835 L317 835 L468 991 L366 991 Z M364 611 L448 611 L322 767 L240 767 L114 611 L199 611 L281 719 L364 611 Z M473 455 C441 522 367 551 276 551 C131 551 63 479 55 381 L158 381 C163 431 199 471 274 471 C355 471 392 427 392 360 L392 325 L244 325 C125 325 40 278 40 160 C40 54 115 -9 228 -9 C296 -9 346 17 383 70 L392 70 L392 0 L493 0 L493 328 C493 366 492 415 473 455 L473 455 Z M241 75 C180 75 142 107 142 161 C142 230 190 249 257 249 L392 249 C389 146 348 75 241 75 L241 75 Z " />
<glyph glyph-name="uni1EA6" unicode="&#x1ea6;" horiz-adv-x="706" d="M274 1216 L172 1216 L316 1060 L389 1060 L274 1216 Z M270 836 L352 944 L435 836 L519 836 L393 992 L311 992 L185 836 L270 836 Z M280 767 L11 21 L11 0 L119 0 L179 173 L527 173 L587 0 L694 0 L694 21 L426 767 L280 767 Z M347 655 L358 655 L493 270 L213 270 L347 655 Z " />
<glyph glyph-name="uni1EA7" unicode="&#x1ea7;" horiz-adv-x="548" d="M203 991 L101 991 L245 835 L318 835 L203 991 Z M199 611 L281 719 L364 611 L448 611 L322 767 L240 767 L114 611 L199 611 Z M473 455 C441 522 367 551 276 551 C131 551 63 479 55 381 L158 381 C163 431 199 471 274 471 C355 471 392 427 392 360 L392 325 L244 325 C125 325 40 278 40 160 C40 54 115 -9 228 -9 C296 -9 346 17 383 70 L392 70 L392 0 L493 0 L493 328 C493 366 492 415 473 455 L473 455 Z M241 75 C180 75 142 107 142 161 C142 230 190 249 257 249 L392 249 C389 146 348 75 241 75 L241 75 Z " />
<glyph glyph-name="uni1EA8" unicode="&#x1ea8;" horiz-adv-x="706" d="M387 1145 C398 1137 404 1126 404 1111 C404 1069 368 1064 342 1061 L345 1022 C398 1024 464 1039 464 1115 C464 1148 448 1173 423 1190 C399 1207 368 1216 327 1216 L305 1216 L305 1160 L327 1160 C353 1160 373 1156 387 1145 L387 1145 Z M435 836 L519 836 L393 992 L311 992 L185 836 L270 836 L352 944 L435 836 Z M280 767 L11 21 L11 0 L119 0 L179 173 L527 173 L587 0 L694 0 L694 21 L426 767 L280 767 Z M347 655 L358 655 L493 270 L213 270 L347 655 Z " />
<glyph glyph-name="uni1EA9" unicode="&#x1ea9;" horiz-adv-x="548" d="M316 920 C327 912 333 901 333 886 C333 844 297 839 271 836 L274 797 C327 799 393 814 393 890 C393 923 377 948 352 965 C328 982 297 991 256 991 L234 991 L234 935 L256 935 C282 935 302 931 316 920 L316 920 Z M364 611 L448 611 L322 767 L240 767 L114 611 L199 611 L281 719 L364 611 Z M473 455 C441 522 367 551 276 551 C131 551 63 479 55 381 L158 381 C163 431 199 471 274 471 C355 471 392 427 392 360 L392 325 L244 325 C125 325 40 278 40 160 C40 54 115 -9 228 -9 C296 -9 346 17 383 70 L392 70 L392 0 L493 0 L493 328 C493 366 492 415 473 455 L473 455 Z M241 75 C180 75 142 107 142 161 C142 230 190 249 257 249 L392 249 C389 146 348 75 241 75 L241 75 Z " />
<glyph glyph-name="uni1EAA" unicode="&#x1eaa;" horiz-adv-x="706" d="M279 1160 C331 1160 338 1071 426 1071 C490 1071 530 1125 530 1216 L472 1216 C472 1162 453 1131 427 1131 C376 1131 363 1220 283 1219 C217 1220 176 1168 176 1077 L232 1077 C232 1130 249 1160 279 1160 L279 1160 Z M186 836 L270 836 L352 944 L435 836 L520 836 L394 992 L311 992 L186 836 Z M280 767 L11 21 L11 0 L119 0 L179 173 L527 173 L587 0 L694 0 L694 21 L426 767 L280 767 Z M347 655 L358 655 L493 270 L213 270 L347 655 Z " />
<glyph glyph-name="uni1EAB" unicode="&#x1eab;" horiz-adv-x="548" d="M207 935 C259 935 266 846 354 846 C418 846 458 900 458 991 L400 991 C400 937 381 906 355 906 C304 906 291 995 211 994 C145 995 104 943 104 852 L160 852 C160 905 177 935 207 935 L207 935 Z M114 611 L198 611 L280 719 L363 611 L448 611 L322 767 L239 767 L114 611 Z M473 455 C441 522 367 551 276 551 C131 551 63 479 55 381 L158 381 C163 431 199 471 274 471 C355 471 392 427 392 360 L392 325 L244 325 C125 325 40 278 40 160 C40 54 115 -9 228 -9 C296 -9 346 17 383 70 L392 70 L392 0 L493 0 L493 328 C493 366 492 415 473 455 L473 455 Z M241 75 C180 75 142 107 142 161 C142 230 190 249 257 249 L392 249 C389 146 348 75 241 75 L241 75 Z " />
<glyph glyph-name="uni1EAC" unicode="&#x1eac;" horiz-adv-x="706" d="M435 836 L519 836 L393 992 L311 992 L185 836 L270 836 L352 944 L435 836 Z M280 767 L11 21 L11 0 L119 0 L179 173 L527 173 L587 0 L694 0 L694 21 L426 767 L280 767 Z M347 655 L358 655 L493 270 L213 270 L347 655 Z M353 -75 C316 -75 288 -104 288 -140 C288 -175 316 -205 353 -205 C388 -205 417 -175 417 -140 C417 -104 388 -75 353 -75 L353 -75 Z " />
<glyph glyph-name="uni1EAD" unicode="&#x1ead;" horiz-adv-x="548" d="M364 611 L448 611 L322 767 L240 767 L114 611 L199 611 L281 719 L364 611 Z M473 455 C441 522 367 551 276 551 C131 551 63 479 55 381 L158 381 C163 431 199 471 274 471 C355 471 392 427 392 360 L392 325 L244 325 C125 325 40 278 40 160 C40 54 115 -9 228 -9 C296 -9 346 17 383 70 L392 70 L392 0 L493 0 L493 328 C493 366 492 415 473 455 L473 455 Z M241 75 C180 75 142 107 142 161 C142 230 190 249 257 249 L392 249 C389 146 348 75 241 75 L241 75 Z M281 -75 C244 -75 216 -104 216 -140 C216 -175 244 -205 281 -205 C316 -205 345 -175 345 -140 C345 -104 316 -75 281 -75 L281 -75 Z " />
<glyph glyph-name="uni1EAE" unicode="&#x1eae;" horiz-adv-x="706" d="M437 1217 L316 1061 L388 1061 L539 1217 L437 1217 Z M353 839 C462 839 520 895 520 992 L452 992 C452 926 413 897 353 897 C293 897 253 925 253 992 L185 992 C185 898 238 839 353 839 L353 839 Z M280 767 L11 21 L11 0 L119 0 L179 173 L527 173 L587 0 L694 0 L694 21 L426 767 L280 767 Z M347 655 L358 655 L493 270 L213 270 L347 655 Z " />
<glyph glyph-name="uni1EAF" unicode="&#x1eaf;" horiz-adv-x="548" d="M366 992 L245 836 L317 836 L468 992 L366 992 Z M282 614 C391 614 449 670 449 767 L381 767 C381 701 342 672 282 672 C222 672 182 700 182 767 L114 767 C114 673 167 614 282 614 L282 614 Z M473 455 C441 522 367 551 276 551 C131 551 63 479 55 381 L158 381 C163 431 199 471 274 471 C355 471 392 427 392 360 L392 325 L244 325 C125 325 40 278 40 160 C40 54 115 -9 228 -9 C296 -9 346 17 383 70 L392 70 L392 0 L493 0 L493 328 C493 366 492 415 473 455 L473 455 Z M241 75 C180 75 142 107 142 161 C142 230 190 249 257 249 L392 249 C389 146 348 75 241 75 L241 75 Z " />
<glyph glyph-name="uni1EB0" unicode="&#x1eb0;" horiz-adv-x="706" d="M274 1217 L172 1217 L316 1061 L389 1061 L274 1217 Z M185 992 C185 898 238 839 353 839 C462 839 520 895 520 992 L452 992 C452 926 413 897 353 897 C293 897 253 925 253 992 L185 992 Z M280 767 L11 21 L11 0 L119 0 L179 173 L527 173 L587 0 L694 0 L694 21 L426 767 L280 767 Z M347 655 L358 655 L493 270 L213 270 L347 655 Z " />
<glyph glyph-name="uni1EB1" unicode="&#x1eb1;" horiz-adv-x="548" d="M203 992 L101 992 L245 836 L318 836 L203 992 Z M114 767 C114 673 167 614 282 614 C391 614 449 670 449 767 L381 767 C381 701 342 672 282 672 C222 672 182 700 182 767 L114 767 Z M473 455 C441 522 367 551 276 551 C131 551 63 479 55 381 L158 381 C163 431 199 471 274 471 C355 471 392 427 392 360 L392 325 L244 325 C125 325 40 278 40 160 C40 54 115 -9 228 -9 C296 -9 346 17 383 70 L392 70 L392 0 L493 0 L493 328 C493 366 492 415 473 455 L473 455 Z M241 75 C180 75 142 107 142 161 C142 230 190 249 257 249 L392 249 C389 146 348 75 241 75 L241 75 Z " />
<glyph glyph-name="uni1EB2" unicode="&#x1eb2;" horiz-adv-x="706" d="M387 1146 C398 1138 404 1127 404 1112 C404 1070 368 1065 342 1062 L345 1024 C398 1025 464 1041 464 1116 C464 1149 448 1174 423 1192 C400 1208 368 1217 327 1217 L306 1217 L306 1161 L327 1161 C353 1161 373 1157 387 1146 L387 1146 Z M353 839 C462 839 520 895 520 992 L452 992 C452 926 413 897 353 897 C293 897 253 925 253 992 L185 992 C185 898 238 839 353 839 L353 839 Z M280 767 L11 21 L11 0 L119 0 L179 173 L527 173 L587 0 L694 0 L694 21 L426 767 L280 767 Z M347 655 L358 655 L493 270 L213 270 L347 655 Z " />
<glyph glyph-name="uni1EB3" unicode="&#x1eb3;" horiz-adv-x="548" d="M316 921 C327 913 333 902 333 887 C333 845 297 840 271 837 L274 799 C327 800 393 816 393 891 C393 924 377 949 352 967 C329 983 297 992 256 992 L235 992 L235 936 L256 936 C282 936 302 932 316 921 L316 921 Z M282 614 C391 614 449 670 449 767 L381 767 C381 701 342 672 282 672 C222 672 182 700 182 767 L114 767 C114 673 167 614 282 614 L282 614 Z M473 455 C441 522 367 551 276 551 C131 551 63 479 55 381 L158 381 C163 431 199 471 274 471 C355 471 392 427 392 360 L392 325 L244 325 C125 325 40 278 40 160 C40 54 115 -9 228 -9 C296 -9 346 17 383 70 L392 70 L392 0 L493 0 L493 328 C493 366 492 415 473 455 L473 455 Z M241 75 C180 75 142 107 142 161 C142 230 190 249 257 249 L392 249 C389 146 348 75 241 75 L241 75 Z " />
<glyph glyph-name="uni1EB4" unicode="&#x1eb4;" horiz-adv-x="706" d="M279 1161 C331 1161 337 1072 426 1072 C489 1072 530 1126 530 1217 L472 1217 C472 1163 452 1132 427 1132 C375 1132 363 1221 282 1221 C217 1221 175 1169 175 1078 L231 1078 C231 1131 249 1161 279 1161 L279 1161 Z M353 897 C293 897 253 925 253 992 L185 992 C185 898 238 839 353 839 C462 839 520 895 520 992 L452 992 C452 926 413 897 353 897 L353 897 Z M280 767 L11 21 L11 0 L119 0 L179 173 L527 173 L587 0 L694 0 L694 21 L426 767 L280 767 Z M347 655 L358 655 L493 270 L213 270 L347 655 Z " />
<glyph glyph-name="uni1EB5" unicode="&#x1eb5;" horiz-adv-x="548" d="M208 936 C260 936 266 847 355 847 C418 847 459 901 459 992 L401 992 C401 938 381 907 356 907 C304 907 292 996 211 996 C146 996 104 944 104 853 L160 853 C160 906 178 936 208 936 L208 936 Z M282 672 C222 672 182 700 182 767 L114 767 C114 673 167 614 282 614 C391 614 449 670 449 767 L381 767 C381 701 342 672 282 672 L282 672 Z M473 455 C441 522 367 551 276 551 C131 551 63 479 55 381 L158 381 C163 431 199 471 274 471 C355 471 392 427 392 360 L392 325 L244 325 C125 325 40 278 40 160 C40 54 115 -9 228 -9 C296 -9 346 17 383 70 L392 70 L392 0 L493 0 L493 328 C493 366 492 415 473 455 L473 455 Z M241 75 C180 75 142 107 142 161 C142 230 190 249 257 249 L392 249 C389 146 348 75 241 75 L241 75 Z " />
<glyph glyph-name="uni1EB6" unicode="&#x1eb6;" horiz-adv-x="706" d="M353 839 C462 839 520 895 520 992 L452 992 C452 926 413 897 353 897 C293 897 253 925 253 992 L185 992 C185 898 238 839 353 839 L353 839 Z M280 767 L11 21 L11 0 L119 0 L179 173 L527 173 L587 0 L694 0 L694 21 L426 767 L280 767 Z M347 655 L358 655 L493 270 L213 270 L347 655 Z M353 -75 C316 -75 288 -104 288 -140 C288 -175 316 -205 353 -205 C388 -205 417 -175 417 -140 C417 -104 388 -75 353 -75 L353 -75 Z " />
<glyph glyph-name="uni1EB7" unicode="&#x1eb7;" horiz-adv-x="548" d="M282 614 C391 614 449 670 449 767 L381 767 C381 701 342 672 282 672 C222 672 182 700 182 767 L114 767 C114 673 167 614 282 614 L282 614 Z M473 455 C441 522 367 551 276 551 C131 551 63 479 55 381 L158 381 C163 431 199 471 274 471 C355 471 392 427 392 360 L392 325 L244 325 C125 325 40 278 40 160 C40 54 115 -9 228 -9 C296 -9 346 17 383 70 L392 70 L392 0 L493 0 L493 328 C493 366 492 415 473 455 L473 455 Z M241 75 C180 75 142 107 142 161 C142 230 190 249 257 249 L392 249 C389 146 348 75 241 75 L241 75 Z M281 -75 C244 -75 216 -104 216 -140 C216 -175 244 -205 281 -205 C316 -205 345 -175 345 -140 C345 -104 316 -75 281 -75 L281 -75 Z " />
<glyph glyph-name="uni1EB8" unicode="&#x1eb8;" horiz-adv-x="603" d="M572 0 L572 96 L173 96 L173 347 L515 347 L515 443 L173 443 L173 671 L550 671 L550 767 L66 767 L66 0 L572 0 Z M319 -205 C354 -205 383 -175 383 -140 C383 -104 354 -75 319 -75 C282 -75 254 -104 254 -140 C254 -175 282 -205 319 -205 L319 -205 Z " />
<glyph glyph-name="uni1EB9" unicode="&#x1eb9;" horiz-adv-x="606" d="M570 276 C568 447 459 552 304 552 C149 552 38 448 38 271 C38 94 149 -10 304 -10 C423 -10 518 54 555 163 L445 163 C420 110 369 78 304 78 C211 78 148 141 141 249 L570 249 L570 276 Z M304 464 C387 464 447 414 464 325 L145 325 C161 414 221 464 304 464 L304 464 Z M305 -75 C268 -75 240 -104 240 -140 C240 -175 268 -205 305 -205 C340 -205 369 -175 369 -140 C369 -104 340 -75 305 -75 L305 -75 Z " />
<glyph glyph-name="uni1EBA" unicode="&#x1eba;" horiz-adv-x="603" d="M311 799 C365 800 430 816 430 891 C430 924 415 949 389 967 C366 983 334 992 294 992 L272 992 L272 936 L294 936 C320 936 340 932 354 921 C365 913 370 902 370 887 C370 845 335 840 308 837 L311 799 Z M572 0 L572 96 L173 96 L173 347 L515 347 L515 443 L173 443 L173 671 L550 671 L550 767 L66 767 L66 0 L572 0 Z " />
<glyph glyph-name="uni1EBB" unicode="&#x1ebb;" horiz-adv-x="606" d="M340 696 C351 688 356 677 356 662 C356 620 321 615 294 612 L297 574 C351 575 416 591 416 666 C416 699 401 724 375 742 C352 758 320 767 280 767 L258 767 L258 711 L280 711 C306 711 326 707 340 696 L340 696 Z M570 276 C568 447 459 552 304 552 C149 552 38 448 38 271 C38 94 149 -10 304 -10 C423 -10 518 54 555 163 L445 163 C420 110 369 78 304 78 C211 78 148 141 141 249 L570 249 L570 276 Z M304 464 C387 464 447 414 464 325 L145 325 C161 414 221 464 304 464 L304 464 Z " />
<glyph glyph-name="uni1EBC" unicode="&#x1ebc;" horiz-adv-x="603" d="M392 847 C456 847 496 901 496 992 L438 992 C438 938 419 907 393 907 C342 907 329 996 249 996 C183 996 142 944 142 853 L198 853 C198 906 215 936 245 936 C297 936 304 847 392 847 L392 847 Z M572 0 L572 96 L173 96 L173 347 L515 347 L515 443 L173 443 L173 671 L550 671 L550 767 L66 767 L66 0 L572 0 Z " />
<glyph glyph-name="uni1EBD" unicode="&#x1ebd;" horiz-adv-x="606" d="M231 711 C283 711 290 622 378 622 C442 622 482 676 482 767 L424 767 C424 713 405 682 379 682 C328 682 315 771 235 771 C169 771 128 719 128 628 L184 628 C184 681 201 711 231 711 L231 711 Z M570 276 C568 447 459 552 304 552 C149 552 38 448 38 271 C38 94 149 -10 304 -10 C423 -10 518 54 555 163 L445 163 C420 110 369 78 304 78 C211 78 148 141 141 249 L570 249 L570 276 Z M304 464 C387 464 447 414 464 325 L145 325 C161 414 221 464 304 464 L304 464 Z " />
<glyph glyph-name="uni1EBE" unicode="&#x1ebe;" horiz-adv-x="603" d="M404 1216 L283 1060 L355 1060 L506 1216 L404 1216 Z M402 836 L486 836 L360 992 L278 992 L152 836 L237 836 L319 944 L402 836 Z M173 347 L515 347 L515 443 L173 443 L173 671 L550 671 L550 767 L66 767 L66 0 L572 0 L572 96 L173 96 L173 347 Z " />
<glyph glyph-name="uni1EBF" unicode="&#x1ebf;" horiz-adv-x="606" d="M389 991 L268 835 L340 835 L491 991 L389 991 Z M387 611 L471 611 L345 767 L263 767 L137 611 L222 611 L304 719 L387 611 Z M570 276 C568 447 459 552 304 552 C149 552 38 448 38 271 C38 94 149 -10 304 -10 C423 -10 518 54 555 163 L445 163 C420 110 369 78 304 78 C211 78 148 141 141 249 L570 249 L570 276 Z M304 464 C387 464 447 414 464 325 L145 325 C161 414 221 464 304 464 L304 464 Z " />
<glyph glyph-name="uni1EC0" unicode="&#x1ec0;" horiz-adv-x="603" d="M241 1216 L139 1216 L283 1060 L356 1060 L241 1216 Z M237 836 L319 944 L402 836 L486 836 L360 992 L278 992 L152 836 L237 836 Z M173 347 L515 347 L515 443 L173 443 L173 671 L550 671 L550 767 L66 767 L66 0 L572 0 L572 96 L173 96 L173 347 Z " />
<glyph glyph-name="uni1EC1" unicode="&#x1ec1;" horiz-adv-x="606" d="M226 991 L124 991 L268 835 L341 835 L226 991 Z M222 611 L304 719 L387 611 L471 611 L345 767 L263 767 L137 611 L222 611 Z M570 276 C568 447 459 552 304 552 C149 552 38 448 38 271 C38 94 149 -10 304 -10 C423 -10 518 54 555 163 L445 163 C420 110 369 78 304 78 C211 78 148 141 141 249 L570 249 L570 276 Z M304 464 C387 464 447 414 464 325 L145 325 C161 414 221 464 304 464 L304 464 Z " />
<glyph glyph-name="uni1EC2" unicode="&#x1ec2;" horiz-adv-x="603" d="M354 1145 C365 1137 371 1126 371 1111 C371 1069 335 1064 309 1061 L312 1022 C365 1024 431 1039 431 1115 C431 1148 415 1173 390 1190 C366 1207 335 1216 294 1216 L272 1216 L272 1160 L294 1160 C320 1160 340 1156 354 1145 L354 1145 Z M402 836 L486 836 L360 992 L278 992 L152 836 L237 836 L319 944 L402 836 Z M173 347 L515 347 L515 443 L173 443 L173 671 L550 671 L550 767 L66 767 L66 0 L572 0 L572 96 L173 96 L173 347 Z " />
<glyph glyph-name="uni1EC3" unicode="&#x1ec3;" horiz-adv-x="606" d="M339 920 C350 912 356 901 356 886 C356 844 320 839 294 836 L297 797 C350 799 416 814 416 890 C416 923 400 948 375 965 C351 982 320 991 279 991 L257 991 L257 935 L279 935 C305 935 325 931 339 920 L339 920 Z M387 611 L471 611 L345 767 L263 767 L137 611 L222 611 L304 719 L387 611 Z M570 276 C568 447 459 552 304 552 C149 552 38 448 38 271 C38 94 149 -10 304 -10 C423 -10 518 54 555 163 L445 163 C420 110 369 78 304 78 C211 78 148 141 141 249 L570 249 L570 276 Z M304 464 C387 464 447 414 464 325 L145 325 C161 414 221 464 304 464 L304 464 Z " />
<glyph glyph-name="uni1EC4" unicode="&#x1ec4;" horiz-adv-x="603" d="M245 1160 C297 1160 304 1071 392 1071 C456 1071 496 1125 496 1216 L438 1216 C438 1162 419 1131 393 1131 C342 1131 329 1220 249 1219 C183 1220 142 1168 142 1077 L198 1077 C198 1130 215 1160 245 1160 L245 1160 Z M152 836 L236 836 L318 944 L401 836 L486 836 L360 992 L277 992 L152 836 Z M173 347 L515 347 L515 443 L173 443 L173 671 L550 671 L550 767 L66 767 L66 0 L572 0 L572 96 L173 96 L173 347 Z " />
<glyph glyph-name="uni1EC5" unicode="&#x1ec5;" horiz-adv-x="606" d="M231 935 C283 935 290 846 378 846 C442 846 482 900 482 991 L424 991 C424 937 405 906 379 906 C328 906 315 995 235 994 C169 995 128 943 128 852 L184 852 C184 905 201 935 231 935 L231 935 Z M138 611 L222 611 L304 719 L387 611 L472 611 L346 767 L263 767 L138 611 Z M570 276 C568 447 459 552 304 552 C149 552 38 448 38 271 C38 94 149 -10 304 -10 C423 -10 518 54 555 163 L445 163 C420 110 369 78 304 78 C211 78 148 141 141 249 L570 249 L570 276 Z M304 464 C387 464 447 414 464 325 L145 325 C161 414 221 464 304 464 L304 464 Z " />
<glyph glyph-name="uni1EC6" unicode="&#x1ec6;" horiz-adv-x="603" d="M402 836 L486 836 L360 992 L278 992 L152 836 L237 836 L319 944 L402 836 Z M173 347 L515 347 L515 443 L173 443 L173 671 L550 671 L550 767 L66 767 L66 0 L572 0 L572 96 L173 96 L173 347 Z M319 -75 C282 -75 254 -104 254 -140 C254 -175 282 -205 319 -205 C354 -205 383 -175 383 -140 C383 -104 354 -75 319 -75 L319 -75 Z " />
<glyph glyph-name="uni1EC7" unicode="&#x1ec7;" horiz-adv-x="606" d="M387 611 L471 611 L345 767 L263 767 L137 611 L222 611 L304 719 L387 611 Z M570 276 C568 447 459 552 304 552 C149 552 38 448 38 271 C38 94 149 -10 304 -10 C423 -10 518 54 555 163 L445 163 C420 110 369 78 304 78 C211 78 148 141 141 249 L570 249 L570 276 Z M304 464 C387 464 447 414 464 325 L145 325 C161 414 221 464 304 464 L304 464 Z M305 -75 C268 -75 240 -104 240 -140 C240 -175 268 -205 305 -205 C340 -205 369 -175 369 -140 C369 -104 340 -75 305 -75 L305 -75 Z " />
<glyph glyph-name="uni1EC8" unicode="&#x1ec8;" horiz-adv-x="239" d="M111 799 C165 800 230 816 230 891 C230 924 215 949 189 967 C166 983 134 992 94 992 L72 992 L72 936 L94 936 C120 936 140 932 154 921 C165 913 170 902 170 887 C170 845 135 840 108 837 L111 799 Z M173 0 L173 767 L66 767 L66 0 L173 0 Z " />
<glyph glyph-name="uni1EC9" unicode="&#x1ec9;" horiz-adv-x="219" d="M101 574 C155 575 220 591 220 666 C220 699 205 724 179 742 C156 758 124 767 84 767 L62 767 L62 711 L84 711 C110 711 130 707 144 696 C155 688 160 677 160 662 C160 620 125 615 98 612 L101 574 Z M160 0 L160 542 L58 542 L58 0 L160 0 Z " />
<glyph glyph-name="uni1ECA" unicode="&#x1eca;" horiz-adv-x="239" d="M173 0 L173 767 L66 767 L66 0 L173 0 Z M120 -205 C155 -205 184 -175 184 -140 C184 -104 155 -75 120 -75 C83 -75 55 -104 55 -140 C55 -175 83 -205 120 -205 L120 -205 Z " />
<glyph glyph-name="uni1ECB" unicode="&#x1ecb;" horiz-adv-x="219" d="M109 648 C144 648 173 677 173 714 C173 749 144 778 109 778 C72 778 44 749 44 714 C44 677 72 648 109 648 L109 648 Z M160 0 L160 542 L58 542 L58 0 L160 0 Z M109 -205 C144 -205 173 -175 173 -140 C173 -104 144 -75 109 -75 C72 -75 44 -104 44 -140 C44 -175 72 -205 109 -205 L109 -205 Z " />
<glyph glyph-name="uni1ECC" unicode="&#x1ecc;" horiz-adv-x="793" d="M396 -10 C611 -10 755 148 755 384 C755 620 611 777 396 777 C181 777 38 620 38 384 C38 148 181 -10 396 -10 L396 -10 Z M396 87 C245 87 145 206 145 384 C145 562 245 680 396 680 C547 680 647 562 647 384 C647 206 547 87 396 87 L396 87 Z M396 -205 C431 -205 460 -175 460 -140 C460 -104 431 -75 396 -75 C359 -75 331 -104 331 -140 C331 -175 359 -205 396 -205 L396 -205 Z " />
<glyph glyph-name="uni1ECD" unicode="&#x1ecd;" horiz-adv-x="609" d="M304 -10 C458 -10 570 94 570 271 C570 448 458 552 304 552 C149 552 38 448 38 271 C38 94 149 -10 304 -10 L304 -10 Z M304 78 C205 78 140 149 140 271 C140 393 205 464 304 464 C403 464 469 393 469 271 C469 149 403 78 304 78 L304 78 Z M304 -205 C339 -205 368 -175 368 -140 C368 -104 339 -75 304 -75 C267 -75 239 -104 239 -140 C239 -175 267 -205 304 -205 L304 -205 Z " />
<glyph glyph-name="uni1ECE" unicode="&#x1ece;" horiz-adv-x="793" d="M388 799 C442 800 507 816 507 891 C507 924 492 949 466 967 C443 983 411 992 371 992 L349 992 L349 936 L371 936 C397 936 417 932 431 921 C442 913 447 902 447 887 C447 845 412 840 385 837 L388 799 Z M396 -10 C611 -10 755 148 755 384 C755 620 611 777 396 777 C181 777 38 620 38 384 C38 148 181 -10 396 -10 L396 -10 Z M396 87 C245 87 145 206 145 384 C145 562 245 680 396 680 C547 680 647 562 647 384 C647 206 547 87 396 87 L396 87 Z " />
<glyph glyph-name="uni1ECF" unicode="&#x1ecf;" horiz-adv-x="609" d="M296 574 C350 575 415 591 415 666 C415 699 400 724 374 742 C351 758 319 767 279 767 L257 767 L257 711 L279 711 C305 711 325 707 339 696 C350 688 355 677 355 662 C355 620 320 615 293 612 L296 574 Z M304 -10 C458 -10 570 94 570 271 C570 448 458 552 304 552 C149 552 38 448 38 271 C38 94 149 -10 304 -10 L304 -10 Z M304 78 C205 78 140 149 140 271 C140 393 205 464 304 464 C403 464 469 393 469 271 C469 149 403 78 304 78 L304 78 Z " />
<glyph glyph-name="uni1ED0" unicode="&#x1ed0;" horiz-adv-x="793" d="M481 1216 L360 1060 L432 1060 L583 1216 L481 1216 Z M479 836 L563 836 L437 992 L355 992 L229 836 L314 836 L396 944 L479 836 Z M396 777 C181 777 38 620 38 384 C38 148 181 -10 396 -10 C611 -10 755 148 755 384 C755 620 611 777 396 777 L396 777 Z M396 87 C245 87 145 206 145 384 C145 562 245 680 396 680 C547 680 647 562 647 384 C647 206 547 87 396 87 L396 87 Z " />
<glyph glyph-name="uni1ED1" unicode="&#x1ed1;" horiz-adv-x="609" d="M389 991 L268 835 L340 835 L491 991 L389 991 Z M387 611 L471 611 L345 767 L263 767 L137 611 L222 611 L304 719 L387 611 Z M304 552 C149 552 38 448 38 271 C38 94 149 -10 304 -10 C458 -10 570 94 570 271 C570 448 458 552 304 552 L304 552 Z M304 78 C205 78 140 149 140 271 C140 393 205 464 304 464 C403 464 469 393 469 271 C469 149 403 78 304 78 L304 78 Z " />
<glyph glyph-name="uni1ED2" unicode="&#x1ed2;" horiz-adv-x="793" d="M318 1216 L216 1216 L360 1060 L433 1060 L318 1216 Z M314 836 L396 944 L479 836 L563 836 L437 992 L355 992 L229 836 L314 836 Z M396 777 C181 777 38 620 38 384 C38 148 181 -10 396 -10 C611 -10 755 148 755 384 C755 620 611 777 396 777 L396 777 Z M396 87 C245 87 145 206 145 384 C145 562 245 680 396 680 C547 680 647 562 647 384 C647 206 547 87 396 87 L396 87 Z " />
<glyph glyph-name="uni1ED3" unicode="&#x1ed3;" horiz-adv-x="609" d="M226 991 L124 991 L268 835 L341 835 L226 991 Z M222 611 L304 719 L387 611 L471 611 L345 767 L263 767 L137 611 L222 611 Z M304 552 C149 552 38 448 38 271 C38 94 149 -10 304 -10 C458 -10 570 94 570 271 C570 448 458 552 304 552 L304 552 Z M304 78 C205 78 140 149 140 271 C140 393 205 464 304 464 C403 464 469 393 469 271 C469 149 403 78 304 78 L304 78 Z " />
<glyph glyph-name="uni1ED4" unicode="&#x1ed4;" horiz-adv-x="793" d="M431 1145 C442 1137 448 1126 448 1111 C448 1069 412 1064 386 1061 L389 1022 C442 1024 508 1039 508 1115 C508 1148 492 1173 467 1190 C443 1207 412 1216 371 1216 L349 1216 L349 1160 L371 1160 C397 1160 417 1156 431 1145 L431 1145 Z M479 836 L563 836 L437 992 L355 992 L229 836 L314 836 L396 944 L479 836 Z M396 777 C181 777 38 620 38 384 C38 148 181 -10 396 -10 C611 -10 755 148 755 384 C755 620 611 777 396 777 L396 777 Z M396 87 C245 87 145 206 145 384 C145 562 245 680 396 680 C547 680 647 562 647 384 C647 206 547 87 396 87 L396 87 Z " />
<glyph glyph-name="uni1ED5" unicode="&#x1ed5;" horiz-adv-x="609" d="M339 920 C350 912 356 901 356 886 C356 844 320 839 294 836 L297 797 C350 799 416 814 416 890 C416 923 400 948 375 965 C351 982 320 991 279 991 L257 991 L257 935 L279 935 C305 935 325 931 339 920 L339 920 Z M387 611 L471 611 L345 767 L263 767 L137 611 L222 611 L304 719 L387 611 Z M304 552 C149 552 38 448 38 271 C38 94 149 -10 304 -10 C458 -10 570 94 570 271 C570 448 458 552 304 552 L304 552 Z M304 78 C205 78 140 149 140 271 C140 393 205 464 304 464 C403 464 469 393 469 271 C469 149 403 78 304 78 L304 78 Z " />
<glyph glyph-name="uni1ED6" unicode="&#x1ed6;" horiz-adv-x="793" d="M322 1160 C374 1160 381 1071 469 1071 C533 1071 573 1125 573 1216 L515 1216 C515 1162 496 1131 470 1131 C419 1131 406 1220 326 1219 C260 1220 219 1168 219 1077 L275 1077 C275 1130 292 1160 322 1160 L322 1160 Z M229 836 L313 836 L395 944 L478 836 L563 836 L437 992 L354 992 L229 836 Z M396 777 C181 777 38 620 38 384 C38 148 181 -10 396 -10 C611 -10 755 148 755 384 C755 620 611 777 396 777 L396 777 Z M396 87 C245 87 145 206 145 384 C145 562 245 680 396 680 C547 680 647 562 647 384 C647 206 547 87 396 87 L396 87 Z " />
<glyph glyph-name="uni1ED7" unicode="&#x1ed7;" horiz-adv-x="609" d="M230 935 C282 935 289 846 377 846 C441 846 481 900 481 991 L423 991 C423 937 404 906 378 906 C327 906 314 995 234 994 C168 995 127 943 127 852 L183 852 C183 905 200 935 230 935 L230 935 Z M137 611 L221 611 L303 719 L386 611 L471 611 L345 767 L262 767 L137 611 Z M304 552 C149 552 38 448 38 271 C38 94 149 -10 304 -10 C458 -10 570 94 570 271 C570 448 458 552 304 552 L304 552 Z M304 78 C205 78 140 149 140 271 C140 393 205 464 304 464 C403 464 469 393 469 271 C469 149 403 78 304 78 L304 78 Z " />
<glyph glyph-name="uni1ED8" unicode="&#x1ed8;" horiz-adv-x="793" d="M479 836 L563 836 L437 992 L355 992 L229 836 L314 836 L396 944 L479 836 Z M396 777 C181 777 38 620 38 384 C38 148 181 -10 396 -10 C611 -10 755 148 755 384 C755 620 611 777 396 777 L396 777 Z M396 87 C245 87 145 206 145 384 C145 562 245 680 396 680 C547 680 647 562 647 384 C647 206 547 87 396 87 L396 87 Z M396 -75 C359 -75 331 -104 331 -140 C331 -175 359 -205 396 -205 C431 -205 460 -175 460 -140 C460 -104 431 -75 396 -75 L396 -75 Z " />
<glyph glyph-name="uni1ED9" unicode="&#x1ed9;" horiz-adv-x="609" d="M387 611 L471 611 L345 767 L263 767 L137 611 L222 611 L304 719 L387 611 Z M304 552 C149 552 38 448 38 271 C38 94 149 -10 304 -10 C458 -10 570 94 570 271 C570 448 458 552 304 552 L304 552 Z M304 78 C205 78 140 149 140 271 C140 393 205 464 304 464 C403 464 469 393 469 271 C469 149 403 78 304 78 L304 78 Z M304 -75 C267 -75 239 -104 239 -140 C239 -175 267 -205 304 -205 C339 -205 368 -175 368 -140 C368 -104 339 -75 304 -75 L304 -75 Z " />
<glyph glyph-name="uni1EDA" unicode="&#x1eda;" horiz-adv-x="793" d="M481 992 L360 836 L432 836 L583 992 L481 992 Z M743 785 C743 715 729 674 656 669 C594 738 504 777 396 777 C181 777 38 620 38 384 C38 148 181 -10 396 -10 C611 -10 755 148 755 384 C755 469 737 543 703 604 C793 619 824 672 824 784 L824 842 L743 842 L743 785 Z M396 87 C245 87 145 206 145 384 C145 562 245 680 396 680 C547 680 647 562 647 384 C647 206 547 87 396 87 L396 87 Z " />
<glyph glyph-name="uni1EDB" unicode="&#x1edb;" horiz-adv-x="609" d="M389 767 L268 611 L340 611 L491 767 L389 767 Z M558 570 C558 514 549 477 509 462 C462 520 389 552 304 552 C149 552 38 448 38 271 C38 94 149 -10 304 -10 C458 -10 570 94 570 271 C570 318 562 360 548 396 C615 417 639 470 639 569 L639 627 L558 627 L558 570 Z M304 78 C205 78 140 149 140 271 C140 393 205 464 304 464 C403 464 469 393 469 271 C469 149 403 78 304 78 L304 78 Z " />
<glyph glyph-name="uni1EDC" unicode="&#x1edc;" horiz-adv-x="793" d="M317 992 L216 992 L359 836 L432 836 L317 992 Z M743 785 C743 715 729 674 656 669 C594 738 504 777 396 777 C181 777 38 620 38 384 C38 148 181 -10 396 -10 C611 -10 755 148 755 384 C755 469 737 543 703 604 C793 619 824 672 824 784 L824 842 L743 842 L743 785 Z M396 87 C245 87 145 206 145 384 C145 562 245 680 396 680 C547 680 647 562 647 384 C647 206 547 87 396 87 L396 87 Z " />
<glyph glyph-name="uni1EDD" unicode="&#x1edd;" horiz-adv-x="609" d="M226 767 L125 767 L268 611 L341 611 L226 767 Z M558 570 C558 514 549 477 509 462 C462 520 389 552 304 552 C149 552 38 448 38 271 C38 94 149 -10 304 -10 C458 -10 570 94 570 271 C570 318 562 360 548 396 C615 417 639 470 639 569 L639 627 L558 627 L558 570 Z M304 78 C205 78 140 149 140 271 C140 393 205 464 304 464 C403 464 469 393 469 271 C469 149 403 78 304 78 L304 78 Z " />
<glyph glyph-name="uni1EDE" unicode="&#x1ede;" horiz-adv-x="793" d="M431 921 C442 913 447 902 447 887 C447 845 412 840 385 837 L388 799 C442 800 507 816 507 891 C507 924 492 949 466 967 C443 983 411 992 371 992 L349 992 L349 936 L371 936 C397 936 417 932 431 921 L431 921 Z M743 785 C743 715 729 674 656 669 C594 738 504 777 396 777 C181 777 38 620 38 384 C38 148 181 -10 396 -10 C611 -10 755 148 755 384 C755 469 737 543 703 604 C793 619 824 672 824 784 L824 842 L743 842 L743 785 Z M396 87 C245 87 145 206 145 384 C145 562 245 680 396 680 C547 680 647 562 647 384 C647 206 547 87 396 87 L396 87 Z " />
<glyph glyph-name="uni1EDF" unicode="&#x1edf;" horiz-adv-x="609" d="M339 696 C350 688 355 677 355 662 C355 620 320 615 293 612 L296 574 C350 575 415 591 415 666 C415 699 400 724 374 742 C351 758 319 767 279 767 L257 767 L257 711 L279 711 C305 711 325 707 339 696 L339 696 Z M558 570 C558 514 549 477 509 462 C462 520 389 552 304 552 C149 552 38 448 38 271 C38 94 149 -10 304 -10 C458 -10 570 94 570 271 C570 318 562 360 548 396 C615 417 639 470 639 569 L639 627 L558 627 L558 570 Z M304 78 C205 78 140 149 140 271 C140 393 205 464 304 464 C403 464 469 393 469 271 C469 149 403 78 304 78 L304 78 Z " />
<glyph glyph-name="uni1EE0" unicode="&#x1ee0;" horiz-adv-x="793" d="M322 936 C374 936 381 847 469 847 C533 847 573 901 573 992 L515 992 C515 938 496 907 470 907 C419 907 406 996 326 996 C260 996 219 944 219 853 L275 853 C275 906 292 936 322 936 L322 936 Z M743 785 C743 715 729 674 656 669 C594 738 504 777 396 777 C181 777 38 620 38 384 C38 148 181 -10 396 -10 C611 -10 755 148 755 384 C755 469 737 543 703 604 C793 619 824 672 824 784 L824 842 L743 842 L743 785 Z M396 87 C245 87 145 206 145 384 C145 562 245 680 396 680 C547 680 647 562 647 384 C647 206 547 87 396 87 L396 87 Z " />
<glyph glyph-name="uni1EE1" unicode="&#x1ee1;" horiz-adv-x="609" d="M230 711 C282 711 289 622 377 622 C441 622 481 676 481 767 L423 767 C423 713 404 682 378 682 C327 682 314 771 234 771 C168 771 127 719 127 628 L183 628 C183 681 200 711 230 711 L230 711 Z M558 570 C558 514 549 477 509 462 C462 520 389 552 304 552 C149 552 38 448 38 271 C38 94 149 -10 304 -10 C458 -10 570 94 570 271 C570 318 562 360 548 396 C615 417 639 470 639 569 L639 627 L558 627 L558 570 Z M304 78 C205 78 140 149 140 271 C140 393 205 464 304 464 C403 464 469 393 469 271 C469 149 403 78 304 78 L304 78 Z " />
<glyph glyph-name="uni1EE2" unicode="&#x1ee2;" horiz-adv-x="793" d="M743 785 C743 715 729 674 656 669 C594 738 504 777 396 777 C181 777 38 620 38 384 C38 148 181 -10 396 -10 C611 -10 755 148 755 384 C755 469 737 543 703 604 C793 619 824 672 824 784 L824 842 L743 842 L743 785 Z M396 87 C245 87 145 206 145 384 C145 562 245 680 396 680 C547 680 647 562 647 384 C647 206 547 87 396 87 L396 87 Z M396 -75 C359 -75 331 -104 331 -140 C331 -175 359 -205 396 -205 C431 -205 460 -175 460 -140 C460 -104 431 -75 396 -75 L396 -75 Z " />
<glyph glyph-name="uni1EE3" unicode="&#x1ee3;" horiz-adv-x="609" d="M558 570 C558 514 549 477 509 462 C462 520 389 552 304 552 C149 552 38 448 38 271 C38 94 149 -10 304 -10 C458 -10 570 94 570 271 C570 318 562 360 548 396 C615 417 639 470 639 569 L639 627 L558 627 L558 570 Z M304 78 C205 78 140 149 140 271 C140 393 205 464 304 464 C403 464 469 393 469 271 C469 149 403 78 304 78 L304 78 Z M304 -75 C267 -75 239 -104 239 -140 C239 -175 267 -205 304 -205 C339 -205 368 -175 368 -140 C368 -104 339 -75 304 -75 L304 -75 Z " />
<glyph glyph-name="uni1EE4" unicode="&#x1ee4;" horiz-adv-x="688" d="M344 -10 C540 -10 628 83 628 254 L628 767 L520 767 L520 261 C520 156 479 87 344 87 C210 87 167 152 167 261 L167 767 L59 767 L59 254 C59 86 144 -10 344 -10 L344 -10 Z M343 -205 C378 -205 407 -175 407 -140 C407 -104 378 -75 343 -75 C306 -75 278 -104 278 -140 C278 -175 306 -205 343 -205 L343 -205 Z " />
<glyph glyph-name="uni1EE5" unicode="&#x1ee5;" horiz-adv-x="573" d="M251 -10 C321 -10 372 20 403 59 L411 59 L411 0 L513 0 L513 542 L411 542 L411 252 C411 209 408 175 394 149 C375 106 335 82 282 82 C189 82 154 141 154 245 L154 542 L52 542 L52 221 C52 73 123 -10 251 -10 L251 -10 Z M282 -205 C317 -205 346 -175 346 -140 C346 -104 317 -75 282 -75 C245 -75 217 -104 217 -140 C217 -175 245 -205 282 -205 L282 -205 Z " />
<glyph glyph-name="uni1EE6" unicode="&#x1ee6;" horiz-adv-x="688" d="M335 799 C389 800 454 816 454 891 C454 924 439 949 413 967 C390 983 358 992 318 992 L296 992 L296 936 L318 936 C344 936 364 932 378 921 C389 913 394 902 394 887 C394 845 359 840 332 837 L335 799 Z M344 -10 C540 -10 628 83 628 254 L628 767 L520 767 L520 261 C520 156 479 87 344 87 C210 87 167 152 167 261 L167 767 L59 767 L59 254 C59 86 144 -10 344 -10 L344 -10 Z " />
<glyph glyph-name="uni1EE7" unicode="&#x1ee7;" horiz-adv-x="573" d="M274 574 C328 575 393 591 393 666 C393 699 378 724 352 742 C329 758 297 767 257 767 L235 767 L235 711 L257 711 C283 711 303 707 317 696 C328 688 333 677 333 662 C333 620 298 615 271 612 L274 574 Z M251 -10 C321 -10 372 20 403 59 L411 59 L411 0 L513 0 L513 542 L411 542 L411 252 C411 209 408 175 394 149 C375 106 335 82 282 82 C189 82 154 141 154 245 L154 542 L52 542 L52 221 C52 73 123 -10 251 -10 L251 -10 Z " />
<glyph glyph-name="uni1EE8" unicode="&#x1ee8;" horiz-adv-x="688" d="M428 992 L307 836 L379 836 L530 992 L428 992 Z M699 791 C699 726 687 687 628 677 L628 767 L520 767 L520 261 C520 156 479 87 344 87 C210 87 167 152 167 261 L167 767 L59 767 L59 254 C59 86 144 -10 344 -10 C540 -10 628 83 628 254 L628 606 C742 614 780 666 780 790 L780 848 L699 848 L699 791 Z " />
<glyph glyph-name="uni1EE9" unicode="&#x1ee9;" horiz-adv-x="573" d="M367 767 L246 611 L318 611 L469 767 L367 767 Z M582 659 C582 583 566 542 477 542 L411 542 L411 252 C411 209 408 175 394 149 C375 106 335 82 282 82 C189 82 154 141 154 245 L154 542 L52 542 L52 221 C52 73 123 -10 251 -10 C321 -10 372 20 403 59 L411 59 L411 0 L513 0 L513 474 C625 483 663 534 663 658 L663 716 L582 716 L582 659 Z " />
<glyph glyph-name="uni1EEA" unicode="&#x1eea;" horiz-adv-x="688" d="M265 992 L164 992 L307 836 L380 836 L265 992 Z M699 791 C699 726 687 687 628 677 L628 767 L520 767 L520 261 C520 156 479 87 344 87 C210 87 167 152 167 261 L167 767 L59 767 L59 254 C59 86 144 -10 344 -10 C540 -10 628 83 628 254 L628 606 C742 614 780 666 780 790 L780 848 L699 848 L699 791 Z " />
<glyph glyph-name="uni1EEB" unicode="&#x1eeb;" horiz-adv-x="573" d="M204 767 L103 767 L246 611 L319 611 L204 767 Z M582 659 C582 583 566 542 477 542 L411 542 L411 252 C411 209 408 175 394 149 C375 106 335 82 282 82 C189 82 154 141 154 245 L154 542 L52 542 L52 221 C52 73 123 -10 251 -10 C321 -10 372 20 403 59 L411 59 L411 0 L513 0 L513 474 C625 483 663 534 663 658 L663 716 L582 716 L582 659 Z " />
<glyph glyph-name="uni1EEC" unicode="&#x1eec;" horiz-adv-x="688" d="M378 921 C389 913 394 902 394 887 C394 845 359 840 332 837 L335 799 C389 800 454 816 454 891 C454 924 439 949 413 967 C390 983 358 992 318 992 L296 992 L296 936 L318 936 C344 936 364 932 378 921 L378 921 Z M699 791 C699 726 687 687 628 677 L628 767 L520 767 L520 261 C520 156 479 87 344 87 C210 87 167 152 167 261 L167 767 L59 767 L59 254 C59 86 144 -10 344 -10 C540 -10 628 83 628 254 L628 606 C742 614 780 666 780 790 L780 848 L699 848 L699 791 Z " />
<glyph glyph-name="uni1EED" unicode="&#x1eed;" horiz-adv-x="573" d="M317 696 C328 688 333 677 333 662 C333 620 298 615 271 612 L274 574 C328 575 393 591 393 666 C393 699 378 724 352 742 C329 758 297 767 257 767 L235 767 L235 711 L257 711 C283 711 303 707 317 696 L317 696 Z M582 659 C582 583 566 542 477 542 L411 542 L411 252 C411 209 408 175 394 149 C375 106 335 82 282 82 C189 82 154 141 154 245 L154 542 L52 542 L52 221 C52 73 123 -10 251 -10 C321 -10 372 20 403 59 L411 59 L411 0 L513 0 L513 474 C625 483 663 534 663 658 L663 716 L582 716 L582 659 Z " />
<glyph glyph-name="uni1EEE" unicode="&#x1eee;" horiz-adv-x="688" d="M270 936 C322 936 329 847 417 847 C481 847 521 901 521 992 L463 992 C463 938 444 907 418 907 C367 907 354 996 274 996 C208 996 167 944 167 853 L223 853 C223 906 240 936 270 936 L270 936 Z M699 791 C699 726 687 687 628 677 L628 767 L520 767 L520 261 C520 156 479 87 344 87 C210 87 167 152 167 261 L167 767 L59 767 L59 254 C59 86 144 -10 344 -10 C540 -10 628 83 628 254 L628 606 C742 614 780 666 780 790 L780 848 L699 848 L699 791 Z " />
<glyph glyph-name="uni1EEF" unicode="&#x1eef;" horiz-adv-x="573" d="M208 711 C260 711 267 622 355 622 C419 622 459 676 459 767 L401 767 C401 713 382 682 356 682 C305 682 292 771 212 771 C146 771 105 719 105 628 L161 628 C161 681 178 711 208 711 L208 711 Z M582 659 C582 583 566 542 477 542 L411 542 L411 252 C411 209 408 175 394 149 C375 106 335 82 282 82 C189 82 154 141 154 245 L154 542 L52 542 L52 221 C52 73 123 -10 251 -10 C321 -10 372 20 403 59 L411 59 L411 0 L513 0 L513 474 C625 483 663 534 663 658 L663 716 L582 716 L582 659 Z " />
<glyph glyph-name="uni1EF0" unicode="&#x1ef0;" horiz-adv-x="688" d="M699 791 C699 726 687 687 628 677 L628 767 L520 767 L520 261 C520 156 479 87 344 87 C210 87 167 152 167 261 L167 767 L59 767 L59 254 C59 86 144 -10 344 -10 C540 -10 628 83 628 254 L628 606 C742 614 780 666 780 790 L780 848 L699 848 L699 791 Z M343 -75 C306 -75 278 -104 278 -140 C278 -175 306 -205 343 -205 C378 -205 407 -175 407 -140 C407 -104 378 -75 343 -75 L343 -75 Z " />
<glyph glyph-name="uni1EF1" unicode="&#x1ef1;" horiz-adv-x="573" d="M582 659 C582 583 566 542 477 542 L411 542 L411 252 C411 209 408 175 394 149 C375 106 335 82 282 82 C189 82 154 141 154 245 L154 542 L52 542 L52 221 C52 73 123 -10 251 -10 C321 -10 372 20 403 59 L411 59 L411 0 L513 0 L513 474 C625 483 663 534 663 658 L663 716 L582 716 L582 659 Z M282 -75 C245 -75 217 -104 217 -140 C217 -175 245 -205 282 -205 C317 -205 346 -175 346 -140 C346 -104 317 -75 282 -75 L282 -75 Z " />
<glyph glyph-name="Ygrave" unicode="&#x1ef2;" horiz-adv-x="675" d="M373 836 L258 992 L157 992 L300 836 L373 836 Z M391 0 L391 286 L669 746 L669 767 L556 767 L341 405 L333 405 L118 767 L5 767 L5 746 L283 286 L283 0 L391 0 Z " />
<glyph glyph-name="ygrave" unicode="&#x1ef3;" horiz-adv-x="575" d="M208 767 L107 767 L250 611 L323 611 L208 767 Z M292 88 L282 88 L123 542 L15 542 L208 0 L262 0 L230 -85 C219 -113 194 -131 162 -131 L61 -131 L61 -224 L186 -224 C245 -224 292 -192 313 -136 L366 0 L559 542 L450 542 L292 88 Z " />
<glyph glyph-name="uni1EF4" unicode="&#x1ef4;" horiz-adv-x="675" d="M391 0 L391 286 L669 746 L669 767 L556 767 L341 405 L333 405 L118 767 L5 767 L5 746 L283 286 L283 0 L391 0 Z M337 -205 C372 -205 401 -175 401 -140 C401 -104 372 -75 337 -75 C300 -75 272 -104 272 -140 C272 -175 300 -205 337 -205 L337 -205 Z " />
<glyph glyph-name="uni1EF5" unicode="&#x1ef5;" horiz-adv-x="575" d="M292 88 L282 88 L123 542 L15 542 L208 0 L262 0 L230 -85 C219 -113 194 -131 162 -131 L61 -131 L61 -224 L186 -224 C245 -224 292 -192 313 -136 L366 0 L559 542 L450 542 L292 88 Z M458 -75 C421 -75 393 -104 393 -140 C393 -175 421 -205 458 -205 C493 -205 522 -175 522 -140 C522 -104 493 -75 458 -75 L458 -75 Z " />
<glyph glyph-name="uni1EF6" unicode="&#x1ef6;" horiz-adv-x="675" d="M329 799 C383 800 448 816 448 891 C448 924 433 949 407 967 C384 983 352 992 312 992 L290 992 L290 936 L312 936 C338 936 358 932 372 921 C383 913 388 902 388 887 C388 845 353 840 326 837 L329 799 Z M391 0 L391 286 L669 746 L669 767 L556 767 L341 405 L333 405 L118 767 L5 767 L5 746 L283 286 L283 0 L391 0 Z " />
<glyph glyph-name="uni1EF7" unicode="&#x1ef7;" horiz-adv-x="575" d="M322 696 C333 688 338 677 338 662 C338 620 303 615 276 612 L279 574 C333 575 398 591 398 666 C398 699 383 724 357 742 C334 758 302 767 262 767 L240 767 L240 711 L262 711 C288 711 308 707 322 696 L322 696 Z M292 88 L282 88 L123 542 L15 542 L208 0 L262 0 L230 -85 C219 -113 194 -131 162 -131 L61 -131 L61 -224 L186 -224 C245 -224 292 -192 313 -136 L366 0 L559 542 L450 542 L292 88 Z " />
<glyph glyph-name="uni1EF8" unicode="&#x1ef8;" horiz-adv-x="675" d="M410 847 C474 847 514 901 514 992 L456 992 C456 938 437 907 411 907 C360 907 347 996 267 996 C201 996 160 944 160 853 L216 853 C216 906 233 936 263 936 C315 936 322 847 410 847 L410 847 Z M391 0 L391 286 L669 746 L669 767 L556 767 L341 405 L333 405 L118 767 L5 767 L5 746 L283 286 L283 0 L391 0 Z " />
<glyph glyph-name="uni1EF9" unicode="&#x1ef9;" horiz-adv-x="575" d="M213 711 C265 711 272 622 360 622 C424 622 464 676 464 767 L406 767 C406 713 387 682 361 682 C310 682 297 771 217 771 C151 771 110 719 110 628 L166 628 C166 681 183 711 213 711 L213 711 Z M292 88 L282 88 L123 542 L15 542 L208 0 L262 0 L230 -85 C219 -113 194 -131 162 -131 L61 -131 L61 -224 L186 -224 C245 -224 292 -192 313 -136 L366 0 L559 542 L450 542 L292 88 Z " />
<glyph glyph-name="endash" unicode="&#x2013;" horiz-adv-x="500" d="M500 235 L500 307 L0 307 L0 235 L500 235 Z " />
<glyph glyph-name="emdash" unicode="&#x2014;" horiz-adv-x="1000" d="M1000 235 L1000 307 L0 307 L0 235 L1000 235 Z " />
<glyph glyph-name="uni2015" unicode="&#x2015;" horiz-adv-x="500" d="M500 235 L500 307 L0 307 L0 235 L500 235 Z " />
<glyph glyph-name="quoteleft" unicode="&#x2018;" horiz-adv-x="240" d="M178 753 L178 767 L122 767 L53 604 C45 585 39 567 39 545 C39 507 70 474 113 474 C159 474 189 507 189 546 C189 585 161 618 117 620 L178 753 Z " />
<glyph glyph-name="quoteright" unicode="&#x2019;" horiz-adv-x="240" d="M127 777 C81 777 51 744 51 706 C51 666 78 633 122 631 L61 498 L61 484 L117 484 L186 647 C195 666 201 685 201 706 C201 744 170 777 127 777 L127 777 Z " />
<glyph glyph-name="quotesinglbase" unicode="&#x201a;" horiz-adv-x="265" d="M139 136 C93 136 63 104 63 65 C63 26 91 -7 134 -9 L74 -143 L74 -157 L130 -157 L198 6 C207 25 213 44 213 65 C213 104 182 136 139 136 L139 136 Z " />
<glyph glyph-name="quotedblleft" unicode="&#x201c;" horiz-adv-x="423" d="M178 753 L178 767 L122 767 L53 604 C45 585 39 567 39 545 C39 507 70 474 113 474 C159 474 189 507 189 546 C189 585 161 618 117 620 L178 753 Z M362 753 L362 767 L306 767 L237 604 C229 585 223 567 223 545 C223 507 253 474 297 474 C343 474 373 507 373 546 C373 585 345 618 301 620 L362 753 Z " />
<glyph glyph-name="quotedblright" unicode="&#x201d;" horiz-adv-x="423" d="M127 777 C81 777 51 744 51 706 C51 666 78 633 122 631 L61 498 L61 484 L117 484 L186 647 C195 666 201 685 201 706 C201 744 170 777 127 777 L127 777 Z M311 777 C264 777 234 744 234 706 C234 666 262 633 306 631 L245 498 L245 484 L301 484 L370 647 C378 666 384 685 384 706 C384 744 354 777 311 777 L311 777 Z " />
<glyph glyph-name="quotedblbase" unicode="&#x201e;" horiz-adv-x="449" d="M139 136 C93 136 63 104 63 65 C63 26 91 -7 134 -9 L74 -143 L74 -157 L130 -157 L198 6 C207 25 213 44 213 65 C213 104 182 136 139 136 L139 136 Z M323 136 C277 136 247 104 247 65 C247 26 274 -7 318 -9 L257 -143 L257 -157 L313 -157 L382 6 C391 25 397 44 397 65 C397 104 366 136 323 136 L323 136 Z " />
<glyph glyph-name="dagger" unicode="&#x2020;" horiz-adv-x="438" d="M262 -111 L262 465 L391 465 L391 551 L262 551 L262 767 L176 767 L176 551 L46 551 L46 465 L176 465 L176 -111 L262 -111 Z " />
<glyph glyph-name="daggerdbl" unicode="&#x2021;" horiz-adv-x="484" d="M285 -111 L285 104 L415 104 L415 191 L285 191 L285 465 L415 465 L415 551 L285 551 L285 767 L199 767 L199 551 L69 551 L69 465 L199 465 L199 191 L69 191 L69 104 L199 104 L199 -111 L285 -111 Z " />
<glyph glyph-name="bullet" unicode="&#x2022;" horiz-adv-x="449" d="M224 85 C328 85 411 168 411 271 C411 375 328 458 224 458 C121 458 38 375 38 271 C38 168 121 85 224 85 L224 85 Z " />
<glyph glyph-name="ellipsis" unicode="&#x2026;" horiz-adv-x="774" d="M140 -10 C181 -10 214 24 214 65 C214 103 181 136 140 136 C97 136 64 103 64 65 C64 24 97 -10 140 -10 L140 -10 Z M388 -10 C429 -10 462 24 462 65 C462 103 428 136 388 136 C345 136 312 103 312 65 C312 24 345 -10 388 -10 L388 -10 Z M635 -10 C677 -10 710 24 710 65 C710 103 676 136 635 136 C593 136 560 103 560 65 C560 24 593 -10 635 -10 L635 -10 Z " />
<glyph glyph-name="perthousand" unicode="&#x2030;" horiz-adv-x="1142" d="M210 427 C295 427 356 501 356 601 C356 701 293 776 207 776 C113 776 60 694 60 602 C60 509 114 427 210 427 L210 427 Z M213 0 L656 767 L588 767 L144 0 L213 0 Z M210 492 C152 492 125 544 125 602 C125 659 151 711 207 711 C260 711 291 662 291 601 C291 537 257 492 210 492 L210 492 Z M594 -9 C679 -9 740 65 740 165 C740 265 678 339 591 339 C497 339 444 258 444 165 C444 72 498 -9 594 -9 L594 -9 Z M939 -9 C1024 -9 1085 65 1085 165 C1085 265 1023 339 936 339 C842 339 788 258 788 165 C788 72 843 -9 939 -9 L939 -9 Z M594 56 C537 56 509 107 509 165 C509 223 535 274 591 274 C645 274 675 226 675 165 C675 100 642 56 594 56 L594 56 Z M939 56 C881 56 853 107 853 165 C853 223 880 274 936 274 C989 274 1020 226 1020 165 C1020 100 986 56 939 56 L939 56 Z " />
<glyph glyph-name="uni2031" unicode="&#x2031;" horiz-adv-x="1486" d="M210 427 C295 427 356 501 356 601 C356 701 293 776 207 776 C113 776 60 694 60 602 C60 509 114 427 210 427 L210 427 Z M213 0 L656 767 L588 767 L144 0 L213 0 Z M210 492 C152 492 125 544 125 602 C125 659 151 711 207 711 C260 711 291 662 291 601 C291 537 257 492 210 492 L210 492 Z M594 -9 C679 -9 740 65 740 165 C740 265 678 339 591 339 C497 339 444 258 444 165 C444 72 498 -9 594 -9 L594 -9 Z M939 -9 C1024 -9 1085 65 1085 165 C1085 265 1023 339 936 339 C842 339 788 258 788 165 C788 72 843 -9 939 -9 L939 -9 Z M1284 -9 C1368 -9 1430 65 1430 165 C1430 265 1367 339 1280 339 C1186 339 1133 258 1133 165 C1133 72 1187 -9 1284 -9 L1284 -9 Z M594 56 C537 56 509 107 509 165 C509 223 535 274 591 274 C645 274 675 226 675 165 C675 100 642 56 594 56 L594 56 Z M939 56 C881 56 853 107 853 165 C853 223 880 274 936 274 C989 274 1020 226 1020 165 C1020 100 986 56 939 56 L939 56 Z M1284 56 C1225 56 1198 107 1198 165 C1198 223 1224 274 1280 274 C1334 274 1365 226 1365 165 C1365 100 1330 56 1284 56 L1284 56 Z " />
<glyph glyph-name="guilsinglleft" unicode="&#x2039;" horiz-adv-x="344" d="M280 167 L157 271 L280 376 L280 459 L59 271 L280 83 L280 167 Z " />
<glyph glyph-name="guilsinglright" unicode="&#x203a;" horiz-adv-x="344" d="M285 271 L64 459 L64 376 L187 271 L64 167 L64 83 L285 271 Z " />
<glyph glyph-name="fraction" unicode="&#x2044;" horiz-adv-x="163" d="M-107 0 L337 767 L269 767 L-174 0 L-107 0 Z " />
<glyph glyph-name="uni2074" unicode="&#x2074;" horiz-adv-x="416" d="M313 307 L313 411 L381 411 L381 469 L313 469 L313 767 L235 767 L35 474 L35 411 L248 411 L248 307 L313 307 Z M97 472 L244 687 L248 687 L248 469 L97 469 L97 472 Z " />
<glyph glyph-name="Euro" unicode="&#x20ac;" horiz-adv-x="792" d="M664 146 C622 103 562 79 489 79 C365 79 282 149 249 261 L460 261 L502 334 L234 334 C233 350 232 366 232 383 C232 405 233 425 236 445 L569 445 L613 517 L252 517 C288 622 369 688 489 688 C566 688 628 661 671 613 L721 698 C663 748 585 776 489 776 C309 776 191 676 150 517 L76 517 L76 445 L137 445 C135 425 134 404 134 383 C134 366 135 350 136 334 L76 334 L76 261 L147 261 C185 96 305 -9 489 -9 C588 -9 669 21 729 75 L664 146 Z " />
<glyph glyph-name="uni20B1" unicode="&#x20b1;" horiz-adv-x="671" d="M600 570 C595 639 568 692 522 724 C479 756 417 767 333 767 L108 767 L108 570 L50 570 L50 529 L108 529 L108 0 L216 0 L216 326 L333 326 C417 326 479 337 522 369 C569 402 597 457 601 529 L658 529 L658 570 L600 570 Z M315 671 C384 671 425 666 456 641 C473 628 487 606 492 570 L216 570 L216 671 L315 671 Z M456 452 C426 427 383 422 315 422 L216 422 L216 529 L492 529 C489 491 475 468 456 452 L456 452 Z " />
<glyph glyph-name="uni20B8" unicode="&#x20b8;" horiz-adv-x="766" d="M689 685 L689 767 L77 767 L77 685 L689 685 Z M432 0 L432 506 L689 506 L689 588 L77 588 L77 506 L334 506 L334 0 L432 0 Z " />
<glyph glyph-name="trademark" unicode="&#x2122;" horiz-adv-x="828" d="M202 356 L202 713 L314 713 L314 767 L26 767 L26 713 L137 713 L137 356 L202 356 Z M453 356 L453 700 L565 383 L606 383 L715 696 L715 356 L780 356 L780 767 L682 767 L586 474 L488 767 L389 767 L389 356 L453 356 Z " />
<glyph glyph-name="uni2126" unicode="&#x2126;" horiz-adv-x="899" d="M383 0 L383 93 C263 123 186 230 186 392 C186 550 287 667 450 667 C611 667 713 553 713 392 C713 226 636 119 516 94 L516 0 L817 0 L817 77 L620 77 C727 137 797 253 797 393 C797 592 654 747 450 747 C248 747 102 596 102 395 C102 263 175 147 287 80 L81 80 L81 0 L383 0 Z " />
<glyph glyph-name="arrowleft" unicode="&#x2190;" horiz-adv-x="967" d="M364 307 L364 496 L-21 271 L364 46 L364 235 L966 235 L966 307 L364 307 Z " />
<glyph glyph-name="arrowright" unicode="&#x2192;" horiz-adv-x="967" d="M602 496 L602 307 L0 307 L0 235 L602 235 L602 46 L987 271 L602 496 Z " />
<glyph glyph-name="partialdiff" unicode="&#x2202;" horiz-adv-x="715" d="M313 -7 C520 -7 630 177 630 408 C630 626 550 775 359 775 C242 775 166 721 128 627 L206 605 C237 681 301 704 359 704 C472 704 532 621 535 483 L527 483 C488 529 431 551 365 551 C207 551 71 424 71 240 C71 96 162 -7 313 -7 L313 -7 Z M318 76 C229 76 159 134 159 241 C159 362 237 472 376 472 C506 472 537 370 532 285 C521 181 448 76 318 76 L318 76 Z " />
<glyph glyph-name="uni2206" unicode="&#x2206;" horiz-adv-x="720" d="M677 0 L359 799 L43 0 L677 0 Z M359 603 L560 80 L160 80 L359 603 Z " />
<glyph glyph-name="product" unicode="&#x220f;" horiz-adv-x="724" d="M221 0 L221 687 L503 687 L503 0 L583 0 L583 687 L636 687 L636 767 L88 767 L88 687 L141 687 L141 0 L221 0 Z " />
<glyph glyph-name="summation" unicode="&#x2211;" horiz-adv-x="706" d="M59 767 L59 713 L368 383 L59 54 L59 0 L637 0 L637 91 L213 91 L496 383 L212 676 L637 676 L637 767 L59 767 Z " />
<glyph glyph-name="minus" unicode="&#x2212;" horiz-adv-x="455" d="M434 235 L434 307 L22 307 L22 235 L434 235 Z " />
<glyph glyph-name="radical" unicode="&#x221a;" horiz-adv-x="671" d="M629 767 L543 767 L281 111 L185 379 L45 379 L45 299 L128 299 L276 -95 L629 767 Z " />
<glyph glyph-name="infinity" unicode="&#x221e;" horiz-adv-x="1065" d="M298 193 C382 193 466 246 530 332 C596 246 681 193 765 193 C893 193 976 280 976 397 C976 514 893 601 765 601 C682 601 598 549 530 463 C467 548 383 601 298 601 C171 601 88 514 88 397 C88 280 171 193 298 193 L298 193 Z M310 270 C230 270 173 320 173 397 C173 473 230 524 310 524 C366 524 434 483 487 397 C434 312 366 270 310 270 L310 270 Z M754 270 C693 270 625 317 573 397 C625 476 693 524 754 524 C834 524 891 473 891 397 C891 320 834 270 754 270 L754 270 Z " />
<glyph glyph-name="integral" unicode="&#x222b;" horiz-adv-x="519" d="M38 -254 C196 -254 290 -175 290 -20 L290 612 C290 671 327 701 368 701 C389 701 412 694 435 675 L486 736 C450 766 409 782 368 782 C281 782 210 711 210 615 L210 -18 C210 -131 163 -174 38 -174 L38 -254 Z " />
<glyph glyph-name="approxequal" unicode="&#x2248;" horiz-adv-x="509" d="M350 298 C433 298 487 372 487 479 L415 479 C415 410 388 363 350 363 C275 363 282 494 157 494 C75 494 22 428 22 326 L94 326 C94 389 117 430 157 430 C237 430 229 298 350 298 L350 298 Z M350 48 C433 48 487 121 487 229 L415 229 C415 161 388 113 350 113 C275 113 282 245 157 245 C75 245 22 177 22 76 L94 76 C94 139 117 180 157 180 C237 180 229 48 350 48 L350 48 Z " />
<glyph glyph-name="notequal" unicode="&#x2260;" horiz-adv-x="512" d="M491 417 L375 417 L447 542 L379 542 L307 417 L22 417 L22 344 L265 344 L180 198 L22 198 L22 125 L138 125 L66 0 L134 0 L206 125 L491 125 L491 198 L248 198 L333 344 L491 344 L491 417 Z " />
<glyph glyph-name="lessequal" unicode="&#x2264;" horiz-adv-x="446" d="M22 420 L22 340 L424 220 L424 297 L130 380 L424 462 L424 540 L22 420 Z M424 125 L424 198 L22 198 L22 125 L424 125 Z " />
<glyph glyph-name="greaterequal" unicode="&#x2265;" horiz-adv-x="446" d="M22 462 L316 380 L22 297 L22 220 L424 340 L424 420 L22 540 L22 462 Z M424 125 L424 198 L22 198 L22 125 L424 125 Z " />
<glyph glyph-name="lozenge" unicode="&#x25ca;" horiz-adv-x="643" d="M387 0 L592 383 L387 767 L255 767 L51 383 L255 0 L387 0 Z M145 383 L313 716 L329 716 L498 383 L329 51 L313 51 L145 383 Z " />
<glyph glyph-name="uniF8FF" unicode="&#xf8ff;" horiz-adv-x="982" d="M491 -33 C723 -33 911 154 911 387 C911 619 723 807 491 807 C259 807 71 619 71 387 C71 154 259 -33 491 -33 L491 -33 Z M491 6 C280 6 110 176 110 387 C110 598 280 768 491 768 C702 768 872 598 872 387 C872 176 702 6 491 6 L491 6 Z M272 222 C283 222 292 230 292 241 L292 532 C292 543 283 552 272 552 C262 552 253 543 253 532 L253 241 C253 230 262 222 272 222 L272 222 Z M491 222 C502 222 510 230 510 241 L510 532 C510 543 502 552 491 552 C480 552 472 543 472 532 L472 241 C472 230 480 222 491 222 L491 222 Z M709 222 C719 222 729 231 729 241 C729 246 728 250 723 254 L591 387 L723 519 C728 523 729 528 729 532 C729 542 719 552 709 552 C704 552 700 550 697 546 L550 400 C547 397 546 392 546 387 C546 382 547 378 550 373 L697 228 C700 223 704 222 709 222 L709 222 Z M418 368 C429 368 438 376 438 387 C438 398 429 406 418 406 L346 406 C334 406 327 398 327 387 C327 376 334 368 346 368 L418 368 Z " />
<glyph glyph-name="fi" unicode="&#xfb01;" horiz-adv-x="552" d="M443 648 C477 648 507 677 507 714 C507 749 477 778 443 778 C406 778 377 749 377 714 C377 677 406 648 443 648 L443 648 Z M210 632 C210 656 228 674 252 674 L318 674 L318 767 L243 767 C157 767 108 718 108 632 L108 542 L20 542 L20 449 L108 449 L108 0 L210 0 L210 449 L392 449 L392 0 L494 0 L494 542 L210 542 L210 632 Z " />
<glyph glyph-name="fl" unicode="&#xfb02;" horiz-adv-x="608" d="M533 93 C510 93 491 111 491 135 L491 767 L243 767 C157 767 108 718 108 632 L108 542 L20 542 L20 449 L108 449 L108 0 L210 0 L210 449 L318 449 L318 542 L210 542 L210 632 C210 656 228 674 252 674 L389 674 L389 135 C389 49 438 0 524 0 L583 0 L583 93 L533 93 Z " />
</font>
</svg>
